<svg width="727" height="194" viewBox="0 0 727 194" fill="none" xmlns="http://www.w3.org/2000/svg">
<path d="M0 0H727V121C727 161.317 694.317 194 654 194H73C32.6832 194 0 161.317 0 121V0Z" fill="#9A2828"/>
<path fill-rule="evenodd" clip-rule="evenodd" d="M102 120.5C102 136.24 89.2401 149 73.5 149C57.7599 149 45 136.24 45 120.5C45 104.76 57.7599 92 73.5 92C89.2401 92 102 104.76 102 120.5ZM73.5 153C91.4493 153 106 138.449 106 120.5C106 102.551 91.4493 88 73.5 88C55.5507 88 41 102.551 41 120.5C41 138.449 55.5507 153 73.5 153ZM71.232 136.768C72.2083 137.744 73.7912 137.744 74.7675 136.768L90.6774 120.858C91.6537 119.882 91.6537 118.299 90.6774 117.322C89.7011 116.346 88.1182 116.346 87.1419 117.322L75.4997 128.964V109.5C75.4997 108.119 74.3805 107 72.9997 107C71.619 107 70.4997 108.119 70.4997 109.5L70.4997 128.964L58.8576 117.322C57.8813 116.346 56.2984 116.346 55.3221 117.322C54.3458 118.299 54.3458 119.882 55.3221 120.858L71.232 136.768Z" fill="#F1F1F1"/>
<path fill-rule="evenodd" clip-rule="evenodd" d="M682 120.5C682 136.24 669.24 149 653.5 149C637.76 149 625 136.24 625 120.5C625 104.76 637.76 92 653.5 92C669.24 92 682 104.76 682 120.5ZM653.5 153C671.449 153 686 138.449 686 120.5C686 102.551 671.449 88 653.5 88C635.551 88 621 102.551 621 120.5C621 138.449 635.551 153 653.5 153ZM651.642 136.768C652.618 137.744 654.201 137.744 655.178 136.768L671.088 120.858C672.064 119.882 672.064 118.299 671.088 117.322C670.111 116.346 668.528 116.346 667.552 117.322L655.91 128.964V109.5C655.91 108.119 654.791 107 653.41 107C652.029 107 650.91 108.119 650.91 109.5L650.91 128.964L639.268 117.322C638.291 116.346 636.709 116.346 635.732 117.322C634.756 118.299 634.756 119.882 635.732 120.858L651.642 136.768Z" fill="#F1F1F1"/>
<path d="M281.851 54.6465V21.4023H296.241C299.217 21.4023 301.782 21.8931 303.935 22.8746C306.088 23.8244 307.75 25.2017 308.921 27.0064C310.093 28.811 310.678 30.964 310.678 33.4652C310.678 35.9348 310.093 38.0719 308.921 39.8766C307.75 41.6813 306.088 43.0744 303.935 44.0558C301.782 45.0057 299.217 45.4806 296.241 45.4806H286.125L289.545 42.0137V54.6465H281.851ZM289.545 42.8686L286.125 39.2117H295.814C298.188 39.2117 299.961 38.7051 301.133 37.692C302.304 36.6788 302.89 35.2699 302.89 33.4652C302.89 31.6289 302.304 30.2041 301.133 29.191C299.961 28.1778 298.188 27.6712 295.814 27.6712H286.125L289.545 24.0144V42.8686ZM323.247 34.795H339.252V40.7789H323.247V34.795ZM323.817 48.4726H341.912V54.6465H316.171V21.4023H341.294V27.5763H323.817V48.4726ZM358.956 55.2164C356.297 55.2164 353.748 54.8681 351.31 54.1716C348.872 53.4434 346.909 52.5094 345.421 51.3696L348.033 45.5756C349.458 46.5887 351.136 47.4278 353.067 48.0926C355.03 48.7259 357.009 49.0425 359.004 49.0425C360.524 49.0425 361.742 48.9 362.661 48.615C363.61 48.2984 364.307 47.871 364.75 47.3328C365.194 46.7945 365.415 46.1771 365.415 45.4806C365.415 44.5941 365.067 43.8975 364.37 43.391C363.674 42.8527 362.756 42.4253 361.616 42.1087C360.476 41.7604 359.21 41.4438 357.816 41.1589C356.455 40.8422 355.078 40.4623 353.685 40.0191C352.323 39.5758 351.073 39.0059 349.933 38.3094C348.793 37.6128 347.859 36.6946 347.131 35.5548C346.434 34.415 346.086 32.9586 346.086 31.1856C346.086 29.286 346.593 27.5604 347.606 26.009C348.651 24.426 350.202 23.1754 352.26 22.2572C354.35 21.3074 356.962 20.8324 360.096 20.8324C362.186 20.8324 364.244 21.0857 366.27 21.5923C368.296 22.0672 370.085 22.7954 371.637 23.7769L369.262 29.6184C367.711 28.7319 366.159 28.0828 364.608 27.6712C363.056 27.228 361.537 27.0064 360.049 27.0064C358.561 27.0064 357.342 27.1805 356.392 27.5288C355.442 27.877 354.761 28.3361 354.35 28.906C353.938 29.4443 353.732 30.0775 353.732 30.8057C353.732 31.6605 354.08 32.3571 354.777 32.8953C355.474 33.4019 356.392 33.8135 357.532 34.1301C358.671 34.4467 359.922 34.7633 361.283 35.0799C362.676 35.3965 364.054 35.7606 365.415 36.1722C366.808 36.5838 368.075 37.1379 369.214 37.8344C370.354 38.531 371.272 39.4492 371.969 40.589C372.697 41.7288 373.061 43.1693 373.061 44.9107C373.061 46.7787 372.539 48.4884 371.494 50.0398C370.449 51.5912 368.882 52.8418 366.792 53.7916C364.734 54.7415 362.122 55.2164 358.956 55.2164ZM373.949 54.6465L388.767 21.4023H396.365L411.23 54.6465H403.157L390.999 25.2967H394.038L381.833 54.6465H373.949ZM381.358 47.5227L383.4 41.6813H400.497L402.587 47.5227H381.358ZM414.679 54.6465V21.4023H421.043L440.657 45.3381H437.57V21.4023H445.169V54.6465H438.852L419.191 30.7107H422.278V54.6465H414.679ZM193.732 95.6465V62.4023H201.425V89.3776H218.095V95.6465H193.732ZM218.21 95.6465L233.027 62.4023H240.626L255.491 95.6465H247.417L235.259 66.2967H238.299L226.094 95.6465H218.21ZM225.619 88.5227L227.661 82.6813H244.758L246.847 88.5227H225.619ZM265.163 95.6465V82.0639L266.92 86.7181L252.293 62.4023H260.461L271.669 81.0666H266.968L278.223 62.4023H285.774L271.147 86.7181L272.857 82.0639V95.6465H265.163ZM282.583 95.6465L297.401 62.4023H304.999L319.864 95.6465H311.791L299.633 66.2967H302.672L290.467 95.6465H282.583ZM289.992 88.5227L292.034 82.6813H309.131L311.221 88.5227H289.992ZM323.313 95.6465V62.4023H329.677L349.291 86.3381H346.204V62.4023H353.803V95.6465H347.487L327.825 71.7107H330.912V95.6465H323.313ZM357.299 95.6465L372.117 62.4023H379.715L394.58 95.6465H386.507L374.349 66.2967H377.388L365.183 95.6465H357.299ZM364.708 88.5227L366.75 82.6813H383.847L385.937 88.5227H364.708ZM398.029 95.6465V62.4023H404.393L424.007 86.3381H420.92V62.4023H428.519V95.6465H422.203L402.541 71.7107H405.628V95.6465H398.029ZM436.384 95.6465V62.4023H442.748L462.362 86.3381H459.275V62.4023H466.874V95.6465H460.558L440.896 71.7107H443.983V95.6465H436.384ZM483.003 95.6465V82.0639L484.76 86.7181L470.133 62.4023H478.301L489.509 81.0666H484.808L496.063 62.4023H503.614L488.987 86.7181L490.697 82.0639V95.6465H483.003ZM500.423 95.6465L515.241 62.4023H522.84L537.704 95.6465H529.631L517.473 66.2967H520.512L508.307 95.6465H500.423ZM507.832 88.5227L509.874 82.6813H526.971L529.061 88.5227H507.832ZM232.273 137.216C229.614 137.216 227.065 136.868 224.627 136.172C222.189 135.443 220.226 134.509 218.738 133.37L221.35 127.576C222.775 128.589 224.453 129.428 226.384 130.093C228.347 130.726 230.326 131.042 232.321 131.042C233.841 131.042 235.059 130.9 235.978 130.615C236.927 130.298 237.624 129.871 238.067 129.333C238.511 128.795 238.732 128.177 238.732 127.481C238.732 126.594 238.384 125.898 237.687 125.391C236.991 124.853 236.073 124.425 234.933 124.109C233.793 123.76 232.527 123.444 231.133 123.159C229.772 122.842 228.395 122.462 227.002 122.019C225.64 121.576 224.39 121.006 223.25 120.309C222.11 119.613 221.176 118.695 220.448 117.555C219.751 116.415 219.403 114.959 219.403 113.186C219.403 111.286 219.91 109.56 220.923 108.009C221.968 106.426 223.519 105.175 225.577 104.257C227.667 103.307 230.279 102.832 233.413 102.832C235.503 102.832 237.561 103.086 239.587 103.592C241.613 104.067 243.402 104.795 244.954 105.777L242.579 111.618C241.028 110.732 239.476 110.083 237.925 109.671C236.373 109.228 234.854 109.006 233.366 109.006C231.878 109.006 230.659 109.18 229.709 109.529C228.759 109.877 228.078 110.336 227.667 110.906C227.255 111.444 227.049 112.077 227.049 112.806C227.049 113.661 227.397 114.357 228.094 114.895C228.791 115.402 229.709 115.813 230.849 116.13C231.988 116.447 233.239 116.763 234.6 117.08C235.993 117.397 237.371 117.761 238.732 118.172C240.125 118.584 241.392 119.138 242.531 119.834C243.671 120.531 244.589 121.449 245.286 122.589C246.014 123.729 246.378 125.169 246.378 126.911C246.378 128.779 245.856 130.488 244.811 132.04C243.766 133.591 242.199 134.842 240.109 135.792C238.051 136.741 235.439 137.216 232.273 137.216ZM258.712 116.795H274.716V122.779H258.712V116.795ZM259.282 130.473H277.376V136.646H251.635V103.402H276.758V109.576H259.282V130.473ZM290.384 129.048L289.956 120.167L305.866 103.402H314.415L300.072 118.837L295.798 123.396L290.384 129.048ZM283.497 136.646V103.402H291.144V136.646H283.497ZM306.246 136.646L294.421 122.162L299.455 116.7L315.222 136.646H306.246ZM312.799 136.646L327.616 103.402H335.215L350.08 136.646H342.006L329.849 107.297H332.888L320.683 136.646H312.799ZM320.208 129.523L322.25 123.681H339.347L341.437 129.523H320.208ZM353.529 136.646V103.402H367.919C370.895 103.402 373.46 103.893 375.613 104.875C377.766 105.824 379.428 107.202 380.599 109.006C381.771 110.811 382.357 112.964 382.357 115.465C382.357 117.935 381.771 120.072 380.599 121.877C379.428 123.65 377.766 125.011 375.613 125.961C373.46 126.911 370.895 127.386 367.919 127.386H357.803L361.223 124.014V136.646H353.529ZM374.663 136.646L366.352 124.584H374.568L382.974 136.646H374.663ZM361.223 124.869L357.803 121.259H367.492C369.866 121.259 371.639 120.753 372.811 119.739C373.982 118.695 374.568 117.27 374.568 115.465C374.568 113.629 373.982 112.204 372.811 111.191C371.639 110.178 369.866 109.671 367.492 109.671H357.803L361.223 106.014V124.869ZM384.083 136.646L398.9 103.402H406.499L421.364 136.646H413.29L401.132 107.297H404.172L391.967 136.646H384.083ZM391.492 129.523L393.534 123.681H410.631L412.72 129.523H391.492ZM424.813 136.646V103.402H431.177L450.791 127.338H447.704V103.402H455.303V136.646H448.986L429.325 112.711H432.412V136.646H424.813ZM479.22 137.216C476.592 137.216 474.17 136.805 471.954 135.982C469.769 135.127 467.854 133.924 466.207 132.372C464.593 130.821 463.326 129 462.408 126.911C461.522 124.821 461.078 122.526 461.078 120.024C461.078 117.523 461.522 115.228 462.408 113.138C463.326 111.048 464.609 109.228 466.255 107.677C467.901 106.125 469.833 104.938 472.049 104.115C474.265 103.26 476.703 102.832 479.363 102.832C482.307 102.832 484.951 103.323 487.294 104.305C489.668 105.286 491.663 106.711 493.278 108.579L488.339 113.138C487.135 111.872 485.821 110.938 484.397 110.336C482.972 109.703 481.421 109.386 479.743 109.386C478.128 109.386 476.656 109.64 475.326 110.146C473.996 110.653 472.84 111.381 471.859 112.331C470.909 113.281 470.165 114.405 469.627 115.703C469.12 117.001 468.867 118.441 468.867 120.024C468.867 121.576 469.12 123.001 469.627 124.299C470.165 125.597 470.909 126.737 471.859 127.718C472.84 128.668 473.98 129.396 475.278 129.903C476.608 130.409 478.064 130.663 479.648 130.663C481.167 130.663 482.64 130.425 484.064 129.95C485.521 129.444 486.93 128.605 488.291 127.433L492.66 132.99C490.856 134.351 488.75 135.396 486.344 136.124C483.969 136.852 481.595 137.216 479.22 137.216ZM485.631 131.992V119.502H492.66V132.99L485.631 131.992ZM499.807 125.106L498.335 103.402H507.168L505.696 125.106H499.807ZM502.752 137.026C501.422 137.026 500.329 136.599 499.475 135.744C498.62 134.889 498.192 133.876 498.192 132.705C498.192 131.502 498.62 130.504 499.475 129.713C500.329 128.89 501.422 128.478 502.752 128.478C504.113 128.478 505.205 128.89 506.028 129.713C506.883 130.504 507.311 131.502 507.311 132.705C507.311 133.876 506.883 134.889 506.028 135.744C505.205 136.599 504.113 137.026 502.752 137.026Z" fill="#F1F1F1"/>
<path d="M265.467 165.354L265.357 162.073L280.814 146.179H283.913L272.648 157.99L271.117 159.631L265.467 165.354ZM263.134 171.697V146.179H265.831V171.697H263.134ZM281.47 171.697L270.461 159.011L272.284 157.043L284.678 171.697H281.47ZM289.05 171.697V146.179H291.748V169.364H306.038V171.697H289.05ZM310.517 171.697V146.179H313.215V171.697H310.517ZM323.851 165.354L323.741 162.073L339.198 146.179H342.297L331.032 157.99L329.501 159.631L323.851 165.354ZM321.518 171.697V146.179H324.215V171.697H321.518ZM339.854 171.697L328.845 159.011L330.668 157.043L343.062 171.697H339.854ZM356.975 171.697V146.179H367.365C370.086 146.179 372.468 146.726 374.51 147.82C376.575 148.889 378.179 150.384 379.322 152.304C380.464 154.223 381.035 156.435 381.035 158.938C381.035 161.441 380.464 163.653 379.322 165.573C378.179 167.493 376.575 169 374.51 170.093C372.468 171.163 370.086 171.697 367.365 171.697H356.975ZM359.673 169.364H367.219C369.479 169.364 371.435 168.927 373.088 168.052C374.765 167.153 376.065 165.925 376.989 164.37C377.912 162.79 378.374 160.98 378.374 158.938C378.374 156.873 377.912 155.062 376.989 153.507C376.065 151.951 374.765 150.736 373.088 149.861C371.435 148.962 369.479 148.512 367.219 148.512H359.673V169.364ZM387.093 171.697V146.179H389.79V171.697H387.093ZM405.129 171.916C403.233 171.916 401.41 171.612 399.661 171.005C397.935 170.373 396.598 169.571 395.651 168.599L396.708 166.521C397.607 167.396 398.81 168.137 400.317 168.744C401.848 169.328 403.452 169.619 405.129 169.619C406.733 169.619 408.033 169.425 409.029 169.036C410.05 168.623 410.791 168.076 411.253 167.396C411.739 166.715 411.982 165.962 411.982 165.135C411.982 164.139 411.69 163.337 411.107 162.73C410.548 162.122 409.807 161.648 408.883 161.308C407.96 160.943 406.939 160.627 405.821 160.36C404.703 160.093 403.585 159.813 402.468 159.522C401.35 159.206 400.317 158.792 399.369 158.282C398.445 157.772 397.692 157.103 397.109 156.277C396.55 155.426 396.27 154.321 396.27 152.96C396.27 151.696 396.598 150.542 397.255 149.497C397.935 148.427 398.968 147.577 400.353 146.945C401.738 146.289 403.513 145.961 405.675 145.961C407.109 145.961 408.531 146.167 409.941 146.58C411.35 146.969 412.565 147.516 413.586 148.221L412.675 150.371C411.581 149.642 410.415 149.108 409.175 148.768C407.96 148.427 406.781 148.257 405.639 148.257C404.108 148.257 402.844 148.464 401.848 148.877C400.851 149.29 400.11 149.849 399.624 150.554C399.162 151.234 398.931 152.012 398.931 152.887C398.931 153.883 399.211 154.685 399.77 155.293C400.353 155.9 401.107 156.374 402.03 156.715C402.978 157.055 404.011 157.359 405.129 157.626C406.247 157.893 407.352 158.185 408.446 158.501C409.564 158.817 410.585 159.23 411.508 159.74C412.456 160.226 413.209 160.882 413.768 161.709C414.352 162.535 414.643 163.617 414.643 164.953C414.643 166.193 414.303 167.347 413.623 168.416C412.942 169.461 411.897 170.312 410.487 170.968C409.102 171.6 407.316 171.916 405.129 171.916ZM420.521 171.697V146.179H423.219V171.697H420.521ZM431.521 171.697V146.179H433.745L451.352 168.343H450.186V146.179H452.847V171.697H450.623L433.052 149.533H434.219V171.697H431.521ZM461.176 171.697V146.179H463.874V171.697H461.176Z" fill="#F1F1F1"/>
</svg>
