<svg width="1080" height="251" viewBox="0 0 1080 251" fill="none" xmlns="http://www.w3.org/2000/svg">
<rect width="1080" height="251" fill="#F1F1F1"/>
<path d="M111 0H969V29C969 46.6731 954.673 61 937 61H143C125.327 61 111 46.6731 111 29V0Z" fill="#D9D9D9"/>
<path d="M178 0H905V121C905 161.317 872.317 194 832 194H251C210.683 194 178 161.317 178 121V0Z" fill="#9A2828"/>
<path d="M423.819 68V20.4925H444.382C448.636 20.4925 452.3 21.1938 455.377 22.5964C458.454 23.9538 460.829 25.922 462.503 28.5009C464.177 31.0799 465.014 34.1566 465.014 37.731C465.014 41.2601 464.177 44.3141 462.503 46.8931C460.829 49.4721 458.454 51.4629 455.377 52.8655C452.3 54.2228 448.636 54.9015 444.382 54.9015H429.927L434.813 49.9472V68H423.819ZM434.813 51.1688L429.927 45.943H443.772C447.165 45.943 449.699 45.219 451.373 43.7712C453.047 42.3233 453.884 40.3099 453.884 37.731C453.884 35.1067 453.047 33.0707 451.373 31.6229C449.699 30.175 447.165 29.4511 443.772 29.4511H429.927L434.813 24.2253V51.1688ZM482.976 39.6313H505.847V48.1826H482.976V39.6313ZM483.79 59.1772H509.648V68H472.864V20.4925H508.766V29.3153H483.79V59.1772ZM534.006 68.8144C530.205 68.8144 526.563 68.3167 523.079 67.3213C519.595 66.2807 516.79 64.9459 514.663 63.3171L518.396 55.0372C520.432 56.4851 522.83 57.6841 525.59 58.6342C528.395 59.5391 531.223 59.9916 534.074 59.9916C536.245 59.9916 537.987 59.788 539.299 59.3808C540.657 58.9283 541.652 58.3175 542.286 57.5484C542.919 56.7792 543.236 55.8969 543.236 54.9015C543.236 53.6346 542.738 52.6393 541.743 51.9153C540.747 51.1462 539.435 50.5354 537.806 50.0829C536.177 49.5852 534.368 49.1327 532.377 48.7255C530.431 48.2731 528.463 47.7301 526.472 47.0967C524.527 46.4633 522.74 45.6489 521.111 44.6535C519.482 43.6581 518.147 42.346 517.107 40.7171C516.111 39.0883 515.613 37.007 515.613 34.4733C515.613 31.7586 516.337 29.2927 517.785 27.0757C519.278 24.8134 521.495 23.0263 524.436 21.7142C527.422 20.3568 531.155 19.6781 535.634 19.6781C538.621 19.6781 541.562 20.0401 544.457 20.764C547.353 21.4427 549.909 22.4833 552.126 23.8859L548.733 32.2337C546.516 30.9668 544.299 30.0393 542.082 29.4511C539.865 28.8177 537.693 28.5009 535.567 28.5009C533.44 28.5009 531.698 28.7498 530.341 29.2475C528.983 29.7452 528.011 30.4012 527.422 31.2156C526.834 31.9848 526.54 32.8897 526.54 33.9304C526.54 35.152 527.038 36.1474 528.033 36.9165C529.029 37.6405 530.341 38.2287 531.97 38.6811C533.598 39.1336 535.386 39.586 537.331 40.0385C539.322 40.4909 541.29 41.0112 543.236 41.5994C545.226 42.1876 547.036 42.9794 548.665 43.9748C550.294 44.9702 551.606 46.2823 552.601 47.9111C553.642 49.54 554.162 51.5986 554.162 54.0871C554.162 56.7566 553.416 59.1998 551.923 61.4168C550.43 63.6338 548.19 65.421 545.204 66.7784C542.263 68.1357 538.53 68.8144 534.006 68.8144ZM555.431 68L576.606 20.4925H587.465L608.707 68H597.17L579.796 26.0577H584.139L566.697 68H555.431ZM566.019 57.8198L568.937 49.4721H593.369L596.355 57.8198H566.019ZM613.636 68V20.4925H622.731L650.76 54.6979H646.349V20.4925H657.207V68H648.181L620.084 33.7946H624.495V68H613.636ZM352.97 126.814C349.169 126.814 345.527 126.317 342.043 125.321C338.559 124.281 335.754 122.946 333.627 121.317L337.36 113.037C339.396 114.485 341.794 115.684 344.554 116.634C347.359 117.539 350.187 117.992 353.037 117.992C355.209 117.992 356.951 117.788 358.263 117.381C359.621 116.928 360.616 116.318 361.249 115.548C361.883 114.779 362.2 113.897 362.2 112.902C362.2 111.635 361.702 110.639 360.707 109.915C359.711 109.146 358.399 108.535 356.77 108.083C355.141 107.585 353.332 107.133 351.341 106.726C349.395 106.273 347.427 105.73 345.436 105.097C343.491 104.463 341.704 103.649 340.075 102.653C338.446 101.658 337.111 100.346 336.07 98.7171C335.075 97.0883 334.577 95.007 334.577 92.4733C334.577 89.7586 335.301 87.2927 336.749 85.0757C338.242 82.8134 340.459 81.0263 343.4 79.7142C346.386 78.3568 350.119 77.6781 354.598 77.6781C357.585 77.6781 360.526 78.0401 363.421 78.764C366.317 79.4427 368.873 80.4833 371.09 81.8859L367.697 90.2337C365.48 88.9668 363.263 88.0393 361.046 87.4511C358.829 86.8177 356.657 86.5009 354.531 86.5009C352.404 86.5009 350.662 86.7498 349.305 87.2475C347.947 87.7452 346.975 88.4012 346.386 89.2156C345.798 89.9848 345.504 90.8897 345.504 91.9304C345.504 93.152 346.002 94.1474 346.997 94.9165C347.993 95.6405 349.305 96.2287 350.934 96.6811C352.562 97.1336 354.35 97.586 356.295 98.0385C358.286 98.4909 360.254 99.0112 362.2 99.5994C364.19 100.188 366 100.979 367.629 101.975C369.258 102.97 370.57 104.282 371.565 105.911C372.606 107.54 373.126 109.599 373.126 112.087C373.126 114.757 372.38 117.2 370.887 119.417C369.394 121.634 367.154 123.421 364.168 124.778C361.227 126.136 357.494 126.814 352.97 126.814ZM390.751 97.6313H413.623V106.183H390.751V97.6313ZM391.566 117.177H417.423V126H380.639V78.4925H416.541V87.3153H391.566V117.177ZM436.012 115.141L435.401 102.45L458.137 78.4925H470.353L449.857 100.55L443.749 107.065L436.012 115.141ZM426.171 126V78.4925H437.098V126H426.171ZM458.68 126L441.781 105.3L448.975 97.4955L471.507 126H458.68ZM468.045 126L489.22 78.4925H500.078L521.321 126H509.783L492.409 84.0577H496.753L479.311 126H468.045ZM478.632 115.82L481.55 107.472H505.983L508.969 115.82H478.632ZM526.25 126V78.4925H546.814C551.067 78.4925 554.732 79.1938 557.808 80.5964C560.885 81.9538 563.26 83.922 564.935 86.5009C566.609 89.0799 567.446 92.1566 567.446 95.731C567.446 99.2601 566.609 102.314 564.935 104.893C563.26 107.427 560.885 109.372 557.808 110.73C554.732 112.087 551.067 112.766 546.814 112.766H532.358L537.244 107.947V126H526.25ZM556.451 126L544.574 108.762H556.315L568.328 126H556.451ZM537.244 109.169L532.358 104.011H546.203C549.596 104.011 552.13 103.287 553.804 101.839C555.478 100.346 556.315 98.3099 556.315 95.731C556.315 93.1067 555.478 91.0707 553.804 89.6229C552.13 88.175 549.596 87.4511 546.203 87.4511H532.358L537.244 82.2253V109.169ZM569.913 126L591.087 78.4925H601.946L623.189 126H611.651L594.277 84.0577H598.621L581.179 126H569.913ZM580.5 115.82L583.418 107.472H607.851L610.837 115.82H580.5ZM628.118 126V78.4925H637.212L665.242 112.698H660.83V78.4925H671.689V126H662.663L634.565 91.7946H638.977V126H628.118ZM705.868 126.814C702.113 126.814 698.652 126.226 695.485 125.05C692.363 123.828 689.625 122.109 687.273 119.892C684.965 117.675 683.155 115.073 681.843 112.087C680.576 109.101 679.943 105.821 679.943 102.246C679.943 98.6719 680.576 95.3916 681.843 92.4054C683.155 89.4192 684.988 86.8177 687.34 84.6006C689.693 82.3836 692.453 80.6869 695.62 79.5105C698.788 78.2889 702.271 77.6781 706.072 77.6781C710.28 77.6781 714.058 78.3794 717.406 79.782C720.799 81.1846 723.65 83.2207 725.957 85.8901L718.899 92.4054C717.18 90.5956 715.302 89.2609 713.266 88.4012C711.23 87.4963 709.013 87.0439 706.615 87.0439C704.307 87.0439 702.204 87.4058 700.303 88.1298C698.403 88.8537 696.751 89.8943 695.349 91.2517C693.992 92.609 692.928 94.2152 692.159 96.0703C691.435 97.9254 691.073 99.984 691.073 102.246C691.073 104.463 691.435 106.499 692.159 108.354C692.928 110.209 693.992 111.838 695.349 113.241C696.751 114.598 698.38 115.639 700.235 116.363C702.136 117.087 704.217 117.449 706.479 117.449C708.651 117.449 710.755 117.109 712.791 116.431C714.872 115.707 716.886 114.508 718.831 112.834L725.075 120.774C722.496 122.72 719.487 124.213 716.049 125.253C712.655 126.294 709.262 126.814 705.868 126.814ZM715.031 119.349V101.5H725.075V120.774L715.031 119.349ZM735.288 109.508L733.184 78.4925H745.808L743.704 109.508H735.288ZM739.496 126.543C737.596 126.543 736.035 125.932 734.813 124.711C733.591 123.489 732.981 122.041 732.981 120.367C732.981 118.648 733.591 117.222 734.813 116.091C736.035 114.915 737.596 114.327 739.496 114.327C741.441 114.327 743.002 114.915 744.179 116.091C745.4 117.222 746.011 118.648 746.011 120.367C746.011 122.041 745.4 123.489 744.179 124.711C743.002 125.932 741.441 126.543 739.496 126.543Z" fill="#F1F1F1"/>
<path d="M450.016 158.465L449.781 153.298L462.093 140.517H466.991L456.759 151.386L454.343 154.036L450.016 158.465ZM446.124 164V140.517H450.485V164H446.124ZM462.495 164L453.505 153.298L456.39 150.111L467.595 164H462.495ZM470.564 164V140.517H474.925V160.31H487.204V164H470.564ZM490.647 164V140.517H495.008V164H490.647ZM505.251 158.465L505.016 153.298L517.328 140.517H522.226L511.994 151.386L509.579 154.036L505.251 158.465ZM501.36 164V140.517H505.721V164H501.36ZM517.731 164L508.74 153.298L511.625 150.111L522.83 164H517.731ZM535.071 164V140.517H545.336C547.886 140.517 550.122 141.009 552.046 141.993C553.969 142.977 555.468 144.341 556.541 146.086C557.615 147.83 558.151 149.888 558.151 152.258C558.151 154.607 557.615 156.664 556.541 158.431C555.468 160.176 553.969 161.54 552.046 162.524C550.122 163.508 547.886 164 545.336 164H535.071ZM539.432 160.31H545.135C546.902 160.31 548.423 159.974 549.697 159.303C550.995 158.632 551.99 157.693 552.683 156.485C553.399 155.278 553.757 153.869 553.757 152.258C553.757 150.626 553.399 149.217 552.683 148.031C551.99 146.824 550.995 145.884 549.697 145.213C548.423 144.543 546.902 144.207 545.135 144.207H539.432V160.31ZM562.787 164V140.517H567.148V164H562.787ZM580.779 164.335C578.946 164.335 577.19 164.078 575.512 163.564C573.835 163.027 572.504 162.345 571.52 161.517L573.03 158.129C573.969 158.867 575.132 159.482 576.519 159.974C577.906 160.466 579.326 160.712 580.779 160.712C582.01 160.712 583.005 160.578 583.765 160.31C584.526 160.041 585.085 159.684 585.443 159.236C585.8 158.767 585.979 158.241 585.979 157.66C585.979 156.944 585.722 156.374 585.208 155.949C584.693 155.501 584.022 155.155 583.195 154.909C582.39 154.64 581.484 154.394 580.478 154.171C579.493 153.947 578.498 153.69 577.492 153.399C576.508 153.086 575.602 152.695 574.774 152.225C573.969 151.733 573.31 151.084 572.795 150.279C572.281 149.474 572.024 148.445 572.024 147.193C572.024 145.918 572.359 144.755 573.03 143.704C573.723 142.63 574.763 141.78 576.15 141.154C577.559 140.506 579.337 140.181 581.484 140.181C582.893 140.181 584.291 140.36 585.677 140.718C587.064 141.076 588.272 141.59 589.3 142.261L587.925 145.65C586.874 145.023 585.789 144.565 584.671 144.274C583.553 143.961 582.479 143.804 581.45 143.804C580.243 143.804 579.259 143.95 578.498 144.241C577.76 144.531 577.212 144.912 576.854 145.381C576.519 145.851 576.351 146.388 576.351 146.991C576.351 147.707 576.597 148.289 577.089 148.736C577.604 149.161 578.263 149.496 579.069 149.742C579.896 149.988 580.813 150.234 581.819 150.48C582.826 150.704 583.821 150.961 584.805 151.252C585.812 151.543 586.717 151.923 587.522 152.393C588.35 152.862 589.01 153.5 589.502 154.305C590.016 155.11 590.273 156.128 590.273 157.358C590.273 158.61 589.927 159.773 589.233 160.847C588.562 161.898 587.522 162.748 586.113 163.396C584.704 164.022 582.926 164.335 580.779 164.335ZM594.598 164V140.517H598.959V164H594.598ZM605.311 164V140.517H608.9L623.628 158.599H621.85V140.517H626.177V164H622.588L607.86 145.918H609.638V164H605.311ZM632.47 164V140.517H636.831V164H632.47Z" fill="#F1F1F1"/>
<path fill-rule="evenodd" clip-rule="evenodd" d="M280 120.5C280 136.24 267.24 149 251.5 149C235.76 149 223 136.24 223 120.5C223 104.76 235.76 92 251.5 92C267.24 92 280 104.76 280 120.5ZM251.5 153C269.449 153 284 138.449 284 120.5C284 102.551 269.449 88 251.5 88C233.551 88 219 102.551 219 120.5C219 138.449 233.551 153 251.5 153ZM249.232 136.768C250.208 137.744 251.791 137.744 252.768 136.768L268.677 120.858C269.654 119.882 269.654 118.299 268.677 117.322C267.701 116.346 266.118 116.346 265.142 117.322L253.5 128.964V109.5C253.5 108.119 252.38 107 251 107C249.619 107 248.5 108.119 248.5 109.5L248.5 128.964L236.858 117.322C235.881 116.346 234.298 116.346 233.322 117.322C232.346 118.299 232.346 119.882 233.322 120.858L249.232 136.768Z" fill="#F1F1F1"/>
<path fill-rule="evenodd" clip-rule="evenodd" d="M860 120.5C860 136.24 847.24 149 831.5 149C815.76 149 803 136.24 803 120.5C803 104.76 815.76 92 831.5 92C847.24 92 860 104.76 860 120.5ZM831.5 153C849.449 153 864 138.449 864 120.5C864 102.551 849.449 88 831.5 88C813.551 88 799 102.551 799 120.5C799 138.449 813.551 153 831.5 153ZM829.642 136.768C830.618 137.744 832.201 137.744 833.178 136.768L849.088 120.858C850.064 119.882 850.064 118.299 849.088 117.322C848.111 116.346 846.528 116.346 845.552 117.322L833.91 128.964V109.5C833.91 108.119 832.791 107 831.41 107C830.029 107 828.91 108.119 828.91 109.5L828.91 128.964L817.268 117.322C816.291 116.346 814.709 116.346 813.732 117.322C812.756 118.299 812.756 119.882 813.732 120.858L829.642 136.768Z" fill="#F1F1F1"/>
</svg>
