<svg width="1080" height="320" viewBox="0 0 1080 320" fill="none" xmlns="http://www.w3.org/2000/svg">
<path fill-rule="evenodd" clip-rule="evenodd" d="M946 12H134V8H946V12Z" fill="#460606"/>
<path d="M268 12H799V96C799 115.882 782.882 132 763 132H304C284.118 132 268 115.882 268 96V12Z" fill="#460606"/>
<path d="M343.794 85.5C341.061 85.5 338.444 85.1167 335.944 84.35C333.444 83.55 331.461 82.5333 329.994 81.3L332.244 76.25C333.644 77.35 335.377 78.2667 337.444 79C339.511 79.7333 341.627 80.1 343.794 80.1C345.627 80.1 347.111 79.9 348.244 79.5C349.377 79.1 350.211 78.5667 350.744 77.9C351.277 77.2 351.544 76.4167 351.544 75.55C351.544 74.4833 351.161 73.6333 350.394 73C349.627 72.3333 348.627 71.8167 347.394 71.45C346.194 71.05 344.844 70.6833 343.344 70.35C341.877 70.0167 340.394 69.6333 338.894 69.2C337.427 68.7333 336.077 68.15 334.844 67.45C333.644 66.7167 332.661 65.75 331.894 64.55C331.127 63.35 330.744 61.8167 330.744 59.95C330.744 58.05 331.244 56.3167 332.244 54.75C333.277 53.15 334.827 51.8833 336.894 50.95C338.994 49.9833 341.644 49.5 344.844 49.5C346.944 49.5 349.027 49.7667 351.094 50.3C353.161 50.8333 354.961 51.6 356.494 52.6L354.444 57.65C352.877 56.7167 351.261 56.0333 349.594 55.6C347.927 55.1333 346.327 54.9 344.794 54.9C342.994 54.9 341.527 55.1167 340.394 55.55C339.294 55.9833 338.477 56.55 337.944 57.25C337.444 57.95 337.194 58.75 337.194 59.65C337.194 60.7167 337.561 61.5833 338.294 62.25C339.061 62.8833 340.044 63.3833 341.244 63.75C342.477 64.1167 343.844 64.4833 345.344 64.85C346.844 65.1833 348.327 65.5667 349.794 66C351.294 66.4333 352.644 67 353.844 67.7C355.077 68.4 356.061 69.35 356.794 70.55C357.561 71.75 357.944 73.2667 357.944 75.1C357.944 76.9667 357.427 78.7 356.394 80.3C355.394 81.8667 353.844 83.1333 351.744 84.1C349.644 85.0333 346.994 85.5 343.794 85.5ZM370.389 64.55H387.789V69.9H370.389V64.55ZM370.889 79.55H390.639V85H364.389V50H389.939V55.45H370.889V79.55ZM397.886 85V50H404.386V79.5H422.686V85H397.886ZM433.817 64.55H451.217V69.9H433.817V64.55ZM434.317 79.55H454.067V85H427.817V50H453.367V55.45H434.317V79.55ZM461.313 85V50H466.663L488.613 76.95H485.963V50H492.413V85H487.063L465.113 58.05H467.763V85H461.313ZM518.142 85.5C515.408 85.5 512.892 85.0667 510.592 84.2C508.325 83.3 506.342 82.05 504.642 80.45C502.942 78.8167 501.625 76.9 500.692 74.7C499.758 72.5 499.292 70.1 499.292 67.5C499.292 64.9 499.758 62.5 500.692 60.3C501.625 58.1 502.942 56.2 504.642 54.6C506.375 52.9667 508.392 51.7167 510.692 50.85C512.992 49.95 515.508 49.5 518.242 49.5C521.208 49.5 523.875 49.9833 526.242 50.95C528.642 51.9167 530.658 53.3333 532.292 55.2L528.192 59.2C526.825 57.8333 525.342 56.8333 523.742 56.2C522.175 55.5333 520.442 55.2 518.542 55.2C516.708 55.2 515.008 55.5 513.442 56.1C511.875 56.7 510.525 57.55 509.392 58.65C508.258 59.75 507.375 61.05 506.742 62.55C506.142 64.05 505.842 65.7 505.842 67.5C505.842 69.2667 506.142 70.9 506.742 72.4C507.375 73.9 508.258 75.2167 509.392 76.35C510.525 77.45 511.858 78.3 513.392 78.9C514.925 79.5 516.625 79.8 518.492 79.8C520.225 79.8 521.892 79.5333 523.492 79C525.125 78.4333 526.675 77.5 528.142 76.2L531.842 81.05C530.008 82.5167 527.875 83.6333 525.442 84.4C523.042 85.1333 520.608 85.5 518.142 85.5ZM525.692 80.2V67.1H531.842V81.05L525.692 80.2ZM546.215 76.75L545.865 69.05L564.215 50H571.515L556.265 66.2L552.665 70.15L546.215 76.75ZM540.415 85V50H546.915V85H540.415ZM564.815 85L551.415 69.05L555.715 64.3L572.415 85H564.815ZM570.377 85L586.127 50H592.527L608.327 85H601.527L587.977 53.45H590.577L577.077 85H570.377ZM577.627 76.9L579.377 71.8H598.277L600.027 76.9H577.627ZM612.778 85V50H627.178C630.278 50 632.928 50.5 635.128 51.5C637.361 52.5 639.078 53.9333 640.278 55.8C641.478 57.6667 642.078 59.8833 642.078 62.45C642.078 65.0167 641.478 67.2333 640.278 69.1C639.078 70.9667 637.361 72.4 635.128 73.4C632.928 74.4 630.278 74.9 627.178 74.9H616.378L619.278 71.85V85H612.778ZM619.278 72.55L616.378 69.4H626.878C629.745 69.4 631.895 68.8 633.328 67.6C634.795 66.3667 635.528 64.65 635.528 62.45C635.528 60.2167 634.795 58.5 633.328 57.3C631.895 56.1 629.745 55.5 626.878 55.5H616.378L619.278 52.3V72.55ZM648.569 85V50H653.919L675.869 76.95H673.219V50H679.669V85H674.319L652.369 58.05H655.019V85H648.569ZM697.648 85V71.15L699.098 75.15L683.898 50H690.848L703.048 70.25H699.148L711.448 50H717.848L702.648 75.15L704.148 71.15V85H697.648ZM715.055 85L730.805 50H737.205L753.005 85H746.205L732.655 53.45H735.255L721.755 85H715.055ZM722.305 76.9L724.055 71.8H742.955L744.705 76.9H722.305Z" fill="#F1F1F1"/>
</svg>
