<svg width="1080" height="100" viewBox="0 0 1080 100" fill="none" xmlns="http://www.w3.org/2000/svg">
<rect x="218" width="600" height="100" fill="#1E1E1E"/>
<path d="M259.623 55.1461L259.343 48.9861L274.023 33.7461H279.863L267.663 46.7061L264.783 49.8661L259.623 55.1461ZM254.983 61.7461V33.7461H260.183V61.7461H254.983ZM274.503 61.7461L263.783 48.9861L267.223 45.1861L280.583 61.7461H274.503ZM292.306 62.0261C290.119 62.0261 288.172 61.5594 286.466 60.6261C284.759 59.6661 283.412 58.3594 282.426 56.7061C281.439 55.0528 280.946 53.1728 280.946 51.0661C280.946 48.9328 281.439 47.0528 282.426 45.4261C283.412 43.7728 284.759 42.4794 286.466 41.5461C288.172 40.6128 290.119 40.1461 292.306 40.1461C294.519 40.1461 296.479 40.6128 298.186 41.5461C299.919 42.4794 301.266 43.7594 302.226 45.3861C303.212 47.0128 303.706 48.9061 303.706 51.0661C303.706 53.1728 303.212 55.0528 302.226 56.7061C301.266 58.3594 299.919 59.6661 298.186 60.6261C296.479 61.5594 294.519 62.0261 292.306 62.0261ZM292.306 57.7461C293.532 57.7461 294.626 57.4794 295.586 56.9461C296.546 56.4128 297.292 55.6394 297.826 54.6261C298.386 53.6128 298.666 52.4261 298.666 51.0661C298.666 49.6794 298.386 48.4928 297.826 47.5061C297.292 46.4928 296.546 45.7194 295.586 45.1861C294.626 44.6528 293.546 44.3861 292.346 44.3861C291.119 44.3861 290.026 44.6528 289.066 45.1861C288.132 45.7194 287.386 46.4928 286.826 47.5061C286.266 48.4928 285.986 49.6794 285.986 51.0661C285.986 52.4261 286.266 53.6128 286.826 54.6261C287.386 55.6394 288.132 56.4128 289.066 56.9461C290.026 57.4794 291.106 57.7461 292.306 57.7461ZM320.607 40.1461C322.314 40.1461 323.834 40.4794 325.167 41.1461C326.527 41.8128 327.594 42.8394 328.367 44.2261C329.14 45.5861 329.527 47.3461 329.527 49.5061V61.7461H324.527V50.1461C324.527 48.2528 324.074 46.8394 323.167 45.9061C322.287 44.9728 321.047 44.5061 319.447 44.5061C318.274 44.5061 317.234 44.7461 316.327 45.2261C315.42 45.7061 314.714 46.4261 314.207 47.3861C313.727 48.3194 313.487 49.5061 313.487 50.9461V61.7461H308.487V40.3861H313.247V46.1461L312.407 44.3861C313.154 43.0261 314.234 41.9861 315.647 41.2661C317.087 40.5194 318.74 40.1461 320.607 40.1461ZM343.91 62.0261C341.563 62.0261 339.75 61.4261 338.47 60.2261C337.19 58.9994 336.55 57.1994 336.55 54.8261V35.6661H341.55V54.7061C341.55 55.7194 341.803 56.5061 342.31 57.0661C342.843 57.6261 343.577 57.9061 344.51 57.9061C345.63 57.9061 346.563 57.6128 347.31 57.0261L348.71 60.5861C348.123 61.0661 347.403 61.4261 346.55 61.6661C345.697 61.9061 344.817 62.0261 343.91 62.0261ZM333.03 44.5461V40.5461H347.27V44.5461H333.03ZM365.983 61.7461V57.4261L365.703 56.5061V48.9461C365.703 47.4794 365.263 46.3461 364.383 45.5461C363.503 44.7194 362.17 44.3061 360.383 44.3061C359.183 44.3061 357.996 44.4928 356.823 44.8661C355.676 45.2394 354.703 45.7594 353.903 46.4261L351.943 42.7861C353.09 41.9061 354.45 41.2528 356.023 40.8261C357.623 40.3728 359.276 40.1461 360.983 40.1461C364.076 40.1461 366.463 40.8928 368.143 42.3861C369.85 43.8528 370.703 46.1328 370.703 49.2261V61.7461H365.983ZM359.263 62.0261C357.663 62.0261 356.263 61.7594 355.063 61.2261C353.863 60.6661 352.93 59.9061 352.263 58.9461C351.623 57.9594 351.303 56.8528 351.303 55.6261C351.303 54.4261 351.583 53.3461 352.143 52.3861C352.73 51.4261 353.676 50.6661 354.983 50.1061C356.29 49.5461 358.023 49.2661 360.183 49.2661H366.383V52.5861H360.543C358.836 52.5861 357.69 52.8661 357.103 53.4261C356.516 53.9594 356.223 54.6261 356.223 55.4261C356.223 56.3328 356.583 57.0528 357.303 57.5861C358.023 58.1194 359.023 58.3861 360.303 58.3861C361.53 58.3861 362.623 58.1061 363.583 57.5461C364.57 56.9861 365.276 56.1594 365.703 55.0661L366.543 58.0661C366.063 59.3194 365.196 60.2928 363.943 60.9861C362.716 61.6794 361.156 62.0261 359.263 62.0261ZM381.2 56.9861L381.32 50.7061L392.48 40.3861H398.48L389 49.9061L386.36 52.1061L381.2 56.9861ZM377.12 61.7461V32.0661H382.12V61.7461H377.12ZM393.24 61.7461L385.44 52.1061L388.6 48.1061L399.32 61.7461H393.24ZM414.084 61.7461V33.7461H418.364L430.604 54.1861H428.364L440.404 33.7461H444.684L444.724 61.7461H439.804L439.764 41.4661H440.804L430.564 58.5461H428.244L417.844 41.4661H419.044V61.7461H414.084ZM461.847 62.0261C459.474 62.0261 457.394 61.5594 455.607 60.6261C453.847 59.6661 452.474 58.3594 451.487 56.7061C450.527 55.0528 450.047 53.1728 450.047 51.0661C450.047 48.9328 450.514 47.0528 451.447 45.4261C452.407 43.7728 453.714 42.4794 455.367 41.5461C457.047 40.6128 458.954 40.1461 461.087 40.1461C463.167 40.1461 465.021 40.5994 466.647 41.5061C468.274 42.4128 469.554 43.6928 470.487 45.3461C471.421 46.9994 471.887 48.9461 471.887 51.1861C471.887 51.3994 471.874 51.6394 471.847 51.9061C471.847 52.1728 471.834 52.4261 471.807 52.6661H454.007V49.3461H469.167L467.207 50.3861C467.234 49.1594 466.981 48.0794 466.447 47.1461C465.914 46.2128 465.181 45.4794 464.247 44.9461C463.341 44.4128 462.287 44.1461 461.087 44.1461C459.861 44.1461 458.781 44.4128 457.847 44.9461C456.941 45.4794 456.221 46.2261 455.687 47.1861C455.181 48.1194 454.927 49.2261 454.927 50.5061V51.3061C454.927 52.5861 455.221 53.7194 455.807 54.7061C456.394 55.6928 457.221 56.4528 458.287 56.9861C459.354 57.5194 460.581 57.7861 461.967 57.7861C463.167 57.7861 464.247 57.5994 465.207 57.2261C466.167 56.8528 467.021 56.2661 467.767 55.4661L470.447 58.5461C469.487 59.6661 468.274 60.5328 466.807 61.1461C465.367 61.7328 463.714 62.0261 461.847 62.0261ZM476.69 61.7461V32.0661H481.69V61.7461H476.69ZM501.413 61.7461V57.4261L501.133 56.5061V48.9461C501.133 47.4794 500.693 46.3461 499.813 45.5461C498.933 44.7194 497.599 44.3061 495.813 44.3061C494.613 44.3061 493.426 44.4928 492.253 44.8661C491.106 45.2394 490.133 45.7594 489.333 46.4261L487.373 42.7861C488.519 41.9061 489.879 41.2528 491.453 40.8261C493.053 40.3728 494.706 40.1461 496.413 40.1461C499.506 40.1461 501.893 40.8928 503.573 42.3861C505.279 43.8528 506.133 46.1328 506.133 49.2261V61.7461H501.413ZM494.693 62.0261C493.093 62.0261 491.693 61.7594 490.493 61.2261C489.293 60.6661 488.359 59.9061 487.693 58.9461C487.053 57.9594 486.733 56.8528 486.733 55.6261C486.733 54.4261 487.013 53.3461 487.573 52.3861C488.159 51.4261 489.106 50.6661 490.413 50.1061C491.719 49.5461 493.453 49.2661 495.613 49.2661H501.813V52.5861H495.973C494.266 52.5861 493.119 52.8661 492.533 53.4261C491.946 53.9594 491.653 54.6261 491.653 55.4261C491.653 56.3328 492.013 57.0528 492.733 57.5861C493.453 58.1194 494.453 58.3861 495.733 58.3861C496.959 58.3861 498.053 58.1061 499.013 57.5461C499.999 56.9861 500.706 56.1594 501.133 55.0661L501.973 58.0661C501.493 59.3194 500.626 60.2928 499.373 60.9861C498.146 61.6794 496.586 62.0261 494.693 62.0261ZM512.55 61.7461V32.0661H517.55V61.7461H512.55ZM533.152 62.0261C531.339 62.0261 529.739 61.6928 528.352 61.0261C526.965 60.3328 525.885 59.2928 525.112 57.9061C524.339 56.4928 523.952 54.7194 523.952 52.5861V40.3861H528.952V51.9061C528.952 53.8261 529.379 55.2661 530.232 56.2261C531.112 57.1594 532.352 57.6261 533.952 57.6261C535.125 57.6261 536.139 57.3861 536.992 56.9061C537.872 56.4261 538.552 55.7061 539.032 54.7461C539.539 53.7861 539.792 52.5994 539.792 51.1861V40.3861H544.792V61.7461H540.032V55.9861L540.872 57.7461C540.152 59.1328 539.099 60.1994 537.712 60.9461C536.325 61.6661 534.805 62.0261 533.152 62.0261ZM551.339 61.7461V40.3861H556.339V61.7461H551.339ZM553.859 36.8661C552.925 36.8661 552.152 36.5728 551.539 35.9861C550.952 35.3994 550.659 34.6928 550.659 33.8661C550.659 33.0128 550.952 32.3061 551.539 31.7461C552.152 31.1594 552.925 30.8661 553.859 30.8661C554.792 30.8661 555.552 31.1461 556.139 31.7061C556.752 32.2394 557.059 32.9194 557.059 33.7461C557.059 34.6261 556.765 35.3728 556.179 35.9861C555.592 36.5728 554.819 36.8661 553.859 36.8661ZM581.036 61.7461L571.756 33.7461H577.156L585.436 59.0661H582.756L591.356 33.7461H596.156L604.516 59.0661H601.916L610.396 33.7461H615.356L606.076 61.7461H600.556L592.916 38.9061H594.356L586.596 61.7461H581.036ZM631.818 40.1461C633.525 40.1461 635.045 40.4794 636.378 41.1461C637.738 41.8128 638.805 42.8394 639.578 44.2261C640.351 45.5861 640.738 47.3461 640.738 49.5061V61.7461H635.738V50.1461C635.738 48.2528 635.285 46.8394 634.378 45.9061C633.498 44.9728 632.258 44.5061 630.658 44.5061C629.485 44.5061 628.445 44.7461 627.538 45.2261C626.631 45.7061 625.925 46.4261 625.418 47.3861C624.938 48.3194 624.698 49.5061 624.698 50.9461V61.7461H619.698V32.0661H624.698V46.1461L623.618 44.3861C624.365 43.0261 625.445 41.9861 626.858 41.2661C628.298 40.5194 629.951 40.1461 631.818 40.1461ZM660.241 61.7461V57.4261L659.961 56.5061V48.9461C659.961 47.4794 659.521 46.3461 658.641 45.5461C657.761 44.7194 656.427 44.3061 654.641 44.3061C653.441 44.3061 652.254 44.4928 651.081 44.8661C649.934 45.2394 648.961 45.7594 648.161 46.4261L646.201 42.7861C647.347 41.9061 648.707 41.2528 650.281 40.8261C651.881 40.3728 653.534 40.1461 655.241 40.1461C658.334 40.1461 660.721 40.8928 662.401 42.3861C664.107 43.8528 664.961 46.1328 664.961 49.2261V61.7461H660.241ZM653.521 62.0261C651.921 62.0261 650.521 61.7594 649.321 61.2261C648.121 60.6661 647.187 59.9061 646.521 58.9461C645.881 57.9594 645.561 56.8528 645.561 55.6261C645.561 54.4261 645.841 53.3461 646.401 52.3861C646.987 51.4261 647.934 50.6661 649.241 50.1061C650.547 49.5461 652.281 49.2661 654.441 49.2661H660.641V52.5861H654.801C653.094 52.5861 651.947 52.8661 651.361 53.4261C650.774 53.9594 650.481 54.6261 650.481 55.4261C650.481 56.3328 650.841 57.0528 651.561 57.5861C652.281 58.1194 653.281 58.3861 654.561 58.3861C655.787 58.3861 656.881 58.1061 657.841 57.5461C658.827 56.9861 659.534 56.1594 659.961 55.0661L660.801 58.0661C660.321 59.3194 659.454 60.2928 658.201 60.9861C656.974 61.6794 655.414 62.0261 653.521 62.0261ZM679.418 62.0261C677.071 62.0261 675.258 61.4261 673.978 60.2261C672.698 58.9994 672.058 57.1994 672.058 54.8261V35.6661H677.058V54.7061C677.058 55.7194 677.311 56.5061 677.818 57.0661C678.351 57.6261 679.084 57.9061 680.018 57.9061C681.138 57.9061 682.071 57.6128 682.818 57.0261L684.218 60.5861C683.631 61.0661 682.911 61.4261 682.058 61.6661C681.204 61.9061 680.324 62.0261 679.418 62.0261ZM668.538 44.5461V40.5461H682.778V44.5461H668.538ZM694.931 62.0261C693.144 62.0261 691.424 61.7994 689.771 61.3461C688.144 60.8661 686.851 60.2928 685.891 59.6261L687.811 55.8261C688.771 56.4394 689.917 56.9461 691.251 57.3461C692.584 57.7461 693.917 57.9461 695.251 57.9461C696.824 57.9461 697.957 57.7328 698.651 57.3061C699.371 56.8794 699.731 56.3061 699.731 55.5861C699.731 54.9994 699.491 54.5594 699.011 54.2661C698.531 53.9461 697.904 53.7061 697.131 53.5461C696.357 53.3861 695.491 53.2394 694.531 53.1061C693.597 52.9728 692.651 52.7994 691.691 52.5861C690.757 52.3461 689.904 52.0128 689.131 51.5861C688.357 51.1328 687.731 50.5328 687.251 49.7861C686.771 49.0394 686.531 48.0528 686.531 46.8261C686.531 45.4661 686.917 44.2928 687.691 43.3061C688.464 42.2928 689.544 41.5194 690.931 40.9861C692.344 40.4261 694.011 40.1461 695.931 40.1461C697.371 40.1461 698.824 40.3061 700.291 40.6261C701.757 40.9461 702.971 41.3994 703.931 41.9861L702.011 45.7861C700.997 45.1728 699.971 44.7594 698.931 44.5461C697.917 44.3061 696.904 44.1861 695.891 44.1861C694.371 44.1861 693.237 44.4128 692.491 44.8661C691.771 45.3194 691.411 45.8928 691.411 46.5861C691.411 47.2261 691.651 47.7061 692.131 48.0261C692.611 48.3461 693.237 48.5994 694.011 48.7861C694.784 48.9728 695.637 49.1328 696.571 49.2661C697.531 49.3728 698.477 49.5461 699.411 49.7861C700.344 50.0261 701.197 50.3594 701.971 50.7861C702.771 51.1861 703.411 51.7594 703.891 52.5061C704.371 53.2528 704.611 54.2261 704.611 55.4261C704.611 56.7594 704.211 57.9194 703.411 58.9061C702.637 59.8928 701.531 60.6661 700.091 61.2261C698.651 61.7594 696.931 62.0261 694.931 62.0261ZM722.077 61.7461V57.4261L721.797 56.5061V48.9461C721.797 47.4794 721.357 46.3461 720.477 45.5461C719.597 44.7194 718.263 44.3061 716.477 44.3061C715.277 44.3061 714.09 44.4928 712.917 44.8661C711.77 45.2394 710.797 45.7594 709.997 46.4261L708.037 42.7861C709.183 41.9061 710.543 41.2528 712.117 40.8261C713.717 40.3728 715.37 40.1461 717.077 40.1461C720.17 40.1461 722.557 40.8928 724.237 42.3861C725.943 43.8528 726.797 46.1328 726.797 49.2261V61.7461H722.077ZM715.357 62.0261C713.757 62.0261 712.357 61.7594 711.157 61.2261C709.957 60.6661 709.023 59.9061 708.357 58.9461C707.717 57.9594 707.397 56.8528 707.397 55.6261C707.397 54.4261 707.677 53.3461 708.237 52.3861C708.823 51.4261 709.77 50.6661 711.077 50.1061C712.383 49.5461 714.117 49.2661 716.277 49.2661H722.477V52.5861H716.637C714.93 52.5861 713.783 52.8661 713.197 53.4261C712.61 53.9594 712.317 54.6261 712.317 55.4261C712.317 56.3328 712.677 57.0528 713.397 57.5861C714.117 58.1194 715.117 58.3861 716.397 58.3861C717.623 58.3861 718.717 58.1061 719.677 57.5461C720.663 56.9861 721.37 56.1594 721.797 55.0661L722.637 58.0661C722.157 59.3194 721.29 60.2928 720.037 60.9861C718.81 61.6794 717.25 62.0261 715.357 62.0261ZM745.054 62.0261C743.32 62.0261 741.734 61.6261 740.294 60.8261C738.88 60.0261 737.747 58.8261 736.894 57.2261C736.067 55.5994 735.654 53.5461 735.654 51.0661C735.654 48.5594 736.054 46.5061 736.854 44.9061C737.68 43.3061 738.8 42.1194 740.214 41.3461C741.627 40.5461 743.24 40.1461 745.054 40.1461C747.16 40.1461 749.014 40.5994 750.614 41.5061C752.24 42.4128 753.52 43.6794 754.454 45.3061C755.414 46.9328 755.894 48.8528 755.894 51.0661C755.894 53.2794 755.414 55.2128 754.454 56.8661C753.52 58.4928 752.24 59.7594 750.614 60.6661C749.014 61.5728 747.16 62.0261 745.054 62.0261ZM733.214 69.5061V40.3861H737.974V45.4261L737.814 51.1061L738.214 56.7861V69.5061H733.214ZM744.494 57.7461C745.694 57.7461 746.76 57.4794 747.694 56.9461C748.654 56.4128 749.414 55.6394 749.974 54.6261C750.534 53.6128 750.814 52.4261 750.814 51.0661C750.814 49.6794 750.534 48.4928 749.974 47.5061C749.414 46.4928 748.654 45.7194 747.694 45.1861C746.76 44.6528 745.694 44.3861 744.494 44.3861C743.294 44.3861 742.214 44.6528 741.254 45.1861C740.294 45.7194 739.534 46.4928 738.974 47.5061C738.414 48.4928 738.134 49.6794 738.134 51.0661C738.134 52.4261 738.414 53.6128 738.974 54.6261C739.534 55.6394 740.294 56.4128 741.254 56.9461C742.214 57.4794 743.294 57.7461 744.494 57.7461ZM772.475 62.0261C770.742 62.0261 769.155 61.6261 767.715 60.8261C766.302 60.0261 765.169 58.8261 764.315 57.2261C763.489 55.5994 763.075 53.5461 763.075 51.0661C763.075 48.5594 763.475 46.5061 764.275 44.9061C765.102 43.3061 766.222 42.1194 767.635 41.3461C769.049 40.5461 770.662 40.1461 772.475 40.1461C774.582 40.1461 776.435 40.5994 778.035 41.5061C779.662 42.4128 780.942 43.6794 781.875 45.3061C782.835 46.9328 783.315 48.8528 783.315 51.0661C783.315 53.2794 782.835 55.2128 781.875 56.8661C780.942 58.4928 779.662 59.7594 778.035 60.6661C776.435 61.5728 774.582 62.0261 772.475 62.0261ZM760.635 69.5061V40.3861H765.395V45.4261L765.235 51.1061L765.635 56.7861V69.5061H760.635ZM771.915 57.7461C773.115 57.7461 774.182 57.4794 775.115 56.9461C776.075 56.4128 776.835 55.6394 777.395 54.6261C777.955 53.6128 778.235 52.4261 778.235 51.0661C778.235 49.6794 777.955 48.4928 777.395 47.5061C776.835 46.4928 776.075 45.7194 775.115 45.1861C774.182 44.6528 773.115 44.3861 771.915 44.3861C770.715 44.3861 769.635 44.6528 768.675 45.1861C767.715 45.7194 766.955 46.4928 766.395 47.5061C765.835 48.4928 765.555 49.6794 765.555 51.0661C765.555 52.4261 765.835 53.6128 766.395 54.6261C766.955 55.6394 767.715 56.4128 768.675 56.9461C769.635 57.4794 770.715 57.7461 771.915 57.7461Z" fill="white"/>
</svg>
