<svg width="1080" height="100" viewBox="0 0 1080 100" fill="none" xmlns="http://www.w3.org/2000/svg">
<rect x="218" width="600" height="100" fill="#1E1E1E"/>
<path d="M270.443 55.1461L270.163 48.9861L284.843 33.7461H290.683L278.483 46.7061L275.603 49.8661L270.443 55.1461ZM265.803 61.7461V33.7461H271.003V61.7461H265.803ZM285.323 61.7461L274.603 48.9861L278.043 45.1861L291.403 61.7461H285.323ZM303.126 62.0261C300.939 62.0261 298.993 61.5594 297.286 60.6261C295.579 59.6661 294.233 58.3594 293.246 56.7061C292.259 55.0528 291.766 53.1728 291.766 51.0661C291.766 48.9328 292.259 47.0528 293.246 45.4261C294.233 43.7728 295.579 42.4794 297.286 41.5461C298.993 40.6128 300.939 40.1461 303.126 40.1461C305.339 40.1461 307.299 40.6128 309.006 41.5461C310.739 42.4794 312.086 43.7594 313.046 45.3861C314.033 47.0128 314.526 48.9061 314.526 51.0661C314.526 53.1728 314.033 55.0528 313.046 56.7061C312.086 58.3594 310.739 59.6661 309.006 60.6261C307.299 61.5594 305.339 62.0261 303.126 62.0261ZM303.126 57.7461C304.353 57.7461 305.446 57.4794 306.406 56.9461C307.366 56.4128 308.113 55.6394 308.646 54.6261C309.206 53.6128 309.486 52.4261 309.486 51.0661C309.486 49.6794 309.206 48.4928 308.646 47.5061C308.113 46.4928 307.366 45.7194 306.406 45.1861C305.446 44.6528 304.366 44.3861 303.166 44.3861C301.939 44.3861 300.846 44.6528 299.886 45.1861C298.953 45.7194 298.206 46.4928 297.646 47.5061C297.086 48.4928 296.806 49.6794 296.806 51.0661C296.806 52.4261 297.086 53.6128 297.646 54.6261C298.206 55.6394 298.953 56.4128 299.886 56.9461C300.846 57.4794 301.926 57.7461 303.126 57.7461ZM331.427 40.1461C333.134 40.1461 334.654 40.4794 335.987 41.1461C337.347 41.8128 338.414 42.8394 339.187 44.2261C339.961 45.5861 340.347 47.3461 340.347 49.5061V61.7461H335.347V50.1461C335.347 48.2528 334.894 46.8394 333.987 45.9061C333.107 44.9728 331.867 44.5061 330.267 44.5061C329.094 44.5061 328.054 44.7461 327.147 45.2261C326.241 45.7061 325.534 46.4261 325.027 47.3861C324.547 48.3194 324.307 49.5061 324.307 50.9461V61.7461H319.307V40.3861H324.067V46.1461L323.227 44.3861C323.974 43.0261 325.054 41.9861 326.467 41.2661C327.907 40.5194 329.561 40.1461 331.427 40.1461ZM354.73 62.0261C352.383 62.0261 350.57 61.4261 349.29 60.2261C348.01 58.9994 347.37 57.1994 347.37 54.8261V35.6661H352.37V54.7061C352.37 55.7194 352.623 56.5061 353.13 57.0661C353.663 57.6261 354.397 57.9061 355.33 57.9061C356.45 57.9061 357.383 57.6128 358.13 57.0261L359.53 60.5861C358.943 61.0661 358.223 61.4261 357.37 61.6661C356.517 61.9061 355.637 62.0261 354.73 62.0261ZM343.85 44.5461V40.5461H358.09V44.5461H343.85ZM376.803 61.7461V57.4261L376.523 56.5061V48.9461C376.523 47.4794 376.083 46.3461 375.203 45.5461C374.323 44.7194 372.99 44.3061 371.203 44.3061C370.003 44.3061 368.817 44.4928 367.643 44.8661C366.497 45.2394 365.523 45.7594 364.723 46.4261L362.763 42.7861C363.91 41.9061 365.27 41.2528 366.843 40.8261C368.443 40.3728 370.097 40.1461 371.803 40.1461C374.897 40.1461 377.283 40.8928 378.963 42.3861C380.67 43.8528 381.523 46.1328 381.523 49.2261V61.7461H376.803ZM370.083 62.0261C368.483 62.0261 367.083 61.7594 365.883 61.2261C364.683 60.6661 363.75 59.9061 363.083 58.9461C362.443 57.9594 362.123 56.8528 362.123 55.6261C362.123 54.4261 362.403 53.3461 362.963 52.3861C363.55 51.4261 364.497 50.6661 365.803 50.1061C367.11 49.5461 368.843 49.2661 371.003 49.2661H377.203V52.5861H371.363C369.657 52.5861 368.51 52.8661 367.923 53.4261C367.337 53.9594 367.043 54.6261 367.043 55.4261C367.043 56.3328 367.403 57.0528 368.123 57.5861C368.843 58.1194 369.843 58.3861 371.123 58.3861C372.35 58.3861 373.443 58.1061 374.403 57.5461C375.39 56.9861 376.097 56.1594 376.523 55.0661L377.363 58.0661C376.883 59.3194 376.017 60.2928 374.763 60.9861C373.537 61.6794 371.977 62.0261 370.083 62.0261ZM392.02 56.9861L392.14 50.7061L403.3 40.3861H409.3L399.82 49.9061L397.18 52.1061L392.02 56.9861ZM387.94 61.7461V32.0661H392.94V61.7461H387.94ZM404.06 61.7461L396.26 52.1061L399.42 48.1061L410.14 61.7461H404.06ZM424.905 61.7461V33.7461H429.185L441.425 54.1861H439.185L451.225 33.7461H455.505L455.545 61.7461H450.625L450.585 41.4661H451.625L441.385 58.5461H439.065L428.665 41.4661H429.865V61.7461H424.905ZM472.668 62.0261C470.294 62.0261 468.214 61.5594 466.428 60.6261C464.668 59.6661 463.294 58.3594 462.308 56.7061C461.348 55.0528 460.868 53.1728 460.868 51.0661C460.868 48.9328 461.334 47.0528 462.268 45.4261C463.228 43.7728 464.534 42.4794 466.188 41.5461C467.868 40.6128 469.774 40.1461 471.908 40.1461C473.988 40.1461 475.841 40.5994 477.468 41.5061C479.094 42.4128 480.374 43.6928 481.308 45.3461C482.241 46.9994 482.708 48.9461 482.708 51.1861C482.708 51.3994 482.694 51.6394 482.668 51.9061C482.668 52.1728 482.654 52.4261 482.628 52.6661H464.828V49.3461H479.988L478.028 50.3861C478.054 49.1594 477.801 48.0794 477.268 47.1461C476.734 46.2128 476.001 45.4794 475.068 44.9461C474.161 44.4128 473.108 44.1461 471.908 44.1461C470.681 44.1461 469.601 44.4128 468.668 44.9461C467.761 45.4794 467.041 46.2261 466.508 47.1861C466.001 48.1194 465.748 49.2261 465.748 50.5061V51.3061C465.748 52.5861 466.041 53.7194 466.628 54.7061C467.214 55.6928 468.041 56.4528 469.108 56.9861C470.174 57.5194 471.401 57.7861 472.788 57.7861C473.988 57.7861 475.068 57.5994 476.028 57.2261C476.988 56.8528 477.841 56.2661 478.588 55.4661L481.268 58.5461C480.308 59.6661 479.094 60.5328 477.628 61.1461C476.188 61.7328 474.534 62.0261 472.668 62.0261ZM487.51 61.7461V32.0661H492.51V61.7461H487.51ZM512.233 61.7461V57.4261L511.953 56.5061V48.9461C511.953 47.4794 511.513 46.3461 510.633 45.5461C509.753 44.7194 508.42 44.3061 506.633 44.3061C505.433 44.3061 504.246 44.4928 503.073 44.8661C501.926 45.2394 500.953 45.7594 500.153 46.4261L498.193 42.7861C499.34 41.9061 500.7 41.2528 502.273 40.8261C503.873 40.3728 505.526 40.1461 507.233 40.1461C510.326 40.1461 512.713 40.8928 514.393 42.3861C516.1 43.8528 516.953 46.1328 516.953 49.2261V61.7461H512.233ZM505.513 62.0261C503.913 62.0261 502.513 61.7594 501.313 61.2261C500.113 60.6661 499.18 59.9061 498.513 58.9461C497.873 57.9594 497.553 56.8528 497.553 55.6261C497.553 54.4261 497.833 53.3461 498.393 52.3861C498.98 51.4261 499.926 50.6661 501.233 50.1061C502.54 49.5461 504.273 49.2661 506.433 49.2661H512.633V52.5861H506.793C505.086 52.5861 503.94 52.8661 503.353 53.4261C502.766 53.9594 502.473 54.6261 502.473 55.4261C502.473 56.3328 502.833 57.0528 503.553 57.5861C504.273 58.1194 505.273 58.3861 506.553 58.3861C507.78 58.3861 508.873 58.1061 509.833 57.5461C510.82 56.9861 511.526 56.1594 511.953 55.0661L512.793 58.0661C512.313 59.3194 511.446 60.2928 510.193 60.9861C508.966 61.6794 507.406 62.0261 505.513 62.0261ZM523.37 61.7461V32.0661H528.37V61.7461H523.37ZM543.972 62.0261C542.159 62.0261 540.559 61.6928 539.172 61.0261C537.786 60.3328 536.706 59.2928 535.932 57.9061C535.159 56.4928 534.772 54.7194 534.772 52.5861V40.3861H539.772V51.9061C539.772 53.8261 540.199 55.2661 541.052 56.2261C541.932 57.1594 543.172 57.6261 544.772 57.6261C545.946 57.6261 546.959 57.3861 547.812 56.9061C548.692 56.4261 549.372 55.7061 549.852 54.7461C550.359 53.7861 550.612 52.5994 550.612 51.1861V40.3861H555.612V61.7461H550.852V55.9861L551.692 57.7461C550.972 59.1328 549.919 60.1994 548.532 60.9461C547.146 61.6661 545.626 62.0261 543.972 62.0261ZM562.159 61.7461V40.3861H567.159V61.7461H562.159ZM564.679 36.8661C563.746 36.8661 562.972 36.5728 562.359 35.9861C561.772 35.3994 561.479 34.6928 561.479 33.8661C561.479 33.0128 561.772 32.3061 562.359 31.7461C562.972 31.1594 563.746 30.8661 564.679 30.8661C565.612 30.8661 566.372 31.1461 566.959 31.7061C567.572 32.2394 567.879 32.9194 567.879 33.7461C567.879 34.6261 567.586 35.3728 566.999 35.9861C566.412 36.5728 565.639 36.8661 564.679 36.8661ZM590.936 61.7461V38.1461H581.656V33.7461H605.416V38.1461H596.136V61.7461H590.936ZM616.691 62.0261C614.318 62.0261 612.238 61.5594 610.451 60.6261C608.691 59.6661 607.318 58.3594 606.331 56.7061C605.371 55.0528 604.891 53.1728 604.891 51.0661C604.891 48.9328 605.358 47.0528 606.291 45.4261C607.251 43.7728 608.558 42.4794 610.211 41.5461C611.891 40.6128 613.798 40.1461 615.931 40.1461C618.011 40.1461 619.864 40.5994 621.491 41.5061C623.118 42.4128 624.398 43.6928 625.331 45.3461C626.264 46.9994 626.731 48.9461 626.731 51.1861C626.731 51.3994 626.718 51.6394 626.691 51.9061C626.691 52.1728 626.678 52.4261 626.651 52.6661H608.851V49.3461H624.011L622.051 50.3861C622.078 49.1594 621.824 48.0794 621.291 47.1461C620.758 46.2128 620.024 45.4794 619.091 44.9461C618.184 44.4128 617.131 44.1461 615.931 44.1461C614.704 44.1461 613.624 44.4128 612.691 44.9461C611.784 45.4794 611.064 46.2261 610.531 47.1861C610.024 48.1194 609.771 49.2261 609.771 50.5061V51.3061C609.771 52.5861 610.064 53.7194 610.651 54.7061C611.238 55.6928 612.064 56.4528 613.131 56.9861C614.198 57.5194 615.424 57.7861 616.811 57.7861C618.011 57.7861 619.091 57.5994 620.051 57.2261C621.011 56.8528 621.864 56.2661 622.611 55.4661L625.291 58.5461C624.331 59.6661 623.118 60.5328 621.651 61.1461C620.211 61.7328 618.558 62.0261 616.691 62.0261ZM631.534 61.7461V32.0661H636.534V61.7461H631.534ZM653.136 62.0261C650.763 62.0261 648.683 61.5594 646.896 60.6261C645.136 59.6661 643.763 58.3594 642.776 56.7061C641.816 55.0528 641.336 53.1728 641.336 51.0661C641.336 48.9328 641.803 47.0528 642.736 45.4261C643.696 43.7728 645.003 42.4794 646.656 41.5461C648.336 40.6128 650.243 40.1461 652.376 40.1461C654.456 40.1461 656.31 40.5994 657.936 41.5061C659.563 42.4128 660.843 43.6928 661.776 45.3461C662.71 46.9994 663.176 48.9461 663.176 51.1861C663.176 51.3994 663.163 51.6394 663.136 51.9061C663.136 52.1728 663.123 52.4261 663.096 52.6661H645.296V49.3461H660.456L658.496 50.3861C658.523 49.1594 658.27 48.0794 657.736 47.1461C657.203 46.2128 656.47 45.4794 655.536 44.9461C654.63 44.4128 653.576 44.1461 652.376 44.1461C651.15 44.1461 650.07 44.4128 649.136 44.9461C648.23 45.4794 647.51 46.2261 646.976 47.1861C646.47 48.1194 646.216 49.2261 646.216 50.5061V51.3061C646.216 52.5861 646.51 53.7194 647.096 54.7061C647.683 55.6928 648.51 56.4528 649.576 56.9861C650.643 57.5194 651.87 57.7861 653.256 57.7861C654.456 57.7861 655.536 57.5994 656.496 57.2261C657.456 56.8528 658.31 56.2661 659.056 55.4661L661.736 58.5461C660.776 59.6661 659.563 60.5328 658.096 61.1461C656.656 61.7328 655.003 62.0261 653.136 62.0261ZM677.659 69.7861C675.686 69.7861 673.753 69.5194 671.859 68.9861C669.993 68.4794 668.459 67.7328 667.259 66.7461L669.499 62.9861C670.433 63.7594 671.606 64.3728 673.019 64.8261C674.459 65.3061 675.913 65.5461 677.379 65.5461C679.726 65.5461 681.446 64.9994 682.539 63.9061C683.633 62.8394 684.179 61.2261 684.179 59.0661V55.2661L684.579 50.4261L684.419 45.5861V40.3861H689.179V58.5061C689.179 62.3728 688.193 65.2128 686.219 67.0261C684.246 68.8661 681.393 69.7861 677.659 69.7861ZM677.019 60.7861C674.993 60.7861 673.153 60.3594 671.499 59.5061C669.873 58.6261 668.579 57.4128 667.619 55.8661C666.686 54.3194 666.219 52.5061 666.219 50.4261C666.219 48.3728 666.686 46.5728 667.619 45.0261C668.579 43.4794 669.873 42.2794 671.499 41.4261C673.153 40.5728 674.993 40.1461 677.019 40.1461C678.833 40.1461 680.459 40.5061 681.899 41.2261C683.339 41.9461 684.486 43.0661 685.339 44.5861C686.219 46.1061 686.659 48.0528 686.659 50.4261C686.659 52.7994 686.219 54.7594 685.339 56.3061C684.486 57.8261 683.339 58.9594 681.899 59.7061C680.459 60.4261 678.833 60.7861 677.019 60.7861ZM677.779 56.5461C679.033 56.5461 680.153 56.2928 681.139 55.7861C682.126 55.2528 682.886 54.5328 683.419 53.6261C683.979 52.6928 684.259 51.6261 684.259 50.4261C684.259 49.2261 683.979 48.1728 683.419 47.2661C682.886 46.3328 682.126 45.6261 681.139 45.1461C680.153 44.6394 679.033 44.3861 677.779 44.3861C676.526 44.3861 675.393 44.6394 674.379 45.1461C673.393 45.6261 672.619 46.3328 672.059 47.2661C671.526 48.1728 671.259 49.2261 671.259 50.4261C671.259 51.6261 671.526 52.6928 672.059 53.6261C672.619 54.5328 673.393 55.2528 674.379 55.7861C675.393 56.2928 676.526 56.5461 677.779 56.5461ZM695.753 61.7461V40.3861H700.513V46.2661L699.953 44.5461C700.593 43.1061 701.593 42.0128 702.953 41.2661C704.339 40.5194 706.059 40.1461 708.113 40.1461V44.9061C707.899 44.8528 707.699 44.8261 707.513 44.8261C707.326 44.7994 707.139 44.7861 706.953 44.7861C705.059 44.7861 703.553 45.3461 702.433 46.4661C701.313 47.5594 700.753 49.1994 700.753 51.3861V61.7461H695.753ZM723.991 61.7461V57.4261L723.711 56.5061V48.9461C723.711 47.4794 723.271 46.3461 722.391 45.5461C721.511 44.7194 720.177 44.3061 718.391 44.3061C717.191 44.3061 716.004 44.4928 714.831 44.8661C713.684 45.2394 712.711 45.7594 711.911 46.4261L709.951 42.7861C711.097 41.9061 712.457 41.2528 714.031 40.8261C715.631 40.3728 717.284 40.1461 718.991 40.1461C722.084 40.1461 724.471 40.8928 726.151 42.3861C727.857 43.8528 728.711 46.1328 728.711 49.2261V61.7461H723.991ZM717.271 62.0261C715.671 62.0261 714.271 61.7594 713.071 61.2261C711.871 60.6661 710.937 59.9061 710.271 58.9461C709.631 57.9594 709.311 56.8528 709.311 55.6261C709.311 54.4261 709.591 53.3461 710.151 52.3861C710.737 51.4261 711.684 50.6661 712.991 50.1061C714.297 49.5461 716.031 49.2661 718.191 49.2661H724.391V52.5861H718.551C716.844 52.5861 715.697 52.8661 715.111 53.4261C714.524 53.9594 714.231 54.6261 714.231 55.4261C714.231 56.3328 714.591 57.0528 715.311 57.5861C716.031 58.1194 717.031 58.3861 718.311 58.3861C719.537 58.3861 720.631 58.1061 721.591 57.5461C722.577 56.9861 723.284 56.1594 723.711 55.0661L724.551 58.0661C724.071 59.3194 723.204 60.2928 721.951 60.9861C720.724 61.6794 719.164 62.0261 717.271 62.0261ZM762.088 40.1461C763.794 40.1461 765.301 40.4794 766.608 41.1461C767.941 41.8128 768.981 42.8394 769.728 44.2261C770.474 45.5861 770.848 47.3461 770.848 49.5061V61.7461H765.848V50.1461C765.848 48.2528 765.434 46.8394 764.608 45.9061C763.781 44.9728 762.594 44.5061 761.048 44.5061C759.954 44.5061 758.981 44.7461 758.128 45.2261C757.301 45.7061 756.648 46.4128 756.168 47.3461C755.714 48.2794 755.488 49.4661 755.488 50.9061V61.7461H750.488V50.1461C750.488 48.2528 750.074 46.8394 749.248 45.9061C748.421 44.9728 747.234 44.5061 745.688 44.5061C744.594 44.5061 743.621 44.7461 742.768 45.2261C741.941 45.7061 741.288 46.4128 740.808 47.3461C740.354 48.2794 740.128 49.4661 740.128 50.9061V61.7461H735.128V40.3861H739.888V46.0661L739.048 44.3861C739.768 42.9994 740.808 41.9461 742.168 41.2261C743.554 40.5061 745.128 40.1461 746.888 40.1461C748.888 40.1461 750.621 40.6394 752.088 41.6261C753.581 42.6128 754.568 44.1061 755.048 46.1061L753.088 45.4261C753.781 43.8261 754.928 42.5461 756.528 41.5861C758.128 40.6261 759.981 40.1461 762.088 40.1461Z" fill="white"/>
</svg>
