<svg width="727" height="194" viewBox="0 0 727 194" fill="none" xmlns="http://www.w3.org/2000/svg">
<path d="M0 0H727V121C727 161.317 694.317 194 654 194H73C32.6832 194 0 161.317 0 121V0Z" fill="#9A2828"/>
<path d="M245.819 68V20.4925H266.382C270.636 20.4925 274.3 21.1938 277.377 22.5964C280.454 23.9538 282.829 25.922 284.503 28.5009C286.177 31.0799 287.014 34.1566 287.014 37.731C287.014 41.2601 286.177 44.3141 284.503 46.8931C282.829 49.4721 280.454 51.4629 277.377 52.8655C274.3 54.2228 270.636 54.9015 266.382 54.9015H251.927L256.813 49.9472V68H245.819ZM256.813 51.1688L251.927 45.943H265.772C269.165 45.943 271.699 45.219 273.373 43.7712C275.047 42.3233 275.884 40.3099 275.884 37.731C275.884 35.1067 275.047 33.0707 273.373 31.6229C271.699 30.175 269.165 29.4511 265.772 29.4511H251.927L256.813 24.2253V51.1688ZM304.976 39.6313H327.847V48.1826H304.976V39.6313ZM305.79 59.1772H331.648V68H294.864V20.4925H330.766V29.3153H305.79V59.1772ZM356.006 68.8144C352.205 68.8144 348.563 68.3167 345.079 67.3213C341.595 66.2807 338.79 64.9459 336.663 63.3171L340.396 55.0372C342.432 56.4851 344.83 57.6841 347.59 58.6342C350.395 59.5391 353.223 59.9916 356.074 59.9916C358.245 59.9916 359.987 59.788 361.299 59.3808C362.657 58.9283 363.652 58.3175 364.286 57.5484C364.919 56.7792 365.236 55.8969 365.236 54.9015C365.236 53.6346 364.738 52.6393 363.743 51.9153C362.747 51.1462 361.435 50.5354 359.806 50.0829C358.177 49.5852 356.368 49.1327 354.377 48.7255C352.431 48.2731 350.463 47.7301 348.472 47.0967C346.527 46.4633 344.74 45.6489 343.111 44.6535C341.482 43.6581 340.147 42.346 339.107 40.7171C338.111 39.0883 337.613 37.007 337.613 34.4733C337.613 31.7586 338.337 29.2927 339.785 27.0757C341.278 24.8134 343.495 23.0263 346.436 21.7142C349.422 20.3568 353.155 19.6781 357.634 19.6781C360.621 19.6781 363.562 20.0401 366.457 20.764C369.353 21.4427 371.909 22.4833 374.126 23.8859L370.733 32.2337C368.516 30.9668 366.299 30.0393 364.082 29.4511C361.865 28.8177 359.693 28.5009 357.567 28.5009C355.44 28.5009 353.698 28.7498 352.341 29.2475C350.983 29.7452 350.011 30.4012 349.422 31.2156C348.834 31.9848 348.54 32.8897 348.54 33.9304C348.54 35.152 349.038 36.1474 350.033 36.9165C351.029 37.6405 352.341 38.2287 353.97 38.6811C355.598 39.1336 357.386 39.586 359.331 40.0385C361.322 40.4909 363.29 41.0112 365.236 41.5994C367.226 42.1876 369.036 42.9794 370.665 43.9748C372.294 44.9702 373.606 46.2823 374.601 47.9111C375.642 49.54 376.162 51.5986 376.162 54.0871C376.162 56.7566 375.416 59.1998 373.923 61.4168C372.43 63.6338 370.19 65.421 367.204 66.7784C364.263 68.1357 360.53 68.8144 356.006 68.8144ZM377.431 68L398.606 20.4925H409.465L430.707 68H419.17L401.796 26.0577H406.139L388.697 68H377.431ZM388.019 57.8198L390.937 49.4721H415.369L418.355 57.8198H388.019ZM435.636 68V20.4925H444.731L472.76 54.6979H468.349V20.4925H479.207V68H470.181L442.084 33.7946H446.495V68H435.636ZM174.97 126.814C171.169 126.814 167.527 126.317 164.043 125.321C160.559 124.281 157.754 122.946 155.627 121.317L159.36 113.037C161.396 114.485 163.794 115.684 166.554 116.634C169.359 117.539 172.187 117.992 175.037 117.992C177.209 117.992 178.951 117.788 180.263 117.381C181.621 116.928 182.616 116.318 183.249 115.548C183.883 114.779 184.2 113.897 184.2 112.902C184.2 111.635 183.702 110.639 182.707 109.915C181.711 109.146 180.399 108.535 178.77 108.083C177.141 107.585 175.332 107.133 173.341 106.726C171.395 106.273 169.427 105.73 167.436 105.097C165.491 104.463 163.704 103.649 162.075 102.653C160.446 101.658 159.111 100.346 158.07 98.7171C157.075 97.0883 156.577 95.007 156.577 92.4733C156.577 89.7586 157.301 87.2927 158.749 85.0757C160.242 82.8134 162.459 81.0263 165.4 79.7142C168.386 78.3568 172.119 77.6781 176.598 77.6781C179.585 77.6781 182.526 78.0401 185.421 78.764C188.317 79.4427 190.873 80.4833 193.09 81.8859L189.697 90.2337C187.48 88.9668 185.263 88.0393 183.046 87.4511C180.829 86.8177 178.657 86.5009 176.531 86.5009C174.404 86.5009 172.662 86.7498 171.305 87.2475C169.947 87.7452 168.975 88.4012 168.386 89.2156C167.798 89.9848 167.504 90.8897 167.504 91.9304C167.504 93.152 168.002 94.1474 168.997 94.9165C169.993 95.6405 171.305 96.2287 172.934 96.6811C174.562 97.1336 176.35 97.586 178.295 98.0385C180.286 98.4909 182.254 99.0112 184.2 99.5994C186.19 100.188 188 100.979 189.629 101.975C191.258 102.97 192.57 104.282 193.565 105.911C194.606 107.54 195.126 109.599 195.126 112.087C195.126 114.757 194.38 117.2 192.887 119.417C191.394 121.634 189.154 123.421 186.168 124.778C183.227 126.136 179.494 126.814 174.97 126.814ZM212.751 97.6313H235.623V106.183H212.751V97.6313ZM213.566 117.177H239.423V126H202.639V78.4925H238.541V87.3153H213.566V117.177ZM258.012 115.141L257.401 102.45L280.137 78.4925H292.353L271.857 100.55L265.749 107.065L258.012 115.141ZM248.171 126V78.4925H259.098V126H248.171ZM280.68 126L263.781 105.3L270.975 97.4955L293.507 126H280.68ZM290.045 126L311.22 78.4925H322.078L343.321 126H331.783L314.409 84.0577H318.753L301.311 126H290.045ZM300.632 115.82L303.55 107.472H327.983L330.969 115.82H300.632ZM348.25 126V78.4925H368.814C373.067 78.4925 376.732 79.1938 379.808 80.5964C382.885 81.9538 385.26 83.922 386.935 86.5009C388.609 89.0799 389.446 92.1566 389.446 95.731C389.446 99.2601 388.609 102.314 386.935 104.893C385.26 107.427 382.885 109.372 379.808 110.73C376.732 112.087 373.067 112.766 368.814 112.766H354.358L359.244 107.947V126H348.25ZM378.451 126L366.574 108.762H378.315L390.328 126H378.451ZM359.244 109.169L354.358 104.011H368.203C371.596 104.011 374.13 103.287 375.804 101.839C377.478 100.346 378.315 98.3099 378.315 95.731C378.315 93.1067 377.478 91.0707 375.804 89.6229C374.13 88.175 371.596 87.4511 368.203 87.4511H354.358L359.244 82.2253V109.169ZM391.913 126L413.087 78.4925H423.946L445.189 126H433.651L416.277 84.0577H420.621L403.179 126H391.913ZM402.5 115.82L405.418 107.472H429.851L432.837 115.82H402.5ZM450.118 126V78.4925H459.212L487.242 112.698H482.83V78.4925H493.689V126H484.663L456.565 91.7946H460.977V126H450.118ZM527.868 126.814C524.113 126.814 520.652 126.226 517.485 125.05C514.363 123.828 511.625 122.109 509.273 119.892C506.965 117.675 505.155 115.073 503.843 112.087C502.576 109.101 501.943 105.821 501.943 102.246C501.943 98.6719 502.576 95.3916 503.843 92.4054C505.155 89.4192 506.988 86.8177 509.34 84.6006C511.693 82.3836 514.453 80.6869 517.62 79.5105C520.788 78.2889 524.271 77.6781 528.072 77.6781C532.28 77.6781 536.058 78.3794 539.406 79.782C542.799 81.1846 545.65 83.2207 547.957 85.8901L540.899 92.4054C539.18 90.5956 537.302 89.2609 535.266 88.4012C533.23 87.4963 531.013 87.0439 528.615 87.0439C526.307 87.0439 524.204 87.4058 522.303 88.1298C520.403 88.8537 518.751 89.8943 517.349 91.2517C515.992 92.609 514.928 94.2152 514.159 96.0703C513.435 97.9254 513.073 99.984 513.073 102.246C513.073 104.463 513.435 106.499 514.159 108.354C514.928 110.209 515.992 111.838 517.349 113.241C518.751 114.598 520.38 115.639 522.235 116.363C524.136 117.087 526.217 117.449 528.479 117.449C530.651 117.449 532.755 117.109 534.791 116.431C536.872 115.707 538.886 114.508 540.831 112.834L547.075 120.774C544.496 122.72 541.487 124.213 538.049 125.253C534.655 126.294 531.262 126.814 527.868 126.814ZM537.031 119.349V101.5H547.075V120.774L537.031 119.349ZM557.288 109.508L555.184 78.4925H567.808L565.704 109.508H557.288ZM561.496 126.543C559.596 126.543 558.035 125.932 556.813 124.711C555.591 123.489 554.981 122.041 554.981 120.367C554.981 118.648 555.591 117.222 556.813 116.091C558.035 114.915 559.596 114.327 561.496 114.327C563.441 114.327 565.002 114.915 566.179 116.091C567.4 117.222 568.011 118.648 568.011 120.367C568.011 122.041 567.4 123.489 566.179 124.711C565.002 125.932 563.441 126.543 561.496 126.543Z" fill="#F1F1F1"/>
<path d="M272.016 158.465L271.781 153.298L284.093 140.517H288.991L278.759 151.386L276.343 154.036L272.016 158.465ZM268.124 164V140.517H272.485V164H268.124ZM284.495 164L275.505 153.298L278.39 150.111L289.595 164H284.495ZM292.564 164V140.517H296.925V160.31H309.204V164H292.564ZM312.647 164V140.517H317.008V164H312.647ZM327.251 158.465L327.016 153.298L339.328 140.517H344.226L333.994 151.386L331.579 154.036L327.251 158.465ZM323.36 164V140.517H327.721V164H323.36ZM339.731 164L330.74 153.298L333.625 150.111L344.83 164H339.731ZM357.071 164V140.517H367.336C369.886 140.517 372.122 141.009 374.046 141.993C375.969 142.977 377.468 144.341 378.541 146.086C379.615 147.83 380.151 149.888 380.151 152.258C380.151 154.607 379.615 156.664 378.541 158.431C377.468 160.176 375.969 161.54 374.046 162.524C372.122 163.508 369.886 164 367.336 164H357.071ZM361.432 160.31H367.135C368.902 160.31 370.423 159.974 371.697 159.303C372.995 158.632 373.99 157.693 374.683 156.485C375.399 155.278 375.757 153.869 375.757 152.258C375.757 150.626 375.399 149.217 374.683 148.031C373.99 146.824 372.995 145.884 371.697 145.213C370.423 144.543 368.902 144.207 367.135 144.207H361.432V160.31ZM384.787 164V140.517H389.148V164H384.787ZM402.779 164.335C400.946 164.335 399.19 164.078 397.512 163.564C395.835 163.027 394.504 162.345 393.52 161.517L395.03 158.129C395.969 158.867 397.132 159.482 398.519 159.974C399.906 160.466 401.326 160.712 402.779 160.712C404.01 160.712 405.005 160.578 405.765 160.31C406.526 160.041 407.085 159.684 407.443 159.236C407.8 158.767 407.979 158.241 407.979 157.66C407.979 156.944 407.722 156.374 407.208 155.949C406.693 155.501 406.022 155.155 405.195 154.909C404.39 154.64 403.484 154.394 402.478 154.171C401.493 153.947 400.498 153.69 399.492 153.399C398.508 153.086 397.602 152.695 396.774 152.225C395.969 151.733 395.31 151.084 394.795 150.279C394.281 149.474 394.024 148.445 394.024 147.193C394.024 145.918 394.359 144.755 395.03 143.704C395.723 142.63 396.763 141.78 398.15 141.154C399.559 140.506 401.337 140.181 403.484 140.181C404.893 140.181 406.291 140.36 407.677 140.718C409.064 141.076 410.272 141.59 411.3 142.261L409.925 145.65C408.874 145.023 407.789 144.565 406.671 144.274C405.553 143.961 404.479 143.804 403.45 143.804C402.243 143.804 401.259 143.95 400.498 144.241C399.76 144.531 399.212 144.912 398.854 145.381C398.519 145.851 398.351 146.388 398.351 146.991C398.351 147.707 398.597 148.289 399.089 148.736C399.604 149.161 400.263 149.496 401.069 149.742C401.896 149.988 402.813 150.234 403.819 150.48C404.826 150.704 405.821 150.961 406.805 151.252C407.812 151.543 408.717 151.923 409.522 152.393C410.35 152.862 411.01 153.5 411.502 154.305C412.016 155.11 412.273 156.128 412.273 157.358C412.273 158.61 411.927 159.773 411.233 160.847C410.562 161.898 409.522 162.748 408.113 163.396C406.704 164.022 404.926 164.335 402.779 164.335ZM416.598 164V140.517H420.959V164H416.598ZM427.311 164V140.517H430.9L445.628 158.599H443.85V140.517H448.177V164H444.588L429.86 145.918H431.638V164H427.311ZM454.47 164V140.517H458.831V164H454.47Z" fill="#F1F1F1"/>
<path fill-rule="evenodd" clip-rule="evenodd" d="M102 120.5C102 136.24 89.2401 149 73.5 149C57.7599 149 45 136.24 45 120.5C45 104.76 57.7599 92 73.5 92C89.2401 92 102 104.76 102 120.5ZM73.5 153C91.4493 153 106 138.449 106 120.5C106 102.551 91.4493 88 73.5 88C55.5507 88 41 102.551 41 120.5C41 138.449 55.5507 153 73.5 153ZM71.232 136.768C72.2083 137.744 73.7912 137.744 74.7675 136.768L90.6774 120.858C91.6537 119.882 91.6537 118.299 90.6774 117.322C89.7011 116.346 88.1182 116.346 87.1419 117.322L75.4997 128.964V109.5C75.4997 108.119 74.3805 107 72.9997 107C71.619 107 70.4997 108.119 70.4997 109.5L70.4997 128.964L58.8576 117.322C57.8813 116.346 56.2984 116.346 55.3221 117.322C54.3458 118.299 54.3458 119.882 55.3221 120.858L71.232 136.768Z" fill="#F1F1F1"/>
<path fill-rule="evenodd" clip-rule="evenodd" d="M682 120.5C682 136.24 669.24 149 653.5 149C637.76 149 625 136.24 625 120.5C625 104.76 637.76 92 653.5 92C669.24 92 682 104.76 682 120.5ZM653.5 153C671.449 153 686 138.449 686 120.5C686 102.551 671.449 88 653.5 88C635.551 88 621 102.551 621 120.5C621 138.449 635.551 153 653.5 153ZM651.642 136.768C652.618 137.744 654.201 137.744 655.178 136.768L671.088 120.858C672.064 119.882 672.064 118.299 671.088 117.322C670.111 116.346 668.528 116.346 667.552 117.322L655.91 128.964V109.5C655.91 108.119 654.791 107 653.41 107C652.029 107 650.91 108.119 650.91 109.5L650.91 128.964L639.268 117.322C638.291 116.346 636.709 116.346 635.732 117.322C634.756 118.299 634.756 119.882 635.732 120.858L651.642 136.768Z" fill="#F1F1F1"/>
</svg>
