<svg width="1080" height="224" viewBox="0 0 1080 224" fill="none" xmlns="http://www.w3.org/2000/svg">
<path fill-rule="evenodd" clip-rule="evenodd" d="M863 4H946V0H134V4H218V188C218 207.882 234.118 224 254 224H827C846.882 224 863 207.882 863 188V4Z" fill="#460606"/>
<path d="M740.049 172.272L739.353 158.7H743.645L742.92 172.272H740.049ZM741.499 179.203C740.823 179.203 740.262 178.981 739.817 178.536C739.373 178.091 739.15 177.56 739.15 176.941C739.15 176.322 739.373 175.8 739.817 175.375C740.262 174.93 740.823 174.708 741.499 174.708C742.176 174.708 742.727 174.93 743.152 175.375C743.578 175.8 743.79 176.322 743.79 176.941C743.79 177.56 743.578 178.091 743.152 178.536C742.727 178.981 742.176 179.203 741.499 179.203Z" fill="#F1F1F1"/>
<path d="M730.905 179V158.7H734.675V179H730.905Z" fill="#F1F1F1"/>
<path d="M707.427 179V158.7H710.53L723.261 174.331H721.724V158.7H725.465V179H722.362L709.631 163.369H711.168V179H707.427Z" fill="#F1F1F1"/>
<path d="M698.167 179V158.7H701.936V179H698.167Z" fill="#F1F1F1"/>
<path d="M686.221 179.29C684.636 179.29 683.118 179.068 681.668 178.623C680.218 178.159 679.068 177.569 678.217 176.854L679.522 173.925C680.334 174.563 681.34 175.095 682.538 175.52C683.737 175.945 684.965 176.158 686.221 176.158C687.285 176.158 688.145 176.042 688.802 175.81C689.46 175.578 689.943 175.269 690.252 174.882C690.562 174.476 690.716 174.022 690.716 173.519C690.716 172.9 690.494 172.407 690.049 172.04C689.605 171.653 689.025 171.354 688.309 171.141C687.613 170.909 686.83 170.696 685.96 170.503C685.11 170.31 684.249 170.087 683.379 169.836C682.529 169.565 681.746 169.227 681.03 168.821C680.334 168.396 679.764 167.835 679.319 167.139C678.875 166.443 678.652 165.554 678.652 164.471C678.652 163.369 678.942 162.364 679.522 161.455C680.122 160.527 681.021 159.792 682.219 159.251C683.437 158.69 684.974 158.41 686.83 158.41C688.048 158.41 689.257 158.565 690.455 158.874C691.654 159.183 692.698 159.628 693.587 160.208L692.398 163.137C691.49 162.596 690.552 162.199 689.585 161.948C688.619 161.677 687.691 161.542 686.801 161.542C685.757 161.542 684.907 161.668 684.249 161.919C683.611 162.17 683.138 162.499 682.828 162.905C682.538 163.311 682.393 163.775 682.393 164.297C682.393 164.916 682.606 165.418 683.031 165.805C683.476 166.172 684.046 166.462 684.742 166.675C685.458 166.888 686.25 167.1 687.12 167.313C687.99 167.506 688.851 167.729 689.701 167.98C690.571 168.231 691.354 168.56 692.05 168.966C692.766 169.372 693.336 169.923 693.761 170.619C694.206 171.315 694.428 172.195 694.428 173.258C694.428 174.341 694.129 175.346 693.529 176.274C692.949 177.183 692.05 177.917 690.832 178.478C689.614 179.019 688.077 179.29 686.221 179.29Z" fill="#F1F1F1"/>
<path d="M670.667 179V158.7H674.437V179H670.667Z" fill="#F1F1F1"/>
<path d="M646.708 179V158.7H655.582C657.786 158.7 659.72 159.125 661.382 159.976C663.045 160.827 664.34 162.006 665.268 163.514C666.196 165.022 666.66 166.801 666.66 168.85C666.66 170.88 666.196 172.659 665.268 174.186C664.34 175.694 663.045 176.873 661.382 177.724C659.72 178.575 657.786 179 655.582 179H646.708ZM650.478 175.81H655.408C656.936 175.81 658.25 175.52 659.352 174.94C660.474 174.36 661.334 173.548 661.933 172.504C662.552 171.46 662.861 170.242 662.861 168.85C662.861 167.439 662.552 166.221 661.933 165.196C661.334 164.152 660.474 163.34 659.352 162.76C658.25 162.18 656.936 161.89 655.408 161.89H650.478V175.81Z" fill="#F1F1F1"/>
<path d="M620.931 174.215L620.728 169.749L631.371 158.7H635.605L626.76 168.096L624.672 170.387L620.931 174.215ZM617.567 179V158.7H621.337V179H617.567ZM631.719 179L623.947 169.749L626.441 166.994L636.127 179H631.719Z" fill="#F1F1F1"/>
<path d="M608.306 179V158.7H612.076V179H608.306Z" fill="#F1F1F1"/>
<path d="M590.946 179V158.7H594.716V175.81H605.33V179H590.946Z" fill="#F1F1F1"/>
<path d="M573.183 174.215L572.98 169.749L583.623 158.7H587.857L579.012 168.096L576.924 170.387L573.183 174.215ZM569.819 179V158.7H573.589V179H569.819ZM583.971 179L576.199 169.749L578.693 166.994L588.379 179H583.971Z" fill="#F1F1F1"/>
<path d="M553.419 183.379L555.101 176.97L555.594 179.116C554.917 179.116 554.347 178.913 553.883 178.507C553.438 178.082 553.216 177.511 553.216 176.796C553.216 176.061 553.438 175.481 553.883 175.056C554.347 174.611 554.907 174.389 555.565 174.389C556.241 174.389 556.802 174.611 557.247 175.056C557.691 175.501 557.914 176.081 557.914 176.796C557.914 176.989 557.895 177.202 557.856 177.434C557.817 177.647 557.749 177.898 557.653 178.188C557.575 178.478 557.44 178.845 557.247 179.29L555.768 183.379H553.419Z" fill="#F1F1F1"/>
<path d="M542.332 179V161.89H535.604V158.7H552.83V161.89H546.102V179H542.332Z" fill="#F1F1F1"/>
<path d="M524.427 179.29C521.643 179.29 519.459 178.507 517.873 176.941C516.307 175.375 515.524 173.113 515.524 170.155V158.7H519.294V170.01C519.294 172.098 519.739 173.616 520.628 174.563C521.537 175.51 522.813 175.984 524.456 175.984C526.1 175.984 527.366 175.51 528.255 174.563C529.145 173.616 529.589 172.098 529.589 170.01V158.7H533.301V170.155C533.301 173.113 532.509 175.375 530.923 176.941C529.357 178.507 527.192 179.29 524.427 179.29Z" fill="#F1F1F1"/>
<path d="M503.567 179.29C502.271 179.29 501.073 179.039 499.971 178.536C498.888 178.033 497.999 177.308 497.303 176.361L499.449 173.78C500.009 174.553 500.618 175.133 501.276 175.52C501.952 175.907 502.687 176.1 503.48 176.1C505.587 176.1 506.641 174.853 506.641 172.359V161.861H499.42V158.7H510.411V172.156C510.411 174.553 509.821 176.342 508.642 177.521C507.482 178.7 505.79 179.29 503.567 179.29Z" fill="#F1F1F1"/>
<path d="M476.928 179V158.7H480.031L492.762 174.331H491.225V158.7H494.966V179H491.863L479.132 163.369H480.669V179H476.928Z" fill="#F1F1F1"/>
<path d="M452.335 179L461.47 158.7H465.182L474.346 179H470.402L462.543 160.701H464.051L456.221 179H452.335ZM456.54 174.302L457.555 171.344H468.517L469.532 174.302H456.54Z" fill="#F1F1F1"/>
<path d="M437.818 179V158.7H441.588V175.81H452.202V179H437.818Z" fill="#F1F1F1"/>
<path d="M420.594 158.7H424.364V179H420.594V158.7ZM410.096 179H406.326V158.7H410.096V179ZM420.884 170.3H409.777V167.081H420.884V170.3Z" fill="#F1F1F1"/>
<path d="M397.065 179V158.7H400.835V179H397.065Z" fill="#F1F1F1"/>
<path d="M375.003 179V158.7H384.515C386.951 158.7 388.807 159.183 390.083 160.15C391.359 161.097 391.997 162.373 391.997 163.978C391.997 165.061 391.746 165.989 391.243 166.762C390.741 167.516 390.064 168.106 389.213 168.531C388.382 168.937 387.473 169.14 386.487 169.14L387.009 168.096C388.15 168.096 389.175 168.309 390.083 168.734C390.992 169.14 391.707 169.739 392.229 170.532C392.771 171.325 393.041 172.311 393.041 173.49C393.041 175.23 392.374 176.583 391.04 177.55C389.706 178.517 387.725 179 385.095 179H375.003ZM378.773 176.042H384.863C386.275 176.042 387.357 175.81 388.111 175.346C388.865 174.882 389.242 174.138 389.242 173.113C389.242 172.108 388.865 171.373 388.111 170.909C387.357 170.426 386.275 170.184 384.863 170.184H378.483V167.255H384.109C385.424 167.255 386.429 167.023 387.125 166.559C387.841 166.095 388.198 165.399 388.198 164.471C388.198 163.524 387.841 162.818 387.125 162.354C386.429 161.89 385.424 161.658 384.109 161.658H378.773V176.042Z" fill="#F1F1F1"/>
<path d="M359.056 167.139H369.148V170.242H359.056V167.139ZM359.346 175.839H370.801V179H355.576V158.7H370.395V161.861H359.346V175.839Z" fill="#F1F1F1"/>
<path d="M338.215 179V158.7H341.985V175.81H352.599V179H338.215Z" fill="#F1F1F1"/>
<path d="M693.491 138V103H699.991V138H693.491Z" fill="#F1F1F1"/>
<path d="M667.801 138.5C665.068 138.5 662.551 138.05 660.251 137.15C657.951 136.25 655.951 135 654.251 133.4C652.551 131.767 651.235 129.867 650.301 127.7C649.368 125.5 648.901 123.1 648.901 120.5C648.901 117.9 649.368 115.517 650.301 113.35C651.235 111.15 652.551 109.25 654.251 107.65C655.951 106.017 657.951 104.75 660.251 103.85C662.551 102.95 665.051 102.5 667.751 102.5C670.485 102.5 672.985 102.95 675.251 103.85C677.551 104.75 679.551 106 681.251 107.6C682.951 109.2 684.268 111.1 685.201 113.3C686.135 115.5 686.601 117.9 686.601 120.5C686.601 123.1 686.135 125.5 685.201 127.7C684.268 129.9 682.951 131.8 681.251 133.4C679.551 135 677.551 136.25 675.251 137.15C672.985 138.05 670.501 138.5 667.801 138.5ZM679.201 145.65C677.968 145.65 676.768 145.5 675.601 145.2C674.468 144.933 673.335 144.467 672.201 143.8C671.101 143.167 669.951 142.317 668.751 141.25C667.551 140.217 666.235 138.933 664.801 137.4L671.701 135.6C672.635 136.833 673.518 137.817 674.351 138.55C675.218 139.317 676.051 139.867 676.851 140.2C677.651 140.533 678.485 140.7 679.351 140.7C681.651 140.7 683.651 139.767 685.351 137.9L688.351 141.5C686.018 144.267 682.968 145.65 679.201 145.65ZM667.751 132.8C669.518 132.8 671.151 132.5 672.651 131.9C674.151 131.3 675.451 130.45 676.551 129.35C677.651 128.217 678.501 126.9 679.101 125.4C679.735 123.9 680.051 122.267 680.051 120.5C680.051 118.7 679.735 117.067 679.101 115.6C678.501 114.1 677.651 112.8 676.551 111.7C675.451 110.567 674.151 109.7 672.651 109.1C671.151 108.5 669.518 108.2 667.751 108.2C665.985 108.2 664.351 108.5 662.851 109.1C661.351 109.7 660.051 110.567 658.951 111.7C657.851 112.8 656.985 114.1 656.351 115.6C655.751 117.067 655.451 118.7 655.451 120.5C655.451 122.267 655.751 123.9 656.351 125.4C656.985 126.9 657.851 128.217 658.951 129.35C660.051 130.45 661.351 131.3 662.851 131.9C664.351 132.5 665.985 132.8 667.751 132.8Z" fill="#F1F1F1"/>
<path d="M622.104 138V103H628.604V132.5H646.904V138H622.104Z" fill="#F1F1F1"/>
<path d="M594.608 117.55H612.008V122.9H594.608V117.55ZM595.108 132.55H614.858V138H588.608V103H614.158V108.45H595.108V132.55Z" fill="#F1F1F1"/>
<path d="M533.481 138V103H548.781C552.581 103 555.915 103.733 558.781 105.2C561.648 106.667 563.881 108.7 565.481 111.3C567.081 113.9 567.881 116.967 567.881 120.5C567.881 124 567.081 127.067 565.481 129.7C563.881 132.3 561.648 134.333 558.781 135.8C555.915 137.267 552.581 138 548.781 138H533.481ZM539.981 132.5H548.481C551.115 132.5 553.381 132 555.281 131C557.215 130 558.698 128.6 559.731 126.8C560.798 125 561.331 122.9 561.331 120.5C561.331 118.067 560.798 115.967 559.731 114.2C558.698 112.4 557.215 111 555.281 110C553.381 109 551.115 108.5 548.481 108.5H539.981V132.5Z" fill="#F1F1F1"/>
<path d="M493.003 138V103H498.353L520.303 129.95H517.653V103H524.103V138H518.753L496.803 111.05H499.453V138H493.003Z" fill="#F1F1F1"/>
<path d="M450.602 138L466.352 103H472.752L488.552 138H481.752L468.202 106.45H470.802L457.302 138H450.602ZM457.852 129.9L459.602 124.8H478.502L480.252 129.9H457.852Z" fill="#F1F1F1"/>
<path d="M418.979 138V103H433.38C436.48 103 439.129 103.5 441.329 104.5C443.563 105.5 445.279 106.933 446.479 108.8C447.679 110.667 448.279 112.883 448.279 115.45C448.279 118.017 447.679 120.233 446.479 122.1C445.279 123.933 443.563 125.35 441.329 126.35C439.129 127.317 436.48 127.8 433.38 127.8H422.579L425.479 124.85V138H418.979ZM441.88 138L433.029 125.3H439.979L448.88 138H441.88ZM425.479 125.55L422.579 122.45H433.079C435.946 122.45 438.096 121.833 439.529 120.6C440.996 119.367 441.729 117.65 441.729 115.45C441.729 113.217 440.996 111.5 439.529 110.3C438.096 109.1 435.946 108.5 433.079 108.5H422.579L425.479 105.3V125.55Z" fill="#F1F1F1"/>
<path d="M380.942 138V103H397.342C401.542 103 404.742 103.833 406.942 105.5C409.142 107.133 410.242 109.333 410.242 112.1C410.242 113.967 409.809 115.567 408.942 116.9C408.076 118.2 406.909 119.217 405.442 119.95C404.009 120.65 402.442 121 400.742 121L401.642 119.2C403.609 119.2 405.376 119.567 406.942 120.3C408.509 121 409.742 122.033 410.642 123.4C411.576 124.767 412.042 126.467 412.042 128.5C412.042 131.5 410.892 133.833 408.592 135.5C406.292 137.167 402.876 138 398.342 138H380.942ZM387.442 132.9H397.942C400.376 132.9 402.242 132.5 403.542 131.7C404.842 130.9 405.492 129.617 405.492 127.85C405.492 126.117 404.842 124.85 403.542 124.05C402.242 123.217 400.376 122.8 397.942 122.8H386.942V117.75H396.642C398.909 117.75 400.642 117.35 401.842 116.55C403.076 115.75 403.692 114.55 403.692 112.95C403.692 111.317 403.076 110.1 401.842 109.3C400.642 108.5 398.909 108.1 396.642 108.1H387.442V132.9Z" fill="#F1F1F1"/>
<path d="M647.39 86.5C644.657 86.5 642.14 86.0667 639.84 85.2C637.573 84.3 635.59 83.05 633.89 81.45C632.19 79.8167 630.873 77.9 629.94 75.7C629.007 73.5 628.54 71.1 628.54 68.5C628.54 65.9 629.007 63.5 629.94 61.3C630.873 59.1 632.19 57.2 633.89 55.6C635.623 53.9667 637.64 52.7167 639.94 51.85C642.24 50.95 644.757 50.5 647.49 50.5C650.457 50.5 653.123 50.9833 655.49 51.95C657.89 52.9167 659.907 54.3333 661.54 56.2L657.44 60.2C656.073 58.8333 654.59 57.8333 652.99 57.2C651.423 56.5333 649.69 56.2 647.79 56.2C645.957 56.2 644.257 56.5 642.69 57.1C641.123 57.7 639.773 58.55 638.64 59.65C637.507 60.75 636.623 62.05 635.99 63.55C635.39 65.05 635.09 66.7 635.09 68.5C635.09 70.2667 635.39 71.9 635.99 73.4C636.623 74.9 637.507 76.2167 638.64 77.35C639.773 78.45 641.107 79.3 642.64 79.9C644.173 80.5 645.873 80.8 647.74 80.8C649.473 80.8 651.14 80.5333 652.74 80C654.373 79.4333 655.923 78.5 657.39 77.2L661.09 82.05C659.257 83.5167 657.123 84.6333 654.69 85.4C652.29 86.1333 649.857 86.5 647.39 86.5ZM654.94 81.2V68.1H661.09V82.05L654.94 81.2Z" fill="#F1F1F1"/>
<path d="M590.562 86V51H595.911L617.862 77.95H615.212V51H621.661V86H616.312L594.362 59.05H597.012V86H590.562Z" fill="#F1F1F1"/>
<path d="M548.16 86L563.91 51H570.31L586.11 86H579.31L565.76 54.45H568.36L554.86 86H548.16ZM555.41 77.9L557.16 72.8H576.06L577.81 77.9H555.41Z" fill="#F1F1F1"/>
<path d="M531.89 86V56.5H520.29V51H549.99V56.5H538.39V86H531.89Z" fill="#F1F1F1"/>
<path d="M484.312 86V51H489.662L511.612 77.95H508.962V51H515.412V86H510.062L488.112 59.05H490.762V86H484.312Z" fill="#F1F1F1"/>
<path d="M456.815 65.55H474.215V70.9H456.815V65.55ZM457.315 80.55H477.065V86H450.815V51H476.365V56.45H457.315V80.55Z" fill="#F1F1F1"/>
<path d="M427.837 86V56.5H416.237V51H445.937V56.5H434.337V86H427.837Z" fill="#F1F1F1"/>
</svg>
