<svg width="559" height="106" viewBox="0 0 559 106" fill="none" xmlns="http://www.w3.org/2000/svg">
<rect width="559" height="106" fill="#1A1A1A"/>
<path d="M38.4652 43.1429L38.192 37.4661L48.3617 26.75H53.826L44.6581 36.6161L41.926 39.5304L38.4652 43.1429ZM34.0635 48V26.75H38.951V48H34.0635ZM48.6045 48L41.0456 38.7411L44.2635 35.25L54.342 48H48.6045ZM56.5349 48V26.75H61.4527V43.9929H72.1081V48H56.5349ZM74.8559 48V26.75H79.7737V48H74.8559ZM89.2186 43.1429L88.9454 37.4661L99.115 26.75H104.579L95.4114 36.6161L92.6793 39.5304L89.2186 43.1429ZM84.8168 48V26.75H89.7043V48H84.8168ZM99.3579 48L91.7989 38.7411L95.0168 35.25L105.095 48H99.3579ZM125.327 48.3643C122.311 48.3643 119.953 47.5244 118.253 45.8446C116.553 44.1649 115.703 41.7667 115.703 38.65V26.75H120.621V38.4679C120.621 40.4917 121.036 41.9488 121.866 42.8393C122.696 43.7298 123.859 44.175 125.357 44.175C126.854 44.175 128.018 43.7298 128.848 42.8393C129.678 41.9488 130.093 40.4917 130.093 38.4679V26.75H134.95V38.65C134.95 41.7667 134.1 44.1649 132.4 45.8446C130.7 47.5244 128.342 48.3643 125.327 48.3643ZM139.809 48V26.75H143.877L156.415 42.05H154.442V26.75H159.299V48H155.261L142.693 32.7H144.667V48H139.809ZM168.728 48V30.7571H161.928V26.75H180.446V30.7571H173.646V48H168.728ZM192.177 48.3643C189.162 48.3643 186.804 47.5244 185.104 45.8446C183.404 44.1649 182.554 41.7667 182.554 38.65V26.75H187.472V38.4679C187.472 40.4917 187.887 41.9488 188.717 42.8393C189.546 43.7298 190.71 44.175 192.208 44.175C193.705 44.175 194.869 43.7298 195.699 42.8393C196.529 41.9488 196.944 40.4917 196.944 38.4679V26.75H201.801V38.65C201.801 41.7667 200.951 44.1649 199.251 45.8446C197.551 47.5244 195.193 48.3643 192.177 48.3643ZM211.062 43.1429L210.789 37.4661L220.959 26.75H226.423L217.255 36.6161L214.523 39.5304L211.062 43.1429ZM206.66 48V26.75H211.548V48H206.66ZM221.201 48L213.643 38.7411L216.86 35.25L226.939 48H221.201ZM237.729 48V26.75H241.797L250.843 41.7464H248.688L257.583 26.75H261.62L261.681 48H257.067L257.036 33.8232H257.886L250.783 45.7536H248.567L241.311 33.8232H242.343V48H237.729ZM271.246 35.3107H281.476V39.1357H271.246V35.3107ZM271.61 44.0536H283.176V48H266.722V26.75H282.781V30.6964H271.61V44.0536ZM287.089 48V26.75H292.007V43.9929H302.662V48H287.089ZM305.41 48V26.75H310.328V48H305.41ZM329.942 26.75H334.86V48H329.942V26.75ZM320.289 48H315.371V26.75H320.289V48ZM330.307 39.2875H319.925V35.1286H330.307V39.2875ZM337.095 48L346.567 26.75H351.424L360.925 48H355.765L347.993 29.2393H349.936L342.134 48H337.095ZM341.831 43.4464L343.136 39.7125H354.065L355.4 43.4464H341.831ZM366.465 48V30.7571H359.665V26.75H378.183V30.7571H371.383V48H366.465ZM399.595 48.3643C397.956 48.3643 396.428 48.1012 395.012 47.575C393.615 47.0286 392.401 46.2595 391.369 45.2679C390.337 44.2762 389.527 43.1125 388.94 41.7768C388.373 40.4411 388.09 38.9738 388.09 37.375C388.09 35.7762 388.373 34.3089 388.94 32.9732C389.527 31.6375 390.337 30.4738 391.369 29.4821C392.421 28.4905 393.645 27.7315 395.042 27.2054C396.438 26.6589 397.966 26.3857 399.626 26.3857C401.468 26.3857 403.127 26.7095 404.604 27.3571C406.102 27.9845 407.357 28.9155 408.369 30.15L405.212 33.0643C404.483 32.2345 403.673 31.6173 402.783 31.2125C401.892 30.7875 400.921 30.575 399.869 30.575C398.877 30.575 397.966 30.7369 397.137 31.0607C396.307 31.3845 395.588 31.85 394.981 32.4571C394.374 33.0643 393.898 33.7827 393.554 34.6125C393.231 35.4423 393.069 36.3631 393.069 37.375C393.069 38.3869 393.231 39.3077 393.554 40.1375C393.898 40.9673 394.374 41.6857 394.981 42.2929C395.588 42.9 396.307 43.3655 397.137 43.6893C397.966 44.0131 398.877 44.175 399.869 44.175C400.921 44.175 401.892 43.9726 402.783 43.5679C403.673 43.1429 404.483 42.5054 405.212 41.6554L408.369 44.5696C407.357 45.8042 406.102 46.7452 404.604 47.3929C403.127 48.0405 401.457 48.3643 399.595 48.3643ZM421.566 48.3643C419.887 48.3643 418.328 48.0911 416.891 47.5446C415.475 46.9982 414.24 46.2292 413.188 45.2375C412.156 44.2458 411.346 43.0821 410.759 41.7464C410.193 40.4107 409.909 38.9536 409.909 37.375C409.909 35.7964 410.193 34.3393 410.759 33.0036C411.346 31.6679 412.166 30.5042 413.218 29.5125C414.271 28.5208 415.505 27.7518 416.922 27.2054C418.338 26.6589 419.877 26.3857 421.536 26.3857C423.216 26.3857 424.754 26.6589 426.15 27.2054C427.567 27.7518 428.791 28.5208 429.824 29.5125C430.876 30.5042 431.696 31.6679 432.283 33.0036C432.869 34.319 433.163 35.7762 433.163 37.375C433.163 38.9536 432.869 40.4208 432.283 41.7768C431.696 43.1125 430.876 44.2762 429.824 45.2679C428.791 46.2393 427.567 46.9982 426.15 47.5446C424.754 48.0911 423.226 48.3643 421.566 48.3643ZM421.536 44.175C422.487 44.175 423.358 44.0131 424.147 43.6893C424.956 43.3655 425.665 42.9 426.272 42.2929C426.879 41.6857 427.344 40.9673 427.668 40.1375C428.012 39.3077 428.184 38.3869 428.184 37.375C428.184 36.3631 428.012 35.4423 427.668 34.6125C427.344 33.7827 426.879 33.0643 426.272 32.4571C425.685 31.85 424.987 31.3845 424.177 31.0607C423.368 30.7369 422.487 30.575 421.536 30.575C420.585 30.575 419.705 30.7369 418.895 31.0607C418.106 31.3845 417.408 31.85 416.8 32.4571C416.193 33.0643 415.718 33.7827 415.374 34.6125C415.05 35.4423 414.888 36.3631 414.888 37.375C414.888 38.3667 415.05 39.2875 415.374 40.1375C415.718 40.9673 416.183 41.6857 416.77 42.2929C417.377 42.9 418.086 43.3655 418.895 43.6893C419.705 44.0131 420.585 44.175 421.536 44.175ZM436.859 48V26.75H440.927L453.464 42.05H451.491V26.75H456.348V48H452.311L439.743 32.7H441.716V48H436.859ZM465.778 48V30.7571H458.978V26.75H477.495V30.7571H470.695V48H465.778ZM490.167 48.3643C488.487 48.3643 486.928 48.0911 485.492 47.5446C484.075 46.9982 482.84 46.2292 481.788 45.2375C480.756 44.2458 479.946 43.0821 479.359 41.7464C478.793 40.4107 478.509 38.9536 478.509 37.375C478.509 35.7964 478.793 34.3393 479.359 33.0036C479.946 31.6679 480.766 30.5042 481.818 29.5125C482.871 28.5208 484.105 27.7518 485.522 27.2054C486.939 26.6589 488.477 26.3857 490.136 26.3857C491.816 26.3857 493.354 26.6589 494.75 27.2054C496.167 27.7518 497.392 28.5208 498.424 29.5125C499.476 30.5042 500.296 31.6679 500.883 33.0036C501.469 34.319 501.763 35.7762 501.763 37.375C501.763 38.9536 501.469 40.4208 500.883 41.7768C500.296 43.1125 499.476 44.2762 498.424 45.2679C497.392 46.2393 496.167 46.9982 494.75 47.5446C493.354 48.0911 491.826 48.3643 490.167 48.3643ZM490.136 44.175C491.087 44.175 491.958 44.0131 492.747 43.6893C493.556 43.3655 494.265 42.9 494.872 42.2929C495.479 41.6857 495.944 40.9673 496.268 40.1375C496.612 39.3077 496.784 38.3869 496.784 37.375C496.784 36.3631 496.612 35.4423 496.268 34.6125C495.944 33.7827 495.479 33.0643 494.872 32.4571C494.285 31.85 493.587 31.3845 492.777 31.0607C491.968 30.7369 491.087 30.575 490.136 30.575C489.185 30.575 488.305 30.7369 487.495 31.0607C486.706 31.3845 486.008 31.85 485.4 32.4571C484.793 33.0643 484.318 33.7827 483.974 34.6125C483.65 35.4423 483.488 36.3631 483.488 37.375C483.488 38.3667 483.65 39.2875 483.974 40.1375C484.318 40.9673 484.783 41.6857 485.37 42.2929C485.977 42.9 486.686 43.3655 487.495 43.6893C488.305 44.0131 489.185 44.175 490.136 44.175ZM520.03 26.75H524.948V48H520.03V26.75ZM510.377 48H505.459V26.75H510.377V48ZM520.395 39.2875H510.012V35.1286H520.395V39.2875ZM107.866 79V57.75H118.248C120.92 57.75 122.923 58.256 124.259 59.2679C125.615 60.2798 126.293 61.6155 126.293 63.275C126.293 64.3881 126.02 65.3595 125.473 66.1893C124.927 66.9988 124.178 67.6262 123.227 68.0714C122.276 68.5167 121.183 68.7393 119.948 68.7393L120.525 67.4946C121.861 67.4946 123.045 67.7173 124.077 68.1625C125.109 68.5875 125.909 69.225 126.475 70.075C127.062 70.925 127.356 71.9673 127.356 73.2018C127.356 75.0232 126.637 76.45 125.2 77.4821C123.763 78.494 121.648 79 118.856 79H107.866ZM112.754 75.2964H118.491C119.766 75.2964 120.728 75.094 121.375 74.6893C122.043 74.2643 122.377 73.5964 122.377 72.6857C122.377 71.7952 122.043 71.1375 121.375 70.7125C120.728 70.2673 119.766 70.0446 118.491 70.0446H112.39V66.4625H117.641C118.835 66.4625 119.746 66.2601 120.373 65.8554C121.021 65.4304 121.345 64.7929 121.345 63.9429C121.345 63.1131 121.021 62.4958 120.373 62.0911C119.746 61.6661 118.835 61.4536 117.641 61.4536H112.754V75.2964ZM140.52 79.3643C137.504 79.3643 135.147 78.5244 133.447 76.8446C131.747 75.1649 130.897 72.7667 130.897 69.65V57.75H135.815V69.4679C135.815 71.4917 136.229 72.9488 137.059 73.8393C137.889 74.7298 139.053 75.175 140.55 75.175C142.048 75.175 143.212 74.7298 144.041 73.8393C144.871 72.9488 145.286 71.4917 145.286 69.4679V57.75H150.143V69.65C150.143 72.7667 149.293 75.1649 147.593 76.8446C145.893 78.5244 143.535 79.3643 140.52 79.3643ZM155.003 79V57.75H164.656C166.964 57.75 168.998 58.1952 170.758 59.0857C172.519 59.956 173.895 61.1804 174.887 62.7589C175.878 64.3375 176.374 66.2095 176.374 68.375C176.374 70.5202 175.878 72.3923 174.887 73.9911C173.895 75.5696 172.519 76.8042 170.758 77.6946C168.998 78.5649 166.964 79 164.656 79H155.003ZM159.921 74.9625H164.414C165.83 74.9625 167.055 74.6994 168.087 74.1732C169.139 73.6268 169.949 72.8577 170.515 71.8661C171.102 70.8744 171.396 69.7107 171.396 68.375C171.396 67.019 171.102 65.8554 170.515 64.8839C169.949 63.8923 169.139 63.1333 168.087 62.6071C167.055 62.0607 165.83 61.7875 164.414 61.7875H159.921V74.9625ZM190.344 79.3643C188.664 79.3643 187.116 79.1012 185.699 78.575C184.303 78.0286 183.078 77.2595 182.026 76.2679C180.994 75.2762 180.184 74.1125 179.597 72.7768C179.031 71.4411 178.747 69.9738 178.747 68.375C178.747 66.7762 179.031 65.3089 179.597 63.9732C180.184 62.6375 181.004 61.4738 182.056 60.4821C183.109 59.4905 184.343 58.7315 185.76 58.2054C187.177 57.6589 188.735 57.3857 190.435 57.3857C192.317 57.3857 194.007 57.6994 195.505 58.3268C197.022 58.9542 198.297 59.8649 199.33 61.0589L196.172 63.9732C195.403 63.1637 194.563 62.5667 193.653 62.1821C192.742 61.7774 191.75 61.575 190.678 61.575C189.646 61.575 188.705 61.7369 187.855 62.0607C187.005 62.3845 186.266 62.85 185.638 63.4571C185.031 64.0643 184.556 64.7827 184.212 65.6125C183.888 66.4423 183.726 67.3631 183.726 68.375C183.726 69.3667 183.888 70.2774 184.212 71.1071C184.556 71.9369 185.031 72.6655 185.638 73.2929C186.266 73.9 186.994 74.3655 187.824 74.6893C188.674 75.0131 189.605 75.175 190.617 75.175C191.588 75.175 192.53 75.0232 193.44 74.7196C194.371 74.3958 195.272 73.8595 196.142 73.1107L198.935 76.6625C197.781 77.5327 196.435 78.2006 194.897 78.6661C193.38 79.1315 191.862 79.3643 190.344 79.3643ZM194.442 76.025V68.0411H198.935V76.6625L194.442 76.025ZM208.026 66.3107H218.257V70.1357H208.026V66.3107ZM208.391 75.0536H219.957V79H203.503V57.75H219.562V61.6964H208.391V75.0536ZM228.271 79V61.7571H221.471V57.75H239.989V61.7571H233.189V79H228.271ZM242.635 79V57.75H247.553V79H242.635ZM252.596 79V57.75H256.664L269.202 73.05H267.228V57.75H272.086V79H268.048L255.48 63.7H257.453V79H252.596ZM287.374 79.3643C285.694 79.3643 284.146 79.1012 282.729 78.575C281.333 78.0286 280.109 77.2595 279.056 76.2679C278.024 75.2762 277.214 74.1125 276.628 72.7768C276.061 71.4411 275.778 69.9738 275.778 68.375C275.778 66.7762 276.061 65.3089 276.628 63.9732C277.214 62.6375 278.034 61.4738 279.087 60.4821C280.139 59.4905 281.373 58.7315 282.79 58.2054C284.207 57.6589 285.765 57.3857 287.465 57.3857C289.347 57.3857 291.037 57.6994 292.535 58.3268C294.053 58.9542 295.328 59.8649 296.36 61.0589L293.203 63.9732C292.434 63.1637 291.594 62.5667 290.683 62.1821C289.772 61.7774 288.781 61.575 287.708 61.575C286.676 61.575 285.735 61.7369 284.885 62.0607C284.035 62.3845 283.296 62.85 282.669 63.4571C282.062 64.0643 281.586 64.7827 281.242 65.6125C280.918 66.4423 280.756 67.3631 280.756 68.375C280.756 69.3667 280.918 70.2774 281.242 71.1071C281.586 71.9369 282.062 72.6655 282.669 73.2929C283.296 73.9 284.025 74.3655 284.854 74.6893C285.704 75.0131 286.635 75.175 287.647 75.175C288.619 75.175 289.56 75.0232 290.47 74.7196C291.401 74.3958 292.302 73.8595 293.172 73.1107L295.965 76.6625C294.812 77.5327 293.466 78.2006 291.928 78.6661C290.41 79.1315 288.892 79.3643 287.374 79.3643ZM291.472 76.025V68.0411H295.965V76.6625L291.472 76.025ZM309.131 79V57.75H318.329C320.231 57.75 321.87 58.0637 323.247 58.6911C324.623 59.2982 325.685 60.1786 326.434 61.3321C327.183 62.4857 327.557 63.8619 327.557 65.4607C327.557 67.0393 327.183 68.4054 326.434 69.5589C325.685 70.7125 324.623 71.603 323.247 72.2304C321.87 72.8375 320.231 73.1411 318.329 73.1411H311.863L314.048 70.925V79H309.131ZM314.048 71.4714L311.863 69.1339H318.056C319.573 69.1339 320.707 68.8101 321.456 68.1625C322.204 67.5149 322.579 66.6143 322.579 65.4607C322.579 64.2869 322.204 63.3762 321.456 62.7286C320.707 62.081 319.573 61.7571 318.056 61.7571H311.863L314.048 59.4196V71.4714ZM331.068 79V57.75H340.267C342.169 57.75 343.808 58.0637 345.184 58.6911C346.561 59.2982 347.623 60.1786 348.372 61.3321C349.121 62.4857 349.495 63.8619 349.495 65.4607C349.495 67.0393 349.121 68.4054 348.372 69.5589C347.623 70.6923 346.561 71.5625 345.184 72.1696C343.808 72.7768 342.169 73.0804 340.267 73.0804H333.8L335.986 70.925V79H331.068ZM344.577 79L339.265 71.2893H344.517L349.89 79H344.577ZM335.986 71.4714L333.8 69.1643H339.993C341.511 69.1643 342.645 68.8405 343.393 68.1929C344.142 67.525 344.517 66.6143 344.517 65.4607C344.517 64.2869 344.142 63.3762 343.393 62.7286C342.645 62.081 341.511 61.7571 339.993 61.7571H333.8L335.986 59.4196V71.4714ZM363.713 79.3643C362.033 79.3643 360.475 79.0911 359.038 78.5446C357.621 77.9982 356.387 77.2292 355.334 76.2375C354.302 75.2458 353.493 74.0821 352.906 72.7464C352.339 71.4107 352.056 69.9536 352.056 68.375C352.056 66.7964 352.339 65.3393 352.906 64.0036C353.493 62.6679 354.312 61.5042 355.365 60.5125C356.417 59.5208 357.652 58.7518 359.068 58.2054C360.485 57.6589 362.023 57.3857 363.683 57.3857C365.362 57.3857 366.9 57.6589 368.297 58.2054C369.714 58.7518 370.938 59.5208 371.97 60.5125C373.022 61.5042 373.842 62.6679 374.429 64.0036C375.016 65.319 375.309 66.7762 375.309 68.375C375.309 69.9536 375.016 71.4208 374.429 72.7768C373.842 74.1125 373.022 75.2762 371.97 76.2679C370.938 77.2393 369.714 77.9982 368.297 78.5446C366.9 79.0911 365.372 79.3643 363.713 79.3643ZM363.683 75.175C364.634 75.175 365.504 75.0131 366.293 74.6893C367.103 74.3655 367.811 73.9 368.418 73.2929C369.025 72.6857 369.491 71.9673 369.815 71.1375C370.159 70.3077 370.331 69.3869 370.331 68.375C370.331 67.3631 370.159 66.4423 369.815 65.6125C369.491 64.7827 369.025 64.0643 368.418 63.4571C367.831 62.85 367.133 62.3845 366.324 62.0607C365.514 61.7369 364.634 61.575 363.683 61.575C362.731 61.575 361.851 61.7369 361.042 62.0607C360.252 62.3845 359.554 62.85 358.947 63.4571C358.34 64.0643 357.864 64.7827 357.52 65.6125C357.196 66.4423 357.034 67.3631 357.034 68.375C357.034 69.3667 357.196 70.2875 357.52 71.1375C357.864 71.9673 358.33 72.6857 358.917 73.2929C359.524 73.9 360.232 74.3655 361.042 74.6893C361.851 75.0131 362.731 75.175 363.683 75.175ZM382.477 79.3643C381.04 79.3643 379.714 79.1012 378.5 78.575C377.306 78.0286 376.324 77.2595 375.555 76.2679L378.287 72.9893C378.874 73.7583 379.492 74.3452 380.139 74.75C380.787 75.1345 381.485 75.3268 382.234 75.3268C384.237 75.3268 385.239 74.153 385.239 71.8054V61.6964H377.771V57.75H390.127V71.5321C390.127 74.1631 389.479 76.1262 388.184 77.4214C386.889 78.7167 384.986 79.3643 382.477 79.3643ZM399.508 66.3107H409.738V70.1357H399.508V66.3107ZM399.872 75.0536H411.438V79H394.984V57.75H411.043V61.6964H399.872V75.0536ZM425.521 79.3643C423.881 79.3643 422.353 79.1012 420.937 78.575C419.54 78.0286 418.326 77.2595 417.294 76.2679C416.262 75.2762 415.452 74.1125 414.865 72.7768C414.299 71.4411 414.015 69.9738 414.015 68.375C414.015 66.7762 414.299 65.3089 414.865 63.9732C415.452 62.6375 416.262 61.4738 417.294 60.4821C418.346 59.4905 419.571 58.7315 420.967 58.2054C422.363 57.6589 423.891 57.3857 425.551 57.3857C427.393 57.3857 429.052 57.7095 430.53 58.3571C432.027 58.9845 433.282 59.9155 434.294 61.15L431.137 64.0643C430.408 63.2345 429.599 62.6173 428.708 62.2125C427.818 61.7875 426.846 61.575 425.794 61.575C424.802 61.575 423.891 61.7369 423.062 62.0607C422.232 62.3845 421.513 62.85 420.906 63.4571C420.299 64.0643 419.824 64.7827 419.48 65.6125C419.156 66.4423 418.994 67.3631 418.994 68.375C418.994 69.3869 419.156 70.3077 419.48 71.1375C419.824 71.9673 420.299 72.6857 420.906 73.2929C421.513 73.9 422.232 74.3655 423.062 74.6893C423.891 75.0131 424.802 75.175 425.794 75.175C426.846 75.175 427.818 74.9726 428.708 74.5679C429.599 74.1429 430.408 73.5054 431.137 72.6554L434.294 75.5696C433.282 76.8042 432.027 77.7452 430.53 78.3929C429.052 79.0405 427.382 79.3643 425.521 79.3643ZM441.809 79V61.7571H435.009V57.75H453.527V61.7571H446.727V79H441.809Z" fill="white"/>
</svg>
