<svg width="1080" height="100" viewBox="0 0 1080 100" fill="none" xmlns="http://www.w3.org/2000/svg">
<rect x="218" width="600" height="100" fill="#1E1E1E"/>
<path d="M303.658 55.1461L303.378 48.9861L318.058 33.7461H323.898L311.698 46.7061L308.818 49.8661L303.658 55.1461ZM299.018 61.7461V33.7461H304.218V61.7461H299.018ZM318.538 61.7461L307.818 48.9861L311.258 45.1861L324.618 61.7461H318.538ZM336.341 62.0261C334.154 62.0261 332.208 61.5594 330.501 60.6261C328.794 59.6661 327.448 58.3594 326.461 56.7061C325.474 55.0528 324.981 53.1728 324.981 51.0661C324.981 48.9328 325.474 47.0528 326.461 45.4261C327.448 43.7728 328.794 42.4794 330.501 41.5461C332.208 40.6128 334.154 40.1461 336.341 40.1461C338.554 40.1461 340.514 40.6128 342.221 41.5461C343.954 42.4794 345.301 43.7594 346.261 45.3861C347.248 47.0128 347.741 48.9061 347.741 51.0661C347.741 53.1728 347.248 55.0528 346.261 56.7061C345.301 58.3594 343.954 59.6661 342.221 60.6261C340.514 61.5594 338.554 62.0261 336.341 62.0261ZM336.341 57.7461C337.568 57.7461 338.661 57.4794 339.621 56.9461C340.581 56.4128 341.328 55.6394 341.861 54.6261C342.421 53.6128 342.701 52.4261 342.701 51.0661C342.701 49.6794 342.421 48.4928 341.861 47.5061C341.328 46.4928 340.581 45.7194 339.621 45.1861C338.661 44.6528 337.581 44.3861 336.381 44.3861C335.154 44.3861 334.061 44.6528 333.101 45.1861C332.168 45.7194 331.421 46.4928 330.861 47.5061C330.301 48.4928 330.021 49.6794 330.021 51.0661C330.021 52.4261 330.301 53.6128 330.861 54.6261C331.421 55.6394 332.168 56.4128 333.101 56.9461C334.061 57.4794 335.141 57.7461 336.341 57.7461ZM364.642 40.1461C366.349 40.1461 367.869 40.4794 369.202 41.1461C370.562 41.8128 371.629 42.8394 372.402 44.2261C373.176 45.5861 373.562 47.3461 373.562 49.5061V61.7461H368.562V50.1461C368.562 48.2528 368.109 46.8394 367.202 45.9061C366.322 44.9728 365.082 44.5061 363.482 44.5061C362.309 44.5061 361.269 44.7461 360.362 45.2261C359.456 45.7061 358.749 46.4261 358.242 47.3861C357.762 48.3194 357.522 49.5061 357.522 50.9461V61.7461H352.522V40.3861H357.282V46.1461L356.442 44.3861C357.189 43.0261 358.269 41.9861 359.682 41.2661C361.122 40.5194 362.776 40.1461 364.642 40.1461ZM387.945 62.0261C385.598 62.0261 383.785 61.4261 382.505 60.2261C381.225 58.9994 380.585 57.1994 380.585 54.8261V35.6661H385.585V54.7061C385.585 55.7194 385.838 56.5061 386.345 57.0661C386.878 57.6261 387.612 57.9061 388.545 57.9061C389.665 57.9061 390.598 57.6128 391.345 57.0261L392.745 60.5861C392.158 61.0661 391.438 61.4261 390.585 61.6661C389.732 61.9061 388.852 62.0261 387.945 62.0261ZM377.065 44.5461V40.5461H391.305V44.5461H377.065ZM410.018 61.7461V57.4261L409.738 56.5061V48.9461C409.738 47.4794 409.298 46.3461 408.418 45.5461C407.538 44.7194 406.205 44.3061 404.418 44.3061C403.218 44.3061 402.031 44.4928 400.858 44.8661C399.711 45.2394 398.738 45.7594 397.938 46.4261L395.978 42.7861C397.125 41.9061 398.485 41.2528 400.058 40.8261C401.658 40.3728 403.311 40.1461 405.018 40.1461C408.111 40.1461 410.498 40.8928 412.178 42.3861C413.885 43.8528 414.738 46.1328 414.738 49.2261V61.7461H410.018ZM403.298 62.0261C401.698 62.0261 400.298 61.7594 399.098 61.2261C397.898 60.6661 396.965 59.9061 396.298 58.9461C395.658 57.9594 395.338 56.8528 395.338 55.6261C395.338 54.4261 395.618 53.3461 396.178 52.3861C396.765 51.4261 397.711 50.6661 399.018 50.1061C400.325 49.5461 402.058 49.2661 404.218 49.2661H410.418V52.5861H404.578C402.871 52.5861 401.725 52.8661 401.138 53.4261C400.551 53.9594 400.258 54.6261 400.258 55.4261C400.258 56.3328 400.618 57.0528 401.338 57.5861C402.058 58.1194 403.058 58.3861 404.338 58.3861C405.565 58.3861 406.658 58.1061 407.618 57.5461C408.605 56.9861 409.311 56.1594 409.738 55.0661L410.578 58.0661C410.098 59.3194 409.231 60.2928 407.978 60.9861C406.751 61.6794 405.191 62.0261 403.298 62.0261ZM425.235 56.9861L425.355 50.7061L436.515 40.3861H442.515L433.035 49.9061L430.395 52.1061L425.235 56.9861ZM421.155 61.7461V32.0661H426.155V61.7461H421.155ZM437.275 61.7461L429.475 52.1061L432.635 48.1061L443.355 61.7461H437.275ZM458.119 61.7461V33.7461H462.399L474.639 54.1861H472.399L484.439 33.7461H488.719L488.759 61.7461H483.839L483.799 41.4661H484.839L474.599 58.5461H472.279L461.879 41.4661H463.079V61.7461H458.119ZM505.883 62.0261C503.509 62.0261 501.429 61.5594 499.643 60.6261C497.883 59.6661 496.509 58.3594 495.523 56.7061C494.563 55.0528 494.083 53.1728 494.083 51.0661C494.083 48.9328 494.549 47.0528 495.483 45.4261C496.443 43.7728 497.749 42.4794 499.403 41.5461C501.083 40.6128 502.989 40.1461 505.123 40.1461C507.203 40.1461 509.056 40.5994 510.683 41.5061C512.309 42.4128 513.589 43.6928 514.523 45.3461C515.456 46.9994 515.923 48.9461 515.923 51.1861C515.923 51.3994 515.909 51.6394 515.883 51.9061C515.883 52.1728 515.869 52.4261 515.843 52.6661H498.043V49.3461H513.203L511.243 50.3861C511.269 49.1594 511.016 48.0794 510.483 47.1461C509.949 46.2128 509.216 45.4794 508.283 44.9461C507.376 44.4128 506.323 44.1461 505.123 44.1461C503.896 44.1461 502.816 44.4128 501.883 44.9461C500.976 45.4794 500.256 46.2261 499.723 47.1861C499.216 48.1194 498.963 49.2261 498.963 50.5061V51.3061C498.963 52.5861 499.256 53.7194 499.843 54.7061C500.429 55.6928 501.256 56.4528 502.323 56.9861C503.389 57.5194 504.616 57.7861 506.003 57.7861C507.203 57.7861 508.283 57.5994 509.243 57.2261C510.203 56.8528 511.056 56.2661 511.803 55.4661L514.483 58.5461C513.523 59.6661 512.309 60.5328 510.843 61.1461C509.403 61.7328 507.749 62.0261 505.883 62.0261ZM520.725 61.7461V32.0661H525.725V61.7461H520.725ZM545.448 61.7461V57.4261L545.168 56.5061V48.9461C545.168 47.4794 544.728 46.3461 543.848 45.5461C542.968 44.7194 541.634 44.3061 539.848 44.3061C538.648 44.3061 537.461 44.4928 536.288 44.8661C535.141 45.2394 534.168 45.7594 533.368 46.4261L531.408 42.7861C532.554 41.9061 533.914 41.2528 535.488 40.8261C537.088 40.3728 538.741 40.1461 540.448 40.1461C543.541 40.1461 545.928 40.8928 547.608 42.3861C549.314 43.8528 550.168 46.1328 550.168 49.2261V61.7461H545.448ZM538.728 62.0261C537.128 62.0261 535.728 61.7594 534.528 61.2261C533.328 60.6661 532.394 59.9061 531.728 58.9461C531.088 57.9594 530.768 56.8528 530.768 55.6261C530.768 54.4261 531.048 53.3461 531.608 52.3861C532.194 51.4261 533.141 50.6661 534.448 50.1061C535.754 49.5461 537.488 49.2661 539.648 49.2661H545.848V52.5861H540.008C538.301 52.5861 537.154 52.8661 536.568 53.4261C535.981 53.9594 535.688 54.6261 535.688 55.4261C535.688 56.3328 536.048 57.0528 536.768 57.5861C537.488 58.1194 538.488 58.3861 539.768 58.3861C540.994 58.3861 542.088 58.1061 543.048 57.5461C544.034 56.9861 544.741 56.1594 545.168 55.0661L546.008 58.0661C545.528 59.3194 544.661 60.2928 543.408 60.9861C542.181 61.6794 540.621 62.0261 538.728 62.0261ZM556.585 61.7461V32.0661H561.585V61.7461H556.585ZM577.187 62.0261C575.374 62.0261 573.774 61.6928 572.387 61.0261C571.001 60.3328 569.921 59.2928 569.147 57.9061C568.374 56.4928 567.987 54.7194 567.987 52.5861V40.3861H572.987V51.9061C572.987 53.8261 573.414 55.2661 574.267 56.2261C575.147 57.1594 576.387 57.6261 577.987 57.6261C579.161 57.6261 580.174 57.3861 581.027 56.9061C581.907 56.4261 582.587 55.7061 583.067 54.7461C583.574 53.7861 583.827 52.5994 583.827 51.1861V40.3861H588.827V61.7461H584.067V55.9861L584.907 57.7461C584.187 59.1328 583.134 60.1994 581.747 60.9461C580.361 61.6661 578.841 62.0261 577.187 62.0261ZM595.374 61.7461V40.3861H600.374V61.7461H595.374ZM597.894 36.8661C596.96 36.8661 596.187 36.5728 595.574 35.9861C594.987 35.3994 594.694 34.6928 594.694 33.8661C594.694 33.0128 594.987 32.3061 595.574 31.7461C596.187 31.1594 596.96 30.8661 597.894 30.8661C598.827 30.8661 599.587 31.1461 600.174 31.7061C600.787 32.2394 601.094 32.9194 601.094 33.7461C601.094 34.6261 600.8 35.3728 600.214 35.9861C599.627 36.5728 598.854 36.8661 597.894 36.8661ZM623.271 45.3861H637.191V49.6661H623.271V45.3861ZM623.671 57.3861H639.471V61.7461H618.471V33.7461H638.911V38.1061H623.671V57.3861ZM642.927 52.7061V48.5461H653.927V52.7061H642.927ZM659.877 61.7461V33.7461H664.157L676.397 54.1861H674.157L686.197 33.7461H690.477L690.517 61.7461H685.597L685.557 41.4661H686.597L676.357 58.5461H674.037L663.637 41.4661H664.837V61.7461H659.877ZM710.76 61.7461V57.4261L710.48 56.5061V48.9461C710.48 47.4794 710.04 46.3461 709.16 45.5461C708.28 44.7194 706.947 44.3061 705.16 44.3061C703.96 44.3061 702.774 44.4928 701.6 44.8661C700.454 45.2394 699.48 45.7594 698.68 46.4261L696.72 42.7861C697.867 41.9061 699.227 41.2528 700.8 40.8261C702.4 40.3728 704.054 40.1461 705.76 40.1461C708.854 40.1461 711.24 40.8928 712.92 42.3861C714.627 43.8528 715.48 46.1328 715.48 49.2261V61.7461H710.76ZM704.04 62.0261C702.44 62.0261 701.04 61.7594 699.84 61.2261C698.64 60.6661 697.707 59.9061 697.04 58.9461C696.4 57.9594 696.08 56.8528 696.08 55.6261C696.08 54.4261 696.36 53.3461 696.92 52.3861C697.507 51.4261 698.454 50.6661 699.76 50.1061C701.067 49.5461 702.8 49.2661 704.96 49.2661H711.16V52.5861H705.32C703.614 52.5861 702.467 52.8661 701.88 53.4261C701.294 53.9594 701 54.6261 701 55.4261C701 56.3328 701.36 57.0528 702.08 57.5861C702.8 58.1194 703.8 58.3861 705.08 58.3861C706.307 58.3861 707.4 58.1061 708.36 57.5461C709.347 56.9861 710.054 56.1594 710.48 55.0661L711.32 58.0661C710.84 59.3194 709.974 60.2928 708.72 60.9861C707.494 61.6794 705.934 62.0261 704.04 62.0261ZM721.897 61.7461V40.3861H726.897V61.7461H721.897ZM724.417 36.8661C723.484 36.8661 722.711 36.5728 722.097 35.9861C721.511 35.3994 721.217 34.6928 721.217 33.8661C721.217 33.0128 721.511 32.3061 722.097 31.7461C722.711 31.1594 723.484 30.8661 724.417 30.8661C725.351 30.8661 726.111 31.1461 726.697 31.7061C727.311 32.2394 727.617 32.9194 727.617 33.7461C727.617 34.6261 727.324 35.3728 726.737 35.9861C726.151 36.5728 725.377 36.8661 724.417 36.8661ZM733.46 61.7461V32.0661H738.46V61.7461H733.46Z" fill="white"/>
</svg>
