<svg width="1080" height="100" viewBox="0 0 1080 100" fill="none" xmlns="http://www.w3.org/2000/svg">
<rect x="240" width="600" height="100" fill="#1E1E1E"/>
<path d="M281.623 57.4L281.343 51.24L296.023 36H301.863L289.663 48.96L286.783 52.12L281.623 57.4ZM276.983 64V36H282.183V64H276.983ZM296.503 64L285.783 51.24L289.223 47.44L302.583 64H296.503ZM314.306 64.28C312.119 64.28 310.172 63.8133 308.466 62.88C306.759 61.92 305.412 60.6133 304.426 58.96C303.439 57.3067 302.946 55.4267 302.946 53.32C302.946 51.1867 303.439 49.3067 304.426 47.68C305.412 46.0267 306.759 44.7333 308.466 43.8C310.172 42.8667 312.119 42.4 314.306 42.4C316.519 42.4 318.479 42.8667 320.186 43.8C321.919 44.7333 323.266 46.0133 324.226 47.64C325.212 49.2667 325.706 51.16 325.706 53.32C325.706 55.4267 325.212 57.3067 324.226 58.96C323.266 60.6133 321.919 61.92 320.186 62.88C318.479 63.8133 316.519 64.28 314.306 64.28ZM314.306 60C315.532 60 316.626 59.7333 317.586 59.2C318.546 58.6667 319.292 57.8933 319.826 56.88C320.386 55.8667 320.666 54.68 320.666 53.32C320.666 51.9333 320.386 50.7467 319.826 49.76C319.292 48.7467 318.546 47.9733 317.586 47.44C316.626 46.9067 315.546 46.64 314.346 46.64C313.119 46.64 312.026 46.9067 311.066 47.44C310.132 47.9733 309.386 48.7467 308.826 49.76C308.266 50.7467 307.986 51.9333 307.986 53.32C307.986 54.68 308.266 55.8667 308.826 56.88C309.386 57.8933 310.132 58.6667 311.066 59.2C312.026 59.7333 313.106 60 314.306 60ZM342.607 42.4C344.314 42.4 345.834 42.7333 347.167 43.4C348.527 44.0667 349.594 45.0933 350.367 46.48C351.14 47.84 351.527 49.6 351.527 51.76V64H346.527V52.4C346.527 50.5067 346.074 49.0933 345.167 48.16C344.287 47.2267 343.047 46.76 341.447 46.76C340.274 46.76 339.234 47 338.327 47.48C337.42 47.96 336.714 48.68 336.207 49.64C335.727 50.5733 335.487 51.76 335.487 53.2V64H330.487V42.64H335.247V48.4L334.407 46.64C335.154 45.28 336.234 44.24 337.647 43.52C339.087 42.7733 340.74 42.4 342.607 42.4ZM365.91 64.28C363.563 64.28 361.75 63.68 360.47 62.48C359.19 61.2533 358.55 59.4533 358.55 57.08V37.92H363.55V56.96C363.55 57.9733 363.803 58.76 364.31 59.32C364.843 59.88 365.577 60.16 366.51 60.16C367.63 60.16 368.563 59.8667 369.31 59.28L370.71 62.84C370.123 63.32 369.403 63.68 368.55 63.92C367.697 64.16 366.817 64.28 365.91 64.28ZM355.03 46.8V42.8H369.27V46.8H355.03ZM387.983 64V59.68L387.703 58.76V51.2C387.703 49.7333 387.263 48.6 386.383 47.8C385.503 46.9733 384.17 46.56 382.383 46.56C381.183 46.56 379.996 46.7467 378.823 47.12C377.676 47.4933 376.703 48.0133 375.903 48.68L373.943 45.04C375.09 44.16 376.45 43.5067 378.023 43.08C379.623 42.6267 381.276 42.4 382.983 42.4C386.076 42.4 388.463 43.1467 390.143 44.64C391.85 46.1067 392.703 48.3867 392.703 51.48V64H387.983ZM381.263 64.28C379.663 64.28 378.263 64.0133 377.063 63.48C375.863 62.92 374.93 62.16 374.263 61.2C373.623 60.2133 373.303 59.1067 373.303 57.88C373.303 56.68 373.583 55.6 374.143 54.64C374.73 53.68 375.676 52.92 376.983 52.36C378.29 51.8 380.023 51.52 382.183 51.52H388.383V54.84H382.543C380.836 54.84 379.69 55.12 379.103 55.68C378.516 56.2133 378.223 56.88 378.223 57.68C378.223 58.5867 378.583 59.3067 379.303 59.84C380.023 60.3733 381.023 60.64 382.303 60.64C383.53 60.64 384.623 60.36 385.583 59.8C386.57 59.24 387.276 58.4133 387.703 57.32L388.543 60.32C388.063 61.5733 387.196 62.5467 385.943 63.24C384.716 63.9333 383.156 64.28 381.263 64.28ZM403.2 59.24L403.32 52.96L414.48 42.64H420.48L411 52.16L408.36 54.36L403.2 59.24ZM399.12 64V34.32H404.12V64H399.12ZM415.24 64L407.44 54.36L410.6 50.36L421.32 64H415.24ZM436.084 64V36H440.364L452.604 56.44H450.364L462.404 36H466.684L466.724 64H461.804L461.764 43.72H462.804L452.564 60.8H450.244L439.844 43.72H441.044V64H436.084ZM483.847 64.28C481.474 64.28 479.394 63.8133 477.607 62.88C475.847 61.92 474.474 60.6133 473.487 58.96C472.527 57.3067 472.047 55.4267 472.047 53.32C472.047 51.1867 472.514 49.3067 473.447 47.68C474.407 46.0267 475.714 44.7333 477.367 43.8C479.047 42.8667 480.954 42.4 483.087 42.4C485.167 42.4 487.021 42.8533 488.647 43.76C490.274 44.6667 491.554 45.9467 492.487 47.6C493.421 49.2533 493.887 51.2 493.887 53.44C493.887 53.6533 493.874 53.8933 493.847 54.16C493.847 54.4267 493.834 54.68 493.807 54.92H476.007V51.6H491.167L489.207 52.64C489.234 51.4133 488.981 50.3333 488.447 49.4C487.914 48.4667 487.181 47.7333 486.247 47.2C485.341 46.6667 484.287 46.4 483.087 46.4C481.861 46.4 480.781 46.6667 479.847 47.2C478.941 47.7333 478.221 48.48 477.687 49.44C477.181 50.3733 476.927 51.48 476.927 52.76V53.56C476.927 54.84 477.221 55.9733 477.807 56.96C478.394 57.9467 479.221 58.7067 480.287 59.24C481.354 59.7733 482.581 60.04 483.967 60.04C485.167 60.04 486.247 59.8533 487.207 59.48C488.167 59.1067 489.021 58.52 489.767 57.72L492.447 60.8C491.487 61.92 490.274 62.7867 488.807 63.4C487.367 63.9867 485.714 64.28 483.847 64.28ZM498.69 64V34.32H503.69V64H498.69ZM523.413 64V59.68L523.133 58.76V51.2C523.133 49.7333 522.693 48.6 521.813 47.8C520.933 46.9733 519.599 46.56 517.813 46.56C516.613 46.56 515.426 46.7467 514.253 47.12C513.106 47.4933 512.133 48.0133 511.333 48.68L509.373 45.04C510.519 44.16 511.879 43.5067 513.453 43.08C515.053 42.6267 516.706 42.4 518.413 42.4C521.506 42.4 523.893 43.1467 525.573 44.64C527.279 46.1067 528.133 48.3867 528.133 51.48V64H523.413ZM516.693 64.28C515.093 64.28 513.693 64.0133 512.493 63.48C511.293 62.92 510.359 62.16 509.693 61.2C509.053 60.2133 508.733 59.1067 508.733 57.88C508.733 56.68 509.013 55.6 509.573 54.64C510.159 53.68 511.106 52.92 512.413 52.36C513.719 51.8 515.453 51.52 517.613 51.52H523.813V54.84H517.973C516.266 54.84 515.119 55.12 514.533 55.68C513.946 56.2133 513.653 56.88 513.653 57.68C513.653 58.5867 514.013 59.3067 514.733 59.84C515.453 60.3733 516.453 60.64 517.733 60.64C518.959 60.64 520.053 60.36 521.013 59.8C521.999 59.24 522.706 58.4133 523.133 57.32L523.973 60.32C523.493 61.5733 522.626 62.5467 521.373 63.24C520.146 63.9333 518.586 64.28 516.693 64.28ZM534.55 64V34.32H539.55V64H534.55ZM555.152 64.28C553.339 64.28 551.739 63.9467 550.352 63.28C548.965 62.5867 547.885 61.5467 547.112 60.16C546.339 58.7467 545.952 56.9733 545.952 54.84V42.64H550.952V54.16C550.952 56.08 551.379 57.52 552.232 58.48C553.112 59.4133 554.352 59.88 555.952 59.88C557.125 59.88 558.139 59.64 558.992 59.16C559.872 58.68 560.552 57.96 561.032 57C561.539 56.04 561.792 54.8533 561.792 53.44V42.64H566.792V64H562.032V58.24L562.872 60C562.152 61.3867 561.099 62.4533 559.712 63.2C558.325 63.92 556.805 64.28 555.152 64.28ZM573.339 64V42.64H578.339V64H573.339ZM575.859 39.12C574.925 39.12 574.152 38.8267 573.539 38.24C572.952 37.6533 572.659 36.9467 572.659 36.12C572.659 35.2667 572.952 34.56 573.539 34C574.152 33.4133 574.925 33.12 575.859 33.12C576.792 33.12 577.552 33.4 578.139 33.96C578.752 34.4933 579.059 35.1733 579.059 36C579.059 36.88 578.765 37.6267 578.179 38.24C577.592 38.8267 576.819 39.12 575.859 39.12ZM603.036 64L593.756 36H599.156L607.436 61.32H604.756L613.356 36H618.156L626.516 61.32H623.916L632.396 36H637.356L628.076 64H622.556L614.916 41.16H616.356L608.596 64H603.036ZM653.818 42.4C655.525 42.4 657.045 42.7333 658.378 43.4C659.738 44.0667 660.805 45.0933 661.578 46.48C662.351 47.84 662.738 49.6 662.738 51.76V64H657.738V52.4C657.738 50.5067 657.285 49.0933 656.378 48.16C655.498 47.2267 654.258 46.76 652.658 46.76C651.485 46.76 650.445 47 649.538 47.48C648.631 47.96 647.925 48.68 647.418 49.64C646.938 50.5733 646.698 51.76 646.698 53.2V64H641.698V34.32H646.698V48.4L645.618 46.64C646.365 45.28 647.445 44.24 648.858 43.52C650.298 42.7733 651.951 42.4 653.818 42.4ZM682.241 64V59.68L681.961 58.76V51.2C681.961 49.7333 681.521 48.6 680.641 47.8C679.761 46.9733 678.427 46.56 676.641 46.56C675.441 46.56 674.254 46.7467 673.081 47.12C671.934 47.4933 670.961 48.0133 670.161 48.68L668.201 45.04C669.347 44.16 670.707 43.5067 672.281 43.08C673.881 42.6267 675.534 42.4 677.241 42.4C680.334 42.4 682.721 43.1467 684.401 44.64C686.107 46.1067 686.961 48.3867 686.961 51.48V64H682.241ZM675.521 64.28C673.921 64.28 672.521 64.0133 671.321 63.48C670.121 62.92 669.187 62.16 668.521 61.2C667.881 60.2133 667.561 59.1067 667.561 57.88C667.561 56.68 667.841 55.6 668.401 54.64C668.987 53.68 669.934 52.92 671.241 52.36C672.547 51.8 674.281 51.52 676.441 51.52H682.641V54.84H676.801C675.094 54.84 673.947 55.12 673.361 55.68C672.774 56.2133 672.481 56.88 672.481 57.68C672.481 58.5867 672.841 59.3067 673.561 59.84C674.281 60.3733 675.281 60.64 676.561 60.64C677.787 60.64 678.881 60.36 679.841 59.8C680.827 59.24 681.534 58.4133 681.961 57.32L682.801 60.32C682.321 61.5733 681.454 62.5467 680.201 63.24C678.974 63.9333 677.414 64.28 675.521 64.28ZM701.418 64.28C699.071 64.28 697.258 63.68 695.978 62.48C694.698 61.2533 694.058 59.4533 694.058 57.08V37.92H699.058V56.96C699.058 57.9733 699.311 58.76 699.818 59.32C700.351 59.88 701.084 60.16 702.018 60.16C703.138 60.16 704.071 59.8667 704.818 59.28L706.218 62.84C705.631 63.32 704.911 63.68 704.058 63.92C703.204 64.16 702.324 64.28 701.418 64.28ZM690.538 46.8V42.8H704.778V46.8H690.538ZM716.931 64.28C715.144 64.28 713.424 64.0533 711.771 63.6C710.144 63.12 708.851 62.5467 707.891 61.88L709.811 58.08C710.771 58.6933 711.917 59.2 713.251 59.6C714.584 60 715.917 60.2 717.251 60.2C718.824 60.2 719.957 59.9867 720.651 59.56C721.371 59.1333 721.731 58.56 721.731 57.84C721.731 57.2533 721.491 56.8133 721.011 56.52C720.531 56.2 719.904 55.96 719.131 55.8C718.357 55.64 717.491 55.4933 716.531 55.36C715.597 55.2267 714.651 55.0533 713.691 54.84C712.757 54.6 711.904 54.2667 711.131 53.84C710.357 53.3867 709.731 52.7867 709.251 52.04C708.771 51.2933 708.531 50.3067 708.531 49.08C708.531 47.72 708.917 46.5467 709.691 45.56C710.464 44.5467 711.544 43.7733 712.931 43.24C714.344 42.68 716.011 42.4 717.931 42.4C719.371 42.4 720.824 42.56 722.291 42.88C723.757 43.2 724.971 43.6533 725.931 44.24L724.011 48.04C722.997 47.4267 721.971 47.0133 720.931 46.8C719.917 46.56 718.904 46.44 717.891 46.44C716.371 46.44 715.237 46.6667 714.491 47.12C713.771 47.5733 713.411 48.1467 713.411 48.84C713.411 49.48 713.651 49.96 714.131 50.28C714.611 50.6 715.237 50.8533 716.011 51.04C716.784 51.2267 717.637 51.3867 718.571 51.52C719.531 51.6267 720.477 51.8 721.411 52.04C722.344 52.28 723.197 52.6133 723.971 53.04C724.771 53.44 725.411 54.0133 725.891 54.76C726.371 55.5067 726.611 56.48 726.611 57.68C726.611 59.0133 726.211 60.1733 725.411 61.16C724.637 62.1467 723.531 62.92 722.091 63.48C720.651 64.0133 718.931 64.28 716.931 64.28ZM744.077 64V59.68L743.797 58.76V51.2C743.797 49.7333 743.357 48.6 742.477 47.8C741.597 46.9733 740.263 46.56 738.477 46.56C737.277 46.56 736.09 46.7467 734.917 47.12C733.77 47.4933 732.797 48.0133 731.997 48.68L730.037 45.04C731.183 44.16 732.543 43.5067 734.117 43.08C735.717 42.6267 737.37 42.4 739.077 42.4C742.17 42.4 744.557 43.1467 746.237 44.64C747.943 46.1067 748.797 48.3867 748.797 51.48V64H744.077ZM737.357 64.28C735.757 64.28 734.357 64.0133 733.157 63.48C731.957 62.92 731.023 62.16 730.357 61.2C729.717 60.2133 729.397 59.1067 729.397 57.88C729.397 56.68 729.677 55.6 730.237 54.64C730.823 53.68 731.77 52.92 733.077 52.36C734.383 51.8 736.117 51.52 738.277 51.52H744.477V54.84H738.637C736.93 54.84 735.783 55.12 735.197 55.68C734.61 56.2133 734.317 56.88 734.317 57.68C734.317 58.5867 734.677 59.3067 735.397 59.84C736.117 60.3733 737.117 60.64 738.397 60.64C739.623 60.64 740.717 60.36 741.677 59.8C742.663 59.24 743.37 58.4133 743.797 57.32L744.637 60.32C744.157 61.5733 743.29 62.5467 742.037 63.24C740.81 63.9333 739.25 64.28 737.357 64.28ZM767.054 64.28C765.32 64.28 763.734 63.88 762.294 63.08C760.88 62.28 759.747 61.08 758.894 59.48C758.067 57.8533 757.654 55.8 757.654 53.32C757.654 50.8133 758.054 48.76 758.854 47.16C759.68 45.56 760.8 44.3733 762.214 43.6C763.627 42.8 765.24 42.4 767.054 42.4C769.16 42.4 771.014 42.8533 772.614 43.76C774.24 44.6667 775.52 45.9333 776.454 47.56C777.414 49.1867 777.894 51.1067 777.894 53.32C777.894 55.5333 777.414 57.4667 776.454 59.12C775.52 60.7467 774.24 62.0133 772.614 62.92C771.014 63.8267 769.16 64.28 767.054 64.28ZM755.214 71.76V42.64H759.974V47.68L759.814 53.36L760.214 59.04V71.76H755.214ZM766.494 60C767.694 60 768.76 59.7333 769.694 59.2C770.654 58.6667 771.414 57.8933 771.974 56.88C772.534 55.8667 772.814 54.68 772.814 53.32C772.814 51.9333 772.534 50.7467 771.974 49.76C771.414 48.7467 770.654 47.9733 769.694 47.44C768.76 46.9067 767.694 46.64 766.494 46.64C765.294 46.64 764.214 46.9067 763.254 47.44C762.294 47.9733 761.534 48.7467 760.974 49.76C760.414 50.7467 760.134 51.9333 760.134 53.32C760.134 54.68 760.414 55.8667 760.974 56.88C761.534 57.8933 762.294 58.6667 763.254 59.2C764.214 59.7333 765.294 60 766.494 60ZM794.475 64.28C792.742 64.28 791.155 63.88 789.715 63.08C788.302 62.28 787.169 61.08 786.315 59.48C785.489 57.8533 785.075 55.8 785.075 53.32C785.075 50.8133 785.475 48.76 786.275 47.16C787.102 45.56 788.222 44.3733 789.635 43.6C791.049 42.8 792.662 42.4 794.475 42.4C796.582 42.4 798.435 42.8533 800.035 43.76C801.662 44.6667 802.942 45.9333 803.875 47.56C804.835 49.1867 805.315 51.1067 805.315 53.32C805.315 55.5333 804.835 57.4667 803.875 59.12C802.942 60.7467 801.662 62.0133 800.035 62.92C798.435 63.8267 796.582 64.28 794.475 64.28ZM782.635 71.76V42.64H787.395V47.68L787.235 53.36L787.635 59.04V71.76H782.635ZM793.915 60C795.115 60 796.182 59.7333 797.115 59.2C798.075 58.6667 798.835 57.8933 799.395 56.88C799.955 55.8667 800.235 54.68 800.235 53.32C800.235 51.9333 799.955 50.7467 799.395 49.76C798.835 48.7467 798.075 47.9733 797.115 47.44C796.182 46.9067 795.115 46.64 793.915 46.64C792.715 46.64 791.635 46.9067 790.675 47.44C789.715 47.9733 788.955 48.7467 788.395 49.76C787.835 50.7467 787.555 51.9333 787.555 53.32C787.555 54.68 787.835 55.8667 788.395 56.88C788.955 57.8933 789.715 58.6667 790.675 59.2C791.635 59.7333 792.715 60 793.915 60Z" fill="white"/>
</svg>
