<svg width="1080" height="242" viewBox="0 0 1080 242" fill="none" xmlns="http://www.w3.org/2000/svg">
<path d="M0 142C0 197.228 44.7715 242 100 242H980C1035.23 242 1080 197.228 1080 142V0H0V142Z" fill="#546C8B"/>
<path fill-rule="evenodd" clip-rule="evenodd" d="M506.648 130.726C506.648 127.563 509.212 125 512.374 125H525.257V136.451H518.1V143.608H536.708V173.667H512.374C509.212 173.667 506.648 171.104 506.648 167.942V162.216H525.257V155.059H506.648V130.726ZM573.924 136.451H555.316V173.667H543.865V136.451H532.413V125H573.924V136.451ZM586.448 173.667C589.611 173.667 592.174 171.104 592.174 167.942V125H580.723V162.216H573.924V143.608H562.473V167.942C562.473 171.104 565.036 173.667 568.198 173.667H586.448ZM599.331 173.667H623.665C626.827 173.667 629.39 171.104 629.39 167.942V130.726C629.39 127.563 626.827 125 623.665 125H599.331V173.667ZM617.939 162.216H610.782V136.451H617.939V162.216ZM660.881 173.667C657.719 173.667 655.155 171.104 655.155 167.942V130.726C655.155 127.563 657.719 125 660.881 125H679.489C682.651 125 685.214 127.563 685.214 130.726V167.942C685.214 171.104 682.651 173.667 679.489 173.667H660.881ZM666.606 162.216H673.763V136.451H666.606V162.216ZM636.547 173.667H647.998V125H636.547V173.667Z" fill="white"/>
<path fill-rule="evenodd" clip-rule="evenodd" d="M425.059 125V136.451H406.451V143.608H425.059V155.059H406.451V162.216H425.059V173.667H400.726C397.563 173.667 395 171.104 395 167.942V130.726C395 127.563 397.563 125 400.726 125H425.059ZM450.824 125V155.059H469.432V173.667H475.158C478.32 173.667 480.883 171.104 480.883 167.942L480.884 157.085C480.884 156.474 481.039 155.873 481.333 155.338C481.628 154.802 482.053 154.349 482.571 154.02L487.004 151.196C488.39 150.314 488.385 148.296 486.993 147.42L482.586 144.646C482.065 144.318 481.635 143.863 481.337 143.326C481.04 142.788 480.884 142.184 480.883 141.571V141.57V130.726C480.883 127.563 478.32 125 475.158 125H450.824ZM469.432 136.451H462.275V143.608H469.432V136.451ZM432.216 167.942C432.216 171.104 434.78 173.667 437.942 173.667H462.275V162.216H443.667V125H437.942C434.78 125 432.216 127.563 432.216 130.726V167.942ZM493.766 173.667C496.928 173.667 499.491 171.104 499.491 167.942V130.726C499.491 127.563 496.928 125 493.766 125H488.04V139.961C489.684 140.377 491.201 141.23 492.42 142.449C494.198 144.228 495.197 146.64 495.197 149.155C495.197 151.67 494.198 154.082 492.42 155.86C491.201 157.079 489.684 157.932 488.04 158.348V173.667H493.766Z" fill="white"/>
<path d="M395.243 100V76.6615H386.04V71.2378H411.104V76.6615H401.9V100H395.243ZM420.807 82.8249H434.654V88.0021H420.807V82.8249ZM421.3 94.6585H436.955V100H414.685V71.2378H436.421V76.5794H421.3V94.6585ZM442.252 100V71.2378H447.758L460.002 91.5357H457.085L469.124 71.2378H474.589L474.671 100H468.425L468.384 80.8115H469.535L459.92 96.9594H456.92L447.1 80.8115H448.497V100H442.252ZM481.495 100V71.2378H493.945C496.519 71.2378 498.738 71.6624 500.601 72.5116C502.464 73.3333 503.902 74.5249 504.915 76.0863C505.929 77.6477 506.436 79.5104 506.436 81.6744C506.436 83.811 505.929 85.66 504.915 87.2214C503.902 88.7827 502.464 89.988 500.601 90.8372C498.738 91.659 496.519 92.0699 493.945 92.0699H485.193L488.151 89.0704V100H481.495ZM488.151 89.81L485.193 86.6461H493.575C495.629 86.6461 497.163 86.2078 498.177 85.3313C499.19 84.4547 499.697 83.2358 499.697 81.6744C499.697 80.0856 499.19 78.8529 498.177 77.9764C497.163 77.0998 495.629 76.6615 493.575 76.6615H485.193L488.151 73.4977V89.81ZM511.188 100V71.2378H517.844V94.5763H532.266V100H511.188ZM532.366 100L545.186 71.2378H551.76L564.621 100H557.635L547.117 74.6071H549.746L539.187 100H532.366ZM538.776 93.8367L540.543 88.7827H555.335L557.142 93.8367H538.776ZM572.118 100V76.6615H562.914V71.2378H587.978V76.6615H578.774V100H572.118ZM597.682 82.8249H611.529V88.0021H597.682V82.8249ZM598.175 94.6585H613.83V100H591.56V71.2378H613.296V76.5794H598.175V94.6585ZM630.763 100V71.2378H644.815C648.431 71.2378 651.143 71.9226 652.951 73.2923C654.786 74.6619 655.704 76.4698 655.704 78.716C655.704 80.2226 655.334 81.5374 654.594 82.6605C653.855 83.7562 652.841 84.6054 651.554 85.208C650.266 85.8107 648.787 86.112 647.116 86.112L647.897 84.4273C649.705 84.4273 651.307 84.7286 652.704 85.3313C654.101 85.9065 655.183 86.7694 655.95 87.9199C656.745 89.0704 657.142 90.4811 657.142 92.152C657.142 94.6174 656.169 96.5485 654.224 97.9456C652.28 99.3152 649.417 100 645.637 100H630.763ZM637.378 94.9872H645.144C646.87 94.9872 648.171 94.7132 649.047 94.1654C649.951 93.5901 650.403 92.6862 650.403 91.4535C650.403 90.2482 649.951 89.358 649.047 88.7827C648.171 88.1801 646.87 87.8788 645.144 87.8788H636.885V83.0303H643.993C645.609 83.0303 646.842 82.7564 647.691 82.2085C648.568 81.6333 649.006 80.7704 649.006 79.6199C649.006 78.4968 648.568 77.6614 647.691 77.1135C646.842 76.5383 645.609 76.2506 643.993 76.2506H637.378V94.9872ZM668.729 100V88.2486L670.249 92.2753L657.594 71.2378H664.661L674.358 87.3857H670.29L680.028 71.2378H686.561L673.906 92.2753L675.385 88.2486V100H668.729ZM689.754 85.5778C688.658 85.5778 687.713 85.208 686.919 84.4684C686.152 83.7014 685.768 82.729 685.768 81.5511C685.768 80.3732 686.152 79.4282 686.919 78.716C687.713 77.9764 688.658 77.6066 689.754 77.6066C690.877 77.6066 691.822 77.9764 692.589 78.716C693.356 79.4282 693.739 80.3732 693.739 81.5511C693.739 82.729 693.356 83.7014 692.589 84.4684C691.822 85.208 690.877 85.5778 689.754 85.5778ZM689.754 100.329C688.658 100.329 687.713 99.9589 686.919 99.2193C686.152 98.4523 685.768 97.4799 685.768 96.302C685.768 95.1241 686.152 94.1791 686.919 93.4669C687.713 92.7273 688.658 92.3575 689.754 92.3575C690.877 92.3575 691.822 92.7273 692.589 93.4669C693.356 94.1791 693.739 95.1241 693.739 96.302C693.739 97.4799 693.356 98.4523 692.589 99.2193C691.822 99.9589 690.877 100.329 689.754 100.329Z" fill="white"/>
</svg>
