<svg width="1080" height="382" viewBox="0 0 1080 382" fill="none" xmlns="http://www.w3.org/2000/svg">
<rect width="1080" height="382" fill="white"/>
<path d="M275.093 187V146.685H292.544C296.153 146.685 299.263 147.28 301.874 148.471C304.484 149.622 306.5 151.293 307.921 153.481C309.341 155.67 310.052 158.281 310.052 161.314C310.052 164.309 309.341 166.9 307.921 169.089C306.5 171.277 304.484 172.967 301.874 174.157C299.263 175.309 296.153 175.885 292.544 175.885H280.276L284.423 171.68V187H275.093ZM284.423 172.717L280.276 168.282H292.025C294.905 168.282 297.055 167.668 298.476 166.439C299.896 165.211 300.607 163.502 300.607 161.314C300.607 159.087 299.896 157.359 298.476 156.13C297.055 154.902 294.905 154.287 292.025 154.287H280.276L284.423 149.853V172.717ZM316.713 187V146.685H326.043V187H316.713ZM335.61 187V146.685H344.94V179.398H365.155V187H335.61ZM370.368 187V146.685H379.698V187H370.368ZM416.91 146.685H426.24V187H416.91V146.685ZM398.596 187H389.266V146.685H398.596V187ZM417.601 170.471H397.905V162.581H417.601V170.471ZM452.089 187V146.685H470.403C474.78 146.685 478.639 147.53 481.979 149.219C485.32 150.87 487.931 153.193 489.812 156.188C491.693 159.183 492.634 162.734 492.634 166.843C492.634 170.912 491.693 174.464 489.812 177.497C487.931 180.492 485.32 182.834 481.979 184.524C478.639 186.175 474.78 187 470.403 187H452.089ZM461.419 179.34H469.943C472.63 179.34 474.953 178.841 476.911 177.843C478.908 176.806 480.444 175.347 481.519 173.466C482.632 171.584 483.189 169.377 483.189 166.843C483.189 164.27 482.632 162.062 481.519 160.219C480.444 158.338 478.908 156.898 476.911 155.9C474.953 154.863 472.63 154.345 469.943 154.345H461.419V179.34ZM493.809 187L511.778 146.685H520.993L539.019 187H529.229L514.485 151.408H518.171L503.37 187H493.809ZM502.794 178.361L505.27 171.277H526.003L528.538 178.361H502.794ZM543.202 187V146.685H550.919L574.705 175.712H570.962V146.685H580.176V187H572.517L548.673 157.973H552.417V187H543.202ZM606.025 187V146.685H623.476C627.085 146.685 630.195 147.28 632.806 148.471C635.417 149.622 637.432 151.293 638.853 153.481C640.273 155.67 640.984 158.281 640.984 161.314C640.984 164.309 640.273 166.9 638.853 169.089C637.432 171.277 635.417 172.967 632.806 174.157C630.195 175.309 627.085 175.885 623.476 175.885H611.208L615.355 171.68V187H606.025ZM615.355 172.717L611.208 168.282H622.957C625.837 168.282 627.987 167.668 629.408 166.439C630.828 165.211 631.539 163.502 631.539 161.314C631.539 159.087 630.828 157.359 629.408 156.13C627.987 154.902 625.837 154.287 622.957 154.287H611.208L615.355 149.853V172.717ZM656.226 162.926H675.635V170.183H656.226V162.926ZM656.917 179.513H678.86V187H647.645V146.685H678.111V154.172H656.917V179.513ZM699.53 187.691C696.305 187.691 693.214 187.269 690.257 186.424C687.301 185.541 684.92 184.408 683.116 183.026L686.283 176C688.011 177.228 690.046 178.246 692.388 179.052C694.769 179.82 697.168 180.204 699.587 180.204C701.43 180.204 702.909 180.031 704.022 179.686C705.174 179.302 706.019 178.783 706.556 178.131C707.094 177.478 707.362 176.729 707.362 175.885C707.362 174.81 706.94 173.965 706.095 173.351C705.251 172.698 704.137 172.18 702.755 171.796C701.373 171.373 699.837 170.989 698.148 170.644C696.497 170.26 694.826 169.799 693.137 169.261C691.486 168.724 689.969 168.033 688.587 167.188C687.205 166.343 686.072 165.23 685.189 163.848C684.345 162.466 683.922 160.699 683.922 158.549C683.922 156.246 684.537 154.153 685.765 152.272C687.032 150.352 688.914 148.835 691.409 147.722C693.943 146.57 697.111 145.994 700.912 145.994C703.446 145.994 705.942 146.301 708.399 146.916C710.856 147.492 713.026 148.375 714.907 149.565L712.027 156.649C710.146 155.574 708.265 154.787 706.383 154.287C704.502 153.75 702.659 153.481 700.854 153.481C699.05 153.481 697.572 153.692 696.42 154.115C695.268 154.537 694.442 155.094 693.943 155.785C693.444 156.438 693.195 157.205 693.195 158.089C693.195 159.125 693.617 159.97 694.462 160.623C695.306 161.237 696.42 161.736 697.802 162.12C699.184 162.504 700.701 162.888 702.352 163.272C704.041 163.656 705.711 164.097 707.362 164.597C709.052 165.096 710.588 165.768 711.97 166.612C713.352 167.457 714.465 168.57 715.31 169.953C716.193 171.335 716.635 173.082 716.635 175.194C716.635 177.459 716.001 179.532 714.734 181.414C713.467 183.295 711.567 184.811 709.033 185.963C706.537 187.115 703.369 187.691 699.53 187.691ZM717.711 187L735.68 146.685H744.895L762.922 187H753.131L738.387 151.408H742.073L727.272 187H717.711ZM726.696 178.361L729.172 171.277H749.906L752.44 178.361H726.696ZM767.104 187V146.685H774.822L798.607 175.712H794.864V146.685H804.079V187H796.419L772.576 157.973H776.319V187H767.104ZM197.171 253L179.778 212.685H189.857L205.061 248.393H199.129L214.564 212.685H223.836L206.386 253H197.171ZM220.554 253L238.523 212.685H247.738L265.764 253H255.973L241.23 217.408H244.916L230.114 253H220.554ZM229.538 244.361L232.015 237.277H252.748L255.282 244.361H229.538ZM269.947 253V212.685H287.397C291.006 212.685 294.116 213.28 296.727 214.471C299.338 215.622 301.354 217.293 302.775 219.481C304.195 221.67 304.905 224.281 304.905 227.314C304.905 230.309 304.195 232.9 302.775 235.089C301.354 237.239 299.338 238.89 296.727 240.042C294.116 241.194 291.006 241.769 287.397 241.769H275.13L279.277 237.68V253H269.947ZM295.575 253L285.497 238.371H295.46L305.654 253H295.575ZM279.277 238.717L275.13 234.34H286.879C289.759 234.34 291.909 233.726 293.329 232.497C294.75 231.23 295.46 229.502 295.46 227.314C295.46 225.087 294.75 223.359 293.329 222.13C291.909 220.902 289.759 220.287 286.879 220.287H275.13L279.277 215.853V238.717ZM312.298 253V212.685H321.628V253H312.298ZM325.897 253L343.865 212.685H353.08L371.107 253H361.316L346.572 217.408H350.258L335.457 253H325.897ZM334.881 244.361L337.358 237.277H358.091L360.625 244.361H334.881ZM375.289 253V212.685H383.007L406.793 241.712H403.049V212.685H412.264V253H404.604L380.761 223.973H384.504V253H375.289ZM446.463 253V220.287H433.563V212.685H468.694V220.287H455.793V253H446.463ZM482.295 228.926H501.704V236.183H482.295V228.926ZM482.987 245.513H504.929V253H473.714V212.685H504.181V220.172H482.987V245.513ZM512.353 253V212.685H520.07L537.233 241.136H533.144L550.018 212.685H557.678L557.793 253H549.039L548.982 226.104H550.594L537.118 248.738H532.913L519.149 226.104H521.107V253H512.353ZM567.358 253V212.685H584.809C588.418 212.685 591.528 213.28 594.139 214.471C596.75 215.622 598.765 217.293 600.186 219.481C601.607 221.67 602.317 224.281 602.317 227.314C602.317 230.309 601.607 232.9 600.186 235.089C598.765 237.277 596.75 238.967 594.139 240.157C591.528 241.309 588.418 241.885 584.809 241.885H572.542L576.688 237.68V253H567.358ZM576.688 238.717L572.542 234.282H584.29C587.17 234.282 589.32 233.668 590.741 232.439C592.161 231.211 592.872 229.502 592.872 227.314C592.872 225.087 592.161 223.359 590.741 222.13C589.32 220.902 587.17 220.287 584.29 220.287H572.542L576.688 215.853V238.717ZM608.978 253V212.685H618.308V245.398H638.523V253H608.978ZM638.662 253L656.631 212.685H665.846L683.872 253H674.082L659.338 217.408H663.024L648.223 253H638.662ZM647.647 244.361L650.123 237.277H670.857L673.391 244.361H647.647ZM694.381 253V220.287H681.481V212.685H716.612V220.287H703.711V253H694.381ZM730.213 228.926H749.622V236.183H730.213V228.926ZM730.904 245.513H752.847V253H721.632V212.685H752.098V220.172H730.904V245.513ZM760.271 253V212.685H767.988L791.774 241.712H788.03V212.685H797.245V253H789.585L765.742 223.973H769.486V253H760.271ZM816.805 253V236.529L818.936 242.173L801.197 212.685H811.103L824.695 235.319H818.993L832.643 212.685H841.8L824.061 242.173L826.135 236.529V253H816.805ZM837.93 253L855.899 212.685H865.114L883.14 253H873.35L858.606 217.408H862.292L847.491 253H837.93ZM846.915 244.361L849.391 237.277H870.124L872.659 244.361H846.915ZM331.983 319V278.685H350.297C354.674 278.685 358.533 279.53 361.873 281.219C365.213 282.87 367.824 285.193 369.706 288.188C371.587 291.183 372.528 294.734 372.528 298.843C372.528 302.912 371.587 306.464 369.706 309.497C367.824 312.492 365.213 314.834 361.873 316.524C358.533 318.175 354.674 319 350.297 319H331.983ZM341.313 311.34H349.836C352.524 311.34 354.847 310.841 356.805 309.843C358.801 308.806 360.337 307.347 361.412 305.466C362.526 303.584 363.082 301.377 363.082 298.843C363.082 296.27 362.526 294.062 361.412 292.219C360.337 290.338 358.801 288.898 356.805 287.9C354.847 286.863 352.524 286.345 349.836 286.345H341.313V311.34ZM379.564 319V278.685H388.894V319H379.564ZM414.772 319V278.685H434.468C439.537 278.685 443.338 279.645 445.872 281.565C448.444 283.485 449.73 286.019 449.73 289.167C449.73 291.279 449.212 293.122 448.175 294.696C447.139 296.232 445.718 297.422 443.914 298.267C442.109 299.111 440.036 299.534 437.694 299.534L438.788 297.172C441.322 297.172 443.568 297.595 445.526 298.439C447.484 299.246 449.001 300.455 450.076 302.068C451.189 303.68 451.746 305.658 451.746 308C451.746 311.455 450.383 314.162 447.657 316.12C444.931 318.04 440.919 319 435.62 319H414.772ZM424.044 311.974H434.929C437.348 311.974 439.172 311.59 440.4 310.822C441.667 310.016 442.301 308.749 442.301 307.021C442.301 305.331 441.667 304.084 440.4 303.277C439.172 302.433 437.348 302.01 434.929 302.01H423.353V295.214H433.317C435.582 295.214 437.31 294.83 438.5 294.062C439.729 293.256 440.343 292.047 440.343 290.434C440.343 288.86 439.729 287.689 438.5 286.921C437.31 286.115 435.582 285.712 433.317 285.712H424.044V311.974ZM453.511 319L471.48 278.685H480.695L498.721 319H488.931L474.187 283.408H477.873L463.072 319H453.511ZM462.496 310.361L464.972 303.277H485.706L488.24 310.361H462.496ZM510.386 319L497.197 278.685H506.873L518.334 314.393H513.496L525.475 278.685H534.114L545.633 314.393H540.968L552.717 278.685H561.644L548.455 319H538.434L528.24 287.67H530.889L520.407 319H510.386ZM560.204 319L578.173 278.685H587.387L605.414 319H595.623L580.879 283.408H584.565L569.764 319H560.204ZM569.188 310.361L571.665 303.277H592.398L594.932 310.361H569.188ZM637.241 278.685H646.571V319H637.241V278.685ZM618.927 319H609.597V278.685H618.927V319ZM637.932 302.471H618.235V294.581H637.932V302.471ZM672.42 319V278.685H681.75V319H672.42ZM691.317 319V278.685H699.035L722.82 307.712H719.077V278.685H728.292V319H720.632L696.788 289.973H700.532V319H691.317ZM737.83 319V278.685H747.16V319H737.83Z" fill="#212121"/>
<path fill-rule="evenodd" clip-rule="evenodd" d="M1080 0H0V60H491.03C493.677 60.5257 496.239 61.4647 498.622 62.7929C502.493 64.9502 505.768 68.0646 508.146 71.8492L528.545 104.299C534.92 114.448 549.499 114.408 555.823 104.22L575.87 71.963C578.24 68.145 581.521 65 585.407 62.8208C587.798 61.4794 590.371 60.5309 593.031 60H1080V0Z" fill="url(#paint0_linear_374_1406)"/>
<defs>
<linearGradient id="paint0_linear_374_1406" x1="540" y1="0" x2="540" y2="111.886" gradientUnits="userSpaceOnUse">
<stop offset="0.232926" stop-color="#F1F1F1"/>
<stop offset="1" stop-color="#D8D8D8"/>
</linearGradient>
</defs>
</svg>
