<svg width="1080" height="628" viewBox="0 0 1080 628" fill="none" xmlns="http://www.w3.org/2000/svg">
<rect width="1080" height="628" fill="#F1F1F1"/>
<rect x="111" y="352" width="858" height="276" fill="#D9D9D9"/>
<rect x="47" y="207" width="986" height="145" fill="#1E1E1E"/>
<path d="M116.633 303V255.493H137.197C141.45 255.493 145.115 256.194 148.192 257.596C151.268 258.954 153.644 260.922 155.318 263.501C156.992 266.08 157.829 269.157 157.829 272.731C157.829 276.26 156.992 279.314 155.318 281.893C153.644 284.472 151.268 286.463 148.192 287.865C145.115 289.223 141.45 289.902 137.197 289.902H122.741L127.628 284.947V303H116.633ZM127.628 286.169L122.741 280.943H136.586C139.98 280.943 142.513 280.219 144.187 278.771C145.861 277.323 146.698 275.31 146.698 272.731C146.698 270.107 145.861 268.071 144.187 266.623C142.513 265.175 139.98 264.451 136.586 264.451H122.741L127.628 259.225V286.169ZM175.79 274.631H198.662V283.183H175.79V274.631ZM176.605 294.177H202.462V303H165.678V255.493H201.58V264.315H176.605V294.177ZM226.82 303.814C223.02 303.814 219.377 303.317 215.893 302.321C212.41 301.281 209.604 299.946 207.478 298.317L211.211 290.037C213.247 291.485 215.645 292.684 218.405 293.634C221.21 294.539 224.038 294.992 226.888 294.992C229.06 294.992 230.802 294.788 232.114 294.381C233.471 293.928 234.467 293.318 235.1 292.548C235.733 291.779 236.05 290.897 236.05 289.902C236.05 288.635 235.552 287.639 234.557 286.915C233.562 286.146 232.25 285.535 230.621 285.083C228.992 284.585 227.182 284.133 225.191 283.726C223.246 283.273 221.278 282.73 219.287 282.097C217.341 281.463 215.554 280.649 213.925 279.653C212.296 278.658 210.962 277.346 209.921 275.717C208.926 274.088 208.428 272.007 208.428 269.473C208.428 266.759 209.152 264.293 210.6 262.076C212.093 259.813 214.31 258.026 217.251 256.714C220.237 255.357 223.97 254.678 228.449 254.678C231.435 254.678 234.376 255.04 237.272 255.764C240.167 256.443 242.724 257.483 244.941 258.886L241.547 267.234C239.33 265.967 237.113 265.039 234.896 264.451C232.679 263.818 230.508 263.501 228.381 263.501C226.255 263.501 224.513 263.75 223.155 264.247C221.798 264.745 220.825 265.401 220.237 266.216C219.649 266.985 219.355 267.89 219.355 268.93C219.355 270.152 219.852 271.147 220.848 271.917C221.843 272.64 223.155 273.229 224.784 273.681C226.413 274.134 228.2 274.586 230.146 275.038C232.136 275.491 234.105 276.011 236.05 276.599C238.041 277.188 239.851 277.979 241.48 278.975C243.108 279.97 244.421 281.282 245.416 282.911C246.457 284.54 246.977 286.599 246.977 289.087C246.977 291.757 246.23 294.2 244.737 296.417C243.244 298.634 241.004 300.421 238.018 301.778C235.077 303.136 231.345 303.814 226.82 303.814ZM248.246 303L269.42 255.493H280.279L301.522 303H289.984L272.61 261.058H276.954L259.512 303H248.246ZM258.833 292.82L261.751 284.472H286.184L289.17 292.82H258.833ZM306.451 303V255.493H315.545L343.574 289.698H339.163V255.493H350.022V303H340.996L312.898 268.795H317.31V303H306.451ZM390.323 303V264.451H375.121V255.493H416.52V264.451H401.318V303H390.323ZM432.548 274.631H455.42V283.183H432.548V274.631ZM433.363 294.177H459.22V303H422.436V255.493H458.338V264.315H433.363V294.177ZM467.968 303V255.493H477.063L497.287 289.019H492.469L512.354 255.493H521.38L521.516 303H511.2L511.132 271.306H513.032L497.151 297.978H492.197L475.977 271.306H478.284V303H467.968ZM532.787 303V255.493H553.351C557.604 255.493 561.269 256.194 564.346 257.596C567.422 258.954 569.798 260.922 571.472 263.501C573.146 266.08 573.983 269.157 573.983 272.731C573.983 276.26 573.146 279.314 571.472 281.893C569.798 284.472 567.422 286.463 564.346 287.865C561.269 289.223 557.604 289.902 553.351 289.902H538.895L543.782 284.947V303H532.787ZM543.782 286.169L538.895 280.943H552.74C556.134 280.943 558.668 280.219 560.342 278.771C562.016 277.323 562.853 275.31 562.853 272.731C562.853 270.107 562.016 268.071 560.342 266.623C558.668 265.175 556.134 264.451 552.74 264.451H538.895L543.782 259.225V286.169ZM581.832 303V255.493H592.827V294.041H616.649V303H581.832ZM616.813 303L637.988 255.493H648.847L670.089 303H658.552L641.177 261.058H645.521L628.079 303H616.813ZM627.4 292.82L630.319 284.472H654.751L657.737 292.82H627.4ZM682.473 303V264.451H667.27V255.493H708.67V264.451H693.467V303H682.473ZM724.698 274.631H747.569V283.183H724.698V274.631ZM725.512 294.177H751.37V303H714.585V255.493H750.488V264.315H725.512V294.177ZM794.948 303.814C791.147 303.814 787.505 303.317 784.021 302.321C780.537 301.281 777.732 299.946 775.606 298.317L779.338 290.037C781.374 291.485 783.772 292.684 786.532 293.634C789.337 294.539 792.165 294.992 795.016 294.992C797.188 294.992 798.929 294.788 800.242 294.381C801.599 293.928 802.594 293.318 803.228 292.548C803.861 291.779 804.178 290.897 804.178 289.902C804.178 288.635 803.68 287.639 802.685 286.915C801.689 286.146 800.377 285.535 798.748 285.083C797.12 284.585 795.31 284.133 793.319 283.726C791.374 283.273 789.405 282.73 787.415 282.097C785.469 281.463 783.682 280.649 782.053 279.653C780.424 278.658 779.089 277.346 778.049 275.717C777.053 274.088 776.556 272.007 776.556 269.473C776.556 266.759 777.28 264.293 778.727 262.076C780.221 259.813 782.438 258.026 785.379 256.714C788.365 255.357 792.097 254.678 796.577 254.678C799.563 254.678 802.504 255.04 805.4 255.764C808.295 256.443 810.852 257.483 813.069 258.886L809.675 267.234C807.458 265.967 805.241 265.039 803.024 264.451C800.807 263.818 798.635 263.501 796.509 263.501C794.382 263.501 792.64 263.75 791.283 264.247C789.926 264.745 788.953 265.401 788.365 266.216C787.777 266.985 787.482 267.89 787.482 268.93C787.482 270.152 787.98 271.147 788.976 271.917C789.971 272.64 791.283 273.229 792.912 273.681C794.541 274.134 796.328 274.586 798.273 275.038C800.264 275.491 802.232 276.011 804.178 276.599C806.169 277.188 807.979 277.979 809.607 278.975C811.236 279.97 812.548 281.282 813.544 282.911C814.584 284.54 815.105 286.599 815.105 289.087C815.105 291.757 814.358 294.2 812.865 296.417C811.372 298.634 809.132 300.421 806.146 301.778C803.205 303.136 799.472 303.814 794.948 303.814ZM816.373 303L837.548 255.493H848.407L869.65 303H858.112L840.738 261.058H845.082L827.639 303H816.373ZM826.961 292.82L829.879 284.472H854.312L857.298 292.82H826.961ZM884.328 303.814C881.115 303.814 878.152 303.226 875.437 302.05C872.768 300.828 870.573 299.109 868.854 296.892L874.962 289.562C876.274 291.281 877.654 292.594 879.102 293.499C880.55 294.358 882.111 294.788 883.785 294.788C888.264 294.788 890.504 292.164 890.504 286.915V264.315H873.808V255.493H901.43V286.305C901.43 292.186 899.983 296.575 897.087 299.471C894.191 302.367 889.938 303.814 884.328 303.814ZM905.052 303L926.227 255.493H937.086L958.329 303H946.791L929.417 261.058H933.76L916.318 303H905.052ZM915.64 292.82L918.558 284.472H942.99L945.977 292.82H915.64Z" fill="#E6E6E6"/>
<path d="M311.045 528V460.1H340.436C346.515 460.1 351.753 461.102 356.15 463.107C360.547 465.047 363.942 467.86 366.335 471.546C368.728 475.232 369.924 479.629 369.924 484.738C369.924 489.782 368.728 494.147 366.335 497.833C363.942 501.454 360.547 504.235 356.15 506.175C351.753 508.115 346.515 509.085 340.436 509.085H319.775L326.759 502.198V528H311.045ZM354.21 528L337.235 503.362H354.016L371.185 528H354.21ZM326.759 503.944L319.775 496.572H339.563C344.413 496.572 348.034 495.537 350.427 493.468C352.82 491.334 354.016 488.424 354.016 484.738C354.016 480.987 352.82 478.077 350.427 476.008C348.034 473.939 344.413 472.904 339.563 472.904H319.775L326.759 465.435V503.944ZM412.153 528.776C407.756 528.776 403.908 527.806 400.61 525.866C397.312 523.926 394.726 520.984 392.85 517.039C391.04 513.03 390.134 507.986 390.134 501.907C390.134 495.764 391.007 490.72 392.753 486.775C394.499 482.83 397.021 479.888 400.319 477.948C403.617 476.008 407.562 475.038 412.153 475.038C417.068 475.038 421.465 476.17 425.345 478.433C429.29 480.632 432.394 483.736 434.657 487.745C436.985 491.754 438.149 496.475 438.149 501.907C438.149 507.404 436.985 512.157 434.657 516.166C432.394 520.175 429.29 523.279 425.345 525.478C421.465 527.677 417.068 528.776 412.153 528.776ZM381.307 546.818V475.814H395.76V486.484L395.469 502.004L396.439 517.427V546.818H381.307ZM409.534 516.36C412.056 516.36 414.287 515.778 416.227 514.614C418.232 513.45 419.816 511.801 420.98 509.667C422.209 507.468 422.823 504.882 422.823 501.907C422.823 498.868 422.209 496.281 420.98 494.147C419.816 492.013 418.232 490.364 416.227 489.2C414.287 488.036 412.056 487.454 409.534 487.454C407.012 487.454 404.749 488.036 402.744 489.2C400.74 490.364 399.155 492.013 397.991 494.147C396.827 496.281 396.245 498.868 396.245 501.907C396.245 504.882 396.827 507.468 397.991 509.667C399.155 511.801 400.74 513.45 402.744 514.614C404.749 515.778 407.012 516.36 409.534 516.36ZM453.339 528.776C450.752 528.776 448.521 527.903 446.646 526.157C444.835 524.346 443.93 522.051 443.93 519.27C443.93 516.489 444.835 514.258 446.646 512.577C448.521 510.831 450.752 509.958 453.339 509.958C455.99 509.958 458.221 510.831 460.032 512.577C461.843 514.258 462.748 516.489 462.748 519.27C462.748 522.051 461.843 524.346 460.032 526.157C458.221 527.903 455.99 528.776 453.339 528.776ZM496.496 513.741V503.168L528.506 460.1H544.996L513.665 503.168L506.002 500.937H559.449V513.741H496.496ZM533.065 528V513.741L533.55 500.937V488.23H548.391V528H533.065ZM574.968 528.776C572.381 528.776 570.15 527.903 568.275 526.157C566.464 524.346 565.559 522.051 565.559 519.27C565.559 516.489 566.464 514.258 568.275 512.577C570.15 510.831 572.381 509.958 574.968 509.958C577.619 509.958 579.85 510.831 581.661 512.577C583.471 514.258 584.377 516.489 584.377 519.27C584.377 522.051 583.471 524.346 581.661 526.157C579.85 527.903 577.619 528.776 574.968 528.776ZM614.516 529.164C609.796 529.164 605.107 528.55 600.451 527.321C595.86 526.028 591.915 524.217 588.617 521.889L594.825 509.861C597.412 511.736 600.387 513.224 603.749 514.323C607.177 515.422 610.636 515.972 614.128 515.972C618.073 515.972 621.177 515.196 623.44 513.644C625.704 512.092 626.835 509.926 626.835 507.145C626.835 505.399 626.383 503.847 625.477 502.489C624.572 501.131 622.955 500.096 620.627 499.385C618.364 498.674 615.163 498.318 611.024 498.318H593.661L597.153 460.1H638.572V472.71H602.779L610.927 465.532L608.502 492.789L600.354 485.611H614.71C621.436 485.611 626.835 486.549 630.909 488.424C635.048 490.235 638.055 492.724 639.93 495.893C641.806 499.062 642.743 502.651 642.743 506.66C642.743 510.669 641.741 514.388 639.736 517.815C637.732 521.178 634.628 523.926 630.424 526.06C626.286 528.129 620.983 529.164 614.516 529.164ZM678.219 529.164C672.658 529.164 667.678 527.806 663.281 525.09C658.884 522.309 655.424 518.3 652.902 513.062C650.38 507.824 649.119 501.487 649.119 494.05C649.119 486.613 650.38 480.276 652.902 475.038C655.424 469.8 658.884 465.823 663.281 463.107C667.678 460.326 672.658 458.936 678.219 458.936C683.845 458.936 688.824 460.326 693.157 463.107C697.554 465.823 701.014 469.8 703.536 475.038C706.058 480.276 707.319 486.613 707.319 494.05C707.319 501.487 706.058 507.824 703.536 513.062C701.014 518.3 697.554 522.309 693.157 525.09C688.824 527.806 683.845 529.164 678.219 529.164ZM678.219 515.875C680.87 515.875 683.166 515.131 685.106 513.644C687.111 512.157 688.663 509.796 689.762 506.563C690.926 503.33 691.508 499.159 691.508 494.05C691.508 488.941 690.926 484.77 689.762 481.537C688.663 478.304 687.111 475.943 685.106 474.456C683.166 472.969 680.87 472.225 678.219 472.225C675.632 472.225 673.337 472.969 671.332 474.456C669.392 475.943 667.84 478.304 666.676 481.537C665.577 484.77 665.027 488.941 665.027 494.05C665.027 499.159 665.577 503.33 666.676 506.563C667.84 509.796 669.392 512.157 671.332 513.644C673.337 515.131 675.632 515.875 678.219 515.875ZM744.054 529.164C738.493 529.164 733.513 527.806 729.116 525.09C724.719 522.309 721.259 518.3 718.737 513.062C716.215 507.824 714.954 501.487 714.954 494.05C714.954 486.613 716.215 480.276 718.737 475.038C721.259 469.8 724.719 465.823 729.116 463.107C733.513 460.326 738.493 458.936 744.054 458.936C749.68 458.936 754.659 460.326 758.992 463.107C763.389 465.823 766.849 469.8 769.371 475.038C771.893 480.276 773.154 486.613 773.154 494.05C773.154 501.487 771.893 507.824 769.371 513.062C766.849 518.3 763.389 522.309 758.992 525.09C754.659 527.806 749.68 529.164 744.054 529.164ZM744.054 515.875C746.705 515.875 749.001 515.131 750.941 513.644C752.946 512.157 754.498 509.796 755.597 506.563C756.761 503.33 757.343 499.159 757.343 494.05C757.343 488.941 756.761 484.77 755.597 481.537C754.498 478.304 752.946 475.943 750.941 474.456C749.001 472.969 746.705 472.225 744.054 472.225C741.467 472.225 739.172 472.969 737.167 474.456C735.227 475.943 733.675 478.304 732.511 481.537C731.412 484.77 730.862 488.941 730.862 494.05C730.862 499.159 731.412 503.33 732.511 506.563C733.675 509.796 735.227 512.157 737.167 513.644C739.172 515.131 741.467 515.875 744.054 515.875Z" fill="#9A2828"/>
<path d="M416.268 433V392.433H431.452C434.891 392.433 437.846 392.993 440.319 394.113C442.791 395.195 444.685 396.779 445.998 398.865C447.35 400.913 448.027 403.405 448.027 406.341C448.027 409.2 447.35 411.673 445.998 413.759C444.685 415.807 442.791 417.391 440.319 418.512C437.846 419.593 434.891 420.134 431.452 420.134H418.644L420.557 418.164V433H416.268ZM443.97 433L433.538 418.28H438.175L448.664 433H443.97ZM420.557 418.512L418.644 416.483H431.336C435.393 416.483 438.464 415.595 440.551 413.817C442.676 412.04 443.738 409.548 443.738 406.341C443.738 403.096 442.676 400.585 440.551 398.807C438.464 397.03 435.393 396.142 431.336 396.142H418.644L420.557 394.113V418.512ZM472.985 433.29C470.357 433.29 467.981 432.691 465.856 431.493C463.731 430.257 462.031 428.499 460.756 426.219C459.52 423.901 458.902 421.081 458.902 417.758C458.902 414.436 459.52 411.635 460.756 409.355C461.993 407.037 463.673 405.279 465.798 404.081C467.923 402.884 470.319 402.285 472.985 402.285C475.882 402.285 478.471 402.942 480.75 404.255C483.068 405.53 484.884 407.346 486.198 409.703C487.512 412.021 488.168 414.706 488.168 417.758C488.168 420.849 487.512 423.554 486.198 425.872C484.884 428.19 483.068 430.006 480.75 431.319C478.471 432.633 475.882 433.29 472.985 433.29ZM457.279 444.243V402.574H461.22V411.731L460.814 417.816L461.394 423.959V444.243H457.279ZM472.695 429.639C474.858 429.639 476.79 429.156 478.49 428.19C480.19 427.185 481.542 425.794 482.547 424.017C483.551 422.201 484.054 420.115 484.054 417.758C484.054 415.401 483.551 413.334 482.547 411.557C481.542 409.78 480.19 408.389 478.49 407.385C476.79 406.38 474.858 405.878 472.695 405.878C470.531 405.878 468.58 406.38 466.842 407.385C465.142 408.389 463.789 409.78 462.785 411.557C461.819 413.334 461.336 415.401 461.336 417.758C461.336 420.115 461.819 422.201 462.785 424.017C463.789 425.794 465.142 427.185 466.842 428.19C468.58 429.156 470.531 429.639 472.695 429.639ZM496.113 433.29C495.263 433.29 494.529 432.981 493.911 432.363C493.331 431.744 493.041 430.991 493.041 430.102C493.041 429.175 493.331 428.422 493.911 427.842C494.529 427.263 495.263 426.973 496.113 426.973C496.963 426.973 497.678 427.263 498.257 427.842C498.875 428.422 499.185 429.175 499.185 430.102C499.185 430.991 498.875 431.744 498.257 432.363C497.678 432.981 496.963 433.29 496.113 433.29ZM527.56 433L545.062 394.287L546.337 396.142H521.243L523.388 394.113V403.734H519.273V392.433H549.061V395.388L532.081 433H527.56ZM554.632 433.29C553.782 433.29 553.048 432.981 552.43 432.363C551.851 431.744 551.561 430.991 551.561 430.102C551.561 429.175 551.851 428.422 552.43 427.842C553.048 427.263 553.782 426.973 554.632 426.973C555.482 426.973 556.197 427.263 556.777 427.842C557.395 428.422 557.704 429.175 557.704 430.102C557.704 430.991 557.395 431.744 556.777 432.363C556.197 432.981 555.482 433.29 554.632 433.29ZM576.592 433.348C573.694 433.348 570.932 432.884 568.304 431.957C565.677 430.991 563.591 429.716 562.045 428.132L564.074 424.829C565.349 426.181 567.087 427.301 569.29 428.19C571.53 429.078 573.945 429.523 576.534 429.523C579.972 429.523 582.58 428.769 584.357 427.263C586.173 425.717 587.081 423.708 587.081 421.235C587.081 419.497 586.656 418.009 585.806 416.773C584.995 415.498 583.604 414.513 581.634 413.817C579.663 413.122 576.959 412.774 573.52 412.774H564.885L566.971 392.433H589.168V396.142H568.652L570.796 394.113L569 411.152L566.856 409.065H574.447C578.543 409.065 581.827 409.568 584.299 410.572C586.772 411.577 588.549 412.987 589.631 414.803C590.752 416.58 591.312 418.666 591.312 421.062C591.312 423.341 590.771 425.427 589.689 427.321C588.607 429.175 586.985 430.643 584.821 431.725C582.657 432.807 579.914 433.348 576.592 433.348ZM612.778 433.348C609.649 433.348 606.867 432.536 604.433 430.914C601.999 429.252 600.086 426.896 598.695 423.843C597.305 420.753 596.609 417.043 596.609 412.716C596.609 408.389 597.305 404.699 598.695 401.647C600.086 398.556 601.999 396.2 604.433 394.577C606.867 392.916 609.649 392.085 612.778 392.085C615.908 392.085 618.689 392.916 621.123 394.577C623.557 396.2 625.47 398.556 626.861 401.647C628.29 404.699 629.005 408.389 629.005 412.716C629.005 417.043 628.29 420.753 626.861 423.843C625.47 426.896 623.557 429.252 621.123 430.914C618.689 432.536 615.908 433.348 612.778 433.348ZM612.778 429.523C615.174 429.523 617.26 428.885 619.037 427.61C620.814 426.297 622.205 424.404 623.21 421.931C624.214 419.42 624.717 416.348 624.717 412.716C624.717 409.085 624.214 406.032 623.21 403.56C622.205 401.048 620.814 399.155 619.037 397.88C617.26 396.567 615.174 395.91 612.778 395.91C610.46 395.91 608.393 396.567 606.577 397.88C604.761 399.155 603.351 401.048 602.347 403.56C601.342 406.032 600.84 409.085 600.84 412.716C600.84 416.348 601.342 419.42 602.347 421.931C603.351 424.404 604.761 426.297 606.577 427.61C608.393 428.885 610.46 429.523 612.778 429.523ZM651.15 433.348C648.02 433.348 645.238 432.536 642.804 430.914C640.37 429.252 638.458 426.896 637.067 423.843C635.676 420.753 634.981 417.043 634.981 412.716C634.981 408.389 635.676 404.699 637.067 401.647C638.458 398.556 640.37 396.2 642.804 394.577C645.238 392.916 648.02 392.085 651.15 392.085C654.279 392.085 657.061 392.916 659.495 394.577C661.929 396.2 663.841 398.556 665.232 401.647C666.662 404.699 667.377 408.389 667.377 412.716C667.377 417.043 666.662 420.753 665.232 423.843C663.841 426.896 661.929 429.252 659.495 430.914C657.061 432.536 654.279 433.348 651.15 433.348ZM651.15 429.523C653.545 429.523 655.631 428.885 657.409 427.61C659.186 426.297 660.577 424.404 661.581 421.931C662.586 419.42 663.088 416.348 663.088 412.716C663.088 409.085 662.586 406.032 661.581 403.56C660.577 401.048 659.186 399.155 657.409 397.88C655.631 396.567 653.545 395.91 651.15 395.91C648.831 395.91 646.764 396.567 644.949 397.88C643.133 399.155 641.723 401.048 640.718 403.56C639.713 406.032 639.211 409.085 639.211 412.716C639.211 416.348 639.713 419.42 640.718 421.931C641.723 424.404 643.133 426.297 644.949 427.61C646.764 428.885 648.831 429.523 651.15 429.523Z" fill="#212121"/>
<path d="M409.661 415.034H670.332V417.932H409.661V415.034Z" fill="#212121"/>
<path d="M247.238 600.264C243.308 600.264 240.213 599.135 237.954 596.876C235.696 594.617 234.566 591.273 234.566 586.844V569.2H237.822V586.712C237.822 590.349 238.644 593.033 240.286 594.764C241.929 596.495 244.246 597.36 247.238 597.36C250.26 597.36 252.592 596.495 254.234 594.764C255.877 593.033 256.698 590.349 256.698 586.712V569.2H259.866V586.844C259.866 591.273 258.737 594.617 256.478 596.876C254.249 599.135 251.169 600.264 247.238 600.264ZM280.81 576.68C282.687 576.68 284.33 577.047 285.738 577.78C287.175 578.484 288.29 579.569 289.082 581.036C289.903 582.503 290.314 584.351 290.314 586.58V600H287.19V586.888C287.19 584.453 286.574 582.62 285.342 581.388C284.139 580.127 282.438 579.496 280.238 579.496C278.595 579.496 277.158 579.833 275.926 580.508C274.723 581.153 273.785 582.107 273.11 583.368C272.465 584.6 272.142 586.096 272.142 587.856V600H269.018V576.9H272.01V583.236L271.526 582.048C272.259 580.376 273.433 579.071 275.046 578.132C276.659 577.164 278.581 576.68 280.81 576.68ZM306.056 600.22C303.886 600.22 302.214 599.633 301.04 598.46C299.867 597.287 299.28 595.629 299.28 593.488V571.796H302.404V593.312C302.404 594.661 302.742 595.703 303.416 596.436C304.12 597.169 305.118 597.536 306.408 597.536C307.787 597.536 308.931 597.14 309.84 596.348L310.94 598.592C310.324 599.149 309.576 599.56 308.696 599.824C307.846 600.088 306.966 600.22 306.056 600.22ZM295.144 579.496V576.9H309.444V579.496H295.144ZM326.175 600.22C324.21 600.22 322.494 599.853 321.027 599.12C319.561 598.387 318.417 597.287 317.595 595.82C316.803 594.353 316.407 592.52 316.407 590.32V576.9H319.531V589.968C319.531 592.432 320.133 594.295 321.335 595.556C322.567 596.788 324.283 597.404 326.483 597.404C328.097 597.404 329.49 597.081 330.663 596.436C331.866 595.761 332.775 594.793 333.391 593.532C334.037 592.271 334.359 590.76 334.359 589V576.9H337.483V600H334.491V593.664L334.975 594.808C334.242 596.509 333.098 597.844 331.543 598.812C330.018 599.751 328.229 600.22 326.175 600.22ZM348.654 594.016L348.742 590.012L363.13 576.9H366.958L356.794 586.624L355.034 588.12L348.654 594.016ZM346.19 600V567.352H349.314V600H346.19ZM364.098 600L354.462 587.988L356.486 585.568L367.926 600H364.098ZM393.283 600.264C390.995 600.264 388.795 599.897 386.683 599.164C384.601 598.401 382.987 597.433 381.843 596.26L383.119 593.752C384.205 594.808 385.657 595.703 387.475 596.436C389.323 597.14 391.259 597.492 393.283 597.492C395.219 597.492 396.789 597.257 397.991 596.788C399.223 596.289 400.118 595.629 400.675 594.808C401.262 593.987 401.555 593.077 401.555 592.08C401.555 590.877 401.203 589.909 400.499 589.176C399.825 588.443 398.93 587.871 397.815 587.46C396.701 587.02 395.469 586.639 394.119 586.316C392.77 585.993 391.421 585.656 390.071 585.304C388.722 584.923 387.475 584.424 386.331 583.808C385.217 583.192 384.307 582.385 383.603 581.388C382.929 580.361 382.591 579.027 382.591 577.384C382.591 575.859 382.987 574.465 383.779 573.204C384.601 571.913 385.847 570.887 387.519 570.124C389.191 569.332 391.333 568.936 393.943 568.936C395.674 568.936 397.39 569.185 399.091 569.684C400.793 570.153 402.259 570.813 403.491 571.664L402.391 574.26C401.071 573.38 399.663 572.735 398.167 572.324C396.701 571.913 395.278 571.708 393.899 571.708C392.051 571.708 390.526 571.957 389.323 572.456C388.121 572.955 387.226 573.629 386.639 574.48C386.082 575.301 385.803 576.24 385.803 577.296C385.803 578.499 386.141 579.467 386.815 580.2C387.519 580.933 388.429 581.505 389.543 581.916C390.687 582.327 391.934 582.693 393.283 583.016C394.633 583.339 395.967 583.691 397.287 584.072C398.637 584.453 399.869 584.952 400.983 585.568C402.127 586.155 403.037 586.947 403.711 587.944C404.415 588.941 404.767 590.247 404.767 591.86C404.767 593.356 404.357 594.749 403.535 596.04C402.714 597.301 401.453 598.328 399.751 599.12C398.079 599.883 395.923 600.264 393.283 600.264ZM421.014 600.22C418.608 600.22 416.496 599.721 414.678 598.724C412.859 597.697 411.436 596.304 410.41 594.544C409.383 592.755 408.87 590.716 408.87 588.428C408.87 586.14 409.354 584.116 410.322 582.356C411.319 580.596 412.668 579.217 414.37 578.22C416.1 577.193 418.036 576.68 420.178 576.68C422.348 576.68 424.27 577.179 425.942 578.176C427.643 579.144 428.978 580.523 429.946 582.312C430.914 584.072 431.398 586.111 431.398 588.428C431.398 588.575 431.383 588.736 431.354 588.912C431.354 589.059 431.354 589.22 431.354 589.396H411.246V587.064H429.682L428.45 587.988C428.45 586.316 428.083 584.835 427.35 583.544C426.646 582.224 425.678 581.197 424.446 580.464C423.214 579.731 421.791 579.364 420.178 579.364C418.594 579.364 417.171 579.731 415.91 580.464C414.648 581.197 413.666 582.224 412.962 583.544C412.258 584.864 411.906 586.375 411.906 588.076V588.56C411.906 590.32 412.287 591.875 413.05 593.224C413.842 594.544 414.927 595.585 416.306 596.348C417.714 597.081 419.312 597.448 421.102 597.448C422.51 597.448 423.815 597.199 425.018 596.7C426.25 596.201 427.306 595.439 428.186 594.412L429.946 596.436C428.919 597.668 427.628 598.607 426.074 599.252C424.548 599.897 422.862 600.22 421.014 600.22ZM437.756 600V576.9H440.748V583.192L440.44 582.092C441.086 580.332 442.171 578.997 443.696 578.088C445.222 577.149 447.114 576.68 449.372 576.68V579.716C449.255 579.716 449.138 579.716 449.02 579.716C448.903 579.687 448.786 579.672 448.668 579.672C446.234 579.672 444.327 580.42 442.948 581.916C441.57 583.383 440.88 585.48 440.88 588.208V600H437.756ZM463.365 600.22C461.194 600.22 459.522 599.633 458.349 598.46C457.176 597.287 456.589 595.629 456.589 593.488V571.796H459.713V593.312C459.713 594.661 460.05 595.703 460.725 596.436C461.429 597.169 462.426 597.536 463.717 597.536C465.096 597.536 466.24 597.14 467.149 596.348L468.249 598.592C467.633 599.149 466.885 599.56 466.005 599.824C465.154 600.088 464.274 600.22 463.365 600.22ZM452.453 579.496V576.9H466.753V579.496H452.453ZM473.936 600V576.9H477.06V600H473.936ZM475.52 571.796C474.875 571.796 474.332 571.576 473.892 571.136C473.452 570.696 473.232 570.168 473.232 569.552C473.232 568.936 473.452 568.423 473.892 568.012C474.332 567.572 474.875 567.352 475.52 567.352C476.165 567.352 476.708 567.557 477.148 567.968C477.588 568.379 477.808 568.892 477.808 569.508C477.808 570.153 477.588 570.696 477.148 571.136C476.737 571.576 476.195 571.796 475.52 571.796ZM500.228 600V594.896L500.096 594.06V585.524C500.096 583.559 499.539 582.048 498.424 580.992C497.339 579.936 495.711 579.408 493.54 579.408C492.044 579.408 490.622 579.657 489.272 580.156C487.923 580.655 486.779 581.315 485.84 582.136L484.432 579.804C485.606 578.807 487.014 578.044 488.656 577.516C490.299 576.959 492.03 576.68 493.848 576.68C496.84 576.68 499.143 577.428 500.756 578.924C502.399 580.391 503.22 582.635 503.22 585.656V600H500.228ZM492.264 600.22C490.534 600.22 489.023 599.941 487.732 599.384C486.471 598.797 485.503 598.005 484.828 597.008C484.154 595.981 483.816 594.808 483.816 593.488C483.816 592.285 484.095 591.2 484.652 590.232C485.239 589.235 486.178 588.443 487.468 587.856C488.788 587.24 490.548 586.932 492.748 586.932H500.712V589.264H492.836C490.607 589.264 489.052 589.66 488.172 590.452C487.322 591.244 486.896 592.227 486.896 593.4C486.896 594.72 487.41 595.776 488.436 596.568C489.463 597.36 490.9 597.756 492.748 597.756C494.508 597.756 496.019 597.36 497.28 596.568C498.571 595.747 499.51 594.573 500.096 593.048L500.8 595.204C500.214 596.729 499.187 597.947 497.72 598.856C496.283 599.765 494.464 600.22 492.264 600.22ZM523.63 600.22C521.635 600.22 519.831 599.765 518.218 598.856C516.604 597.917 515.314 596.583 514.346 594.852C513.407 593.092 512.938 590.951 512.938 588.428C512.938 585.905 513.407 583.779 514.346 582.048C515.284 580.288 516.56 578.953 518.174 578.044C519.787 577.135 521.606 576.68 523.63 576.68C525.83 576.68 527.795 577.179 529.526 578.176C531.286 579.144 532.664 580.523 533.662 582.312C534.659 584.072 535.158 586.111 535.158 588.428C535.158 590.775 534.659 592.828 533.662 594.588C532.664 596.348 531.286 597.727 529.526 598.724C527.795 599.721 525.83 600.22 523.63 600.22ZM511.706 608.536V576.9H514.698V583.852L514.39 588.472L514.83 593.136V608.536H511.706ZM523.41 597.448C525.052 597.448 526.519 597.081 527.81 596.348C529.1 595.585 530.127 594.529 530.89 593.18C531.652 591.801 532.034 590.217 532.034 588.428C532.034 586.639 531.652 585.069 530.89 583.72C530.127 582.371 529.1 581.315 527.81 580.552C526.519 579.789 525.052 579.408 523.41 579.408C521.767 579.408 520.286 579.789 518.966 580.552C517.675 581.315 516.648 582.371 515.886 583.72C515.152 585.069 514.786 586.639 514.786 588.428C514.786 590.217 515.152 591.801 515.886 593.18C516.648 594.529 517.675 595.585 518.966 596.348C520.286 597.081 521.767 597.448 523.41 597.448ZM562.458 600L548.818 569.2H552.338L565.098 598.196H563.162L576.01 569.2H579.31L565.67 600H562.458ZM595.834 600V594.896L595.702 594.06V585.524C595.702 583.559 595.145 582.048 594.03 580.992C592.945 579.936 591.317 579.408 589.146 579.408C587.65 579.408 586.227 579.657 584.878 580.156C583.529 580.655 582.385 581.315 581.446 582.136L580.038 579.804C581.211 578.807 582.619 578.044 584.262 577.516C585.905 576.959 587.635 576.68 589.454 576.68C592.446 576.68 594.749 577.428 596.362 578.924C598.005 580.391 598.826 582.635 598.826 585.656V600H595.834ZM587.87 600.22C586.139 600.22 584.629 599.941 583.338 599.384C582.077 598.797 581.109 598.005 580.434 597.008C579.759 595.981 579.422 594.808 579.422 593.488C579.422 592.285 579.701 591.2 580.258 590.232C580.845 589.235 581.783 588.443 583.074 587.856C584.394 587.24 586.154 586.932 588.354 586.932H596.318V589.264H588.442C586.213 589.264 584.658 589.66 583.778 590.452C582.927 591.244 582.502 592.227 582.502 593.4C582.502 594.72 583.015 595.776 584.042 596.568C585.069 597.36 586.506 597.756 588.354 597.756C590.114 597.756 591.625 597.36 592.886 596.568C594.177 595.747 595.115 594.573 595.702 593.048L596.406 595.204C595.819 596.729 594.793 597.947 593.326 598.856C591.889 599.765 590.07 600.22 587.87 600.22ZM607.311 600V576.9H610.303V583.192L609.995 582.092C610.64 580.332 611.726 578.997 613.251 578.088C614.776 577.149 616.668 576.68 618.927 576.68V579.716C618.81 579.716 618.692 579.716 618.575 579.716C618.458 579.687 618.34 579.672 618.223 579.672C615.788 579.672 613.882 580.42 612.503 581.916C611.124 583.383 610.435 585.48 610.435 588.208V600H607.311ZM624.627 600V576.9H627.751V600H624.627ZM626.211 571.796C625.566 571.796 625.023 571.576 624.583 571.136C624.143 570.696 623.923 570.168 623.923 569.552C623.923 568.936 624.143 568.423 624.583 568.012C625.023 567.572 625.566 567.352 626.211 567.352C626.857 567.352 627.399 567.557 627.839 567.968C628.279 568.379 628.499 568.892 628.499 569.508C628.499 570.153 628.279 570.696 627.839 571.136C627.429 571.576 626.886 571.796 626.211 571.796ZM650.92 600V594.896L650.788 594.06V585.524C650.788 583.559 650.231 582.048 649.116 580.992C648.031 579.936 646.403 579.408 644.232 579.408C642.736 579.408 641.313 579.657 639.964 580.156C638.615 580.655 637.471 581.315 636.532 582.136L635.124 579.804C636.297 578.807 637.705 578.044 639.348 577.516C640.991 576.959 642.721 576.68 644.54 576.68C647.532 576.68 649.835 577.428 651.448 578.924C653.091 580.391 653.912 582.635 653.912 585.656V600H650.92ZM642.956 600.22C641.225 600.22 639.715 599.941 638.424 599.384C637.163 598.797 636.195 598.005 635.52 597.008C634.845 595.981 634.508 594.808 634.508 593.488C634.508 592.285 634.787 591.2 635.344 590.232C635.931 589.235 636.869 588.443 638.16 587.856C639.48 587.24 641.24 586.932 643.44 586.932H651.404V589.264H643.528C641.299 589.264 639.744 589.66 638.864 590.452C638.013 591.244 637.588 592.227 637.588 593.4C637.588 594.72 638.101 595.776 639.128 596.568C640.155 597.36 641.592 597.756 643.44 597.756C645.2 597.756 646.711 597.36 647.972 596.568C649.263 595.747 650.201 594.573 650.788 593.048L651.492 595.204C650.905 596.729 649.879 597.947 648.412 598.856C646.975 599.765 645.156 600.22 642.956 600.22ZM674.189 576.68C676.066 576.68 677.709 577.047 679.117 577.78C680.554 578.484 681.669 579.569 682.461 581.036C683.282 582.503 683.693 584.351 683.693 586.58V600H680.569V586.888C680.569 584.453 679.953 582.62 678.721 581.388C677.518 580.127 675.817 579.496 673.617 579.496C671.974 579.496 670.537 579.833 669.305 580.508C668.102 581.153 667.164 582.107 666.489 583.368C665.844 584.6 665.521 586.096 665.521 587.856V600H662.397V576.9H665.389V583.236L664.905 582.048C665.638 580.376 666.812 579.071 668.425 578.132C670.038 577.164 671.96 576.68 674.189 576.68ZM704.307 600V569.2H716.847C720.132 569.2 723.007 569.86 725.471 571.18C727.964 572.471 729.9 574.275 731.279 576.592C732.658 578.909 733.347 581.579 733.347 584.6C733.347 587.621 732.658 590.291 731.279 592.608C729.9 594.925 727.964 596.744 725.471 598.064C723.007 599.355 720.132 600 716.847 600H704.307ZM707.563 597.184H716.671C719.399 597.184 721.76 596.656 723.755 595.6C725.779 594.515 727.348 593.033 728.463 591.156C729.578 589.249 730.135 587.064 730.135 584.6C730.135 582.107 729.578 579.921 728.463 578.044C727.348 576.167 725.779 574.7 723.755 573.644C721.76 572.559 719.399 572.016 716.671 572.016H707.563V597.184ZM749.811 600.22C747.405 600.22 745.293 599.721 743.475 598.724C741.656 597.697 740.233 596.304 739.207 594.544C738.18 592.755 737.667 590.716 737.667 588.428C737.667 586.14 738.151 584.116 739.119 582.356C740.116 580.596 741.465 579.217 743.167 578.22C744.897 577.193 746.833 576.68 748.975 576.68C751.145 576.68 753.067 577.179 754.739 578.176C756.44 579.144 757.775 580.523 758.743 582.312C759.711 584.072 760.195 586.111 760.195 588.428C760.195 588.575 760.18 588.736 760.151 588.912C760.151 589.059 760.151 589.22 760.151 589.396H740.043V587.064H758.479L757.247 587.988C757.247 586.316 756.88 584.835 756.147 583.544C755.443 582.224 754.475 581.197 753.243 580.464C752.011 579.731 750.588 579.364 748.975 579.364C747.391 579.364 745.968 579.731 744.707 580.464C743.445 581.197 742.463 582.224 741.759 583.544C741.055 584.864 740.703 586.375 740.703 588.076V588.56C740.703 590.32 741.084 591.875 741.847 593.224C742.639 594.544 743.724 595.585 745.103 596.348C746.511 597.081 748.109 597.448 749.899 597.448C751.307 597.448 752.612 597.199 753.815 596.7C755.047 596.201 756.103 595.439 756.983 594.412L758.743 596.436C757.716 597.668 756.425 598.607 754.871 599.252C753.345 599.897 751.659 600.22 749.811 600.22ZM772.757 600.22C770.851 600.22 769.047 599.956 767.345 599.428C765.644 598.871 764.309 598.181 763.341 597.36L764.749 594.896C765.688 595.6 766.891 596.216 768.357 596.744C769.824 597.243 771.364 597.492 772.977 597.492C775.177 597.492 776.761 597.155 777.729 596.48C778.697 595.776 779.181 594.852 779.181 593.708C779.181 592.857 778.903 592.197 778.345 591.728C777.817 591.229 777.113 590.863 776.233 590.628C775.353 590.364 774.371 590.144 773.285 589.968C772.2 589.792 771.115 589.587 770.029 589.352C768.973 589.117 768.005 588.78 767.125 588.34C766.245 587.871 765.527 587.24 764.969 586.448C764.441 585.656 764.177 584.6 764.177 583.28C764.177 582.019 764.529 580.889 765.233 579.892C765.937 578.895 766.964 578.117 768.313 577.56C769.692 576.973 771.364 576.68 773.329 576.68C774.825 576.68 776.321 576.885 777.817 577.296C779.313 577.677 780.545 578.191 781.513 578.836L780.149 581.344C779.123 580.64 778.023 580.141 776.849 579.848C775.676 579.525 774.503 579.364 773.329 579.364C771.247 579.364 769.707 579.731 768.709 580.464C767.741 581.168 767.257 582.077 767.257 583.192C767.257 584.072 767.521 584.761 768.049 585.26C768.607 585.759 769.325 586.155 770.205 586.448C771.115 586.712 772.097 586.932 773.153 587.108C774.239 587.284 775.309 587.504 776.365 587.768C777.451 588.003 778.433 588.34 779.313 588.78C780.223 589.191 780.941 589.792 781.469 590.584C782.027 591.347 782.305 592.359 782.305 593.62C782.305 594.969 781.924 596.143 781.161 597.14C780.428 598.108 779.343 598.871 777.905 599.428C776.497 599.956 774.781 600.22 772.757 600.22ZM802.514 600V594.896L802.382 594.06V585.524C802.382 583.559 801.824 582.048 800.71 580.992C799.624 579.936 797.996 579.408 795.826 579.408C794.33 579.408 792.907 579.657 791.558 580.156C790.208 580.655 789.064 581.315 788.126 582.136L786.718 579.804C787.891 578.807 789.299 578.044 790.942 577.516C792.584 576.959 794.315 576.68 796.134 576.68C799.126 576.68 801.428 577.428 803.042 578.924C804.684 580.391 805.506 582.635 805.506 585.656V600H802.514ZM794.55 600.22C792.819 600.22 791.308 599.941 790.018 599.384C788.756 598.797 787.788 598.005 787.114 597.008C786.439 595.981 786.102 594.808 786.102 593.488C786.102 592.285 786.38 591.2 786.938 590.232C787.524 589.235 788.463 588.443 789.754 587.856C791.074 587.24 792.834 586.932 795.034 586.932H802.998V589.264H795.122C792.892 589.264 791.338 589.66 790.458 590.452C789.607 591.244 789.182 592.227 789.182 593.4C789.182 594.72 789.695 595.776 790.722 596.568C791.748 597.36 793.186 597.756 795.034 597.756C796.794 597.756 798.304 597.36 799.566 596.568C800.856 595.747 801.795 594.573 802.382 593.048L803.086 595.204C802.499 596.729 801.472 597.947 800.006 598.856C798.568 599.765 796.75 600.22 794.55 600.22ZM813.991 600V576.9H817.115V600H813.991ZM815.575 571.796C814.929 571.796 814.387 571.576 813.947 571.136C813.507 570.696 813.287 570.168 813.287 569.552C813.287 568.936 813.507 568.423 813.947 568.012C814.387 567.572 814.929 567.352 815.575 567.352C816.22 567.352 816.763 567.557 817.203 567.968C817.643 568.379 817.863 568.892 817.863 569.508C817.863 570.153 817.643 570.696 817.203 571.136C816.792 571.576 816.249 571.796 815.575 571.796ZM837.599 576.68C839.477 576.68 841.119 577.047 842.527 577.78C843.965 578.484 845.079 579.569 845.871 581.036C846.693 582.503 847.103 584.351 847.103 586.58V600H843.979V586.888C843.979 584.453 843.363 582.62 842.131 581.388C840.929 580.127 839.227 579.496 837.027 579.496C835.385 579.496 833.947 579.833 832.715 580.508C831.513 581.153 830.574 582.107 829.899 583.368C829.254 584.6 828.931 586.096 828.931 587.856V600H825.807V576.9H828.799V583.236L828.315 582.048C829.049 580.376 830.222 579.071 831.835 578.132C833.449 577.164 835.37 576.68 837.599 576.68Z" fill="#212121"/>
<path d="M47 352H111V416L47 352Z" fill="#303030"/>
<path d="M1033 352H969V416L1033 352Z" fill="#303030"/>
<path d="M168.545 91.2059L168.256 84.1356L191.263 60.4326H197.87L180.078 79.2095L176.833 82.8026L168.545 91.2059ZM163.446 101V60.4326H169.241V101H163.446ZM192.19 101L175.558 81.6436L179.441 77.355L198.971 101H192.19ZM204.288 101V57.9986H209.852V101H204.288ZM220.474 101V70.2847H226.038V101H220.474ZM223.256 64.3735C222.174 64.3735 221.266 64.0257 220.532 63.3303C219.837 62.6349 219.489 61.7849 219.489 60.7803C219.489 59.7372 219.837 58.8679 220.532 58.1724C221.266 57.477 222.174 57.1293 223.256 57.1293C224.338 57.1293 225.227 57.477 225.922 58.1724C226.656 58.8292 227.023 59.6599 227.023 60.6644C227.023 61.7076 226.675 62.5962 225.98 63.3303C225.285 64.0257 224.377 64.3735 223.256 64.3735ZM241.181 93.582L241.297 86.4537L258.973 70.2847H265.695L252.134 83.614L249.121 86.1639L241.181 93.582ZM236.661 101V57.9986H242.224V101H236.661ZM260.132 101L248.077 86.048L251.671 81.5856L266.97 101H260.132ZM307.06 101.464C303.931 101.464 301.053 100.961 298.425 99.9568C295.798 98.9137 293.519 97.4648 291.587 95.6103C289.655 93.7172 288.148 91.515 287.067 89.0036C285.985 86.4923 285.444 83.7299 285.444 80.7163C285.444 77.7027 285.985 74.9403 287.067 72.429C288.148 69.9177 289.655 67.7348 291.587 65.8802C293.557 63.9871 295.856 62.5383 298.483 61.5337C301.111 60.4906 304.008 59.969 307.176 59.969C310.383 59.969 313.319 60.4906 315.985 61.5337C318.651 62.5769 320.911 64.1416 322.766 66.228L319.173 69.8211C317.511 68.1984 315.695 67.02 313.725 66.2859C311.793 65.5132 309.688 65.1268 307.408 65.1268C305.09 65.1268 302.926 65.5132 300.917 66.2859C298.947 67.0586 297.228 68.1404 295.76 69.5313C294.33 70.9222 293.21 72.5835 292.398 74.5153C291.626 76.4084 291.239 78.4754 291.239 80.7163C291.239 82.9185 291.626 84.9855 292.398 86.9173C293.21 88.8105 294.33 90.4718 295.76 91.9013C297.228 93.2922 298.947 94.374 300.917 95.1467C302.888 95.9194 305.032 96.3058 307.35 96.3058C309.514 96.3058 311.581 95.9774 313.551 95.3206C315.56 94.6251 317.415 93.4854 319.115 91.9013L322.418 96.3058C320.409 98.0057 318.052 99.3 315.348 100.189C312.682 101.039 309.919 101.464 307.06 101.464ZM316.855 95.5524V80.4845H322.418V96.3058L316.855 95.5524ZM351.769 101V94.5092L351.479 93.2922V82.2231C351.479 79.8663 350.784 78.0505 349.393 76.7755C348.041 75.4619 345.993 74.8051 343.25 74.8051C341.434 74.8051 339.657 75.1142 337.918 75.7323C336.18 76.3119 334.712 77.1039 333.514 78.1084L331.196 73.9358C332.78 72.6608 334.673 71.6949 336.875 71.0381C339.116 70.3427 341.453 69.9949 343.888 69.9949C348.099 69.9949 351.344 71.0188 353.624 73.0665C355.903 75.1142 357.043 78.2436 357.043 82.4549V101H351.769ZM341.685 101.348C339.406 101.348 337.397 100.961 335.658 100.189C333.958 99.4159 332.645 98.3535 331.717 97.0012C330.79 95.6103 330.326 94.0456 330.326 92.307C330.326 90.6457 330.713 89.1389 331.486 87.7866C332.297 86.4344 333.591 85.3526 335.368 84.5412C337.184 83.7299 339.618 83.3242 342.671 83.3242H352.407V87.323H342.902C340.121 87.323 338.247 87.7866 337.281 88.7139C336.315 89.6411 335.832 90.7616 335.832 92.0752C335.832 93.582 336.431 94.799 337.629 95.7262C338.826 96.6149 340.488 97.0592 342.613 97.0592C344.699 97.0592 346.515 96.5955 348.06 95.6683C349.644 94.741 350.784 93.3888 351.479 91.6116L352.581 95.4365C351.846 97.2523 350.552 98.7012 348.698 99.783C346.843 100.826 344.506 101.348 341.685 101.348ZM405.762 69.9949C408.235 69.9949 410.417 70.4779 412.311 71.4438C414.204 72.4097 415.672 73.8778 416.715 75.8482C417.797 77.8186 418.338 80.3106 418.338 83.3242V101H412.774V83.9617C412.774 80.9868 412.079 78.7459 410.688 77.2391C409.297 75.7323 407.346 74.9789 404.835 74.9789C402.98 74.9789 401.357 75.3653 399.967 76.138C398.576 76.9107 397.494 78.0505 396.721 79.5572C395.987 81.064 395.62 82.9379 395.62 85.1787V101H390.056V83.9617C390.056 80.9868 389.361 78.7459 387.97 77.2391C386.618 75.7323 384.667 74.9789 382.117 74.9789C380.301 74.9789 378.698 75.3653 377.307 76.138C375.916 76.9107 374.834 78.0505 374.061 79.5572C373.289 81.064 372.902 82.9379 372.902 85.1787V101H367.339V70.2847H372.67V78.4561L371.801 76.3698C372.767 74.3608 374.255 72.796 376.264 71.6756C378.273 70.5551 380.61 69.9949 383.276 69.9949C386.212 69.9949 388.743 70.729 390.868 72.1972C392.993 73.6267 394.384 75.8096 395.04 78.7459L392.78 77.8186C393.708 75.4619 395.33 73.5687 397.648 72.1392C399.967 70.7097 402.671 69.9949 405.762 69.9949ZM444.86 101.348C442.232 101.348 439.856 100.768 437.731 99.6091C435.645 98.4114 433.984 96.6535 432.747 94.3354C431.55 92.0172 430.951 89.1196 430.951 85.6424C430.951 82.1651 431.569 79.2675 432.805 76.9493C434.08 74.6312 435.761 72.8926 437.847 71.7335C439.972 70.5745 442.31 69.9949 444.86 69.9949C447.873 69.9949 450.539 70.6517 452.857 71.9653C455.175 73.279 457.01 75.1142 458.363 77.4709C459.715 79.7891 460.391 82.5129 460.391 85.6424C460.391 88.7718 459.715 91.515 458.363 93.8717C457.01 96.2285 455.175 98.0637 452.857 99.3773C450.539 100.691 447.873 101.348 444.86 101.348ZM428.575 101V57.9986H434.138V78.4561L433.559 85.5844L433.906 92.7127V101H428.575ZM444.396 96.4796C446.366 96.4796 448.124 96.0353 449.67 95.1467C451.254 94.2581 452.49 93.0024 453.379 91.3797C454.306 89.7184 454.77 87.8059 454.77 85.6424C454.77 83.4401 454.306 81.547 453.379 79.9629C452.49 78.3402 451.254 77.0846 449.67 76.1959C448.124 75.3073 446.366 74.863 444.396 74.863C442.464 74.863 440.706 75.3073 439.122 76.1959C437.577 77.0846 436.34 78.3402 435.413 79.9629C434.525 81.547 434.08 83.4401 434.08 85.6424C434.08 87.8059 434.525 89.7184 435.413 91.3797C436.34 93.0024 437.577 94.2581 439.122 95.1467C440.706 96.0353 442.464 96.4796 444.396 96.4796ZM486.862 101V94.5092L486.572 93.2922V82.2231C486.572 79.8663 485.877 78.0505 484.486 76.7755C483.133 75.4619 481.086 74.8051 478.343 74.8051C476.527 74.8051 474.749 75.1142 473.011 75.7323C471.272 76.3119 469.804 77.1039 468.606 78.1084L466.288 73.9358C467.872 72.6608 469.765 71.6949 471.968 71.0381C474.209 70.3427 476.546 69.9949 478.98 69.9949C483.191 69.9949 486.437 71.0188 488.716 73.0665C490.996 75.1142 492.135 78.2436 492.135 82.4549V101H486.862ZM476.778 101.348C474.498 101.348 472.489 100.961 470.751 100.189C469.051 99.4159 467.737 98.3535 466.81 97.0012C465.883 95.6103 465.419 94.0456 465.419 92.307C465.419 90.6457 465.805 89.1389 466.578 87.7866C467.389 86.4344 468.684 85.3526 470.461 84.5412C472.277 83.7299 474.711 83.3242 477.763 83.3242H487.499V87.323H477.995C475.213 87.323 473.339 87.7866 472.373 88.7139C471.407 89.6411 470.925 90.7616 470.925 92.0752C470.925 93.582 471.523 94.799 472.721 95.7262C473.919 96.6149 475.58 97.0592 477.705 97.0592C479.791 97.0592 481.607 96.5955 483.153 95.6683C484.737 94.741 485.877 93.3888 486.572 91.6116L487.673 95.4365C486.939 97.2523 485.645 98.7012 483.79 99.783C481.936 100.826 479.598 101.348 476.778 101.348ZM502.431 101V70.2847H507.763V78.63L507.241 76.5437C508.091 74.4187 509.521 72.796 511.53 71.6756C513.539 70.5551 516.012 69.9949 518.948 69.9949V75.3846C518.716 75.346 518.484 75.3266 518.253 75.3266C518.059 75.3266 517.866 75.3266 517.673 75.3266C514.698 75.3266 512.341 76.2153 510.603 77.9925C508.864 79.7697 507.995 82.339 507.995 85.7003V101H502.431ZM542.576 101V60.4326H559.672C564 60.4326 567.805 61.2826 571.089 62.9826C574.412 64.6825 576.981 67.0586 578.797 70.1108C580.652 73.1631 581.579 76.6982 581.579 80.7163C581.579 84.7344 580.652 88.2696 578.797 91.3218C576.981 94.374 574.412 96.7501 571.089 98.4501C567.805 100.15 564 101 559.672 101H542.576ZM548.372 95.9581H559.325C562.686 95.9581 565.584 95.3206 568.018 94.0456C570.49 92.7706 572.403 90.9934 573.755 88.7139C575.107 86.3957 575.784 83.7299 575.784 80.7163C575.784 77.6641 575.107 74.9982 573.755 72.7187C572.403 70.4392 570.49 68.662 568.018 67.387C565.584 66.1121 562.686 65.4746 559.325 65.4746H548.372V95.9581ZM589.644 101V70.2847H595.208V101H589.644ZM592.426 64.3735C591.344 64.3735 590.436 64.0257 589.702 63.3303C589.007 62.6349 588.659 61.7849 588.659 60.7803C588.659 59.7372 589.007 58.8679 589.702 58.1724C590.436 57.477 591.344 57.1293 592.426 57.1293C593.508 57.1293 594.397 57.477 595.092 58.1724C595.826 58.8292 596.193 59.6599 596.193 60.6644C596.193 61.7076 595.845 62.5962 595.15 63.3303C594.454 64.0257 593.547 64.3735 592.426 64.3735ZM624.897 101V94.5092L624.607 93.2922V82.2231C624.607 79.8663 623.912 78.0505 622.521 76.7755C621.169 75.4619 619.121 74.8051 616.378 74.8051C614.562 74.8051 612.785 75.1142 611.046 75.7323C609.308 76.3119 607.84 77.1039 606.642 78.1084L604.324 73.9358C605.908 72.6608 607.801 71.6949 610.003 71.0381C612.244 70.3427 614.581 69.9949 617.016 69.9949C621.227 69.9949 624.472 71.0188 626.752 73.0665C629.031 75.1142 630.171 78.2436 630.171 82.4549V101H624.897ZM614.813 101.348C612.534 101.348 610.525 100.961 608.786 100.189C607.086 99.4159 605.773 98.3535 604.845 97.0012C603.918 95.6103 603.454 94.0456 603.454 92.307C603.454 90.6457 603.841 89.1389 604.614 87.7866C605.425 86.4344 606.719 85.3526 608.496 84.5412C610.312 83.7299 612.746 83.3242 615.799 83.3242H625.535V87.323H616.03C613.249 87.323 611.375 87.7866 610.409 88.7139C609.443 89.6411 608.96 90.7616 608.96 92.0752C608.96 93.582 609.559 94.799 610.757 95.7262C611.954 96.6149 613.616 97.0592 615.741 97.0592C617.827 97.0592 619.643 96.5955 621.188 95.6683C622.772 94.741 623.912 93.3888 624.607 91.6116L625.709 95.4365C624.974 97.2523 623.68 98.7012 621.826 99.783C619.971 100.826 617.634 101.348 614.813 101.348ZM651.014 101.348C647.923 101.348 645.528 100.517 643.828 98.8557C642.128 97.1944 641.278 94.8183 641.278 91.7275V63.5621H646.842V91.4956C646.842 93.157 647.247 94.4319 648.059 95.3206C648.909 96.2092 650.106 96.6535 651.652 96.6535C653.39 96.6535 654.839 96.1706 655.998 95.2047L657.737 99.2034C656.887 99.9375 655.863 100.478 654.665 100.826C653.506 101.174 652.289 101.348 651.014 101.348ZM636.062 74.863V70.2847H655.651V74.863H636.062ZM683.53 101V94.5092L683.24 93.2922V82.2231C683.24 79.8663 682.545 78.0505 681.154 76.7755C679.801 75.4619 677.754 74.8051 675.011 74.8051C673.195 74.8051 671.417 75.1142 669.679 75.7323C667.94 76.3119 666.472 77.1039 665.274 78.1084L662.956 73.9358C664.54 72.6608 666.434 71.6949 668.636 71.0381C670.877 70.3427 673.214 69.9949 675.648 69.9949C679.859 69.9949 683.105 71.0188 685.384 73.0665C687.664 75.1142 688.804 78.2436 688.804 82.4549V101H683.53ZM673.446 101.348C671.166 101.348 669.157 100.961 667.419 100.189C665.719 99.4159 664.405 98.3535 663.478 97.0012C662.551 95.6103 662.087 94.0456 662.087 92.307C662.087 90.6457 662.473 89.1389 663.246 87.7866C664.057 86.4344 665.352 85.3526 667.129 84.5412C668.945 83.7299 671.379 83.3242 674.431 83.3242H684.167V87.323H674.663C671.881 87.323 670.007 87.7866 669.041 88.7139C668.076 89.6411 667.593 90.7616 667.593 92.0752C667.593 93.582 668.191 94.799 669.389 95.7262C670.587 96.6149 672.248 97.0592 674.373 97.0592C676.459 97.0592 678.275 96.5955 679.821 95.6683C681.405 94.741 682.545 93.3888 683.24 91.6116L684.341 95.4365C683.607 97.2523 682.313 98.7012 680.458 99.783C678.604 100.826 676.266 101.348 673.446 101.348ZM707.908 101.348C705.358 101.348 702.924 101 700.606 100.305C698.327 99.6091 696.53 98.7591 695.216 97.7546L697.535 93.3502C698.848 94.2388 700.471 94.9922 702.403 95.6103C704.334 96.2285 706.305 96.5376 708.314 96.5376C710.902 96.5376 712.757 96.1706 713.877 95.4365C715.036 94.7024 715.616 93.6786 715.616 92.3649C715.616 91.3991 715.268 90.6457 714.573 90.1048C713.877 89.5639 712.95 89.1582 711.791 88.8877C710.671 88.6173 709.415 88.3855 708.024 88.1923C706.633 87.9605 705.242 87.69 703.851 87.381C702.461 87.0332 701.186 86.5696 700.027 85.9901C698.867 85.3719 697.94 84.5412 697.245 83.4981C696.549 82.4163 696.202 80.9868 696.202 79.2095C696.202 77.355 696.723 75.7323 697.766 74.3414C698.809 72.9506 700.278 71.8881 702.171 71.154C704.103 70.3813 706.382 69.9949 709.009 69.9949C711.018 69.9949 713.047 70.2461 715.094 70.7483C717.181 71.212 718.881 71.8881 720.194 72.7767L717.818 77.1812C716.427 76.2539 714.978 75.6164 713.472 75.2687C711.965 74.921 710.458 74.7471 708.951 74.7471C706.517 74.7471 704.701 75.1528 703.504 75.9641C702.306 76.7368 701.707 77.7414 701.707 78.9777C701.707 80.0209 702.055 80.8322 702.75 81.4118C703.484 81.9527 704.412 82.3776 705.532 82.6867C706.691 82.9958 707.966 83.2663 709.357 83.4981C710.748 83.6913 712.139 83.9617 713.53 84.3094C714.921 84.6185 716.176 85.0628 717.297 85.6424C718.456 86.2219 719.383 87.0332 720.078 88.0764C720.812 89.1196 721.18 90.5104 721.18 92.249C721.18 94.1035 720.639 95.7069 719.557 97.0592C718.475 98.4114 716.949 99.4739 714.978 100.247C713.008 100.981 710.651 101.348 707.908 101.348ZM761.314 101.464C755.982 101.464 751.79 99.9375 748.738 96.8853C745.686 93.8331 744.16 89.3707 744.16 83.4981V60.4326H749.955V83.2663C749.955 87.7866 750.94 91.09 752.911 93.1763C754.92 95.2626 757.74 96.3058 761.372 96.3058C765.042 96.3058 767.863 95.2626 769.833 93.1763C771.842 91.09 772.847 87.7866 772.847 83.2663V60.4326H778.468V83.4981C778.468 89.3707 776.942 93.8331 773.89 96.8853C770.876 99.9375 766.684 101.464 761.314 101.464ZM805.939 69.9949C808.45 69.9949 810.653 70.4779 812.546 71.4438C814.478 72.4097 815.984 73.8778 817.066 75.8482C818.148 77.8186 818.689 80.3106 818.689 83.3242V101H813.125V83.9617C813.125 80.9868 812.391 78.7459 810.923 77.2391C809.494 75.7323 807.465 74.9789 804.838 74.9789C802.868 74.9789 801.148 75.3653 799.68 76.138C798.212 76.9107 797.072 78.0505 796.261 79.5572C795.488 81.064 795.102 82.9379 795.102 85.1787V101H789.538V70.2847H794.87V78.572L794.001 76.3698C795.005 74.3608 796.551 72.796 798.637 71.6756C800.723 70.5551 803.157 69.9949 805.939 69.9949ZM839.533 101.348C836.442 101.348 834.046 100.517 832.346 98.8557C830.646 97.1944 829.796 94.8183 829.796 91.7275V63.5621H835.36V91.4956C835.36 93.157 835.766 94.4319 836.577 95.3206C837.427 96.2092 838.625 96.6535 840.17 96.6535C841.909 96.6535 843.358 96.1706 844.517 95.2047L846.255 99.2034C845.405 99.9375 844.381 100.478 843.184 100.826C842.025 101.174 840.808 101.348 839.533 101.348ZM824.581 74.863V70.2847H844.169V74.863H824.581ZM865.905 101.348C863.278 101.348 860.96 100.865 858.951 99.8989C856.98 98.933 855.435 97.4648 854.314 95.4944C853.233 93.4854 852.692 90.9741 852.692 87.9605V70.2847H858.255V87.323C858.255 90.3366 858.97 92.5968 860.399 94.1035C861.868 95.6103 863.915 96.3637 866.542 96.3637C868.474 96.3637 870.155 95.9774 871.584 95.2047C873.014 94.3933 874.115 93.2342 874.888 91.7275C875.66 90.182 876.047 88.3275 876.047 86.1639V70.2847H881.61V101H876.337V92.7127L877.206 94.9149C876.201 96.9626 874.695 98.5466 872.686 99.6671C870.677 100.788 868.416 101.348 865.905 101.348ZM896.722 93.582L896.838 86.4537L914.514 70.2847H921.236L907.675 83.614L904.662 86.1639L896.722 93.582ZM892.202 101V57.9986H897.765V101H892.202ZM915.673 101L903.619 86.048L907.212 81.5856L922.511 101H915.673ZM212.57 151V110.433H217.322L235.52 141.09H232.97L250.935 110.433H255.687L255.745 151H250.182L250.124 119.184H251.457L235.462 146.074H232.796L216.685 119.184H218.134V151H212.57ZM280.786 151.348C277.502 151.348 274.604 150.672 272.093 149.319C269.62 147.967 267.688 146.113 266.297 143.756C264.945 141.399 264.269 138.695 264.269 135.642C264.269 132.59 264.926 129.886 266.239 127.529C267.592 125.172 269.427 123.337 271.745 122.023C274.102 120.671 276.748 119.995 279.685 119.995C282.66 119.995 285.287 120.652 287.566 121.965C289.846 123.279 291.623 125.133 292.898 127.529C294.212 129.886 294.868 132.648 294.868 135.816C294.868 136.048 294.849 136.318 294.811 136.628C294.811 136.937 294.791 137.226 294.753 137.497H268.616V133.498H291.855L289.595 134.889C289.633 132.919 289.228 131.161 288.378 129.615C287.528 128.07 286.349 126.872 284.843 126.022C283.374 125.133 281.655 124.689 279.685 124.689C277.753 124.689 276.034 125.133 274.527 126.022C273.02 126.872 271.842 128.089 270.992 129.673C270.142 131.219 269.717 132.996 269.717 135.005V135.932C269.717 137.98 270.18 139.815 271.108 141.438C272.073 143.022 273.406 144.258 275.106 145.147C276.806 146.035 278.757 146.48 280.96 146.48C282.776 146.48 284.418 146.171 285.886 145.552C287.392 144.934 288.706 144.007 289.827 142.771L292.898 146.364C291.507 147.986 289.769 149.223 287.682 150.073C285.635 150.923 283.336 151.348 280.786 151.348ZM302.594 151V107.999H308.157V151H302.594ZM318.78 151V120.285H324.344V151H318.78ZM321.562 114.373C320.48 114.373 319.572 114.026 318.838 113.33C318.143 112.635 317.795 111.785 317.795 110.78C317.795 109.737 318.143 108.868 318.838 108.172C319.572 107.477 320.48 107.129 321.562 107.129C322.644 107.129 323.532 107.477 324.228 108.172C324.962 108.829 325.329 109.66 325.329 110.664C325.329 111.708 324.981 112.596 324.286 113.33C323.59 114.026 322.682 114.373 321.562 114.373ZM351.367 119.995C353.878 119.995 356.081 120.478 357.974 121.444C359.906 122.41 361.412 123.878 362.494 125.848C363.576 127.819 364.117 130.311 364.117 133.324V151H358.553V133.962C358.553 130.987 357.819 128.746 356.351 127.239C354.922 125.732 352.893 124.979 350.266 124.979C348.296 124.979 346.576 125.365 345.108 126.138C343.64 126.911 342.5 128.05 341.689 129.557C340.916 131.064 340.53 132.938 340.53 135.179V151H334.966V107.999H340.53V128.572L339.429 126.37C340.433 124.361 341.979 122.796 344.065 121.676C346.151 120.555 348.585 119.995 351.367 119.995ZM393.48 151V144.509L393.19 143.292V132.223C393.19 129.866 392.495 128.05 391.104 126.775C389.751 125.462 387.704 124.805 384.961 124.805C383.145 124.805 381.368 125.114 379.629 125.732C377.89 126.312 376.422 127.104 375.224 128.108L372.906 123.936C374.49 122.661 376.384 121.695 378.586 121.038C380.827 120.343 383.164 119.995 385.598 119.995C389.809 119.995 393.055 121.019 395.334 123.066C397.614 125.114 398.754 128.244 398.754 132.455V151H393.48ZM383.396 151.348C381.116 151.348 379.107 150.961 377.369 150.189C375.669 149.416 374.355 148.353 373.428 147.001C372.501 145.61 372.037 144.046 372.037 142.307C372.037 140.646 372.423 139.139 373.196 137.787C374.007 136.434 375.302 135.353 377.079 134.541C378.895 133.73 381.329 133.324 384.381 133.324H394.117V137.323H384.613C381.831 137.323 379.957 137.787 378.991 138.714C378.026 139.641 377.543 140.762 377.543 142.075C377.543 143.582 378.141 144.799 379.339 145.726C380.537 146.615 382.198 147.059 384.323 147.059C386.409 147.059 388.225 146.596 389.771 145.668C391.355 144.741 392.495 143.389 393.19 141.612L394.291 145.436C393.557 147.252 392.263 148.701 390.408 149.783C388.554 150.826 386.216 151.348 383.396 151.348ZM419.597 151.348C416.506 151.348 414.111 150.517 412.411 148.856C410.711 147.194 409.861 144.818 409.861 141.727V113.562H415.424V141.496C415.424 143.157 415.83 144.432 416.641 145.321C417.491 146.209 418.689 146.653 420.234 146.653C421.973 146.653 423.422 146.171 424.581 145.205L426.319 149.203C425.469 149.938 424.446 150.478 423.248 150.826C422.089 151.174 420.872 151.348 419.597 151.348ZM404.645 124.863V120.285H424.233V124.863H404.645ZM449.446 119.995C451.958 119.995 454.16 120.478 456.053 121.444C457.985 122.41 459.492 123.878 460.574 125.848C461.655 127.819 462.196 130.311 462.196 133.324V151H456.633V133.962C456.633 130.987 455.899 128.746 454.43 127.239C453.001 125.732 450.973 124.979 448.345 124.979C446.375 124.979 444.656 125.365 443.188 126.138C441.719 126.911 440.58 128.05 439.768 129.557C438.996 131.064 438.609 132.938 438.609 135.179V151H433.046V120.285H438.377V128.572L437.508 126.37C438.513 124.361 440.058 122.796 442.144 121.676C444.231 120.555 446.665 119.995 449.446 119.995ZM473.259 162.591C471.791 162.591 470.362 162.34 468.971 161.837C467.58 161.374 466.382 160.678 465.378 159.751L467.754 155.578C468.527 156.312 469.377 156.873 470.304 157.259C471.231 157.645 472.216 157.839 473.259 157.839C474.612 157.839 475.732 157.491 476.621 156.795C477.509 156.1 478.34 154.864 479.113 153.086L481.025 148.856L481.605 148.16L493.659 120.285H499.107L484.213 154.072C483.324 156.235 482.319 157.935 481.199 159.171C480.117 160.408 478.92 161.277 477.606 161.779C476.292 162.32 474.843 162.591 473.259 162.591ZM480.562 151.985L466.537 120.285H472.332L484.271 147.639L480.562 151.985ZM522.403 151V144.509L522.114 143.292V132.223C522.114 129.866 521.418 128.05 520.027 126.775C518.675 125.462 516.627 124.805 513.884 124.805C512.068 124.805 510.291 125.114 508.553 125.732C506.814 126.312 505.346 127.104 504.148 128.108L501.83 123.936C503.414 122.661 505.307 121.695 507.509 121.038C509.75 120.343 512.088 119.995 514.522 119.995C518.733 119.995 521.978 121.019 524.258 123.066C526.537 125.114 527.677 128.244 527.677 132.455V151H522.403ZM512.32 151.348C510.04 151.348 508.031 150.961 506.292 150.189C504.592 149.416 503.279 148.353 502.352 147.001C501.424 145.61 500.961 144.046 500.961 142.307C500.961 140.646 501.347 139.139 502.12 137.787C502.931 136.434 504.225 135.353 506.003 134.541C507.819 133.73 510.253 133.324 513.305 133.324H523.041V137.323H513.537C510.755 137.323 508.881 137.787 507.915 138.714C506.949 139.641 506.466 140.762 506.466 142.075C506.466 143.582 507.065 144.799 508.263 145.726C509.461 146.615 511.122 147.059 513.247 147.059C515.333 147.059 517.149 146.596 518.694 145.668C520.278 144.741 521.418 143.389 522.114 141.612L523.215 145.436C522.481 147.252 521.186 148.701 519.332 149.783C517.477 150.826 515.14 151.348 512.32 151.348ZM554.348 151V110.433H560.143V145.958H582.108V151H554.348ZM601.227 151.348C597.943 151.348 595.046 150.672 592.534 149.319C590.062 147.967 588.13 146.113 586.739 143.756C585.387 141.399 584.711 138.695 584.711 135.642C584.711 132.59 585.367 129.886 586.681 127.529C588.033 125.172 589.868 123.337 592.187 122.023C594.543 120.671 597.19 119.995 600.126 119.995C603.101 119.995 605.728 120.652 608.008 121.965C610.287 123.279 612.065 125.133 613.34 127.529C614.653 129.886 615.31 132.648 615.31 135.816C615.31 136.048 615.291 136.318 615.252 136.628C615.252 136.937 615.233 137.226 615.194 137.497H589.057V133.498H612.296L610.036 134.889C610.075 132.919 609.669 131.161 608.819 129.615C607.969 128.07 606.791 126.872 605.284 126.022C603.816 125.133 602.097 124.689 600.126 124.689C598.194 124.689 596.475 125.133 594.968 126.022C593.462 126.872 592.283 128.089 591.433 129.673C590.583 131.219 590.158 132.996 590.158 135.005V135.932C590.158 137.98 590.622 139.815 591.549 141.438C592.515 143.022 593.848 144.258 595.548 145.147C597.248 146.035 599.199 146.48 601.401 146.48C603.217 146.48 604.859 146.171 606.327 145.552C607.834 144.934 609.148 144.007 610.268 142.771L613.34 146.364C611.949 147.986 610.21 149.223 608.124 150.073C606.076 150.923 603.777 151.348 601.227 151.348ZM639.32 151.348C636.693 151.348 634.317 150.768 632.192 149.609C630.106 148.411 628.444 146.653 627.208 144.335C626.01 142.017 625.412 139.12 625.412 135.642C625.412 132.165 626.03 129.267 627.266 126.949C628.541 124.631 630.222 122.893 632.308 121.734C634.433 120.574 636.77 119.995 639.32 119.995C642.334 119.995 645 120.652 647.318 121.965C649.636 123.279 651.471 125.114 652.823 127.471C654.176 129.789 654.852 132.513 654.852 135.642C654.852 138.772 654.176 141.515 652.823 143.872C651.471 146.229 649.636 148.064 647.318 149.377C645 150.691 642.334 151.348 639.32 151.348ZM623.035 151V107.999H628.599V128.456L628.019 135.584L628.367 142.713V151H623.035ZM638.857 146.48C640.827 146.48 642.585 146.035 644.13 145.147C645.715 144.258 646.951 143.002 647.84 141.38C648.767 139.718 649.23 137.806 649.23 135.642C649.23 133.44 648.767 131.547 647.84 129.963C646.951 128.34 645.715 127.085 644.13 126.196C642.585 125.307 640.827 124.863 638.857 124.863C636.925 124.863 635.167 125.307 633.583 126.196C632.038 127.085 630.801 128.34 629.874 129.963C628.985 131.547 628.541 133.44 628.541 135.642C628.541 137.806 628.985 139.718 629.874 141.38C630.801 143.002 632.038 144.258 633.583 145.147C635.167 146.035 636.925 146.48 638.857 146.48ZM662.539 151V120.285H668.102V151H662.539ZM665.321 114.373C664.239 114.373 663.331 114.026 662.597 113.33C661.901 112.635 661.554 111.785 661.554 110.78C661.554 109.737 661.901 108.868 662.597 108.172C663.331 107.477 664.239 107.129 665.321 107.129C666.402 107.129 667.291 107.477 667.986 108.172C668.721 108.829 669.088 109.66 669.088 110.664C669.088 111.708 668.74 112.596 668.044 113.33C667.349 114.026 666.441 114.373 665.321 114.373ZM695.126 119.995C697.637 119.995 699.839 120.478 701.733 121.444C703.664 122.41 705.171 123.878 706.253 125.848C707.335 127.819 707.876 130.311 707.876 133.324V151H702.312V133.962C702.312 130.987 701.578 128.746 700.11 127.239C698.68 125.732 696.652 124.979 694.025 124.979C692.054 124.979 690.335 125.365 688.867 126.138C687.399 126.911 686.259 128.05 685.448 129.557C684.675 131.064 684.289 132.938 684.289 135.179V151H678.725V107.999H684.289V128.572L683.187 126.37C684.192 124.361 685.737 122.796 687.824 121.676C689.91 120.555 692.344 119.995 695.126 119.995ZM739.763 151.464C737.367 151.464 735.126 150.961 733.04 149.957C730.954 148.952 729.254 147.503 727.94 145.61L731.301 141.67C732.422 143.215 733.677 144.413 735.068 145.263C736.498 146.074 738.063 146.48 739.763 146.48C744.399 146.48 746.717 143.737 746.717 138.25V115.475H732.055V110.433H752.454V137.96C752.454 142.481 751.373 145.861 749.209 148.102C747.084 150.343 743.935 151.464 739.763 151.464ZM777.125 151.348C773.841 151.348 770.943 150.672 768.432 149.319C765.959 147.967 764.027 146.113 762.637 143.756C761.284 141.399 760.608 138.695 760.608 135.642C760.608 132.59 761.265 129.886 762.579 127.529C763.931 125.172 765.766 123.337 768.084 122.023C770.441 120.671 773.088 119.995 776.024 119.995C778.999 119.995 781.626 120.652 783.906 121.965C786.185 123.279 787.962 125.133 789.237 127.529C790.551 129.886 791.208 132.648 791.208 135.816C791.208 136.048 791.188 136.318 791.15 136.628C791.15 136.937 791.13 137.226 791.092 137.497H764.955V133.498H788.194L785.934 134.889C785.973 132.919 785.567 131.161 784.717 129.615C783.867 128.07 782.688 126.872 781.182 126.022C779.714 125.133 777.994 124.689 776.024 124.689C774.092 124.689 772.373 125.133 770.866 126.022C769.359 126.872 768.181 128.089 767.331 129.673C766.481 131.219 766.056 132.996 766.056 135.005V135.932C766.056 137.98 766.519 139.815 767.447 141.438C768.413 143.022 769.746 144.258 771.446 145.147C773.145 146.035 775.097 146.48 777.299 146.48C779.115 146.48 780.757 146.171 782.225 145.552C783.732 144.934 785.045 144.007 786.166 142.771L789.237 146.364C787.846 147.986 786.108 149.223 784.021 150.073C781.974 150.923 779.675 151.348 777.125 151.348ZM798.933 151V107.999H804.497V151H798.933ZM834.186 151V144.509L833.896 143.292V132.223C833.896 129.866 833.201 128.05 831.81 126.775C830.458 125.462 828.41 124.805 825.667 124.805C823.851 124.805 822.074 125.114 820.335 125.732C818.596 126.312 817.128 127.104 815.931 128.108L813.612 123.936C815.196 122.661 817.09 121.695 819.292 121.038C821.533 120.343 823.87 119.995 826.304 119.995C830.516 119.995 833.761 121.019 836.04 123.066C838.32 125.114 839.46 128.244 839.46 132.455V151H834.186ZM824.102 151.348C821.822 151.348 819.813 150.961 818.075 150.189C816.375 149.416 815.061 148.353 814.134 147.001C813.207 145.61 812.743 144.046 812.743 142.307C812.743 140.646 813.129 139.139 813.902 137.787C814.714 136.434 816.008 135.353 817.785 134.541C819.601 133.73 822.035 133.324 825.087 133.324H834.823V137.323H825.319C822.537 137.323 820.663 137.787 819.698 138.714C818.732 139.641 818.249 140.762 818.249 142.075C818.249 143.582 818.848 144.799 820.045 145.726C821.243 146.615 822.904 147.059 825.029 147.059C827.116 147.059 828.931 146.596 830.477 145.668C832.061 144.741 833.201 143.389 833.896 141.612L834.997 145.436C834.263 147.252 832.969 148.701 831.114 149.783C829.26 150.826 826.922 151.348 824.102 151.348ZM858.564 151.348C856.014 151.348 853.58 151 851.262 150.305C848.983 149.609 847.186 148.759 845.873 147.755L848.191 143.35C849.504 144.239 851.127 144.992 853.059 145.61C854.991 146.229 856.961 146.538 858.97 146.538C861.559 146.538 863.413 146.171 864.534 145.436C865.693 144.702 866.272 143.679 866.272 142.365C866.272 141.399 865.924 140.646 865.229 140.105C864.534 139.564 863.606 139.158 862.447 138.888C861.327 138.617 860.071 138.385 858.68 138.192C857.289 137.96 855.899 137.69 854.508 137.381C853.117 137.033 851.842 136.57 850.683 135.99C849.524 135.372 848.596 134.541 847.901 133.498C847.205 132.416 846.858 130.987 846.858 129.21C846.858 127.355 847.379 125.732 848.423 124.341C849.466 122.951 850.934 121.888 852.827 121.154C854.759 120.381 857.038 119.995 859.665 119.995C861.675 119.995 863.703 120.246 865.751 120.748C867.837 121.212 869.537 121.888 870.85 122.777L868.474 127.181C867.084 126.254 865.635 125.616 864.128 125.269C862.621 124.921 861.114 124.747 859.608 124.747C857.173 124.747 855.358 125.153 854.16 125.964C852.962 126.737 852.363 127.741 852.363 128.978C852.363 130.021 852.711 130.832 853.407 131.412C854.141 131.953 855.068 132.378 856.188 132.687C857.347 132.996 858.622 133.266 860.013 133.498C861.404 133.691 862.795 133.962 864.186 134.309C865.577 134.619 866.832 135.063 867.953 135.642C869.112 136.222 870.039 137.033 870.735 138.076C871.469 139.12 871.836 140.51 871.836 142.249C871.836 144.104 871.295 145.707 870.213 147.059C869.131 148.411 867.605 149.474 865.635 150.247C863.664 150.981 861.307 151.348 858.564 151.348Z" fill="#1E1E1E"/>
<path fill-rule="evenodd" clip-rule="evenodd" d="M54 103.5C54 87.7599 66.7599 75 82.5 75C98.2401 75 111 87.7599 111 103.5C111 119.24 98.2401 132 82.5 132C66.7599 132 54 119.24 54 103.5ZM82.5 71C64.5507 71 50 85.5507 50 103.5C50 121.449 64.5507 136 82.5 136C100.449 136 115 121.449 115 103.5C115 85.5507 100.449 71 82.5 71ZM84.768 87.2322C83.7917 86.2559 82.2088 86.2559 81.2325 87.2322L65.3226 103.142C64.3463 104.118 64.3463 105.701 65.3226 106.678C66.2989 107.654 67.8818 107.654 68.8581 106.678L80.5003 95.0355L80.5003 114.5C80.5003 115.881 81.6195 117 83.0003 117C84.381 117 85.5003 115.881 85.5003 114.5L85.5003 95.0355L97.1424 106.678C98.1187 107.654 99.7016 107.654 100.678 106.678C101.654 105.701 101.654 104.118 100.678 103.142L84.768 87.2322Z" fill="#1E1E1E"/>
<path fill-rule="evenodd" clip-rule="evenodd" d="M969 103.5C969 87.7599 981.76 75 997.5 75C1013.24 75 1026 87.7599 1026 103.5C1026 119.24 1013.24 132 997.5 132C981.76 132 969 119.24 969 103.5ZM997.5 71C979.551 71 965 85.5507 965 103.5C965 121.449 979.551 136 997.5 136C1015.45 136 1030 121.449 1030 103.5C1030 85.5507 1015.45 71 997.5 71ZM999.768 87.2322C998.792 86.2559 997.209 86.2559 996.232 87.2322L980.323 103.142C979.346 104.118 979.346 105.701 980.323 106.678C981.299 107.654 982.882 107.654 983.858 106.678L995.5 95.0355L995.5 114.5C995.5 115.881 996.62 117 998 117C999.381 117 1000.5 115.881 1000.5 114.5L1000.5 95.0355L1012.14 106.678C1013.12 107.654 1014.7 107.654 1015.68 106.678C1016.65 105.701 1016.65 104.118 1015.68 103.142L999.768 87.2322Z" fill="#1E1E1E"/>
</svg>
