<svg width="1080" height="737" viewBox="0 0 1080 737" fill="none" xmlns="http://www.w3.org/2000/svg">
<rect width="1080" height="737" fill="#F1F1F1"/>
<rect x="79" y="241" width="922" height="496" fill="#D9D9D9"/>
<rect x="47" y="47" width="986" height="194" fill="#1E1E1E"/>
<path d="M93.7554 143V95.4925H114.319C118.572 95.4925 122.237 96.1938 125.314 97.5964C128.391 98.9538 130.766 100.922 132.44 103.501C134.114 106.08 134.951 109.157 134.951 112.731C134.951 116.26 134.114 119.314 132.44 121.893C130.766 124.472 128.391 126.463 125.314 127.865C122.237 129.223 118.572 129.902 114.319 129.902H99.8635L104.75 124.947V143H93.7554ZM104.75 126.169L99.8635 120.943H113.709C117.102 120.943 119.636 120.219 121.31 118.771C122.984 117.323 123.821 115.31 123.821 112.731C123.821 110.107 122.984 108.071 121.31 106.623C119.636 105.175 117.102 104.451 113.709 104.451H99.8635L104.75 99.2253V126.169ZM152.913 114.631H175.784V123.183H152.913V114.631ZM153.727 134.177H179.585V143H142.8V95.4925H178.703V104.315H153.727V134.177ZM203.942 143.814C200.142 143.814 196.5 143.317 193.016 142.321C189.532 141.281 186.727 139.946 184.6 138.317L188.333 130.037C190.369 131.485 192.767 132.684 195.527 133.634C198.332 134.539 201.16 134.992 204.01 134.992C206.182 134.992 207.924 134.788 209.236 134.381C210.594 133.928 211.589 133.318 212.222 132.548C212.856 131.779 213.173 130.897 213.173 129.902C213.173 128.635 212.675 127.639 211.679 126.915C210.684 126.146 209.372 125.535 207.743 125.083C206.114 124.585 204.304 124.133 202.314 123.726C200.368 123.273 198.4 122.73 196.409 122.097C194.464 121.463 192.676 120.649 191.048 119.653C189.419 118.658 188.084 117.346 187.043 115.717C186.048 114.088 185.55 112.007 185.55 109.473C185.55 106.759 186.274 104.293 187.722 102.076C189.215 99.8134 191.432 98.0263 194.373 96.7142C197.359 95.3568 201.092 94.6781 205.571 94.6781C208.558 94.6781 211.498 95.0401 214.394 95.764C217.29 96.4427 219.846 97.4833 222.063 98.8859L218.67 107.234C216.453 105.967 214.236 105.039 212.019 104.451C209.802 103.818 207.63 103.501 205.503 103.501C203.377 103.501 201.635 103.75 200.278 104.247C198.92 104.745 197.948 105.401 197.359 106.216C196.771 106.985 196.477 107.89 196.477 108.93C196.477 110.152 196.975 111.147 197.97 111.917C198.966 112.64 200.278 113.229 201.906 113.681C203.535 114.134 205.322 114.586 207.268 115.038C209.259 115.491 211.227 116.011 213.173 116.599C215.163 117.188 216.973 117.979 218.602 118.975C220.231 119.97 221.543 121.282 222.538 122.911C223.579 124.54 224.099 126.599 224.099 129.087C224.099 131.757 223.353 134.2 221.86 136.417C220.367 138.634 218.127 140.421 215.141 141.778C212.2 143.136 208.467 143.814 203.942 143.814ZM225.368 143L246.543 95.4925H257.402L278.644 143H267.107L249.733 101.058H254.076L236.634 143H225.368ZM235.955 132.82L238.874 124.472H263.306L266.292 132.82H235.955ZM283.573 143V95.4925H292.667L320.697 129.698H316.285V95.4925H327.144V143H318.118L290.021 108.795H294.432V143H283.573ZM357.605 143V95.4925H368.599V134.041H392.421V143H357.605ZM392.585 143L413.76 95.4925H424.619L445.862 143H434.324L416.95 101.058H421.293L403.851 143H392.585ZM403.173 132.82L406.091 124.472H430.523L433.51 132.82H403.173ZM459.683 143V123.59L462.194 130.241L441.291 95.4925H452.964L468.981 122.165H462.262L478.347 95.4925H489.138L468.235 130.241L470.678 123.59V143H459.683ZM484.578 143L505.753 95.4925H516.612L537.854 143H526.317L508.943 101.058H513.286L495.844 143H484.578ZM495.165 132.82L498.084 124.472H522.516L525.502 132.82H495.165ZM542.783 143V95.4925H551.877L579.907 129.698H575.495V95.4925H586.354V143H577.328L549.231 108.795H553.642V143H542.783ZM591.35 143L612.525 95.4925H623.384L644.627 143H633.089L615.715 101.058H620.059L602.617 143H591.35ZM601.938 132.82L604.856 124.472H629.289L632.275 132.82H601.938ZM649.556 143V95.4925H658.65L686.679 129.698H682.268V95.4925H693.127V143H684.1L656.003 108.795H660.414V143H649.556ZM723.587 143V95.4925H745.169C750.327 95.4925 754.874 96.4879 758.811 98.4787C762.747 100.424 765.824 103.162 768.041 106.691C770.258 110.22 771.366 114.405 771.366 119.246C771.366 124.042 770.258 128.227 768.041 131.802C765.824 135.331 762.747 138.091 758.811 140.082C754.874 142.027 750.327 143 745.169 143H723.587ZM734.582 133.974H744.626C747.793 133.974 750.531 133.385 752.838 132.209C755.191 130.987 757.001 129.268 758.268 127.051C759.58 124.834 760.236 122.232 760.236 119.246C760.236 116.215 759.58 113.613 758.268 111.441C757.001 109.224 755.191 107.528 752.838 106.351C750.531 105.13 747.793 104.519 744.626 104.519H734.582V133.974ZM789.77 114.631H812.641V123.183H789.77V114.631ZM790.584 134.177H816.442V143H779.658V95.4925H815.56V104.315H790.584V134.177ZM840.8 143.814C836.999 143.814 833.357 143.317 829.873 142.321C826.389 141.281 823.584 139.946 821.457 138.317L825.19 130.037C827.226 131.485 829.624 132.684 832.384 133.634C835.189 134.539 838.017 134.992 840.868 134.992C843.039 134.992 844.781 134.788 846.093 134.381C847.451 133.928 848.446 133.318 849.08 132.548C849.713 131.779 850.03 130.897 850.03 129.902C850.03 128.635 849.532 127.639 848.537 126.915C847.541 126.146 846.229 125.535 844.6 125.083C842.971 124.585 841.162 124.133 839.171 123.726C837.225 123.273 835.257 122.73 833.266 122.097C831.321 121.463 829.534 120.649 827.905 119.653C826.276 118.658 824.941 117.346 823.901 115.717C822.905 114.088 822.408 112.007 822.408 109.473C822.408 106.759 823.131 104.293 824.579 102.076C826.072 99.8134 828.289 98.0263 831.23 96.7142C834.217 95.3568 837.949 94.6781 842.429 94.6781C845.415 94.6781 848.356 95.0401 851.251 95.764C854.147 96.4427 856.703 97.4833 858.92 98.8859L855.527 107.234C853.31 105.967 851.093 105.039 848.876 104.451C846.659 103.818 844.487 103.501 842.361 103.501C840.234 103.501 838.492 103.75 837.135 104.247C835.777 104.745 834.805 105.401 834.217 106.216C833.628 106.985 833.334 107.89 833.334 108.93C833.334 110.152 833.832 111.147 834.827 111.917C835.823 112.64 837.135 113.229 838.764 113.681C840.392 114.134 842.18 114.586 844.125 115.038C846.116 115.491 848.084 116.011 850.03 116.599C852.021 117.188 853.83 117.979 855.459 118.975C857.088 119.97 858.4 121.282 859.395 122.911C860.436 124.54 860.956 126.599 860.956 129.087C860.956 131.757 860.21 134.2 858.717 136.417C857.224 138.634 854.984 140.421 851.998 141.778C849.057 143.136 845.324 143.814 840.8 143.814ZM862.225 143L883.4 95.4925H894.259L915.501 143H903.964L886.59 101.058H890.933L873.491 143H862.225ZM872.813 132.82L875.731 124.472H900.163L903.149 132.82H872.813ZM920.43 143V95.4925H931.425V143H920.43ZM942.699 143V95.4925H951.794L979.823 129.698H975.412V95.4925H986.271V143H977.244L949.147 108.795H953.558V143H942.699ZM181.438 201.814C174.696 201.814 169.425 199.937 165.624 196.181C161.824 192.426 159.924 187.064 159.924 180.097V153.493H170.918V179.69C170.918 184.214 171.846 187.472 173.701 189.462C175.556 191.453 178.157 192.449 181.506 192.449C184.854 192.449 187.455 191.453 189.31 189.462C191.165 187.472 192.093 184.214 192.093 179.69V153.493H202.952V180.097C202.952 187.064 201.051 192.426 197.251 196.181C193.45 199.937 188.179 201.814 181.438 201.814ZM213.816 201V153.493H222.911L250.94 187.698H246.529V153.493H257.388V201H248.361L220.264 166.795H224.675V201H213.816ZM278.468 201V162.451H263.266V153.493H304.665V162.451H289.463V201H278.468ZM330.893 201.814C324.151 201.814 318.88 199.937 315.079 196.181C311.279 192.426 309.379 187.064 309.379 180.097V153.493H320.373V179.69C320.373 184.214 321.301 187.472 323.156 189.462C325.011 191.453 327.612 192.449 330.961 192.449C334.309 192.449 336.91 191.453 338.765 189.462C340.62 187.472 341.548 184.214 341.548 179.69V153.493H352.407V180.097C352.407 187.064 350.506 192.426 346.706 196.181C342.905 199.937 337.634 201.814 330.893 201.814ZM373.112 190.141L372.501 177.45L395.237 153.493H407.453L386.957 175.55L380.849 182.065L373.112 190.141ZM363.271 201V153.493H374.198V201H363.271ZM395.78 201L378.881 180.3L386.075 172.496L408.607 201H395.78ZM442.571 201V162.451H427.368V153.493H468.768V162.451H453.565V201H442.571ZM484.796 172.631H507.667V181.183H484.796V172.631ZM485.61 192.177H511.468V201H474.683V153.493H510.585V162.315H485.61V192.177ZM520.216 201V153.493H529.31L549.535 187.019H544.716L564.601 153.493H573.628L573.763 201H563.448L563.38 169.306H565.28L549.399 195.978H544.445L528.224 169.306H530.532V201H520.216ZM585.035 201V153.493H605.599C609.852 153.493 613.517 154.194 616.593 155.596C619.67 156.954 622.045 158.922 623.719 161.501C625.394 164.08 626.231 167.157 626.231 170.731C626.231 174.26 625.394 177.314 623.719 179.893C622.045 182.472 619.67 184.463 616.593 185.865C613.517 187.223 609.852 187.902 605.599 187.902H591.143L596.029 182.947V201H585.035ZM596.029 184.169L591.143 178.943H604.988C608.381 178.943 610.915 178.219 612.589 176.771C614.263 175.323 615.1 173.31 615.1 170.731C615.1 168.107 614.263 166.071 612.589 164.623C610.915 163.175 608.381 162.451 604.988 162.451H591.143L596.029 157.225V184.169ZM634.08 201V153.493H645.074V192.041H668.896V201H634.08ZM669.06 201L690.235 153.493H701.094L722.337 201H710.799L693.425 159.058H697.769L680.327 201H669.06ZM679.648 190.82L682.566 182.472H706.999L709.985 190.82H679.648ZM734.72 201V162.451H719.518V153.493H760.917V162.451H745.715V201H734.72ZM776.945 172.631H799.817V181.183H776.945V172.631ZM777.76 192.177H803.617V201H766.833V153.493H802.735V162.315H777.76V192.177ZM831.586 201V153.493H842.58V201H831.586ZM853.855 201V153.493H862.949L890.979 187.698H886.567V153.493H897.426V201H888.4L860.302 166.795H864.714V201H853.855ZM908.666 201V153.493H919.661V201H908.666Z" fill="#F1F1F1"/>
<path d="M113.913 551V496.433H137.533C142.418 496.433 146.628 497.238 150.162 498.849C153.696 500.408 156.424 502.669 158.347 505.631C160.27 508.593 161.231 512.127 161.231 516.233C161.231 520.286 160.27 523.794 158.347 526.756C156.424 529.667 153.696 531.901 150.162 533.46C146.628 535.02 142.418 535.799 137.533 535.799H120.929L126.542 530.264V551H113.913ZM148.603 551L134.961 531.2H148.447L162.244 551H148.603ZM126.542 531.668L120.929 525.743H136.832C140.729 525.743 143.64 524.912 145.562 523.249C147.485 521.534 148.447 519.195 148.447 516.233C148.447 513.219 147.485 510.88 145.562 509.217C143.64 507.554 140.729 506.722 136.832 506.722H120.929L126.542 500.72V531.668ZM195.168 551.624C191.634 551.624 188.542 550.844 185.892 549.285C183.241 547.726 181.163 545.361 179.655 542.191C178.2 538.969 177.473 534.916 177.473 530.031C177.473 525.093 178.174 521.04 179.577 517.87C180.981 514.7 183.007 512.335 185.658 510.776C188.308 509.217 191.478 508.437 195.168 508.437C199.118 508.437 202.652 509.347 205.77 511.166C208.94 512.933 211.434 515.427 213.253 518.649C215.124 521.871 216.06 525.665 216.06 530.031C216.06 534.448 215.124 538.268 213.253 541.49C211.434 544.712 208.94 547.206 205.77 548.973C202.652 550.74 199.118 551.624 195.168 551.624ZM170.379 566.123V509.061H181.994V517.636L181.76 530.108L182.54 542.503V566.123H170.379ZM193.063 541.646C195.09 541.646 196.883 541.178 198.442 540.242C200.053 539.307 201.327 537.982 202.262 536.267C203.249 534.5 203.743 532.421 203.743 530.031C203.743 527.588 203.249 525.509 202.262 523.794C201.327 522.079 200.053 520.754 198.442 519.819C196.883 518.883 195.09 518.415 193.063 518.415C191.037 518.415 189.218 518.883 187.607 519.819C185.996 520.754 184.722 522.079 183.787 523.794C182.852 525.509 182.384 527.588 182.384 530.031C182.384 532.421 182.852 534.5 183.787 536.267C184.722 537.982 185.996 539.307 187.607 540.242C189.218 541.178 191.037 541.646 193.063 541.646ZM228.267 551.624C226.188 551.624 224.395 550.922 222.888 549.519C221.433 548.064 220.705 546.219 220.705 543.984C220.705 541.75 221.433 539.957 222.888 538.605C224.395 537.202 226.188 536.501 228.267 536.501C230.397 536.501 232.19 537.202 233.646 538.605C235.101 539.957 235.828 541.75 235.828 543.984C235.828 546.219 235.101 548.064 233.646 549.519C232.19 550.922 230.397 551.624 228.267 551.624ZM271.993 551V501.11L277.449 506.567H261.079V496.433H284.621V551H271.993ZM317.486 551.935C313.017 551.935 309.015 550.844 305.481 548.661C301.948 546.427 299.167 543.205 297.14 538.995C295.114 534.786 294.1 529.693 294.1 523.716C294.1 517.74 295.114 512.647 297.14 508.437C299.167 504.228 301.948 501.032 305.481 498.849C309.015 496.614 313.017 495.497 317.486 495.497C322.008 495.497 326.009 496.614 329.491 498.849C333.025 501.032 335.805 504.228 337.832 508.437C339.859 512.647 340.872 517.74 340.872 523.716C340.872 529.693 339.859 534.786 337.832 538.995C335.805 543.205 333.025 546.427 329.491 548.661C326.009 550.844 322.008 551.935 317.486 551.935ZM317.486 541.256C319.617 541.256 321.462 540.658 323.021 539.463C324.632 538.268 325.879 536.371 326.763 533.772C327.698 531.174 328.166 527.822 328.166 523.716C328.166 519.611 327.698 516.259 326.763 513.66C325.879 511.062 324.632 509.165 323.021 507.97C321.462 506.774 319.617 506.177 317.486 506.177C315.408 506.177 313.563 506.774 311.952 507.97C310.393 509.165 309.145 511.062 308.21 513.66C307.326 516.259 306.885 519.611 306.885 523.716C306.885 527.822 307.326 531.174 308.21 533.772C309.145 536.371 310.393 538.268 311.952 539.463C313.563 540.658 315.408 541.256 317.486 541.256ZM353.19 551.624C351.111 551.624 349.318 550.922 347.811 549.519C346.356 548.064 345.629 546.219 345.629 543.984C345.629 541.75 346.356 539.957 347.811 538.605C349.318 537.202 351.111 536.501 353.19 536.501C355.321 536.501 357.114 537.202 358.569 538.605C360.024 539.957 360.752 541.75 360.752 543.984C360.752 546.219 360.024 548.064 358.569 549.519C357.114 550.922 355.321 551.624 353.19 551.624ZM384.973 551.935C381.179 551.935 377.412 551.442 373.67 550.454C369.98 549.415 366.81 547.96 364.16 546.089L369.149 536.423C371.227 537.93 373.618 539.125 376.32 540.009C379.075 540.892 381.855 541.334 384.661 541.334C387.832 541.334 390.326 540.71 392.145 539.463C393.964 538.216 394.873 536.475 394.873 534.24C394.873 532.837 394.51 531.59 393.782 530.498C393.054 529.407 391.755 528.575 389.884 528.004C388.065 527.432 385.493 527.146 382.167 527.146H368.213L371.02 496.433H404.306V506.567H375.541L382.089 500.798L380.14 522.703L373.592 516.934H385.129C390.534 516.934 394.873 517.688 398.147 519.195C401.473 520.65 403.89 522.651 405.397 525.197C406.904 527.744 407.658 530.628 407.658 533.85C407.658 537.072 406.852 540.061 405.241 542.815C403.63 545.517 401.136 547.726 397.758 549.441C394.432 551.104 390.17 551.935 384.973 551.935ZM436.167 551.935C431.698 551.935 427.696 550.844 424.163 548.661C420.629 546.427 417.848 543.205 415.821 538.995C413.795 534.786 412.781 529.693 412.781 523.716C412.781 517.74 413.795 512.647 415.821 508.437C417.848 504.228 420.629 501.032 424.163 498.849C427.696 496.614 431.698 495.497 436.167 495.497C440.689 495.497 444.69 496.614 448.172 498.849C451.706 501.032 454.486 504.228 456.513 508.437C458.54 512.647 459.553 517.74 459.553 523.716C459.553 529.693 458.54 534.786 456.513 538.995C454.486 543.205 451.706 546.427 448.172 548.661C444.69 550.844 440.689 551.935 436.167 551.935ZM436.167 541.256C438.298 541.256 440.143 540.658 441.702 539.463C443.313 538.268 444.56 536.371 445.444 533.772C446.379 531.174 446.847 527.822 446.847 523.716C446.847 519.611 446.379 516.259 445.444 513.66C444.56 511.062 443.313 509.165 441.702 507.97C440.143 506.774 438.298 506.177 436.167 506.177C434.089 506.177 432.244 506.774 430.633 507.97C429.074 509.165 427.826 511.062 426.891 513.66C426.007 516.259 425.566 519.611 425.566 523.716C425.566 527.822 426.007 531.174 426.891 533.772C427.826 536.371 429.074 538.268 430.633 539.463C432.244 540.658 434.089 541.256 436.167 541.256ZM489.075 551.935C484.606 551.935 480.604 550.844 477.07 548.661C473.536 546.427 470.756 543.205 468.729 538.995C466.703 534.786 465.689 529.693 465.689 523.716C465.689 517.74 466.703 512.647 468.729 508.437C470.756 504.228 473.536 501.032 477.07 498.849C480.604 496.614 484.606 495.497 489.075 495.497C493.597 495.497 497.598 496.614 501.08 498.849C504.614 501.032 507.394 504.228 509.421 508.437C511.448 512.647 512.461 517.74 512.461 523.716C512.461 529.693 511.448 534.786 509.421 538.995C507.394 543.205 504.614 546.427 501.08 548.661C497.598 550.844 493.597 551.935 489.075 551.935ZM489.075 541.256C491.206 541.256 493.051 540.658 494.61 539.463C496.221 538.268 497.468 536.371 498.352 533.772C499.287 531.174 499.755 527.822 499.755 523.716C499.755 519.611 499.287 516.259 498.352 513.66C497.468 511.062 496.221 509.165 494.61 507.97C493.051 506.774 491.206 506.177 489.075 506.177C486.996 506.177 485.152 506.774 483.541 507.97C481.981 509.165 480.734 511.062 479.799 513.66C478.915 516.259 478.474 519.611 478.474 523.716C478.474 527.822 478.915 531.174 479.799 533.772C480.734 536.371 481.981 538.268 483.541 539.463C485.152 540.658 486.996 541.256 489.075 541.256Z" fill="#9A2828"/>
<path d="M184.75 359V333.44H174.67V327.5H202.12V333.44H192.04V359H184.75ZM200.32 359L214.36 327.5H221.56L235.645 359H227.995L216.475 331.19H219.355L207.79 359H200.32ZM207.34 352.25L209.275 346.715H225.475L227.455 352.25H207.34ZM238.913 359V327.5H244.943L263.528 350.18H260.603V327.5H267.803V359H261.818L243.188 336.32H246.113V359H238.913ZM275.256 359V327.5H288.891C291.711 327.5 294.141 327.965 296.181 328.895C298.221 329.795 299.796 331.1 300.906 332.81C302.016 334.52 302.571 336.56 302.571 338.93C302.571 341.27 302.016 343.295 300.906 345.005C299.796 346.715 298.221 348.035 296.181 348.965C294.141 349.865 291.711 350.315 288.891 350.315H279.306L282.546 347.03V359H275.256ZM282.546 347.84L279.306 344.375H288.486C290.736 344.375 292.416 343.895 293.526 342.935C294.636 341.975 295.191 340.64 295.191 338.93C295.191 337.19 294.636 335.84 293.526 334.88C292.416 333.92 290.736 333.44 288.486 333.44H279.306L282.546 329.975V347.84ZM302.053 359L316.093 327.5H323.293L337.378 359H329.728L318.208 331.19H321.088L309.523 359H302.053ZM309.073 352.25L311.008 346.715H327.208L329.188 352.25H309.073ZM360.141 341.675H375.261V347.525H360.141V341.675ZM360.681 359H353.391V327.5H377.196V333.35H360.681V359ZM382.131 359V327.5H389.421V359H382.131ZM396.897 359V327.5H404.187V353.06H419.982V359H396.897ZM430.76 340.19H445.925V345.86H430.76V340.19ZM431.3 353.15H448.445V359H424.055V327.5H447.86V333.35H431.3V353.15ZM207.251 397V365.5H220.886C223.706 365.5 226.136 365.965 228.176 366.895C230.216 367.795 231.791 369.1 232.901 370.81C234.011 372.52 234.566 374.56 234.566 376.93C234.566 379.27 234.011 381.295 232.901 383.005C231.791 384.715 230.216 386.035 228.176 386.965C226.136 387.865 223.706 388.315 220.886 388.315H211.301L214.541 385.03V397H207.251ZM214.541 385.84L211.301 382.375H220.481C222.731 382.375 224.411 381.895 225.521 380.935C226.631 379.975 227.186 378.64 227.186 376.93C227.186 375.19 226.631 373.84 225.521 372.88C224.411 371.92 222.731 371.44 220.481 371.44H211.301L214.541 367.975V385.84ZM239.77 397V365.5H253.405C256.225 365.5 258.655 365.965 260.695 366.895C262.735 367.795 264.31 369.1 265.42 370.81C266.53 372.52 267.085 374.56 267.085 376.93C267.085 379.27 266.53 381.295 265.42 383.005C264.31 384.685 262.735 385.975 260.695 386.875C258.655 387.775 256.225 388.225 253.405 388.225H243.82L247.06 385.03V397H239.77ZM259.795 397L251.92 385.57H259.705L267.67 397H259.795ZM247.06 385.84L243.82 382.42H253C255.25 382.42 256.93 381.94 258.04 380.98C259.15 379.99 259.705 378.64 259.705 376.93C259.705 375.19 259.15 373.84 258.04 372.88C256.93 371.92 255.25 371.44 253 371.44H243.82L247.06 367.975V385.84ZM288.161 397.54C285.671 397.54 283.361 397.135 281.231 396.325C279.131 395.515 277.301 394.375 275.741 392.905C274.211 391.435 273.011 389.71 272.141 387.73C271.301 385.75 270.881 383.59 270.881 381.25C270.881 378.91 271.301 376.75 272.141 374.77C273.011 372.79 274.226 371.065 275.786 369.595C277.346 368.125 279.176 366.985 281.276 366.175C283.376 365.365 285.656 364.96 288.116 364.96C290.606 364.96 292.886 365.365 294.956 366.175C297.056 366.985 298.871 368.125 300.401 369.595C301.961 371.065 303.176 372.79 304.046 374.77C304.916 376.72 305.351 378.88 305.351 381.25C305.351 383.59 304.916 385.765 304.046 387.775C303.176 389.755 301.961 391.48 300.401 392.95C298.871 394.39 297.056 395.515 294.956 396.325C292.886 397.135 290.621 397.54 288.161 397.54ZM288.116 391.33C289.526 391.33 290.816 391.09 291.986 390.61C293.186 390.13 294.236 389.44 295.136 388.54C296.036 387.64 296.726 386.575 297.206 385.345C297.716 384.115 297.971 382.75 297.971 381.25C297.971 379.75 297.716 378.385 297.206 377.155C296.726 375.925 296.036 374.86 295.136 373.96C294.266 373.06 293.231 372.37 292.031 371.89C290.831 371.41 289.526 371.17 288.116 371.17C286.706 371.17 285.401 371.41 284.201 371.89C283.031 372.37 281.996 373.06 281.096 373.96C280.196 374.86 279.491 375.925 278.981 377.155C278.501 378.385 278.261 379.75 278.261 381.25C278.261 382.72 278.501 384.085 278.981 385.345C279.491 386.575 280.181 387.64 281.051 388.54C281.951 389.44 283.001 390.13 284.201 390.61C285.401 391.09 286.706 391.33 288.116 391.33ZM315.976 397.54C313.846 397.54 311.881 397.15 310.081 396.37C308.311 395.56 306.856 394.42 305.716 392.95L309.766 388.09C310.636 389.23 311.551 390.1 312.511 390.7C313.471 391.27 314.506 391.555 315.616 391.555C318.586 391.555 320.071 389.815 320.071 386.335V371.35H309.001V365.5H327.316V385.93C327.316 389.83 326.356 392.74 324.436 394.66C322.516 396.58 319.696 397.54 315.976 397.54ZM341.221 378.19H356.386V383.86H341.221V378.19ZM341.761 391.15H358.906V397H334.516V365.5H358.321V371.35H341.761V391.15ZM379.782 397.54C377.352 397.54 375.087 397.15 372.987 396.37C370.917 395.56 369.117 394.42 367.587 392.95C366.057 391.48 364.857 389.755 363.987 387.775C363.147 385.795 362.727 383.62 362.727 381.25C362.727 378.88 363.147 376.705 363.987 374.725C364.857 372.745 366.057 371.02 367.587 369.55C369.147 368.08 370.962 366.955 373.032 366.175C375.102 365.365 377.367 364.96 379.827 364.96C382.557 364.96 385.017 365.44 387.207 366.4C389.427 367.33 391.287 368.71 392.787 370.54L388.107 374.86C387.027 373.63 385.827 372.715 384.507 372.115C383.187 371.485 381.747 371.17 380.187 371.17C378.717 371.17 377.367 371.41 376.137 371.89C374.907 372.37 373.842 373.06 372.942 373.96C372.042 374.86 371.337 375.925 370.827 377.155C370.347 378.385 370.107 379.75 370.107 381.25C370.107 382.75 370.347 384.115 370.827 385.345C371.337 386.575 372.042 387.64 372.942 388.54C373.842 389.44 374.907 390.13 376.137 390.61C377.367 391.09 378.717 391.33 380.187 391.33C381.747 391.33 383.187 391.03 384.507 390.43C385.827 389.8 387.027 388.855 388.107 387.595L392.787 391.915C391.287 393.745 389.427 395.14 387.207 396.1C385.017 397.06 382.542 397.54 379.782 397.54ZM403.927 397V371.44H393.847V365.5H421.297V371.44H411.217V397H403.927Z" fill="#212121"/>
<path d="M241.706 308L245.576 276.5H248.006L244.136 308H241.706ZM224.651 299.45V296.975H251.876V299.45H224.651ZM230.006 308L233.876 276.5H236.351L232.436 308H230.006ZM226.091 287.525V285.05H253.316V287.525H226.091ZM259.809 308V276.5H271.599C274.269 276.5 276.564 276.935 278.484 277.805C280.404 278.645 281.874 279.875 282.894 281.495C283.944 283.085 284.469 285.02 284.469 287.3C284.469 289.52 283.944 291.44 282.894 293.06C281.874 294.65 280.404 295.88 278.484 296.75C276.564 297.62 274.269 298.055 271.599 298.055H261.654L263.139 296.48V308H259.809ZM263.139 296.75L261.654 295.13H271.509C274.659 295.13 277.044 294.455 278.664 293.105C280.314 291.725 281.139 289.79 281.139 287.3C281.139 284.78 280.314 282.83 278.664 281.45C277.044 280.07 274.659 279.38 271.509 279.38H261.654L263.139 277.805V296.75ZM305.579 308V302.78L305.444 301.925V293.195C305.444 291.185 304.874 289.64 303.734 288.56C302.624 287.48 300.959 286.94 298.739 286.94C297.209 286.94 295.754 287.195 294.374 287.705C292.994 288.215 291.824 288.89 290.864 289.73L289.424 287.345C290.624 286.325 292.064 285.545 293.744 285.005C295.424 284.435 297.194 284.15 299.054 284.15C302.114 284.15 304.469 284.915 306.119 286.445C307.799 287.945 308.639 290.24 308.639 293.33V308H305.579ZM297.434 308.225C295.664 308.225 294.119 307.94 292.799 307.37C291.509 306.77 290.519 305.96 289.829 304.94C289.139 303.89 288.794 302.69 288.794 301.34C288.794 300.11 289.079 299 289.649 298.01C290.249 296.99 291.209 296.18 292.529 295.58C293.879 294.95 295.679 294.635 297.929 294.635H306.074V297.02H298.019C295.739 297.02 294.149 297.425 293.249 298.235C292.379 299.045 291.944 300.05 291.944 301.25C291.944 302.6 292.469 303.68 293.519 304.49C294.569 305.3 296.039 305.705 297.929 305.705C299.729 305.705 301.274 305.3 302.564 304.49C303.884 303.65 304.844 302.45 305.444 300.89L306.164 303.095C305.564 304.655 304.514 305.9 303.014 306.83C301.544 307.76 299.684 308.225 297.434 308.225ZM319.837 301.88L319.927 297.785L334.642 284.375H338.557L328.162 294.32L326.362 295.85L319.837 301.88ZM317.317 308V274.61H320.512V308H317.317ZM335.632 308L325.777 295.715L327.847 293.24L339.547 308H335.632ZM353.412 308.225C350.952 308.225 348.792 307.715 346.932 306.695C345.072 305.645 343.617 304.22 342.567 302.42C341.517 300.59 340.992 298.505 340.992 296.165C340.992 293.825 341.487 291.755 342.477 289.955C343.497 288.155 344.877 286.745 346.617 285.725C348.387 284.675 350.367 284.15 352.557 284.15C354.777 284.15 356.742 284.66 358.452 285.68C360.192 286.67 361.557 288.08 362.547 289.91C363.537 291.71 364.032 293.795 364.032 296.165C364.032 296.315 364.017 296.48 363.987 296.66C363.987 296.81 363.987 296.975 363.987 297.155H343.422V294.77H362.277L361.017 295.715C361.017 294.005 360.642 292.49 359.892 291.17C359.172 289.82 358.182 288.77 356.922 288.02C355.662 287.27 354.207 286.895 352.557 286.895C350.937 286.895 349.482 287.27 348.192 288.02C346.902 288.77 345.897 289.82 345.177 291.17C344.457 292.52 344.097 294.065 344.097 295.805V296.3C344.097 298.1 344.487 299.69 345.267 301.07C346.077 302.42 347.187 303.485 348.597 304.265C350.037 305.015 351.672 305.39 353.502 305.39C354.942 305.39 356.277 305.135 357.507 304.625C358.767 304.115 359.847 303.335 360.747 302.285L362.547 304.355C361.497 305.615 360.177 306.575 358.587 307.235C357.027 307.895 355.302 308.225 353.412 308.225ZM378.005 308.225C375.785 308.225 374.075 307.625 372.875 306.425C371.675 305.225 371.075 303.53 371.075 301.34V279.155H374.27V301.16C374.27 302.54 374.615 303.605 375.305 304.355C376.025 305.105 377.045 305.48 378.365 305.48C379.775 305.48 380.945 305.075 381.875 304.265L383 306.56C382.37 307.13 381.605 307.55 380.705 307.82C379.835 308.09 378.935 308.225 378.005 308.225ZM366.845 287.03V284.375H381.47V287.03H366.845ZM391.225 308V277.85L392.665 279.38H383.8V276.5H394.465V308H391.225Z" fill="#212121"/>
<path d="M693.74 308L697.61 276.5H700.04L696.17 308H693.74ZM676.685 299.45V296.975H703.91V299.45H676.685ZM682.04 308L685.91 276.5H688.385L684.47 308H682.04ZM678.125 287.525V285.05H705.35V287.525H678.125ZM711.843 308V276.5H723.633C726.303 276.5 728.598 276.935 730.518 277.805C732.438 278.645 733.908 279.875 734.928 281.495C735.978 283.085 736.503 285.02 736.503 287.3C736.503 289.52 735.978 291.44 734.928 293.06C733.908 294.65 732.438 295.88 730.518 296.75C728.598 297.62 726.303 298.055 723.633 298.055H713.688L715.173 296.48V308H711.843ZM715.173 296.75L713.688 295.13H723.543C726.693 295.13 729.078 294.455 730.698 293.105C732.348 291.725 733.173 289.79 733.173 287.3C733.173 284.78 732.348 282.83 730.698 281.45C729.078 280.07 726.693 279.38 723.543 279.38H713.688L715.173 277.805V296.75ZM757.614 308V302.78L757.479 301.925V293.195C757.479 291.185 756.909 289.64 755.769 288.56C754.659 287.48 752.994 286.94 750.774 286.94C749.244 286.94 747.789 287.195 746.409 287.705C745.029 288.215 743.859 288.89 742.899 289.73L741.459 287.345C742.659 286.325 744.099 285.545 745.779 285.005C747.459 284.435 749.229 284.15 751.089 284.15C754.149 284.15 756.504 284.915 758.154 286.445C759.834 287.945 760.674 290.24 760.674 293.33V308H757.614ZM749.469 308.225C747.699 308.225 746.154 307.94 744.834 307.37C743.544 306.77 742.554 305.96 741.864 304.94C741.174 303.89 740.829 302.69 740.829 301.34C740.829 300.11 741.114 299 741.684 298.01C742.284 296.99 743.244 296.18 744.564 295.58C745.914 294.95 747.714 294.635 749.964 294.635H758.109V297.02H750.054C747.774 297.02 746.184 297.425 745.284 298.235C744.414 299.045 743.979 300.05 743.979 301.25C743.979 302.6 744.504 303.68 745.554 304.49C746.604 305.3 748.074 305.705 749.964 305.705C751.764 305.705 753.309 305.3 754.599 304.49C755.919 303.65 756.879 302.45 757.479 300.89L758.199 303.095C757.599 304.655 756.549 305.9 755.049 306.83C753.579 307.76 751.719 308.225 749.469 308.225ZM771.871 301.88L771.961 297.785L786.676 284.375H790.591L780.196 294.32L778.396 295.85L771.871 301.88ZM769.351 308V274.61H772.546V308H769.351ZM787.666 308L777.811 295.715L779.881 293.24L791.581 308H787.666ZM805.446 308.225C802.986 308.225 800.826 307.715 798.966 306.695C797.106 305.645 795.651 304.22 794.601 302.42C793.551 300.59 793.026 298.505 793.026 296.165C793.026 293.825 793.521 291.755 794.511 289.955C795.531 288.155 796.911 286.745 798.651 285.725C800.421 284.675 802.401 284.15 804.591 284.15C806.811 284.15 808.776 284.66 810.486 285.68C812.226 286.67 813.591 288.08 814.581 289.91C815.571 291.71 816.066 293.795 816.066 296.165C816.066 296.315 816.051 296.48 816.021 296.66C816.021 296.81 816.021 296.975 816.021 297.155H795.456V294.77H814.311L813.051 295.715C813.051 294.005 812.676 292.49 811.926 291.17C811.206 289.82 810.216 288.77 808.956 288.02C807.696 287.27 806.241 286.895 804.591 286.895C802.971 286.895 801.516 287.27 800.226 288.02C798.936 288.77 797.931 289.82 797.211 291.17C796.491 292.52 796.131 294.065 796.131 295.805V296.3C796.131 298.1 796.521 299.69 797.301 301.07C798.111 302.42 799.221 303.485 800.631 304.265C802.071 305.015 803.706 305.39 805.536 305.39C806.976 305.39 808.311 305.135 809.541 304.625C810.801 304.115 811.881 303.335 812.781 302.285L814.581 304.355C813.531 305.615 812.211 306.575 810.621 307.235C809.061 307.895 807.336 308.225 805.446 308.225ZM830.039 308.225C827.819 308.225 826.109 307.625 824.909 306.425C823.709 305.225 823.109 303.53 823.109 301.34V279.155H826.304V301.16C826.304 302.54 826.649 303.605 827.339 304.355C828.059 305.105 829.079 305.48 830.399 305.48C831.809 305.48 832.979 305.075 833.909 304.265L835.034 306.56C834.404 307.13 833.639 307.55 832.739 307.82C831.869 308.09 830.969 308.225 830.039 308.225ZM818.879 287.03V284.375H833.504V287.03H818.879ZM837.799 308V305.705L850.894 292.88C852.094 291.71 852.994 290.69 853.594 289.82C854.194 288.92 854.599 288.08 854.809 287.3C855.019 286.52 855.124 285.785 855.124 285.095C855.124 283.265 854.494 281.825 853.234 280.775C852.004 279.725 850.174 279.2 847.744 279.2C845.884 279.2 844.234 279.485 842.794 280.055C841.384 280.625 840.169 281.51 839.149 282.71L836.854 280.73C838.084 279.29 839.659 278.18 841.579 277.4C843.499 276.62 845.644 276.23 848.014 276.23C850.144 276.23 851.989 276.575 853.549 277.265C855.109 277.925 856.309 278.9 857.149 280.19C858.019 281.48 858.454 282.995 858.454 284.735C858.454 285.755 858.304 286.76 858.004 287.75C857.734 288.74 857.224 289.79 856.474 290.9C855.754 291.98 854.689 293.21 853.279 294.59L841.264 306.38L840.364 305.12H859.894V308H837.799Z" fill="#212121"/>
<path d="M611.395 357V325.5H626.785C630.745 325.5 633.715 326.25 635.695 327.75C637.705 329.25 638.71 331.23 638.71 333.69C638.71 335.34 638.305 336.78 637.495 338.01C636.685 339.21 635.575 340.14 634.165 340.8C632.755 341.46 631.135 341.79 629.305 341.79L630.16 339.945C632.14 339.945 633.895 340.275 635.425 340.935C636.955 341.565 638.14 342.51 638.98 343.77C639.85 345.03 640.285 346.575 640.285 348.405C640.285 351.105 639.22 353.22 637.09 354.75C634.96 356.25 631.825 357 627.685 357H611.395ZM618.64 351.51H627.145C629.035 351.51 630.46 351.21 631.42 350.61C632.41 349.98 632.905 348.99 632.905 347.64C632.905 346.32 632.41 345.345 631.42 344.715C630.46 344.055 629.035 343.725 627.145 343.725H618.1V338.415H625.885C627.655 338.415 629.005 338.115 629.935 337.515C630.895 336.885 631.375 335.94 631.375 334.68C631.375 333.45 630.895 332.535 629.935 331.935C629.005 331.305 627.655 330.99 625.885 330.99H618.64V351.51ZM652.509 338.19H667.674V343.86H652.509V338.19ZM653.049 351.15H670.194V357H645.804V325.5H669.609V331.35H653.049V351.15ZM675.995 357V325.5H689.63C692.45 325.5 694.88 325.965 696.92 326.895C698.96 327.795 700.535 329.1 701.645 330.81C702.755 332.52 703.31 334.56 703.31 336.93C703.31 339.27 702.755 341.295 701.645 343.005C700.535 344.685 698.96 345.975 696.92 346.875C694.88 347.775 692.45 348.225 689.63 348.225H680.045L683.285 345.03V357H675.995ZM696.02 357L688.145 345.57H695.93L703.895 357H696.02ZM683.285 345.84L680.045 342.42H689.225C691.475 342.42 693.155 341.94 694.265 340.98C695.375 339.99 695.93 338.64 695.93 336.93C695.93 335.19 695.375 333.84 694.265 332.88C693.155 331.92 691.475 331.44 689.225 331.44H680.045L683.285 327.975V345.84ZM709.086 357V325.5H716.376V357H709.086ZM730.376 349.8L729.971 341.385L745.046 325.5H753.146L739.556 340.125L735.506 344.445L730.376 349.8ZM723.851 357V325.5H731.096V357H723.851ZM745.406 357L734.201 343.275L738.971 338.1L753.911 357H745.406ZM770.717 357.54C766.247 357.54 762.752 356.295 760.232 353.805C757.712 351.315 756.452 347.76 756.452 343.14V325.5H763.742V342.87C763.742 345.87 764.357 348.03 765.587 349.35C766.817 350.67 768.542 351.33 770.762 351.33C772.982 351.33 774.707 350.67 775.937 349.35C777.167 348.03 777.782 345.87 777.782 342.87V325.5H784.982V343.14C784.982 347.76 783.722 351.315 781.202 353.805C778.682 356.295 775.187 357.54 770.717 357.54ZM798.184 357V331.44H788.104V325.5H815.554V331.44H805.474V357H798.184ZM838.97 339.675H854.09V345.525H838.97V339.675ZM839.51 357H832.22V325.5H856.025V331.35H839.51V357ZM860.961 357V325.5H868.251V357H860.961ZM875.726 357V325.5H883.016V351.06H898.811V357H875.726ZM909.589 338.19H924.754V343.86H909.589V338.19ZM910.129 351.15H927.274V357H902.884V325.5H926.689V331.35H910.129V351.15ZM663.251 395V363.5H676.886C679.706 363.5 682.136 363.965 684.176 364.895C686.216 365.795 687.791 367.1 688.901 368.81C690.011 370.52 690.566 372.56 690.566 374.93C690.566 377.27 690.011 379.295 688.901 381.005C687.791 382.715 686.216 384.035 684.176 384.965C682.136 385.865 679.706 386.315 676.886 386.315H667.301L670.541 383.03V395H663.251ZM670.541 383.84L667.301 380.375H676.481C678.731 380.375 680.411 379.895 681.521 378.935C682.631 377.975 683.186 376.64 683.186 374.93C683.186 373.19 682.631 371.84 681.521 370.88C680.411 369.92 678.731 369.44 676.481 369.44H667.301L670.541 365.975V383.84ZM695.77 395V363.5H709.405C712.225 363.5 714.655 363.965 716.695 364.895C718.735 365.795 720.31 367.1 721.42 368.81C722.53 370.52 723.085 372.56 723.085 374.93C723.085 377.27 722.53 379.295 721.42 381.005C720.31 382.685 718.735 383.975 716.695 384.875C714.655 385.775 712.225 386.225 709.405 386.225H699.82L703.06 383.03V395H695.77ZM715.795 395L707.92 383.57H715.705L723.67 395H715.795ZM703.06 383.84L699.82 380.42H709C711.25 380.42 712.93 379.94 714.04 378.98C715.15 377.99 715.705 376.64 715.705 374.93C715.705 373.19 715.15 371.84 714.04 370.88C712.93 369.92 711.25 369.44 709 369.44H699.82L703.06 365.975V383.84ZM744.161 395.54C741.671 395.54 739.361 395.135 737.231 394.325C735.131 393.515 733.301 392.375 731.741 390.905C730.211 389.435 729.011 387.71 728.141 385.73C727.301 383.75 726.881 381.59 726.881 379.25C726.881 376.91 727.301 374.75 728.141 372.77C729.011 370.79 730.226 369.065 731.786 367.595C733.346 366.125 735.176 364.985 737.276 364.175C739.376 363.365 741.656 362.96 744.116 362.96C746.606 362.96 748.886 363.365 750.956 364.175C753.056 364.985 754.871 366.125 756.401 367.595C757.961 369.065 759.176 370.79 760.046 372.77C760.916 374.72 761.351 376.88 761.351 379.25C761.351 381.59 760.916 383.765 760.046 385.775C759.176 387.755 757.961 389.48 756.401 390.95C754.871 392.39 753.056 393.515 750.956 394.325C748.886 395.135 746.621 395.54 744.161 395.54ZM744.116 389.33C745.526 389.33 746.816 389.09 747.986 388.61C749.186 388.13 750.236 387.44 751.136 386.54C752.036 385.64 752.726 384.575 753.206 383.345C753.716 382.115 753.971 380.75 753.971 379.25C753.971 377.75 753.716 376.385 753.206 375.155C752.726 373.925 752.036 372.86 751.136 371.96C750.266 371.06 749.231 370.37 748.031 369.89C746.831 369.41 745.526 369.17 744.116 369.17C742.706 369.17 741.401 369.41 740.201 369.89C739.031 370.37 737.996 371.06 737.096 371.96C736.196 372.86 735.491 373.925 734.981 375.155C734.501 376.385 734.261 377.75 734.261 379.25C734.261 380.72 734.501 382.085 734.981 383.345C735.491 384.575 736.181 385.64 737.051 386.54C737.951 387.44 739.001 388.13 740.201 388.61C741.401 389.09 742.706 389.33 744.116 389.33ZM771.976 395.54C769.846 395.54 767.881 395.15 766.081 394.37C764.311 393.56 762.856 392.42 761.716 390.95L765.766 386.09C766.636 387.23 767.551 388.1 768.511 388.7C769.471 389.27 770.506 389.555 771.616 389.555C774.586 389.555 776.071 387.815 776.071 384.335V369.35H765.001V363.5H783.316V383.93C783.316 387.83 782.356 390.74 780.436 392.66C778.516 394.58 775.696 395.54 771.976 395.54ZM797.221 376.19H812.386V381.86H797.221V376.19ZM797.761 389.15H814.906V395H790.516V363.5H814.321V369.35H797.761V389.15ZM835.782 395.54C833.352 395.54 831.087 395.15 828.987 394.37C826.917 393.56 825.117 392.42 823.587 390.95C822.057 389.48 820.857 387.755 819.987 385.775C819.147 383.795 818.727 381.62 818.727 379.25C818.727 376.88 819.147 374.705 819.987 372.725C820.857 370.745 822.057 369.02 823.587 367.55C825.147 366.08 826.962 364.955 829.032 364.175C831.102 363.365 833.367 362.96 835.827 362.96C838.557 362.96 841.017 363.44 843.207 364.4C845.427 365.33 847.287 366.71 848.787 368.54L844.107 372.86C843.027 371.63 841.827 370.715 840.507 370.115C839.187 369.485 837.747 369.17 836.187 369.17C834.717 369.17 833.367 369.41 832.137 369.89C830.907 370.37 829.842 371.06 828.942 371.96C828.042 372.86 827.337 373.925 826.827 375.155C826.347 376.385 826.107 377.75 826.107 379.25C826.107 380.75 826.347 382.115 826.827 383.345C827.337 384.575 828.042 385.64 828.942 386.54C829.842 387.44 830.907 388.13 832.137 388.61C833.367 389.09 834.717 389.33 836.187 389.33C837.747 389.33 839.187 389.03 840.507 388.43C841.827 387.8 843.027 386.855 844.107 385.595L848.787 389.915C847.287 391.745 845.427 393.14 843.207 394.1C841.017 395.06 838.542 395.54 835.782 395.54ZM859.927 395V369.44H849.847V363.5H877.297V369.44H867.217V395H859.927Z" fill="#212121"/>
<path d="M567.186 551V496.433H590.806C595.691 496.433 599.901 497.238 603.435 498.849C606.969 500.408 609.697 502.669 611.62 505.631C613.543 508.593 614.504 512.127 614.504 516.233C614.504 520.286 613.543 523.794 611.62 526.756C609.697 529.667 606.969 531.901 603.435 533.46C599.901 535.02 595.691 535.799 590.806 535.799H574.202L579.815 530.264V551H567.186ZM601.876 551L588.234 531.2H601.72L615.518 551H601.876ZM579.815 531.668L574.202 525.743H590.105C594.002 525.743 596.913 524.912 598.836 523.249C600.758 521.534 601.72 519.195 601.72 516.233C601.72 513.219 600.758 510.88 598.836 509.217C596.913 507.554 594.002 506.722 590.105 506.722H574.202L579.815 500.72V531.668ZM648.441 551.624C644.907 551.624 641.815 550.844 639.165 549.285C636.514 547.726 634.436 545.361 632.929 542.191C631.473 538.969 630.746 534.916 630.746 530.031C630.746 525.093 631.448 521.04 632.851 517.87C634.254 514.7 636.281 512.335 638.931 510.776C641.581 509.217 644.752 508.437 648.441 508.437C652.391 508.437 655.925 509.347 659.043 511.166C662.213 512.933 664.708 515.427 666.527 518.649C668.397 521.871 669.333 525.665 669.333 530.031C669.333 534.448 668.397 538.268 666.527 541.49C664.708 544.712 662.213 547.206 659.043 548.973C655.925 550.74 652.391 551.624 648.441 551.624ZM623.652 566.123V509.061H635.267V517.636L635.033 530.108L635.813 542.503V566.123H623.652ZM646.337 541.646C648.363 541.646 650.156 541.178 651.715 540.242C653.326 539.307 654.6 537.982 655.535 536.267C656.523 534.5 657.016 532.421 657.016 530.031C657.016 527.588 656.523 525.509 655.535 523.794C654.6 522.079 653.326 520.754 651.715 519.819C650.156 518.883 648.363 518.415 646.337 518.415C644.31 518.415 642.491 518.883 640.88 519.819C639.269 520.754 637.996 522.079 637.06 523.794C636.125 525.509 635.657 527.588 635.657 530.031C635.657 532.421 636.125 534.5 637.06 536.267C637.996 537.982 639.269 539.307 640.88 540.242C642.491 541.178 644.31 541.646 646.337 541.646ZM681.54 551.624C679.461 551.624 677.668 550.922 676.161 549.519C674.706 548.064 673.978 546.219 673.978 543.984C673.978 541.75 674.706 539.957 676.161 538.605C677.668 537.202 679.461 536.501 681.54 536.501C683.671 536.501 685.464 537.202 686.919 538.605C688.374 539.957 689.101 541.75 689.101 543.984C689.101 546.219 688.374 548.064 686.919 549.519C685.464 550.922 683.671 551.624 681.54 551.624ZM716.379 551V542.815L737.426 522.937C739.089 521.43 740.311 520.078 741.09 518.883C741.87 517.688 742.389 516.597 742.649 515.609C742.961 514.622 743.117 513.712 743.117 512.881C743.117 510.698 742.363 509.035 740.856 507.892C739.401 506.696 737.245 506.099 734.386 506.099C732.1 506.099 729.969 506.541 727.994 507.424C726.071 508.307 724.434 509.685 723.083 511.556L713.884 505.631C715.963 502.513 718.874 500.044 722.615 498.226C726.357 496.407 730.67 495.497 735.556 495.497C739.609 495.497 743.143 496.173 746.157 497.524C749.223 498.823 751.588 500.668 753.251 503.059C754.966 505.449 755.823 508.307 755.823 511.634C755.823 513.4 755.59 515.167 755.122 516.934C754.706 518.649 753.823 520.468 752.471 522.391C751.172 524.314 749.249 526.471 746.703 528.861L729.241 545.309L726.825 540.71H757.616V551H716.379ZM786.213 551.935C781.744 551.935 777.742 550.844 774.208 548.661C770.674 546.427 767.894 543.205 765.867 538.995C763.84 534.786 762.827 529.693 762.827 523.716C762.827 517.74 763.84 512.647 765.867 508.437C767.894 504.228 770.674 501.032 774.208 498.849C777.742 496.614 781.744 495.497 786.213 495.497C790.734 495.497 794.736 496.614 798.218 498.849C801.752 501.032 804.532 504.228 806.559 508.437C808.586 512.647 809.599 517.74 809.599 523.716C809.599 529.693 808.586 534.786 806.559 538.995C804.532 543.205 801.752 546.427 798.218 548.661C794.736 550.844 790.734 551.935 786.213 551.935ZM786.213 541.256C788.344 541.256 790.189 540.658 791.748 539.463C793.359 538.268 794.606 536.371 795.49 533.772C796.425 531.174 796.893 527.822 796.893 523.716C796.893 519.611 796.425 516.259 795.49 513.66C794.606 511.062 793.359 509.165 791.748 507.97C790.189 506.774 788.344 506.177 786.213 506.177C784.134 506.177 782.289 506.774 780.678 507.97C779.119 509.165 777.872 511.062 776.937 513.66C776.053 516.259 775.611 519.611 775.611 523.716C775.611 527.822 776.053 531.174 776.937 533.772C777.872 536.371 779.119 538.268 780.678 539.463C782.289 540.658 784.134 541.256 786.213 541.256ZM821.917 551.624C819.838 551.624 818.045 550.922 816.538 549.519C815.083 548.064 814.356 546.219 814.356 543.984C814.356 541.75 815.083 539.957 816.538 538.605C818.045 537.202 819.838 536.501 821.917 536.501C824.048 536.501 825.841 537.202 827.296 538.605C828.751 539.957 829.478 541.75 829.478 543.984C829.478 546.219 828.751 548.064 827.296 549.519C825.841 550.922 824.048 551.624 821.917 551.624ZM853.7 551.935C849.906 551.935 846.139 551.442 842.397 550.454C838.707 549.415 835.537 547.96 832.887 546.089L837.876 536.423C839.954 537.93 842.345 539.125 845.047 540.009C847.802 540.892 850.582 541.334 853.388 541.334C856.558 541.334 859.053 540.71 860.872 539.463C862.691 538.216 863.6 536.475 863.6 534.24C863.6 532.837 863.236 531.59 862.509 530.498C861.781 529.407 860.482 528.575 858.611 528.004C856.792 527.432 854.22 527.146 850.894 527.146H836.94L839.746 496.433H873.033V506.567H844.268L850.816 500.798L848.867 522.703L842.319 516.934H853.856C859.261 516.934 863.6 517.688 866.874 519.195C870.2 520.65 872.617 522.651 874.124 525.197C875.631 527.744 876.385 530.628 876.385 533.85C876.385 537.072 875.579 540.061 873.968 542.815C872.357 545.517 869.862 547.726 866.484 549.441C863.158 551.104 858.897 551.935 853.7 551.935ZM904.894 551.935C900.425 551.935 896.423 550.844 892.889 548.661C889.355 546.427 886.575 543.205 884.548 538.995C882.522 534.786 881.508 529.693 881.508 523.716C881.508 517.74 882.522 512.647 884.548 508.437C886.575 504.228 889.355 501.032 892.889 498.849C896.423 496.614 900.425 495.497 904.894 495.497C909.415 495.497 913.417 496.614 916.899 498.849C920.433 501.032 923.213 504.228 925.24 508.437C927.267 512.647 928.28 517.74 928.28 523.716C928.28 529.693 927.267 534.786 925.24 538.995C923.213 543.205 920.433 546.427 916.899 548.661C913.417 550.844 909.415 551.935 904.894 551.935ZM904.894 541.256C907.025 541.256 908.87 540.658 910.429 539.463C912.04 538.268 913.287 536.371 914.171 533.772C915.106 531.174 915.574 527.822 915.574 523.716C915.574 519.611 915.106 516.259 914.171 513.66C913.287 511.062 912.04 509.165 910.429 507.97C908.87 506.774 907.025 506.177 904.894 506.177C902.815 506.177 900.971 506.774 899.359 507.97C897.8 509.165 896.553 511.062 895.618 513.66C894.734 516.259 894.293 519.611 894.293 523.716C894.293 527.822 894.734 531.174 895.618 533.772C896.553 536.371 897.8 538.268 899.359 539.463C900.971 540.658 902.815 541.256 904.894 541.256ZM957.802 551.935C953.333 551.935 949.331 550.844 945.797 548.661C942.263 546.427 939.483 543.205 937.456 538.995C935.429 534.786 934.416 529.693 934.416 523.716C934.416 517.74 935.429 512.647 937.456 508.437C939.483 504.228 942.263 501.032 945.797 498.849C949.331 496.614 953.333 495.497 957.802 495.497C962.323 495.497 966.325 496.614 969.807 498.849C973.341 501.032 976.121 504.228 978.148 508.437C980.175 512.647 981.188 517.74 981.188 523.716C981.188 529.693 980.175 534.786 978.148 538.995C976.121 543.205 973.341 546.427 969.807 548.661C966.325 550.844 962.323 551.935 957.802 551.935ZM957.802 541.256C959.933 541.256 961.778 540.658 963.337 539.463C964.948 538.268 966.195 536.371 967.078 533.772C968.014 531.174 968.482 527.822 968.482 523.716C968.482 519.611 968.014 516.259 967.078 513.66C966.195 511.062 964.948 509.165 963.337 507.97C961.778 506.774 959.933 506.177 957.802 506.177C955.723 506.177 953.878 506.774 952.267 507.97C950.708 509.165 949.461 511.062 948.526 513.66C947.642 516.259 947.2 519.611 947.2 523.716C947.2 527.822 947.642 531.174 948.526 533.772C949.461 536.371 950.708 538.268 952.267 539.463C953.878 540.658 955.723 541.256 957.802 541.256Z" fill="#9A2828"/>
<path d="M170.122 476V433.264H186.118C189.74 433.264 192.854 433.854 195.459 435.035C198.064 436.174 200.058 437.843 201.442 440.041C202.866 442.198 203.579 444.823 203.579 447.916C203.579 450.928 202.866 453.533 201.442 455.731C200.058 457.888 198.064 459.557 195.459 460.737C192.854 461.877 189.74 462.447 186.118 462.447H172.626L174.64 460.371V476H170.122ZM199.305 476L188.316 460.493H193.2L204.25 476H199.305ZM174.64 460.737L172.626 458.6H185.996C190.269 458.6 193.505 457.664 195.703 455.792C197.941 453.92 199.061 451.295 199.061 447.916C199.061 444.497 197.941 441.852 195.703 439.98C193.505 438.107 190.269 437.171 185.996 437.171H172.626L174.64 435.035V460.737ZM229.871 476.305C227.103 476.305 224.6 475.674 222.361 474.413C220.123 473.11 218.332 471.258 216.989 468.857C215.686 466.415 215.035 463.444 215.035 459.943C215.035 456.443 215.686 453.492 216.989 451.091C218.291 448.649 220.062 446.797 222.3 445.535C224.539 444.274 227.062 443.643 229.871 443.643C232.923 443.643 235.65 444.335 238.052 445.719C240.494 447.062 242.407 448.975 243.79 451.457C245.174 453.899 245.866 456.728 245.866 459.943C245.866 463.2 245.174 466.049 243.79 468.491C242.407 470.933 240.494 472.846 238.052 474.23C235.65 475.613 232.923 476.305 229.871 476.305ZM213.326 487.844V443.948H217.477V453.594L217.05 460.005L217.66 466.476V487.844H213.326ZM229.565 472.459C231.845 472.459 233.88 471.95 235.671 470.933C237.461 469.875 238.886 468.409 239.944 466.537C241.002 464.624 241.532 462.426 241.532 459.943C241.532 457.461 241.002 455.283 239.944 453.411C238.886 451.539 237.461 450.074 235.671 449.015C233.88 447.957 231.845 447.428 229.565 447.428C227.286 447.428 225.231 447.957 223.399 449.015C221.608 450.074 220.184 451.539 219.126 453.411C218.108 455.283 217.599 457.461 217.599 459.943C217.599 462.426 218.108 464.624 219.126 466.537C220.184 468.409 221.608 469.875 223.399 470.933C225.231 471.95 227.286 472.459 229.565 472.459ZM254.235 476.305C253.34 476.305 252.567 475.98 251.916 475.328C251.305 474.677 251 473.884 251 472.947C251 471.971 251.305 471.177 251.916 470.566C252.567 469.956 253.34 469.651 254.235 469.651C255.131 469.651 255.884 469.956 256.494 470.566C257.146 471.177 257.471 471.971 257.471 472.947C257.471 473.884 257.146 474.677 256.494 475.328C255.884 475.98 255.131 476.305 254.235 476.305ZM287.303 476V435.096L289.257 437.171H277.229V433.264H291.699V476H287.303ZM309.424 476L327.861 435.218L329.204 437.171H302.769L305.028 435.035V445.169H300.693V433.264H332.074V436.378L314.186 476H309.424ZM337.943 476.305C337.047 476.305 336.274 475.98 335.623 475.328C335.012 474.677 334.707 473.884 334.707 472.947C334.707 471.971 335.012 471.177 335.623 470.566C336.274 469.956 337.047 469.651 337.943 469.651C338.838 469.651 339.591 469.956 340.202 470.566C340.853 471.177 341.178 471.971 341.178 472.947C341.178 473.884 340.853 474.677 340.202 475.328C339.591 475.98 338.838 476.305 337.943 476.305ZM361.076 476.366C358.023 476.366 355.113 475.878 352.346 474.901C349.578 473.884 347.38 472.54 345.752 470.872L347.889 467.392C349.232 468.816 351.063 469.997 353.383 470.933C355.744 471.869 358.288 472.337 361.015 472.337C364.637 472.337 367.385 471.543 369.257 469.956C371.17 468.328 372.126 466.211 372.126 463.607C372.126 461.775 371.679 460.208 370.783 458.906C369.928 457.562 368.463 456.525 366.387 455.792C364.312 455.059 361.463 454.693 357.84 454.693H348.744L350.941 433.264H374.324V437.171H352.712L354.971 435.035L353.078 452.984L350.819 450.786H358.817C363.131 450.786 366.591 451.315 369.196 452.373C371.801 453.431 373.673 454.917 374.812 456.83C375.993 458.702 376.583 460.9 376.583 463.423C376.583 465.825 376.013 468.023 374.874 470.017C373.734 471.971 372.024 473.517 369.745 474.657C367.466 475.796 364.576 476.366 361.076 476.366ZM399.197 476.366C395.9 476.366 392.97 475.512 390.405 473.802C387.841 472.052 385.827 469.569 384.361 466.354C382.896 463.098 382.163 459.191 382.163 454.632C382.163 450.074 382.896 446.187 384.361 442.971C385.827 439.715 387.841 437.232 390.405 435.523C392.97 433.773 395.9 432.898 399.197 432.898C402.494 432.898 405.424 433.773 407.988 435.523C410.552 437.232 412.567 439.715 414.032 442.971C415.538 446.187 416.291 450.074 416.291 454.632C416.291 459.191 415.538 463.098 414.032 466.354C412.567 469.569 410.552 472.052 407.988 473.802C405.424 475.512 402.494 476.366 399.197 476.366ZM399.197 472.337C401.72 472.337 403.918 471.665 405.79 470.322C407.663 468.938 409.128 466.944 410.186 464.339C411.244 461.694 411.773 458.458 411.773 454.632C411.773 450.806 411.244 447.591 410.186 444.986C409.128 442.34 407.663 440.346 405.79 439.003C403.918 437.619 401.72 436.927 399.197 436.927C396.755 436.927 394.577 437.619 392.664 439.003C390.751 440.346 389.266 442.34 388.208 444.986C387.149 447.591 386.62 450.806 386.62 454.632C386.62 458.458 387.149 461.694 388.208 464.339C389.266 466.944 390.751 468.938 392.664 470.322C394.577 471.665 396.755 472.337 399.197 472.337ZM439.619 476.366C436.323 476.366 433.392 475.512 430.828 473.802C428.264 472.052 426.249 469.569 424.784 466.354C423.319 463.098 422.586 459.191 422.586 454.632C422.586 450.074 423.319 446.187 424.784 442.971C426.249 439.715 428.264 437.232 430.828 435.523C433.392 433.773 436.323 432.898 439.619 432.898C442.916 432.898 445.847 433.773 448.411 435.523C450.975 437.232 452.99 439.715 454.455 442.971C455.961 446.187 456.714 450.074 456.714 454.632C456.714 459.191 455.961 463.098 454.455 466.354C452.99 469.569 450.975 472.052 448.411 473.802C445.847 475.512 442.916 476.366 439.619 476.366ZM439.619 472.337C442.143 472.337 444.341 471.665 446.213 470.322C448.085 468.938 449.551 466.944 450.609 464.339C451.667 461.694 452.196 458.458 452.196 454.632C452.196 450.806 451.667 447.591 450.609 444.986C449.551 442.34 448.085 440.346 446.213 439.003C444.341 437.619 442.143 436.927 439.619 436.927C437.177 436.927 435 437.619 433.087 439.003C431.174 440.346 429.688 442.34 428.63 444.986C427.572 447.591 427.043 450.806 427.043 454.632C427.043 458.458 427.572 461.694 428.63 464.339C429.688 466.944 431.174 468.938 433.087 470.322C435 471.665 437.177 472.337 439.619 472.337Z" fill="#212121"/>
<path d="M163.163 457.074H459.827V460.127H163.163V457.074Z" fill="#212121"/>
<path d="M617.346 476V433.264H633.342C636.964 433.264 640.078 433.854 642.683 435.035C645.287 436.174 647.282 437.843 648.666 440.041C650.09 442.198 650.802 444.823 650.802 447.916C650.802 450.928 650.09 453.533 648.666 455.731C647.282 457.888 645.287 459.557 642.683 460.737C640.078 461.877 636.964 462.447 633.342 462.447H619.849L621.864 460.371V476H617.346ZM646.529 476L635.54 460.493H640.424L651.474 476H646.529ZM621.864 460.737L619.849 458.6H633.22C637.493 458.6 640.729 457.664 642.927 455.792C645.165 453.92 646.285 451.295 646.285 447.916C646.285 444.497 645.165 441.852 642.927 439.98C640.729 438.107 637.493 437.171 633.22 437.171H619.849L621.864 435.035V460.737ZM677.095 476.305C674.327 476.305 671.824 475.674 669.585 474.413C667.347 473.11 665.556 471.258 664.213 468.857C662.91 466.415 662.259 463.444 662.259 459.943C662.259 456.443 662.91 453.492 664.213 451.091C665.515 448.649 667.286 446.797 669.524 445.535C671.763 444.274 674.286 443.643 677.095 443.643C680.147 443.643 682.874 444.335 685.275 445.719C687.718 447.062 689.63 448.975 691.014 451.457C692.398 453.899 693.09 456.728 693.09 459.943C693.09 463.2 692.398 466.049 691.014 468.491C689.63 470.933 687.718 472.846 685.275 474.23C682.874 475.613 680.147 476.305 677.095 476.305ZM660.55 487.844V443.948H664.701V453.594L664.274 460.005L664.884 466.476V487.844H660.55ZM676.789 472.459C679.069 472.459 681.104 471.95 682.894 470.933C684.685 469.875 686.11 468.409 687.168 466.537C688.226 464.624 688.755 462.426 688.755 459.943C688.755 457.461 688.226 455.283 687.168 453.411C686.11 451.539 684.685 450.074 682.894 449.015C681.104 447.957 679.069 447.428 676.789 447.428C674.51 447.428 672.455 447.957 670.623 449.015C668.832 450.074 667.408 451.539 666.35 453.411C665.332 455.283 664.823 457.461 664.823 459.943C664.823 462.426 665.332 464.624 666.35 466.537C667.408 468.409 668.832 469.875 670.623 470.933C672.455 471.95 674.51 472.459 676.789 472.459ZM701.459 476.305C700.564 476.305 699.791 475.98 699.139 475.328C698.529 474.677 698.224 473.884 698.224 472.947C698.224 471.971 698.529 471.177 699.139 470.566C699.791 469.956 700.564 469.651 701.459 469.651C702.355 469.651 703.108 469.956 703.718 470.566C704.369 471.177 704.695 471.971 704.695 472.947C704.695 473.884 704.369 474.677 703.718 475.328C703.108 475.98 702.355 476.305 701.459 476.305ZM726.285 476V472.886L744.051 455.487C745.679 453.899 746.9 452.516 747.714 451.335C748.528 450.114 749.077 448.975 749.362 447.916C749.647 446.858 749.79 445.861 749.79 444.925C749.79 442.442 748.935 440.488 747.225 439.064C745.557 437.639 743.074 436.927 739.777 436.927C737.254 436.927 735.015 437.314 733.062 438.087C731.149 438.86 729.5 440.061 728.116 441.689L725.003 439.003C726.672 437.049 728.808 435.543 731.413 434.485C734.018 433.427 736.928 432.898 740.144 432.898C743.033 432.898 745.536 433.366 747.653 434.302C749.769 435.197 751.397 436.52 752.537 438.27C753.717 440.02 754.307 442.076 754.307 444.436C754.307 445.82 754.104 447.184 753.697 448.527C753.331 449.87 752.639 451.295 751.621 452.8C750.644 454.266 749.199 455.934 747.287 457.807L730.986 473.802L729.765 472.093H756.261V476H726.285ZM778.692 476.366C775.395 476.366 772.465 475.512 769.9 473.802C767.336 472.052 765.322 469.569 763.856 466.354C762.391 463.098 761.658 459.191 761.658 454.632C761.658 450.074 762.391 446.187 763.856 442.971C765.322 439.715 767.336 437.232 769.9 435.523C772.465 433.773 775.395 432.898 778.692 432.898C781.989 432.898 784.919 433.773 787.483 435.523C790.047 437.232 792.062 439.715 793.527 442.971C795.033 446.187 795.786 450.074 795.786 454.632C795.786 459.191 795.033 463.098 793.527 466.354C792.062 469.569 790.047 472.052 787.483 473.802C784.919 475.512 781.989 476.366 778.692 476.366ZM778.692 472.337C781.215 472.337 783.413 471.665 785.285 470.322C787.158 468.938 788.623 466.944 789.681 464.339C790.739 461.694 791.268 458.458 791.268 454.632C791.268 450.806 790.739 447.591 789.681 444.986C788.623 442.34 787.158 440.346 785.285 439.003C783.413 437.619 781.215 436.927 778.692 436.927C776.25 436.927 774.072 437.619 772.159 439.003C770.246 440.346 768.761 442.34 767.703 444.986C766.644 447.591 766.115 450.806 766.115 454.632C766.115 458.458 766.644 461.694 767.703 464.339C768.761 466.944 770.246 468.938 772.159 470.322C774.072 471.665 776.25 472.337 778.692 472.337ZM804.722 476.305C803.827 476.305 803.053 475.98 802.402 475.328C801.792 474.677 801.486 473.884 801.486 472.947C801.486 471.971 801.792 471.177 802.402 470.566C803.053 469.956 803.827 469.651 804.722 469.651C805.617 469.651 806.37 469.956 806.981 470.566C807.632 471.177 807.958 471.971 807.958 472.947C807.958 473.884 807.632 474.677 806.981 475.328C806.37 475.98 805.617 476.305 804.722 476.305ZM827.855 476.366C824.803 476.366 821.893 475.878 819.125 474.901C816.357 473.884 814.159 472.54 812.531 470.872L814.668 467.392C816.011 468.816 817.843 469.997 820.163 470.933C822.523 471.869 825.067 472.337 827.794 472.337C831.417 472.337 834.164 471.543 836.036 469.956C837.949 468.328 838.906 466.211 838.906 463.607C838.906 461.775 838.458 460.208 837.562 458.906C836.708 457.562 835.243 456.525 833.167 455.792C831.091 455.059 828.242 454.693 824.62 454.693H815.523L817.721 433.264H841.103V437.171H819.491L821.75 435.035L819.858 452.984L817.599 450.786H825.596C829.911 450.786 833.37 451.315 835.975 452.373C838.58 453.431 840.452 454.917 841.592 456.83C842.772 458.702 843.362 460.9 843.362 463.423C843.362 465.825 842.793 468.023 841.653 470.017C840.513 471.971 838.804 473.517 836.525 474.657C834.245 475.796 831.356 476.366 827.855 476.366ZM865.976 476.366C862.679 476.366 859.749 475.512 857.185 473.802C854.621 472.052 852.606 469.569 851.141 466.354C849.675 463.098 848.943 459.191 848.943 454.632C848.943 450.074 849.675 446.187 851.141 442.971C852.606 439.715 854.621 437.232 857.185 435.523C859.749 433.773 862.679 432.898 865.976 432.898C869.273 432.898 872.203 433.773 874.768 435.523C877.332 437.232 879.346 439.715 880.812 442.971C882.318 446.187 883.071 450.074 883.071 454.632C883.071 459.191 882.318 463.098 880.812 466.354C879.346 469.569 877.332 472.052 874.768 473.802C872.203 475.512 869.273 476.366 865.976 476.366ZM865.976 472.337C868.5 472.337 870.698 471.665 872.57 470.322C874.442 468.938 875.907 466.944 876.965 464.339C878.024 461.694 878.553 458.458 878.553 454.632C878.553 450.806 878.024 447.591 876.965 444.986C875.907 442.34 874.442 440.346 872.57 439.003C870.698 437.619 868.5 436.927 865.976 436.927C863.534 436.927 861.357 437.619 859.444 439.003C857.531 440.346 856.045 442.34 854.987 444.986C853.929 447.591 853.4 450.806 853.4 454.632C853.4 458.458 853.929 461.694 854.987 464.339C856.045 466.944 857.531 468.938 859.444 470.322C861.357 471.665 863.534 472.337 865.976 472.337ZM906.399 476.366C903.102 476.366 900.172 475.512 897.607 473.802C895.043 472.052 893.029 469.569 891.563 466.354C890.098 463.098 889.366 459.191 889.366 454.632C889.366 450.074 890.098 446.187 891.563 442.971C893.029 439.715 895.043 437.232 897.607 435.523C900.172 433.773 903.102 432.898 906.399 432.898C909.696 432.898 912.626 433.773 915.19 435.523C917.754 437.232 919.769 439.715 921.234 442.971C922.74 446.187 923.493 450.074 923.493 454.632C923.493 459.191 922.74 463.098 921.234 466.354C919.769 469.569 917.754 472.052 915.19 473.802C912.626 475.512 909.696 476.366 906.399 476.366ZM906.399 472.337C908.922 472.337 911.12 471.665 912.992 470.322C914.865 468.938 916.33 466.944 917.388 464.339C918.446 461.694 918.975 458.458 918.975 454.632C918.975 450.806 918.446 447.591 917.388 444.986C916.33 442.34 914.865 440.346 912.992 439.003C911.12 437.619 908.922 436.927 906.399 436.927C903.957 436.927 901.779 437.619 899.866 439.003C897.953 440.346 896.468 442.34 895.41 444.986C894.351 447.591 893.822 450.806 893.822 454.632C893.822 458.458 894.351 461.694 895.41 464.339C896.468 466.944 897.953 468.938 899.866 470.322C901.779 471.665 903.957 472.337 906.399 472.337Z" fill="#212121"/>
<path d="M610.386 457.074H926.607V460.127H610.386V457.074Z" fill="#212121"/>
<path d="M279.297 654.264C275.366 654.264 272.271 653.135 270.013 650.876C267.754 648.617 266.625 645.273 266.625 640.844V623.2H269.881V640.712C269.881 644.349 270.702 647.033 272.345 648.764C273.987 650.495 276.305 651.36 279.297 651.36C282.318 651.36 284.65 650.495 286.293 648.764C287.935 647.033 288.757 644.349 288.757 640.712V623.2H291.925V640.844C291.925 645.273 290.795 648.617 288.537 650.876C286.307 653.135 283.227 654.264 279.297 654.264ZM312.868 630.68C314.746 630.68 316.388 631.047 317.796 631.78C319.234 632.484 320.348 633.569 321.14 635.036C321.962 636.503 322.372 638.351 322.372 640.58V654H319.248V640.888C319.248 638.453 318.632 636.62 317.4 635.388C316.198 634.127 314.496 633.496 312.296 633.496C310.654 633.496 309.216 633.833 307.984 634.508C306.782 635.153 305.843 636.107 305.168 637.368C304.523 638.6 304.2 640.096 304.2 641.856V654H301.076V630.9H304.068V637.236L303.584 636.048C304.318 634.376 305.491 633.071 307.104 632.132C308.718 631.164 310.639 630.68 312.868 630.68ZM338.115 654.22C335.944 654.22 334.272 653.633 333.099 652.46C331.925 651.287 331.339 649.629 331.339 647.488V625.796H334.463V647.312C334.463 648.661 334.8 649.703 335.475 650.436C336.179 651.169 337.176 651.536 338.467 651.536C339.845 651.536 340.989 651.14 341.899 650.348L342.999 652.592C342.383 653.149 341.635 653.56 340.755 653.824C339.904 654.088 339.024 654.22 338.115 654.22ZM327.203 633.496V630.9H341.503V633.496H327.203ZM358.234 654.22C356.268 654.22 354.552 653.853 353.086 653.12C351.619 652.387 350.475 651.287 349.654 649.82C348.862 648.353 348.466 646.52 348.466 644.32V630.9H351.59V643.968C351.59 646.432 352.191 648.295 353.394 649.556C354.626 650.788 356.342 651.404 358.542 651.404C360.155 651.404 361.548 651.081 362.722 650.436C363.924 649.761 364.834 648.793 365.45 647.532C366.095 646.271 366.418 644.76 366.418 643V630.9H369.542V654H366.55V647.664L367.034 648.808C366.3 650.509 365.156 651.844 363.602 652.812C362.076 653.751 360.287 654.22 358.234 654.22ZM380.712 648.016L380.8 644.012L395.188 630.9H399.016L388.852 640.624L387.092 642.12L380.712 648.016ZM378.248 654V621.352H381.372V654H378.248ZM396.156 654L386.52 641.988L388.544 639.568L399.984 654H396.156ZM425.342 654.264C423.054 654.264 420.854 653.897 418.742 653.164C416.659 652.401 415.046 651.433 413.902 650.26L415.178 647.752C416.263 648.808 417.715 649.703 419.534 650.436C421.382 651.14 423.318 651.492 425.342 651.492C427.278 651.492 428.847 651.257 430.05 650.788C431.282 650.289 432.176 649.629 432.734 648.808C433.32 647.987 433.614 647.077 433.614 646.08C433.614 644.877 433.262 643.909 432.558 643.176C431.883 642.443 430.988 641.871 429.874 641.46C428.759 641.02 427.527 640.639 426.178 640.316C424.828 639.993 423.479 639.656 422.13 639.304C420.78 638.923 419.534 638.424 418.39 637.808C417.275 637.192 416.366 636.385 415.662 635.388C414.987 634.361 414.65 633.027 414.65 631.384C414.65 629.859 415.046 628.465 415.838 627.204C416.659 625.913 417.906 624.887 419.578 624.124C421.25 623.332 423.391 622.936 426.002 622.936C427.732 622.936 429.448 623.185 431.15 623.684C432.851 624.153 434.318 624.813 435.55 625.664L434.45 628.26C433.13 627.38 431.722 626.735 430.226 626.324C428.759 625.913 427.336 625.708 425.958 625.708C424.11 625.708 422.584 625.957 421.382 626.456C420.179 626.955 419.284 627.629 418.698 628.48C418.14 629.301 417.862 630.24 417.862 631.296C417.862 632.499 418.199 633.467 418.874 634.2C419.578 634.933 420.487 635.505 421.602 635.916C422.746 636.327 423.992 636.693 425.342 637.016C426.691 637.339 428.026 637.691 429.346 638.072C430.695 638.453 431.927 638.952 433.042 639.568C434.186 640.155 435.095 640.947 435.77 641.944C436.474 642.941 436.826 644.247 436.826 645.86C436.826 647.356 436.415 648.749 435.594 650.04C434.772 651.301 433.511 652.328 431.81 653.12C430.138 653.883 427.982 654.264 425.342 654.264ZM453.072 654.22C450.667 654.22 448.555 653.721 446.736 652.724C444.917 651.697 443.495 650.304 442.468 648.544C441.441 646.755 440.928 644.716 440.928 642.428C440.928 640.14 441.412 638.116 442.38 636.356C443.377 634.596 444.727 633.217 446.428 632.22C448.159 631.193 450.095 630.68 452.236 630.68C454.407 630.68 456.328 631.179 458 632.176C459.701 633.144 461.036 634.523 462.004 636.312C462.972 638.072 463.456 640.111 463.456 642.428C463.456 642.575 463.441 642.736 463.412 642.912C463.412 643.059 463.412 643.22 463.412 643.396H443.304V641.064H461.74L460.508 641.988C460.508 640.316 460.141 638.835 459.408 637.544C458.704 636.224 457.736 635.197 456.504 634.464C455.272 633.731 453.849 633.364 452.236 633.364C450.652 633.364 449.229 633.731 447.968 634.464C446.707 635.197 445.724 636.224 445.02 637.544C444.316 638.864 443.964 640.375 443.964 642.076V642.56C443.964 644.32 444.345 645.875 445.108 647.224C445.9 648.544 446.985 649.585 448.364 650.348C449.772 651.081 451.371 651.448 453.16 651.448C454.568 651.448 455.873 651.199 457.076 650.7C458.308 650.201 459.364 649.439 460.244 648.412L462.004 650.436C460.977 651.668 459.687 652.607 458.132 653.252C456.607 653.897 454.92 654.22 453.072 654.22ZM477.119 654.22C474.948 654.22 473.276 653.633 472.103 652.46C470.929 651.287 470.343 649.629 470.343 647.488V625.796H473.467V647.312C473.467 648.661 473.804 649.703 474.479 650.436C475.183 651.169 476.18 651.536 477.471 651.536C478.849 651.536 479.993 651.14 480.903 650.348L482.003 652.592C481.387 653.149 480.639 653.56 479.759 653.824C478.908 654.088 478.028 654.22 477.119 654.22ZM466.207 633.496V630.9H480.507V633.496H466.207ZM487.69 654V630.9H490.814V654H487.69ZM489.274 625.796C488.628 625.796 488.086 625.576 487.646 625.136C487.206 624.696 486.986 624.168 486.986 623.552C486.986 622.936 487.206 622.423 487.646 622.012C488.086 621.572 488.628 621.352 489.274 621.352C489.919 621.352 490.462 621.557 490.902 621.968C491.342 622.379 491.562 622.892 491.562 623.508C491.562 624.153 491.342 624.696 490.902 625.136C490.491 625.576 489.948 625.796 489.274 625.796ZM513.982 654V648.896L513.85 648.06V639.524C513.85 637.559 513.293 636.048 512.178 634.992C511.093 633.936 509.465 633.408 507.294 633.408C505.798 633.408 504.375 633.657 503.026 634.156C501.677 634.655 500.533 635.315 499.594 636.136L498.186 633.804C499.359 632.807 500.767 632.044 502.41 631.516C504.053 630.959 505.783 630.68 507.602 630.68C510.594 630.68 512.897 631.428 514.51 632.924C516.153 634.391 516.974 636.635 516.974 639.656V654H513.982ZM506.018 654.22C504.287 654.22 502.777 653.941 501.486 653.384C500.225 652.797 499.257 652.005 498.582 651.008C497.907 649.981 497.57 648.808 497.57 647.488C497.57 646.285 497.849 645.2 498.406 644.232C498.993 643.235 499.931 642.443 501.222 641.856C502.542 641.24 504.302 640.932 506.502 640.932H514.466V643.264H506.59C504.361 643.264 502.806 643.66 501.926 644.452C501.075 645.244 500.65 646.227 500.65 647.4C500.65 648.72 501.163 649.776 502.19 650.568C503.217 651.36 504.654 651.756 506.502 651.756C508.262 651.756 509.773 651.36 511.034 650.568C512.325 649.747 513.263 648.573 513.85 647.048L514.554 649.204C513.967 650.729 512.941 651.947 511.474 652.856C510.037 653.765 508.218 654.22 506.018 654.22ZM537.383 654.22C535.389 654.22 533.585 653.765 531.971 652.856C530.358 651.917 529.067 650.583 528.099 648.852C527.161 647.092 526.691 644.951 526.691 642.428C526.691 639.905 527.161 637.779 528.099 636.048C529.038 634.288 530.314 632.953 531.927 632.044C533.541 631.135 535.359 630.68 537.383 630.68C539.583 630.68 541.549 631.179 543.279 632.176C545.039 633.144 546.418 634.523 547.415 636.312C548.413 638.072 548.911 640.111 548.911 642.428C548.911 644.775 548.413 646.828 547.415 648.588C546.418 650.348 545.039 651.727 543.279 652.724C541.549 653.721 539.583 654.22 537.383 654.22ZM525.459 662.536V630.9H528.451V637.852L528.143 642.472L528.583 647.136V662.536H525.459ZM537.163 651.448C538.806 651.448 540.273 651.081 541.563 650.348C542.854 649.585 543.881 648.529 544.643 647.18C545.406 645.801 545.787 644.217 545.787 642.428C545.787 640.639 545.406 639.069 544.643 637.72C543.881 636.371 542.854 635.315 541.563 634.552C540.273 633.789 538.806 633.408 537.163 633.408C535.521 633.408 534.039 633.789 532.719 634.552C531.429 635.315 530.402 636.371 529.639 637.72C528.906 639.069 528.539 640.639 528.539 642.428C528.539 644.217 528.906 645.801 529.639 647.18C530.402 648.529 531.429 649.585 532.719 650.348C534.039 651.081 535.521 651.448 537.163 651.448ZM567.455 654V623.2H578.983C581.594 623.2 583.838 623.625 585.715 624.476C587.592 625.297 589.03 626.5 590.027 628.084C591.054 629.639 591.567 631.531 591.567 633.76C591.567 635.931 591.054 637.808 590.027 639.392C589.03 640.947 587.592 642.149 585.715 643C583.838 643.851 581.594 644.276 578.983 644.276H569.259L570.711 642.736V654H567.455ZM570.711 643L569.259 641.416H578.895C581.975 641.416 584.307 640.756 585.891 639.436C587.504 638.087 588.311 636.195 588.311 633.76C588.311 631.296 587.504 629.389 585.891 628.04C584.307 626.691 581.975 626.016 578.895 626.016H569.259L570.711 624.476V643ZM607.631 654.22C605.225 654.22 603.113 653.721 601.295 652.724C599.476 651.697 598.053 650.304 597.027 648.544C596 646.755 595.487 644.716 595.487 642.428C595.487 640.14 595.971 638.116 596.939 636.356C597.936 634.596 599.285 633.217 600.987 632.22C602.717 631.193 604.653 630.68 606.795 630.68C608.965 630.68 610.887 631.179 612.559 632.176C614.26 633.144 615.595 634.523 616.563 636.312C617.531 638.072 618.015 640.111 618.015 642.428C618.015 642.575 618 642.736 617.971 642.912C617.971 643.059 617.971 643.22 617.971 643.396H597.863V641.064H616.299L615.067 641.988C615.067 640.316 614.7 638.835 613.967 637.544C613.263 636.224 612.295 635.197 611.063 634.464C609.831 633.731 608.408 633.364 606.795 633.364C605.211 633.364 603.788 633.731 602.527 634.464C601.265 635.197 600.283 636.224 599.579 637.544C598.875 638.864 598.523 640.375 598.523 642.076V642.56C598.523 644.32 598.904 645.875 599.667 647.224C600.459 648.544 601.544 649.585 602.923 650.348C604.331 651.081 605.929 651.448 607.719 651.448C609.127 651.448 610.432 651.199 611.635 650.7C612.867 650.201 613.923 649.439 614.803 648.412L616.563 650.436C615.536 651.668 614.245 652.607 612.691 653.252C611.165 653.897 609.479 654.22 607.631 654.22ZM636.165 630.68C638.043 630.68 639.685 631.047 641.093 631.78C642.531 632.484 643.645 633.569 644.437 635.036C645.259 636.503 645.669 638.351 645.669 640.58V654H642.545V640.888C642.545 638.453 641.929 636.62 640.697 635.388C639.495 634.127 637.793 633.496 635.593 633.496C633.951 633.496 632.513 633.833 631.281 634.508C630.079 635.153 629.14 636.107 628.465 637.368C627.82 638.6 627.497 640.096 627.497 641.856V654H624.373V630.9H627.365V637.236L626.881 636.048C627.615 634.376 628.788 633.071 630.401 632.132C632.015 631.164 633.936 630.68 636.165 630.68ZM663.964 662.756C661.852 662.756 659.828 662.448 657.892 661.832C655.956 661.216 654.386 660.336 653.184 659.192L654.768 656.816C655.853 657.784 657.188 658.547 658.772 659.104C660.385 659.691 662.086 659.984 663.876 659.984C666.809 659.984 668.965 659.295 670.344 657.916C671.722 656.567 672.412 654.455 672.412 651.58V645.816L672.852 641.856L672.544 637.896V630.9H675.536V651.184C675.536 655.173 674.553 658.092 672.588 659.94C670.652 661.817 667.777 662.756 663.964 662.756ZM663.392 653.12C661.192 653.12 659.212 652.651 657.452 651.712C655.692 650.744 654.298 649.409 653.272 647.708C652.274 646.007 651.776 644.056 651.776 641.856C651.776 639.656 652.274 637.72 653.272 636.048C654.298 634.347 655.692 633.027 657.452 632.088C659.212 631.149 661.192 630.68 663.392 630.68C665.445 630.68 667.293 631.105 668.936 631.956C670.578 632.807 671.884 634.068 672.852 635.74C673.82 637.412 674.304 639.451 674.304 641.856C674.304 644.261 673.82 646.3 672.852 647.972C671.884 649.644 670.578 650.92 668.936 651.8C667.293 652.68 665.445 653.12 663.392 653.12ZM663.7 650.348C665.401 650.348 666.912 649.996 668.232 649.292C669.552 648.559 670.593 647.561 671.356 646.3C672.118 645.009 672.5 643.528 672.5 641.856C672.5 640.184 672.118 638.717 671.356 637.456C670.593 636.195 669.552 635.212 668.232 634.508C666.912 633.775 665.401 633.408 663.7 633.408C662.028 633.408 660.517 633.775 659.168 634.508C657.848 635.212 656.806 636.195 656.044 637.456C655.31 638.717 654.944 640.184 654.944 641.856C654.944 643.528 655.31 645.009 656.044 646.3C656.806 647.561 657.848 648.559 659.168 649.292C660.517 649.996 662.028 650.348 663.7 650.348ZM694.041 654.22C691.635 654.22 689.523 653.721 687.705 652.724C685.886 651.697 684.463 650.304 683.437 648.544C682.41 646.755 681.897 644.716 681.897 642.428C681.897 640.14 682.381 638.116 683.349 636.356C684.346 634.596 685.695 633.217 687.397 632.22C689.127 631.193 691.063 630.68 693.205 630.68C695.375 630.68 697.297 631.179 698.969 632.176C700.67 633.144 702.005 634.523 702.973 636.312C703.941 638.072 704.425 640.111 704.425 642.428C704.425 642.575 704.41 642.736 704.381 642.912C704.381 643.059 704.381 643.22 704.381 643.396H684.273V641.064H702.709L701.477 641.988C701.477 640.316 701.11 638.835 700.377 637.544C699.673 636.224 698.705 635.197 697.473 634.464C696.241 633.731 694.818 633.364 693.205 633.364C691.621 633.364 690.198 633.731 688.937 634.464C687.675 635.197 686.693 636.224 685.989 637.544C685.285 638.864 684.933 640.375 684.933 642.076V642.56C684.933 644.32 685.314 645.875 686.077 647.224C686.869 648.544 687.954 649.585 689.333 650.348C690.741 651.081 692.339 651.448 694.129 651.448C695.537 651.448 696.842 651.199 698.045 650.7C699.277 650.201 700.333 649.439 701.213 648.412L702.973 650.436C701.946 651.668 700.655 652.607 699.101 653.252C697.575 653.897 695.889 654.22 694.041 654.22ZM710.783 654V630.9H713.775V637.192L713.467 636.092C714.113 634.332 715.198 632.997 716.723 632.088C718.249 631.149 720.141 630.68 722.399 630.68V633.716C722.282 633.716 722.165 633.716 722.047 633.716C721.93 633.687 721.813 633.672 721.695 633.672C719.261 633.672 717.354 634.42 715.975 635.916C714.597 637.383 713.907 639.48 713.907 642.208V654H710.783ZM725.012 662.756C724.073 662.756 723.178 662.624 722.328 662.36C721.448 662.125 720.714 661.759 720.128 661.26L721.228 658.884C722.166 659.676 723.369 660.072 724.836 660.072C726.068 660.072 727.006 659.705 727.652 658.972C728.326 658.239 728.664 657.153 728.664 655.716V630.9H731.788V655.716C731.788 657.857 731.201 659.559 730.028 660.82C728.884 662.111 727.212 662.756 725.012 662.756ZM730.248 625.796C729.602 625.796 729.06 625.576 728.62 625.136C728.18 624.696 727.96 624.168 727.96 623.552C727.96 622.936 728.18 622.423 728.62 622.012C729.06 621.572 729.602 621.352 730.248 621.352C730.893 621.352 731.436 621.557 731.876 621.968C732.316 622.379 732.536 622.892 732.536 623.508C732.536 624.153 732.316 624.696 731.876 625.136C731.465 625.576 730.922 625.796 730.248 625.796ZM754.994 654V648.896L754.862 648.06V639.524C754.862 637.559 754.304 636.048 753.19 634.992C752.104 633.936 750.476 633.408 748.306 633.408C746.81 633.408 745.387 633.657 744.038 634.156C742.688 634.655 741.544 635.315 740.606 636.136L739.198 633.804C740.371 632.807 741.779 632.044 743.422 631.516C745.064 630.959 746.795 630.68 748.614 630.68C751.606 630.68 753.908 631.428 755.522 632.924C757.164 634.391 757.986 636.635 757.986 639.656V654H754.994ZM747.03 654.22C745.299 654.22 743.788 653.941 742.498 653.384C741.236 652.797 740.268 652.005 739.594 651.008C738.919 649.981 738.582 648.808 738.582 647.488C738.582 646.285 738.86 645.2 739.418 644.232C740.004 643.235 740.943 642.443 742.234 641.856C743.554 641.24 745.314 640.932 747.514 640.932H755.478V643.264H747.602C745.372 643.264 743.818 643.66 742.938 644.452C742.087 645.244 741.662 646.227 741.662 647.4C741.662 648.72 742.175 649.776 743.202 650.568C744.228 651.36 745.666 651.756 747.514 651.756C749.274 651.756 750.784 651.36 752.046 650.568C753.336 649.747 754.275 648.573 754.862 647.048L755.566 649.204C754.979 650.729 753.952 651.947 752.486 652.856C751.048 653.765 749.23 654.22 747.03 654.22ZM780.947 654V648.896L780.815 648.06V639.524C780.815 637.559 780.258 636.048 779.143 634.992C778.058 633.936 776.43 633.408 774.259 633.408C772.763 633.408 771.34 633.657 769.991 634.156C768.642 634.655 767.498 635.315 766.559 636.136L765.151 633.804C766.324 632.807 767.732 632.044 769.375 631.516C771.018 630.959 772.748 630.68 774.567 630.68C777.559 630.68 779.862 631.428 781.475 632.924C783.118 634.391 783.939 636.635 783.939 639.656V654H780.947ZM772.983 654.22C771.252 654.22 769.742 653.941 768.451 653.384C767.19 652.797 766.222 652.005 765.547 651.008C764.872 649.981 764.535 648.808 764.535 647.488C764.535 646.285 764.814 645.2 765.371 644.232C765.958 643.235 766.896 642.443 768.187 641.856C769.507 641.24 771.267 640.932 773.467 640.932H781.431V643.264H773.555C771.326 643.264 769.771 643.66 768.891 644.452C768.04 645.244 767.615 646.227 767.615 647.4C767.615 648.72 768.128 649.776 769.155 650.568C770.182 651.36 771.619 651.756 773.467 651.756C775.227 651.756 776.738 651.36 777.999 650.568C779.29 649.747 780.228 648.573 780.815 647.048L781.519 649.204C780.932 650.729 779.906 651.947 778.439 652.856C777.002 653.765 775.183 654.22 772.983 654.22ZM804.216 630.68C806.093 630.68 807.736 631.047 809.144 631.78C810.581 632.484 811.696 633.569 812.488 635.036C813.309 636.503 813.72 638.351 813.72 640.58V654H810.596V640.888C810.596 638.453 809.98 636.62 808.748 635.388C807.545 634.127 805.844 633.496 803.644 633.496C802.001 633.496 800.564 633.833 799.332 634.508C798.129 635.153 797.191 636.107 796.516 637.368C795.871 638.6 795.548 640.096 795.548 641.856V654H792.424V630.9H795.416V637.236L794.932 636.048C795.665 634.376 796.839 633.071 798.452 632.132C800.065 631.164 801.987 630.68 804.216 630.68ZM340.258 698V667.2H351.786C354.397 667.2 356.641 667.625 358.518 668.476C360.395 669.297 361.833 670.5 362.83 672.084C363.857 673.639 364.37 675.531 364.37 677.76C364.37 679.931 363.857 681.808 362.83 683.392C361.833 684.947 360.395 686.149 358.518 687C356.641 687.851 354.397 688.276 351.786 688.276H342.062L343.514 686.736V698H340.258ZM343.514 687L342.062 685.416H351.698C354.778 685.416 357.11 684.756 358.694 683.436C360.307 682.087 361.114 680.195 361.114 677.76C361.114 675.296 360.307 673.389 358.694 672.04C357.11 670.691 354.778 670.016 351.698 670.016H342.062L343.514 668.476V687ZM380.433 698.22C378.028 698.22 375.916 697.721 374.097 696.724C372.279 695.697 370.856 694.304 369.829 692.544C368.803 690.755 368.289 688.716 368.289 686.428C368.289 684.14 368.773 682.116 369.741 680.356C370.739 678.596 372.088 677.217 373.789 676.22C375.52 675.193 377.456 674.68 379.597 674.68C381.768 674.68 383.689 675.179 385.361 676.176C387.063 677.144 388.397 678.523 389.365 680.312C390.333 682.072 390.817 684.111 390.817 686.428C390.817 686.575 390.803 686.736 390.773 686.912C390.773 687.059 390.773 687.22 390.773 687.396H370.665V685.064H389.101L387.869 685.988C387.869 684.316 387.503 682.835 386.769 681.544C386.065 680.224 385.097 679.197 383.865 678.464C382.633 677.731 381.211 677.364 379.597 677.364C378.013 677.364 376.591 677.731 375.329 678.464C374.068 679.197 373.085 680.224 372.381 681.544C371.677 682.864 371.325 684.375 371.325 686.076V686.56C371.325 688.32 371.707 689.875 372.469 691.224C373.261 692.544 374.347 693.585 375.725 694.348C377.133 695.081 378.732 695.448 380.521 695.448C381.929 695.448 383.235 695.199 384.437 694.7C385.669 694.201 386.725 693.439 387.605 692.412L389.365 694.436C388.339 695.668 387.048 696.607 385.493 697.252C383.968 697.897 382.281 698.22 380.433 698.22ZM397.176 698V674.9H400.168V681.192L399.86 680.092C400.505 678.332 401.591 676.997 403.116 676.088C404.641 675.149 406.533 674.68 408.792 674.68V677.716C408.675 677.716 408.557 677.716 408.44 677.716C408.323 677.687 408.205 677.672 408.088 677.672C405.653 677.672 403.747 678.42 402.368 679.916C400.989 681.383 400.3 683.48 400.3 686.208V698H397.176ZM412.648 687.44V684.712H424.176V687.44H412.648ZM431.824 698V667.2H435.08V695.184H452.328V698H431.824ZM471.55 698V692.896L471.418 692.06V683.524C471.418 681.559 470.861 680.048 469.746 678.992C468.661 677.936 467.033 677.408 464.862 677.408C463.366 677.408 461.944 677.657 460.594 678.156C459.245 678.655 458.101 679.315 457.162 680.136L455.754 677.804C456.928 676.807 458.336 676.044 459.978 675.516C461.621 674.959 463.352 674.68 465.17 674.68C468.162 674.68 470.465 675.428 472.078 676.924C473.721 678.391 474.542 680.635 474.542 683.656V698H471.55ZM463.586 698.22C461.856 698.22 460.345 697.941 459.054 697.384C457.793 696.797 456.825 696.005 456.15 695.008C455.476 693.981 455.138 692.808 455.138 691.488C455.138 690.285 455.417 689.2 455.974 688.232C456.561 687.235 457.5 686.443 458.79 685.856C460.11 685.24 461.87 684.932 464.07 684.932H472.034V687.264H464.158C461.929 687.264 460.374 687.66 459.494 688.452C458.644 689.244 458.218 690.227 458.218 691.4C458.218 692.72 458.732 693.776 459.758 694.568C460.785 695.36 462.222 695.756 464.07 695.756C465.83 695.756 467.341 695.36 468.602 694.568C469.893 693.747 470.832 692.573 471.418 691.048L472.122 693.204C471.536 694.729 470.509 695.947 469.042 696.856C467.605 697.765 465.786 698.22 463.586 698.22ZM511.892 674.68C513.769 674.68 515.397 675.047 516.776 675.78C518.184 676.484 519.269 677.569 520.032 679.036C520.824 680.503 521.22 682.351 521.22 684.58V698H518.096V684.888C518.096 682.453 517.509 680.62 516.336 679.388C515.192 678.127 513.564 677.496 511.452 677.496C509.868 677.496 508.489 677.833 507.316 678.508C506.172 679.153 505.277 680.107 504.632 681.368C504.016 682.6 503.708 684.096 503.708 685.856V698H500.584V684.888C500.584 682.453 499.997 680.62 498.824 679.388C497.65 678.127 496.008 677.496 493.896 677.496C492.341 677.496 490.977 677.833 489.804 678.508C488.63 679.153 487.721 680.107 487.076 681.368C486.46 682.6 486.152 684.096 486.152 685.856V698H483.028V674.9H486.02V681.148L485.536 680.048C486.24 678.376 487.369 677.071 488.924 676.132C490.508 675.164 492.37 674.68 494.512 674.68C496.77 674.68 498.692 675.252 500.276 676.396C501.86 677.511 502.886 679.197 503.356 681.456L502.124 680.972C502.798 679.095 503.986 677.584 505.688 676.44C507.418 675.267 509.486 674.68 511.892 674.68ZM544.168 698V692.896L544.036 692.06V683.524C544.036 681.559 543.478 680.048 542.364 678.992C541.278 677.936 539.65 677.408 537.48 677.408C535.984 677.408 534.561 677.657 533.212 678.156C531.862 678.655 530.718 679.315 529.78 680.136L528.372 677.804C529.545 676.807 530.953 676.044 532.596 675.516C534.238 674.959 535.969 674.68 537.788 674.68C540.78 674.68 543.082 675.428 544.696 676.924C546.338 678.391 547.16 680.635 547.16 683.656V698H544.168ZM536.204 698.22C534.473 698.22 532.962 697.941 531.672 697.384C530.41 696.797 529.442 696.005 528.768 695.008C528.093 693.981 527.756 692.808 527.756 691.488C527.756 690.285 528.034 689.2 528.592 688.232C529.178 687.235 530.117 686.443 531.408 685.856C532.728 685.24 534.488 684.932 536.688 684.932H544.652V687.264H536.776C534.546 687.264 532.992 687.66 532.112 688.452C531.261 689.244 530.836 690.227 530.836 691.4C530.836 692.72 531.349 693.776 532.376 694.568C533.402 695.36 534.84 695.756 536.688 695.756C538.448 695.756 539.958 695.36 541.22 694.568C542.51 693.747 543.449 692.573 544.036 691.048L544.74 693.204C544.153 694.729 543.126 695.947 541.66 696.856C540.222 697.765 538.404 698.22 536.204 698.22ZM567.437 674.68C569.314 674.68 570.957 675.047 572.365 675.78C573.802 676.484 574.917 677.569 575.709 679.036C576.53 680.503 576.941 682.351 576.941 684.58V698H573.817V684.888C573.817 682.453 573.201 680.62 571.969 679.388C570.766 678.127 569.065 677.496 566.865 677.496C565.222 677.496 563.785 677.833 562.553 678.508C561.35 679.153 560.411 680.107 559.737 681.368C559.091 682.6 558.769 684.096 558.769 685.856V698H555.645V674.9H558.637V681.236L558.153 680.048C558.886 678.376 560.059 677.071 561.673 676.132C563.286 675.164 565.207 674.68 567.437 674.68ZM597.555 698V667.2H610.095C613.38 667.2 616.255 667.86 618.719 669.18C621.212 670.471 623.148 672.275 624.527 674.592C625.905 676.909 626.595 679.579 626.595 682.6C626.595 685.621 625.905 688.291 624.527 690.608C623.148 692.925 621.212 694.744 618.719 696.064C616.255 697.355 613.38 698 610.095 698H597.555ZM600.811 695.184H609.919C612.647 695.184 615.008 694.656 617.003 693.6C619.027 692.515 620.596 691.033 621.711 689.156C622.825 687.249 623.383 685.064 623.383 682.6C623.383 680.107 622.825 677.921 621.711 676.044C620.596 674.167 619.027 672.7 617.003 671.644C615.008 670.559 612.647 670.016 609.919 670.016H600.811V695.184ZM643.058 698.22C640.653 698.22 638.541 697.721 636.722 696.724C634.904 695.697 633.481 694.304 632.454 692.544C631.428 690.755 630.914 688.716 630.914 686.428C630.914 684.14 631.398 682.116 632.366 680.356C633.364 678.596 634.713 677.217 636.414 676.22C638.145 675.193 640.081 674.68 642.222 674.68C644.393 674.68 646.314 675.179 647.986 676.176C649.688 677.144 651.022 678.523 651.99 680.312C652.958 682.072 653.442 684.111 653.442 686.428C653.442 686.575 653.428 686.736 653.398 686.912C653.398 687.059 653.398 687.22 653.398 687.396H633.29V685.064H651.726L650.494 685.988C650.494 684.316 650.128 682.835 649.394 681.544C648.69 680.224 647.722 679.197 646.49 678.464C645.258 677.731 643.836 677.364 642.222 677.364C640.638 677.364 639.216 677.731 637.954 678.464C636.693 679.197 635.71 680.224 635.006 681.544C634.302 682.864 633.95 684.375 633.95 686.076V686.56C633.95 688.32 634.332 689.875 635.094 691.224C635.886 692.544 636.972 693.585 638.35 694.348C639.758 695.081 641.357 695.448 643.146 695.448C644.554 695.448 645.86 695.199 647.062 694.7C648.294 694.201 649.35 693.439 650.23 692.412L651.99 694.436C650.964 695.668 649.673 696.607 648.118 697.252C646.593 697.897 644.906 698.22 643.058 698.22ZM666.005 698.22C664.098 698.22 662.294 697.956 660.593 697.428C658.892 696.871 657.557 696.181 656.589 695.36L657.997 692.896C658.936 693.6 660.138 694.216 661.605 694.744C663.072 695.243 664.612 695.492 666.225 695.492C668.425 695.492 670.009 695.155 670.977 694.48C671.945 693.776 672.429 692.852 672.429 691.708C672.429 690.857 672.15 690.197 671.593 689.728C671.065 689.229 670.361 688.863 669.481 688.628C668.601 688.364 667.618 688.144 666.533 687.968C665.448 687.792 664.362 687.587 663.277 687.352C662.221 687.117 661.253 686.78 660.373 686.34C659.493 685.871 658.774 685.24 658.217 684.448C657.689 683.656 657.425 682.6 657.425 681.28C657.425 680.019 657.777 678.889 658.481 677.892C659.185 676.895 660.212 676.117 661.561 675.56C662.94 674.973 664.612 674.68 666.577 674.68C668.073 674.68 669.569 674.885 671.065 675.296C672.561 675.677 673.793 676.191 674.761 676.836L673.397 679.344C672.37 678.64 671.27 678.141 670.097 677.848C668.924 677.525 667.75 677.364 666.577 677.364C664.494 677.364 662.954 677.731 661.957 678.464C660.989 679.168 660.505 680.077 660.505 681.192C660.505 682.072 660.769 682.761 661.297 683.26C661.854 683.759 662.573 684.155 663.453 684.448C664.362 684.712 665.345 684.932 666.401 685.108C667.486 685.284 668.557 685.504 669.613 685.768C670.698 686.003 671.681 686.34 672.561 686.78C673.47 687.191 674.189 687.792 674.717 688.584C675.274 689.347 675.553 690.359 675.553 691.62C675.553 692.969 675.172 694.143 674.409 695.14C673.676 696.108 672.59 696.871 671.153 697.428C669.745 697.956 668.029 698.22 666.005 698.22ZM695.761 698V692.896L695.629 692.06V683.524C695.629 681.559 695.072 680.048 693.957 678.992C692.872 677.936 691.244 677.408 689.073 677.408C687.577 677.408 686.155 677.657 684.805 678.156C683.456 678.655 682.312 679.315 681.373 680.136L679.965 677.804C681.139 676.807 682.547 676.044 684.189 675.516C685.832 674.959 687.563 674.68 689.381 674.68C692.373 674.68 694.676 675.428 696.289 676.924C697.932 678.391 698.753 680.635 698.753 683.656V698H695.761ZM687.797 698.22C686.067 698.22 684.556 697.941 683.265 697.384C682.004 696.797 681.036 696.005 680.361 695.008C679.687 693.981 679.349 692.808 679.349 691.488C679.349 690.285 679.628 689.2 680.185 688.232C680.772 687.235 681.711 686.443 683.001 685.856C684.321 685.24 686.081 684.932 688.281 684.932H696.245V687.264H688.369C686.14 687.264 684.585 687.66 683.705 688.452C682.855 689.244 682.429 690.227 682.429 691.4C682.429 692.72 682.943 693.776 683.969 694.568C684.996 695.36 686.433 695.756 688.281 695.756C690.041 695.756 691.552 695.36 692.813 694.568C694.104 693.747 695.043 692.573 695.629 691.048L696.333 693.204C695.747 694.729 694.72 695.947 693.253 696.856C691.816 697.765 689.997 698.22 687.797 698.22ZM707.239 698V674.9H710.363V698H707.239ZM708.823 669.796C708.177 669.796 707.635 669.576 707.195 669.136C706.755 668.696 706.535 668.168 706.535 667.552C706.535 666.936 706.755 666.423 707.195 666.012C707.635 665.572 708.177 665.352 708.823 665.352C709.468 665.352 710.011 665.557 710.451 665.968C710.891 666.379 711.111 666.892 711.111 667.508C711.111 668.153 710.891 668.696 710.451 669.136C710.04 669.576 709.497 669.796 708.823 669.796ZM730.847 674.68C732.724 674.68 734.367 675.047 735.775 675.78C737.212 676.484 738.327 677.569 739.119 679.036C739.94 680.503 740.351 682.351 740.351 684.58V698H737.227V684.888C737.227 682.453 736.611 680.62 735.379 679.388C734.176 678.127 732.475 677.496 730.275 677.496C728.632 677.496 727.195 677.833 725.963 678.508C724.76 679.153 723.822 680.107 723.147 681.368C722.502 682.6 722.179 684.096 722.179 685.856V698H719.055V674.9H722.047V681.236L721.563 680.048C722.296 678.376 723.47 677.071 725.083 676.132C726.696 675.164 728.618 674.68 730.847 674.68Z" fill="#212121"/>
<path d="M47 241H79V273L47 241Z" fill="#303030"/>
<path d="M1033 241H1001V273L1033 241Z" fill="#303030"/>
<line x1="540.5" y1="273" x2="540.5" y2="570" stroke="#212121"/>
</svg>
