<svg width="1080" height="272" viewBox="0 0 1080 272" fill="none" xmlns="http://www.w3.org/2000/svg">
<path d="M0 100C0 44.7715 44.7715 0 100 0H980C1035.23 0 1080 44.7715 1080 100V272H0V100Z" fill="#A53C65"/>
<path d="M260.081 210.814C256.416 210.814 253 210.226 249.833 209.05C246.711 207.828 243.996 206.109 241.688 203.892C239.381 201.675 237.571 199.073 236.259 196.087C234.992 193.101 234.359 189.821 234.359 186.246C234.359 182.672 234.992 179.392 236.259 176.405C237.571 173.419 239.381 170.818 241.688 168.601C244.041 166.384 246.778 164.687 249.9 163.511C253.022 162.289 256.438 161.678 260.148 161.678C264.266 161.678 267.976 162.402 271.279 163.85C274.627 165.252 277.432 167.334 279.694 170.094L272.636 176.609C271.007 174.754 269.197 173.374 267.207 172.469C265.216 171.519 263.044 171.044 260.691 171.044C258.474 171.044 256.438 171.406 254.583 172.13C252.728 172.854 251.122 173.894 249.765 175.252C248.407 176.609 247.344 178.215 246.575 180.07C245.851 181.925 245.489 183.984 245.489 186.246C245.489 188.509 245.851 190.567 246.575 192.422C247.344 194.277 248.407 195.883 249.765 197.241C251.122 198.598 252.728 199.639 254.583 200.363C256.438 201.087 258.474 201.449 260.691 201.449C263.044 201.449 265.216 200.996 267.207 200.091C269.197 199.141 271.007 197.716 272.636 195.816L279.694 202.331C277.432 205.091 274.627 207.195 271.279 208.643C267.976 210.09 264.243 210.814 260.081 210.814ZM308.504 210V202.874L307.825 201.313V188.554C307.825 186.292 307.124 184.527 305.721 183.26C304.364 181.993 302.26 181.36 299.409 181.36C297.464 181.36 295.541 181.677 293.641 182.31C291.786 182.898 290.202 183.713 288.89 184.753L285.089 177.356C287.08 175.953 289.478 174.867 292.283 174.098C295.089 173.329 297.939 172.944 300.835 172.944C306.4 172.944 310.721 174.256 313.797 176.881C316.874 179.505 318.412 183.599 318.412 189.165V210H308.504ZM297.373 210.543C294.523 210.543 292.08 210.068 290.044 209.118C288.008 208.122 286.447 206.788 285.361 205.114C284.275 203.439 283.732 201.562 283.732 199.48C283.732 197.309 284.252 195.408 285.293 193.78C286.379 192.151 288.076 190.884 290.383 189.979C292.691 189.029 295.699 188.554 299.409 188.554H309.115V194.73H300.563C298.075 194.73 296.355 195.137 295.405 195.951C294.5 196.766 294.048 197.784 294.048 199.005C294.048 200.363 294.568 201.449 295.609 202.263C296.695 203.032 298.165 203.417 300.02 203.417C301.785 203.417 303.368 203.01 304.771 202.195C306.174 201.336 307.192 200.091 307.825 198.462L309.454 203.349C308.685 205.702 307.282 207.489 305.246 208.711C303.21 209.932 300.586 210.543 297.373 210.543ZM340.279 210.543C337.157 210.543 334.148 210.181 331.252 209.457C328.402 208.688 326.139 207.738 324.465 206.607L327.994 199.005C329.669 200.046 331.637 200.906 333.899 201.584C336.207 202.218 338.469 202.535 340.686 202.535C343.129 202.535 344.848 202.24 345.844 201.652C346.884 201.064 347.405 200.25 347.405 199.209C347.405 198.349 346.997 197.716 346.183 197.309C345.414 196.856 344.373 196.517 343.061 196.291C341.749 196.064 340.301 195.838 338.718 195.612C337.179 195.386 335.618 195.092 334.035 194.73C332.451 194.323 331.003 193.734 329.691 192.965C328.379 192.196 327.316 191.155 326.501 189.843C325.732 188.531 325.348 186.834 325.348 184.753C325.348 182.446 326.004 180.41 327.316 178.645C328.673 176.881 330.619 175.501 333.152 174.505C335.686 173.464 338.718 172.944 342.247 172.944C344.735 172.944 347.269 173.216 349.848 173.759C352.427 174.302 354.576 175.093 356.295 176.134L352.766 183.667C351.002 182.627 349.215 181.925 347.405 181.563C345.64 181.156 343.921 180.953 342.247 180.953C339.894 180.953 338.175 181.269 337.089 181.903C336.003 182.536 335.46 183.351 335.46 184.346C335.46 185.251 335.845 185.93 336.614 186.382C337.428 186.834 338.491 187.196 339.803 187.468C341.116 187.739 342.541 187.988 344.079 188.214C345.663 188.395 347.246 188.69 348.83 189.097C350.413 189.504 351.839 190.092 353.106 190.861C354.418 191.585 355.481 192.603 356.295 193.915C357.11 195.182 357.517 196.856 357.517 198.938C357.517 201.2 356.838 203.213 355.481 204.978C354.124 206.697 352.155 208.054 349.576 209.05C347.043 210.045 343.943 210.543 340.279 210.543ZM376.333 210.543C373.211 210.543 370.203 210.181 367.307 209.457C364.456 208.688 362.194 207.738 360.52 206.607L364.049 199.005C365.723 200.046 367.692 200.906 369.954 201.584C372.261 202.218 374.524 202.535 376.741 202.535C379.184 202.535 380.903 202.24 381.898 201.652C382.939 201.064 383.459 200.25 383.459 199.209C383.459 198.349 383.052 197.716 382.238 197.309C381.469 196.856 380.428 196.517 379.116 196.291C377.804 196.064 376.356 195.838 374.772 195.612C373.234 195.386 371.673 195.092 370.089 194.73C368.506 194.323 367.058 193.734 365.746 192.965C364.434 192.196 363.371 191.155 362.556 189.843C361.787 188.531 361.402 186.834 361.402 184.753C361.402 182.446 362.058 180.41 363.371 178.645C364.728 176.881 366.673 175.501 369.207 174.505C371.741 173.464 374.772 172.944 378.302 172.944C380.79 172.944 383.324 173.216 385.903 173.759C388.482 174.302 390.631 175.093 392.35 176.134L388.821 183.667C387.056 182.627 385.269 181.925 383.459 181.563C381.695 181.156 379.976 180.953 378.302 180.953C375.949 180.953 374.229 181.269 373.144 181.903C372.058 182.536 371.515 183.351 371.515 184.346C371.515 185.251 371.899 185.93 372.668 186.382C373.483 186.834 374.546 187.196 375.858 187.468C377.17 187.739 378.596 187.988 380.134 188.214C381.718 188.395 383.301 188.69 384.885 189.097C386.468 189.504 387.893 190.092 389.16 190.861C390.472 191.585 391.536 192.603 392.35 193.915C393.165 195.182 393.572 196.856 393.572 198.938C393.572 201.2 392.893 203.213 391.536 204.978C390.178 206.697 388.21 208.054 385.631 209.05C383.097 210.045 379.998 210.543 376.333 210.543ZM415.51 210.543C412.479 210.543 409.764 209.955 407.366 208.778C405.013 207.602 403.181 205.815 401.869 203.417C400.556 200.974 399.9 197.874 399.9 194.119V173.487H410.488V192.558C410.488 195.589 411.121 197.829 412.388 199.277C413.7 200.679 415.533 201.381 417.885 201.381C419.514 201.381 420.962 201.041 422.229 200.363C423.496 199.639 424.491 198.553 425.215 197.105C425.939 195.612 426.301 193.757 426.301 191.54V173.487H436.888V210H426.844V199.956L428.676 202.874C427.455 205.408 425.645 207.331 423.247 208.643C420.894 209.91 418.315 210.543 415.51 210.543ZM469.093 210V202.874L468.415 201.313V188.554C468.415 186.292 467.713 184.527 466.311 183.26C464.953 181.993 462.849 181.36 459.999 181.36C458.053 181.36 456.131 181.677 454.23 182.31C452.375 182.898 450.792 183.713 449.479 184.753L445.679 177.356C447.67 175.953 450.068 174.867 452.873 174.098C455.678 173.329 458.528 172.944 461.424 172.944C466.989 172.944 471.31 174.256 474.387 176.881C477.464 179.505 479.002 183.599 479.002 189.165V210H469.093ZM457.963 210.543C455.112 210.543 452.669 210.068 450.633 209.118C448.597 208.122 447.036 206.788 445.95 205.114C444.864 203.439 444.322 201.562 444.322 199.48C444.322 197.309 444.842 195.408 445.882 193.78C446.968 192.151 448.665 190.884 450.973 189.979C453.28 189.029 456.289 188.554 459.999 188.554H469.704V194.73H461.153C458.664 194.73 456.945 195.137 455.995 195.951C455.09 196.766 454.637 197.784 454.637 199.005C454.637 200.363 455.158 201.449 456.198 202.263C457.284 203.032 458.755 203.417 460.61 203.417C462.374 203.417 463.958 203.01 465.361 202.195C466.763 201.336 467.781 200.091 468.415 198.462L470.043 203.349C469.274 205.702 467.872 207.489 465.836 208.711C463.8 209.932 461.175 210.543 457.963 210.543ZM488.584 210V159.642H499.171V210H488.584ZM528.964 210V162.493H549.528C553.781 162.493 557.446 163.194 560.523 164.596C563.6 165.954 565.975 167.922 567.649 170.501C569.323 173.08 570.16 176.157 570.16 179.731C570.16 183.26 569.323 186.314 567.649 188.893C565.975 191.427 563.6 193.372 560.523 194.73C557.446 196.087 553.781 196.766 549.528 196.766H535.072L539.959 191.947V210H528.964ZM559.165 210L547.289 192.762H559.03L571.042 210H559.165ZM539.959 193.169L535.072 188.011H548.917C552.311 188.011 554.845 187.287 556.519 185.839C558.193 184.346 559.03 182.31 559.03 179.731C559.03 177.107 558.193 175.071 556.519 173.623C554.845 172.175 552.311 171.451 548.917 171.451H535.072L539.959 166.225V193.169ZM595.499 210.543C591.608 210.543 588.146 209.729 585.115 208.1C582.129 206.471 579.753 204.254 577.989 201.449C576.269 198.598 575.41 195.363 575.41 191.744C575.41 188.079 576.269 184.844 577.989 182.038C579.753 179.188 582.129 176.971 585.115 175.387C588.146 173.759 591.608 172.944 595.499 172.944C599.344 172.944 602.783 173.759 605.815 175.387C608.846 176.971 611.221 179.165 612.941 181.971C614.66 184.776 615.52 188.033 615.52 191.744C615.52 195.363 614.66 198.598 612.941 201.449C611.221 204.254 608.846 206.471 605.815 208.1C602.783 209.729 599.344 210.543 595.499 210.543ZM595.499 201.856C597.263 201.856 598.847 201.449 600.249 200.634C601.652 199.82 602.761 198.666 603.575 197.173C604.389 195.635 604.797 193.825 604.797 191.744C604.797 189.617 604.389 187.807 603.575 186.314C602.761 184.821 601.652 183.667 600.249 182.853C598.847 182.038 597.263 181.631 595.499 181.631C593.734 181.631 592.151 182.038 590.748 182.853C589.345 183.667 588.214 184.821 587.355 186.314C586.54 187.807 586.133 189.617 586.133 191.744C586.133 193.825 586.54 195.635 587.355 197.173C588.214 198.666 589.345 199.82 590.748 200.634C592.151 201.449 593.734 201.856 595.499 201.856ZM638.002 210.543C634.971 210.543 632.256 209.955 629.858 208.778C627.506 207.602 625.673 205.815 624.361 203.417C623.049 200.974 622.393 197.874 622.393 194.119V173.487H632.98V192.558C632.98 195.589 633.614 197.829 634.881 199.277C636.193 200.679 638.025 201.381 640.378 201.381C642.007 201.381 643.454 201.041 644.721 200.363C645.988 199.639 646.984 198.553 647.708 197.105C648.431 195.612 648.793 193.757 648.793 191.54V173.487H659.381V210H649.336V199.956L651.169 202.874C649.947 205.408 648.137 207.331 645.739 208.643C643.387 209.91 640.808 210.543 638.002 210.543ZM691.382 172.944C694.278 172.944 696.857 173.532 699.119 174.709C701.426 175.84 703.236 177.604 704.548 180.002C705.861 182.355 706.517 185.387 706.517 189.097V210H695.929V190.726C695.929 187.785 695.273 185.613 693.961 184.21C692.694 182.808 690.884 182.106 688.532 182.106C686.858 182.106 685.342 182.468 683.984 183.192C682.672 183.871 681.632 184.934 680.863 186.382C680.139 187.83 679.777 189.685 679.777 191.947V210H669.189V173.487H679.302V183.599L677.401 180.545C678.713 178.102 680.591 176.224 683.034 174.912C685.478 173.6 688.26 172.944 691.382 172.944ZM732.056 210.543C728.617 210.543 725.518 209.774 722.758 208.235C719.998 206.652 717.804 204.457 716.175 201.652C714.591 198.847 713.8 195.544 713.8 191.744C713.8 187.898 714.591 184.572 716.175 181.767C717.804 178.962 719.998 176.79 722.758 175.252C725.518 173.713 728.617 172.944 732.056 172.944C735.133 172.944 737.825 173.623 740.132 174.98C742.44 176.338 744.227 178.396 745.494 181.156C746.761 183.916 747.394 187.445 747.394 191.744C747.394 195.997 746.783 199.526 745.562 202.331C744.34 205.091 742.576 207.15 740.268 208.507C738.006 209.864 735.268 210.543 732.056 210.543ZM733.889 201.856C735.608 201.856 737.169 201.449 738.571 200.634C739.974 199.82 741.082 198.666 741.897 197.173C742.757 195.635 743.186 193.825 743.186 191.744C743.186 189.617 742.757 187.807 741.897 186.314C741.082 184.821 739.974 183.667 738.571 182.853C737.169 182.038 735.608 181.631 733.889 181.631C732.124 181.631 730.54 182.038 729.138 182.853C727.735 183.667 726.604 184.821 725.744 186.314C724.93 187.807 724.523 189.617 724.523 191.744C724.523 193.825 724.93 195.635 725.744 197.173C726.604 198.666 727.735 199.82 729.138 200.634C730.54 201.449 732.124 201.856 733.889 201.856ZM743.458 210V202.535L743.661 191.676L742.983 180.885V159.642H753.57V210H743.458ZM781.49 210.543C777.327 210.543 773.662 209.729 770.495 208.1C767.373 206.471 764.953 204.254 763.233 201.449C761.514 198.598 760.654 195.363 760.654 191.744C760.654 188.079 761.491 184.844 763.166 182.038C764.885 179.188 767.215 176.971 770.156 175.387C773.097 173.759 776.422 172.944 780.132 172.944C783.707 172.944 786.919 173.713 789.77 175.252C792.665 176.745 794.95 178.917 796.624 181.767C798.298 184.572 799.135 187.943 799.135 191.879C799.135 192.287 799.113 192.762 799.068 193.305C799.022 193.802 798.977 194.277 798.932 194.73H769.274V188.554H793.367L789.295 190.386C789.295 188.486 788.91 186.834 788.141 185.432C787.372 184.029 786.308 182.943 784.951 182.174C783.594 181.36 782.01 180.953 780.2 180.953C778.391 180.953 776.784 181.36 775.382 182.174C774.024 182.943 772.961 184.052 772.192 185.5C771.423 186.902 771.038 188.576 771.038 190.522V192.151C771.038 194.142 771.468 195.906 772.328 197.444C773.233 198.938 774.477 200.091 776.06 200.906C777.689 201.675 779.59 202.059 781.761 202.059C783.707 202.059 785.404 201.765 786.851 201.177C788.345 200.589 789.702 199.707 790.923 198.53L796.557 204.638C794.882 206.539 792.779 208.009 790.245 209.05C787.711 210.045 784.793 210.543 781.49 210.543ZM821.862 210.543C818.423 210.543 815.324 209.774 812.564 208.235C809.804 206.652 807.609 204.457 805.981 201.652C804.397 198.847 803.605 195.544 803.605 191.744C803.605 187.898 804.397 184.572 805.981 181.767C807.609 178.962 809.804 176.79 812.564 175.252C815.324 173.713 818.423 172.944 821.862 172.944C824.938 172.944 827.63 173.623 829.938 174.98C832.245 176.338 834.033 178.396 835.3 181.156C836.566 183.916 837.2 187.445 837.2 191.744C837.2 195.997 836.589 199.526 835.367 202.331C834.146 205.091 832.381 207.15 830.074 208.507C827.811 209.864 825.074 210.543 821.862 210.543ZM823.694 201.856C825.413 201.856 826.974 201.449 828.377 200.634C829.78 199.82 830.888 198.666 831.703 197.173C832.562 195.635 832.992 193.825 832.992 191.744C832.992 189.617 832.562 187.807 831.703 186.314C830.888 184.821 829.78 183.667 828.377 182.853C826.974 182.038 825.413 181.631 823.694 181.631C821.93 181.631 820.346 182.038 818.943 182.853C817.541 183.667 816.41 184.821 815.55 186.314C814.736 187.807 814.328 189.617 814.328 191.744C814.328 193.825 814.736 195.635 815.55 197.173C816.41 198.666 817.541 199.82 818.943 200.634C820.346 201.449 821.93 201.856 823.694 201.856ZM833.263 210V202.535L833.467 191.676L832.788 180.885V159.642H843.376V210H833.263Z" fill="white"/>
<path d="M377.542 98V71.924H367.456V69.3H390.662V71.924H380.576V98H377.542ZM401.794 98.205C399.553 98.205 397.585 97.7403 395.89 96.811C394.196 95.8543 392.87 94.556 391.913 92.916C390.957 91.2487 390.478 89.349 390.478 87.217C390.478 85.085 390.929 83.199 391.831 81.559C392.761 79.919 394.018 78.6343 395.603 77.705C397.216 76.7483 399.02 76.27 401.015 76.27C403.038 76.27 404.828 76.7347 406.386 77.664C407.972 78.566 409.215 79.8507 410.117 81.518C411.019 83.158 411.47 85.0577 411.47 87.217C411.47 87.3537 411.457 87.504 411.429 87.668C411.429 87.8047 411.429 87.955 411.429 88.119H392.692V85.946H409.871L408.723 86.807C408.723 85.249 408.382 83.8687 407.698 82.666C407.042 81.436 406.14 80.4793 404.992 79.796C403.844 79.1127 402.519 78.771 401.015 78.771C399.539 78.771 398.214 79.1127 397.038 79.796C395.863 80.4793 394.947 81.436 394.291 82.666C393.635 83.896 393.307 85.3037 393.307 86.889V87.34C393.307 88.98 393.663 90.4287 394.373 91.686C395.111 92.916 396.123 93.8863 397.407 94.597C398.719 95.2803 400.209 95.622 401.876 95.622C403.188 95.622 404.405 95.3897 405.525 94.925C406.673 94.4603 407.657 93.7497 408.477 92.793L410.117 94.679C409.161 95.827 407.958 96.7017 406.509 97.303C405.088 97.9043 403.516 98.205 401.794 98.205ZM444.291 76.27C446.041 76.27 447.558 76.6117 448.842 77.295C450.154 77.951 451.166 78.9623 451.876 80.329C452.614 81.6957 452.983 83.4177 452.983 85.495V98H450.072V85.782C450.072 83.5133 449.526 81.805 448.432 80.657C447.366 79.4817 445.849 78.894 443.881 78.894C442.405 78.894 441.121 79.2083 440.027 79.837C438.961 80.4383 438.128 81.3267 437.526 82.502C436.952 83.65 436.665 85.044 436.665 86.684V98H433.754V85.782C433.754 83.5133 433.208 81.805 432.114 80.657C431.021 79.4817 429.49 78.894 427.522 78.894C426.074 78.894 424.803 79.2083 423.709 79.837C422.616 80.4383 421.769 81.3267 421.167 82.502C420.593 83.65 420.306 85.044 420.306 86.684V98H417.395V76.475H420.183V82.297L419.732 81.272C420.388 79.714 421.441 78.4977 422.889 77.623C424.365 76.721 426.101 76.27 428.096 76.27C430.201 76.27 431.991 76.803 433.467 77.869C434.943 78.9077 435.9 80.4793 436.337 82.584L435.189 82.133C435.818 80.3837 436.925 78.976 438.51 77.91C440.123 76.8167 442.05 76.27 444.291 76.27ZM471.989 98.205C470.13 98.205 468.449 97.7813 466.946 96.934C465.443 96.0593 464.24 94.8157 463.338 93.203C462.463 91.563 462.026 89.5677 462.026 87.217C462.026 84.8663 462.463 82.8847 463.338 81.272C464.213 79.632 465.402 78.3883 466.905 77.541C468.408 76.6937 470.103 76.27 471.989 76.27C474.039 76.27 475.87 76.7347 477.483 77.664C479.123 78.566 480.408 79.8507 481.337 81.518C482.266 83.158 482.731 85.0577 482.731 87.217C482.731 89.4037 482.266 91.317 481.337 92.957C480.408 94.597 479.123 95.8817 477.483 96.811C475.87 97.7403 474.039 98.205 471.989 98.205ZM460.878 105.954V76.475H463.666V82.953L463.379 87.258L463.789 91.604V105.954H460.878ZM471.784 95.622C473.315 95.622 474.681 95.2803 475.884 94.597C477.087 93.8863 478.043 92.9023 478.754 91.645C479.465 90.3603 479.82 88.8843 479.82 87.217C479.82 85.5497 479.465 84.0873 478.754 82.83C478.043 81.5727 477.087 80.5887 475.884 79.878C474.681 79.1673 473.315 78.812 471.784 78.812C470.253 78.812 468.873 79.1673 467.643 79.878C466.44 80.5887 465.484 81.5727 464.773 82.83C464.09 84.0873 463.748 85.5497 463.748 87.217C463.748 88.8843 464.09 90.3603 464.773 91.645C465.484 92.9023 466.44 93.8863 467.643 94.597C468.873 95.2803 470.253 95.622 471.784 95.622ZM488.665 98V67.578H491.576V98H488.665ZM513.165 98V93.244L513.042 92.465V84.511C513.042 82.6797 512.522 81.272 511.484 80.288C510.472 79.304 508.955 78.812 506.933 78.812C505.539 78.812 504.213 79.0443 502.956 79.509C501.698 79.9737 500.632 80.5887 499.758 81.354L498.446 79.181C499.539 78.2517 500.851 77.541 502.382 77.049C503.912 76.5297 505.525 76.27 507.22 76.27C510.008 76.27 512.153 76.967 513.657 78.361C515.187 79.7277 515.953 81.8187 515.953 84.634V98H513.165ZM505.744 98.205C504.131 98.205 502.723 97.9453 501.521 97.426C500.345 96.8793 499.443 96.1413 498.815 95.212C498.186 94.2553 497.872 93.162 497.872 91.932C497.872 90.8113 498.131 89.8 498.651 88.898C499.197 87.9687 500.072 87.2307 501.275 86.684C502.505 86.11 504.145 85.823 506.195 85.823H513.616V87.996H506.277C504.199 87.996 502.751 88.365 501.931 89.103C501.138 89.841 500.742 90.7567 500.742 91.85C500.742 93.08 501.22 94.064 502.177 94.802C503.133 95.54 504.473 95.909 506.195 95.909C507.835 95.909 509.242 95.54 510.418 94.802C511.62 94.0367 512.495 92.9433 513.042 91.522L513.698 93.531C513.151 94.9523 512.194 96.0867 510.828 96.934C509.488 97.7813 507.794 98.205 505.744 98.205ZM530.665 98.205C528.643 98.205 527.085 97.6583 525.991 96.565C524.898 95.4717 524.351 93.9273 524.351 91.932V71.719H527.262V91.768C527.262 93.0253 527.577 93.9957 528.205 94.679C528.861 95.3623 529.791 95.704 530.993 95.704C532.278 95.704 533.344 95.335 534.191 94.597L535.216 96.688C534.642 97.2073 533.945 97.59 533.125 97.836C532.333 98.082 531.513 98.205 530.665 98.205ZM520.497 78.894V76.475H533.822V78.894H520.497ZM548.898 98.205C546.656 98.205 544.688 97.7403 542.994 96.811C541.299 95.8543 539.973 94.556 539.017 92.916C538.06 91.2487 537.582 89.349 537.582 87.217C537.582 85.085 538.033 83.199 538.935 81.559C539.864 79.919 541.121 78.6343 542.707 77.705C544.319 76.7483 546.123 76.27 548.119 76.27C550.141 76.27 551.932 76.7347 553.49 77.664C555.075 78.566 556.319 79.8507 557.221 81.518C558.123 83.158 558.574 85.0577 558.574 87.217C558.574 87.3537 558.56 87.504 558.533 87.668C558.533 87.8047 558.533 87.955 558.533 88.119H539.796V85.946H556.975L555.827 86.807C555.827 85.249 555.485 83.8687 554.802 82.666C554.146 81.436 553.244 80.4793 552.096 79.796C550.948 79.1127 549.622 78.771 548.119 78.771C546.643 78.771 545.317 79.1127 544.142 79.796C542.966 80.4793 542.051 81.436 541.395 82.666C540.739 83.896 540.411 85.3037 540.411 86.889V87.34C540.411 88.98 540.766 90.4287 541.477 91.686C542.215 92.916 543.226 93.8863 544.511 94.597C545.823 95.2803 547.312 95.622 548.98 95.622C550.292 95.622 551.508 95.3897 552.629 94.925C553.777 94.4603 554.761 93.7497 555.581 92.793L557.221 94.679C556.264 95.827 555.061 96.7017 553.613 97.303C552.191 97.9043 550.62 98.205 548.898 98.205ZM575.844 98V69.3H587.529C590.591 69.3 593.269 69.915 595.565 71.145C597.889 72.3477 599.693 74.0287 600.977 76.188C602.262 78.3473 602.904 80.8347 602.904 83.65C602.904 86.4653 602.262 88.9527 600.977 91.112C599.693 93.2713 597.889 94.966 595.565 96.196C593.269 97.3987 590.591 98 587.529 98H575.844ZM578.878 95.376H587.365C589.907 95.376 592.108 94.884 593.966 93.9C595.852 92.8887 597.315 91.5083 598.353 89.759C599.392 87.9823 599.911 85.946 599.911 83.65C599.911 81.3267 599.392 79.2903 598.353 77.541C597.315 75.7917 595.852 74.425 593.966 73.441C592.108 72.4297 589.907 71.924 587.365 71.924H578.878V95.376ZM618.245 98.205C616.004 98.205 614.036 97.7403 612.341 96.811C610.647 95.8543 609.321 94.556 608.364 92.916C607.408 91.2487 606.929 89.349 606.929 87.217C606.929 85.085 607.38 83.199 608.282 81.559C609.212 79.919 610.469 78.6343 612.054 77.705C613.667 76.7483 615.471 76.27 617.466 76.27C619.489 76.27 621.279 76.7347 622.837 77.664C624.423 78.566 625.666 79.8507 626.568 81.518C627.47 83.158 627.921 85.0577 627.921 87.217C627.921 87.3537 627.908 87.504 627.88 87.668C627.88 87.8047 627.88 87.955 627.88 88.119H609.143V85.946H626.322L625.174 86.807C625.174 85.249 624.833 83.8687 624.149 82.666C623.493 81.436 622.591 80.4793 621.443 79.796C620.295 79.1127 618.97 78.771 617.466 78.771C615.99 78.771 614.665 79.1127 613.489 79.796C612.314 80.4793 611.398 81.436 610.742 82.666C610.086 83.896 609.758 85.3037 609.758 86.889V87.34C609.758 88.98 610.114 90.4287 610.824 91.686C611.562 92.916 612.574 93.8863 613.858 94.597C615.17 95.2803 616.66 95.622 618.327 95.622C619.639 95.622 620.856 95.3897 621.976 94.925C623.124 94.4603 624.108 93.7497 624.928 92.793L626.568 94.679C625.612 95.827 624.409 96.7017 622.96 97.303C621.539 97.9043 619.967 98.205 618.245 98.205ZM639.628 98.205C637.851 98.205 636.17 97.959 634.585 97.467C632.999 96.9477 631.756 96.3053 630.854 95.54L632.166 93.244C633.04 93.9 634.161 94.474 635.528 94.966C636.894 95.4307 638.329 95.663 639.833 95.663C641.883 95.663 643.359 95.3487 644.261 94.72C645.163 94.064 645.614 93.203 645.614 92.137C645.614 91.3443 645.354 90.7293 644.835 90.292C644.343 89.8273 643.687 89.4857 642.867 89.267C642.047 89.021 641.131 88.816 640.12 88.652C639.108 88.488 638.097 88.2967 637.086 88.078C636.102 87.8593 635.2 87.545 634.38 87.135C633.56 86.6977 632.89 86.11 632.371 85.372C631.879 84.634 631.633 83.65 631.633 82.42C631.633 81.2447 631.961 80.1923 632.617 79.263C633.273 78.3337 634.229 77.6093 635.487 77.09C636.771 76.5433 638.329 76.27 640.161 76.27C641.555 76.27 642.949 76.4613 644.343 76.844C645.737 77.1993 646.885 77.6777 647.787 78.279L646.516 80.616C645.559 79.96 644.534 79.4953 643.441 79.222C642.347 78.9213 641.254 78.771 640.161 78.771C638.22 78.771 636.785 79.1127 635.856 79.796C634.954 80.452 634.503 81.2993 634.503 82.338C634.503 83.158 634.749 83.8003 635.241 84.265C635.76 84.7297 636.43 85.0987 637.25 85.372C638.097 85.618 639.013 85.823 639.997 85.987C641.008 86.151 642.006 86.356 642.99 86.602C644.001 86.8207 644.917 87.135 645.737 87.545C646.584 87.9277 647.254 88.488 647.746 89.226C648.265 89.9367 648.525 90.8797 648.525 92.055C648.525 93.3123 648.169 94.4057 647.459 95.335C646.775 96.237 645.764 96.9477 644.425 97.467C643.113 97.959 641.514 98.205 639.628 98.205ZM667.355 98V93.244L667.232 92.465V84.511C667.232 82.6797 666.713 81.272 665.674 80.288C664.663 79.304 663.146 78.812 661.123 78.812C659.729 78.812 658.403 79.0443 657.146 79.509C655.889 79.9737 654.823 80.5887 653.948 81.354L652.636 79.181C653.729 78.2517 655.041 77.541 656.572 77.049C658.103 76.5297 659.715 76.27 661.41 76.27C664.198 76.27 666.344 76.967 667.847 78.361C669.378 79.7277 670.143 81.8187 670.143 84.634V98H667.355ZM659.934 98.205C658.321 98.205 656.914 97.9453 655.711 97.426C654.536 96.8793 653.634 96.1413 653.005 95.212C652.376 94.2553 652.062 93.162 652.062 91.932C652.062 90.8113 652.322 89.8 652.841 88.898C653.388 87.9687 654.262 87.2307 655.465 86.684C656.695 86.11 658.335 85.823 660.385 85.823H667.806V87.996H660.467C658.39 87.996 656.941 88.365 656.121 89.103C655.328 89.841 654.932 90.7567 654.932 91.85C654.932 93.08 655.41 94.064 656.367 94.802C657.324 95.54 658.663 95.909 660.385 95.909C662.025 95.909 663.433 95.54 664.608 94.802C665.811 94.0367 666.685 92.9433 667.232 91.522L667.888 93.531C667.341 94.9523 666.385 96.0867 665.018 96.934C663.679 97.7813 661.984 98.205 659.934 98.205ZM678.05 98V76.475H680.961V98H678.05ZM679.526 71.719C678.924 71.719 678.419 71.514 678.009 71.104C677.599 70.694 677.394 70.202 677.394 69.628C677.394 69.054 677.599 68.5757 678.009 68.193C678.419 67.783 678.924 67.578 679.526 67.578C680.127 67.578 680.633 67.7693 681.043 68.152C681.453 68.5347 681.658 69.013 681.658 69.587C681.658 70.1883 681.453 70.694 681.043 71.104C680.66 71.514 680.154 71.719 679.526 71.719ZM700.048 76.27C701.798 76.27 703.328 76.6117 704.64 77.295C705.98 77.951 707.018 78.9623 707.756 80.329C708.522 81.6957 708.904 83.4177 708.904 85.495V98H705.993V85.782C705.993 83.5133 705.419 81.805 704.271 80.657C703.151 79.4817 701.565 78.894 699.515 78.894C697.985 78.894 696.645 79.2083 695.497 79.837C694.377 80.4383 693.502 81.3267 692.873 82.502C692.272 83.65 691.971 85.044 691.971 86.684V98H689.06V76.475H691.848V82.379L691.397 81.272C692.081 79.714 693.174 78.4977 694.677 77.623C696.181 76.721 697.971 76.27 700.048 76.27ZM404.991 139.246C402.832 139.246 400.823 138.891 398.964 138.18C397.133 137.442 395.534 136.417 394.167 135.105C392.828 133.766 391.776 132.221 391.01 130.472C390.272 128.695 389.903 126.755 389.903 124.65C389.903 122.545 390.272 120.618 391.01 118.869C391.776 117.092 392.828 115.548 394.167 114.236C395.534 112.897 397.133 111.872 398.964 111.161C400.796 110.423 402.805 110.054 404.991 110.054C407.151 110.054 409.146 110.423 410.977 111.161C412.809 111.872 414.394 112.883 415.733 114.195C417.1 115.507 418.152 117.051 418.89 118.828C419.656 120.605 420.038 122.545 420.038 124.65C420.038 126.755 419.656 128.695 418.89 130.472C418.152 132.249 417.1 133.793 415.733 135.105C414.394 136.417 412.809 137.442 410.977 138.18C409.146 138.891 407.151 139.246 404.991 139.246ZM414.38 144.699C413.506 144.699 412.658 144.59 411.838 144.371C411.018 144.152 410.185 143.797 409.337 143.305C408.517 142.84 407.67 142.225 406.795 141.46C405.921 140.695 404.964 139.765 403.925 138.672L407.246 137.852C408.094 138.863 408.914 139.697 409.706 140.353C410.526 141.009 411.319 141.487 412.084 141.788C412.877 142.116 413.656 142.28 414.421 142.28C416.553 142.28 418.371 141.405 419.874 139.656L421.35 141.419C419.546 143.606 417.223 144.699 414.38 144.699ZM404.991 136.54C406.713 136.54 408.299 136.253 409.747 135.679C411.223 135.078 412.494 134.23 413.56 133.137C414.654 132.044 415.501 130.786 416.102 129.365C416.704 127.916 417.004 126.345 417.004 124.65C417.004 122.928 416.704 121.356 416.102 119.935C415.501 118.486 414.654 117.229 413.56 116.163C412.494 115.07 411.223 114.236 409.747 113.662C408.299 113.061 406.713 112.76 404.991 112.76C403.269 112.76 401.67 113.061 400.194 113.662C398.718 114.236 397.434 115.07 396.34 116.163C395.274 117.229 394.427 118.486 393.798 119.935C393.197 121.356 392.896 122.928 392.896 124.65C392.896 126.345 393.197 127.916 393.798 129.365C394.427 130.786 395.274 132.044 396.34 133.137C397.434 134.23 398.718 135.078 400.194 135.679C401.67 136.253 403.269 136.54 404.991 136.54ZM435.121 139.205C433.29 139.205 431.691 138.863 430.324 138.18C428.957 137.497 427.891 136.472 427.126 135.105C426.388 133.738 426.019 132.03 426.019 129.98V117.475H428.93V129.652C428.93 131.948 429.49 133.684 430.611 134.859C431.759 136.007 433.358 136.581 435.408 136.581C436.911 136.581 438.21 136.28 439.303 135.679C440.424 135.05 441.271 134.148 441.845 132.973C442.446 131.798 442.747 130.39 442.747 128.75V117.475H445.658V139H442.87V133.096L443.321 134.162C442.638 135.747 441.572 136.991 440.123 137.893C438.702 138.768 437.034 139.205 435.121 139.205ZM462.545 139.205C460.468 139.205 458.595 138.74 456.928 137.811C455.288 136.854 453.99 135.556 453.033 133.916C452.076 132.249 451.598 130.349 451.598 128.217C451.598 126.058 452.076 124.158 453.033 122.518C453.99 120.878 455.288 119.593 456.928 118.664C458.568 117.735 460.44 117.27 462.545 117.27C464.677 117.27 466.563 117.735 468.203 118.664C469.87 119.593 471.169 120.878 472.098 122.518C473.055 124.158 473.533 126.058 473.533 128.217C473.533 130.349 473.055 132.249 472.098 133.916C471.169 135.556 469.87 136.854 468.203 137.811C466.536 138.74 464.65 139.205 462.545 139.205ZM462.545 136.622C464.103 136.622 465.483 136.28 466.686 135.597C467.889 134.886 468.832 133.902 469.515 132.645C470.226 131.36 470.581 129.884 470.581 128.217C470.581 126.522 470.226 125.046 469.515 123.789C468.832 122.532 467.889 121.561 466.686 120.878C465.483 120.167 464.117 119.812 462.586 119.812C461.055 119.812 459.689 120.167 458.486 120.878C457.283 121.561 456.327 122.532 455.616 123.789C454.905 125.046 454.55 126.522 454.55 128.217C454.55 129.884 454.905 131.36 455.616 132.645C456.327 133.902 457.283 134.886 458.486 135.597C459.689 136.28 461.042 136.622 462.545 136.622ZM486.282 139.205C484.259 139.205 482.701 138.658 481.608 137.565C480.515 136.472 479.968 134.927 479.968 132.932V112.719H482.879V132.768C482.879 134.025 483.193 134.996 483.822 135.679C484.478 136.362 485.407 136.704 486.61 136.704C487.895 136.704 488.961 136.335 489.808 135.597L490.833 137.688C490.259 138.207 489.562 138.59 488.742 138.836C487.949 139.082 487.129 139.205 486.282 139.205ZM476.114 119.894V117.475H489.439V119.894H476.114ZM504.515 139.205C502.273 139.205 500.305 138.74 498.611 137.811C496.916 136.854 495.59 135.556 494.634 133.916C493.677 132.249 493.199 130.349 493.199 128.217C493.199 126.085 493.65 124.199 494.552 122.559C495.481 120.919 496.738 119.634 498.324 118.705C499.936 117.748 501.74 117.27 503.736 117.27C505.758 117.27 507.549 117.735 509.107 118.664C510.692 119.566 511.936 120.851 512.838 122.518C513.74 124.158 514.191 126.058 514.191 128.217C514.191 128.354 514.177 128.504 514.15 128.668C514.15 128.805 514.15 128.955 514.15 129.119H495.413V126.946H512.592L511.444 127.807C511.444 126.249 511.102 124.869 510.419 123.666C509.763 122.436 508.861 121.479 507.713 120.796C506.565 120.113 505.239 119.771 503.736 119.771C502.26 119.771 500.934 120.113 499.759 120.796C498.583 121.479 497.668 122.436 497.012 123.666C496.356 124.896 496.028 126.304 496.028 127.889V128.34C496.028 129.98 496.383 131.429 497.094 132.686C497.832 133.916 498.843 134.886 500.128 135.597C501.44 136.28 502.929 136.622 504.597 136.622C505.909 136.622 507.125 136.39 508.246 135.925C509.394 135.46 510.378 134.75 511.198 133.793L512.838 135.679C511.881 136.827 510.678 137.702 509.23 138.303C507.808 138.904 506.237 139.205 504.515 139.205ZM525.897 139.205C524.12 139.205 522.439 138.959 520.854 138.467C519.268 137.948 518.025 137.305 517.123 136.54L518.435 134.244C519.309 134.9 520.43 135.474 521.797 135.966C523.163 136.431 524.598 136.663 526.102 136.663C528.152 136.663 529.628 136.349 530.53 135.72C531.432 135.064 531.883 134.203 531.883 133.137C531.883 132.344 531.623 131.729 531.104 131.292C530.612 130.827 529.956 130.486 529.136 130.267C528.316 130.021 527.4 129.816 526.389 129.652C525.377 129.488 524.366 129.297 523.355 129.078C522.371 128.859 521.469 128.545 520.649 128.135C519.829 127.698 519.159 127.11 518.64 126.372C518.148 125.634 517.902 124.65 517.902 123.42C517.902 122.245 518.23 121.192 518.886 120.263C519.542 119.334 520.498 118.609 521.756 118.09C523.04 117.543 524.598 117.27 526.43 117.27C527.824 117.27 529.218 117.461 530.612 117.844C532.006 118.199 533.154 118.678 534.056 119.279L532.785 121.616C531.828 120.96 530.803 120.495 529.71 120.222C528.616 119.921 527.523 119.771 526.43 119.771C524.489 119.771 523.054 120.113 522.125 120.796C521.223 121.452 520.772 122.299 520.772 123.338C520.772 124.158 521.018 124.8 521.51 125.265C522.029 125.73 522.699 126.099 523.519 126.372C524.366 126.618 525.282 126.823 526.266 126.987C527.277 127.151 528.275 127.356 529.259 127.602C530.27 127.821 531.186 128.135 532.006 128.545C532.853 128.928 533.523 129.488 534.015 130.226C534.534 130.937 534.794 131.88 534.794 133.055C534.794 134.312 534.438 135.406 533.728 136.335C533.044 137.237 532.033 137.948 530.694 138.467C529.382 138.959 527.783 139.205 525.897 139.205ZM559.394 139.246C557.262 139.246 555.212 138.904 553.244 138.221C551.303 137.51 549.8 136.608 548.734 135.515L549.923 133.178C550.934 134.162 552.287 134.996 553.982 135.679C555.704 136.335 557.508 136.663 559.394 136.663C561.198 136.663 562.66 136.444 563.781 136.007C564.929 135.542 565.762 134.927 566.282 134.162C566.828 133.397 567.102 132.549 567.102 131.62C567.102 130.499 566.774 129.597 566.118 128.914C565.489 128.231 564.655 127.698 563.617 127.315C562.578 126.905 561.43 126.55 560.173 126.249C558.915 125.948 557.658 125.634 556.401 125.306C555.143 124.951 553.982 124.486 552.916 123.912C551.877 123.338 551.03 122.586 550.374 121.657C549.745 120.7 549.431 119.457 549.431 117.926C549.431 116.505 549.8 115.206 550.538 114.031C551.303 112.828 552.465 111.872 554.023 111.161C555.581 110.423 557.576 110.054 560.009 110.054C561.621 110.054 563.22 110.286 564.806 110.751C566.391 111.188 567.758 111.803 568.906 112.596L567.881 115.015C566.651 114.195 565.339 113.594 563.945 113.211C562.578 112.828 561.252 112.637 559.968 112.637C558.246 112.637 556.824 112.869 555.704 113.334C554.583 113.799 553.749 114.427 553.203 115.22C552.683 115.985 552.424 116.86 552.424 117.844C552.424 118.965 552.738 119.867 553.367 120.55C554.023 121.233 554.87 121.766 555.909 122.149C556.975 122.532 558.136 122.873 559.394 123.174C560.651 123.475 561.895 123.803 563.125 124.158C564.382 124.513 565.53 124.978 566.569 125.552C567.635 126.099 568.482 126.837 569.111 127.766C569.767 128.695 570.095 129.912 570.095 131.415C570.095 132.809 569.712 134.107 568.947 135.31C568.181 136.485 567.006 137.442 565.421 138.18C563.863 138.891 561.854 139.246 559.394 139.246ZM584.659 139.205C582.609 139.205 580.764 138.74 579.124 137.811C577.512 136.882 576.241 135.597 575.311 133.957C574.382 132.317 573.917 130.404 573.917 128.217C573.917 126.058 574.382 124.158 575.311 122.518C576.241 120.851 577.512 119.566 579.124 118.664C580.764 117.735 582.609 117.27 584.659 117.27C586.573 117.27 588.267 117.694 589.743 118.541C591.247 119.388 592.436 120.632 593.31 122.272C594.185 123.885 594.622 125.866 594.622 128.217C594.622 130.568 594.171 132.563 593.269 134.203C592.395 135.816 591.206 137.059 589.702 137.934C588.226 138.781 586.545 139.205 584.659 139.205ZM584.864 136.622C586.395 136.622 587.762 136.28 588.964 135.597C590.194 134.886 591.151 133.902 591.834 132.645C592.545 131.36 592.9 129.884 592.9 128.217C592.9 126.55 592.545 125.087 591.834 123.83C591.151 122.573 590.194 121.589 588.964 120.878C587.762 120.167 586.395 119.812 584.864 119.812C583.361 119.812 582.008 120.167 580.805 120.878C579.603 121.589 578.646 122.573 577.935 123.83C577.225 125.087 576.869 126.55 576.869 128.217C576.869 129.884 577.225 131.36 577.935 132.645C578.646 133.902 579.603 134.886 580.805 135.597C582.008 136.28 583.361 136.622 584.864 136.622ZM592.859 146.954V132.604L593.269 128.258L592.982 123.953V117.475H595.77V146.954H592.859ZM612.774 139.205C610.943 139.205 609.344 138.863 607.977 138.18C606.611 137.497 605.545 136.472 604.779 135.105C604.041 133.738 603.672 132.03 603.672 129.98V117.475H606.583V129.652C606.583 131.948 607.144 133.684 608.264 134.859C609.412 136.007 611.011 136.581 613.061 136.581C614.565 136.581 615.863 136.28 616.956 135.679C618.077 135.05 618.924 134.148 619.498 132.973C620.1 131.798 620.4 130.39 620.4 128.75V117.475H623.311V139H620.523V133.096L620.974 134.162C620.291 135.747 619.225 136.991 617.776 137.893C616.355 138.768 614.688 139.205 612.774 139.205ZM644.913 139V134.244L644.79 133.465V125.511C644.79 123.68 644.271 122.272 643.232 121.288C642.221 120.304 640.704 119.812 638.681 119.812C637.287 119.812 635.962 120.044 634.704 120.509C633.447 120.974 632.381 121.589 631.506 122.354L630.194 120.181C631.288 119.252 632.6 118.541 634.13 118.049C635.661 117.53 637.274 117.27 638.968 117.27C641.756 117.27 643.902 117.967 645.405 119.361C646.936 120.728 647.701 122.819 647.701 125.634V139H644.913ZM637.492 139.205C635.88 139.205 634.472 138.945 633.269 138.426C632.094 137.879 631.192 137.141 630.563 136.212C629.935 135.255 629.62 134.162 629.62 132.932C629.62 131.811 629.88 130.8 630.399 129.898C630.946 128.969 631.821 128.231 633.023 127.684C634.253 127.11 635.893 126.823 637.943 126.823H645.364V128.996H638.025C635.948 128.996 634.499 129.365 633.679 130.103C632.887 130.841 632.49 131.757 632.49 132.85C632.49 134.08 632.969 135.064 633.925 135.802C634.882 136.54 636.221 136.909 637.943 136.909C639.583 136.909 640.991 136.54 642.166 135.802C643.369 135.037 644.244 133.943 644.79 132.522L645.446 134.531C644.9 135.952 643.943 137.087 642.576 137.934C641.237 138.781 639.542 139.205 637.492 139.205ZM655.608 139V117.475H658.396V123.338L658.109 122.313C658.71 120.673 659.721 119.429 661.143 118.582C662.564 117.707 664.327 117.27 666.432 117.27V120.099C666.322 120.099 666.213 120.099 666.104 120.099C665.994 120.072 665.885 120.058 665.776 120.058C663.507 120.058 661.73 120.755 660.446 122.149C659.161 123.516 658.519 125.47 658.519 128.012V139H655.608ZM680.686 139.205C678.445 139.205 676.477 138.74 674.782 137.811C673.088 136.854 671.762 135.556 670.805 133.916C669.849 132.249 669.37 130.349 669.37 128.217C669.37 126.085 669.821 124.199 670.723 122.559C671.653 120.919 672.91 119.634 674.495 118.705C676.108 117.748 677.912 117.27 679.907 117.27C681.93 117.27 683.72 117.735 685.278 118.664C686.864 119.566 688.107 120.851 689.009 122.518C689.911 124.158 690.362 126.058 690.362 128.217C690.362 128.354 690.349 128.504 690.321 128.668C690.321 128.805 690.321 128.955 690.321 129.119H671.584V126.946H688.763L687.615 127.807C687.615 126.249 687.274 124.869 686.59 123.666C685.934 122.436 685.032 121.479 683.884 120.796C682.736 120.113 681.411 119.771 679.907 119.771C678.431 119.771 677.106 120.113 675.93 120.796C674.755 121.479 673.839 122.436 673.183 123.666C672.527 124.896 672.199 126.304 672.199 127.889V128.34C672.199 129.98 672.555 131.429 673.265 132.686C674.003 133.916 675.015 134.886 676.299 135.597C677.611 136.28 679.101 136.622 680.768 136.622C682.08 136.622 683.297 136.39 684.417 135.925C685.565 135.46 686.549 134.75 687.369 133.793L689.009 135.679C688.053 136.827 686.85 137.702 685.401 138.303C683.98 138.904 682.408 139.205 680.686 139.205Z" fill="white"/>
</svg>
