<svg width="1080" height="272" viewBox="0 0 1080 272" fill="none" xmlns="http://www.w3.org/2000/svg">
<path d="M0 100C0 44.7715 44.7715 0 100 0H980C1035.23 0 1080 44.7715 1080 100V272H0V100Z" fill="#F1F1F1"/>
<path d="M0 100C0 44.7715 44.7715 0 100 0H980C1035.23 0 1080 44.7715 1080 100V272H0V100Z" fill="#543D6C"/>
<path d="M208.216 210V162.493H228.78C233.033 162.493 236.698 163.194 239.775 164.596C242.851 165.954 245.227 167.922 246.901 170.501C248.575 173.08 249.412 176.157 249.412 179.731C249.412 183.26 248.575 186.314 246.901 188.893C245.227 191.427 242.851 193.372 239.775 194.73C236.698 196.087 233.033 196.766 228.78 196.766H214.324L219.211 191.947V210H208.216ZM238.417 210L226.54 192.762H238.281L250.294 210H238.417ZM219.211 193.169L214.324 188.011H228.169C231.563 188.011 234.096 187.287 235.77 185.839C237.444 184.346 238.281 182.31 238.281 179.731C238.281 177.107 237.444 175.071 235.77 173.623C234.096 172.175 231.563 171.451 228.169 171.451H214.324L219.211 166.225V193.169ZM257.376 210V173.487H267.964V210H257.376ZM262.67 168.397C260.724 168.397 259.141 167.831 257.919 166.7C256.698 165.569 256.087 164.167 256.087 162.493C256.087 160.818 256.698 159.416 257.919 158.285C259.141 157.154 260.724 156.588 262.67 156.588C264.615 156.588 266.199 157.131 267.421 158.217C268.642 159.258 269.253 160.615 269.253 162.289C269.253 164.053 268.642 165.524 267.421 166.7C266.244 167.831 264.661 168.397 262.67 168.397ZM299.372 210.543C296.295 210.543 293.603 209.864 291.295 208.507C288.988 207.15 287.178 205.091 285.866 202.331C284.599 199.526 283.966 195.997 283.966 191.744C283.966 187.445 284.576 183.916 285.798 181.156C287.02 178.396 288.784 176.338 291.092 174.98C293.399 173.623 296.159 172.944 299.372 172.944C302.81 172.944 305.887 173.736 308.602 175.32C311.362 176.858 313.533 179.03 315.117 181.835C316.746 184.64 317.56 187.943 317.56 191.744C317.56 195.589 316.746 198.915 315.117 201.72C313.533 204.525 311.362 206.697 308.602 208.235C305.887 209.774 302.81 210.543 299.372 210.543ZM277.79 223.166V173.487H287.902V180.953L287.698 191.811L288.377 202.602V223.166H277.79ZM297.539 201.856C299.304 201.856 300.865 201.449 302.222 200.634C303.625 199.82 304.733 198.666 305.547 197.173C306.407 195.635 306.837 193.825 306.837 191.744C306.837 189.617 306.407 187.807 305.547 186.314C304.733 184.821 303.625 183.667 302.222 182.853C300.865 182.038 299.304 181.631 297.539 181.631C295.775 181.631 294.191 182.038 292.788 182.853C291.386 183.667 290.277 184.821 289.463 186.314C288.648 187.807 288.241 189.617 288.241 191.744C288.241 193.825 288.648 195.635 289.463 197.173C290.277 198.666 291.386 199.82 292.788 200.634C294.191 201.449 295.775 201.856 297.539 201.856ZM346.229 210.543C343.153 210.543 340.461 209.864 338.153 208.507C335.846 207.15 334.036 205.091 332.724 202.331C331.457 199.526 330.823 195.997 330.823 191.744C330.823 187.445 331.434 183.916 332.656 181.156C333.878 178.396 335.642 176.338 337.95 174.98C340.257 173.623 343.017 172.944 346.229 172.944C349.668 172.944 352.745 173.736 355.459 175.32C358.219 176.858 360.391 179.03 361.975 181.835C363.604 184.64 364.418 187.943 364.418 191.744C364.418 195.589 363.604 198.915 361.975 201.72C360.391 204.525 358.219 206.697 355.459 208.235C352.745 209.774 349.668 210.543 346.229 210.543ZM324.647 223.166V173.487H334.76V180.953L334.556 191.811L335.235 202.602V223.166H324.647ZM344.397 201.856C346.162 201.856 347.723 201.449 349.08 200.634C350.483 199.82 351.591 198.666 352.405 197.173C353.265 195.635 353.695 193.825 353.695 191.744C353.695 189.617 353.265 187.807 352.405 186.314C351.591 184.821 350.483 183.667 349.08 182.853C347.723 182.038 346.162 181.631 344.397 181.631C342.632 181.631 341.049 182.038 339.646 182.853C338.244 183.667 337.135 184.821 336.321 186.314C335.506 187.807 335.099 189.617 335.099 191.744C335.099 193.825 335.506 195.635 336.321 197.173C337.135 198.666 338.244 199.82 339.646 200.634C341.049 201.449 342.632 201.856 344.397 201.856ZM389.626 210.543C385.464 210.543 381.799 209.729 378.632 208.1C375.51 206.471 373.089 204.254 371.37 201.449C369.65 198.598 368.791 195.363 368.791 191.744C368.791 188.079 369.628 184.844 371.302 182.038C373.021 179.188 375.351 176.971 378.292 175.387C381.233 173.759 384.559 172.944 388.269 172.944C391.843 172.944 395.056 173.713 397.906 175.252C400.802 176.745 403.087 178.917 404.761 181.767C406.435 184.572 407.272 187.943 407.272 191.879C407.272 192.287 407.249 192.762 407.204 193.305C407.159 193.802 407.113 194.277 407.068 194.73H377.41V188.554H401.503L397.431 190.386C397.431 188.486 397.046 186.834 396.277 185.432C395.508 184.029 394.445 182.943 393.087 182.174C391.73 181.36 390.146 180.953 388.337 180.953C386.527 180.953 384.921 181.36 383.518 182.174C382.161 182.943 381.097 184.052 380.328 185.5C379.559 186.902 379.175 188.576 379.175 190.522V192.151C379.175 194.142 379.604 195.906 380.464 197.444C381.369 198.938 382.613 200.091 384.197 200.906C385.826 201.675 387.726 202.059 389.898 202.059C391.843 202.059 393.54 201.765 394.988 201.177C396.481 200.589 397.838 199.707 399.06 198.53L404.693 204.638C403.019 206.539 400.915 208.009 398.381 209.05C395.847 210.045 392.929 210.543 389.626 210.543ZM429.998 210.543C426.559 210.543 423.46 209.774 420.7 208.235C417.94 206.652 415.746 204.457 414.117 201.652C412.533 198.847 411.742 195.544 411.742 191.744C411.742 187.898 412.533 184.572 414.117 181.767C415.746 178.962 417.94 176.79 420.7 175.252C423.46 173.713 426.559 172.944 429.998 172.944C433.075 172.944 435.767 173.623 438.074 174.98C440.382 176.338 442.169 178.396 443.436 181.156C444.703 183.916 445.336 187.445 445.336 191.744C445.336 195.997 444.725 199.526 443.504 202.331C442.282 205.091 440.517 207.15 438.21 208.507C435.948 209.864 433.21 210.543 429.998 210.543ZM431.83 201.856C433.55 201.856 435.111 201.449 436.513 200.634C437.916 199.82 439.024 198.666 439.839 197.173C440.698 195.635 441.128 193.825 441.128 191.744C441.128 189.617 440.698 187.807 439.839 186.314C439.024 184.821 437.916 183.667 436.513 182.853C435.111 182.038 433.55 181.631 431.83 181.631C430.066 181.631 428.482 182.038 427.08 182.853C425.677 183.667 424.546 184.821 423.686 186.314C422.872 187.807 422.465 189.617 422.465 191.744C422.465 193.825 422.872 195.635 423.686 197.173C424.546 198.666 425.677 199.82 427.08 200.634C428.482 201.449 430.066 201.856 431.83 201.856ZM441.4 210V202.535L441.603 191.676L440.925 180.885V159.642H451.512V210H441.4ZM504.353 210.814C500.598 210.814 497.114 210.204 493.901 208.982C490.734 207.76 487.974 206.041 485.621 203.824C483.314 201.607 481.504 199.005 480.192 196.019C478.925 193.033 478.292 189.775 478.292 186.246C478.292 182.717 478.925 179.459 480.192 176.473C481.504 173.487 483.337 170.886 485.689 168.669C488.042 166.451 490.802 164.732 493.969 163.511C497.136 162.289 500.575 161.678 504.285 161.678C508.04 161.678 511.479 162.289 514.601 163.511C517.768 164.732 520.505 166.451 522.813 168.669C525.166 170.886 526.998 173.487 528.31 176.473C529.622 179.414 530.278 182.672 530.278 186.246C530.278 189.775 529.622 193.056 528.31 196.087C526.998 199.073 525.166 201.675 522.813 203.892C520.505 206.064 517.768 207.76 514.601 208.982C511.479 210.204 508.063 210.814 504.353 210.814ZM504.285 201.449C506.412 201.449 508.357 201.087 510.122 200.363C511.932 199.639 513.515 198.598 514.872 197.241C516.23 195.883 517.27 194.277 517.994 192.422C518.764 190.567 519.148 188.509 519.148 186.246C519.148 183.984 518.764 181.925 517.994 180.07C517.27 178.215 516.23 176.609 514.872 175.252C513.56 173.894 511.999 172.854 510.19 172.13C508.38 171.406 506.412 171.044 504.285 171.044C502.159 171.044 500.19 171.406 498.381 172.13C496.616 172.854 495.055 173.894 493.698 175.252C492.34 176.609 491.277 178.215 490.508 180.07C489.784 181.925 489.422 183.984 489.422 186.246C489.422 188.463 489.784 190.522 490.508 192.422C491.277 194.277 492.318 195.883 493.63 197.241C494.987 198.598 496.571 199.639 498.381 200.363C500.19 201.087 502.159 201.449 504.285 201.449ZM537.795 210V173.487H547.907V183.803L546.482 180.817C547.568 178.238 549.31 176.292 551.708 174.98C554.106 173.623 557.024 172.944 560.463 172.944V182.717C560.01 182.672 559.603 182.649 559.241 182.649C558.879 182.604 558.495 182.581 558.087 182.581C555.192 182.581 552.839 183.418 551.029 185.093C549.264 186.721 548.382 189.278 548.382 192.762V210H537.795ZM588.951 172.944C591.846 172.944 594.425 173.532 596.688 174.709C598.995 175.84 600.805 177.604 602.117 180.002C603.429 182.355 604.085 185.387 604.085 189.097V210H593.498V190.726C593.498 187.785 592.842 185.613 591.53 184.21C590.263 182.808 588.453 182.106 586.1 182.106C584.426 182.106 582.91 182.468 581.553 183.192C580.241 183.871 579.2 184.934 578.431 186.382C577.707 187.83 577.345 189.685 577.345 191.947V210H566.758V173.487H576.87V183.599L574.97 180.545C576.282 178.102 578.16 176.224 580.603 174.912C583.046 173.6 585.829 172.944 588.951 172.944ZM636.079 210V202.874L635.4 201.313V188.554C635.4 186.292 634.699 184.527 633.296 183.26C631.939 181.993 629.835 181.36 626.984 181.36C625.039 181.36 623.116 181.677 621.215 182.31C619.36 182.898 617.777 183.713 616.465 184.753L612.664 177.356C614.655 175.953 617.053 174.867 619.858 174.098C622.663 173.329 625.514 172.944 628.409 172.944C633.975 172.944 638.296 174.256 641.372 176.881C644.449 179.505 645.987 183.599 645.987 189.165V210H636.079ZM624.948 210.543C622.098 210.543 619.655 210.068 617.619 209.118C615.582 208.122 614.022 206.788 612.936 205.114C611.85 203.439 611.307 201.562 611.307 199.48C611.307 197.309 611.827 195.408 612.868 193.78C613.954 192.151 615.65 190.884 617.958 189.979C620.265 189.029 623.274 188.554 626.984 188.554H636.689V194.73H628.138C625.65 194.73 623.93 195.137 622.98 195.951C622.075 196.766 621.623 197.784 621.623 199.005C621.623 200.363 622.143 201.449 623.184 202.263C624.27 203.032 625.74 203.417 627.595 203.417C629.36 203.417 630.943 203.01 632.346 202.195C633.748 201.336 634.766 200.091 635.4 198.462L637.029 203.349C636.26 205.702 634.857 207.489 632.821 208.711C630.785 209.932 628.161 210.543 624.948 210.543ZM702.33 172.944C705.226 172.944 707.782 173.532 709.999 174.709C712.262 175.84 714.026 177.604 715.293 180.002C716.605 182.355 717.261 185.387 717.261 189.097V210H706.674V190.726C706.674 187.785 706.063 185.613 704.841 184.21C703.62 182.808 701.9 182.106 699.683 182.106C698.145 182.106 696.765 182.468 695.543 183.192C694.322 183.871 693.372 184.912 692.693 186.314C692.014 187.717 691.675 189.504 691.675 191.676V210H681.088V190.726C681.088 187.785 680.477 185.613 679.255 184.21C678.079 182.808 676.382 182.106 674.165 182.106C672.627 182.106 671.247 182.468 670.025 183.192C668.804 183.871 667.853 184.912 667.175 186.314C666.496 187.717 666.157 189.504 666.157 191.676V210H655.569V173.487H665.682V183.464L663.781 180.545C665.048 178.057 666.835 176.179 669.143 174.912C671.496 173.6 674.165 172.944 677.151 172.944C680.499 172.944 683.418 173.804 685.906 175.523C688.44 177.197 690.114 179.776 690.928 183.26L687.196 182.242C688.417 179.392 690.363 177.129 693.032 175.455C695.747 173.781 698.846 172.944 702.33 172.944ZM745.137 210.543C740.974 210.543 737.309 209.729 734.142 208.1C731.02 206.471 728.6 204.254 726.88 201.449C725.161 198.598 724.301 195.363 724.301 191.744C724.301 188.079 725.138 184.844 726.813 182.038C728.532 179.188 730.862 176.971 733.803 175.387C736.744 173.759 740.069 172.944 743.779 172.944C747.354 172.944 750.566 173.713 753.417 175.252C756.312 176.745 758.597 178.917 760.271 181.767C761.945 184.572 762.782 187.943 762.782 191.879C762.782 192.287 762.76 192.762 762.715 193.305C762.669 193.802 762.624 194.277 762.579 194.73H732.921V188.554H757.014L752.942 190.386C752.942 188.486 752.557 186.834 751.788 185.432C751.019 184.029 749.955 182.943 748.598 182.174C747.241 181.36 745.657 180.953 743.847 180.953C742.038 180.953 740.431 181.36 739.029 182.174C737.671 182.943 736.608 184.052 735.839 185.5C735.07 186.902 734.685 188.576 734.685 190.522V192.151C734.685 194.142 735.115 195.906 735.975 197.444C736.88 198.938 738.124 200.091 739.707 200.906C741.336 201.675 743.237 202.059 745.408 202.059C747.354 202.059 749.051 201.765 750.498 201.177C751.991 200.589 753.349 199.707 754.57 198.53L760.203 204.638C758.529 206.539 756.426 208.009 753.892 209.05C751.358 210.045 748.44 210.543 745.137 210.543ZM792.024 172.944C794.92 172.944 797.499 173.532 799.761 174.709C802.068 175.84 803.878 177.604 805.19 180.002C806.502 182.355 807.158 185.387 807.158 189.097V210H796.571V190.726C796.571 187.785 795.915 185.613 794.603 184.21C793.336 182.808 791.526 182.106 789.173 182.106C787.499 182.106 785.984 182.468 784.626 183.192C783.314 183.871 782.274 184.934 781.504 186.382C780.78 187.83 780.419 189.685 780.419 191.947V210H769.831V173.487H779.943V183.599L778.043 180.545C779.355 178.102 781.233 176.224 783.676 174.912C786.119 173.6 788.902 172.944 792.024 172.944ZM831.686 210.543C827.388 210.543 824.04 209.457 821.642 207.285C819.244 205.068 818.045 201.788 818.045 197.444V165.411H828.632V197.309C828.632 198.847 829.039 200.046 829.854 200.906C830.668 201.72 831.777 202.127 833.179 202.127C834.853 202.127 836.279 201.675 837.455 200.77L840.306 208.235C839.22 209.005 837.908 209.593 836.369 210C834.876 210.362 833.315 210.543 831.686 210.543ZM812.412 182.446V174.302H837.727V182.446H812.412ZM858.533 210.543C855.411 210.543 852.402 210.181 849.506 209.457C846.656 208.688 844.394 207.738 842.72 206.607L846.249 199.005C847.923 200.046 849.891 200.906 852.153 201.584C854.461 202.218 856.723 202.535 858.94 202.535C861.383 202.535 863.103 202.24 864.098 201.652C865.139 201.064 865.659 200.25 865.659 199.209C865.659 198.349 865.252 197.716 864.437 197.309C863.668 196.856 862.627 196.517 861.315 196.291C860.003 196.064 858.555 195.838 856.972 195.612C855.433 195.386 853.872 195.092 852.289 194.73C850.705 194.323 849.257 193.734 847.945 192.965C846.633 192.196 845.57 191.155 844.756 189.843C843.986 188.531 843.602 186.834 843.602 184.753C843.602 182.446 844.258 180.41 845.57 178.645C846.927 176.881 848.873 175.501 851.407 174.505C853.94 173.464 856.972 172.944 860.501 172.944C862.989 172.944 865.523 173.216 868.102 173.759C870.681 174.302 872.83 175.093 874.55 176.134L871.02 183.667C869.256 182.627 867.469 181.925 865.659 181.563C863.894 181.156 862.175 180.953 860.501 180.953C858.148 180.953 856.429 181.269 855.343 181.903C854.257 182.536 853.714 183.351 853.714 184.346C853.714 185.251 854.099 185.93 854.868 186.382C855.682 186.834 856.746 187.196 858.058 187.468C859.37 187.739 860.795 187.988 862.333 188.214C863.917 188.395 865.5 188.69 867.084 189.097C868.668 189.504 870.093 190.092 871.36 190.861C872.672 191.585 873.735 192.603 874.55 193.915C875.364 195.182 875.771 196.856 875.771 198.938C875.771 201.2 875.092 203.213 873.735 204.978C872.378 206.697 870.41 208.054 867.831 209.05C865.297 210.045 862.198 210.543 858.533 210.543Z" fill="white"/>
<path d="M316.562 98V71.924H306.476V69.3H329.682V71.924H319.596V98H316.562ZM340.815 98.205C338.573 98.205 336.605 97.7403 334.911 96.811C333.216 95.8543 331.89 94.556 330.934 92.916C329.977 91.2487 329.499 89.349 329.499 87.217C329.499 85.085 329.95 83.199 330.852 81.559C331.781 79.919 333.038 78.6343 334.624 77.705C336.236 76.7483 338.04 76.27 340.036 76.27C342.058 76.27 343.849 76.7347 345.407 77.664C346.992 78.566 348.236 79.8507 349.138 81.518C350.04 83.158 350.491 85.0577 350.491 87.217C350.491 87.3537 350.477 87.504 350.45 87.668C350.45 87.8047 350.45 87.955 350.45 88.119H331.713V85.946H348.892L347.744 86.807C347.744 85.249 347.402 83.8687 346.719 82.666C346.063 81.436 345.161 80.4793 344.013 79.796C342.865 79.1127 341.539 78.771 340.036 78.771C338.56 78.771 337.234 79.1127 336.059 79.796C334.883 80.4793 333.968 81.436 333.312 82.666C332.656 83.896 332.328 85.3037 332.328 86.889V87.34C332.328 88.98 332.683 90.4287 333.394 91.686C334.132 92.916 335.143 93.8863 336.428 94.597C337.74 95.2803 339.229 95.622 340.897 95.622C342.209 95.622 343.425 95.3897 344.546 94.925C345.694 94.4603 346.678 93.7497 347.498 92.793L349.138 94.679C348.181 95.827 346.978 96.7017 345.53 97.303C344.108 97.9043 342.537 98.205 340.815 98.205ZM383.312 76.27C385.061 76.27 386.578 76.6117 387.863 77.295C389.175 77.951 390.186 78.9623 390.897 80.329C391.635 81.6957 392.004 83.4177 392.004 85.495V98H389.093V85.782C389.093 83.5133 388.546 81.805 387.453 80.657C386.387 79.4817 384.87 78.894 382.902 78.894C381.426 78.894 380.141 79.2083 379.048 79.837C377.982 80.4383 377.148 81.3267 376.547 82.502C375.973 83.65 375.686 85.044 375.686 86.684V98H372.775V85.782C372.775 83.5133 372.228 81.805 371.135 80.657C370.042 79.4817 368.511 78.894 366.543 78.894C365.094 78.894 363.823 79.2083 362.73 79.837C361.637 80.4383 360.789 81.3267 360.188 82.502C359.614 83.65 359.327 85.044 359.327 86.684V98H356.416V76.475H359.204V82.297L358.753 81.272C359.409 79.714 360.461 78.4977 361.91 77.623C363.386 76.721 365.122 76.27 367.117 76.27C369.222 76.27 371.012 76.803 372.488 77.869C373.964 78.9077 374.921 80.4793 375.358 82.584L374.21 82.133C374.839 80.3837 375.946 78.976 377.531 77.91C379.144 76.8167 381.071 76.27 383.312 76.27ZM411.009 98.205C409.151 98.205 407.47 97.7813 405.966 96.934C404.463 96.0593 403.26 94.8157 402.358 93.203C401.484 91.563 401.046 89.5677 401.046 87.217C401.046 84.8663 401.484 82.8847 402.358 81.272C403.233 79.632 404.422 78.3883 405.925 77.541C407.429 76.6937 409.123 76.27 411.009 76.27C413.059 76.27 414.891 76.7347 416.503 77.664C418.143 78.566 419.428 79.8507 420.357 81.518C421.287 83.158 421.751 85.0577 421.751 87.217C421.751 89.4037 421.287 91.317 420.357 92.957C419.428 94.597 418.143 95.8817 416.503 96.811C414.891 97.7403 413.059 98.205 411.009 98.205ZM399.898 105.954V76.475H402.686V82.953L402.399 87.258L402.809 91.604V105.954H399.898ZM410.804 95.622C412.335 95.622 413.702 95.2803 414.904 94.597C416.107 93.8863 417.064 92.9023 417.774 91.645C418.485 90.3603 418.84 88.8843 418.84 87.217C418.84 85.5497 418.485 84.0873 417.774 82.83C417.064 81.5727 416.107 80.5887 414.904 79.878C413.702 79.1673 412.335 78.812 410.804 78.812C409.274 78.812 407.893 79.1673 406.663 79.878C405.461 80.5887 404.504 81.5727 403.793 82.83C403.11 84.0873 402.768 85.5497 402.768 87.217C402.768 88.8843 403.11 90.3603 403.793 91.645C404.504 92.9023 405.461 93.8863 406.663 94.597C407.893 95.2803 409.274 95.622 410.804 95.622ZM427.685 98V67.578H430.596V98H427.685ZM452.185 98V93.244L452.062 92.465V84.511C452.062 82.6797 451.543 81.272 450.504 80.288C449.493 79.304 447.976 78.812 445.953 78.812C444.559 78.812 443.234 79.0443 441.976 79.509C440.719 79.9737 439.653 80.5887 438.778 81.354L437.466 79.181C438.56 78.2517 439.872 77.541 441.402 77.049C442.933 76.5297 444.546 76.27 446.24 76.27C449.028 76.27 451.174 76.967 452.677 78.361C454.208 79.7277 454.973 81.8187 454.973 84.634V98H452.185ZM444.764 98.205C443.152 98.205 441.744 97.9453 440.541 97.426C439.366 96.8793 438.464 96.1413 437.835 95.212C437.207 94.2553 436.892 93.162 436.892 91.932C436.892 90.8113 437.152 89.8 437.671 88.898C438.218 87.9687 439.093 87.2307 440.295 86.684C441.525 86.11 443.165 85.823 445.215 85.823H452.636V87.996H445.297C443.22 87.996 441.771 88.365 440.951 89.103C440.159 89.841 439.762 90.7567 439.762 91.85C439.762 93.08 440.241 94.064 441.197 94.802C442.154 95.54 443.493 95.909 445.215 95.909C446.855 95.909 448.263 95.54 449.438 94.802C450.641 94.0367 451.516 92.9433 452.062 91.522L452.718 93.531C452.172 94.9523 451.215 96.0867 449.848 96.934C448.509 97.7813 446.814 98.205 444.764 98.205ZM469.686 98.205C467.663 98.205 466.105 97.6583 465.012 96.565C463.918 95.4717 463.372 93.9273 463.372 91.932V71.719H466.283V91.768C466.283 93.0253 466.597 93.9957 467.226 94.679C467.882 95.3623 468.811 95.704 470.014 95.704C471.298 95.704 472.364 95.335 473.212 94.597L474.237 96.688C473.663 97.2073 472.966 97.59 472.146 97.836C471.353 98.082 470.533 98.205 469.686 98.205ZM459.518 78.894V76.475H472.843V78.894H459.518ZM487.918 98.205C485.677 98.205 483.709 97.7403 482.014 96.811C480.32 95.8543 478.994 94.556 478.037 92.916C477.081 91.2487 476.602 89.349 476.602 87.217C476.602 85.085 477.053 83.199 477.955 81.559C478.885 79.919 480.142 78.6343 481.727 77.705C483.34 76.7483 485.144 76.27 487.139 76.27C489.162 76.27 490.952 76.7347 492.51 77.664C494.096 78.566 495.339 79.8507 496.241 81.518C497.143 83.158 497.594 85.0577 497.594 87.217C497.594 87.3537 497.581 87.504 497.553 87.668C497.553 87.8047 497.553 87.955 497.553 88.119H478.816V85.946H495.995L494.847 86.807C494.847 85.249 494.506 83.8687 493.822 82.666C493.166 81.436 492.264 80.4793 491.116 79.796C489.968 79.1127 488.643 78.771 487.139 78.771C485.663 78.771 484.338 79.1127 483.162 79.796C481.987 80.4793 481.071 81.436 480.415 82.666C479.759 83.896 479.431 85.3037 479.431 86.889V87.34C479.431 88.98 479.787 90.4287 480.497 91.686C481.235 92.916 482.247 93.8863 483.531 94.597C484.843 95.2803 486.333 95.622 488 95.622C489.312 95.622 490.529 95.3897 491.649 94.925C492.797 94.4603 493.781 93.7497 494.601 92.793L496.241 94.679C495.285 95.827 494.082 96.7017 492.633 97.303C491.212 97.9043 489.64 98.205 487.918 98.205ZM517.571 83.199H532.741V85.823H517.571V83.199ZM517.899 98H514.865V69.3H534.545V71.924H517.899V98ZM540.195 98V67.578H543.106V98H540.195ZM551.37 106.159C550.359 106.159 549.388 105.995 548.459 105.667C547.557 105.339 546.778 104.847 546.122 104.191L547.475 102.018C548.022 102.537 548.609 102.934 549.238 103.207C549.894 103.508 550.618 103.658 551.411 103.658C552.368 103.658 553.188 103.385 553.871 102.838C554.582 102.319 555.251 101.389 555.88 100.05L557.274 96.893L557.602 96.442L566.458 76.475H569.328L558.545 100.583C557.944 101.977 557.274 103.084 556.536 103.904C555.825 104.724 555.046 105.298 554.199 105.626C553.352 105.981 552.409 106.159 551.37 106.159ZM557.11 98.615L547.188 76.475H550.222L558.996 96.237L557.11 98.615ZM581.97 98.205C579.729 98.205 577.761 97.7403 576.066 96.811C574.371 95.8543 573.046 94.556 572.089 92.916C571.132 91.2487 570.654 89.349 570.654 87.217C570.654 85.085 571.105 83.199 572.007 81.559C572.936 79.919 574.194 78.6343 575.779 77.705C577.392 76.7483 579.196 76.27 581.191 76.27C583.214 76.27 585.004 76.7347 586.562 77.664C588.147 78.566 589.391 79.8507 590.293 81.518C591.195 83.158 591.646 85.0577 591.646 87.217C591.646 87.3537 591.632 87.504 591.605 87.668C591.605 87.8047 591.605 87.955 591.605 88.119H572.868V85.946H590.047L588.899 86.807C588.899 85.249 588.557 83.8687 587.874 82.666C587.218 81.436 586.316 80.4793 585.168 79.796C584.02 79.1127 582.694 78.771 581.191 78.771C579.715 78.771 578.389 79.1127 577.214 79.796C576.039 80.4793 575.123 81.436 574.467 82.666C573.811 83.896 573.483 85.3037 573.483 86.889V87.34C573.483 88.98 573.838 90.4287 574.549 91.686C575.287 92.916 576.298 93.8863 577.583 94.597C578.895 95.2803 580.385 95.622 582.052 95.622C583.364 95.622 584.58 95.3897 585.701 94.925C586.849 94.4603 587.833 93.7497 588.653 92.793L590.293 94.679C589.336 95.827 588.134 96.7017 586.685 97.303C585.264 97.9043 583.692 98.205 581.97 98.205ZM597.571 98V76.475H600.359V82.338L600.072 81.313C600.674 79.673 601.685 78.4293 603.106 77.582C604.528 76.7073 606.291 76.27 608.395 76.27V79.099C608.286 79.099 608.177 79.099 608.067 79.099C607.958 79.0717 607.849 79.058 607.739 79.058C605.471 79.058 603.694 79.755 602.409 81.149C601.125 82.5157 600.482 84.47 600.482 87.012V98H597.571ZM633.286 98.246C631.154 98.246 629.104 97.9043 627.136 97.221C625.195 96.5103 623.692 95.6083 622.626 94.515L623.815 92.178C624.826 93.162 626.179 93.9957 627.874 94.679C629.596 95.335 631.4 95.663 633.286 95.663C635.09 95.663 636.552 95.4443 637.673 95.007C638.821 94.5423 639.654 93.9273 640.174 93.162C640.72 92.3967 640.994 91.5493 640.994 90.62C640.994 89.4993 640.666 88.5973 640.01 87.914C639.381 87.2307 638.547 86.6977 637.509 86.315C636.47 85.905 635.322 85.5497 634.065 85.249C632.807 84.9483 631.55 84.634 630.293 84.306C629.035 83.9507 627.874 83.486 626.808 82.912C625.769 82.338 624.922 81.5863 624.266 80.657C623.637 79.7003 623.323 78.4567 623.323 76.926C623.323 75.5047 623.692 74.2063 624.43 73.031C625.195 71.8283 626.357 70.8717 627.915 70.161C629.473 69.423 631.468 69.054 633.901 69.054C635.513 69.054 637.112 69.2863 638.698 69.751C640.283 70.1883 641.65 70.8033 642.798 71.596L641.773 74.015C640.543 73.195 639.231 72.5937 637.837 72.211C636.47 71.8283 635.144 71.637 633.86 71.637C632.138 71.637 630.716 71.8693 629.596 72.334C628.475 72.7987 627.641 73.4273 627.095 74.22C626.575 74.9853 626.316 75.86 626.316 76.844C626.316 77.9647 626.63 78.8667 627.259 79.55C627.915 80.2333 628.762 80.7663 629.801 81.149C630.867 81.5317 632.028 81.8733 633.286 82.174C634.543 82.4747 635.787 82.8027 637.017 83.158C638.274 83.5133 639.422 83.978 640.461 84.552C641.527 85.0987 642.374 85.8367 643.003 86.766C643.659 87.6953 643.987 88.9117 643.987 90.415C643.987 91.809 643.604 93.1073 642.839 94.31C642.073 95.4853 640.898 96.442 639.313 97.18C637.755 97.8907 635.746 98.246 633.286 98.246ZM661.093 98.205C659.235 98.205 657.554 97.7813 656.05 96.934C654.547 96.0593 653.344 94.8157 652.442 93.203C651.568 91.563 651.13 89.5677 651.13 87.217C651.13 84.8663 651.568 82.8847 652.442 81.272C653.317 79.632 654.506 78.3883 656.009 77.541C657.513 76.6937 659.207 76.27 661.093 76.27C663.143 76.27 664.975 76.7347 666.587 77.664C668.227 78.566 669.512 79.8507 670.441 81.518C671.371 83.158 671.835 85.0577 671.835 87.217C671.835 89.4037 671.371 91.317 670.441 92.957C669.512 94.597 668.227 95.8817 666.587 96.811C664.975 97.7403 663.143 98.205 661.093 98.205ZM649.982 105.954V76.475H652.77V82.953L652.483 87.258L652.893 91.604V105.954H649.982ZM660.888 95.622C662.419 95.622 663.786 95.2803 664.988 94.597C666.191 93.8863 667.148 92.9023 667.858 91.645C668.569 90.3603 668.924 88.8843 668.924 87.217C668.924 85.5497 668.569 84.0873 667.858 82.83C667.148 81.5727 666.191 80.5887 664.988 79.878C663.786 79.1673 662.419 78.812 660.888 78.812C659.358 78.812 657.977 79.1673 656.747 79.878C655.545 80.5887 654.588 81.5727 653.877 82.83C653.194 84.0873 652.852 85.5497 652.852 87.217C652.852 88.8843 653.194 90.3603 653.877 91.645C654.588 92.9023 655.545 93.8863 656.747 94.597C657.977 95.2803 659.358 95.622 660.888 95.622ZM686.912 98.205C684.671 98.205 682.703 97.7403 681.008 96.811C679.314 95.8543 677.988 94.556 677.031 92.916C676.075 91.2487 675.596 89.349 675.596 87.217C675.596 85.085 676.047 83.199 676.949 81.559C677.879 79.919 679.136 78.6343 680.721 77.705C682.334 76.7483 684.138 76.27 686.133 76.27C688.156 76.27 689.946 76.7347 691.504 77.664C693.09 78.566 694.333 79.8507 695.235 81.518C696.137 83.158 696.588 85.0577 696.588 87.217C696.588 87.3537 696.575 87.504 696.547 87.668C696.547 87.8047 696.547 87.955 696.547 88.119H677.81V85.946H694.989L693.841 86.807C693.841 85.249 693.5 83.8687 692.816 82.666C692.16 81.436 691.258 80.4793 690.11 79.796C688.962 79.1127 687.637 78.771 686.133 78.771C684.657 78.771 683.332 79.1127 682.156 79.796C680.981 80.4793 680.065 81.436 679.409 82.666C678.753 83.896 678.425 85.3037 678.425 86.889V87.34C678.425 88.98 678.781 90.4287 679.491 91.686C680.229 92.916 681.241 93.8863 682.525 94.597C683.837 95.2803 685.327 95.622 686.994 95.622C688.306 95.622 689.523 95.3897 690.643 94.925C691.791 94.4603 692.775 93.7497 693.595 92.793L695.235 94.679C694.279 95.827 693.076 96.7017 691.627 97.303C690.206 97.9043 688.634 98.205 686.912 98.205ZM711.657 98.205C709.415 98.205 707.447 97.7403 705.753 96.811C704.058 95.8543 702.732 94.556 701.776 92.916C700.819 91.2487 700.341 89.349 700.341 87.217C700.341 85.085 700.792 83.199 701.694 81.559C702.623 79.919 703.88 78.6343 705.466 77.705C707.078 76.7483 708.882 76.27 710.878 76.27C712.9 76.27 714.691 76.7347 716.249 77.664C717.834 78.566 719.078 79.8507 719.98 81.518C720.882 83.158 721.333 85.0577 721.333 87.217C721.333 87.3537 721.319 87.504 721.292 87.668C721.292 87.8047 721.292 87.955 721.292 88.119H702.555V85.946H719.734L718.586 86.807C718.586 85.249 718.244 83.8687 717.561 82.666C716.905 81.436 716.003 80.4793 714.855 79.796C713.707 79.1127 712.381 78.771 710.878 78.771C709.402 78.771 708.076 79.1127 706.901 79.796C705.725 80.4793 704.81 81.436 704.154 82.666C703.498 83.896 703.17 85.3037 703.17 86.889V87.34C703.17 88.98 703.525 90.4287 704.236 91.686C704.974 92.916 705.985 93.8863 707.27 94.597C708.582 95.2803 710.071 95.622 711.739 95.622C713.051 95.622 714.267 95.3897 715.388 94.925C716.536 94.4603 717.52 93.7497 718.34 92.793L719.98 94.679C719.023 95.827 717.82 96.7017 716.372 97.303C714.95 97.9043 713.379 98.205 711.657 98.205ZM736.196 98.205C734.064 98.205 732.15 97.7403 730.456 96.811C728.788 95.8543 727.476 94.556 726.52 92.916C725.563 91.2487 725.085 89.349 725.085 87.217C725.085 85.0577 725.563 83.158 726.52 81.518C727.476 79.878 728.788 78.5933 730.456 77.664C732.15 76.7347 734.064 76.27 736.196 76.27C738.027 76.27 739.681 76.6253 741.157 77.336C742.633 78.0467 743.794 79.1127 744.642 80.534L742.469 82.01C741.731 80.9167 740.815 80.1103 739.722 79.591C738.628 79.0717 737.439 78.812 736.155 78.812C734.624 78.812 733.244 79.1673 732.014 79.878C730.784 80.5613 729.813 81.5317 729.103 82.789C728.392 84.0463 728.037 85.5223 728.037 87.217C728.037 88.9117 728.392 90.3877 729.103 91.645C729.813 92.9023 730.784 93.8863 732.014 94.597C733.244 95.2803 734.624 95.622 736.155 95.622C737.439 95.622 738.628 95.3623 739.722 94.843C740.815 94.3237 741.731 93.531 742.469 92.465L744.642 93.941C743.794 95.335 742.633 96.401 741.157 97.139C739.681 97.8497 738.027 98.205 736.196 98.205ZM761.028 76.27C762.777 76.27 764.308 76.6117 765.62 77.295C766.959 77.951 767.998 78.9623 768.736 80.329C769.501 81.6957 769.884 83.4177 769.884 85.495V98H766.973V85.782C766.973 83.5133 766.399 81.805 765.251 80.657C764.13 79.4817 762.545 78.894 760.495 78.894C758.964 78.894 757.625 79.2083 756.477 79.837C755.356 80.4383 754.482 81.3267 753.853 82.502C753.252 83.65 752.951 85.044 752.951 86.684V98H750.04V67.578H752.951V82.379L752.377 81.272C753.06 79.714 754.154 78.4977 755.657 77.623C757.16 76.721 758.951 76.27 761.028 76.27ZM405.802 123.133H420.972V125.716H405.802V123.133ZM406.13 136.376H423.391V139H403.096V110.3H422.776V112.924H406.13V136.376ZM435.002 139L425.449 117.475H428.483L437.257 137.442H435.822L444.719 117.475H447.589L437.995 139H435.002ZM460.231 139.205C457.99 139.205 456.022 138.74 454.327 137.811C452.633 136.854 451.307 135.556 450.35 133.916C449.394 132.249 448.915 130.349 448.915 128.217C448.915 126.085 449.366 124.199 450.268 122.559C451.198 120.919 452.455 119.634 454.04 118.705C455.653 117.748 457.457 117.27 459.452 117.27C461.475 117.27 463.265 117.735 464.823 118.664C466.409 119.566 467.652 120.851 468.554 122.518C469.456 124.158 469.907 126.058 469.907 128.217C469.907 128.354 469.894 128.504 469.866 128.668C469.866 128.805 469.866 128.955 469.866 129.119H451.129V126.946H468.308L467.16 127.807C467.16 126.249 466.819 124.869 466.135 123.666C465.479 122.436 464.577 121.479 463.429 120.796C462.281 120.113 460.956 119.771 459.452 119.771C457.976 119.771 456.651 120.113 455.475 120.796C454.3 121.479 453.384 122.436 452.728 123.666C452.072 124.896 451.744 126.304 451.744 127.889V128.34C451.744 129.98 452.1 131.429 452.81 132.686C453.548 133.916 454.56 134.886 455.844 135.597C457.156 136.28 458.646 136.622 460.313 136.622C461.625 136.622 462.842 136.39 463.962 135.925C465.11 135.46 466.094 134.75 466.914 133.793L468.554 135.679C467.598 136.827 466.395 137.702 464.946 138.303C463.525 138.904 461.953 139.205 460.231 139.205ZM486.82 117.27C488.57 117.27 490.1 117.612 491.412 118.295C492.752 118.951 493.79 119.962 494.528 121.329C495.294 122.696 495.676 124.418 495.676 126.495V139H492.765V126.782C492.765 124.513 492.191 122.805 491.043 121.657C489.923 120.482 488.337 119.894 486.287 119.894C484.757 119.894 483.417 120.208 482.269 120.837C481.149 121.438 480.274 122.327 479.645 123.502C479.044 124.65 478.743 126.044 478.743 127.684V139H475.832V117.475H478.62V123.379L478.169 122.272C478.853 120.714 479.946 119.498 481.449 118.623C482.953 117.721 484.743 117.27 486.82 117.27ZM510.345 139.205C508.323 139.205 506.765 138.658 505.671 137.565C504.578 136.472 504.031 134.927 504.031 132.932V112.719H506.942V132.768C506.942 134.025 507.257 134.996 507.885 135.679C508.541 136.362 509.471 136.704 510.673 136.704C511.958 136.704 513.024 136.335 513.871 135.597L514.896 137.688C514.322 138.207 513.625 138.59 512.805 138.836C512.013 139.082 511.193 139.205 510.345 139.205ZM500.177 119.894V117.475H513.502V119.894H500.177ZM531.541 139V110.3H542.283C544.716 110.3 546.807 110.696 548.556 111.489C550.306 112.254 551.645 113.375 552.574 114.851C553.531 116.3 554.009 118.063 554.009 120.14C554.009 122.163 553.531 123.912 552.574 125.388C551.645 126.837 550.306 127.957 548.556 128.75C546.807 129.543 544.716 129.939 542.283 129.939H533.222L534.575 128.504V139H531.541ZM534.575 128.75L533.222 127.274H542.201C545.071 127.274 547.244 126.659 548.72 125.429C550.224 124.172 550.975 122.409 550.975 120.14C550.975 117.844 550.224 116.067 548.72 114.81C547.244 113.553 545.071 112.924 542.201 112.924H533.222L534.575 111.489V128.75ZM568.608 139.205C566.531 139.205 564.659 138.74 562.991 137.811C561.351 136.854 560.053 135.556 559.096 133.916C558.14 132.249 557.661 130.349 557.661 128.217C557.661 126.058 558.14 124.158 559.096 122.518C560.053 120.878 561.351 119.593 562.991 118.664C564.631 117.735 566.504 117.27 568.608 117.27C570.74 117.27 572.626 117.735 574.266 118.664C575.934 119.593 577.232 120.878 578.161 122.518C579.118 124.158 579.596 126.058 579.596 128.217C579.596 130.349 579.118 132.249 578.161 133.916C577.232 135.556 575.934 136.854 574.266 137.811C572.599 138.74 570.713 139.205 568.608 139.205ZM568.608 136.622C570.166 136.622 571.547 136.28 572.749 135.597C573.952 134.886 574.895 133.902 575.578 132.645C576.289 131.36 576.644 129.884 576.644 128.217C576.644 126.522 576.289 125.046 575.578 123.789C574.895 122.532 573.952 121.561 572.749 120.878C571.547 120.167 570.18 119.812 568.649 119.812C567.119 119.812 565.752 120.167 564.549 120.878C563.347 121.561 562.39 122.532 561.679 123.789C560.969 125.046 560.613 126.522 560.613 128.217C560.613 129.884 560.969 131.36 561.679 132.645C562.39 133.902 563.347 134.886 564.549 135.597C565.752 136.28 567.105 136.622 568.608 136.622ZM585.539 139V117.475H588.327V123.338L588.04 122.313C588.642 120.673 589.653 119.429 591.074 118.582C592.496 117.707 594.259 117.27 596.363 117.27V120.099C596.254 120.099 596.145 120.099 596.035 120.099C595.926 120.072 595.817 120.058 595.707 120.058C593.439 120.058 591.662 120.755 590.377 122.149C589.093 123.516 588.45 125.47 588.45 128.012V139H585.539ZM609.402 139.205C607.379 139.205 605.821 138.658 604.728 137.565C603.635 136.472 603.088 134.927 603.088 132.932V112.719H605.999V132.768C605.999 134.025 606.313 134.996 606.942 135.679C607.598 136.362 608.527 136.704 609.73 136.704C611.015 136.704 612.081 136.335 612.928 135.597L613.953 137.688C613.379 138.207 612.682 138.59 611.862 138.836C611.069 139.082 610.249 139.205 609.402 139.205ZM599.234 119.894V117.475H612.559V119.894H599.234ZM619.252 139V117.475H622.04V123.338L621.753 122.313C622.355 120.673 623.366 119.429 624.787 118.582C626.209 117.707 627.972 117.27 630.076 117.27V120.099C629.967 120.099 629.858 120.099 629.748 120.099C629.639 120.072 629.53 120.058 629.42 120.058C627.152 120.058 625.375 120.755 624.09 122.149C622.806 123.516 622.163 125.47 622.163 128.012V139H619.252ZM647.276 139V134.244L647.153 133.465V125.511C647.153 123.68 646.633 122.272 645.595 121.288C644.583 120.304 643.066 119.812 641.044 119.812C639.65 119.812 638.324 120.044 637.067 120.509C635.809 120.974 634.743 121.589 633.869 122.354L632.557 120.181C633.65 119.252 634.962 118.541 636.493 118.049C638.023 117.53 639.636 117.27 641.331 117.27C644.119 117.27 646.264 117.967 647.768 119.361C649.298 120.728 650.064 122.819 650.064 125.634V139H647.276ZM639.855 139.205C638.242 139.205 636.834 138.945 635.632 138.426C634.456 137.879 633.554 137.141 632.926 136.212C632.297 135.255 631.983 134.162 631.983 132.932C631.983 131.811 632.242 130.8 632.762 129.898C633.308 128.969 634.183 128.231 635.386 127.684C636.616 127.11 638.256 126.823 640.306 126.823H647.727V128.996H640.388C638.31 128.996 636.862 129.365 636.042 130.103C635.249 130.841 634.853 131.757 634.853 132.85C634.853 134.08 635.331 135.064 636.288 135.802C637.244 136.54 638.584 136.909 640.306 136.909C641.946 136.909 643.353 136.54 644.529 135.802C645.731 135.037 646.606 133.943 647.153 132.522L647.809 134.531C647.262 135.952 646.305 137.087 644.939 137.934C643.599 138.781 641.905 139.205 639.855 139.205ZM657.97 139V117.475H660.881V139H657.97ZM659.446 112.719C658.845 112.719 658.339 112.514 657.929 112.104C657.519 111.694 657.314 111.202 657.314 110.628C657.314 110.054 657.519 109.576 657.929 109.193C658.339 108.783 658.845 108.578 659.446 108.578C660.047 108.578 660.553 108.769 660.963 109.152C661.373 109.535 661.578 110.013 661.578 110.587C661.578 111.188 661.373 111.694 660.963 112.104C660.58 112.514 660.075 112.719 659.446 112.719ZM675.787 139.205C673.764 139.205 672.206 138.658 671.113 137.565C670.02 136.472 669.473 134.927 669.473 132.932V112.719H672.384V132.768C672.384 134.025 672.698 134.996 673.327 135.679C673.983 136.362 674.912 136.704 676.115 136.704C677.4 136.704 678.466 136.335 679.313 135.597L680.338 137.688C679.764 138.207 679.067 138.59 678.247 138.836C677.454 139.082 676.634 139.205 675.787 139.205ZM665.619 119.894V117.475H678.944V119.894H665.619Z" fill="white"/>
</svg>
