<svg width="1080" height="272" viewBox="0 0 1080 272" fill="none" xmlns="http://www.w3.org/2000/svg">
<path d="M0 100C0 44.7715 44.7715 0 100 0H980C1035.23 0 1080 44.7715 1080 100V272H0V100Z" fill="#5B4337"/>
<path d="M283.648 210.814C279.938 210.814 276.477 210.204 273.265 208.982C270.098 207.76 267.338 206.041 264.985 203.824C262.677 201.607 260.867 199.005 259.555 196.019C258.289 193.033 257.655 189.775 257.655 186.246C257.655 182.717 258.289 179.459 259.555 176.473C260.867 173.487 262.7 170.886 265.053 168.669C267.405 166.451 270.165 164.732 273.333 163.511C276.5 162.289 279.938 161.678 283.648 161.678C287.404 161.678 290.842 162.289 293.964 163.511C297.132 164.732 299.869 166.451 302.176 168.669C304.529 170.84 306.362 173.419 307.674 176.405C308.986 179.392 309.642 182.672 309.642 186.246C309.642 189.775 308.986 193.056 307.674 196.087C306.362 199.073 304.529 201.675 302.176 203.892C299.869 206.064 297.132 207.76 293.964 208.982C290.842 210.204 287.404 210.814 283.648 210.814ZM299.19 220.927C297.335 220.927 295.571 220.723 293.896 220.316C292.268 219.909 290.639 219.253 289.01 218.348C287.426 217.443 285.752 216.221 283.988 214.683C282.268 213.145 280.391 211.244 278.355 208.982L289.892 206.064C291.114 207.738 292.245 209.072 293.286 210.068C294.326 211.063 295.322 211.765 296.272 212.172C297.267 212.579 298.308 212.783 299.394 212.783C302.289 212.783 304.868 211.606 307.131 209.253L312.017 215.09C308.805 218.981 304.529 220.927 299.19 220.927ZM283.648 201.449C285.775 201.449 287.721 201.087 289.485 200.363C291.295 199.639 292.878 198.598 294.236 197.241C295.593 195.883 296.634 194.277 297.358 192.422C298.127 190.522 298.512 188.463 298.512 186.246C298.512 183.984 298.127 181.925 297.358 180.07C296.634 178.215 295.593 176.609 294.236 175.252C292.878 173.894 291.295 172.854 289.485 172.13C287.721 171.406 285.775 171.044 283.648 171.044C281.522 171.044 279.554 171.406 277.744 172.13C275.934 172.854 274.351 173.894 272.993 175.252C271.681 176.609 270.64 178.215 269.871 180.07C269.147 181.925 268.785 183.984 268.785 186.246C268.785 188.463 269.147 190.522 269.871 192.422C270.64 194.277 271.681 195.883 272.993 197.241C274.351 198.598 275.934 199.639 277.744 200.363C279.554 201.087 281.522 201.449 283.648 201.449ZM332.564 210.543C329.533 210.543 326.818 209.955 324.42 208.778C322.067 207.602 320.235 205.815 318.923 203.417C317.611 200.974 316.955 197.874 316.955 194.119V173.487H327.542V192.558C327.542 195.589 328.175 197.829 329.442 199.277C330.754 200.679 332.587 201.381 334.94 201.381C336.568 201.381 338.016 201.041 339.283 200.363C340.55 199.639 341.545 198.553 342.269 197.105C342.993 195.612 343.355 193.757 343.355 191.54V173.487H353.943V210H343.898V199.956L345.731 202.874C344.509 205.408 342.699 207.331 340.301 208.643C337.948 209.91 335.369 210.543 332.564 210.543ZM381.125 210.543C377.234 210.543 373.773 209.729 370.741 208.1C367.755 206.471 365.38 204.254 363.615 201.449C361.896 198.598 361.036 195.363 361.036 191.744C361.036 188.079 361.896 184.844 363.615 182.038C365.38 179.188 367.755 176.971 370.741 175.387C373.773 173.759 377.234 172.944 381.125 172.944C384.971 172.944 388.41 173.759 391.441 175.387C394.473 176.971 396.848 179.165 398.567 181.971C400.287 184.776 401.146 188.033 401.146 191.744C401.146 195.363 400.287 198.598 398.567 201.449C396.848 204.254 394.473 206.471 391.441 208.1C388.41 209.729 384.971 210.543 381.125 210.543ZM381.125 201.856C382.89 201.856 384.473 201.449 385.876 200.634C387.279 199.82 388.387 198.666 389.201 197.173C390.016 195.635 390.423 193.825 390.423 191.744C390.423 189.617 390.016 187.807 389.201 186.314C388.387 184.821 387.279 183.667 385.876 182.853C384.473 182.038 382.89 181.631 381.125 181.631C379.361 181.631 377.777 182.038 376.374 182.853C374.972 183.667 373.841 184.821 372.981 186.314C372.167 187.807 371.759 189.617 371.759 191.744C371.759 193.825 372.167 195.635 372.981 197.173C373.841 198.666 374.972 199.82 376.374 200.634C377.777 201.449 379.361 201.856 381.125 201.856ZM423.154 210.543C418.856 210.543 415.507 209.457 413.109 207.285C410.711 205.068 409.512 201.788 409.512 197.444V165.411H420.1V197.309C420.1 198.847 420.507 200.046 421.321 200.906C422.136 201.72 423.244 202.127 424.647 202.127C426.321 202.127 427.746 201.675 428.923 200.77L431.773 208.235C430.687 209.005 429.375 209.593 427.837 210C426.344 210.362 424.783 210.543 423.154 210.543ZM403.879 182.446V174.302H429.194V182.446H403.879ZM437.716 210V173.487H448.304V210H437.716ZM443.01 168.397C441.064 168.397 439.481 167.831 438.259 166.7C437.038 165.569 436.427 164.167 436.427 162.493C436.427 160.818 437.038 159.416 438.259 158.285C439.481 157.154 441.064 156.588 443.01 156.588C444.956 156.588 446.539 157.131 447.761 158.217C448.982 159.258 449.593 160.615 449.593 162.289C449.593 164.053 448.982 165.524 447.761 166.7C446.584 167.831 445.001 168.397 443.01 168.397ZM480.322 172.944C483.218 172.944 485.797 173.532 488.059 174.709C490.367 175.84 492.177 177.604 493.489 180.002C494.801 182.355 495.457 185.387 495.457 189.097V210H484.87V190.726C484.87 187.785 484.214 185.613 482.901 184.21C481.635 182.808 479.825 182.106 477.472 182.106C475.798 182.106 474.282 182.468 472.925 183.192C471.613 183.871 470.572 184.934 469.803 186.382C469.079 187.83 468.717 189.685 468.717 191.947V210H458.13V173.487H468.242V183.599L466.342 180.545C467.654 178.102 469.531 176.224 471.975 174.912C474.418 173.6 477.201 172.944 480.322 172.944ZM522.49 223.709C519.051 223.709 515.725 223.279 512.513 222.42C509.346 221.605 506.699 220.361 504.572 218.687L508.78 211.086C510.319 212.353 512.264 213.348 514.617 214.072C517.015 214.841 519.368 215.226 521.675 215.226C525.431 215.226 528.145 214.389 529.819 212.715C531.539 211.041 532.398 208.552 532.398 205.249V199.752L533.077 190.59L532.941 181.36V173.487H542.986V203.892C542.986 210.679 541.221 215.678 537.692 218.891C534.163 222.103 529.095 223.709 522.49 223.709ZM520.861 208.235C517.467 208.235 514.391 207.512 511.631 206.064C508.916 204.571 506.722 202.512 505.048 199.888C503.419 197.218 502.604 194.119 502.604 190.59C502.604 187.015 503.419 183.916 505.048 181.292C506.722 178.622 508.916 176.564 511.631 175.116C514.391 173.668 517.467 172.944 520.861 172.944C523.937 172.944 526.652 173.578 529.005 174.844C531.358 176.066 533.19 177.989 534.502 180.613C535.814 183.192 536.47 186.518 536.47 190.59C536.47 194.617 535.814 197.942 534.502 200.566C533.19 203.145 531.358 205.068 529.005 206.335C526.652 207.602 523.937 208.235 520.861 208.235ZM522.965 199.548C524.82 199.548 526.471 199.186 527.919 198.462C529.367 197.693 530.498 196.63 531.312 195.273C532.127 193.915 532.534 192.354 532.534 190.59C532.534 188.78 532.127 187.219 531.312 185.907C530.498 184.55 529.367 183.509 527.919 182.785C526.471 182.016 524.82 181.631 522.965 181.631C521.11 181.631 519.458 182.016 518.01 182.785C516.562 183.509 515.409 184.55 514.549 185.907C513.735 187.219 513.327 188.78 513.327 190.59C513.327 192.354 513.735 193.915 514.549 195.273C515.409 196.63 516.562 197.693 518.01 198.462C519.458 199.186 521.11 199.548 522.965 199.548ZM588.416 210.814C584.616 210.814 580.973 210.317 577.49 209.321C574.006 208.281 571.2 206.946 569.074 205.317L572.807 197.037C574.843 198.485 577.241 199.684 580.001 200.634C582.806 201.539 585.634 201.992 588.484 201.992C590.656 201.992 592.398 201.788 593.71 201.381C595.067 200.928 596.063 200.318 596.696 199.548C597.33 198.779 597.646 197.897 597.646 196.902C597.646 195.635 597.149 194.639 596.153 193.915C595.158 193.146 593.846 192.535 592.217 192.083C590.588 191.585 588.778 191.133 586.787 190.726C584.842 190.273 582.874 189.73 580.883 189.097C578.937 188.463 577.15 187.649 575.521 186.653C573.893 185.658 572.558 184.346 571.517 182.717C570.522 181.088 570.024 179.007 570.024 176.473C570.024 173.759 570.748 171.293 572.196 169.076C573.689 166.813 575.906 165.026 578.847 163.714C581.833 162.357 585.566 161.678 590.045 161.678C593.031 161.678 595.972 162.04 598.868 162.764C601.764 163.443 604.32 164.483 606.537 165.886L603.144 174.234C600.927 172.967 598.71 172.039 596.493 171.451C594.276 170.818 592.104 170.501 589.977 170.501C587.851 170.501 586.109 170.75 584.751 171.247C583.394 171.745 582.421 172.401 581.833 173.216C581.245 173.985 580.951 174.89 580.951 175.93C580.951 177.152 581.449 178.147 582.444 178.917C583.439 179.64 584.751 180.229 586.38 180.681C588.009 181.134 589.796 181.586 591.742 182.038C593.733 182.491 595.701 183.011 597.646 183.599C599.637 184.188 601.447 184.979 603.076 185.975C604.705 186.97 606.017 188.282 607.012 189.911C608.053 191.54 608.573 193.599 608.573 196.087C608.573 198.757 607.826 201.2 606.333 203.417C604.84 205.634 602.601 207.421 599.614 208.778C596.674 210.136 592.941 210.814 588.416 210.814ZM637.532 172.944C640.428 172.944 643.007 173.532 645.269 174.709C647.576 175.84 649.386 177.604 650.698 180.002C652.01 182.355 652.666 185.387 652.666 189.097V210H642.079V190.726C642.079 187.785 641.423 185.613 640.111 184.21C638.844 182.808 637.034 182.106 634.681 182.106C633.007 182.106 631.492 182.468 630.134 183.192C628.822 183.871 627.782 184.934 627.012 186.382C626.288 187.83 625.926 189.685 625.926 191.947V210H615.339V159.642H625.926V183.599L623.551 180.545C624.863 178.102 626.741 176.224 629.184 174.912C631.627 173.6 634.41 172.944 637.532 172.944ZM684.66 210V202.874L683.981 201.313V188.554C683.981 186.292 683.28 184.527 681.877 183.26C680.52 181.993 678.416 181.36 675.565 181.36C673.62 181.36 671.697 181.677 669.797 182.31C667.942 182.898 666.358 183.713 665.046 184.753L661.245 177.356C663.236 175.953 665.634 174.867 668.439 174.098C671.244 173.329 674.095 172.944 676.991 172.944C682.556 172.944 686.877 174.256 689.953 176.881C693.03 179.505 694.568 183.599 694.568 189.165V210H684.66ZM673.529 210.543C670.679 210.543 668.236 210.068 666.2 209.118C664.164 208.122 662.603 206.788 661.517 205.114C660.431 203.439 659.888 201.562 659.888 199.48C659.888 197.309 660.408 195.408 661.449 193.78C662.535 192.151 664.231 190.884 666.539 189.979C668.846 189.029 671.855 188.554 675.565 188.554H685.271V194.73H676.719C674.231 194.73 672.511 195.137 671.561 195.951C670.656 196.766 670.204 197.784 670.204 199.005C670.204 200.363 670.724 201.449 671.765 202.263C672.851 203.032 674.321 203.417 676.176 203.417C677.941 203.417 679.524 203.01 680.927 202.195C682.33 201.336 683.348 200.091 683.981 198.462L685.61 203.349C684.841 205.702 683.438 207.489 681.402 208.711C679.366 209.932 676.742 210.543 673.529 210.543ZM725.732 210.543C722.656 210.543 719.964 209.864 717.656 208.507C715.349 207.15 713.539 205.091 712.227 202.331C710.96 199.526 710.326 195.997 710.326 191.744C710.326 187.445 710.937 183.916 712.159 181.156C713.381 178.396 715.145 176.338 717.453 174.98C719.76 173.623 722.52 172.944 725.732 172.944C729.171 172.944 732.248 173.736 734.963 175.32C737.722 176.858 739.894 179.03 741.478 181.835C743.107 184.64 743.921 187.943 743.921 191.744C743.921 195.589 743.107 198.915 741.478 201.72C739.894 204.525 737.722 206.697 734.963 208.235C732.248 209.774 729.171 210.543 725.732 210.543ZM704.151 223.166V173.487H714.263V180.953L714.059 191.811L714.738 202.602V223.166H704.151ZM723.9 201.856C725.665 201.856 727.226 201.449 728.583 200.634C729.986 199.82 731.094 198.666 731.908 197.173C732.768 195.635 733.198 193.825 733.198 191.744C733.198 189.617 732.768 187.807 731.908 186.314C731.094 184.821 729.986 183.667 728.583 182.853C727.226 182.038 725.665 181.631 723.9 181.631C722.135 181.631 720.552 182.038 719.149 182.853C717.747 183.667 716.638 184.821 715.824 186.314C715.009 187.807 714.602 189.617 714.602 191.744C714.602 193.825 715.009 195.635 715.824 197.173C716.638 198.666 717.747 199.82 719.149 200.634C720.552 201.449 722.135 201.856 723.9 201.856ZM769.129 210.543C764.967 210.543 761.302 209.729 758.135 208.1C755.013 206.471 752.592 204.254 750.873 201.449C749.153 198.598 748.294 195.363 748.294 191.744C748.294 188.079 749.131 184.844 750.805 182.038C752.524 179.188 754.854 176.971 757.795 175.387C760.736 173.759 764.062 172.944 767.772 172.944C771.346 172.944 774.559 173.713 777.409 175.252C780.305 176.745 782.59 178.917 784.264 181.767C785.938 184.572 786.775 187.943 786.775 191.879C786.775 192.287 786.752 192.762 786.707 193.305C786.662 193.802 786.616 194.277 786.571 194.73H756.913V188.554H781.006L776.934 190.386C776.934 188.486 776.549 186.834 775.78 185.432C775.011 184.029 773.948 182.943 772.59 182.174C771.233 181.36 769.649 180.953 767.84 180.953C766.03 180.953 764.424 181.36 763.021 182.174C761.664 182.943 760.6 184.052 759.831 185.5C759.062 186.902 758.677 188.576 758.677 190.522V192.151C758.677 194.142 759.107 195.906 759.967 197.444C760.872 198.938 762.116 200.091 763.7 200.906C765.329 201.675 767.229 202.059 769.401 202.059C771.346 202.059 773.043 201.765 774.491 201.177C775.984 200.589 777.341 199.707 778.563 198.53L784.196 204.638C782.522 206.539 780.418 208.009 777.884 209.05C775.35 210.045 772.432 210.543 769.129 210.543ZM806.108 210.543C802.986 210.543 799.977 210.181 797.081 209.457C794.231 208.688 791.968 207.738 790.294 206.607L793.823 199.005C795.498 200.046 797.466 200.906 799.728 201.584C802.035 202.218 804.298 202.535 806.515 202.535C808.958 202.535 810.677 202.24 811.673 201.652C812.713 201.064 813.234 200.25 813.234 199.209C813.234 198.349 812.826 197.716 812.012 197.309C811.243 196.856 810.202 196.517 808.89 196.291C807.578 196.064 806.13 195.838 804.547 195.612C803.008 195.386 801.447 195.092 799.864 194.73C798.28 194.323 796.832 193.734 795.52 192.965C794.208 192.196 793.145 191.155 792.33 189.843C791.561 188.531 791.177 186.834 791.177 184.753C791.177 182.446 791.833 180.41 793.145 178.645C794.502 176.881 796.448 175.501 798.981 174.505C801.515 173.464 804.547 172.944 808.076 172.944C810.564 172.944 813.098 173.216 815.677 173.759C818.256 174.302 820.405 175.093 822.124 176.134L818.595 183.667C816.831 182.627 815.043 181.925 813.234 181.563C811.469 181.156 809.75 180.953 808.076 180.953C805.723 180.953 804.004 181.269 802.918 181.903C801.832 182.536 801.289 183.351 801.289 184.346C801.289 185.251 801.674 185.93 802.443 186.382C803.257 186.834 804.32 187.196 805.632 187.468C806.945 187.739 808.37 187.988 809.908 188.214C811.492 188.395 813.075 188.69 814.659 189.097C816.242 189.504 817.668 190.092 818.935 190.861C820.247 191.585 821.31 192.603 822.124 193.915C822.939 195.182 823.346 196.856 823.346 198.938C823.346 201.2 822.667 203.213 821.31 204.978C819.953 206.697 817.984 208.054 815.405 209.05C812.872 210.045 809.772 210.543 806.108 210.543Z" fill="white"/>
<path d="M377.542 98V71.924H367.456V69.3H390.662V71.924H380.576V98H377.542ZM401.794 98.205C399.553 98.205 397.585 97.7403 395.89 96.811C394.196 95.8543 392.87 94.556 391.913 92.916C390.957 91.2487 390.478 89.349 390.478 87.217C390.478 85.085 390.929 83.199 391.831 81.559C392.761 79.919 394.018 78.6343 395.603 77.705C397.216 76.7483 399.02 76.27 401.015 76.27C403.038 76.27 404.828 76.7347 406.386 77.664C407.972 78.566 409.215 79.8507 410.117 81.518C411.019 83.158 411.47 85.0577 411.47 87.217C411.47 87.3537 411.457 87.504 411.429 87.668C411.429 87.8047 411.429 87.955 411.429 88.119H392.692V85.946H409.871L408.723 86.807C408.723 85.249 408.382 83.8687 407.698 82.666C407.042 81.436 406.14 80.4793 404.992 79.796C403.844 79.1127 402.519 78.771 401.015 78.771C399.539 78.771 398.214 79.1127 397.038 79.796C395.863 80.4793 394.947 81.436 394.291 82.666C393.635 83.896 393.307 85.3037 393.307 86.889V87.34C393.307 88.98 393.663 90.4287 394.373 91.686C395.111 92.916 396.123 93.8863 397.407 94.597C398.719 95.2803 400.209 95.622 401.876 95.622C403.188 95.622 404.405 95.3897 405.525 94.925C406.673 94.4603 407.657 93.7497 408.477 92.793L410.117 94.679C409.161 95.827 407.958 96.7017 406.509 97.303C405.088 97.9043 403.516 98.205 401.794 98.205ZM444.291 76.27C446.041 76.27 447.558 76.6117 448.842 77.295C450.154 77.951 451.166 78.9623 451.876 80.329C452.614 81.6957 452.983 83.4177 452.983 85.495V98H450.072V85.782C450.072 83.5133 449.526 81.805 448.432 80.657C447.366 79.4817 445.849 78.894 443.881 78.894C442.405 78.894 441.121 79.2083 440.027 79.837C438.961 80.4383 438.128 81.3267 437.526 82.502C436.952 83.65 436.665 85.044 436.665 86.684V98H433.754V85.782C433.754 83.5133 433.208 81.805 432.114 80.657C431.021 79.4817 429.49 78.894 427.522 78.894C426.074 78.894 424.803 79.2083 423.709 79.837C422.616 80.4383 421.769 81.3267 421.167 82.502C420.593 83.65 420.306 85.044 420.306 86.684V98H417.395V76.475H420.183V82.297L419.732 81.272C420.388 79.714 421.441 78.4977 422.889 77.623C424.365 76.721 426.101 76.27 428.096 76.27C430.201 76.27 431.991 76.803 433.467 77.869C434.943 78.9077 435.9 80.4793 436.337 82.584L435.189 82.133C435.818 80.3837 436.925 78.976 438.51 77.91C440.123 76.8167 442.05 76.27 444.291 76.27ZM471.989 98.205C470.13 98.205 468.449 97.7813 466.946 96.934C465.443 96.0593 464.24 94.8157 463.338 93.203C462.463 91.563 462.026 89.5677 462.026 87.217C462.026 84.8663 462.463 82.8847 463.338 81.272C464.213 79.632 465.402 78.3883 466.905 77.541C468.408 76.6937 470.103 76.27 471.989 76.27C474.039 76.27 475.87 76.7347 477.483 77.664C479.123 78.566 480.408 79.8507 481.337 81.518C482.266 83.158 482.731 85.0577 482.731 87.217C482.731 89.4037 482.266 91.317 481.337 92.957C480.408 94.597 479.123 95.8817 477.483 96.811C475.87 97.7403 474.039 98.205 471.989 98.205ZM460.878 105.954V76.475H463.666V82.953L463.379 87.258L463.789 91.604V105.954H460.878ZM471.784 95.622C473.315 95.622 474.681 95.2803 475.884 94.597C477.087 93.8863 478.043 92.9023 478.754 91.645C479.465 90.3603 479.82 88.8843 479.82 87.217C479.82 85.5497 479.465 84.0873 478.754 82.83C478.043 81.5727 477.087 80.5887 475.884 79.878C474.681 79.1673 473.315 78.812 471.784 78.812C470.253 78.812 468.873 79.1673 467.643 79.878C466.44 80.5887 465.484 81.5727 464.773 82.83C464.09 84.0873 463.748 85.5497 463.748 87.217C463.748 88.8843 464.09 90.3603 464.773 91.645C465.484 92.9023 466.44 93.8863 467.643 94.597C468.873 95.2803 470.253 95.622 471.784 95.622ZM488.665 98V67.578H491.576V98H488.665ZM513.165 98V93.244L513.042 92.465V84.511C513.042 82.6797 512.522 81.272 511.484 80.288C510.472 79.304 508.955 78.812 506.933 78.812C505.539 78.812 504.213 79.0443 502.956 79.509C501.698 79.9737 500.632 80.5887 499.758 81.354L498.446 79.181C499.539 78.2517 500.851 77.541 502.382 77.049C503.912 76.5297 505.525 76.27 507.22 76.27C510.008 76.27 512.153 76.967 513.657 78.361C515.187 79.7277 515.953 81.8187 515.953 84.634V98H513.165ZM505.744 98.205C504.131 98.205 502.723 97.9453 501.521 97.426C500.345 96.8793 499.443 96.1413 498.815 95.212C498.186 94.2553 497.872 93.162 497.872 91.932C497.872 90.8113 498.131 89.8 498.651 88.898C499.197 87.9687 500.072 87.2307 501.275 86.684C502.505 86.11 504.145 85.823 506.195 85.823H513.616V87.996H506.277C504.199 87.996 502.751 88.365 501.931 89.103C501.138 89.841 500.742 90.7567 500.742 91.85C500.742 93.08 501.22 94.064 502.177 94.802C503.133 95.54 504.473 95.909 506.195 95.909C507.835 95.909 509.242 95.54 510.418 94.802C511.62 94.0367 512.495 92.9433 513.042 91.522L513.698 93.531C513.151 94.9523 512.194 96.0867 510.828 96.934C509.488 97.7813 507.794 98.205 505.744 98.205ZM530.665 98.205C528.643 98.205 527.085 97.6583 525.991 96.565C524.898 95.4717 524.351 93.9273 524.351 91.932V71.719H527.262V91.768C527.262 93.0253 527.577 93.9957 528.205 94.679C528.861 95.3623 529.791 95.704 530.993 95.704C532.278 95.704 533.344 95.335 534.191 94.597L535.216 96.688C534.642 97.2073 533.945 97.59 533.125 97.836C532.333 98.082 531.513 98.205 530.665 98.205ZM520.497 78.894V76.475H533.822V78.894H520.497ZM548.898 98.205C546.656 98.205 544.688 97.7403 542.994 96.811C541.299 95.8543 539.973 94.556 539.017 92.916C538.06 91.2487 537.582 89.349 537.582 87.217C537.582 85.085 538.033 83.199 538.935 81.559C539.864 79.919 541.121 78.6343 542.707 77.705C544.319 76.7483 546.123 76.27 548.119 76.27C550.141 76.27 551.932 76.7347 553.49 77.664C555.075 78.566 556.319 79.8507 557.221 81.518C558.123 83.158 558.574 85.0577 558.574 87.217C558.574 87.3537 558.56 87.504 558.533 87.668C558.533 87.8047 558.533 87.955 558.533 88.119H539.796V85.946H556.975L555.827 86.807C555.827 85.249 555.485 83.8687 554.802 82.666C554.146 81.436 553.244 80.4793 552.096 79.796C550.948 79.1127 549.622 78.771 548.119 78.771C546.643 78.771 545.317 79.1127 544.142 79.796C542.966 80.4793 542.051 81.436 541.395 82.666C540.739 83.896 540.411 85.3037 540.411 86.889V87.34C540.411 88.98 540.766 90.4287 541.477 91.686C542.215 92.916 543.226 93.8863 544.511 94.597C545.823 95.2803 547.312 95.622 548.98 95.622C550.292 95.622 551.508 95.3897 552.629 94.925C553.777 94.4603 554.761 93.7497 555.581 92.793L557.221 94.679C556.264 95.827 555.061 96.7017 553.613 97.303C552.191 97.9043 550.62 98.205 548.898 98.205ZM575.844 98V69.3H587.529C590.591 69.3 593.269 69.915 595.565 71.145C597.889 72.3477 599.693 74.0287 600.977 76.188C602.262 78.3473 602.904 80.8347 602.904 83.65C602.904 86.4653 602.262 88.9527 600.977 91.112C599.693 93.2713 597.889 94.966 595.565 96.196C593.269 97.3987 590.591 98 587.529 98H575.844ZM578.878 95.376H587.365C589.907 95.376 592.108 94.884 593.966 93.9C595.852 92.8887 597.315 91.5083 598.353 89.759C599.392 87.9823 599.911 85.946 599.911 83.65C599.911 81.3267 599.392 79.2903 598.353 77.541C597.315 75.7917 595.852 74.425 593.966 73.441C592.108 72.4297 589.907 71.924 587.365 71.924H578.878V95.376ZM618.245 98.205C616.004 98.205 614.036 97.7403 612.341 96.811C610.647 95.8543 609.321 94.556 608.364 92.916C607.408 91.2487 606.929 89.349 606.929 87.217C606.929 85.085 607.38 83.199 608.282 81.559C609.212 79.919 610.469 78.6343 612.054 77.705C613.667 76.7483 615.471 76.27 617.466 76.27C619.489 76.27 621.279 76.7347 622.837 77.664C624.423 78.566 625.666 79.8507 626.568 81.518C627.47 83.158 627.921 85.0577 627.921 87.217C627.921 87.3537 627.908 87.504 627.88 87.668C627.88 87.8047 627.88 87.955 627.88 88.119H609.143V85.946H626.322L625.174 86.807C625.174 85.249 624.833 83.8687 624.149 82.666C623.493 81.436 622.591 80.4793 621.443 79.796C620.295 79.1127 618.97 78.771 617.466 78.771C615.99 78.771 614.665 79.1127 613.489 79.796C612.314 80.4793 611.398 81.436 610.742 82.666C610.086 83.896 609.758 85.3037 609.758 86.889V87.34C609.758 88.98 610.114 90.4287 610.824 91.686C611.562 92.916 612.574 93.8863 613.858 94.597C615.17 95.2803 616.66 95.622 618.327 95.622C619.639 95.622 620.856 95.3897 621.976 94.925C623.124 94.4603 624.108 93.7497 624.928 92.793L626.568 94.679C625.612 95.827 624.409 96.7017 622.96 97.303C621.539 97.9043 619.967 98.205 618.245 98.205ZM639.628 98.205C637.851 98.205 636.17 97.959 634.585 97.467C632.999 96.9477 631.756 96.3053 630.854 95.54L632.166 93.244C633.04 93.9 634.161 94.474 635.528 94.966C636.894 95.4307 638.329 95.663 639.833 95.663C641.883 95.663 643.359 95.3487 644.261 94.72C645.163 94.064 645.614 93.203 645.614 92.137C645.614 91.3443 645.354 90.7293 644.835 90.292C644.343 89.8273 643.687 89.4857 642.867 89.267C642.047 89.021 641.131 88.816 640.12 88.652C639.108 88.488 638.097 88.2967 637.086 88.078C636.102 87.8593 635.2 87.545 634.38 87.135C633.56 86.6977 632.89 86.11 632.371 85.372C631.879 84.634 631.633 83.65 631.633 82.42C631.633 81.2447 631.961 80.1923 632.617 79.263C633.273 78.3337 634.229 77.6093 635.487 77.09C636.771 76.5433 638.329 76.27 640.161 76.27C641.555 76.27 642.949 76.4613 644.343 76.844C645.737 77.1993 646.885 77.6777 647.787 78.279L646.516 80.616C645.559 79.96 644.534 79.4953 643.441 79.222C642.347 78.9213 641.254 78.771 640.161 78.771C638.22 78.771 636.785 79.1127 635.856 79.796C634.954 80.452 634.503 81.2993 634.503 82.338C634.503 83.158 634.749 83.8003 635.241 84.265C635.76 84.7297 636.43 85.0987 637.25 85.372C638.097 85.618 639.013 85.823 639.997 85.987C641.008 86.151 642.006 86.356 642.99 86.602C644.001 86.8207 644.917 87.135 645.737 87.545C646.584 87.9277 647.254 88.488 647.746 89.226C648.265 89.9367 648.525 90.8797 648.525 92.055C648.525 93.3123 648.169 94.4057 647.459 95.335C646.775 96.237 645.764 96.9477 644.425 97.467C643.113 97.959 641.514 98.205 639.628 98.205ZM667.355 98V93.244L667.232 92.465V84.511C667.232 82.6797 666.713 81.272 665.674 80.288C664.663 79.304 663.146 78.812 661.123 78.812C659.729 78.812 658.403 79.0443 657.146 79.509C655.889 79.9737 654.823 80.5887 653.948 81.354L652.636 79.181C653.729 78.2517 655.041 77.541 656.572 77.049C658.103 76.5297 659.715 76.27 661.41 76.27C664.198 76.27 666.344 76.967 667.847 78.361C669.378 79.7277 670.143 81.8187 670.143 84.634V98H667.355ZM659.934 98.205C658.321 98.205 656.914 97.9453 655.711 97.426C654.536 96.8793 653.634 96.1413 653.005 95.212C652.376 94.2553 652.062 93.162 652.062 91.932C652.062 90.8113 652.322 89.8 652.841 88.898C653.388 87.9687 654.262 87.2307 655.465 86.684C656.695 86.11 658.335 85.823 660.385 85.823H667.806V87.996H660.467C658.39 87.996 656.941 88.365 656.121 89.103C655.328 89.841 654.932 90.7567 654.932 91.85C654.932 93.08 655.41 94.064 656.367 94.802C657.324 95.54 658.663 95.909 660.385 95.909C662.025 95.909 663.433 95.54 664.608 94.802C665.811 94.0367 666.685 92.9433 667.232 91.522L667.888 93.531C667.341 94.9523 666.385 96.0867 665.018 96.934C663.679 97.7813 661.984 98.205 659.934 98.205ZM678.05 98V76.475H680.961V98H678.05ZM679.526 71.719C678.924 71.719 678.419 71.514 678.009 71.104C677.599 70.694 677.394 70.202 677.394 69.628C677.394 69.054 677.599 68.5757 678.009 68.193C678.419 67.783 678.924 67.578 679.526 67.578C680.127 67.578 680.633 67.7693 681.043 68.152C681.453 68.5347 681.658 69.013 681.658 69.587C681.658 70.1883 681.453 70.694 681.043 71.104C680.66 71.514 680.154 71.719 679.526 71.719ZM700.048 76.27C701.798 76.27 703.328 76.6117 704.64 77.295C705.98 77.951 707.018 78.9623 707.756 80.329C708.522 81.6957 708.904 83.4177 708.904 85.495V98H705.993V85.782C705.993 83.5133 705.419 81.805 704.271 80.657C703.151 79.4817 701.565 78.894 699.515 78.894C697.985 78.894 696.645 79.2083 695.497 79.837C694.377 80.4383 693.502 81.3267 692.873 82.502C692.272 83.65 691.971 85.044 691.971 86.684V98H689.06V76.475H691.848V82.379L691.397 81.272C692.081 79.714 693.174 78.4977 694.677 77.623C696.181 76.721 697.971 76.27 700.048 76.27ZM404.991 139.246C402.832 139.246 400.823 138.891 398.964 138.18C397.133 137.442 395.534 136.417 394.167 135.105C392.828 133.766 391.776 132.221 391.01 130.472C390.272 128.695 389.903 126.755 389.903 124.65C389.903 122.545 390.272 120.618 391.01 118.869C391.776 117.092 392.828 115.548 394.167 114.236C395.534 112.897 397.133 111.872 398.964 111.161C400.796 110.423 402.805 110.054 404.991 110.054C407.151 110.054 409.146 110.423 410.977 111.161C412.809 111.872 414.394 112.883 415.733 114.195C417.1 115.507 418.152 117.051 418.89 118.828C419.656 120.605 420.038 122.545 420.038 124.65C420.038 126.755 419.656 128.695 418.89 130.472C418.152 132.249 417.1 133.793 415.733 135.105C414.394 136.417 412.809 137.442 410.977 138.18C409.146 138.891 407.151 139.246 404.991 139.246ZM414.38 144.699C413.506 144.699 412.658 144.59 411.838 144.371C411.018 144.152 410.185 143.797 409.337 143.305C408.517 142.84 407.67 142.225 406.795 141.46C405.921 140.695 404.964 139.765 403.925 138.672L407.246 137.852C408.094 138.863 408.914 139.697 409.706 140.353C410.526 141.009 411.319 141.487 412.084 141.788C412.877 142.116 413.656 142.28 414.421 142.28C416.553 142.28 418.371 141.405 419.874 139.656L421.35 141.419C419.546 143.606 417.223 144.699 414.38 144.699ZM404.991 136.54C406.713 136.54 408.299 136.253 409.747 135.679C411.223 135.078 412.494 134.23 413.56 133.137C414.654 132.044 415.501 130.786 416.102 129.365C416.704 127.916 417.004 126.345 417.004 124.65C417.004 122.928 416.704 121.356 416.102 119.935C415.501 118.486 414.654 117.229 413.56 116.163C412.494 115.07 411.223 114.236 409.747 113.662C408.299 113.061 406.713 112.76 404.991 112.76C403.269 112.76 401.67 113.061 400.194 113.662C398.718 114.236 397.434 115.07 396.34 116.163C395.274 117.229 394.427 118.486 393.798 119.935C393.197 121.356 392.896 122.928 392.896 124.65C392.896 126.345 393.197 127.916 393.798 129.365C394.427 130.786 395.274 132.044 396.34 133.137C397.434 134.23 398.718 135.078 400.194 135.679C401.67 136.253 403.269 136.54 404.991 136.54ZM435.121 139.205C433.29 139.205 431.691 138.863 430.324 138.18C428.957 137.497 427.891 136.472 427.126 135.105C426.388 133.738 426.019 132.03 426.019 129.98V117.475H428.93V129.652C428.93 131.948 429.49 133.684 430.611 134.859C431.759 136.007 433.358 136.581 435.408 136.581C436.911 136.581 438.21 136.28 439.303 135.679C440.424 135.05 441.271 134.148 441.845 132.973C442.446 131.798 442.747 130.39 442.747 128.75V117.475H445.658V139H442.87V133.096L443.321 134.162C442.638 135.747 441.572 136.991 440.123 137.893C438.702 138.768 437.034 139.205 435.121 139.205ZM462.545 139.205C460.468 139.205 458.595 138.74 456.928 137.811C455.288 136.854 453.99 135.556 453.033 133.916C452.076 132.249 451.598 130.349 451.598 128.217C451.598 126.058 452.076 124.158 453.033 122.518C453.99 120.878 455.288 119.593 456.928 118.664C458.568 117.735 460.44 117.27 462.545 117.27C464.677 117.27 466.563 117.735 468.203 118.664C469.87 119.593 471.169 120.878 472.098 122.518C473.055 124.158 473.533 126.058 473.533 128.217C473.533 130.349 473.055 132.249 472.098 133.916C471.169 135.556 469.87 136.854 468.203 137.811C466.536 138.74 464.65 139.205 462.545 139.205ZM462.545 136.622C464.103 136.622 465.483 136.28 466.686 135.597C467.889 134.886 468.832 133.902 469.515 132.645C470.226 131.36 470.581 129.884 470.581 128.217C470.581 126.522 470.226 125.046 469.515 123.789C468.832 122.532 467.889 121.561 466.686 120.878C465.483 120.167 464.117 119.812 462.586 119.812C461.055 119.812 459.689 120.167 458.486 120.878C457.283 121.561 456.327 122.532 455.616 123.789C454.905 125.046 454.55 126.522 454.55 128.217C454.55 129.884 454.905 131.36 455.616 132.645C456.327 133.902 457.283 134.886 458.486 135.597C459.689 136.28 461.042 136.622 462.545 136.622ZM486.282 139.205C484.259 139.205 482.701 138.658 481.608 137.565C480.515 136.472 479.968 134.927 479.968 132.932V112.719H482.879V132.768C482.879 134.025 483.193 134.996 483.822 135.679C484.478 136.362 485.407 136.704 486.61 136.704C487.895 136.704 488.961 136.335 489.808 135.597L490.833 137.688C490.259 138.207 489.562 138.59 488.742 138.836C487.949 139.082 487.129 139.205 486.282 139.205ZM476.114 119.894V117.475H489.439V119.894H476.114ZM504.515 139.205C502.273 139.205 500.305 138.74 498.611 137.811C496.916 136.854 495.59 135.556 494.634 133.916C493.677 132.249 493.199 130.349 493.199 128.217C493.199 126.085 493.65 124.199 494.552 122.559C495.481 120.919 496.738 119.634 498.324 118.705C499.936 117.748 501.74 117.27 503.736 117.27C505.758 117.27 507.549 117.735 509.107 118.664C510.692 119.566 511.936 120.851 512.838 122.518C513.74 124.158 514.191 126.058 514.191 128.217C514.191 128.354 514.177 128.504 514.15 128.668C514.15 128.805 514.15 128.955 514.15 129.119H495.413V126.946H512.592L511.444 127.807C511.444 126.249 511.102 124.869 510.419 123.666C509.763 122.436 508.861 121.479 507.713 120.796C506.565 120.113 505.239 119.771 503.736 119.771C502.26 119.771 500.934 120.113 499.759 120.796C498.583 121.479 497.668 122.436 497.012 123.666C496.356 124.896 496.028 126.304 496.028 127.889V128.34C496.028 129.98 496.383 131.429 497.094 132.686C497.832 133.916 498.843 134.886 500.128 135.597C501.44 136.28 502.929 136.622 504.597 136.622C505.909 136.622 507.125 136.39 508.246 135.925C509.394 135.46 510.378 134.75 511.198 133.793L512.838 135.679C511.881 136.827 510.678 137.702 509.23 138.303C507.808 138.904 506.237 139.205 504.515 139.205ZM525.897 139.205C524.12 139.205 522.439 138.959 520.854 138.467C519.268 137.948 518.025 137.305 517.123 136.54L518.435 134.244C519.309 134.9 520.43 135.474 521.797 135.966C523.163 136.431 524.598 136.663 526.102 136.663C528.152 136.663 529.628 136.349 530.53 135.72C531.432 135.064 531.883 134.203 531.883 133.137C531.883 132.344 531.623 131.729 531.104 131.292C530.612 130.827 529.956 130.486 529.136 130.267C528.316 130.021 527.4 129.816 526.389 129.652C525.377 129.488 524.366 129.297 523.355 129.078C522.371 128.859 521.469 128.545 520.649 128.135C519.829 127.698 519.159 127.11 518.64 126.372C518.148 125.634 517.902 124.65 517.902 123.42C517.902 122.245 518.23 121.192 518.886 120.263C519.542 119.334 520.498 118.609 521.756 118.09C523.04 117.543 524.598 117.27 526.43 117.27C527.824 117.27 529.218 117.461 530.612 117.844C532.006 118.199 533.154 118.678 534.056 119.279L532.785 121.616C531.828 120.96 530.803 120.495 529.71 120.222C528.616 119.921 527.523 119.771 526.43 119.771C524.489 119.771 523.054 120.113 522.125 120.796C521.223 121.452 520.772 122.299 520.772 123.338C520.772 124.158 521.018 124.8 521.51 125.265C522.029 125.73 522.699 126.099 523.519 126.372C524.366 126.618 525.282 126.823 526.266 126.987C527.277 127.151 528.275 127.356 529.259 127.602C530.27 127.821 531.186 128.135 532.006 128.545C532.853 128.928 533.523 129.488 534.015 130.226C534.534 130.937 534.794 131.88 534.794 133.055C534.794 134.312 534.438 135.406 533.728 136.335C533.044 137.237 532.033 137.948 530.694 138.467C529.382 138.959 527.783 139.205 525.897 139.205ZM559.394 139.246C557.262 139.246 555.212 138.904 553.244 138.221C551.303 137.51 549.8 136.608 548.734 135.515L549.923 133.178C550.934 134.162 552.287 134.996 553.982 135.679C555.704 136.335 557.508 136.663 559.394 136.663C561.198 136.663 562.66 136.444 563.781 136.007C564.929 135.542 565.762 134.927 566.282 134.162C566.828 133.397 567.102 132.549 567.102 131.62C567.102 130.499 566.774 129.597 566.118 128.914C565.489 128.231 564.655 127.698 563.617 127.315C562.578 126.905 561.43 126.55 560.173 126.249C558.915 125.948 557.658 125.634 556.401 125.306C555.143 124.951 553.982 124.486 552.916 123.912C551.877 123.338 551.03 122.586 550.374 121.657C549.745 120.7 549.431 119.457 549.431 117.926C549.431 116.505 549.8 115.206 550.538 114.031C551.303 112.828 552.465 111.872 554.023 111.161C555.581 110.423 557.576 110.054 560.009 110.054C561.621 110.054 563.22 110.286 564.806 110.751C566.391 111.188 567.758 111.803 568.906 112.596L567.881 115.015C566.651 114.195 565.339 113.594 563.945 113.211C562.578 112.828 561.252 112.637 559.968 112.637C558.246 112.637 556.824 112.869 555.704 113.334C554.583 113.799 553.749 114.427 553.203 115.22C552.683 115.985 552.424 116.86 552.424 117.844C552.424 118.965 552.738 119.867 553.367 120.55C554.023 121.233 554.87 121.766 555.909 122.149C556.975 122.532 558.136 122.873 559.394 123.174C560.651 123.475 561.895 123.803 563.125 124.158C564.382 124.513 565.53 124.978 566.569 125.552C567.635 126.099 568.482 126.837 569.111 127.766C569.767 128.695 570.095 129.912 570.095 131.415C570.095 132.809 569.712 134.107 568.947 135.31C568.181 136.485 567.006 137.442 565.421 138.18C563.863 138.891 561.854 139.246 559.394 139.246ZM584.659 139.205C582.609 139.205 580.764 138.74 579.124 137.811C577.512 136.882 576.241 135.597 575.311 133.957C574.382 132.317 573.917 130.404 573.917 128.217C573.917 126.058 574.382 124.158 575.311 122.518C576.241 120.851 577.512 119.566 579.124 118.664C580.764 117.735 582.609 117.27 584.659 117.27C586.573 117.27 588.267 117.694 589.743 118.541C591.247 119.388 592.436 120.632 593.31 122.272C594.185 123.885 594.622 125.866 594.622 128.217C594.622 130.568 594.171 132.563 593.269 134.203C592.395 135.816 591.206 137.059 589.702 137.934C588.226 138.781 586.545 139.205 584.659 139.205ZM584.864 136.622C586.395 136.622 587.762 136.28 588.964 135.597C590.194 134.886 591.151 133.902 591.834 132.645C592.545 131.36 592.9 129.884 592.9 128.217C592.9 126.55 592.545 125.087 591.834 123.83C591.151 122.573 590.194 121.589 588.964 120.878C587.762 120.167 586.395 119.812 584.864 119.812C583.361 119.812 582.008 120.167 580.805 120.878C579.603 121.589 578.646 122.573 577.935 123.83C577.225 125.087 576.869 126.55 576.869 128.217C576.869 129.884 577.225 131.36 577.935 132.645C578.646 133.902 579.603 134.886 580.805 135.597C582.008 136.28 583.361 136.622 584.864 136.622ZM592.859 146.954V132.604L593.269 128.258L592.982 123.953V117.475H595.77V146.954H592.859ZM612.774 139.205C610.943 139.205 609.344 138.863 607.977 138.18C606.611 137.497 605.545 136.472 604.779 135.105C604.041 133.738 603.672 132.03 603.672 129.98V117.475H606.583V129.652C606.583 131.948 607.144 133.684 608.264 134.859C609.412 136.007 611.011 136.581 613.061 136.581C614.565 136.581 615.863 136.28 616.956 135.679C618.077 135.05 618.924 134.148 619.498 132.973C620.1 131.798 620.4 130.39 620.4 128.75V117.475H623.311V139H620.523V133.096L620.974 134.162C620.291 135.747 619.225 136.991 617.776 137.893C616.355 138.768 614.688 139.205 612.774 139.205ZM644.913 139V134.244L644.79 133.465V125.511C644.79 123.68 644.271 122.272 643.232 121.288C642.221 120.304 640.704 119.812 638.681 119.812C637.287 119.812 635.962 120.044 634.704 120.509C633.447 120.974 632.381 121.589 631.506 122.354L630.194 120.181C631.288 119.252 632.6 118.541 634.13 118.049C635.661 117.53 637.274 117.27 638.968 117.27C641.756 117.27 643.902 117.967 645.405 119.361C646.936 120.728 647.701 122.819 647.701 125.634V139H644.913ZM637.492 139.205C635.88 139.205 634.472 138.945 633.269 138.426C632.094 137.879 631.192 137.141 630.563 136.212C629.935 135.255 629.62 134.162 629.62 132.932C629.62 131.811 629.88 130.8 630.399 129.898C630.946 128.969 631.821 128.231 633.023 127.684C634.253 127.11 635.893 126.823 637.943 126.823H645.364V128.996H638.025C635.948 128.996 634.499 129.365 633.679 130.103C632.887 130.841 632.49 131.757 632.49 132.85C632.49 134.08 632.969 135.064 633.925 135.802C634.882 136.54 636.221 136.909 637.943 136.909C639.583 136.909 640.991 136.54 642.166 135.802C643.369 135.037 644.244 133.943 644.79 132.522L645.446 134.531C644.9 135.952 643.943 137.087 642.576 137.934C641.237 138.781 639.542 139.205 637.492 139.205ZM655.608 139V117.475H658.396V123.338L658.109 122.313C658.71 120.673 659.721 119.429 661.143 118.582C662.564 117.707 664.327 117.27 666.432 117.27V120.099C666.322 120.099 666.213 120.099 666.104 120.099C665.994 120.072 665.885 120.058 665.776 120.058C663.507 120.058 661.73 120.755 660.446 122.149C659.161 123.516 658.519 125.47 658.519 128.012V139H655.608ZM680.686 139.205C678.445 139.205 676.477 138.74 674.782 137.811C673.088 136.854 671.762 135.556 670.805 133.916C669.849 132.249 669.37 130.349 669.37 128.217C669.37 126.085 669.821 124.199 670.723 122.559C671.653 120.919 672.91 119.634 674.495 118.705C676.108 117.748 677.912 117.27 679.907 117.27C681.93 117.27 683.72 117.735 685.278 118.664C686.864 119.566 688.107 120.851 689.009 122.518C689.911 124.158 690.362 126.058 690.362 128.217C690.362 128.354 690.349 128.504 690.321 128.668C690.321 128.805 690.321 128.955 690.321 129.119H671.584V126.946H688.763L687.615 127.807C687.615 126.249 687.274 124.869 686.59 123.666C685.934 122.436 685.032 121.479 683.884 120.796C682.736 120.113 681.411 119.771 679.907 119.771C678.431 119.771 677.106 120.113 675.93 120.796C674.755 121.479 673.839 122.436 673.183 123.666C672.527 124.896 672.199 126.304 672.199 127.889V128.34C672.199 129.98 672.555 131.429 673.265 132.686C674.003 133.916 675.015 134.886 676.299 135.597C677.611 136.28 679.101 136.622 680.768 136.622C682.08 136.622 683.297 136.39 684.417 135.925C685.565 135.46 686.549 134.75 687.369 133.793L689.009 135.679C688.053 136.827 686.85 137.702 685.401 138.303C683.98 138.904 682.408 139.205 680.686 139.205Z" fill="white"/>
</svg>
