<svg width="1080" height="272" viewBox="0 0 1080 272" fill="none" xmlns="http://www.w3.org/2000/svg">
<path d="M0 100C0 44.7715 44.7715 0 100 0H980C1035.23 0 1080 44.7715 1080 100V272H0V100Z" fill="#753B08"/>
<path d="M218.827 183.871H241.631V192.694H218.827V183.871ZM219.641 210H208.647V162.493H244.549V171.315H219.641V210ZM250.583 210V173.487H260.695V183.803L259.27 180.817C260.356 178.238 262.098 176.292 264.496 174.98C266.894 173.623 269.812 172.944 273.251 172.944V182.717C272.798 182.672 272.391 182.649 272.029 182.649C271.667 182.604 271.282 182.581 270.875 182.581C267.98 182.581 265.627 183.418 263.817 185.093C262.052 186.721 261.17 189.278 261.17 192.762V210H250.583ZM299.556 210V202.874L298.878 201.313V188.554C298.878 186.292 298.176 184.527 296.774 183.26C295.416 181.993 293.312 181.36 290.462 181.36C288.516 181.36 286.594 181.677 284.693 182.31C282.838 182.898 281.255 183.713 279.943 184.753L276.142 177.356C278.133 175.953 280.531 174.867 283.336 174.098C286.141 173.329 288.992 172.944 291.887 172.944C297.452 172.944 301.773 174.256 304.85 176.881C307.927 179.505 309.465 183.599 309.465 189.165V210H299.556ZM288.426 210.543C285.576 210.543 283.132 210.068 281.096 209.118C279.06 208.122 277.499 206.788 276.413 205.114C275.328 203.439 274.785 201.562 274.785 199.48C274.785 197.309 275.305 195.408 276.346 193.78C277.431 192.151 279.128 190.884 281.436 189.979C283.743 189.029 286.752 188.554 290.462 188.554H300.167V194.73H291.616C289.127 194.73 287.408 195.137 286.458 195.951C285.553 196.766 285.1 197.784 285.1 199.005C285.1 200.363 285.621 201.449 286.661 202.263C287.747 203.032 289.218 203.417 291.073 203.417C292.837 203.417 294.421 203.01 295.824 202.195C297.226 201.336 298.244 200.091 298.878 198.462L300.506 203.349C299.737 205.702 298.335 207.489 296.299 208.711C294.263 209.932 291.638 210.543 288.426 210.543ZM365.808 172.944C368.704 172.944 371.26 173.532 373.477 174.709C375.739 175.84 377.504 177.604 378.771 180.002C380.083 182.355 380.739 185.387 380.739 189.097V210H370.152V190.726C370.152 187.785 369.541 185.613 368.319 184.21C367.098 182.808 365.378 182.106 363.161 182.106C361.623 182.106 360.243 182.468 359.021 183.192C357.8 183.871 356.849 184.912 356.171 186.314C355.492 187.717 355.153 189.504 355.153 191.676V210H344.565V190.726C344.565 187.785 343.955 185.613 342.733 184.21C341.557 182.808 339.86 182.106 337.643 182.106C336.105 182.106 334.725 182.468 333.503 183.192C332.281 183.871 331.331 184.912 330.652 186.314C329.974 187.717 329.634 189.504 329.634 191.676V210H319.047V173.487H329.159V183.464L327.259 180.545C328.526 178.057 330.313 176.179 332.621 174.912C334.973 173.6 337.643 172.944 340.629 172.944C343.977 172.944 346.896 173.804 349.384 175.523C351.918 177.197 353.592 179.776 354.406 183.26L350.673 182.242C351.895 179.392 353.841 177.129 356.51 175.455C359.225 173.781 362.324 172.944 365.808 172.944ZM408.615 210.543C404.452 210.543 400.787 209.729 397.62 208.1C394.498 206.471 392.077 204.254 390.358 201.449C388.639 198.598 387.779 195.363 387.779 191.744C387.779 188.079 388.616 184.844 390.29 182.038C392.01 179.188 394.34 176.971 397.281 175.387C400.222 173.759 403.547 172.944 407.257 172.944C410.832 172.944 414.044 173.713 416.894 175.252C419.79 176.745 422.075 178.917 423.749 181.767C425.423 184.572 426.26 187.943 426.26 191.879C426.26 192.287 426.238 192.762 426.192 193.305C426.147 193.802 426.102 194.277 426.057 194.73H396.398V188.554H420.491L416.419 190.386C416.419 188.486 416.035 186.834 415.266 185.432C414.496 184.029 413.433 182.943 412.076 182.174C410.718 181.36 409.135 180.953 407.325 180.953C405.515 180.953 403.909 181.36 402.506 182.174C401.149 182.943 400.086 184.052 399.317 185.5C398.547 186.902 398.163 188.576 398.163 190.522V192.151C398.163 194.142 398.593 195.906 399.452 197.444C400.357 198.938 401.602 200.091 403.185 200.906C404.814 201.675 406.714 202.059 408.886 202.059C410.832 202.059 412.528 201.765 413.976 201.177C415.469 200.589 416.827 199.707 418.048 198.53L423.681 204.638C422.007 206.539 419.903 208.009 417.369 209.05C414.836 210.045 411.917 210.543 408.615 210.543ZM448.986 210.543C445.548 210.543 442.448 209.774 439.688 208.235C436.929 206.652 434.734 204.457 433.105 201.652C431.522 198.847 430.73 195.544 430.73 191.744C430.73 187.898 431.522 184.572 433.105 181.767C434.734 178.962 436.929 176.79 439.688 175.252C442.448 173.713 445.548 172.944 448.986 172.944C452.063 172.944 454.755 173.623 457.063 174.98C459.37 176.338 461.157 178.396 462.424 181.156C463.691 183.916 464.324 187.445 464.324 191.744C464.324 195.997 463.714 199.526 462.492 202.331C461.27 205.091 459.506 207.15 457.198 208.507C454.936 209.864 452.199 210.543 448.986 210.543ZM450.819 201.856C452.538 201.856 454.099 201.449 455.502 200.634C456.904 199.82 458.013 198.666 458.827 197.173C459.687 195.635 460.117 193.825 460.117 191.744C460.117 189.617 459.687 187.807 458.827 186.314C458.013 184.821 456.904 183.667 455.502 182.853C454.099 182.038 452.538 181.631 450.819 181.631C449.054 181.631 447.471 182.038 446.068 182.853C444.665 183.667 443.534 184.821 442.675 186.314C441.86 187.807 441.453 189.617 441.453 191.744C441.453 193.825 441.86 195.635 442.675 197.173C443.534 198.666 444.665 199.82 446.068 200.634C447.471 201.449 449.054 201.856 450.819 201.856ZM460.388 210V202.535L460.592 191.676L459.913 180.885V159.642H470.5V210H460.388ZM500.266 210V162.493H523.477C529.449 162.493 533.929 163.624 536.915 165.886C539.946 168.148 541.462 171.134 541.462 174.844C541.462 177.333 540.851 179.505 539.63 181.36C538.408 183.17 536.734 184.572 534.607 185.568C532.481 186.563 530.038 187.061 527.278 187.061L528.567 184.278C531.553 184.278 534.2 184.776 536.508 185.771C538.815 186.721 540.602 188.147 541.869 190.047C543.181 191.947 543.837 194.277 543.837 197.037C543.837 201.109 542.231 204.299 539.019 206.607C535.806 208.869 531.078 210 524.834 210H500.266ZM511.193 201.72H524.02C526.871 201.72 529.02 201.268 530.468 200.363C531.961 199.413 532.707 197.92 532.707 195.883C532.707 193.893 531.961 192.422 530.468 191.472C529.02 190.477 526.871 189.979 524.02 189.979H510.379V181.971H522.12C524.789 181.971 526.825 181.518 528.228 180.613C529.676 179.663 530.4 178.238 530.4 176.338C530.4 174.483 529.676 173.103 528.228 172.198C526.825 171.247 524.789 170.772 522.12 170.772H511.193V201.72ZM568.789 210.543C564.898 210.543 561.437 209.729 558.405 208.1C555.419 206.471 553.044 204.254 551.279 201.449C549.56 198.598 548.7 195.363 548.7 191.744C548.7 188.079 549.56 184.844 551.279 182.038C553.044 179.188 555.419 176.971 558.405 175.387C561.437 173.759 564.898 172.944 568.789 172.944C572.635 172.944 576.073 173.759 579.105 175.387C582.136 176.971 584.512 179.165 586.231 181.971C587.95 184.776 588.81 188.033 588.81 191.744C588.81 195.363 587.95 198.598 586.231 201.449C584.512 204.254 582.136 206.471 579.105 208.1C576.073 209.729 572.635 210.543 568.789 210.543ZM568.789 201.856C570.554 201.856 572.137 201.449 573.54 200.634C574.942 199.82 576.051 198.666 576.865 197.173C577.68 195.635 578.087 193.825 578.087 191.744C578.087 189.617 577.68 187.807 576.865 186.314C576.051 184.821 574.942 183.667 573.54 182.853C572.137 182.038 570.554 181.631 568.789 181.631C567.024 181.631 565.441 182.038 564.038 182.853C562.636 183.667 561.504 184.821 560.645 186.314C559.83 187.807 559.423 189.617 559.423 191.744C559.423 193.825 559.83 195.635 560.645 197.173C561.504 198.666 562.636 199.82 564.038 200.634C565.441 201.449 567.024 201.856 568.789 201.856ZM595.887 210V159.642H606.474V210H595.887ZM631.978 210.543C628.539 210.543 625.44 209.774 622.68 208.235C619.92 206.652 617.725 204.457 616.097 201.652C614.513 198.847 613.721 195.544 613.721 191.744C613.721 187.898 614.513 184.572 616.097 181.767C617.725 178.962 619.92 176.79 622.68 175.252C625.44 173.713 628.539 172.944 631.978 172.944C635.054 172.944 637.746 173.623 640.054 174.98C642.361 176.338 644.149 178.396 645.415 181.156C646.682 183.916 647.316 187.445 647.316 191.744C647.316 195.997 646.705 199.526 645.483 202.331C644.262 205.091 642.497 207.15 640.19 208.507C637.927 209.864 635.19 210.543 631.978 210.543ZM633.81 201.856C635.529 201.856 637.09 201.449 638.493 200.634C639.895 199.82 641.004 198.666 641.818 197.173C642.678 195.635 643.108 193.825 643.108 191.744C643.108 189.617 642.678 187.807 641.818 186.314C641.004 184.821 639.895 183.667 638.493 182.853C637.09 182.038 635.529 181.631 633.81 181.631C632.045 181.631 630.462 182.038 629.059 182.853C627.657 183.667 626.526 184.821 625.666 186.314C624.851 187.807 624.444 189.617 624.444 191.744C624.444 193.825 624.851 195.635 625.666 197.173C626.526 198.666 627.657 199.82 629.059 200.634C630.462 201.449 632.045 201.856 633.81 201.856ZM643.379 210V202.535L643.583 191.676L642.904 180.885V159.642H653.492V210H643.379ZM693.438 183.871H716.241V192.694H693.438V183.871ZM694.252 210H683.258V162.493H719.16V171.315H694.252V210ZM742.303 210.543C738.411 210.543 734.95 209.729 731.919 208.1C728.933 206.471 726.557 204.254 724.793 201.449C723.073 198.598 722.214 195.363 722.214 191.744C722.214 188.079 723.073 184.844 724.793 182.038C726.557 179.188 728.933 176.971 731.919 175.387C734.95 173.759 738.411 172.944 742.303 172.944C746.148 172.944 749.587 173.759 752.618 175.387C755.65 176.971 758.025 179.165 759.745 181.971C761.464 184.776 762.324 188.033 762.324 191.744C762.324 195.363 761.464 198.598 759.745 201.449C758.025 204.254 755.65 206.471 752.618 208.1C749.587 209.729 746.148 210.543 742.303 210.543ZM742.303 201.856C744.067 201.856 745.651 201.449 747.053 200.634C748.456 199.82 749.564 198.666 750.379 197.173C751.193 195.635 751.6 193.825 751.6 191.744C751.6 189.617 751.193 187.807 750.379 186.314C749.564 184.821 748.456 183.667 747.053 182.853C745.651 182.038 744.067 181.631 742.303 181.631C740.538 181.631 738.954 182.038 737.552 182.853C736.149 183.667 735.018 184.821 734.158 186.314C733.344 187.807 732.937 189.617 732.937 191.744C732.937 193.825 733.344 195.635 734.158 197.173C735.018 198.666 736.149 199.82 737.552 200.634C738.954 201.449 740.538 201.856 742.303 201.856ZM791.593 172.944C794.489 172.944 797.068 173.532 799.33 174.709C801.638 175.84 803.447 177.604 804.76 180.002C806.072 182.355 806.728 185.387 806.728 189.097V210H796.14V190.726C796.14 187.785 795.484 185.613 794.172 184.21C792.905 182.808 791.095 182.106 788.743 182.106C787.069 182.106 785.553 182.468 784.196 183.192C782.883 183.871 781.843 184.934 781.074 186.382C780.35 187.83 779.988 189.685 779.988 191.947V210H769.4V173.487H779.513V183.599L777.612 180.545C778.925 178.102 780.802 176.224 783.245 174.912C785.689 173.6 788.471 172.944 791.593 172.944ZM831.256 210.543C826.957 210.543 823.609 209.457 821.211 207.285C818.813 205.068 817.614 201.788 817.614 197.444V165.411H828.201V197.309C828.201 198.847 828.609 200.046 829.423 200.906C830.237 201.72 831.346 202.127 832.749 202.127C834.423 202.127 835.848 201.675 837.024 200.77L839.875 208.235C838.789 209.005 837.477 209.593 835.938 210C834.445 210.362 832.884 210.543 831.256 210.543ZM811.981 182.446V174.302H837.296V182.446H811.981ZM858.102 210.543C854.98 210.543 851.971 210.181 849.076 209.457C846.225 208.688 843.963 207.738 842.289 206.607L845.818 199.005C847.492 200.046 849.46 200.906 851.722 201.584C854.03 202.218 856.292 202.535 858.509 202.535C860.952 202.535 862.672 202.24 863.667 201.652C864.708 201.064 865.228 200.25 865.228 199.209C865.228 198.349 864.821 197.716 864.006 197.309C863.237 196.856 862.197 196.517 860.885 196.291C859.572 196.064 858.125 195.838 856.541 195.612C855.003 195.386 853.442 195.092 851.858 194.73C850.275 194.323 848.827 193.734 847.515 192.965C846.202 192.196 845.139 191.155 844.325 189.843C843.556 188.531 843.171 186.834 843.171 184.753C843.171 182.446 843.827 180.41 845.139 178.645C846.497 176.881 848.442 175.501 850.976 174.505C853.51 173.464 856.541 172.944 860.07 172.944C862.559 172.944 865.092 173.216 867.671 173.759C870.25 174.302 872.399 175.093 874.119 176.134L870.59 183.667C868.825 182.627 867.038 181.925 865.228 181.563C863.464 181.156 861.744 180.953 860.07 180.953C857.717 180.953 855.998 181.269 854.912 181.903C853.826 182.536 853.283 183.351 853.283 184.346C853.283 185.251 853.668 185.93 854.437 186.382C855.252 186.834 856.315 187.196 857.627 187.468C858.939 187.739 860.364 187.988 861.903 188.214C863.486 188.395 865.07 188.69 866.653 189.097C868.237 189.504 869.662 190.092 870.929 190.861C872.241 191.585 873.304 192.603 874.119 193.915C874.933 195.182 875.34 196.856 875.34 198.938C875.34 201.2 874.662 203.213 873.304 204.978C871.947 206.697 869.979 208.054 867.4 209.05C864.866 210.045 861.767 210.543 858.102 210.543Z" fill="white"/>
<path d="M240.047 98V71.924H229.961V69.3H253.167V71.924H243.081V98H240.047ZM264.3 98.205C262.059 98.205 260.091 97.7403 258.396 96.811C256.701 95.8543 255.376 94.556 254.419 92.916C253.462 91.2487 252.984 89.349 252.984 87.217C252.984 85.085 253.435 83.199 254.337 81.559C255.266 79.919 256.524 78.6343 258.109 77.705C259.722 76.7483 261.526 76.27 263.521 76.27C265.544 76.27 267.334 76.7347 268.892 77.664C270.477 78.566 271.721 79.8507 272.623 81.518C273.525 83.158 273.976 85.0577 273.976 87.217C273.976 87.3537 273.962 87.504 273.935 87.668C273.935 87.8047 273.935 87.955 273.935 88.119H255.198V85.946H272.377L271.229 86.807C271.229 85.249 270.887 83.8687 270.204 82.666C269.548 81.436 268.646 80.4793 267.498 79.796C266.35 79.1127 265.024 78.771 263.521 78.771C262.045 78.771 260.719 79.1127 259.544 79.796C258.369 80.4793 257.453 81.436 256.797 82.666C256.141 83.896 255.813 85.3037 255.813 86.889V87.34C255.813 88.98 256.168 90.4287 256.879 91.686C257.617 92.916 258.628 93.8863 259.913 94.597C261.225 95.2803 262.715 95.622 264.382 95.622C265.694 95.622 266.91 95.3897 268.031 94.925C269.179 94.4603 270.163 93.7497 270.983 92.793L272.623 94.679C271.666 95.827 270.464 96.7017 269.015 97.303C267.594 97.9043 266.022 98.205 264.3 98.205ZM306.797 76.27C308.547 76.27 310.064 76.6117 311.348 77.295C312.66 77.951 313.672 78.9623 314.382 80.329C315.12 81.6957 315.489 83.4177 315.489 85.495V98H312.578V85.782C312.578 83.5133 312.032 81.805 310.938 80.657C309.872 79.4817 308.355 78.894 306.387 78.894C304.911 78.894 303.627 79.2083 302.533 79.837C301.467 80.4383 300.634 81.3267 300.032 82.502C299.458 83.65 299.171 85.044 299.171 86.684V98H296.26V85.782C296.26 83.5133 295.714 81.805 294.62 80.657C293.527 79.4817 291.996 78.894 290.028 78.894C288.58 78.894 287.309 79.2083 286.215 79.837C285.122 80.4383 284.275 81.3267 283.673 82.502C283.099 83.65 282.812 85.044 282.812 86.684V98H279.901V76.475H282.689V82.297L282.238 81.272C282.894 79.714 283.947 78.4977 285.395 77.623C286.871 76.721 288.607 76.27 290.602 76.27C292.707 76.27 294.497 76.803 295.973 77.869C297.449 78.9077 298.406 80.4793 298.843 82.584L297.695 82.133C298.324 80.3837 299.431 78.976 301.016 77.91C302.629 76.8167 304.556 76.27 306.797 76.27ZM334.495 98.205C332.636 98.205 330.955 97.7813 329.452 96.934C327.948 96.0593 326.746 94.8157 325.844 93.203C324.969 91.563 324.532 89.5677 324.532 87.217C324.532 84.8663 324.969 82.8847 325.844 81.272C326.718 79.632 327.907 78.3883 329.411 77.541C330.914 76.6937 332.609 76.27 334.495 76.27C336.545 76.27 338.376 76.7347 339.989 77.664C341.629 78.566 342.913 79.8507 343.843 81.518C344.772 83.158 345.237 85.0577 345.237 87.217C345.237 89.4037 344.772 91.317 343.843 92.957C342.913 94.597 341.629 95.8817 339.989 96.811C338.376 97.7403 336.545 98.205 334.495 98.205ZM323.384 105.954V76.475H326.172V82.953L325.885 87.258L326.295 91.604V105.954H323.384ZM334.29 95.622C335.82 95.622 337.187 95.2803 338.39 94.597C339.592 93.8863 340.549 92.9023 341.26 91.645C341.97 90.3603 342.326 88.8843 342.326 87.217C342.326 85.5497 341.97 84.0873 341.26 82.83C340.549 81.5727 339.592 80.5887 338.39 79.878C337.187 79.1673 335.82 78.812 334.29 78.812C332.759 78.812 331.379 79.1673 330.149 79.878C328.946 80.5887 327.989 81.5727 327.279 82.83C326.595 84.0873 326.254 85.5497 326.254 87.217C326.254 88.8843 326.595 90.3603 327.279 91.645C327.989 92.9023 328.946 93.8863 330.149 94.597C331.379 95.2803 332.759 95.622 334.29 95.622ZM351.171 98V67.578H354.082V98H351.171ZM375.671 98V93.244L375.548 92.465V84.511C375.548 82.6797 375.028 81.272 373.99 80.288C372.978 79.304 371.461 78.812 369.439 78.812C368.045 78.812 366.719 79.0443 365.462 79.509C364.204 79.9737 363.138 80.5887 362.264 81.354L360.952 79.181C362.045 78.2517 363.357 77.541 364.888 77.049C366.418 76.5297 368.031 76.27 369.726 76.27C372.514 76.27 374.659 76.967 376.163 78.361C377.693 79.7277 378.459 81.8187 378.459 84.634V98H375.671ZM368.25 98.205C366.637 98.205 365.229 97.9453 364.027 97.426C362.851 96.8793 361.949 96.1413 361.321 95.212C360.692 94.2553 360.378 93.162 360.378 91.932C360.378 90.8113 360.637 89.8 361.157 88.898C361.703 87.9687 362.578 87.2307 363.781 86.684C365.011 86.11 366.651 85.823 368.701 85.823H376.122V87.996H368.783C366.705 87.996 365.257 88.365 364.437 89.103C363.644 89.841 363.248 90.7567 363.248 91.85C363.248 93.08 363.726 94.064 364.683 94.802C365.639 95.54 366.979 95.909 368.701 95.909C370.341 95.909 371.748 95.54 372.924 94.802C374.126 94.0367 375.001 92.9433 375.548 91.522L376.204 93.531C375.657 94.9523 374.7 96.0867 373.334 96.934C371.994 97.7813 370.3 98.205 368.25 98.205ZM393.171 98.205C391.148 98.205 389.59 97.6583 388.497 96.565C387.404 95.4717 386.857 93.9273 386.857 91.932V71.719H389.768V91.768C389.768 93.0253 390.082 93.9957 390.711 94.679C391.367 95.3623 392.296 95.704 393.499 95.704C394.784 95.704 395.85 95.335 396.697 94.597L397.722 96.688C397.148 97.2073 396.451 97.59 395.631 97.836C394.838 98.082 394.018 98.205 393.171 98.205ZM383.003 78.894V76.475H396.328V78.894H383.003ZM411.404 98.205C409.162 98.205 407.194 97.7403 405.5 96.811C403.805 95.8543 402.479 94.556 401.523 92.916C400.566 91.2487 400.088 89.349 400.088 87.217C400.088 85.085 400.539 83.199 401.441 81.559C402.37 79.919 403.627 78.6343 405.213 77.705C406.825 76.7483 408.629 76.27 410.625 76.27C412.647 76.27 414.438 76.7347 415.996 77.664C417.581 78.566 418.825 79.8507 419.727 81.518C420.629 83.158 421.08 85.0577 421.08 87.217C421.08 87.3537 421.066 87.504 421.039 87.668C421.039 87.8047 421.039 87.955 421.039 88.119H402.302V85.946H419.481L418.333 86.807C418.333 85.249 417.991 83.8687 417.308 82.666C416.652 81.436 415.75 80.4793 414.602 79.796C413.454 79.1127 412.128 78.771 410.625 78.771C409.149 78.771 407.823 79.1127 406.648 79.796C405.472 80.4793 404.557 81.436 403.901 82.666C403.245 83.896 402.917 85.3037 402.917 86.889V87.34C402.917 88.98 403.272 90.4287 403.983 91.686C404.721 92.916 405.732 93.8863 407.017 94.597C408.329 95.2803 409.818 95.622 411.486 95.622C412.798 95.622 414.014 95.3897 415.135 94.925C416.283 94.4603 417.267 93.7497 418.087 92.793L419.727 94.679C418.77 95.827 417.567 96.7017 416.119 97.303C414.697 97.9043 413.126 98.205 411.404 98.205ZM438.35 98V69.3H441.384V98H438.35ZM461.095 76.27C462.845 76.27 464.375 76.6117 465.687 77.295C467.027 77.951 468.065 78.9623 468.803 80.329C469.569 81.6957 469.951 83.4177 469.951 85.495V98H467.04V85.782C467.04 83.5133 466.466 81.805 465.318 80.657C464.198 79.4817 462.612 78.894 460.562 78.894C459.032 78.894 457.692 79.2083 456.544 79.837C455.424 80.4383 454.549 81.3267 453.92 82.502C453.319 83.65 453.018 85.044 453.018 86.684V98H450.107V76.475H452.895V82.379L452.444 81.272C453.128 79.714 454.221 78.4977 455.724 77.623C457.228 76.721 459.018 76.27 461.095 76.27ZM483.595 98.205C481.819 98.205 480.138 97.959 478.552 97.467C476.967 96.9477 475.723 96.3053 474.821 95.54L476.133 93.244C477.008 93.9 478.129 94.474 479.495 94.966C480.862 95.4307 482.297 95.663 483.8 95.663C485.85 95.663 487.326 95.3487 488.228 94.72C489.13 94.064 489.581 93.203 489.581 92.137C489.581 91.3443 489.322 90.7293 488.802 90.292C488.31 89.8273 487.654 89.4857 486.834 89.267C486.014 89.021 485.099 88.816 484.087 88.652C483.076 88.488 482.065 88.2967 481.053 88.078C480.069 87.8593 479.167 87.545 478.347 87.135C477.527 86.6977 476.858 86.11 476.338 85.372C475.846 84.634 475.6 83.65 475.6 82.42C475.6 81.2447 475.928 80.1923 476.584 79.263C477.24 78.3337 478.197 77.6093 479.454 77.09C480.739 76.5433 482.297 76.27 484.128 76.27C485.522 76.27 486.916 76.4613 488.31 76.844C489.704 77.1993 490.852 77.6777 491.754 78.279L490.483 80.616C489.527 79.96 488.502 79.4953 487.408 79.222C486.315 78.9213 485.222 78.771 484.128 78.771C482.188 78.771 480.753 79.1127 479.823 79.796C478.921 80.452 478.47 81.2993 478.47 82.338C478.47 83.158 478.716 83.8003 479.208 84.265C479.728 84.7297 480.397 85.0987 481.217 85.372C482.065 85.618 482.98 85.823 483.964 85.987C484.976 86.151 485.973 86.356 486.957 86.602C487.969 86.8207 488.884 87.135 489.704 87.545C490.552 87.9277 491.221 88.488 491.713 89.226C492.233 89.9367 492.492 90.8797 492.492 92.055C492.492 93.3123 492.137 94.4057 491.426 95.335C490.743 96.237 489.732 96.9477 488.392 97.467C487.08 97.959 485.481 98.205 483.595 98.205ZM504.64 98.205C502.617 98.205 501.059 97.6583 499.966 96.565C498.873 95.4717 498.326 93.9273 498.326 91.932V71.719H501.237V91.768C501.237 93.0253 501.551 93.9957 502.18 94.679C502.836 95.3623 503.765 95.704 504.968 95.704C506.253 95.704 507.319 95.335 508.166 94.597L509.191 96.688C508.617 97.2073 507.92 97.59 507.1 97.836C506.307 98.082 505.487 98.205 504.64 98.205ZM494.472 78.894V76.475H507.797V78.894H494.472ZM527.979 98V93.244L527.856 92.465V84.511C527.856 82.6797 527.337 81.272 526.298 80.288C525.287 79.304 523.77 78.812 521.747 78.812C520.353 78.812 519.027 79.0443 517.77 79.509C516.513 79.9737 515.447 80.5887 514.572 81.354L513.26 79.181C514.353 78.2517 515.665 77.541 517.196 77.049C518.727 76.5297 520.339 76.27 522.034 76.27C524.822 76.27 526.968 76.967 528.471 78.361C530.002 79.7277 530.767 81.8187 530.767 84.634V98H527.979ZM520.558 98.205C518.945 98.205 517.538 97.9453 516.335 97.426C515.16 96.8793 514.258 96.1413 513.629 95.212C513 94.2553 512.686 93.162 512.686 91.932C512.686 90.8113 512.946 89.8 513.465 88.898C514.012 87.9687 514.886 87.2307 516.089 86.684C517.319 86.11 518.959 85.823 521.009 85.823H528.43V87.996H521.091C519.014 87.996 517.565 88.365 516.745 89.103C515.952 89.841 515.556 90.7567 515.556 91.85C515.556 93.08 516.034 94.064 516.991 94.802C517.948 95.54 519.287 95.909 521.009 95.909C522.649 95.909 524.057 95.54 525.232 94.802C526.435 94.0367 527.309 92.9433 527.856 91.522L528.512 93.531C527.965 94.9523 527.009 96.0867 525.642 96.934C524.303 97.7813 522.608 98.205 520.558 98.205ZM547.858 106.159C545.89 106.159 544.004 105.872 542.2 105.298C540.396 104.724 538.933 103.904 537.813 102.838L539.289 100.624C540.3 101.526 541.544 102.237 543.02 102.756C544.523 103.303 546.108 103.576 547.776 103.576C550.509 103.576 552.518 102.934 553.803 101.649C555.087 100.392 555.73 98.4237 555.73 95.745V90.374L556.14 86.684L555.853 82.994V76.475H558.641V95.376C558.641 99.0933 557.725 101.813 555.894 103.535C554.09 105.284 551.411 106.159 547.858 106.159ZM547.325 97.18C545.275 97.18 543.43 96.7427 541.79 95.868C540.15 94.966 538.851 93.7223 537.895 92.137C536.965 90.5517 536.501 88.734 536.501 86.684C536.501 84.634 536.965 82.83 537.895 81.272C538.851 79.6867 540.15 78.4567 541.79 77.582C543.43 76.7073 545.275 76.27 547.325 76.27C549.238 76.27 550.96 76.6663 552.491 77.459C554.021 78.2517 555.238 79.427 556.14 80.985C557.042 82.543 557.493 84.4427 557.493 86.684C557.493 88.9253 557.042 90.825 556.14 92.383C555.238 93.941 554.021 95.13 552.491 95.95C550.96 96.77 549.238 97.18 547.325 97.18ZM547.612 94.597C549.197 94.597 550.605 94.269 551.835 93.613C553.065 92.9297 554.035 92.0003 554.746 90.825C555.456 89.6223 555.812 88.242 555.812 86.684C555.812 85.126 555.456 83.7593 554.746 82.584C554.035 81.4087 553.065 80.493 551.835 79.837C550.605 79.1537 549.197 78.812 547.612 78.812C546.054 78.812 544.646 79.1537 543.389 79.837C542.159 80.493 541.188 81.4087 540.478 82.584C539.794 83.7593 539.453 85.126 539.453 86.684C539.453 88.242 539.794 89.6223 540.478 90.825C541.188 92.0003 542.159 92.9297 543.389 93.613C544.646 94.269 546.054 94.597 547.612 94.597ZM566.741 98V76.475H569.529V82.338L569.242 81.313C569.843 79.673 570.855 78.4293 572.276 77.582C573.697 76.7073 575.46 76.27 577.565 76.27V79.099C577.456 79.099 577.346 79.099 577.237 79.099C577.128 79.0717 577.018 79.058 576.909 79.058C574.64 79.058 572.864 79.755 571.579 81.149C570.294 82.5157 569.652 84.47 569.652 87.012V98H566.741ZM594.764 98V93.244L594.641 92.465V84.511C594.641 82.6797 594.122 81.272 593.083 80.288C592.072 79.304 590.555 78.812 588.532 78.812C587.138 78.812 585.813 79.0443 584.555 79.509C583.298 79.9737 582.232 80.5887 581.357 81.354L580.045 79.181C581.139 78.2517 582.451 77.541 583.981 77.049C585.512 76.5297 587.125 76.27 588.819 76.27C591.607 76.27 593.753 76.967 595.256 78.361C596.787 79.7277 597.552 81.8187 597.552 84.634V98H594.764ZM587.343 98.205C585.731 98.205 584.323 97.9453 583.12 97.426C581.945 96.8793 581.043 96.1413 580.414 95.212C579.786 94.2553 579.471 93.162 579.471 91.932C579.471 90.8113 579.731 89.8 580.25 88.898C580.797 87.9687 581.672 87.2307 582.874 86.684C584.104 86.11 585.744 85.823 587.794 85.823H595.215V87.996H587.876C585.799 87.996 584.35 88.365 583.53 89.103C582.738 89.841 582.341 90.7567 582.341 91.85C582.341 93.08 582.82 94.064 583.776 94.802C584.733 95.54 586.072 95.909 587.794 95.909C589.434 95.909 590.842 95.54 592.017 94.802C593.22 94.0367 594.095 92.9433 594.641 91.522L595.297 93.531C594.751 94.9523 593.794 96.0867 592.427 96.934C591.088 97.7813 589.393 98.205 587.343 98.205ZM632.355 76.27C634.104 76.27 635.621 76.6117 636.906 77.295C638.218 77.951 639.229 78.9623 639.94 80.329C640.678 81.6957 641.047 83.4177 641.047 85.495V98H638.136V85.782C638.136 83.5133 637.589 81.805 636.496 80.657C635.43 79.4817 633.913 78.894 631.945 78.894C630.469 78.894 629.184 79.2083 628.091 79.837C627.025 80.4383 626.191 81.3267 625.59 82.502C625.016 83.65 624.729 85.044 624.729 86.684V98H621.818V85.782C621.818 83.5133 621.271 81.805 620.178 80.657C619.085 79.4817 617.554 78.894 615.586 78.894C614.137 78.894 612.866 79.2083 611.773 79.837C610.68 80.4383 609.832 81.3267 609.231 82.502C608.657 83.65 608.37 85.044 608.37 86.684V98H605.459V76.475H608.247V82.297L607.796 81.272C608.452 79.714 609.504 78.4977 610.953 77.623C612.429 76.721 614.165 76.27 616.16 76.27C618.265 76.27 620.055 76.803 621.531 77.869C623.007 78.9077 623.964 80.4793 624.401 82.584L623.253 82.133C623.882 80.3837 624.989 78.976 626.574 77.91C628.187 76.8167 630.114 76.27 632.355 76.27ZM681.279 69.3H684.272V98H681.279V69.3ZM663.321 98H660.287V69.3H663.321V98ZM681.566 84.757H662.993V82.092H681.566V84.757ZM693.024 98V76.475H695.935V98H693.024ZM694.5 71.719C693.899 71.719 693.393 71.514 692.983 71.104C692.573 70.694 692.368 70.202 692.368 69.628C692.368 69.054 692.573 68.5757 692.983 68.193C693.393 67.783 693.899 67.578 694.5 67.578C695.102 67.578 695.607 67.7693 696.017 68.152C696.427 68.5347 696.632 69.013 696.632 69.587C696.632 70.1883 696.427 70.694 696.017 71.104C695.635 71.514 695.129 71.719 694.5 71.719ZM713.219 106.159C711.251 106.159 709.365 105.872 707.561 105.298C705.757 104.724 704.295 103.904 703.174 102.838L704.65 100.624C705.661 101.526 706.905 102.237 708.381 102.756C709.884 103.303 711.47 103.576 713.137 103.576C715.87 103.576 717.879 102.934 719.164 101.649C720.449 100.392 721.091 98.4237 721.091 95.745V90.374L721.501 86.684L721.214 82.994V76.475H724.002V95.376C724.002 99.0933 723.086 101.813 721.255 103.535C719.451 105.284 716.772 106.159 713.219 106.159ZM712.686 97.18C710.636 97.18 708.791 96.7427 707.151 95.868C705.511 94.966 704.213 93.7223 703.256 92.137C702.327 90.5517 701.862 88.734 701.862 86.684C701.862 84.634 702.327 82.83 703.256 81.272C704.213 79.6867 705.511 78.4567 707.151 77.582C708.791 76.7073 710.636 76.27 712.686 76.27C714.599 76.27 716.321 76.6663 717.852 77.459C719.383 78.2517 720.599 79.427 721.501 80.985C722.403 82.543 722.854 84.4427 722.854 86.684C722.854 88.9253 722.403 90.825 721.501 92.383C720.599 93.941 719.383 95.13 717.852 95.95C716.321 96.77 714.599 97.18 712.686 97.18ZM712.973 94.597C714.558 94.597 715.966 94.269 717.196 93.613C718.426 92.9297 719.396 92.0003 720.107 90.825C720.818 89.6223 721.173 88.242 721.173 86.684C721.173 85.126 720.818 83.7593 720.107 82.584C719.396 81.4087 718.426 80.493 717.196 79.837C715.966 79.1537 714.558 78.812 712.973 78.812C711.415 78.812 710.007 79.1537 708.75 79.837C707.52 80.493 706.55 81.4087 705.839 82.584C705.156 83.7593 704.814 85.126 704.814 86.684C704.814 88.242 705.156 89.6223 705.839 90.825C706.55 92.0003 707.52 92.9297 708.75 93.613C710.007 94.269 711.415 94.597 712.973 94.597ZM743.09 76.27C744.84 76.27 746.37 76.6117 747.682 77.295C749.022 77.951 750.06 78.9623 750.798 80.329C751.564 81.6957 751.946 83.4177 751.946 85.495V98H749.035V85.782C749.035 83.5133 748.461 81.805 747.313 80.657C746.193 79.4817 744.607 78.894 742.557 78.894C741.027 78.894 739.687 79.2083 738.539 79.837C737.419 80.4383 736.544 81.3267 735.915 82.502C735.314 83.65 735.013 85.044 735.013 86.684V98H732.102V67.578H735.013V82.379L734.439 81.272C735.123 79.714 736.216 78.4977 737.719 77.623C739.223 76.721 741.013 76.27 743.09 76.27ZM759.809 98V67.578H762.72V98H759.809ZM770.82 98V76.475H773.731V98H770.82ZM772.296 71.719C771.695 71.719 771.189 71.514 770.779 71.104C770.369 70.694 770.164 70.202 770.164 69.628C770.164 69.054 770.369 68.5757 770.779 68.193C771.189 67.783 771.695 67.578 772.296 67.578C772.898 67.578 773.403 67.7693 773.813 68.152C774.223 68.5347 774.428 69.013 774.428 69.587C774.428 70.1883 774.223 70.694 773.813 71.104C773.431 71.514 772.925 71.719 772.296 71.719ZM791.015 106.159C789.047 106.159 787.161 105.872 785.357 105.298C783.553 104.724 782.091 103.904 780.97 102.838L782.446 100.624C783.457 101.526 784.701 102.237 786.177 102.756C787.68 103.303 789.266 103.576 790.933 103.576C793.666 103.576 795.675 102.934 796.96 101.649C798.245 100.392 798.887 98.4237 798.887 95.745V90.374L799.297 86.684L799.01 82.994V76.475H801.798V95.376C801.798 99.0933 800.882 101.813 799.051 103.535C797.247 105.284 794.568 106.159 791.015 106.159ZM790.482 97.18C788.432 97.18 786.587 96.7427 784.947 95.868C783.307 94.966 782.009 93.7223 781.052 92.137C780.123 90.5517 779.658 88.734 779.658 86.684C779.658 84.634 780.123 82.83 781.052 81.272C782.009 79.6867 783.307 78.4567 784.947 77.582C786.587 76.7073 788.432 76.27 790.482 76.27C792.395 76.27 794.117 76.6663 795.648 77.459C797.179 78.2517 798.395 79.427 799.297 80.985C800.199 82.543 800.65 84.4427 800.65 86.684C800.65 88.9253 800.199 90.825 799.297 92.383C798.395 93.941 797.179 95.13 795.648 95.95C794.117 96.77 792.395 97.18 790.482 97.18ZM790.769 94.597C792.354 94.597 793.762 94.269 794.992 93.613C796.222 92.9297 797.192 92.0003 797.903 90.825C798.614 89.6223 798.969 88.242 798.969 86.684C798.969 85.126 798.614 83.7593 797.903 82.584C797.192 81.4087 796.222 80.493 794.992 79.837C793.762 79.1537 792.354 78.812 790.769 78.812C789.211 78.812 787.803 79.1537 786.546 79.837C785.316 80.493 784.346 81.4087 783.635 82.584C782.952 83.7593 782.61 85.126 782.61 86.684C782.61 88.242 782.952 89.6223 783.635 90.825C784.346 92.0003 785.316 92.9297 786.546 93.613C787.803 94.269 789.211 94.597 790.769 94.597ZM820.886 76.27C822.636 76.27 824.166 76.6117 825.478 77.295C826.818 77.951 827.856 78.9623 828.594 80.329C829.36 81.6957 829.742 83.4177 829.742 85.495V98H826.831V85.782C826.831 83.5133 826.257 81.805 825.109 80.657C823.989 79.4817 822.403 78.894 820.353 78.894C818.823 78.894 817.483 79.2083 816.335 79.837C815.215 80.4383 814.34 81.3267 813.711 82.502C813.11 83.65 812.809 85.044 812.809 86.684V98H809.898V67.578H812.809V82.379L812.235 81.272C812.919 79.714 814.012 78.4977 815.515 77.623C817.019 76.721 818.809 76.27 820.886 76.27ZM844.411 98.205C842.389 98.205 840.831 97.6583 839.737 96.565C838.644 95.4717 838.097 93.9273 838.097 91.932V71.719H841.008V91.768C841.008 93.0253 841.323 93.9957 841.951 94.679C842.607 95.3623 843.537 95.704 844.739 95.704C846.024 95.704 847.09 95.335 847.937 94.597L848.962 96.688C848.388 97.2073 847.691 97.59 846.871 97.836C846.079 98.082 845.259 98.205 844.411 98.205ZM834.243 78.894V76.475H847.568V78.894H834.243ZM333.108 139V110.3H336.142V139H333.108ZM353.803 139.205C351.671 139.205 349.757 138.74 348.063 137.811C346.395 136.854 345.083 135.556 344.127 133.916C343.17 132.249 342.692 130.349 342.692 128.217C342.692 126.058 343.17 124.158 344.127 122.518C345.083 120.878 346.395 119.593 348.063 118.664C349.757 117.735 351.671 117.27 353.803 117.27C355.634 117.27 357.288 117.625 358.764 118.336C360.24 119.047 361.401 120.113 362.249 121.534L360.076 123.01C359.338 121.917 358.422 121.11 357.329 120.591C356.235 120.072 355.046 119.812 353.762 119.812C352.231 119.812 350.851 120.167 349.621 120.878C348.391 121.561 347.42 122.532 346.71 123.789C345.999 125.046 345.644 126.522 345.644 128.217C345.644 129.912 345.999 131.388 346.71 132.645C347.42 133.902 348.391 134.886 349.621 135.597C350.851 136.28 352.231 136.622 353.762 136.622C355.046 136.622 356.235 136.362 357.329 135.843C358.422 135.324 359.338 134.531 360.076 133.465L362.249 134.941C361.401 136.335 360.24 137.401 358.764 138.139C357.288 138.85 355.634 139.205 353.803 139.205ZM376.381 139.205C374.304 139.205 372.431 138.74 370.764 137.811C369.124 136.854 367.826 135.556 366.869 133.916C365.912 132.249 365.434 130.349 365.434 128.217C365.434 126.058 365.912 124.158 366.869 122.518C367.826 120.878 369.124 119.593 370.764 118.664C372.404 117.735 374.276 117.27 376.381 117.27C378.513 117.27 380.399 117.735 382.039 118.664C383.706 119.593 385.005 120.878 385.934 122.518C386.891 124.158 387.369 126.058 387.369 128.217C387.369 130.349 386.891 132.249 385.934 133.916C385.005 135.556 383.706 136.854 382.039 137.811C380.372 138.74 378.486 139.205 376.381 139.205ZM376.381 136.622C377.939 136.622 379.319 136.28 380.522 135.597C381.725 134.886 382.668 133.902 383.351 132.645C384.062 131.36 384.417 129.884 384.417 128.217C384.417 126.522 384.062 125.046 383.351 123.789C382.668 122.532 381.725 121.561 380.522 120.878C379.319 120.167 377.953 119.812 376.422 119.812C374.891 119.812 373.525 120.167 372.322 120.878C371.119 121.561 370.163 122.532 369.452 123.789C368.741 125.046 368.386 126.522 368.386 128.217C368.386 129.884 368.741 131.36 369.452 132.645C370.163 133.902 371.119 134.886 372.322 135.597C373.525 136.28 374.878 136.622 376.381 136.622ZM404.3 117.27C406.049 117.27 407.58 117.612 408.892 118.295C410.231 118.951 411.27 119.962 412.008 121.329C412.773 122.696 413.156 124.418 413.156 126.495V139H410.245V126.782C410.245 124.513 409.671 122.805 408.523 121.657C407.402 120.482 405.817 119.894 403.767 119.894C402.236 119.894 400.897 120.208 399.749 120.837C398.628 121.438 397.754 122.327 397.125 123.502C396.524 124.65 396.223 126.044 396.223 127.684V139H393.312V117.475H396.1V123.379L395.649 122.272C396.332 120.714 397.426 119.498 398.929 118.623C400.432 117.721 402.223 117.27 404.3 117.27ZM426.8 139.205C425.023 139.205 423.342 138.959 421.757 138.467C420.172 137.948 418.928 137.305 418.026 136.54L419.338 134.244C420.213 134.9 421.333 135.474 422.7 135.966C424.067 136.431 425.502 136.663 427.005 136.663C429.055 136.663 430.531 136.349 431.433 135.72C432.335 135.064 432.786 134.203 432.786 133.137C432.786 132.344 432.526 131.729 432.007 131.292C431.515 130.827 430.859 130.486 430.039 130.267C429.219 130.021 428.303 129.816 427.292 129.652C426.281 129.488 425.269 129.297 424.258 129.078C423.274 128.859 422.372 128.545 421.552 128.135C420.732 127.698 420.062 127.11 419.543 126.372C419.051 125.634 418.805 124.65 418.805 123.42C418.805 122.245 419.133 121.192 419.789 120.263C420.445 119.334 421.402 118.609 422.659 118.09C423.944 117.543 425.502 117.27 427.333 117.27C428.727 117.27 430.121 117.461 431.515 117.844C432.909 118.199 434.057 118.678 434.959 119.279L433.688 121.616C432.731 120.96 431.706 120.495 430.613 120.222C429.52 119.921 428.426 119.771 427.333 119.771C425.392 119.771 423.957 120.113 423.028 120.796C422.126 121.452 421.675 122.299 421.675 123.338C421.675 124.158 421.921 124.8 422.413 125.265C422.932 125.73 423.602 126.099 424.422 126.372C425.269 126.618 426.185 126.823 427.169 126.987C428.18 127.151 429.178 127.356 430.162 127.602C431.173 127.821 432.089 128.135 432.909 128.545C433.756 128.928 434.426 129.488 434.918 130.226C435.437 130.937 435.697 131.88 435.697 133.055C435.697 134.312 435.342 135.406 434.631 136.335C433.948 137.237 432.936 137.948 431.597 138.467C430.285 138.959 428.686 139.205 426.8 139.205ZM455.09 124.199H470.26V126.823H455.09V124.199ZM455.418 139H452.384V110.3H472.064V112.924H455.418V139ZM477.314 139V117.475H480.102V123.338L479.815 122.313C480.416 120.673 481.428 119.429 482.849 118.582C484.27 117.707 486.033 117.27 488.138 117.27V120.099C488.029 120.099 487.919 120.099 487.81 120.099C487.701 120.072 487.591 120.058 487.482 120.058C485.213 120.058 483.437 120.755 482.152 122.149C480.867 123.516 480.225 125.47 480.225 128.012V139H477.314ZM505.337 139V134.244L505.214 133.465V125.511C505.214 123.68 504.695 122.272 503.656 121.288C502.645 120.304 501.128 119.812 499.105 119.812C497.711 119.812 496.385 120.044 495.128 120.509C493.871 120.974 492.805 121.589 491.93 122.354L490.618 120.181C491.711 119.252 493.023 118.541 494.554 118.049C496.085 117.53 497.697 117.27 499.392 117.27C502.18 117.27 504.326 117.967 505.829 119.361C507.36 120.728 508.125 122.819 508.125 125.634V139H505.337ZM497.916 139.205C496.303 139.205 494.896 138.945 493.693 138.426C492.518 137.879 491.616 137.141 490.987 136.212C490.358 135.255 490.044 134.162 490.044 132.932C490.044 131.811 490.304 130.8 490.823 129.898C491.37 128.969 492.244 128.231 493.447 127.684C494.677 127.11 496.317 126.823 498.367 126.823H505.788V128.996H498.449C496.372 128.996 494.923 129.365 494.103 130.103C493.31 130.841 492.914 131.757 492.914 132.85C492.914 134.08 493.392 135.064 494.349 135.802C495.306 136.54 496.645 136.909 498.367 136.909C500.007 136.909 501.415 136.54 502.59 135.802C503.793 135.037 504.667 133.943 505.214 132.522L505.87 134.531C505.323 135.952 504.367 137.087 503 137.934C501.661 138.781 499.966 139.205 497.916 139.205ZM542.928 117.27C544.677 117.27 546.194 117.612 547.479 118.295C548.791 118.951 549.802 119.962 550.513 121.329C551.251 122.696 551.62 124.418 551.62 126.495V139H548.709V126.782C548.709 124.513 548.162 122.805 547.069 121.657C546.003 120.482 544.486 119.894 542.518 119.894C541.042 119.894 539.757 120.208 538.664 120.837C537.598 121.438 536.764 122.327 536.163 123.502C535.589 124.65 535.302 126.044 535.302 127.684V139H532.391V126.782C532.391 124.513 531.844 122.805 530.751 121.657C529.657 120.482 528.127 119.894 526.159 119.894C524.71 119.894 523.439 120.208 522.346 120.837C521.252 121.438 520.405 122.327 519.804 123.502C519.23 124.65 518.943 126.044 518.943 127.684V139H516.032V117.475H518.82V123.297L518.369 122.272C519.025 120.714 520.077 119.498 521.526 118.623C523.002 117.721 524.737 117.27 526.733 117.27C528.837 117.27 530.628 117.803 532.104 118.869C533.58 119.908 534.536 121.479 534.974 123.584L533.826 123.133C534.454 121.384 535.561 119.976 537.147 118.91C538.759 117.817 540.686 117.27 542.928 117.27ZM568.657 139.205C566.416 139.205 564.448 138.74 562.753 137.811C561.058 136.854 559.733 135.556 558.776 133.916C557.819 132.249 557.341 130.349 557.341 128.217C557.341 126.085 557.792 124.199 558.694 122.559C559.623 120.919 560.881 119.634 562.466 118.705C564.079 117.748 565.883 117.27 567.878 117.27C569.901 117.27 571.691 117.735 573.249 118.664C574.834 119.566 576.078 120.851 576.98 122.518C577.882 124.158 578.333 126.058 578.333 128.217C578.333 128.354 578.319 128.504 578.292 128.668C578.292 128.805 578.292 128.955 578.292 129.119H559.555V126.946H576.734L575.586 127.807C575.586 126.249 575.244 124.869 574.561 123.666C573.905 122.436 573.003 121.479 571.855 120.796C570.707 120.113 569.381 119.771 567.878 119.771C566.402 119.771 565.076 120.113 563.901 120.796C562.726 121.479 561.81 122.436 561.154 123.666C560.498 124.896 560.17 126.304 560.17 127.889V128.34C560.17 129.98 560.525 131.429 561.236 132.686C561.974 133.916 562.985 134.886 564.27 135.597C565.582 136.28 567.072 136.622 568.739 136.622C570.051 136.622 571.267 136.39 572.388 135.925C573.536 135.46 574.52 134.75 575.34 133.793L576.98 135.679C576.023 136.827 574.821 137.702 573.372 138.303C571.951 138.904 570.379 139.205 568.657 139.205ZM592.827 139.205C590.777 139.205 588.932 138.74 587.292 137.811C585.68 136.882 584.409 135.597 583.479 133.957C582.55 132.29 582.085 130.376 582.085 128.217C582.085 126.03 582.55 124.117 583.479 122.477C584.409 120.837 585.68 119.566 587.292 118.664C588.932 117.735 590.777 117.27 592.827 117.27C594.713 117.27 596.394 117.694 597.87 118.541C599.374 119.388 600.563 120.632 601.437 122.272C602.339 123.885 602.79 125.866 602.79 128.217C602.79 130.54 602.353 132.522 601.478 134.162C600.604 135.802 599.415 137.059 597.911 137.934C596.435 138.781 594.741 139.205 592.827 139.205ZM593.032 136.622C594.563 136.622 595.93 136.28 597.132 135.597C598.362 134.886 599.319 133.902 600.002 132.645C600.713 131.36 601.068 129.884 601.068 128.217C601.068 126.522 600.713 125.046 600.002 123.789C599.319 122.532 598.362 121.561 597.132 120.878C595.93 120.167 594.563 119.812 593.032 119.812C591.529 119.812 590.176 120.167 588.973 120.878C587.771 121.561 586.814 122.532 586.103 123.789C585.393 125.046 585.037 126.522 585.037 128.217C585.037 129.884 585.393 131.36 586.103 132.645C586.814 133.902 587.771 134.886 588.973 135.597C590.176 136.28 591.529 136.622 593.032 136.622ZM601.15 139V132.522L601.437 128.176L601.027 123.83V108.578H603.938V139H601.15ZM623.391 139V110.3H626.425V139H623.391ZM662.044 117.27C663.793 117.27 665.31 117.612 666.595 118.295C667.907 118.951 668.918 119.962 669.629 121.329C670.367 122.696 670.736 124.418 670.736 126.495V139H667.825V126.782C667.825 124.513 667.278 122.805 666.185 121.657C665.119 120.482 663.602 119.894 661.634 119.894C660.158 119.894 658.873 120.208 657.78 120.837C656.714 121.438 655.88 122.327 655.279 123.502C654.705 124.65 654.418 126.044 654.418 127.684V139H651.507V126.782C651.507 124.513 650.96 122.805 649.867 121.657C648.774 120.482 647.243 119.894 645.275 119.894C643.826 119.894 642.555 120.208 641.462 120.837C640.369 121.438 639.521 122.327 638.92 123.502C638.346 124.65 638.059 126.044 638.059 127.684V139H635.148V117.475H637.936V123.297L637.485 122.272C638.141 120.714 639.193 119.498 640.642 118.623C642.118 117.721 643.854 117.27 645.849 117.27C647.954 117.27 649.744 117.803 651.22 118.869C652.696 119.908 653.653 121.479 654.09 123.584L652.942 123.133C653.571 121.384 654.678 119.976 656.263 118.91C657.876 117.817 659.803 117.27 662.044 117.27ZM692.119 139V134.244L691.996 133.465V125.511C691.996 123.68 691.477 122.272 690.438 121.288C689.427 120.304 687.91 119.812 685.887 119.812C684.493 119.812 683.168 120.044 681.91 120.509C680.653 120.974 679.587 121.589 678.712 122.354L677.4 120.181C678.494 119.252 679.806 118.541 681.336 118.049C682.867 117.53 684.48 117.27 686.174 117.27C688.962 117.27 691.108 117.967 692.611 119.361C694.142 120.728 694.907 122.819 694.907 125.634V139H692.119ZM684.698 139.205C683.086 139.205 681.678 138.945 680.475 138.426C679.3 137.879 678.398 137.141 677.769 136.212C677.141 135.255 676.826 134.162 676.826 132.932C676.826 131.811 677.086 130.8 677.605 129.898C678.152 128.969 679.027 128.231 680.229 127.684C681.459 127.11 683.099 126.823 685.149 126.823H692.57V128.996H685.231C683.154 128.996 681.705 129.365 680.885 130.103C680.093 130.841 679.696 131.757 679.696 132.85C679.696 134.08 680.175 135.064 681.131 135.802C682.088 136.54 683.427 136.909 685.149 136.909C686.789 136.909 688.197 136.54 689.372 135.802C690.575 135.037 691.45 133.943 691.996 132.522L692.652 134.531C692.106 135.952 691.149 137.087 689.782 137.934C688.443 138.781 686.748 139.205 684.698 139.205ZM711.998 147.159C710.03 147.159 708.144 146.872 706.34 146.298C704.536 145.724 703.074 144.904 701.953 143.838L703.429 141.624C704.44 142.526 705.684 143.237 707.16 143.756C708.663 144.303 710.249 144.576 711.916 144.576C714.649 144.576 716.658 143.934 717.943 142.649C719.228 141.392 719.87 139.424 719.87 136.745V131.374L720.28 127.684L719.993 123.994V117.475H722.781V136.376C722.781 140.093 721.865 142.813 720.034 144.535C718.23 146.284 715.551 147.159 711.998 147.159ZM711.465 138.18C709.415 138.18 707.57 137.743 705.93 136.868C704.29 135.966 702.992 134.722 702.035 133.137C701.106 131.552 700.641 129.734 700.641 127.684C700.641 125.634 701.106 123.83 702.035 122.272C702.992 120.687 704.29 119.457 705.93 118.582C707.57 117.707 709.415 117.27 711.465 117.27C713.378 117.27 715.1 117.666 716.631 118.459C718.162 119.252 719.378 120.427 720.28 121.985C721.182 123.543 721.633 125.443 721.633 127.684C721.633 129.925 721.182 131.825 720.28 133.383C719.378 134.941 718.162 136.13 716.631 136.95C715.1 137.77 713.378 138.18 711.465 138.18ZM711.752 135.597C713.337 135.597 714.745 135.269 715.975 134.613C717.205 133.93 718.175 133 718.886 131.825C719.597 130.622 719.952 129.242 719.952 127.684C719.952 126.126 719.597 124.759 718.886 123.584C718.175 122.409 717.205 121.493 715.975 120.837C714.745 120.154 713.337 119.812 711.752 119.812C710.194 119.812 708.786 120.154 707.529 120.837C706.299 121.493 705.329 122.409 704.618 123.584C703.935 124.759 703.593 126.126 703.593 127.684C703.593 129.242 703.935 130.622 704.618 131.825C705.329 133 706.299 133.93 707.529 134.613C708.786 135.269 710.194 135.597 711.752 135.597ZM740.024 139.205C737.783 139.205 735.815 138.74 734.12 137.811C732.426 136.854 731.1 135.556 730.143 133.916C729.187 132.249 728.708 130.349 728.708 128.217C728.708 126.085 729.159 124.199 730.061 122.559C730.991 120.919 732.248 119.634 733.833 118.705C735.446 117.748 737.25 117.27 739.245 117.27C741.268 117.27 743.058 117.735 744.616 118.664C746.202 119.566 747.445 120.851 748.347 122.518C749.249 124.158 749.7 126.058 749.7 128.217C749.7 128.354 749.687 128.504 749.659 128.668C749.659 128.805 749.659 128.955 749.659 129.119H730.922V126.946H748.101L746.953 127.807C746.953 126.249 746.612 124.869 745.928 123.666C745.272 122.436 744.37 121.479 743.222 120.796C742.074 120.113 740.749 119.771 739.245 119.771C737.769 119.771 736.444 120.113 735.268 120.796C734.093 121.479 733.177 122.436 732.521 123.666C731.865 124.896 731.537 126.304 731.537 127.889V128.34C731.537 129.98 731.893 131.429 732.603 132.686C733.341 133.916 734.353 134.886 735.637 135.597C736.949 136.28 738.439 136.622 740.106 136.622C741.418 136.622 742.635 136.39 743.755 135.925C744.903 135.46 745.887 134.75 746.707 133.793L748.347 135.679C747.391 136.827 746.188 137.702 744.739 138.303C743.318 138.904 741.746 139.205 740.024 139.205Z" fill="white"/>
</svg>
