<svg width="1080" height="272" viewBox="0 0 1080 272" fill="none" xmlns="http://www.w3.org/2000/svg">
<path d="M0 100C0 44.7715 44.7715 0 100 0H980C1035.23 0 1080 44.7715 1080 100V272H0V100Z" fill="#456691"/>
<path d="M237.662 210L258.837 162.493H269.696L290.939 210H279.401L262.027 168.058H266.371L248.929 210H237.662ZM248.25 199.82L251.168 191.472H275.601L278.587 199.82H248.25ZM309.721 210.543C305.422 210.543 302.074 209.457 299.676 207.285C297.278 205.068 296.079 201.788 296.079 197.444V165.411H306.667V197.309C306.667 198.847 307.074 200.046 307.888 200.906C308.703 201.72 309.811 202.127 311.214 202.127C312.888 202.127 314.313 201.675 315.489 200.77L318.34 208.235C317.254 209.005 315.942 209.593 314.403 210C312.91 210.362 311.349 210.543 309.721 210.543ZM290.446 182.446V174.302H315.761V182.446H290.446ZM324.283 210V173.487H334.395V183.803L332.97 180.817C334.056 178.238 335.798 176.292 338.196 174.98C340.594 173.623 343.512 172.944 346.951 172.944V182.717C346.498 182.672 346.091 182.649 345.729 182.649C345.367 182.604 344.983 182.581 344.575 182.581C341.68 182.581 339.327 183.418 337.517 185.093C335.753 186.721 334.87 189.278 334.87 192.762V210H324.283ZM373.256 210V202.874L372.578 201.313V188.554C372.578 186.292 371.877 184.527 370.474 183.26C369.117 181.993 367.013 181.36 364.162 181.36C362.217 181.36 360.294 181.677 358.393 182.31C356.538 182.898 354.955 183.713 353.643 184.753L349.842 177.356C351.833 175.953 354.231 174.867 357.036 174.098C359.841 173.329 362.692 172.944 365.587 172.944C371.153 172.944 375.474 174.256 378.55 176.881C381.627 179.505 383.165 183.599 383.165 189.165V210H373.256ZM362.126 210.543C359.276 210.543 356.832 210.068 354.796 209.118C352.76 208.122 351.199 206.788 350.114 205.114C349.028 203.439 348.485 201.562 348.485 199.48C348.485 197.309 349.005 195.408 350.046 193.78C351.132 192.151 352.828 190.884 355.136 189.979C357.443 189.029 360.452 188.554 364.162 188.554H373.867V194.73H365.316C362.827 194.73 361.108 195.137 360.158 195.951C359.253 196.766 358.801 197.784 358.801 199.005C358.801 200.363 359.321 201.449 360.362 202.263C361.447 203.032 362.918 203.417 364.773 203.417C366.538 203.417 368.121 203.01 369.524 202.195C370.926 201.336 371.944 200.091 372.578 198.462L374.207 203.349C373.437 205.702 372.035 207.489 369.999 208.711C367.963 209.932 365.339 210.543 362.126 210.543ZM410.658 210.543C406.722 210.543 403.215 209.751 400.139 208.168C397.062 206.539 394.641 204.299 392.877 201.449C391.157 198.598 390.298 195.363 390.298 191.744C390.298 188.079 391.157 184.844 392.877 182.038C394.641 179.188 397.062 176.971 400.139 175.387C403.215 173.759 406.722 172.944 410.658 172.944C414.504 172.944 417.852 173.759 420.702 175.387C423.553 176.971 425.657 179.256 427.014 182.242L418.802 186.653C417.852 184.934 416.653 183.667 415.205 182.853C413.803 182.038 412.264 181.631 410.59 181.631C408.78 181.631 407.152 182.038 405.704 182.853C404.256 183.667 403.102 184.821 402.242 186.314C401.428 187.807 401.021 189.617 401.021 191.744C401.021 193.87 401.428 195.68 402.242 197.173C403.102 198.666 404.256 199.82 405.704 200.634C407.152 201.449 408.78 201.856 410.59 201.856C412.264 201.856 413.803 201.471 415.205 200.702C416.653 199.888 417.852 198.598 418.802 196.834L427.014 201.313C425.657 204.254 423.553 206.539 420.702 208.168C417.852 209.751 414.504 210.543 410.658 210.543ZM448.571 210.543C444.273 210.543 440.925 209.457 438.527 207.285C436.129 205.068 434.93 201.788 434.93 197.444V165.411H445.517V197.309C445.517 198.847 445.924 200.046 446.739 200.906C447.553 201.72 448.662 202.127 450.064 202.127C451.738 202.127 453.164 201.675 454.34 200.77L457.19 208.235C456.105 209.005 454.792 209.593 453.254 210C451.761 210.362 450.2 210.543 448.571 210.543ZM429.297 182.446V174.302H454.611V182.446H429.297ZM463.134 210V173.487H473.721V210H463.134ZM468.427 168.397C466.482 168.397 464.898 167.831 463.677 166.7C462.455 165.569 461.844 164.167 461.844 162.493C461.844 160.818 462.455 159.416 463.677 158.285C464.898 157.154 466.482 156.588 468.427 156.588C470.373 156.588 471.956 157.131 473.178 158.217C474.4 159.258 475.01 160.615 475.01 162.289C475.01 164.053 474.4 165.524 473.178 166.7C472.002 167.831 470.418 168.397 468.427 168.397ZM493.456 210L478.118 173.487H489.044L501.803 204.91H496.374L509.608 173.487H519.788L504.382 210H493.456ZM541.235 210.543C537.073 210.543 533.408 209.729 530.241 208.1C527.119 206.471 524.698 204.254 522.979 201.449C521.259 198.598 520.4 195.363 520.4 191.744C520.4 188.079 521.237 184.844 522.911 182.038C524.63 179.188 526.96 176.971 529.901 175.387C532.842 173.759 536.168 172.944 539.878 172.944C543.452 172.944 546.665 173.713 549.515 175.252C552.411 176.745 554.696 178.917 556.37 181.767C558.044 184.572 558.881 187.943 558.881 191.879C558.881 192.287 558.858 192.762 558.813 193.305C558.768 193.802 558.722 194.277 558.677 194.73H529.019V188.554H553.112L549.04 190.386C549.04 188.486 548.655 186.834 547.886 185.432C547.117 184.029 546.054 182.943 544.696 182.174C543.339 181.36 541.755 180.953 539.946 180.953C538.136 180.953 536.53 181.36 535.127 182.174C533.77 182.943 532.706 184.052 531.937 185.5C531.168 186.902 530.784 188.576 530.784 190.522V192.151C530.784 194.142 531.213 195.906 532.073 197.444C532.978 198.938 534.222 200.091 535.806 200.906C537.435 201.675 539.335 202.059 541.507 202.059C543.452 202.059 545.149 201.765 546.597 201.177C548.09 200.589 549.447 199.707 550.669 198.53L556.302 204.638C554.628 206.539 552.524 208.009 549.99 209.05C547.456 210.045 544.538 210.543 541.235 210.543ZM596.077 183.871H618.88V192.694H596.077V183.871ZM596.891 210H585.896V162.493H621.798V171.315H596.891V210ZM627.832 210V173.487H637.945V183.803L636.519 180.817C637.605 178.238 639.347 176.292 641.745 174.98C644.143 173.623 647.062 172.944 650.5 172.944V182.717C650.048 182.672 649.641 182.649 649.279 182.649C648.917 182.604 648.532 182.581 648.125 182.581C645.229 182.581 642.876 183.418 641.067 185.093C639.302 186.721 638.42 189.278 638.42 192.762V210H627.832ZM676.806 210V202.874L676.127 201.313V188.554C676.127 186.292 675.426 184.527 674.023 183.26C672.666 181.993 670.562 181.36 667.712 181.36C665.766 181.36 663.843 181.677 661.943 182.31C660.088 182.898 658.504 183.713 657.192 184.753L653.391 177.356C655.382 175.953 657.78 174.867 660.585 174.098C663.391 173.329 666.241 172.944 669.137 172.944C674.702 172.944 679.023 174.256 682.099 176.881C685.176 179.505 686.715 183.599 686.715 189.165V210H676.806ZM665.675 210.543C662.825 210.543 660.382 210.068 658.346 209.118C656.31 208.122 654.749 206.788 653.663 205.114C652.577 203.439 652.034 201.562 652.034 199.48C652.034 197.309 652.554 195.408 653.595 193.78C654.681 192.151 656.378 190.884 658.685 189.979C660.993 189.029 664.001 188.554 667.712 188.554H677.417V194.73H668.865C666.377 194.73 664.657 195.137 663.707 195.951C662.802 196.766 662.35 197.784 662.35 199.005C662.35 200.363 662.87 201.449 663.911 202.263C664.997 203.032 666.467 203.417 668.322 203.417C670.087 203.417 671.67 203.01 673.073 202.195C674.476 201.336 675.494 200.091 676.127 198.462L677.756 203.349C676.987 205.702 675.584 207.489 673.548 208.711C671.512 209.932 668.888 210.543 665.675 210.543ZM743.058 172.944C745.953 172.944 748.51 173.532 750.727 174.709C752.989 175.84 754.753 177.604 756.02 180.002C757.332 182.355 757.988 185.387 757.988 189.097V210H747.401V190.726C747.401 187.785 746.79 185.613 745.569 184.21C744.347 182.808 742.628 182.106 740.411 182.106C738.872 182.106 737.492 182.468 736.271 183.192C735.049 183.871 734.099 184.912 733.42 186.314C732.742 187.717 732.402 189.504 732.402 191.676V210H721.815V190.726C721.815 187.785 721.204 185.613 719.983 184.21C718.806 182.808 717.109 182.106 714.892 182.106C713.354 182.106 711.974 182.468 710.752 183.192C709.531 183.871 708.581 184.912 707.902 186.314C707.223 187.717 706.884 189.504 706.884 191.676V210H696.297V173.487H706.409V183.464L704.509 180.545C705.776 178.057 707.563 176.179 709.87 174.912C712.223 173.6 714.892 172.944 717.879 172.944C721.227 172.944 724.145 173.804 726.634 175.523C729.167 177.197 730.841 179.776 731.656 183.26L727.923 182.242C729.145 179.392 731.09 177.129 733.76 175.455C736.474 173.781 739.574 172.944 743.058 172.944ZM785.864 210.543C781.702 210.543 778.037 209.729 774.87 208.1C771.748 206.471 769.327 204.254 767.608 201.449C765.888 198.598 765.029 195.363 765.029 191.744C765.029 188.079 765.866 184.844 767.54 182.038C769.259 179.188 771.589 176.971 774.53 175.387C777.471 173.759 780.797 172.944 784.507 172.944C788.081 172.944 791.294 173.713 794.144 175.252C797.04 176.745 799.325 178.917 800.999 181.767C802.673 184.572 803.51 187.943 803.51 191.879C803.51 192.287 803.487 192.762 803.442 193.305C803.397 193.802 803.351 194.277 803.306 194.73H773.648V188.554H797.741L793.669 190.386C793.669 188.486 793.284 186.834 792.515 185.432C791.746 184.029 790.683 182.943 789.325 182.174C787.968 181.36 786.384 180.953 784.575 180.953C782.765 180.953 781.159 181.36 779.756 182.174C778.399 182.943 777.335 184.052 776.566 185.5C775.797 186.902 775.412 188.576 775.412 190.522V192.151C775.412 194.142 775.842 195.906 776.702 197.444C777.607 198.938 778.851 200.091 780.435 200.906C782.064 201.675 783.964 202.059 786.136 202.059C788.081 202.059 789.778 201.765 791.226 201.177C792.719 200.589 794.076 199.707 795.298 198.53L800.931 204.638C799.257 206.539 797.153 208.009 794.619 209.05C792.085 210.045 789.167 210.543 785.864 210.543ZM822.842 210.543C819.721 210.543 816.712 210.181 813.816 209.457C810.966 208.688 808.703 207.738 807.029 206.607L810.558 199.005C812.232 200.046 814.201 200.906 816.463 201.584C818.77 202.218 821.033 202.535 823.25 202.535C825.693 202.535 827.412 202.24 828.408 201.652C829.448 201.064 829.969 200.25 829.969 199.209C829.969 198.349 829.561 197.716 828.747 197.309C827.978 196.856 826.937 196.517 825.625 196.291C824.313 196.064 822.865 195.838 821.282 195.612C819.743 195.386 818.182 195.092 816.599 194.73C815.015 194.323 813.567 193.734 812.255 192.965C810.943 192.196 809.88 191.155 809.065 189.843C808.296 188.531 807.912 186.834 807.912 184.753C807.912 182.446 808.568 180.41 809.88 178.645C811.237 176.881 813.183 175.501 815.716 174.505C818.25 173.464 821.282 172.944 824.811 172.944C827.299 172.944 829.833 173.216 832.412 173.759C834.991 174.302 837.14 175.093 838.859 176.134L835.33 183.667C833.566 182.627 831.778 181.925 829.969 181.563C828.204 181.156 826.485 180.953 824.811 180.953C822.458 180.953 820.739 181.269 819.653 181.903C818.567 182.536 818.024 183.351 818.024 184.346C818.024 185.251 818.408 185.93 819.178 186.382C819.992 186.834 821.055 187.196 822.367 187.468C823.68 187.739 825.105 187.988 826.643 188.214C828.227 188.395 829.81 188.69 831.394 189.097C832.977 189.504 834.403 190.092 835.67 190.861C836.982 191.585 838.045 192.603 838.859 193.915C839.674 195.182 840.081 196.856 840.081 198.938C840.081 201.2 839.402 203.213 838.045 204.978C836.688 206.697 834.719 208.054 832.14 209.05C829.607 210.045 826.507 210.543 822.842 210.543Z" fill="white"/>
<path d="M275.122 98V71.924H265.036V69.3H288.242V71.924H278.156V98H275.122ZM299.374 98.205C297.133 98.205 295.165 97.7403 293.47 96.811C291.776 95.8543 290.45 94.556 289.493 92.916C288.537 91.2487 288.058 89.349 288.058 87.217C288.058 85.085 288.509 83.199 289.411 81.559C290.341 79.919 291.598 78.6343 293.183 77.705C294.796 76.7483 296.6 76.27 298.595 76.27C300.618 76.27 302.408 76.7347 303.966 77.664C305.552 78.566 306.795 79.8507 307.697 81.518C308.599 83.158 309.05 85.0577 309.05 87.217C309.05 87.3537 309.037 87.504 309.009 87.668C309.009 87.8047 309.009 87.955 309.009 88.119H290.272V85.946H307.451L306.303 86.807C306.303 85.249 305.962 83.8687 305.278 82.666C304.622 81.436 303.72 80.4793 302.572 79.796C301.424 79.1127 300.099 78.771 298.595 78.771C297.119 78.771 295.794 79.1127 294.618 79.796C293.443 80.4793 292.527 81.436 291.871 82.666C291.215 83.896 290.887 85.3037 290.887 86.889V87.34C290.887 88.98 291.243 90.4287 291.953 91.686C292.691 92.916 293.703 93.8863 294.987 94.597C296.299 95.2803 297.789 95.622 299.456 95.622C300.768 95.622 301.985 95.3897 303.105 94.925C304.253 94.4603 305.237 93.7497 306.057 92.793L307.697 94.679C306.741 95.827 305.538 96.7017 304.089 97.303C302.668 97.9043 301.096 98.205 299.374 98.205ZM341.872 76.27C343.621 76.27 345.138 76.6117 346.423 77.295C347.735 77.951 348.746 78.9623 349.457 80.329C350.195 81.6957 350.564 83.4177 350.564 85.495V98H347.653V85.782C347.653 83.5133 347.106 81.805 346.013 80.657C344.947 79.4817 343.43 78.894 341.462 78.894C339.986 78.894 338.701 79.2083 337.608 79.837C336.542 80.4383 335.708 81.3267 335.107 82.502C334.533 83.65 334.246 85.044 334.246 86.684V98H331.335V85.782C331.335 83.5133 330.788 81.805 329.695 80.657C328.601 79.4817 327.071 78.894 325.103 78.894C323.654 78.894 322.383 79.2083 321.29 79.837C320.196 80.4383 319.349 81.3267 318.748 82.502C318.174 83.65 317.887 85.044 317.887 86.684V98H314.976V76.475H317.764V82.297L317.313 81.272C317.969 79.714 319.021 78.4977 320.47 77.623C321.946 76.721 323.681 76.27 325.677 76.27C327.781 76.27 329.572 76.803 331.048 77.869C332.524 78.9077 333.48 80.4793 333.918 82.584L332.77 82.133C333.398 80.3837 334.505 78.976 336.091 77.91C337.703 76.8167 339.63 76.27 341.872 76.27ZM369.569 98.205C367.71 98.205 366.029 97.7813 364.526 96.934C363.023 96.0593 361.82 94.8157 360.918 93.203C360.043 91.563 359.606 89.5677 359.606 87.217C359.606 84.8663 360.043 82.8847 360.918 81.272C361.793 79.632 362.982 78.3883 364.485 77.541C365.988 76.6937 367.683 76.27 369.569 76.27C371.619 76.27 373.45 76.7347 375.063 77.664C376.703 78.566 377.988 79.8507 378.917 81.518C379.846 83.158 380.311 85.0577 380.311 87.217C380.311 89.4037 379.846 91.317 378.917 92.957C377.988 94.597 376.703 95.8817 375.063 96.811C373.45 97.7403 371.619 98.205 369.569 98.205ZM358.458 105.954V76.475H361.246V82.953L360.959 87.258L361.369 91.604V105.954H358.458ZM369.364 95.622C370.895 95.622 372.261 95.2803 373.464 94.597C374.667 93.8863 375.623 92.9023 376.334 91.645C377.045 90.3603 377.4 88.8843 377.4 87.217C377.4 85.5497 377.045 84.0873 376.334 82.83C375.623 81.5727 374.667 80.5887 373.464 79.878C372.261 79.1673 370.895 78.812 369.364 78.812C367.833 78.812 366.453 79.1673 365.223 79.878C364.02 80.5887 363.064 81.5727 362.353 82.83C361.67 84.0873 361.328 85.5497 361.328 87.217C361.328 88.8843 361.67 90.3603 362.353 91.645C363.064 92.9023 364.02 93.8863 365.223 94.597C366.453 95.2803 367.833 95.622 369.364 95.622ZM386.245 98V67.578H389.156V98H386.245ZM410.745 98V93.244L410.622 92.465V84.511C410.622 82.6797 410.102 81.272 409.064 80.288C408.052 79.304 406.535 78.812 404.513 78.812C403.119 78.812 401.793 79.0443 400.536 79.509C399.278 79.9737 398.212 80.5887 397.338 81.354L396.026 79.181C397.119 78.2517 398.431 77.541 399.962 77.049C401.492 76.5297 403.105 76.27 404.8 76.27C407.588 76.27 409.733 76.967 411.237 78.361C412.767 79.7277 413.533 81.8187 413.533 84.634V98H410.745ZM403.324 98.205C401.711 98.205 400.303 97.9453 399.101 97.426C397.925 96.8793 397.023 96.1413 396.395 95.212C395.766 94.2553 395.452 93.162 395.452 91.932C395.452 90.8113 395.711 89.8 396.231 88.898C396.777 87.9687 397.652 87.2307 398.855 86.684C400.085 86.11 401.725 85.823 403.775 85.823H411.196V87.996H403.857C401.779 87.996 400.331 88.365 399.511 89.103C398.718 89.841 398.322 90.7567 398.322 91.85C398.322 93.08 398.8 94.064 399.757 94.802C400.713 95.54 402.053 95.909 403.775 95.909C405.415 95.909 406.822 95.54 407.998 94.802C409.2 94.0367 410.075 92.9433 410.622 91.522L411.278 93.531C410.731 94.9523 409.774 96.0867 408.408 96.934C407.068 97.7813 405.374 98.205 403.324 98.205ZM428.245 98.205C426.223 98.205 424.665 97.6583 423.571 96.565C422.478 95.4717 421.931 93.9273 421.931 91.932V71.719H424.842V91.768C424.842 93.0253 425.157 93.9957 425.785 94.679C426.441 95.3623 427.371 95.704 428.573 95.704C429.858 95.704 430.924 95.335 431.771 94.597L432.796 96.688C432.222 97.2073 431.525 97.59 430.705 97.836C429.913 98.082 429.093 98.205 428.245 98.205ZM418.077 78.894V76.475H431.402V78.894H418.077ZM446.478 98.205C444.237 98.205 442.269 97.7403 440.574 96.811C438.879 95.8543 437.554 94.556 436.597 92.916C435.64 91.2487 435.162 89.349 435.162 87.217C435.162 85.085 435.613 83.199 436.515 81.559C437.444 79.919 438.702 78.6343 440.287 77.705C441.9 76.7483 443.704 76.27 445.699 76.27C447.722 76.27 449.512 76.7347 451.07 77.664C452.655 78.566 453.899 79.8507 454.801 81.518C455.703 83.158 456.154 85.0577 456.154 87.217C456.154 87.3537 456.14 87.504 456.113 87.668C456.113 87.8047 456.113 87.955 456.113 88.119H437.376V85.946H454.555L453.407 86.807C453.407 85.249 453.065 83.8687 452.382 82.666C451.726 81.436 450.824 80.4793 449.676 79.796C448.528 79.1127 447.202 78.771 445.699 78.771C444.223 78.771 442.897 79.1127 441.722 79.796C440.547 80.4793 439.631 81.436 438.975 82.666C438.319 83.896 437.991 85.3037 437.991 86.889V87.34C437.991 88.98 438.346 90.4287 439.057 91.686C439.795 92.916 440.806 93.8863 442.091 94.597C443.403 95.2803 444.893 95.622 446.56 95.622C447.872 95.622 449.088 95.3897 450.209 94.925C451.357 94.4603 452.341 93.7497 453.161 92.793L454.801 94.679C453.844 95.827 452.642 96.7017 451.193 97.303C449.772 97.9043 448.2 98.205 446.478 98.205ZM473.424 98V69.3H476.458V98H473.424ZM496.17 76.27C497.919 76.27 499.45 76.6117 500.762 77.295C502.101 77.951 503.14 78.9623 503.878 80.329C504.643 81.6957 505.026 83.4177 505.026 85.495V98H502.115V85.782C502.115 83.5133 501.541 81.805 500.393 80.657C499.272 79.4817 497.687 78.894 495.637 78.894C494.106 78.894 492.767 79.2083 491.619 79.837C490.498 80.4383 489.623 81.3267 488.995 82.502C488.393 83.65 488.093 85.044 488.093 86.684V98H485.182V76.475H487.97V82.379L487.519 81.272C488.202 79.714 489.295 78.4977 490.799 77.623C492.302 76.721 494.092 76.27 496.17 76.27ZM518.67 98.205C516.893 98.205 515.212 97.959 513.627 97.467C512.041 96.9477 510.798 96.3053 509.896 95.54L511.208 93.244C512.082 93.9 513.203 94.474 514.57 94.966C515.936 95.4307 517.371 95.663 518.875 95.663C520.925 95.663 522.401 95.3487 523.303 94.72C524.205 94.064 524.656 93.203 524.656 92.137C524.656 91.3443 524.396 90.7293 523.877 90.292C523.385 89.8273 522.729 89.4857 521.909 89.267C521.089 89.021 520.173 88.816 519.162 88.652C518.15 88.488 517.139 88.2967 516.128 88.078C515.144 87.8593 514.242 87.545 513.422 87.135C512.602 86.6977 511.932 86.11 511.413 85.372C510.921 84.634 510.675 83.65 510.675 82.42C510.675 81.2447 511.003 80.1923 511.659 79.263C512.315 78.3337 513.271 77.6093 514.529 77.09C515.813 76.5433 517.371 76.27 519.203 76.27C520.597 76.27 521.991 76.4613 523.385 76.844C524.779 77.1993 525.927 77.6777 526.829 78.279L525.558 80.616C524.601 79.96 523.576 79.4953 522.483 79.222C521.389 78.9213 520.296 78.771 519.203 78.771C517.262 78.771 515.827 79.1127 514.898 79.796C513.996 80.452 513.545 81.2993 513.545 82.338C513.545 83.158 513.791 83.8003 514.283 84.265C514.802 84.7297 515.472 85.0987 516.292 85.372C517.139 85.618 518.055 85.823 519.039 85.987C520.05 86.151 521.048 86.356 522.032 86.602C523.043 86.8207 523.959 87.135 524.779 87.545C525.626 87.9277 526.296 88.488 526.788 89.226C527.307 89.9367 527.567 90.8797 527.567 92.055C527.567 93.3123 527.211 94.4057 526.501 95.335C525.817 96.237 524.806 96.9477 523.467 97.467C522.155 97.959 520.556 98.205 518.67 98.205ZM539.714 98.205C537.691 98.205 536.133 97.6583 535.04 96.565C533.947 95.4717 533.4 93.9273 533.4 91.932V71.719H536.311V91.768C536.311 93.0253 536.625 93.9957 537.254 94.679C537.91 95.3623 538.839 95.704 540.042 95.704C541.327 95.704 542.393 95.335 543.24 94.597L544.265 96.688C543.691 97.2073 542.994 97.59 542.174 97.836C541.381 98.082 540.561 98.205 539.714 98.205ZM529.546 78.894V76.475H542.871V78.894H529.546ZM563.053 98V93.244L562.93 92.465V84.511C562.93 82.6797 562.411 81.272 561.372 80.288C560.361 79.304 558.844 78.812 556.821 78.812C555.427 78.812 554.102 79.0443 552.844 79.509C551.587 79.9737 550.521 80.5887 549.646 81.354L548.334 79.181C549.428 78.2517 550.74 77.541 552.27 77.049C553.801 76.5297 555.414 76.27 557.108 76.27C559.896 76.27 562.042 76.967 563.545 78.361C565.076 79.7277 565.841 81.8187 565.841 84.634V98H563.053ZM555.632 98.205C554.02 98.205 552.612 97.9453 551.409 97.426C550.234 96.8793 549.332 96.1413 548.703 95.212C548.075 94.2553 547.76 93.162 547.76 91.932C547.76 90.8113 548.02 89.8 548.539 88.898C549.086 87.9687 549.961 87.2307 551.163 86.684C552.393 86.11 554.033 85.823 556.083 85.823H563.504V87.996H556.165C554.088 87.996 552.639 88.365 551.819 89.103C551.027 89.841 550.63 90.7567 550.63 91.85C550.63 93.08 551.109 94.064 552.065 94.802C553.022 95.54 554.361 95.909 556.083 95.909C557.723 95.909 559.131 95.54 560.306 94.802C561.509 94.0367 562.384 92.9433 562.93 91.522L563.586 93.531C563.04 94.9523 562.083 96.0867 560.716 96.934C559.377 97.7813 557.682 98.205 555.632 98.205ZM582.932 106.159C580.964 106.159 579.078 105.872 577.274 105.298C575.47 104.724 574.008 103.904 572.887 102.838L574.363 100.624C575.374 101.526 576.618 102.237 578.094 102.756C579.597 103.303 581.183 103.576 582.85 103.576C585.583 103.576 587.592 102.934 588.877 101.649C590.162 100.392 590.804 98.4237 590.804 95.745V90.374L591.214 86.684L590.927 82.994V76.475H593.715V95.376C593.715 99.0933 592.799 101.813 590.968 103.535C589.164 105.284 586.485 106.159 582.932 106.159ZM582.399 97.18C580.349 97.18 578.504 96.7427 576.864 95.868C575.224 94.966 573.926 93.7223 572.969 92.137C572.04 90.5517 571.575 88.734 571.575 86.684C571.575 84.634 572.04 82.83 572.969 81.272C573.926 79.6867 575.224 78.4567 576.864 77.582C578.504 76.7073 580.349 76.27 582.399 76.27C584.312 76.27 586.034 76.6663 587.565 77.459C589.096 78.2517 590.312 79.427 591.214 80.985C592.116 82.543 592.567 84.4427 592.567 86.684C592.567 88.9253 592.116 90.825 591.214 92.383C590.312 93.941 589.096 95.13 587.565 95.95C586.034 96.77 584.312 97.18 582.399 97.18ZM582.686 94.597C584.271 94.597 585.679 94.269 586.909 93.613C588.139 92.9297 589.109 92.0003 589.82 90.825C590.531 89.6223 590.886 88.242 590.886 86.684C590.886 85.126 590.531 83.7593 589.82 82.584C589.109 81.4087 588.139 80.493 586.909 79.837C585.679 79.1537 584.271 78.812 582.686 78.812C581.128 78.812 579.72 79.1537 578.463 79.837C577.233 80.493 576.263 81.4087 575.552 82.584C574.869 83.7593 574.527 85.126 574.527 86.684C574.527 88.242 574.869 89.6223 575.552 90.825C576.263 92.0003 577.233 92.9297 578.463 93.613C579.72 94.269 581.128 94.597 582.686 94.597ZM601.815 98V76.475H604.603V82.338L604.316 81.313C604.918 79.673 605.929 78.4293 607.35 77.582C608.772 76.7073 610.535 76.27 612.639 76.27V79.099C612.53 79.099 612.421 79.099 612.311 79.099C612.202 79.0717 612.093 79.058 611.983 79.058C609.715 79.058 607.938 79.755 606.653 81.149C605.369 82.5157 604.726 84.47 604.726 87.012V98H601.815ZM629.839 98V93.244L629.716 92.465V84.511C629.716 82.6797 629.196 81.272 628.158 80.288C627.146 79.304 625.629 78.812 623.607 78.812C622.213 78.812 620.887 79.0443 619.63 79.509C618.372 79.9737 617.306 80.5887 616.432 81.354L615.12 79.181C616.213 78.2517 617.525 77.541 619.056 77.049C620.586 76.5297 622.199 76.27 623.894 76.27C626.682 76.27 628.827 76.967 630.331 78.361C631.861 79.7277 632.627 81.8187 632.627 84.634V98H629.839ZM622.418 98.205C620.805 98.205 619.397 97.9453 618.195 97.426C617.019 96.8793 616.117 96.1413 615.489 95.212C614.86 94.2553 614.546 93.162 614.546 91.932C614.546 90.8113 614.805 89.8 615.325 88.898C615.871 87.9687 616.746 87.2307 617.949 86.684C619.179 86.11 620.819 85.823 622.869 85.823H630.29V87.996H622.951C620.873 87.996 619.425 88.365 618.605 89.103C617.812 89.841 617.416 90.7567 617.416 91.85C617.416 93.08 617.894 94.064 618.851 94.802C619.807 95.54 621.147 95.909 622.869 95.909C624.509 95.909 625.916 95.54 627.092 94.802C628.294 94.0367 629.169 92.9433 629.716 91.522L630.372 93.531C629.825 94.9523 628.868 96.0867 627.502 96.934C626.162 97.7813 624.468 98.205 622.418 98.205ZM667.429 76.27C669.178 76.27 670.695 76.6117 671.98 77.295C673.292 77.951 674.303 78.9623 675.014 80.329C675.752 81.6957 676.121 83.4177 676.121 85.495V98H673.21V85.782C673.21 83.5133 672.663 81.805 671.57 80.657C670.504 79.4817 668.987 78.894 667.019 78.894C665.543 78.894 664.258 79.2083 663.165 79.837C662.099 80.4383 661.265 81.3267 660.664 82.502C660.09 83.65 659.803 85.044 659.803 86.684V98H656.892V85.782C656.892 83.5133 656.345 81.805 655.252 80.657C654.159 79.4817 652.628 78.894 650.66 78.894C649.211 78.894 647.94 79.2083 646.847 79.837C645.754 80.4383 644.906 81.3267 644.305 82.502C643.731 83.65 643.444 85.044 643.444 86.684V98H640.533V76.475H643.321V82.297L642.87 81.272C643.526 79.714 644.578 78.4977 646.027 77.623C647.503 76.721 649.239 76.27 651.234 76.27C653.339 76.27 655.129 76.803 656.605 77.869C658.081 78.9077 659.038 80.4793 659.475 82.584L658.327 82.133C658.956 80.3837 660.063 78.976 661.648 77.91C663.261 76.8167 665.188 76.27 667.429 76.27ZM695.361 98V69.3H706.103C708.536 69.3 710.627 69.6963 712.376 70.489C714.125 71.2543 715.465 72.375 716.394 73.851C717.351 75.2997 717.829 77.0627 717.829 79.14C717.829 81.1627 717.351 82.912 716.394 84.388C715.465 85.8367 714.125 86.9573 712.376 87.75C710.627 88.5427 708.536 88.939 706.103 88.939H697.042L698.395 87.504V98H695.361ZM698.395 87.75L697.042 86.274H706.021C708.891 86.274 711.064 85.659 712.54 84.429C714.043 83.1717 714.795 81.4087 714.795 79.14C714.795 76.844 714.043 75.0673 712.54 73.81C711.064 72.5527 708.891 71.924 706.021 71.924H697.042L698.395 70.489V87.75ZM735.163 76.27C736.912 76.27 738.443 76.6117 739.755 77.295C741.094 77.951 742.133 78.9623 742.871 80.329C743.636 81.6957 744.019 83.4177 744.019 85.495V98H741.108V85.782C741.108 83.5133 740.534 81.805 739.386 80.657C738.265 79.4817 736.68 78.894 734.63 78.894C733.099 78.894 731.76 79.2083 730.612 79.837C729.491 80.4383 728.616 81.3267 727.988 82.502C727.386 83.65 727.086 85.044 727.086 86.684V98H724.175V67.578H727.086V82.379L726.512 81.272C727.195 79.714 728.288 78.4977 729.792 77.623C731.295 76.721 733.085 76.27 735.163 76.27ZM760.656 98.205C758.578 98.205 756.706 97.7403 755.039 96.811C753.399 95.8543 752.1 94.556 751.144 92.916C750.187 91.2487 749.709 89.349 749.709 87.217C749.709 85.0577 750.187 83.158 751.144 81.518C752.1 79.878 753.399 78.5933 755.039 77.664C756.679 76.7347 758.551 76.27 760.656 76.27C762.788 76.27 764.674 76.7347 766.314 77.664C767.981 78.5933 769.279 79.878 770.209 81.518C771.165 83.158 771.644 85.0577 771.644 87.217C771.644 89.349 771.165 91.2487 770.209 92.916C769.279 94.556 767.981 95.8543 766.314 96.811C764.646 97.7403 762.76 98.205 760.656 98.205ZM760.656 95.622C762.214 95.622 763.594 95.2803 764.797 94.597C765.999 93.8863 766.942 92.9023 767.626 91.645C768.336 90.3603 768.692 88.8843 768.692 87.217C768.692 85.5223 768.336 84.0463 767.626 82.789C766.942 81.5317 765.999 80.5613 764.797 79.878C763.594 79.1673 762.227 78.812 760.697 78.812C759.166 78.812 757.799 79.1673 756.597 79.878C755.394 80.5613 754.437 81.5317 753.727 82.789C753.016 84.0463 752.661 85.5223 752.661 87.217C752.661 88.8843 753.016 90.3603 753.727 91.645C754.437 92.9023 755.394 93.8863 756.597 94.597C757.799 95.2803 759.152 95.622 760.656 95.622ZM784.393 98.205C782.37 98.205 780.812 97.6583 779.719 96.565C778.625 95.4717 778.079 93.9273 778.079 91.932V71.719H780.99V91.768C780.99 93.0253 781.304 93.9957 781.933 94.679C782.589 95.3623 783.518 95.704 784.721 95.704C786.005 95.704 787.071 95.335 787.919 94.597L788.944 96.688C788.37 97.2073 787.673 97.59 786.853 97.836C786.06 98.082 785.24 98.205 784.393 98.205ZM774.225 78.894V76.475H787.55V78.894H774.225ZM802.256 98.205C800.179 98.205 798.307 97.7403 796.639 96.811C794.999 95.8543 793.701 94.556 792.744 92.916C791.788 91.2487 791.309 89.349 791.309 87.217C791.309 85.0577 791.788 83.158 792.744 81.518C793.701 79.878 794.999 78.5933 796.639 77.664C798.279 76.7347 800.152 76.27 802.256 76.27C804.388 76.27 806.274 76.7347 807.914 77.664C809.582 78.5933 810.88 79.878 811.809 81.518C812.766 83.158 813.244 85.0577 813.244 87.217C813.244 89.349 812.766 91.2487 811.809 92.916C810.88 94.556 809.582 95.8543 807.914 96.811C806.247 97.7403 804.361 98.205 802.256 98.205ZM802.256 95.622C803.814 95.622 805.195 95.2803 806.397 94.597C807.6 93.8863 808.543 92.9023 809.226 91.645C809.937 90.3603 810.292 88.8843 810.292 87.217C810.292 85.5223 809.937 84.0463 809.226 82.789C808.543 81.5317 807.6 80.5613 806.397 79.878C805.195 79.1673 803.828 78.812 802.297 78.812C800.767 78.812 799.4 79.1673 798.197 79.878C796.995 80.5613 796.038 81.5317 795.327 82.789C794.617 84.0463 794.261 85.5223 794.261 87.217C794.261 88.8843 794.617 90.3603 795.327 91.645C796.038 92.9023 796.995 93.8863 798.197 94.597C799.4 95.2803 800.753 95.622 802.256 95.622ZM244.293 139.246C242.133 139.246 240.138 138.891 238.307 138.18C236.475 137.442 234.89 136.417 233.551 135.105C232.211 133.793 231.159 132.249 230.394 130.472C229.656 128.695 229.287 126.755 229.287 124.65C229.287 122.545 229.656 120.605 230.394 118.828C231.159 117.051 232.211 115.507 233.551 114.195C234.917 112.883 236.516 111.872 238.348 111.161C240.179 110.423 242.174 110.054 244.334 110.054C246.411 110.054 248.365 110.409 250.197 111.12C252.028 111.803 253.572 112.842 254.83 114.236L252.903 116.163C251.727 114.96 250.429 114.099 249.008 113.58C247.586 113.033 246.056 112.76 244.416 112.76C242.694 112.76 241.095 113.061 239.619 113.662C238.143 114.236 236.858 115.07 235.765 116.163C234.671 117.229 233.81 118.486 233.182 119.935C232.58 121.356 232.28 122.928 232.28 124.65C232.28 126.372 232.58 127.957 233.182 129.406C233.81 130.827 234.671 132.085 235.765 133.178C236.858 134.244 238.143 135.078 239.619 135.679C241.095 136.253 242.694 136.54 244.416 136.54C246.056 136.54 247.586 136.267 249.008 135.72C250.429 135.173 251.727 134.299 252.903 133.096L254.83 135.023C253.572 136.417 252.028 137.469 250.197 138.18C248.365 138.891 246.397 139.246 244.293 139.246ZM273.851 139V134.244L273.728 133.465V125.511C273.728 123.68 273.209 122.272 272.17 121.288C271.159 120.304 269.642 119.812 267.619 119.812C266.225 119.812 264.9 120.044 263.642 120.509C262.385 120.974 261.319 121.589 260.444 122.354L259.132 120.181C260.226 119.252 261.538 118.541 263.068 118.049C264.599 117.53 266.212 117.27 267.906 117.27C270.694 117.27 272.84 117.967 274.343 119.361C275.874 120.728 276.639 122.819 276.639 125.634V139H273.851ZM266.43 139.205C264.818 139.205 263.41 138.945 262.207 138.426C261.032 137.879 260.13 137.141 259.501 136.212C258.873 135.255 258.558 134.162 258.558 132.932C258.558 131.811 258.818 130.8 259.337 129.898C259.884 128.969 260.759 128.231 261.961 127.684C263.191 127.11 264.831 126.823 266.881 126.823H274.302V128.996H266.963C264.886 128.996 263.437 129.365 262.617 130.103C261.825 130.841 261.428 131.757 261.428 132.85C261.428 134.08 261.907 135.064 262.863 135.802C263.82 136.54 265.159 136.909 266.881 136.909C268.521 136.909 269.929 136.54 271.104 135.802C272.307 135.037 273.182 133.943 273.728 132.522L274.384 134.531C273.838 135.952 272.881 137.087 271.514 137.934C270.175 138.781 268.48 139.205 266.43 139.205ZM291.352 139.205C289.329 139.205 287.771 138.658 286.678 137.565C285.584 136.472 285.038 134.927 285.038 132.932V112.719H287.949V132.768C287.949 134.025 288.263 134.996 288.892 135.679C289.548 136.362 290.477 136.704 291.68 136.704C292.964 136.704 294.03 136.335 294.878 135.597L295.903 137.688C295.329 138.207 294.632 138.59 293.812 138.836C293.019 139.082 292.199 139.205 291.352 139.205ZM281.184 119.894V117.475H294.509V119.894H281.184ZM314.691 139V134.244L314.568 133.465V125.511C314.568 123.68 314.049 122.272 313.01 121.288C311.999 120.304 310.482 119.812 308.459 119.812C307.065 119.812 305.739 120.044 304.482 120.509C303.225 120.974 302.159 121.589 301.284 122.354L299.972 120.181C301.065 119.252 302.377 118.541 303.908 118.049C305.439 117.53 307.051 117.27 308.746 117.27C311.534 117.27 313.68 117.967 315.183 119.361C316.714 120.728 317.479 122.819 317.479 125.634V139H314.691ZM307.27 139.205C305.657 139.205 304.25 138.945 303.047 138.426C301.872 137.879 300.97 137.141 300.341 136.212C299.712 135.255 299.398 134.162 299.398 132.932C299.398 131.811 299.658 130.8 300.177 129.898C300.724 128.969 301.598 128.231 302.801 127.684C304.031 127.11 305.671 126.823 307.721 126.823H315.142V128.996H307.803C305.726 128.996 304.277 129.365 303.457 130.103C302.664 130.841 302.268 131.757 302.268 132.85C302.268 134.08 302.746 135.064 303.703 135.802C304.66 136.54 305.999 136.909 307.721 136.909C309.361 136.909 310.769 136.54 311.944 135.802C313.147 135.037 314.021 133.943 314.568 132.522L315.224 134.531C314.677 135.952 313.721 137.087 312.354 137.934C311.015 138.781 309.32 139.205 307.27 139.205ZM325.386 139V108.578H328.297V139H325.386ZM345.17 139.205C343.093 139.205 341.221 138.74 339.553 137.811C337.913 136.854 336.615 135.556 335.658 133.916C334.702 132.249 334.223 130.349 334.223 128.217C334.223 126.058 334.702 124.158 335.658 122.518C336.615 120.878 337.913 119.593 339.553 118.664C341.193 117.735 343.066 117.27 345.17 117.27C347.302 117.27 349.188 117.735 350.828 118.664C352.496 119.593 353.794 120.878 354.723 122.518C355.68 124.158 356.158 126.058 356.158 128.217C356.158 130.349 355.68 132.249 354.723 133.916C353.794 135.556 352.496 136.854 350.828 137.811C349.161 138.74 347.275 139.205 345.17 139.205ZM345.17 136.622C346.728 136.622 348.109 136.28 349.311 135.597C350.514 134.886 351.457 133.902 352.14 132.645C352.851 131.36 353.206 129.884 353.206 128.217C353.206 126.522 352.851 125.046 352.14 123.789C351.457 122.532 350.514 121.561 349.311 120.878C348.109 120.167 346.742 119.812 345.211 119.812C343.681 119.812 342.314 120.167 341.111 120.878C339.909 121.561 338.952 122.532 338.241 123.789C337.531 125.046 337.175 126.522 337.175 128.217C337.175 129.884 337.531 131.36 338.241 132.645C338.952 133.902 339.909 134.886 341.111 135.597C342.314 136.28 343.667 136.622 345.17 136.622ZM371.285 147.159C369.317 147.159 367.431 146.872 365.627 146.298C363.823 145.724 362.361 144.904 361.24 143.838L362.716 141.624C363.728 142.526 364.971 143.237 366.447 143.756C367.951 144.303 369.536 144.576 371.203 144.576C373.937 144.576 375.946 143.934 377.23 142.649C378.515 141.392 379.157 139.424 379.157 136.745V131.374L379.567 127.684L379.28 123.994V117.475H382.068V136.376C382.068 140.093 381.153 142.813 379.321 144.535C377.517 146.284 374.839 147.159 371.285 147.159ZM370.752 138.18C368.702 138.18 366.857 137.743 365.217 136.868C363.577 135.966 362.279 134.722 361.322 133.137C360.393 131.552 359.928 129.734 359.928 127.684C359.928 125.634 360.393 123.83 361.322 122.272C362.279 120.687 363.577 119.457 365.217 118.582C366.857 117.707 368.702 117.27 370.752 117.27C372.666 117.27 374.388 117.666 375.918 118.459C377.449 119.252 378.665 120.427 379.567 121.985C380.469 123.543 380.92 125.443 380.92 127.684C380.92 129.925 380.469 131.825 379.567 133.383C378.665 134.941 377.449 136.13 375.918 136.95C374.388 137.77 372.666 138.18 370.752 138.18ZM371.039 135.597C372.625 135.597 374.032 135.269 375.262 134.613C376.492 133.93 377.463 133 378.173 131.825C378.884 130.622 379.239 129.242 379.239 127.684C379.239 126.126 378.884 124.759 378.173 123.584C377.463 122.409 376.492 121.493 375.262 120.837C374.032 120.154 372.625 119.812 371.039 119.812C369.481 119.812 368.074 120.154 366.816 120.837C365.586 121.493 364.616 122.409 363.905 123.584C363.222 124.759 362.88 126.126 362.88 127.684C362.88 129.242 363.222 130.622 363.905 131.825C364.616 133 365.586 133.93 366.816 134.613C368.074 135.269 369.481 135.597 371.039 135.597ZM399.066 139.205C397.235 139.205 395.636 138.863 394.269 138.18C392.902 137.497 391.836 136.472 391.071 135.105C390.333 133.738 389.964 132.03 389.964 129.98V117.475H392.875V129.652C392.875 131.948 393.435 133.684 394.556 134.859C395.704 136.007 397.303 136.581 399.353 136.581C400.856 136.581 402.155 136.28 403.248 135.679C404.369 135.05 405.216 134.148 405.79 132.973C406.391 131.798 406.692 130.39 406.692 128.75V117.475H409.603V139H406.815V133.096L407.266 134.162C406.583 135.747 405.517 136.991 404.068 137.893C402.647 138.768 400.979 139.205 399.066 139.205ZM426.859 139.205C424.617 139.205 422.649 138.74 420.955 137.811C419.26 136.854 417.934 135.556 416.978 133.916C416.021 132.249 415.543 130.349 415.543 128.217C415.543 126.085 415.994 124.199 416.896 122.559C417.825 120.919 419.082 119.634 420.668 118.705C422.28 117.748 424.084 117.27 426.08 117.27C428.102 117.27 429.893 117.735 431.451 118.664C433.036 119.566 434.28 120.851 435.182 122.518C436.084 124.158 436.535 126.058 436.535 128.217C436.535 128.354 436.521 128.504 436.494 128.668C436.494 128.805 436.494 128.955 436.494 129.119H417.757V126.946H434.936L433.788 127.807C433.788 126.249 433.446 124.869 432.763 123.666C432.107 122.436 431.205 121.479 430.057 120.796C428.909 120.113 427.583 119.771 426.08 119.771C424.604 119.771 423.278 120.113 422.103 120.796C420.927 121.479 420.012 122.436 419.356 123.666C418.7 124.896 418.372 126.304 418.372 127.889V128.34C418.372 129.98 418.727 131.429 419.438 132.686C420.176 133.916 421.187 134.886 422.472 135.597C423.784 136.28 425.273 136.622 426.941 136.622C428.253 136.622 429.469 136.39 430.59 135.925C431.738 135.46 432.722 134.75 433.542 133.793L435.182 135.679C434.225 136.827 433.022 137.702 431.574 138.303C430.152 138.904 428.581 139.205 426.859 139.205ZM456.511 124.199H471.681V126.823H456.511V124.199ZM456.839 139H453.805V110.3H473.485V112.924H456.839V139ZM478.735 139V117.475H481.523V123.338L481.236 122.313C481.838 120.673 482.849 119.429 484.27 118.582C485.692 117.707 487.455 117.27 489.559 117.27V120.099C489.45 120.099 489.341 120.099 489.231 120.099C489.122 120.072 489.013 120.058 488.903 120.058C486.635 120.058 484.858 120.755 483.573 122.149C482.289 123.516 481.646 125.47 481.646 128.012V139H478.735ZM506.758 139V134.244L506.635 133.465V125.511C506.635 123.68 506.116 122.272 505.077 121.288C504.066 120.304 502.549 119.812 500.526 119.812C499.132 119.812 497.807 120.044 496.549 120.509C495.292 120.974 494.226 121.589 493.351 122.354L492.039 120.181C493.133 119.252 494.445 118.541 495.975 118.049C497.506 117.53 499.119 117.27 500.813 117.27C503.601 117.27 505.747 117.967 507.25 119.361C508.781 120.728 509.546 122.819 509.546 125.634V139H506.758ZM499.337 139.205C497.725 139.205 496.317 138.945 495.114 138.426C493.939 137.879 493.037 137.141 492.408 136.212C491.78 135.255 491.465 134.162 491.465 132.932C491.465 131.811 491.725 130.8 492.244 129.898C492.791 128.969 493.666 128.231 494.868 127.684C496.098 127.11 497.738 126.823 499.788 126.823H507.209V128.996H499.87C497.793 128.996 496.344 129.365 495.524 130.103C494.732 130.841 494.335 131.757 494.335 132.85C494.335 134.08 494.814 135.064 495.77 135.802C496.727 136.54 498.066 136.909 499.788 136.909C501.428 136.909 502.836 136.54 504.011 135.802C505.214 135.037 506.089 133.943 506.635 132.522L507.291 134.531C506.745 135.952 505.788 137.087 504.421 137.934C503.082 138.781 501.387 139.205 499.337 139.205ZM544.349 117.27C546.098 117.27 547.615 117.612 548.9 118.295C550.212 118.951 551.223 119.962 551.934 121.329C552.672 122.696 553.041 124.418 553.041 126.495V139H550.13V126.782C550.13 124.513 549.583 122.805 548.49 121.657C547.424 120.482 545.907 119.894 543.939 119.894C542.463 119.894 541.178 120.208 540.085 120.837C539.019 121.438 538.185 122.327 537.584 123.502C537.01 124.65 536.723 126.044 536.723 127.684V139H533.812V126.782C533.812 124.513 533.265 122.805 532.172 121.657C531.079 120.482 529.548 119.894 527.58 119.894C526.131 119.894 524.86 120.208 523.767 120.837C522.674 121.438 521.826 122.327 521.225 123.502C520.651 124.65 520.364 126.044 520.364 127.684V139H517.453V117.475H520.241V123.297L519.79 122.272C520.446 120.714 521.498 119.498 522.947 118.623C524.423 117.721 526.159 117.27 528.154 117.27C530.259 117.27 532.049 117.803 533.525 118.869C535.001 119.908 535.958 121.479 536.395 123.584L535.247 123.133C535.876 121.384 536.983 119.976 538.568 118.91C540.181 117.817 542.108 117.27 544.349 117.27ZM570.078 139.205C567.837 139.205 565.869 138.74 564.174 137.811C562.48 136.854 561.154 135.556 560.197 133.916C559.241 132.249 558.762 130.349 558.762 128.217C558.762 126.085 559.213 124.199 560.115 122.559C561.045 120.919 562.302 119.634 563.887 118.705C565.5 117.748 567.304 117.27 569.299 117.27C571.322 117.27 573.112 117.735 574.67 118.664C576.256 119.566 577.499 120.851 578.401 122.518C579.303 124.158 579.754 126.058 579.754 128.217C579.754 128.354 579.741 128.504 579.713 128.668C579.713 128.805 579.713 128.955 579.713 129.119H560.976V126.946H578.155L577.007 127.807C577.007 126.249 576.666 124.869 575.982 123.666C575.326 122.436 574.424 121.479 573.276 120.796C572.128 120.113 570.803 119.771 569.299 119.771C567.823 119.771 566.498 120.113 565.322 120.796C564.147 121.479 563.231 122.436 562.575 123.666C561.919 124.896 561.591 126.304 561.591 127.889V128.34C561.591 129.98 561.947 131.429 562.657 132.686C563.395 133.916 564.407 134.886 565.691 135.597C567.003 136.28 568.493 136.622 570.16 136.622C571.472 136.622 572.689 136.39 573.809 135.925C574.957 135.46 575.941 134.75 576.761 133.793L578.401 135.679C577.445 136.827 576.242 137.702 574.793 138.303C573.372 138.904 571.8 139.205 570.078 139.205ZM594.249 139.205C592.199 139.205 590.354 138.74 588.714 137.811C587.101 136.882 585.83 135.597 584.901 133.957C583.971 132.29 583.507 130.376 583.507 128.217C583.507 126.03 583.971 124.117 584.901 122.477C585.83 120.837 587.101 119.566 588.714 118.664C590.354 117.735 592.199 117.27 594.249 117.27C596.135 117.27 597.816 117.694 599.292 118.541C600.795 119.388 601.984 120.632 602.859 122.272C603.761 123.885 604.212 125.866 604.212 128.217C604.212 130.54 603.774 132.522 602.9 134.162C602.025 135.802 600.836 137.059 599.333 137.934C597.857 138.781 596.162 139.205 594.249 139.205ZM594.454 136.622C595.984 136.622 597.351 136.28 598.554 135.597C599.784 134.886 600.74 133.902 601.424 132.645C602.134 131.36 602.49 129.884 602.49 128.217C602.49 126.522 602.134 125.046 601.424 123.789C600.74 122.532 599.784 121.561 598.554 120.878C597.351 120.167 595.984 119.812 594.454 119.812C592.95 119.812 591.597 120.167 590.395 120.878C589.192 121.561 588.235 122.532 587.525 123.789C586.814 125.046 586.459 126.522 586.459 128.217C586.459 129.884 586.814 131.36 587.525 132.645C588.235 133.902 589.192 134.886 590.395 135.597C591.597 136.28 592.95 136.622 594.454 136.622ZM602.572 139V132.522L602.859 128.176L602.449 123.83V108.578H605.36V139H602.572ZM631.331 139L621.655 110.3H624.771L633.832 137.319H632.274L641.622 110.3H644.41L653.635 137.319H652.159L661.302 110.3H664.213L654.537 139H651.339L642.524 113.375H643.344L634.488 139H631.331ZM681.008 139V134.244L680.885 133.465V125.511C680.885 123.68 680.366 122.272 679.327 121.288C678.316 120.304 676.799 119.812 674.776 119.812C673.382 119.812 672.057 120.044 670.799 120.509C669.542 120.974 668.476 121.589 667.601 122.354L666.289 120.181C667.383 119.252 668.695 118.541 670.225 118.049C671.756 117.53 673.369 117.27 675.063 117.27C677.851 117.27 679.997 117.967 681.5 119.361C683.031 120.728 683.796 122.819 683.796 125.634V139H681.008ZM673.587 139.205C671.975 139.205 670.567 138.945 669.364 138.426C668.189 137.879 667.287 137.141 666.658 136.212C666.03 135.255 665.715 134.162 665.715 132.932C665.715 131.811 665.975 130.8 666.494 129.898C667.041 128.969 667.916 128.231 669.118 127.684C670.348 127.11 671.988 126.823 674.038 126.823H681.459V128.996H674.12C672.043 128.996 670.594 129.365 669.774 130.103C668.982 130.841 668.585 131.757 668.585 132.85C668.585 134.08 669.064 135.064 670.02 135.802C670.977 136.54 672.316 136.909 674.038 136.909C675.678 136.909 677.086 136.54 678.261 135.802C679.464 135.037 680.339 133.943 680.885 132.522L681.541 134.531C680.995 135.952 680.038 137.087 678.671 137.934C677.332 138.781 675.637 139.205 673.587 139.205ZM698.509 139.205C696.486 139.205 694.928 138.658 693.835 137.565C692.742 136.472 692.195 134.927 692.195 132.932V112.719H695.106V132.768C695.106 134.025 695.42 134.996 696.049 135.679C696.705 136.362 697.634 136.704 698.837 136.704C700.122 136.704 701.188 136.335 702.035 135.597L703.06 137.688C702.486 138.207 701.789 138.59 700.969 138.836C700.176 139.082 699.356 139.205 698.509 139.205ZM688.341 119.894V117.475H701.666V119.894H688.341ZM716.742 139.205C714.5 139.205 712.532 138.74 710.838 137.811C709.143 136.854 707.817 135.556 706.861 133.916C705.904 132.249 705.426 130.349 705.426 128.217C705.426 126.085 705.877 124.199 706.779 122.559C707.708 120.919 708.965 119.634 710.551 118.705C712.163 117.748 713.967 117.27 715.963 117.27C717.985 117.27 719.776 117.735 721.334 118.664C722.919 119.566 724.163 120.851 725.065 122.518C725.967 124.158 726.418 126.058 726.418 128.217C726.418 128.354 726.404 128.504 726.377 128.668C726.377 128.805 726.377 128.955 726.377 129.119H707.64V126.946H724.819L723.671 127.807C723.671 126.249 723.329 124.869 722.646 123.666C721.99 122.436 721.088 121.479 719.94 120.796C718.792 120.113 717.466 119.771 715.963 119.771C714.487 119.771 713.161 120.113 711.986 120.796C710.81 121.479 709.895 122.436 709.239 123.666C708.583 124.896 708.255 126.304 708.255 127.889V128.34C708.255 129.98 708.61 131.429 709.321 132.686C710.059 133.916 711.07 134.886 712.355 135.597C713.667 136.28 715.156 136.622 716.824 136.622C718.136 136.622 719.352 136.39 720.473 135.925C721.621 135.46 722.605 134.75 723.425 133.793L725.065 135.679C724.108 136.827 722.905 137.702 721.457 138.303C720.035 138.904 718.464 139.205 716.742 139.205ZM732.343 139V117.475H735.131V123.338L734.844 122.313C735.445 120.673 736.456 119.429 737.878 118.582C739.299 117.707 741.062 117.27 743.167 117.27V120.099C743.057 120.099 742.948 120.099 742.839 120.099C742.729 120.072 742.62 120.058 742.511 120.058C740.242 120.058 738.465 120.755 737.181 122.149C735.896 123.516 735.254 125.47 735.254 128.012V139H732.343ZM775.374 117.27C777.124 117.27 778.641 117.612 779.925 118.295C781.237 118.951 782.249 119.962 782.959 121.329C783.697 122.696 784.066 124.418 784.066 126.495V139H781.155V126.782C781.155 124.513 780.609 122.805 779.515 121.657C778.449 120.482 776.932 119.894 774.964 119.894C773.488 119.894 772.204 120.208 771.11 120.837C770.044 121.438 769.211 122.327 768.609 123.502C768.035 124.65 767.748 126.044 767.748 127.684V139H764.837V126.782C764.837 124.513 764.291 122.805 763.197 121.657C762.104 120.482 760.573 119.894 758.605 119.894C757.157 119.894 755.886 120.208 754.792 120.837C753.699 121.438 752.852 122.327 752.25 123.502C751.676 124.65 751.389 126.044 751.389 127.684V139H748.478V117.475H751.266V123.297L750.815 122.272C751.471 120.714 752.524 119.498 753.972 118.623C755.448 117.721 757.184 117.27 759.179 117.27C761.284 117.27 763.074 117.803 764.55 118.869C766.026 119.908 766.983 121.479 767.42 123.584L766.272 123.133C766.901 121.384 768.008 119.976 769.593 118.91C771.206 117.817 773.133 117.27 775.374 117.27ZM805.45 139V134.244L805.327 133.465V125.511C805.327 123.68 804.808 122.272 803.769 121.288C802.758 120.304 801.241 119.812 799.218 119.812C797.824 119.812 796.498 120.044 795.241 120.509C793.984 120.974 792.918 121.589 792.043 122.354L790.731 120.181C791.824 119.252 793.136 118.541 794.667 118.049C796.198 117.53 797.81 117.27 799.505 117.27C802.293 117.27 804.439 117.967 805.942 119.361C807.473 120.728 808.238 122.819 808.238 125.634V139H805.45ZM798.029 139.205C796.416 139.205 795.009 138.945 793.806 138.426C792.631 137.879 791.729 137.141 791.1 136.212C790.471 135.255 790.157 134.162 790.157 132.932C790.157 131.811 790.417 130.8 790.936 129.898C791.483 128.969 792.357 128.231 793.56 127.684C794.79 127.11 796.43 126.823 798.48 126.823H805.901V128.996H798.562C796.485 128.996 795.036 129.365 794.216 130.103C793.423 130.841 793.027 131.757 793.027 132.85C793.027 134.08 793.505 135.064 794.462 135.802C795.419 136.54 796.758 136.909 798.48 136.909C800.12 136.909 801.528 136.54 802.703 135.802C803.906 135.037 804.78 133.943 805.327 132.522L805.983 134.531C805.436 135.952 804.48 137.087 803.113 137.934C801.774 138.781 800.079 139.205 798.029 139.205ZM816.144 139V117.475H818.932V123.338L818.645 122.313C819.247 120.673 820.258 119.429 821.679 118.582C823.101 117.707 824.864 117.27 826.968 117.27V120.099C826.859 120.099 826.75 120.099 826.64 120.099C826.531 120.072 826.422 120.058 826.312 120.058C824.044 120.058 822.267 120.755 820.982 122.149C819.698 123.516 819.055 125.47 819.055 128.012V139H816.144ZM834.576 133.424L834.658 129.693L848.065 117.475H851.632L842.161 126.536L840.521 127.93L834.576 133.424ZM832.28 139V108.578H835.191V139H832.28ZM848.967 139L839.988 127.807L841.874 125.552L852.534 139H848.967Z" fill="white"/>
</svg>
