<svg width="1080" height="272" viewBox="0 0 1080 272" fill="none" xmlns="http://www.w3.org/2000/svg">
<path d="M0 100C0 44.7715 44.7715 0 100 0H980C1035.23 0 1080 44.7715 1080 100V272H0V100Z" fill="#E03E18"/>
<path d="M291.827 210.814C288.162 210.814 284.746 210.226 281.579 209.05C278.457 207.828 275.743 206.109 273.435 203.892C271.128 201.675 269.318 199.073 268.006 196.087C266.739 193.101 266.105 189.821 266.105 186.246C266.105 182.672 266.739 179.392 268.006 176.405C269.318 173.419 271.128 170.818 273.435 168.601C275.788 166.384 278.525 164.687 281.647 163.511C284.769 162.289 288.185 161.678 291.895 161.678C296.013 161.678 299.723 162.402 303.026 163.85C306.374 165.252 309.179 167.334 311.441 170.094L304.383 176.609C302.754 174.754 300.944 173.374 298.953 172.469C296.963 171.519 294.791 171.044 292.438 171.044C290.221 171.044 288.185 171.406 286.33 172.13C284.475 172.854 282.869 173.894 281.511 175.252C280.154 176.609 279.091 178.215 278.322 180.07C277.598 181.925 277.236 183.984 277.236 186.246C277.236 188.509 277.598 190.567 278.322 192.422C279.091 194.277 280.154 195.883 281.511 197.241C282.869 198.598 284.475 199.639 286.33 200.363C288.185 201.087 290.221 201.449 292.438 201.449C294.791 201.449 296.963 200.996 298.953 200.091C300.944 199.141 302.754 197.716 304.383 195.816L311.441 202.331C309.179 205.091 306.374 207.195 303.026 208.643C299.723 210.09 295.99 210.814 291.827 210.814ZM340.25 210V202.874L339.572 201.313V188.554C339.572 186.292 338.871 184.527 337.468 183.26C336.111 181.993 334.007 181.36 331.156 181.36C329.211 181.36 327.288 181.677 325.387 182.31C323.532 182.898 321.949 183.713 320.637 184.753L316.836 177.356C318.827 175.953 321.225 174.867 324.03 174.098C326.835 173.329 329.686 172.944 332.581 172.944C338.147 172.944 342.467 174.256 345.544 176.881C348.621 179.505 350.159 183.599 350.159 189.165V210H340.25ZM329.12 210.543C326.27 210.543 323.826 210.068 321.79 209.118C319.754 208.122 318.193 206.788 317.108 205.114C316.022 203.439 315.479 201.562 315.479 199.48C315.479 197.309 315.999 195.408 317.04 193.78C318.126 192.151 319.822 190.884 322.13 189.979C324.437 189.029 327.446 188.554 331.156 188.554H340.861V194.73H332.31C329.821 194.73 328.102 195.137 327.152 195.951C326.247 196.766 325.795 197.784 325.795 199.005C325.795 200.363 326.315 201.449 327.356 202.263C328.441 203.032 329.912 203.417 331.767 203.417C333.532 203.417 335.115 203.01 336.518 202.195C337.92 201.336 338.938 200.091 339.572 198.462L341.201 203.349C340.431 205.702 339.029 207.489 336.993 208.711C334.957 209.932 332.333 210.543 329.12 210.543ZM372.025 210.543C368.903 210.543 365.895 210.181 362.999 209.457C360.148 208.688 357.886 207.738 356.212 206.607L359.741 199.005C361.415 200.046 363.384 200.906 365.646 201.584C367.953 202.218 370.216 202.535 372.433 202.535C374.876 202.535 376.595 202.24 377.59 201.652C378.631 201.064 379.151 200.25 379.151 199.209C379.151 198.349 378.744 197.716 377.93 197.309C377.161 196.856 376.12 196.517 374.808 196.291C373.496 196.064 372.048 195.838 370.464 195.612C368.926 195.386 367.365 195.092 365.781 194.73C364.198 194.323 362.75 193.734 361.438 192.965C360.126 192.196 359.063 191.155 358.248 189.843C357.479 188.531 357.094 186.834 357.094 184.753C357.094 182.446 357.75 180.41 359.063 178.645C360.42 176.881 362.365 175.501 364.899 174.505C367.433 173.464 370.464 172.944 373.994 172.944C376.482 172.944 379.016 173.216 381.595 173.759C384.174 174.302 386.323 175.093 388.042 176.134L384.513 183.667C382.748 182.627 380.961 181.925 379.151 181.563C377.387 181.156 375.668 180.953 373.994 180.953C371.641 180.953 369.921 181.269 368.836 181.903C367.75 182.536 367.207 183.351 367.207 184.346C367.207 185.251 367.591 185.93 368.36 186.382C369.175 186.834 370.238 187.196 371.55 187.468C372.862 187.739 374.288 187.988 375.826 188.214C377.41 188.395 378.993 188.69 380.577 189.097C382.16 189.504 383.585 190.092 384.852 190.861C386.164 191.585 387.228 192.603 388.042 193.915C388.857 195.182 389.264 196.856 389.264 198.938C389.264 201.2 388.585 203.213 387.228 204.978C385.87 206.697 383.902 208.054 381.323 209.05C378.789 210.045 375.69 210.543 372.025 210.543ZM408.08 210.543C404.958 210.543 401.949 210.181 399.054 209.457C396.203 208.688 393.941 207.738 392.267 206.607L395.796 199.005C397.47 200.046 399.438 200.906 401.701 201.584C404.008 202.218 406.27 202.535 408.487 202.535C410.931 202.535 412.65 202.24 413.645 201.652C414.686 201.064 415.206 200.25 415.206 199.209C415.206 198.349 414.799 197.716 413.985 197.309C413.215 196.856 412.175 196.517 410.863 196.291C409.551 196.064 408.103 195.838 406.519 195.612C404.981 195.386 403.42 195.092 401.836 194.73C400.253 194.323 398.805 193.734 397.493 192.965C396.181 192.196 395.117 191.155 394.303 189.843C393.534 188.531 393.149 186.834 393.149 184.753C393.149 182.446 393.805 180.41 395.117 178.645C396.475 176.881 398.42 175.501 400.954 174.505C403.488 173.464 406.519 172.944 410.048 172.944C412.537 172.944 415.07 173.216 417.649 173.759C420.228 174.302 422.378 175.093 424.097 176.134L420.568 183.667C418.803 182.627 417.016 181.925 415.206 181.563C413.442 181.156 411.722 180.953 410.048 180.953C407.696 180.953 405.976 181.269 404.89 181.903C403.804 182.536 403.261 183.351 403.261 184.346C403.261 185.251 403.646 185.93 404.415 186.382C405.23 186.834 406.293 187.196 407.605 187.468C408.917 187.739 410.342 187.988 411.881 188.214C413.464 188.395 415.048 188.69 416.631 189.097C418.215 189.504 419.64 190.092 420.907 190.861C422.219 191.585 423.282 192.603 424.097 193.915C424.911 195.182 425.319 196.856 425.319 198.938C425.319 201.2 424.64 203.213 423.282 204.978C421.925 206.697 419.957 208.054 417.378 209.05C414.844 210.045 411.745 210.543 408.08 210.543ZM447.257 210.543C444.225 210.543 441.511 209.955 439.113 208.778C436.76 207.602 434.927 205.815 433.615 203.417C432.303 200.974 431.647 197.874 431.647 194.119V173.487H442.235V192.558C442.235 195.589 442.868 197.829 444.135 199.277C445.447 200.679 447.279 201.381 449.632 201.381C451.261 201.381 452.709 201.041 453.976 200.363C455.243 199.639 456.238 198.553 456.962 197.105C457.686 195.612 458.048 193.757 458.048 191.54V173.487H468.635V210H458.591V199.956L460.423 202.874C459.202 205.408 457.392 207.331 454.994 208.643C452.641 209.91 450.062 210.543 447.257 210.543ZM500.84 210V202.874L500.161 201.313V188.554C500.161 186.292 499.46 184.527 498.057 183.26C496.7 181.993 494.596 181.36 491.746 181.36C489.8 181.36 487.877 181.677 485.977 182.31C484.122 182.898 482.538 183.713 481.226 184.753L477.426 177.356C479.416 175.953 481.814 174.867 484.62 174.098C487.425 173.329 490.275 172.944 493.171 172.944C498.736 172.944 503.057 174.256 506.134 176.881C509.21 179.505 510.749 183.599 510.749 189.165V210H500.84ZM489.71 210.543C486.859 210.543 484.416 210.068 482.38 209.118C480.344 208.122 478.783 206.788 477.697 205.114C476.611 203.439 476.068 201.562 476.068 199.48C476.068 197.309 476.589 195.408 477.629 193.78C478.715 192.151 480.412 190.884 482.719 189.979C485.027 189.029 488.036 188.554 491.746 188.554H501.451V194.73H492.899C490.411 194.73 488.692 195.137 487.742 195.951C486.837 196.766 486.384 197.784 486.384 199.005C486.384 200.363 486.904 201.449 487.945 202.263C489.031 203.032 490.501 203.417 492.357 203.417C494.121 203.417 495.705 203.01 497.107 202.195C498.51 201.336 499.528 200.091 500.161 198.462L501.79 203.349C501.021 205.702 499.618 207.489 497.582 208.711C495.546 209.932 492.922 210.543 489.71 210.543ZM520.331 210V159.642H530.918V210H520.331ZM570.891 183.871H593.695V192.694H570.891V183.871ZM571.706 210H560.711V162.493H596.613V171.315H571.706V210ZM602.647 210V173.487H612.759V183.803L611.334 180.817C612.42 178.238 614.162 176.292 616.56 174.98C618.958 173.623 621.876 172.944 625.315 172.944V182.717C624.862 182.672 624.455 182.649 624.093 182.649C623.731 182.604 623.347 182.581 622.94 182.581C620.044 182.581 617.691 183.418 615.881 185.093C614.117 186.721 613.234 189.278 613.234 192.762V210H602.647ZM651.621 210V202.874L650.942 201.313V188.554C650.942 186.292 650.241 184.527 648.838 183.26C647.481 181.993 645.377 181.36 642.526 181.36C640.581 181.36 638.658 181.677 636.757 182.31C634.902 182.898 633.319 183.713 632.007 184.753L628.206 177.356C630.197 175.953 632.595 174.867 635.4 174.098C638.205 173.329 641.056 172.944 643.951 172.944C649.517 172.944 653.838 174.256 656.914 176.881C659.991 179.505 661.529 183.599 661.529 189.165V210H651.621ZM640.49 210.543C637.64 210.543 635.196 210.068 633.16 209.118C631.124 208.122 629.563 206.788 628.478 205.114C627.392 203.439 626.849 201.562 626.849 199.48C626.849 197.309 627.369 195.408 628.41 193.78C629.496 192.151 631.192 190.884 633.5 189.979C635.807 189.029 638.816 188.554 642.526 188.554H652.231V194.73H643.68C641.191 194.73 639.472 195.137 638.522 195.951C637.617 196.766 637.165 197.784 637.165 199.005C637.165 200.363 637.685 201.449 638.726 202.263C639.812 203.032 641.282 203.417 643.137 203.417C644.902 203.417 646.485 203.01 647.888 202.195C649.29 201.336 650.308 200.091 650.942 198.462L652.571 203.349C651.801 205.702 650.399 207.489 648.363 208.711C646.327 209.932 643.703 210.543 640.49 210.543ZM717.872 172.944C720.768 172.944 723.324 173.532 725.541 174.709C727.804 175.84 729.568 177.604 730.835 180.002C732.147 182.355 732.803 185.387 732.803 189.097V210H722.216V190.726C722.216 187.785 721.605 185.613 720.383 184.21C719.162 182.808 717.442 182.106 715.225 182.106C713.687 182.106 712.307 182.468 711.085 183.192C709.864 183.871 708.914 184.912 708.235 186.314C707.556 187.717 707.217 189.504 707.217 191.676V210H696.63V190.726C696.63 187.785 696.019 185.613 694.797 184.21C693.621 182.808 691.924 182.106 689.707 182.106C688.169 182.106 686.789 182.468 685.567 183.192C684.346 183.871 683.395 184.912 682.717 186.314C682.038 187.717 681.699 189.504 681.699 191.676V210H671.111V173.487H681.224V183.464L679.323 180.545C680.59 178.057 682.377 176.179 684.685 174.912C687.038 173.6 689.707 172.944 692.693 172.944C696.041 172.944 698.96 173.804 701.448 175.523C703.982 177.197 705.656 179.776 706.47 183.26L702.738 182.242C703.959 179.392 705.905 177.129 708.574 175.455C711.289 173.781 714.388 172.944 717.872 172.944ZM760.679 210.543C756.516 210.543 752.851 209.729 749.684 208.1C746.562 206.471 744.142 204.254 742.422 201.449C740.703 198.598 739.843 195.363 739.843 191.744C739.843 188.079 740.68 184.844 742.355 182.038C744.074 179.188 746.404 176.971 749.345 175.387C752.286 173.759 755.611 172.944 759.321 172.944C762.896 172.944 766.108 173.713 768.959 175.252C771.854 176.745 774.139 178.917 775.813 181.767C777.487 184.572 778.324 187.943 778.324 191.879C778.324 192.287 778.302 192.762 778.257 193.305C778.211 193.802 778.166 194.277 778.121 194.73H748.463V188.554H772.556L768.484 190.386C768.484 188.486 768.099 186.834 767.33 185.432C766.561 184.029 765.497 182.943 764.14 182.174C762.783 181.36 761.199 180.953 759.389 180.953C757.58 180.953 755.973 181.36 754.571 182.174C753.213 182.943 752.15 184.052 751.381 185.5C750.612 186.902 750.227 188.576 750.227 190.522V192.151C750.227 194.142 750.657 195.906 751.517 197.444C752.422 198.938 753.666 200.091 755.249 200.906C756.878 201.675 758.779 202.059 760.95 202.059C762.896 202.059 764.593 201.765 766.04 201.177C767.533 200.589 768.891 199.707 770.112 198.53L775.745 204.638C774.071 206.539 771.967 208.009 769.434 209.05C766.9 210.045 763.982 210.543 760.679 210.543ZM797.657 210.543C794.535 210.543 791.527 210.181 788.631 209.457C785.78 208.688 783.518 207.738 781.844 206.607L785.373 199.005C787.047 200.046 789.015 200.906 791.278 201.584C793.585 202.218 795.847 202.535 798.064 202.535C800.508 202.535 802.227 202.24 803.222 201.652C804.263 201.064 804.783 200.25 804.783 199.209C804.783 198.349 804.376 197.716 803.562 197.309C802.793 196.856 801.752 196.517 800.44 196.291C799.128 196.064 797.68 195.838 796.096 195.612C794.558 195.386 792.997 195.092 791.413 194.73C789.83 194.323 788.382 193.734 787.07 192.965C785.758 192.196 784.694 191.155 783.88 189.843C783.111 188.531 782.726 186.834 782.726 184.753C782.726 182.446 783.382 180.41 784.694 178.645C786.052 176.881 787.997 175.501 790.531 174.505C793.065 173.464 796.096 172.944 799.625 172.944C802.114 172.944 804.648 173.216 807.227 173.759C809.806 174.302 811.955 175.093 813.674 176.134L810.145 183.667C808.38 182.627 806.593 181.925 804.783 181.563C803.019 181.156 801.299 180.953 799.625 180.953C797.273 180.953 795.553 181.269 794.467 181.903C793.382 182.536 792.839 183.351 792.839 184.346C792.839 185.251 793.223 185.93 793.992 186.382C794.807 186.834 795.87 187.196 797.182 187.468C798.494 187.739 799.92 187.988 801.458 188.214C803.041 188.395 804.625 188.69 806.209 189.097C807.792 189.504 809.217 190.092 810.484 190.861C811.796 191.585 812.86 192.603 813.674 193.915C814.488 195.182 814.896 196.856 814.896 198.938C814.896 201.2 814.217 203.213 812.86 204.978C811.502 206.697 809.534 208.054 806.955 209.05C804.421 210.045 801.322 210.543 797.657 210.543Z" fill="white"/>
<path d="M275.122 98V71.924H265.036V69.3H288.242V71.924H278.156V98H275.122ZM299.374 98.205C297.133 98.205 295.165 97.7403 293.47 96.811C291.776 95.8543 290.45 94.556 289.493 92.916C288.537 91.2487 288.058 89.349 288.058 87.217C288.058 85.085 288.509 83.199 289.411 81.559C290.341 79.919 291.598 78.6343 293.183 77.705C294.796 76.7483 296.6 76.27 298.595 76.27C300.618 76.27 302.408 76.7347 303.966 77.664C305.552 78.566 306.795 79.8507 307.697 81.518C308.599 83.158 309.05 85.0577 309.05 87.217C309.05 87.3537 309.037 87.504 309.009 87.668C309.009 87.8047 309.009 87.955 309.009 88.119H290.272V85.946H307.451L306.303 86.807C306.303 85.249 305.962 83.8687 305.278 82.666C304.622 81.436 303.72 80.4793 302.572 79.796C301.424 79.1127 300.099 78.771 298.595 78.771C297.119 78.771 295.794 79.1127 294.618 79.796C293.443 80.4793 292.527 81.436 291.871 82.666C291.215 83.896 290.887 85.3037 290.887 86.889V87.34C290.887 88.98 291.243 90.4287 291.953 91.686C292.691 92.916 293.703 93.8863 294.987 94.597C296.299 95.2803 297.789 95.622 299.456 95.622C300.768 95.622 301.985 95.3897 303.105 94.925C304.253 94.4603 305.237 93.7497 306.057 92.793L307.697 94.679C306.741 95.827 305.538 96.7017 304.089 97.303C302.668 97.9043 301.096 98.205 299.374 98.205ZM341.872 76.27C343.621 76.27 345.138 76.6117 346.423 77.295C347.735 77.951 348.746 78.9623 349.457 80.329C350.195 81.6957 350.564 83.4177 350.564 85.495V98H347.653V85.782C347.653 83.5133 347.106 81.805 346.013 80.657C344.947 79.4817 343.43 78.894 341.462 78.894C339.986 78.894 338.701 79.2083 337.608 79.837C336.542 80.4383 335.708 81.3267 335.107 82.502C334.533 83.65 334.246 85.044 334.246 86.684V98H331.335V85.782C331.335 83.5133 330.788 81.805 329.695 80.657C328.601 79.4817 327.071 78.894 325.103 78.894C323.654 78.894 322.383 79.2083 321.29 79.837C320.196 80.4383 319.349 81.3267 318.748 82.502C318.174 83.65 317.887 85.044 317.887 86.684V98H314.976V76.475H317.764V82.297L317.313 81.272C317.969 79.714 319.021 78.4977 320.47 77.623C321.946 76.721 323.681 76.27 325.677 76.27C327.781 76.27 329.572 76.803 331.048 77.869C332.524 78.9077 333.48 80.4793 333.918 82.584L332.77 82.133C333.398 80.3837 334.505 78.976 336.091 77.91C337.703 76.8167 339.63 76.27 341.872 76.27ZM369.569 98.205C367.71 98.205 366.029 97.7813 364.526 96.934C363.023 96.0593 361.82 94.8157 360.918 93.203C360.043 91.563 359.606 89.5677 359.606 87.217C359.606 84.8663 360.043 82.8847 360.918 81.272C361.793 79.632 362.982 78.3883 364.485 77.541C365.988 76.6937 367.683 76.27 369.569 76.27C371.619 76.27 373.45 76.7347 375.063 77.664C376.703 78.566 377.988 79.8507 378.917 81.518C379.846 83.158 380.311 85.0577 380.311 87.217C380.311 89.4037 379.846 91.317 378.917 92.957C377.988 94.597 376.703 95.8817 375.063 96.811C373.45 97.7403 371.619 98.205 369.569 98.205ZM358.458 105.954V76.475H361.246V82.953L360.959 87.258L361.369 91.604V105.954H358.458ZM369.364 95.622C370.895 95.622 372.261 95.2803 373.464 94.597C374.667 93.8863 375.623 92.9023 376.334 91.645C377.045 90.3603 377.4 88.8843 377.4 87.217C377.4 85.5497 377.045 84.0873 376.334 82.83C375.623 81.5727 374.667 80.5887 373.464 79.878C372.261 79.1673 370.895 78.812 369.364 78.812C367.833 78.812 366.453 79.1673 365.223 79.878C364.02 80.5887 363.064 81.5727 362.353 82.83C361.67 84.0873 361.328 85.5497 361.328 87.217C361.328 88.8843 361.67 90.3603 362.353 91.645C363.064 92.9023 364.02 93.8863 365.223 94.597C366.453 95.2803 367.833 95.622 369.364 95.622ZM386.245 98V67.578H389.156V98H386.245ZM410.745 98V93.244L410.622 92.465V84.511C410.622 82.6797 410.102 81.272 409.064 80.288C408.052 79.304 406.535 78.812 404.513 78.812C403.119 78.812 401.793 79.0443 400.536 79.509C399.278 79.9737 398.212 80.5887 397.338 81.354L396.026 79.181C397.119 78.2517 398.431 77.541 399.962 77.049C401.492 76.5297 403.105 76.27 404.8 76.27C407.588 76.27 409.733 76.967 411.237 78.361C412.767 79.7277 413.533 81.8187 413.533 84.634V98H410.745ZM403.324 98.205C401.711 98.205 400.303 97.9453 399.101 97.426C397.925 96.8793 397.023 96.1413 396.395 95.212C395.766 94.2553 395.452 93.162 395.452 91.932C395.452 90.8113 395.711 89.8 396.231 88.898C396.777 87.9687 397.652 87.2307 398.855 86.684C400.085 86.11 401.725 85.823 403.775 85.823H411.196V87.996H403.857C401.779 87.996 400.331 88.365 399.511 89.103C398.718 89.841 398.322 90.7567 398.322 91.85C398.322 93.08 398.8 94.064 399.757 94.802C400.713 95.54 402.053 95.909 403.775 95.909C405.415 95.909 406.822 95.54 407.998 94.802C409.2 94.0367 410.075 92.9433 410.622 91.522L411.278 93.531C410.731 94.9523 409.774 96.0867 408.408 96.934C407.068 97.7813 405.374 98.205 403.324 98.205ZM428.245 98.205C426.223 98.205 424.665 97.6583 423.571 96.565C422.478 95.4717 421.931 93.9273 421.931 91.932V71.719H424.842V91.768C424.842 93.0253 425.157 93.9957 425.785 94.679C426.441 95.3623 427.371 95.704 428.573 95.704C429.858 95.704 430.924 95.335 431.771 94.597L432.796 96.688C432.222 97.2073 431.525 97.59 430.705 97.836C429.913 98.082 429.093 98.205 428.245 98.205ZM418.077 78.894V76.475H431.402V78.894H418.077ZM446.478 98.205C444.237 98.205 442.269 97.7403 440.574 96.811C438.879 95.8543 437.554 94.556 436.597 92.916C435.64 91.2487 435.162 89.349 435.162 87.217C435.162 85.085 435.613 83.199 436.515 81.559C437.444 79.919 438.702 78.6343 440.287 77.705C441.9 76.7483 443.704 76.27 445.699 76.27C447.722 76.27 449.512 76.7347 451.07 77.664C452.655 78.566 453.899 79.8507 454.801 81.518C455.703 83.158 456.154 85.0577 456.154 87.217C456.154 87.3537 456.14 87.504 456.113 87.668C456.113 87.8047 456.113 87.955 456.113 88.119H437.376V85.946H454.555L453.407 86.807C453.407 85.249 453.065 83.8687 452.382 82.666C451.726 81.436 450.824 80.4793 449.676 79.796C448.528 79.1127 447.202 78.771 445.699 78.771C444.223 78.771 442.897 79.1127 441.722 79.796C440.547 80.4793 439.631 81.436 438.975 82.666C438.319 83.896 437.991 85.3037 437.991 86.889V87.34C437.991 88.98 438.346 90.4287 439.057 91.686C439.795 92.916 440.806 93.8863 442.091 94.597C443.403 95.2803 444.893 95.622 446.56 95.622C447.872 95.622 449.088 95.3897 450.209 94.925C451.357 94.4603 452.341 93.7497 453.161 92.793L454.801 94.679C453.844 95.827 452.642 96.7017 451.193 97.303C449.772 97.9043 448.2 98.205 446.478 98.205ZM473.424 98V69.3H476.458V98H473.424ZM496.17 76.27C497.919 76.27 499.45 76.6117 500.762 77.295C502.101 77.951 503.14 78.9623 503.878 80.329C504.643 81.6957 505.026 83.4177 505.026 85.495V98H502.115V85.782C502.115 83.5133 501.541 81.805 500.393 80.657C499.272 79.4817 497.687 78.894 495.637 78.894C494.106 78.894 492.767 79.2083 491.619 79.837C490.498 80.4383 489.623 81.3267 488.995 82.502C488.393 83.65 488.093 85.044 488.093 86.684V98H485.182V76.475H487.97V82.379L487.519 81.272C488.202 79.714 489.295 78.4977 490.799 77.623C492.302 76.721 494.092 76.27 496.17 76.27ZM518.67 98.205C516.893 98.205 515.212 97.959 513.627 97.467C512.041 96.9477 510.798 96.3053 509.896 95.54L511.208 93.244C512.082 93.9 513.203 94.474 514.57 94.966C515.936 95.4307 517.371 95.663 518.875 95.663C520.925 95.663 522.401 95.3487 523.303 94.72C524.205 94.064 524.656 93.203 524.656 92.137C524.656 91.3443 524.396 90.7293 523.877 90.292C523.385 89.8273 522.729 89.4857 521.909 89.267C521.089 89.021 520.173 88.816 519.162 88.652C518.15 88.488 517.139 88.2967 516.128 88.078C515.144 87.8593 514.242 87.545 513.422 87.135C512.602 86.6977 511.932 86.11 511.413 85.372C510.921 84.634 510.675 83.65 510.675 82.42C510.675 81.2447 511.003 80.1923 511.659 79.263C512.315 78.3337 513.271 77.6093 514.529 77.09C515.813 76.5433 517.371 76.27 519.203 76.27C520.597 76.27 521.991 76.4613 523.385 76.844C524.779 77.1993 525.927 77.6777 526.829 78.279L525.558 80.616C524.601 79.96 523.576 79.4953 522.483 79.222C521.389 78.9213 520.296 78.771 519.203 78.771C517.262 78.771 515.827 79.1127 514.898 79.796C513.996 80.452 513.545 81.2993 513.545 82.338C513.545 83.158 513.791 83.8003 514.283 84.265C514.802 84.7297 515.472 85.0987 516.292 85.372C517.139 85.618 518.055 85.823 519.039 85.987C520.05 86.151 521.048 86.356 522.032 86.602C523.043 86.8207 523.959 87.135 524.779 87.545C525.626 87.9277 526.296 88.488 526.788 89.226C527.307 89.9367 527.567 90.8797 527.567 92.055C527.567 93.3123 527.211 94.4057 526.501 95.335C525.817 96.237 524.806 96.9477 523.467 97.467C522.155 97.959 520.556 98.205 518.67 98.205ZM539.714 98.205C537.691 98.205 536.133 97.6583 535.04 96.565C533.947 95.4717 533.4 93.9273 533.4 91.932V71.719H536.311V91.768C536.311 93.0253 536.625 93.9957 537.254 94.679C537.91 95.3623 538.839 95.704 540.042 95.704C541.327 95.704 542.393 95.335 543.24 94.597L544.265 96.688C543.691 97.2073 542.994 97.59 542.174 97.836C541.381 98.082 540.561 98.205 539.714 98.205ZM529.546 78.894V76.475H542.871V78.894H529.546ZM563.053 98V93.244L562.93 92.465V84.511C562.93 82.6797 562.411 81.272 561.372 80.288C560.361 79.304 558.844 78.812 556.821 78.812C555.427 78.812 554.102 79.0443 552.844 79.509C551.587 79.9737 550.521 80.5887 549.646 81.354L548.334 79.181C549.428 78.2517 550.74 77.541 552.27 77.049C553.801 76.5297 555.414 76.27 557.108 76.27C559.896 76.27 562.042 76.967 563.545 78.361C565.076 79.7277 565.841 81.8187 565.841 84.634V98H563.053ZM555.632 98.205C554.02 98.205 552.612 97.9453 551.409 97.426C550.234 96.8793 549.332 96.1413 548.703 95.212C548.075 94.2553 547.76 93.162 547.76 91.932C547.76 90.8113 548.02 89.8 548.539 88.898C549.086 87.9687 549.961 87.2307 551.163 86.684C552.393 86.11 554.033 85.823 556.083 85.823H563.504V87.996H556.165C554.088 87.996 552.639 88.365 551.819 89.103C551.027 89.841 550.63 90.7567 550.63 91.85C550.63 93.08 551.109 94.064 552.065 94.802C553.022 95.54 554.361 95.909 556.083 95.909C557.723 95.909 559.131 95.54 560.306 94.802C561.509 94.0367 562.384 92.9433 562.93 91.522L563.586 93.531C563.04 94.9523 562.083 96.0867 560.716 96.934C559.377 97.7813 557.682 98.205 555.632 98.205ZM582.932 106.159C580.964 106.159 579.078 105.872 577.274 105.298C575.47 104.724 574.008 103.904 572.887 102.838L574.363 100.624C575.374 101.526 576.618 102.237 578.094 102.756C579.597 103.303 581.183 103.576 582.85 103.576C585.583 103.576 587.592 102.934 588.877 101.649C590.162 100.392 590.804 98.4237 590.804 95.745V90.374L591.214 86.684L590.927 82.994V76.475H593.715V95.376C593.715 99.0933 592.799 101.813 590.968 103.535C589.164 105.284 586.485 106.159 582.932 106.159ZM582.399 97.18C580.349 97.18 578.504 96.7427 576.864 95.868C575.224 94.966 573.926 93.7223 572.969 92.137C572.04 90.5517 571.575 88.734 571.575 86.684C571.575 84.634 572.04 82.83 572.969 81.272C573.926 79.6867 575.224 78.4567 576.864 77.582C578.504 76.7073 580.349 76.27 582.399 76.27C584.312 76.27 586.034 76.6663 587.565 77.459C589.096 78.2517 590.312 79.427 591.214 80.985C592.116 82.543 592.567 84.4427 592.567 86.684C592.567 88.9253 592.116 90.825 591.214 92.383C590.312 93.941 589.096 95.13 587.565 95.95C586.034 96.77 584.312 97.18 582.399 97.18ZM582.686 94.597C584.271 94.597 585.679 94.269 586.909 93.613C588.139 92.9297 589.109 92.0003 589.82 90.825C590.531 89.6223 590.886 88.242 590.886 86.684C590.886 85.126 590.531 83.7593 589.82 82.584C589.109 81.4087 588.139 80.493 586.909 79.837C585.679 79.1537 584.271 78.812 582.686 78.812C581.128 78.812 579.72 79.1537 578.463 79.837C577.233 80.493 576.263 81.4087 575.552 82.584C574.869 83.7593 574.527 85.126 574.527 86.684C574.527 88.242 574.869 89.6223 575.552 90.825C576.263 92.0003 577.233 92.9297 578.463 93.613C579.72 94.269 581.128 94.597 582.686 94.597ZM601.815 98V76.475H604.603V82.338L604.316 81.313C604.918 79.673 605.929 78.4293 607.35 77.582C608.772 76.7073 610.535 76.27 612.639 76.27V79.099C612.53 79.099 612.421 79.099 612.311 79.099C612.202 79.0717 612.093 79.058 611.983 79.058C609.715 79.058 607.938 79.755 606.653 81.149C605.369 82.5157 604.726 84.47 604.726 87.012V98H601.815ZM629.839 98V93.244L629.716 92.465V84.511C629.716 82.6797 629.196 81.272 628.158 80.288C627.146 79.304 625.629 78.812 623.607 78.812C622.213 78.812 620.887 79.0443 619.63 79.509C618.372 79.9737 617.306 80.5887 616.432 81.354L615.12 79.181C616.213 78.2517 617.525 77.541 619.056 77.049C620.586 76.5297 622.199 76.27 623.894 76.27C626.682 76.27 628.827 76.967 630.331 78.361C631.861 79.7277 632.627 81.8187 632.627 84.634V98H629.839ZM622.418 98.205C620.805 98.205 619.397 97.9453 618.195 97.426C617.019 96.8793 616.117 96.1413 615.489 95.212C614.86 94.2553 614.546 93.162 614.546 91.932C614.546 90.8113 614.805 89.8 615.325 88.898C615.871 87.9687 616.746 87.2307 617.949 86.684C619.179 86.11 620.819 85.823 622.869 85.823H630.29V87.996H622.951C620.873 87.996 619.425 88.365 618.605 89.103C617.812 89.841 617.416 90.7567 617.416 91.85C617.416 93.08 617.894 94.064 618.851 94.802C619.807 95.54 621.147 95.909 622.869 95.909C624.509 95.909 625.916 95.54 627.092 94.802C628.294 94.0367 629.169 92.9433 629.716 91.522L630.372 93.531C629.825 94.9523 628.868 96.0867 627.502 96.934C626.162 97.7813 624.468 98.205 622.418 98.205ZM667.429 76.27C669.178 76.27 670.695 76.6117 671.98 77.295C673.292 77.951 674.303 78.9623 675.014 80.329C675.752 81.6957 676.121 83.4177 676.121 85.495V98H673.21V85.782C673.21 83.5133 672.663 81.805 671.57 80.657C670.504 79.4817 668.987 78.894 667.019 78.894C665.543 78.894 664.258 79.2083 663.165 79.837C662.099 80.4383 661.265 81.3267 660.664 82.502C660.09 83.65 659.803 85.044 659.803 86.684V98H656.892V85.782C656.892 83.5133 656.345 81.805 655.252 80.657C654.159 79.4817 652.628 78.894 650.66 78.894C649.211 78.894 647.94 79.2083 646.847 79.837C645.754 80.4383 644.906 81.3267 644.305 82.502C643.731 83.65 643.444 85.044 643.444 86.684V98H640.533V76.475H643.321V82.297L642.87 81.272C643.526 79.714 644.578 78.4977 646.027 77.623C647.503 76.721 649.239 76.27 651.234 76.27C653.339 76.27 655.129 76.803 656.605 77.869C658.081 78.9077 659.038 80.4793 659.475 82.584L658.327 82.133C658.956 80.3837 660.063 78.976 661.648 77.91C663.261 76.8167 665.188 76.27 667.429 76.27ZM695.361 98V69.3H706.103C708.536 69.3 710.627 69.6963 712.376 70.489C714.125 71.2543 715.465 72.375 716.394 73.851C717.351 75.2997 717.829 77.0627 717.829 79.14C717.829 81.1627 717.351 82.912 716.394 84.388C715.465 85.8367 714.125 86.9573 712.376 87.75C710.627 88.5427 708.536 88.939 706.103 88.939H697.042L698.395 87.504V98H695.361ZM698.395 87.75L697.042 86.274H706.021C708.891 86.274 711.064 85.659 712.54 84.429C714.043 83.1717 714.795 81.4087 714.795 79.14C714.795 76.844 714.043 75.0673 712.54 73.81C711.064 72.5527 708.891 71.924 706.021 71.924H697.042L698.395 70.489V87.75ZM735.163 76.27C736.912 76.27 738.443 76.6117 739.755 77.295C741.094 77.951 742.133 78.9623 742.871 80.329C743.636 81.6957 744.019 83.4177 744.019 85.495V98H741.108V85.782C741.108 83.5133 740.534 81.805 739.386 80.657C738.265 79.4817 736.68 78.894 734.63 78.894C733.099 78.894 731.76 79.2083 730.612 79.837C729.491 80.4383 728.616 81.3267 727.988 82.502C727.386 83.65 727.086 85.044 727.086 86.684V98H724.175V67.578H727.086V82.379L726.512 81.272C727.195 79.714 728.288 78.4977 729.792 77.623C731.295 76.721 733.085 76.27 735.163 76.27ZM760.656 98.205C758.578 98.205 756.706 97.7403 755.039 96.811C753.399 95.8543 752.1 94.556 751.144 92.916C750.187 91.2487 749.709 89.349 749.709 87.217C749.709 85.0577 750.187 83.158 751.144 81.518C752.1 79.878 753.399 78.5933 755.039 77.664C756.679 76.7347 758.551 76.27 760.656 76.27C762.788 76.27 764.674 76.7347 766.314 77.664C767.981 78.5933 769.279 79.878 770.209 81.518C771.165 83.158 771.644 85.0577 771.644 87.217C771.644 89.349 771.165 91.2487 770.209 92.916C769.279 94.556 767.981 95.8543 766.314 96.811C764.646 97.7403 762.76 98.205 760.656 98.205ZM760.656 95.622C762.214 95.622 763.594 95.2803 764.797 94.597C765.999 93.8863 766.942 92.9023 767.626 91.645C768.336 90.3603 768.692 88.8843 768.692 87.217C768.692 85.5223 768.336 84.0463 767.626 82.789C766.942 81.5317 765.999 80.5613 764.797 79.878C763.594 79.1673 762.227 78.812 760.697 78.812C759.166 78.812 757.799 79.1673 756.597 79.878C755.394 80.5613 754.437 81.5317 753.727 82.789C753.016 84.0463 752.661 85.5223 752.661 87.217C752.661 88.8843 753.016 90.3603 753.727 91.645C754.437 92.9023 755.394 93.8863 756.597 94.597C757.799 95.2803 759.152 95.622 760.656 95.622ZM784.393 98.205C782.37 98.205 780.812 97.6583 779.719 96.565C778.625 95.4717 778.079 93.9273 778.079 91.932V71.719H780.99V91.768C780.99 93.0253 781.304 93.9957 781.933 94.679C782.589 95.3623 783.518 95.704 784.721 95.704C786.005 95.704 787.071 95.335 787.919 94.597L788.944 96.688C788.37 97.2073 787.673 97.59 786.853 97.836C786.06 98.082 785.24 98.205 784.393 98.205ZM774.225 78.894V76.475H787.55V78.894H774.225ZM802.256 98.205C800.179 98.205 798.307 97.7403 796.639 96.811C794.999 95.8543 793.701 94.556 792.744 92.916C791.788 91.2487 791.309 89.349 791.309 87.217C791.309 85.0577 791.788 83.158 792.744 81.518C793.701 79.878 794.999 78.5933 796.639 77.664C798.279 76.7347 800.152 76.27 802.256 76.27C804.388 76.27 806.274 76.7347 807.914 77.664C809.582 78.5933 810.88 79.878 811.809 81.518C812.766 83.158 813.244 85.0577 813.244 87.217C813.244 89.349 812.766 91.2487 811.809 92.916C810.88 94.556 809.582 95.8543 807.914 96.811C806.247 97.7403 804.361 98.205 802.256 98.205ZM802.256 95.622C803.814 95.622 805.195 95.2803 806.397 94.597C807.6 93.8863 808.543 92.9023 809.226 91.645C809.937 90.3603 810.292 88.8843 810.292 87.217C810.292 85.5223 809.937 84.0463 809.226 82.789C808.543 81.5317 807.6 80.5613 806.397 79.878C805.195 79.1673 803.828 78.812 802.297 78.812C800.767 78.812 799.4 79.1673 798.197 79.878C796.995 80.5613 796.038 81.5317 795.327 82.789C794.617 84.0463 794.261 85.5223 794.261 87.217C794.261 88.8843 794.617 90.3603 795.327 91.645C796.038 92.9023 796.995 93.8863 798.197 94.597C799.4 95.2803 800.753 95.622 802.256 95.622ZM244.293 139.246C242.133 139.246 240.138 138.891 238.307 138.18C236.475 137.442 234.89 136.417 233.551 135.105C232.211 133.793 231.159 132.249 230.394 130.472C229.656 128.695 229.287 126.755 229.287 124.65C229.287 122.545 229.656 120.605 230.394 118.828C231.159 117.051 232.211 115.507 233.551 114.195C234.917 112.883 236.516 111.872 238.348 111.161C240.179 110.423 242.174 110.054 244.334 110.054C246.411 110.054 248.365 110.409 250.197 111.12C252.028 111.803 253.572 112.842 254.83 114.236L252.903 116.163C251.727 114.96 250.429 114.099 249.008 113.58C247.586 113.033 246.056 112.76 244.416 112.76C242.694 112.76 241.095 113.061 239.619 113.662C238.143 114.236 236.858 115.07 235.765 116.163C234.671 117.229 233.81 118.486 233.182 119.935C232.58 121.356 232.28 122.928 232.28 124.65C232.28 126.372 232.58 127.957 233.182 129.406C233.81 130.827 234.671 132.085 235.765 133.178C236.858 134.244 238.143 135.078 239.619 135.679C241.095 136.253 242.694 136.54 244.416 136.54C246.056 136.54 247.586 136.267 249.008 135.72C250.429 135.173 251.727 134.299 252.903 133.096L254.83 135.023C253.572 136.417 252.028 137.469 250.197 138.18C248.365 138.891 246.397 139.246 244.293 139.246ZM273.851 139V134.244L273.728 133.465V125.511C273.728 123.68 273.209 122.272 272.17 121.288C271.159 120.304 269.642 119.812 267.619 119.812C266.225 119.812 264.9 120.044 263.642 120.509C262.385 120.974 261.319 121.589 260.444 122.354L259.132 120.181C260.226 119.252 261.538 118.541 263.068 118.049C264.599 117.53 266.212 117.27 267.906 117.27C270.694 117.27 272.84 117.967 274.343 119.361C275.874 120.728 276.639 122.819 276.639 125.634V139H273.851ZM266.43 139.205C264.818 139.205 263.41 138.945 262.207 138.426C261.032 137.879 260.13 137.141 259.501 136.212C258.873 135.255 258.558 134.162 258.558 132.932C258.558 131.811 258.818 130.8 259.337 129.898C259.884 128.969 260.759 128.231 261.961 127.684C263.191 127.11 264.831 126.823 266.881 126.823H274.302V128.996H266.963C264.886 128.996 263.437 129.365 262.617 130.103C261.825 130.841 261.428 131.757 261.428 132.85C261.428 134.08 261.907 135.064 262.863 135.802C263.82 136.54 265.159 136.909 266.881 136.909C268.521 136.909 269.929 136.54 271.104 135.802C272.307 135.037 273.182 133.943 273.728 132.522L274.384 134.531C273.838 135.952 272.881 137.087 271.514 137.934C270.175 138.781 268.48 139.205 266.43 139.205ZM291.352 139.205C289.329 139.205 287.771 138.658 286.678 137.565C285.584 136.472 285.038 134.927 285.038 132.932V112.719H287.949V132.768C287.949 134.025 288.263 134.996 288.892 135.679C289.548 136.362 290.477 136.704 291.68 136.704C292.964 136.704 294.03 136.335 294.878 135.597L295.903 137.688C295.329 138.207 294.632 138.59 293.812 138.836C293.019 139.082 292.199 139.205 291.352 139.205ZM281.184 119.894V117.475H294.509V119.894H281.184ZM314.691 139V134.244L314.568 133.465V125.511C314.568 123.68 314.049 122.272 313.01 121.288C311.999 120.304 310.482 119.812 308.459 119.812C307.065 119.812 305.739 120.044 304.482 120.509C303.225 120.974 302.159 121.589 301.284 122.354L299.972 120.181C301.065 119.252 302.377 118.541 303.908 118.049C305.439 117.53 307.051 117.27 308.746 117.27C311.534 117.27 313.68 117.967 315.183 119.361C316.714 120.728 317.479 122.819 317.479 125.634V139H314.691ZM307.27 139.205C305.657 139.205 304.25 138.945 303.047 138.426C301.872 137.879 300.97 137.141 300.341 136.212C299.712 135.255 299.398 134.162 299.398 132.932C299.398 131.811 299.658 130.8 300.177 129.898C300.724 128.969 301.598 128.231 302.801 127.684C304.031 127.11 305.671 126.823 307.721 126.823H315.142V128.996H307.803C305.726 128.996 304.277 129.365 303.457 130.103C302.664 130.841 302.268 131.757 302.268 132.85C302.268 134.08 302.746 135.064 303.703 135.802C304.66 136.54 305.999 136.909 307.721 136.909C309.361 136.909 310.769 136.54 311.944 135.802C313.147 135.037 314.021 133.943 314.568 132.522L315.224 134.531C314.677 135.952 313.721 137.087 312.354 137.934C311.015 138.781 309.32 139.205 307.27 139.205ZM325.386 139V108.578H328.297V139H325.386ZM345.17 139.205C343.093 139.205 341.221 138.74 339.553 137.811C337.913 136.854 336.615 135.556 335.658 133.916C334.702 132.249 334.223 130.349 334.223 128.217C334.223 126.058 334.702 124.158 335.658 122.518C336.615 120.878 337.913 119.593 339.553 118.664C341.193 117.735 343.066 117.27 345.17 117.27C347.302 117.27 349.188 117.735 350.828 118.664C352.496 119.593 353.794 120.878 354.723 122.518C355.68 124.158 356.158 126.058 356.158 128.217C356.158 130.349 355.68 132.249 354.723 133.916C353.794 135.556 352.496 136.854 350.828 137.811C349.161 138.74 347.275 139.205 345.17 139.205ZM345.17 136.622C346.728 136.622 348.109 136.28 349.311 135.597C350.514 134.886 351.457 133.902 352.14 132.645C352.851 131.36 353.206 129.884 353.206 128.217C353.206 126.522 352.851 125.046 352.14 123.789C351.457 122.532 350.514 121.561 349.311 120.878C348.109 120.167 346.742 119.812 345.211 119.812C343.681 119.812 342.314 120.167 341.111 120.878C339.909 121.561 338.952 122.532 338.241 123.789C337.531 125.046 337.175 126.522 337.175 128.217C337.175 129.884 337.531 131.36 338.241 132.645C338.952 133.902 339.909 134.886 341.111 135.597C342.314 136.28 343.667 136.622 345.17 136.622ZM371.285 147.159C369.317 147.159 367.431 146.872 365.627 146.298C363.823 145.724 362.361 144.904 361.24 143.838L362.716 141.624C363.728 142.526 364.971 143.237 366.447 143.756C367.951 144.303 369.536 144.576 371.203 144.576C373.937 144.576 375.946 143.934 377.23 142.649C378.515 141.392 379.157 139.424 379.157 136.745V131.374L379.567 127.684L379.28 123.994V117.475H382.068V136.376C382.068 140.093 381.153 142.813 379.321 144.535C377.517 146.284 374.839 147.159 371.285 147.159ZM370.752 138.18C368.702 138.18 366.857 137.743 365.217 136.868C363.577 135.966 362.279 134.722 361.322 133.137C360.393 131.552 359.928 129.734 359.928 127.684C359.928 125.634 360.393 123.83 361.322 122.272C362.279 120.687 363.577 119.457 365.217 118.582C366.857 117.707 368.702 117.27 370.752 117.27C372.666 117.27 374.388 117.666 375.918 118.459C377.449 119.252 378.665 120.427 379.567 121.985C380.469 123.543 380.92 125.443 380.92 127.684C380.92 129.925 380.469 131.825 379.567 133.383C378.665 134.941 377.449 136.13 375.918 136.95C374.388 137.77 372.666 138.18 370.752 138.18ZM371.039 135.597C372.625 135.597 374.032 135.269 375.262 134.613C376.492 133.93 377.463 133 378.173 131.825C378.884 130.622 379.239 129.242 379.239 127.684C379.239 126.126 378.884 124.759 378.173 123.584C377.463 122.409 376.492 121.493 375.262 120.837C374.032 120.154 372.625 119.812 371.039 119.812C369.481 119.812 368.074 120.154 366.816 120.837C365.586 121.493 364.616 122.409 363.905 123.584C363.222 124.759 362.88 126.126 362.88 127.684C362.88 129.242 363.222 130.622 363.905 131.825C364.616 133 365.586 133.93 366.816 134.613C368.074 135.269 369.481 135.597 371.039 135.597ZM399.066 139.205C397.235 139.205 395.636 138.863 394.269 138.18C392.902 137.497 391.836 136.472 391.071 135.105C390.333 133.738 389.964 132.03 389.964 129.98V117.475H392.875V129.652C392.875 131.948 393.435 133.684 394.556 134.859C395.704 136.007 397.303 136.581 399.353 136.581C400.856 136.581 402.155 136.28 403.248 135.679C404.369 135.05 405.216 134.148 405.79 132.973C406.391 131.798 406.692 130.39 406.692 128.75V117.475H409.603V139H406.815V133.096L407.266 134.162C406.583 135.747 405.517 136.991 404.068 137.893C402.647 138.768 400.979 139.205 399.066 139.205ZM426.859 139.205C424.617 139.205 422.649 138.74 420.955 137.811C419.26 136.854 417.934 135.556 416.978 133.916C416.021 132.249 415.543 130.349 415.543 128.217C415.543 126.085 415.994 124.199 416.896 122.559C417.825 120.919 419.082 119.634 420.668 118.705C422.28 117.748 424.084 117.27 426.08 117.27C428.102 117.27 429.893 117.735 431.451 118.664C433.036 119.566 434.28 120.851 435.182 122.518C436.084 124.158 436.535 126.058 436.535 128.217C436.535 128.354 436.521 128.504 436.494 128.668C436.494 128.805 436.494 128.955 436.494 129.119H417.757V126.946H434.936L433.788 127.807C433.788 126.249 433.446 124.869 432.763 123.666C432.107 122.436 431.205 121.479 430.057 120.796C428.909 120.113 427.583 119.771 426.08 119.771C424.604 119.771 423.278 120.113 422.103 120.796C420.927 121.479 420.012 122.436 419.356 123.666C418.7 124.896 418.372 126.304 418.372 127.889V128.34C418.372 129.98 418.727 131.429 419.438 132.686C420.176 133.916 421.187 134.886 422.472 135.597C423.784 136.28 425.273 136.622 426.941 136.622C428.253 136.622 429.469 136.39 430.59 135.925C431.738 135.46 432.722 134.75 433.542 133.793L435.182 135.679C434.225 136.827 433.022 137.702 431.574 138.303C430.152 138.904 428.581 139.205 426.859 139.205ZM456.511 124.199H471.681V126.823H456.511V124.199ZM456.839 139H453.805V110.3H473.485V112.924H456.839V139ZM478.735 139V117.475H481.523V123.338L481.236 122.313C481.838 120.673 482.849 119.429 484.27 118.582C485.692 117.707 487.455 117.27 489.559 117.27V120.099C489.45 120.099 489.341 120.099 489.231 120.099C489.122 120.072 489.013 120.058 488.903 120.058C486.635 120.058 484.858 120.755 483.573 122.149C482.289 123.516 481.646 125.47 481.646 128.012V139H478.735ZM506.758 139V134.244L506.635 133.465V125.511C506.635 123.68 506.116 122.272 505.077 121.288C504.066 120.304 502.549 119.812 500.526 119.812C499.132 119.812 497.807 120.044 496.549 120.509C495.292 120.974 494.226 121.589 493.351 122.354L492.039 120.181C493.133 119.252 494.445 118.541 495.975 118.049C497.506 117.53 499.119 117.27 500.813 117.27C503.601 117.27 505.747 117.967 507.25 119.361C508.781 120.728 509.546 122.819 509.546 125.634V139H506.758ZM499.337 139.205C497.725 139.205 496.317 138.945 495.114 138.426C493.939 137.879 493.037 137.141 492.408 136.212C491.78 135.255 491.465 134.162 491.465 132.932C491.465 131.811 491.725 130.8 492.244 129.898C492.791 128.969 493.666 128.231 494.868 127.684C496.098 127.11 497.738 126.823 499.788 126.823H507.209V128.996H499.87C497.793 128.996 496.344 129.365 495.524 130.103C494.732 130.841 494.335 131.757 494.335 132.85C494.335 134.08 494.814 135.064 495.77 135.802C496.727 136.54 498.066 136.909 499.788 136.909C501.428 136.909 502.836 136.54 504.011 135.802C505.214 135.037 506.089 133.943 506.635 132.522L507.291 134.531C506.745 135.952 505.788 137.087 504.421 137.934C503.082 138.781 501.387 139.205 499.337 139.205ZM544.349 117.27C546.098 117.27 547.615 117.612 548.9 118.295C550.212 118.951 551.223 119.962 551.934 121.329C552.672 122.696 553.041 124.418 553.041 126.495V139H550.13V126.782C550.13 124.513 549.583 122.805 548.49 121.657C547.424 120.482 545.907 119.894 543.939 119.894C542.463 119.894 541.178 120.208 540.085 120.837C539.019 121.438 538.185 122.327 537.584 123.502C537.01 124.65 536.723 126.044 536.723 127.684V139H533.812V126.782C533.812 124.513 533.265 122.805 532.172 121.657C531.079 120.482 529.548 119.894 527.58 119.894C526.131 119.894 524.86 120.208 523.767 120.837C522.674 121.438 521.826 122.327 521.225 123.502C520.651 124.65 520.364 126.044 520.364 127.684V139H517.453V117.475H520.241V123.297L519.79 122.272C520.446 120.714 521.498 119.498 522.947 118.623C524.423 117.721 526.159 117.27 528.154 117.27C530.259 117.27 532.049 117.803 533.525 118.869C535.001 119.908 535.958 121.479 536.395 123.584L535.247 123.133C535.876 121.384 536.983 119.976 538.568 118.91C540.181 117.817 542.108 117.27 544.349 117.27ZM570.078 139.205C567.837 139.205 565.869 138.74 564.174 137.811C562.48 136.854 561.154 135.556 560.197 133.916C559.241 132.249 558.762 130.349 558.762 128.217C558.762 126.085 559.213 124.199 560.115 122.559C561.045 120.919 562.302 119.634 563.887 118.705C565.5 117.748 567.304 117.27 569.299 117.27C571.322 117.27 573.112 117.735 574.67 118.664C576.256 119.566 577.499 120.851 578.401 122.518C579.303 124.158 579.754 126.058 579.754 128.217C579.754 128.354 579.741 128.504 579.713 128.668C579.713 128.805 579.713 128.955 579.713 129.119H560.976V126.946H578.155L577.007 127.807C577.007 126.249 576.666 124.869 575.982 123.666C575.326 122.436 574.424 121.479 573.276 120.796C572.128 120.113 570.803 119.771 569.299 119.771C567.823 119.771 566.498 120.113 565.322 120.796C564.147 121.479 563.231 122.436 562.575 123.666C561.919 124.896 561.591 126.304 561.591 127.889V128.34C561.591 129.98 561.947 131.429 562.657 132.686C563.395 133.916 564.407 134.886 565.691 135.597C567.003 136.28 568.493 136.622 570.16 136.622C571.472 136.622 572.689 136.39 573.809 135.925C574.957 135.46 575.941 134.75 576.761 133.793L578.401 135.679C577.445 136.827 576.242 137.702 574.793 138.303C573.372 138.904 571.8 139.205 570.078 139.205ZM594.249 139.205C592.199 139.205 590.354 138.74 588.714 137.811C587.101 136.882 585.83 135.597 584.901 133.957C583.971 132.29 583.507 130.376 583.507 128.217C583.507 126.03 583.971 124.117 584.901 122.477C585.83 120.837 587.101 119.566 588.714 118.664C590.354 117.735 592.199 117.27 594.249 117.27C596.135 117.27 597.816 117.694 599.292 118.541C600.795 119.388 601.984 120.632 602.859 122.272C603.761 123.885 604.212 125.866 604.212 128.217C604.212 130.54 603.774 132.522 602.9 134.162C602.025 135.802 600.836 137.059 599.333 137.934C597.857 138.781 596.162 139.205 594.249 139.205ZM594.454 136.622C595.984 136.622 597.351 136.28 598.554 135.597C599.784 134.886 600.74 133.902 601.424 132.645C602.134 131.36 602.49 129.884 602.49 128.217C602.49 126.522 602.134 125.046 601.424 123.789C600.74 122.532 599.784 121.561 598.554 120.878C597.351 120.167 595.984 119.812 594.454 119.812C592.95 119.812 591.597 120.167 590.395 120.878C589.192 121.561 588.235 122.532 587.525 123.789C586.814 125.046 586.459 126.522 586.459 128.217C586.459 129.884 586.814 131.36 587.525 132.645C588.235 133.902 589.192 134.886 590.395 135.597C591.597 136.28 592.95 136.622 594.454 136.622ZM602.572 139V132.522L602.859 128.176L602.449 123.83V108.578H605.36V139H602.572ZM631.331 139L621.655 110.3H624.771L633.832 137.319H632.274L641.622 110.3H644.41L653.635 137.319H652.159L661.302 110.3H664.213L654.537 139H651.339L642.524 113.375H643.344L634.488 139H631.331ZM681.008 139V134.244L680.885 133.465V125.511C680.885 123.68 680.366 122.272 679.327 121.288C678.316 120.304 676.799 119.812 674.776 119.812C673.382 119.812 672.057 120.044 670.799 120.509C669.542 120.974 668.476 121.589 667.601 122.354L666.289 120.181C667.383 119.252 668.695 118.541 670.225 118.049C671.756 117.53 673.369 117.27 675.063 117.27C677.851 117.27 679.997 117.967 681.5 119.361C683.031 120.728 683.796 122.819 683.796 125.634V139H681.008ZM673.587 139.205C671.975 139.205 670.567 138.945 669.364 138.426C668.189 137.879 667.287 137.141 666.658 136.212C666.03 135.255 665.715 134.162 665.715 132.932C665.715 131.811 665.975 130.8 666.494 129.898C667.041 128.969 667.916 128.231 669.118 127.684C670.348 127.11 671.988 126.823 674.038 126.823H681.459V128.996H674.12C672.043 128.996 670.594 129.365 669.774 130.103C668.982 130.841 668.585 131.757 668.585 132.85C668.585 134.08 669.064 135.064 670.02 135.802C670.977 136.54 672.316 136.909 674.038 136.909C675.678 136.909 677.086 136.54 678.261 135.802C679.464 135.037 680.339 133.943 680.885 132.522L681.541 134.531C680.995 135.952 680.038 137.087 678.671 137.934C677.332 138.781 675.637 139.205 673.587 139.205ZM698.509 139.205C696.486 139.205 694.928 138.658 693.835 137.565C692.742 136.472 692.195 134.927 692.195 132.932V112.719H695.106V132.768C695.106 134.025 695.42 134.996 696.049 135.679C696.705 136.362 697.634 136.704 698.837 136.704C700.122 136.704 701.188 136.335 702.035 135.597L703.06 137.688C702.486 138.207 701.789 138.59 700.969 138.836C700.176 139.082 699.356 139.205 698.509 139.205ZM688.341 119.894V117.475H701.666V119.894H688.341ZM716.742 139.205C714.5 139.205 712.532 138.74 710.838 137.811C709.143 136.854 707.817 135.556 706.861 133.916C705.904 132.249 705.426 130.349 705.426 128.217C705.426 126.085 705.877 124.199 706.779 122.559C707.708 120.919 708.965 119.634 710.551 118.705C712.163 117.748 713.967 117.27 715.963 117.27C717.985 117.27 719.776 117.735 721.334 118.664C722.919 119.566 724.163 120.851 725.065 122.518C725.967 124.158 726.418 126.058 726.418 128.217C726.418 128.354 726.404 128.504 726.377 128.668C726.377 128.805 726.377 128.955 726.377 129.119H707.64V126.946H724.819L723.671 127.807C723.671 126.249 723.329 124.869 722.646 123.666C721.99 122.436 721.088 121.479 719.94 120.796C718.792 120.113 717.466 119.771 715.963 119.771C714.487 119.771 713.161 120.113 711.986 120.796C710.81 121.479 709.895 122.436 709.239 123.666C708.583 124.896 708.255 126.304 708.255 127.889V128.34C708.255 129.98 708.61 131.429 709.321 132.686C710.059 133.916 711.07 134.886 712.355 135.597C713.667 136.28 715.156 136.622 716.824 136.622C718.136 136.622 719.352 136.39 720.473 135.925C721.621 135.46 722.605 134.75 723.425 133.793L725.065 135.679C724.108 136.827 722.905 137.702 721.457 138.303C720.035 138.904 718.464 139.205 716.742 139.205ZM732.343 139V117.475H735.131V123.338L734.844 122.313C735.445 120.673 736.456 119.429 737.878 118.582C739.299 117.707 741.062 117.27 743.167 117.27V120.099C743.057 120.099 742.948 120.099 742.839 120.099C742.729 120.072 742.62 120.058 742.511 120.058C740.242 120.058 738.465 120.755 737.181 122.149C735.896 123.516 735.254 125.47 735.254 128.012V139H732.343ZM775.374 117.27C777.124 117.27 778.641 117.612 779.925 118.295C781.237 118.951 782.249 119.962 782.959 121.329C783.697 122.696 784.066 124.418 784.066 126.495V139H781.155V126.782C781.155 124.513 780.609 122.805 779.515 121.657C778.449 120.482 776.932 119.894 774.964 119.894C773.488 119.894 772.204 120.208 771.11 120.837C770.044 121.438 769.211 122.327 768.609 123.502C768.035 124.65 767.748 126.044 767.748 127.684V139H764.837V126.782C764.837 124.513 764.291 122.805 763.197 121.657C762.104 120.482 760.573 119.894 758.605 119.894C757.157 119.894 755.886 120.208 754.792 120.837C753.699 121.438 752.852 122.327 752.25 123.502C751.676 124.65 751.389 126.044 751.389 127.684V139H748.478V117.475H751.266V123.297L750.815 122.272C751.471 120.714 752.524 119.498 753.972 118.623C755.448 117.721 757.184 117.27 759.179 117.27C761.284 117.27 763.074 117.803 764.55 118.869C766.026 119.908 766.983 121.479 767.42 123.584L766.272 123.133C766.901 121.384 768.008 119.976 769.593 118.91C771.206 117.817 773.133 117.27 775.374 117.27ZM805.45 139V134.244L805.327 133.465V125.511C805.327 123.68 804.808 122.272 803.769 121.288C802.758 120.304 801.241 119.812 799.218 119.812C797.824 119.812 796.498 120.044 795.241 120.509C793.984 120.974 792.918 121.589 792.043 122.354L790.731 120.181C791.824 119.252 793.136 118.541 794.667 118.049C796.198 117.53 797.81 117.27 799.505 117.27C802.293 117.27 804.439 117.967 805.942 119.361C807.473 120.728 808.238 122.819 808.238 125.634V139H805.45ZM798.029 139.205C796.416 139.205 795.009 138.945 793.806 138.426C792.631 137.879 791.729 137.141 791.1 136.212C790.471 135.255 790.157 134.162 790.157 132.932C790.157 131.811 790.417 130.8 790.936 129.898C791.483 128.969 792.357 128.231 793.56 127.684C794.79 127.11 796.43 126.823 798.48 126.823H805.901V128.996H798.562C796.485 128.996 795.036 129.365 794.216 130.103C793.423 130.841 793.027 131.757 793.027 132.85C793.027 134.08 793.505 135.064 794.462 135.802C795.419 136.54 796.758 136.909 798.48 136.909C800.12 136.909 801.528 136.54 802.703 135.802C803.906 135.037 804.78 133.943 805.327 132.522L805.983 134.531C805.436 135.952 804.48 137.087 803.113 137.934C801.774 138.781 800.079 139.205 798.029 139.205ZM816.144 139V117.475H818.932V123.338L818.645 122.313C819.247 120.673 820.258 119.429 821.679 118.582C823.101 117.707 824.864 117.27 826.968 117.27V120.099C826.859 120.099 826.75 120.099 826.64 120.099C826.531 120.072 826.422 120.058 826.312 120.058C824.044 120.058 822.267 120.755 820.982 122.149C819.698 123.516 819.055 125.47 819.055 128.012V139H816.144ZM834.576 133.424L834.658 129.693L848.065 117.475H851.632L842.161 126.536L840.521 127.93L834.576 133.424ZM832.28 139V108.578H835.191V139H832.28ZM848.967 139L839.988 127.807L841.874 125.552L852.534 139H848.967Z" fill="white"/>
</svg>
