<svg width="1080" height="272" viewBox="0 0 1080 272" fill="none" xmlns="http://www.w3.org/2000/svg">
<path d="M0 100C0 44.7715 44.7715 0 100 0H980C1035.23 0 1080 44.7715 1080 100V272H0V100Z" fill="#223F23"/>
<path d="M180.612 210V162.493H191.606V210H180.612ZM224.327 172.944C227.223 172.944 229.802 173.532 232.064 174.709C234.371 175.84 236.181 177.604 237.493 180.002C238.805 182.355 239.461 185.387 239.461 189.097V210H228.874V190.726C228.874 187.785 228.218 185.613 226.906 184.21C225.639 182.808 223.829 182.106 221.477 182.106C219.802 182.106 218.287 182.468 216.929 183.192C215.617 183.871 214.577 184.934 213.807 186.382C213.084 187.83 212.722 189.685 212.722 191.947V210H202.134V173.487H212.246V183.599L210.346 180.545C211.658 178.102 213.536 176.224 215.979 174.912C218.422 173.6 221.205 172.944 224.327 172.944ZM258.304 210L242.966 173.487H253.893L266.652 204.91H261.223L274.457 173.487H284.637L269.231 210H258.304ZM306.084 210.543C301.921 210.543 298.256 209.729 295.089 208.1C291.967 206.471 289.547 204.254 287.827 201.449C286.108 198.598 285.248 195.363 285.248 191.744C285.248 188.079 286.085 184.844 287.759 182.038C289.479 179.188 291.809 176.971 294.75 175.387C297.691 173.759 301.016 172.944 304.726 172.944C308.301 172.944 311.513 173.713 314.364 175.252C317.259 176.745 319.544 178.917 321.218 181.767C322.892 184.572 323.729 187.943 323.729 191.879C323.729 192.287 323.707 192.762 323.662 193.305C323.616 193.802 323.571 194.277 323.526 194.73H293.868V188.554H317.961L313.889 190.386C313.889 188.486 313.504 186.834 312.735 185.432C311.966 184.029 310.902 182.943 309.545 182.174C308.188 181.36 306.604 180.953 304.794 180.953C302.985 180.953 301.378 181.36 299.976 182.174C298.618 182.943 297.555 184.052 296.786 185.5C296.017 186.902 295.632 188.576 295.632 190.522V192.151C295.632 194.142 296.062 195.906 296.922 197.444C297.827 198.938 299.071 200.091 300.654 200.906C302.283 201.675 304.184 202.059 306.355 202.059C308.301 202.059 309.998 201.765 311.445 201.177C312.938 200.589 314.296 199.707 315.517 198.53L321.15 204.638C319.476 206.539 317.372 208.009 314.839 209.05C312.305 210.045 309.387 210.543 306.084 210.543ZM330.778 210V173.487H340.89V183.803L339.465 180.817C340.551 178.238 342.293 176.292 344.691 174.98C347.089 173.623 350.007 172.944 353.446 172.944V182.717C352.994 182.672 352.586 182.649 352.224 182.649C351.862 182.604 351.478 182.581 351.071 182.581C348.175 182.581 345.822 183.418 344.012 185.093C342.248 186.721 341.366 189.278 341.366 192.762V210H330.778ZM375.931 210.543C371.633 210.543 368.285 209.457 365.887 207.285C363.489 205.068 362.29 201.788 362.29 197.444V165.411H372.877V197.309C372.877 198.847 373.285 200.046 374.099 200.906C374.913 201.72 376.022 202.127 377.425 202.127C379.099 202.127 380.524 201.675 381.7 200.77L384.551 208.235C383.465 209.005 382.153 209.593 380.614 210C379.121 210.362 377.56 210.543 375.931 210.543ZM356.657 182.446V174.302H381.972V182.446H356.657ZM420.641 183.871H443.445V192.694H420.641V183.871ZM421.455 210H410.461V162.493H446.363V171.315H421.455V210ZM452.397 210V173.487H462.509V183.803L461.084 180.817C462.17 178.238 463.912 176.292 466.31 174.98C468.708 173.623 471.626 172.944 475.065 172.944V182.717C474.612 182.672 474.205 182.649 473.843 182.649C473.481 182.604 473.096 182.581 472.689 182.581C469.793 182.581 467.441 183.418 465.631 185.093C463.866 186.721 462.984 189.278 462.984 192.762V210H452.397ZM501.37 210V202.874L500.692 201.313V188.554C500.692 186.292 499.99 184.527 498.588 183.26C497.23 181.993 495.126 181.36 492.276 181.36C490.33 181.36 488.407 181.677 486.507 182.31C484.652 182.898 483.069 183.713 481.756 184.753L477.956 177.356C479.947 175.953 482.345 174.867 485.15 174.098C487.955 173.329 490.805 172.944 493.701 172.944C499.266 172.944 503.587 174.256 506.664 176.881C509.741 179.505 511.279 183.599 511.279 189.165V210H501.37ZM490.24 210.543C487.389 210.543 484.946 210.068 482.91 209.118C480.874 208.122 479.313 206.788 478.227 205.114C477.141 203.439 476.598 201.562 476.598 199.48C476.598 197.309 477.119 195.408 478.159 193.78C479.245 192.151 480.942 190.884 483.25 189.979C485.557 189.029 488.566 188.554 492.276 188.554H501.981V194.73H493.43C490.941 194.73 489.222 195.137 488.272 195.951C487.367 196.766 486.914 197.784 486.914 199.005C486.914 200.363 487.435 201.449 488.475 202.263C489.561 203.032 491.032 203.417 492.887 203.417C494.651 203.417 496.235 203.01 497.638 202.195C499.04 201.336 500.058 200.091 500.692 198.462L502.32 203.349C501.551 205.702 500.149 207.489 498.113 208.711C496.077 209.932 493.452 210.543 490.24 210.543ZM567.622 172.944C570.518 172.944 573.074 173.532 575.291 174.709C577.553 175.84 579.318 177.604 580.585 180.002C581.897 182.355 582.553 185.387 582.553 189.097V210H571.965V190.726C571.965 187.785 571.355 185.613 570.133 184.21C568.911 182.808 567.192 182.106 564.975 182.106C563.437 182.106 562.057 182.468 560.835 183.192C559.614 183.871 558.663 184.912 557.985 186.314C557.306 187.717 556.967 189.504 556.967 191.676V210H546.379V190.726C546.379 187.785 545.768 185.613 544.547 184.21C543.37 182.808 541.674 182.106 539.457 182.106C537.918 182.106 536.538 182.468 535.317 183.192C534.095 183.871 533.145 184.912 532.466 186.314C531.788 187.717 531.448 189.504 531.448 191.676V210H520.861V173.487H530.973V183.464L529.073 180.545C530.34 178.057 532.127 176.179 534.435 174.912C536.787 173.6 539.457 172.944 542.443 172.944C545.791 172.944 548.709 173.804 551.198 175.523C553.732 177.197 555.406 179.776 556.22 183.26L552.487 182.242C553.709 179.392 555.655 177.129 558.324 175.455C561.039 173.781 564.138 172.944 567.622 172.944ZM610.428 210.543C606.266 210.543 602.601 209.729 599.434 208.1C596.312 206.471 593.891 204.254 592.172 201.449C590.453 198.598 589.593 195.363 589.593 191.744C589.593 188.079 590.43 184.844 592.104 182.038C593.823 179.188 596.154 176.971 599.095 175.387C602.035 173.759 605.361 172.944 609.071 172.944C612.645 172.944 615.858 173.713 618.708 175.252C621.604 176.745 623.889 178.917 625.563 181.767C627.237 184.572 628.074 187.943 628.074 191.879C628.074 192.287 628.051 192.762 628.006 193.305C627.961 193.802 627.916 194.277 627.871 194.73H598.212V188.554H622.305L618.233 190.386C618.233 188.486 617.849 186.834 617.08 185.432C616.31 184.029 615.247 182.943 613.89 182.174C612.532 181.36 610.949 180.953 609.139 180.953C607.329 180.953 605.723 181.36 604.32 182.174C602.963 182.943 601.9 184.052 601.131 185.5C600.361 186.902 599.977 188.576 599.977 190.522V192.151C599.977 194.142 600.407 195.906 601.266 197.444C602.171 198.938 603.415 200.091 604.999 200.906C606.628 201.675 608.528 202.059 610.7 202.059C612.645 202.059 614.342 201.765 615.79 201.177C617.283 200.589 618.64 199.707 619.862 198.53L625.495 204.638C623.821 206.539 621.717 208.009 619.183 209.05C616.65 210.045 613.731 210.543 610.428 210.543ZM678.097 210.814C674.387 210.814 670.926 210.204 667.713 208.982C664.546 207.76 661.786 206.041 659.433 203.824C657.126 201.607 655.316 199.005 654.004 196.019C652.737 193.033 652.104 189.775 652.104 186.246C652.104 182.717 652.737 179.459 654.004 176.473C655.316 173.487 657.148 170.886 659.501 168.669C661.854 166.451 664.614 164.732 667.781 163.511C670.948 162.289 674.387 161.678 678.097 161.678C681.852 161.678 685.291 162.289 688.413 163.511C691.58 164.732 694.317 166.451 696.625 168.669C698.978 170.84 700.81 173.419 702.122 176.405C703.434 179.392 704.09 182.672 704.09 186.246C704.09 189.775 703.434 193.056 702.122 196.087C700.81 199.073 698.978 201.675 696.625 203.892C694.317 206.064 691.58 207.76 688.413 208.982C685.291 210.204 681.852 210.814 678.097 210.814ZM693.639 220.927C691.784 220.927 690.019 220.723 688.345 220.316C686.716 219.909 685.087 219.253 683.458 218.348C681.875 217.443 680.201 216.221 678.436 214.683C676.717 213.145 674.839 211.244 672.803 208.982L684.341 206.064C685.562 207.738 686.694 209.072 687.734 210.068C688.775 211.063 689.77 211.765 690.72 212.172C691.716 212.579 692.756 212.783 693.842 212.783C696.738 212.783 699.317 211.606 701.579 209.253L706.466 215.09C703.253 218.981 698.978 220.927 693.639 220.927ZM678.097 201.449C680.223 201.449 682.169 201.087 683.934 200.363C685.743 199.639 687.327 198.598 688.684 197.241C690.042 195.883 691.082 194.277 691.806 192.422C692.575 190.522 692.96 188.463 692.96 186.246C692.96 183.984 692.575 181.925 691.806 180.07C691.082 178.215 690.042 176.609 688.684 175.252C687.327 173.894 685.743 172.854 683.934 172.13C682.169 171.406 680.223 171.044 678.097 171.044C675.97 171.044 674.002 171.406 672.192 172.13C670.383 172.854 668.799 173.894 667.442 175.252C666.13 176.609 665.089 178.215 664.32 180.07C663.596 181.925 663.234 183.984 663.234 186.246C663.234 188.463 663.596 190.522 664.32 192.422C665.089 194.277 666.13 195.883 667.442 197.241C668.799 198.598 670.383 199.639 672.192 200.363C674.002 201.087 675.97 201.449 678.097 201.449ZM727.013 210.543C723.981 210.543 721.266 209.955 718.868 208.778C716.516 207.602 714.683 205.815 713.371 203.417C712.059 200.974 711.403 197.874 711.403 194.119V173.487H721.99V192.558C721.99 195.589 722.624 197.829 723.891 199.277C725.203 200.679 727.035 201.381 729.388 201.381C731.017 201.381 732.465 201.041 733.732 200.363C734.998 199.639 735.994 198.553 736.718 197.105C737.442 195.612 737.804 193.757 737.804 191.54V173.487H748.391V210H738.347V199.956L740.179 202.874C738.957 205.408 737.148 207.331 734.75 208.643C732.397 209.91 729.818 210.543 727.013 210.543ZM775.574 210.543C771.683 210.543 768.221 209.729 765.19 208.1C762.204 206.471 759.828 204.254 758.064 201.449C756.344 198.598 755.485 195.363 755.485 191.744C755.485 188.079 756.344 184.844 758.064 182.038C759.828 179.188 762.204 176.971 765.19 175.387C768.221 173.759 771.683 172.944 775.574 172.944C779.419 172.944 782.858 173.759 785.89 175.387C788.921 176.971 791.296 179.165 793.016 181.971C794.735 184.776 795.595 188.033 795.595 191.744C795.595 195.363 794.735 198.598 793.016 201.449C791.296 204.254 788.921 206.471 785.89 208.1C782.858 209.729 779.419 210.543 775.574 210.543ZM775.574 201.856C777.338 201.856 778.922 201.449 780.324 200.634C781.727 199.82 782.835 198.666 783.65 197.173C784.464 195.635 784.872 193.825 784.872 191.744C784.872 189.617 784.464 187.807 783.65 186.314C782.835 184.821 781.727 183.667 780.324 182.853C778.922 182.038 777.338 181.631 775.574 181.631C773.809 181.631 772.225 182.038 770.823 182.853C769.42 183.667 768.289 184.821 767.429 186.314C766.615 187.807 766.208 189.617 766.208 191.744C766.208 193.825 766.615 195.635 767.429 197.173C768.289 198.666 769.42 199.82 770.823 200.634C772.225 201.449 773.809 201.856 775.574 201.856ZM817.602 210.543C813.304 210.543 809.956 209.457 807.558 207.285C805.16 205.068 803.961 201.788 803.961 197.444V165.411H814.548V197.309C814.548 198.847 814.956 200.046 815.77 200.906C816.584 201.72 817.693 202.127 819.095 202.127C820.77 202.127 822.195 201.675 823.371 200.77L826.222 208.235C825.136 209.005 823.824 209.593 822.285 210C820.792 210.362 819.231 210.543 817.602 210.543ZM798.328 182.446V174.302H823.643V182.446H798.328ZM849.159 210.543C844.996 210.543 841.331 209.729 838.164 208.1C835.042 206.471 832.622 204.254 830.902 201.449C829.183 198.598 828.323 195.363 828.323 191.744C828.323 188.079 829.16 184.844 830.834 182.038C832.554 179.188 834.884 176.971 837.825 175.387C840.766 173.759 844.091 172.944 847.801 172.944C851.376 172.944 854.588 173.713 857.439 175.252C860.334 176.745 862.619 178.917 864.293 181.767C865.967 184.572 866.804 187.943 866.804 191.879C866.804 192.287 866.782 192.762 866.737 193.305C866.691 193.802 866.646 194.277 866.601 194.73H836.943V188.554H861.036L856.964 190.386C856.964 188.486 856.579 186.834 855.81 185.432C855.041 184.029 853.977 182.943 852.62 182.174C851.263 181.36 849.679 180.953 847.869 180.953C846.06 180.953 844.453 181.36 843.051 182.174C841.693 182.943 840.63 184.052 839.861 185.5C839.092 186.902 838.707 188.576 838.707 190.522V192.151C838.707 194.142 839.137 195.906 839.997 197.444C840.902 198.938 842.146 200.091 843.729 200.906C845.358 201.675 847.259 202.059 849.43 202.059C851.376 202.059 853.073 201.765 854.52 201.177C856.013 200.589 857.371 199.707 858.592 198.53L864.225 204.638C862.551 206.539 860.447 208.009 857.914 209.05C855.38 210.045 852.462 210.543 849.159 210.543ZM886.137 210.543C883.015 210.543 880.007 210.181 877.111 209.457C874.26 208.688 871.998 207.738 870.324 206.607L873.853 199.005C875.527 200.046 877.495 200.906 879.758 201.584C882.065 202.218 884.327 202.535 886.544 202.535C888.988 202.535 890.707 202.24 891.702 201.652C892.743 201.064 893.263 200.25 893.263 199.209C893.263 198.349 892.856 197.716 892.042 197.309C891.273 196.856 890.232 196.517 888.92 196.291C887.608 196.064 886.16 195.838 884.576 195.612C883.038 195.386 881.477 195.092 879.893 194.73C878.31 194.323 876.862 193.734 875.55 192.965C874.238 192.196 873.174 191.155 872.36 189.843C871.591 188.531 871.206 186.834 871.206 184.753C871.206 182.446 871.862 180.41 873.174 178.645C874.532 176.881 876.477 175.501 879.011 174.505C881.545 173.464 884.576 172.944 888.105 172.944C890.594 172.944 893.128 173.216 895.707 173.759C898.286 174.302 900.435 175.093 902.154 176.134L898.625 183.667C896.86 182.627 895.073 181.925 893.263 181.563C891.499 181.156 889.779 180.953 888.105 180.953C885.753 180.953 884.033 181.269 882.947 181.903C881.862 182.536 881.319 183.351 881.319 184.346C881.319 185.251 881.703 185.93 882.472 186.382C883.287 186.834 884.35 187.196 885.662 187.468C886.974 187.739 888.399 187.988 889.938 188.214C891.521 188.395 893.105 188.69 894.689 189.097C896.272 189.504 897.697 190.092 898.964 190.861C900.276 191.585 901.34 192.603 902.154 193.915C902.968 195.182 903.376 196.856 903.376 198.938C903.376 201.2 902.697 203.213 901.34 204.978C899.982 206.697 898.014 208.054 895.435 209.05C892.901 210.045 889.802 210.543 886.137 210.543Z" fill="white"/>
<path d="M377.542 98V71.924H367.456V69.3H390.662V71.924H380.576V98H377.542ZM401.794 98.205C399.553 98.205 397.585 97.7403 395.89 96.811C394.196 95.8543 392.87 94.556 391.913 92.916C390.957 91.2487 390.478 89.349 390.478 87.217C390.478 85.085 390.929 83.199 391.831 81.559C392.761 79.919 394.018 78.6343 395.603 77.705C397.216 76.7483 399.02 76.27 401.015 76.27C403.038 76.27 404.828 76.7347 406.386 77.664C407.972 78.566 409.215 79.8507 410.117 81.518C411.019 83.158 411.47 85.0577 411.47 87.217C411.47 87.3537 411.457 87.504 411.429 87.668C411.429 87.8047 411.429 87.955 411.429 88.119H392.692V85.946H409.871L408.723 86.807C408.723 85.249 408.382 83.8687 407.698 82.666C407.042 81.436 406.14 80.4793 404.992 79.796C403.844 79.1127 402.519 78.771 401.015 78.771C399.539 78.771 398.214 79.1127 397.038 79.796C395.863 80.4793 394.947 81.436 394.291 82.666C393.635 83.896 393.307 85.3037 393.307 86.889V87.34C393.307 88.98 393.663 90.4287 394.373 91.686C395.111 92.916 396.123 93.8863 397.407 94.597C398.719 95.2803 400.209 95.622 401.876 95.622C403.188 95.622 404.405 95.3897 405.525 94.925C406.673 94.4603 407.657 93.7497 408.477 92.793L410.117 94.679C409.161 95.827 407.958 96.7017 406.509 97.303C405.088 97.9043 403.516 98.205 401.794 98.205ZM444.291 76.27C446.041 76.27 447.558 76.6117 448.842 77.295C450.154 77.951 451.166 78.9623 451.876 80.329C452.614 81.6957 452.983 83.4177 452.983 85.495V98H450.072V85.782C450.072 83.5133 449.526 81.805 448.432 80.657C447.366 79.4817 445.849 78.894 443.881 78.894C442.405 78.894 441.121 79.2083 440.027 79.837C438.961 80.4383 438.128 81.3267 437.526 82.502C436.952 83.65 436.665 85.044 436.665 86.684V98H433.754V85.782C433.754 83.5133 433.208 81.805 432.114 80.657C431.021 79.4817 429.49 78.894 427.522 78.894C426.074 78.894 424.803 79.2083 423.709 79.837C422.616 80.4383 421.769 81.3267 421.167 82.502C420.593 83.65 420.306 85.044 420.306 86.684V98H417.395V76.475H420.183V82.297L419.732 81.272C420.388 79.714 421.441 78.4977 422.889 77.623C424.365 76.721 426.101 76.27 428.096 76.27C430.201 76.27 431.991 76.803 433.467 77.869C434.943 78.9077 435.9 80.4793 436.337 82.584L435.189 82.133C435.818 80.3837 436.925 78.976 438.51 77.91C440.123 76.8167 442.05 76.27 444.291 76.27ZM471.989 98.205C470.13 98.205 468.449 97.7813 466.946 96.934C465.443 96.0593 464.24 94.8157 463.338 93.203C462.463 91.563 462.026 89.5677 462.026 87.217C462.026 84.8663 462.463 82.8847 463.338 81.272C464.213 79.632 465.402 78.3883 466.905 77.541C468.408 76.6937 470.103 76.27 471.989 76.27C474.039 76.27 475.87 76.7347 477.483 77.664C479.123 78.566 480.408 79.8507 481.337 81.518C482.266 83.158 482.731 85.0577 482.731 87.217C482.731 89.4037 482.266 91.317 481.337 92.957C480.408 94.597 479.123 95.8817 477.483 96.811C475.87 97.7403 474.039 98.205 471.989 98.205ZM460.878 105.954V76.475H463.666V82.953L463.379 87.258L463.789 91.604V105.954H460.878ZM471.784 95.622C473.315 95.622 474.681 95.2803 475.884 94.597C477.087 93.8863 478.043 92.9023 478.754 91.645C479.465 90.3603 479.82 88.8843 479.82 87.217C479.82 85.5497 479.465 84.0873 478.754 82.83C478.043 81.5727 477.087 80.5887 475.884 79.878C474.681 79.1673 473.315 78.812 471.784 78.812C470.253 78.812 468.873 79.1673 467.643 79.878C466.44 80.5887 465.484 81.5727 464.773 82.83C464.09 84.0873 463.748 85.5497 463.748 87.217C463.748 88.8843 464.09 90.3603 464.773 91.645C465.484 92.9023 466.44 93.8863 467.643 94.597C468.873 95.2803 470.253 95.622 471.784 95.622ZM488.665 98V67.578H491.576V98H488.665ZM513.165 98V93.244L513.042 92.465V84.511C513.042 82.6797 512.522 81.272 511.484 80.288C510.472 79.304 508.955 78.812 506.933 78.812C505.539 78.812 504.213 79.0443 502.956 79.509C501.698 79.9737 500.632 80.5887 499.758 81.354L498.446 79.181C499.539 78.2517 500.851 77.541 502.382 77.049C503.912 76.5297 505.525 76.27 507.22 76.27C510.008 76.27 512.153 76.967 513.657 78.361C515.187 79.7277 515.953 81.8187 515.953 84.634V98H513.165ZM505.744 98.205C504.131 98.205 502.723 97.9453 501.521 97.426C500.345 96.8793 499.443 96.1413 498.815 95.212C498.186 94.2553 497.872 93.162 497.872 91.932C497.872 90.8113 498.131 89.8 498.651 88.898C499.197 87.9687 500.072 87.2307 501.275 86.684C502.505 86.11 504.145 85.823 506.195 85.823H513.616V87.996H506.277C504.199 87.996 502.751 88.365 501.931 89.103C501.138 89.841 500.742 90.7567 500.742 91.85C500.742 93.08 501.22 94.064 502.177 94.802C503.133 95.54 504.473 95.909 506.195 95.909C507.835 95.909 509.242 95.54 510.418 94.802C511.62 94.0367 512.495 92.9433 513.042 91.522L513.698 93.531C513.151 94.9523 512.194 96.0867 510.828 96.934C509.488 97.7813 507.794 98.205 505.744 98.205ZM530.665 98.205C528.643 98.205 527.085 97.6583 525.991 96.565C524.898 95.4717 524.351 93.9273 524.351 91.932V71.719H527.262V91.768C527.262 93.0253 527.577 93.9957 528.205 94.679C528.861 95.3623 529.791 95.704 530.993 95.704C532.278 95.704 533.344 95.335 534.191 94.597L535.216 96.688C534.642 97.2073 533.945 97.59 533.125 97.836C532.333 98.082 531.513 98.205 530.665 98.205ZM520.497 78.894V76.475H533.822V78.894H520.497ZM548.898 98.205C546.656 98.205 544.688 97.7403 542.994 96.811C541.299 95.8543 539.973 94.556 539.017 92.916C538.06 91.2487 537.582 89.349 537.582 87.217C537.582 85.085 538.033 83.199 538.935 81.559C539.864 79.919 541.121 78.6343 542.707 77.705C544.319 76.7483 546.123 76.27 548.119 76.27C550.141 76.27 551.932 76.7347 553.49 77.664C555.075 78.566 556.319 79.8507 557.221 81.518C558.123 83.158 558.574 85.0577 558.574 87.217C558.574 87.3537 558.56 87.504 558.533 87.668C558.533 87.8047 558.533 87.955 558.533 88.119H539.796V85.946H556.975L555.827 86.807C555.827 85.249 555.485 83.8687 554.802 82.666C554.146 81.436 553.244 80.4793 552.096 79.796C550.948 79.1127 549.622 78.771 548.119 78.771C546.643 78.771 545.317 79.1127 544.142 79.796C542.966 80.4793 542.051 81.436 541.395 82.666C540.739 83.896 540.411 85.3037 540.411 86.889V87.34C540.411 88.98 540.766 90.4287 541.477 91.686C542.215 92.916 543.226 93.8863 544.511 94.597C545.823 95.2803 547.312 95.622 548.98 95.622C550.292 95.622 551.508 95.3897 552.629 94.925C553.777 94.4603 554.761 93.7497 555.581 92.793L557.221 94.679C556.264 95.827 555.061 96.7017 553.613 97.303C552.191 97.9043 550.62 98.205 548.898 98.205ZM575.844 98V69.3H587.529C590.591 69.3 593.269 69.915 595.565 71.145C597.889 72.3477 599.693 74.0287 600.977 76.188C602.262 78.3473 602.904 80.8347 602.904 83.65C602.904 86.4653 602.262 88.9527 600.977 91.112C599.693 93.2713 597.889 94.966 595.565 96.196C593.269 97.3987 590.591 98 587.529 98H575.844ZM578.878 95.376H587.365C589.907 95.376 592.108 94.884 593.966 93.9C595.852 92.8887 597.315 91.5083 598.353 89.759C599.392 87.9823 599.911 85.946 599.911 83.65C599.911 81.3267 599.392 79.2903 598.353 77.541C597.315 75.7917 595.852 74.425 593.966 73.441C592.108 72.4297 589.907 71.924 587.365 71.924H578.878V95.376ZM618.245 98.205C616.004 98.205 614.036 97.7403 612.341 96.811C610.647 95.8543 609.321 94.556 608.364 92.916C607.408 91.2487 606.929 89.349 606.929 87.217C606.929 85.085 607.38 83.199 608.282 81.559C609.212 79.919 610.469 78.6343 612.054 77.705C613.667 76.7483 615.471 76.27 617.466 76.27C619.489 76.27 621.279 76.7347 622.837 77.664C624.423 78.566 625.666 79.8507 626.568 81.518C627.47 83.158 627.921 85.0577 627.921 87.217C627.921 87.3537 627.908 87.504 627.88 87.668C627.88 87.8047 627.88 87.955 627.88 88.119H609.143V85.946H626.322L625.174 86.807C625.174 85.249 624.833 83.8687 624.149 82.666C623.493 81.436 622.591 80.4793 621.443 79.796C620.295 79.1127 618.97 78.771 617.466 78.771C615.99 78.771 614.665 79.1127 613.489 79.796C612.314 80.4793 611.398 81.436 610.742 82.666C610.086 83.896 609.758 85.3037 609.758 86.889V87.34C609.758 88.98 610.114 90.4287 610.824 91.686C611.562 92.916 612.574 93.8863 613.858 94.597C615.17 95.2803 616.66 95.622 618.327 95.622C619.639 95.622 620.856 95.3897 621.976 94.925C623.124 94.4603 624.108 93.7497 624.928 92.793L626.568 94.679C625.612 95.827 624.409 96.7017 622.96 97.303C621.539 97.9043 619.967 98.205 618.245 98.205ZM639.628 98.205C637.851 98.205 636.17 97.959 634.585 97.467C632.999 96.9477 631.756 96.3053 630.854 95.54L632.166 93.244C633.04 93.9 634.161 94.474 635.528 94.966C636.894 95.4307 638.329 95.663 639.833 95.663C641.883 95.663 643.359 95.3487 644.261 94.72C645.163 94.064 645.614 93.203 645.614 92.137C645.614 91.3443 645.354 90.7293 644.835 90.292C644.343 89.8273 643.687 89.4857 642.867 89.267C642.047 89.021 641.131 88.816 640.12 88.652C639.108 88.488 638.097 88.2967 637.086 88.078C636.102 87.8593 635.2 87.545 634.38 87.135C633.56 86.6977 632.89 86.11 632.371 85.372C631.879 84.634 631.633 83.65 631.633 82.42C631.633 81.2447 631.961 80.1923 632.617 79.263C633.273 78.3337 634.229 77.6093 635.487 77.09C636.771 76.5433 638.329 76.27 640.161 76.27C641.555 76.27 642.949 76.4613 644.343 76.844C645.737 77.1993 646.885 77.6777 647.787 78.279L646.516 80.616C645.559 79.96 644.534 79.4953 643.441 79.222C642.347 78.9213 641.254 78.771 640.161 78.771C638.22 78.771 636.785 79.1127 635.856 79.796C634.954 80.452 634.503 81.2993 634.503 82.338C634.503 83.158 634.749 83.8003 635.241 84.265C635.76 84.7297 636.43 85.0987 637.25 85.372C638.097 85.618 639.013 85.823 639.997 85.987C641.008 86.151 642.006 86.356 642.99 86.602C644.001 86.8207 644.917 87.135 645.737 87.545C646.584 87.9277 647.254 88.488 647.746 89.226C648.265 89.9367 648.525 90.8797 648.525 92.055C648.525 93.3123 648.169 94.4057 647.459 95.335C646.775 96.237 645.764 96.9477 644.425 97.467C643.113 97.959 641.514 98.205 639.628 98.205ZM667.355 98V93.244L667.232 92.465V84.511C667.232 82.6797 666.713 81.272 665.674 80.288C664.663 79.304 663.146 78.812 661.123 78.812C659.729 78.812 658.403 79.0443 657.146 79.509C655.889 79.9737 654.823 80.5887 653.948 81.354L652.636 79.181C653.729 78.2517 655.041 77.541 656.572 77.049C658.103 76.5297 659.715 76.27 661.41 76.27C664.198 76.27 666.344 76.967 667.847 78.361C669.378 79.7277 670.143 81.8187 670.143 84.634V98H667.355ZM659.934 98.205C658.321 98.205 656.914 97.9453 655.711 97.426C654.536 96.8793 653.634 96.1413 653.005 95.212C652.376 94.2553 652.062 93.162 652.062 91.932C652.062 90.8113 652.322 89.8 652.841 88.898C653.388 87.9687 654.262 87.2307 655.465 86.684C656.695 86.11 658.335 85.823 660.385 85.823H667.806V87.996H660.467C658.39 87.996 656.941 88.365 656.121 89.103C655.328 89.841 654.932 90.7567 654.932 91.85C654.932 93.08 655.41 94.064 656.367 94.802C657.324 95.54 658.663 95.909 660.385 95.909C662.025 95.909 663.433 95.54 664.608 94.802C665.811 94.0367 666.685 92.9433 667.232 91.522L667.888 93.531C667.341 94.9523 666.385 96.0867 665.018 96.934C663.679 97.7813 661.984 98.205 659.934 98.205ZM678.05 98V76.475H680.961V98H678.05ZM679.526 71.719C678.924 71.719 678.419 71.514 678.009 71.104C677.599 70.694 677.394 70.202 677.394 69.628C677.394 69.054 677.599 68.5757 678.009 68.193C678.419 67.783 678.924 67.578 679.526 67.578C680.127 67.578 680.633 67.7693 681.043 68.152C681.453 68.5347 681.658 69.013 681.658 69.587C681.658 70.1883 681.453 70.694 681.043 71.104C680.66 71.514 680.154 71.719 679.526 71.719ZM700.048 76.27C701.798 76.27 703.328 76.6117 704.64 77.295C705.98 77.951 707.018 78.9623 707.756 80.329C708.522 81.6957 708.904 83.4177 708.904 85.495V98H705.993V85.782C705.993 83.5133 705.419 81.805 704.271 80.657C703.151 79.4817 701.565 78.894 699.515 78.894C697.985 78.894 696.645 79.2083 695.497 79.837C694.377 80.4383 693.502 81.3267 692.873 82.502C692.272 83.65 691.971 85.044 691.971 86.684V98H689.06V76.475H691.848V82.379L691.397 81.272C692.081 79.714 693.174 78.4977 694.677 77.623C696.181 76.721 697.971 76.27 700.048 76.27ZM404.991 139.246C402.832 139.246 400.823 138.891 398.964 138.18C397.133 137.442 395.534 136.417 394.167 135.105C392.828 133.766 391.776 132.221 391.01 130.472C390.272 128.695 389.903 126.755 389.903 124.65C389.903 122.545 390.272 120.618 391.01 118.869C391.776 117.092 392.828 115.548 394.167 114.236C395.534 112.897 397.133 111.872 398.964 111.161C400.796 110.423 402.805 110.054 404.991 110.054C407.151 110.054 409.146 110.423 410.977 111.161C412.809 111.872 414.394 112.883 415.733 114.195C417.1 115.507 418.152 117.051 418.89 118.828C419.656 120.605 420.038 122.545 420.038 124.65C420.038 126.755 419.656 128.695 418.89 130.472C418.152 132.249 417.1 133.793 415.733 135.105C414.394 136.417 412.809 137.442 410.977 138.18C409.146 138.891 407.151 139.246 404.991 139.246ZM414.38 144.699C413.506 144.699 412.658 144.59 411.838 144.371C411.018 144.152 410.185 143.797 409.337 143.305C408.517 142.84 407.67 142.225 406.795 141.46C405.921 140.695 404.964 139.765 403.925 138.672L407.246 137.852C408.094 138.863 408.914 139.697 409.706 140.353C410.526 141.009 411.319 141.487 412.084 141.788C412.877 142.116 413.656 142.28 414.421 142.28C416.553 142.28 418.371 141.405 419.874 139.656L421.35 141.419C419.546 143.606 417.223 144.699 414.38 144.699ZM404.991 136.54C406.713 136.54 408.299 136.253 409.747 135.679C411.223 135.078 412.494 134.23 413.56 133.137C414.654 132.044 415.501 130.786 416.102 129.365C416.704 127.916 417.004 126.345 417.004 124.65C417.004 122.928 416.704 121.356 416.102 119.935C415.501 118.486 414.654 117.229 413.56 116.163C412.494 115.07 411.223 114.236 409.747 113.662C408.299 113.061 406.713 112.76 404.991 112.76C403.269 112.76 401.67 113.061 400.194 113.662C398.718 114.236 397.434 115.07 396.34 116.163C395.274 117.229 394.427 118.486 393.798 119.935C393.197 121.356 392.896 122.928 392.896 124.65C392.896 126.345 393.197 127.916 393.798 129.365C394.427 130.786 395.274 132.044 396.34 133.137C397.434 134.23 398.718 135.078 400.194 135.679C401.67 136.253 403.269 136.54 404.991 136.54ZM435.121 139.205C433.29 139.205 431.691 138.863 430.324 138.18C428.957 137.497 427.891 136.472 427.126 135.105C426.388 133.738 426.019 132.03 426.019 129.98V117.475H428.93V129.652C428.93 131.948 429.49 133.684 430.611 134.859C431.759 136.007 433.358 136.581 435.408 136.581C436.911 136.581 438.21 136.28 439.303 135.679C440.424 135.05 441.271 134.148 441.845 132.973C442.446 131.798 442.747 130.39 442.747 128.75V117.475H445.658V139H442.87V133.096L443.321 134.162C442.638 135.747 441.572 136.991 440.123 137.893C438.702 138.768 437.034 139.205 435.121 139.205ZM462.545 139.205C460.468 139.205 458.595 138.74 456.928 137.811C455.288 136.854 453.99 135.556 453.033 133.916C452.076 132.249 451.598 130.349 451.598 128.217C451.598 126.058 452.076 124.158 453.033 122.518C453.99 120.878 455.288 119.593 456.928 118.664C458.568 117.735 460.44 117.27 462.545 117.27C464.677 117.27 466.563 117.735 468.203 118.664C469.87 119.593 471.169 120.878 472.098 122.518C473.055 124.158 473.533 126.058 473.533 128.217C473.533 130.349 473.055 132.249 472.098 133.916C471.169 135.556 469.87 136.854 468.203 137.811C466.536 138.74 464.65 139.205 462.545 139.205ZM462.545 136.622C464.103 136.622 465.483 136.28 466.686 135.597C467.889 134.886 468.832 133.902 469.515 132.645C470.226 131.36 470.581 129.884 470.581 128.217C470.581 126.522 470.226 125.046 469.515 123.789C468.832 122.532 467.889 121.561 466.686 120.878C465.483 120.167 464.117 119.812 462.586 119.812C461.055 119.812 459.689 120.167 458.486 120.878C457.283 121.561 456.327 122.532 455.616 123.789C454.905 125.046 454.55 126.522 454.55 128.217C454.55 129.884 454.905 131.36 455.616 132.645C456.327 133.902 457.283 134.886 458.486 135.597C459.689 136.28 461.042 136.622 462.545 136.622ZM486.282 139.205C484.259 139.205 482.701 138.658 481.608 137.565C480.515 136.472 479.968 134.927 479.968 132.932V112.719H482.879V132.768C482.879 134.025 483.193 134.996 483.822 135.679C484.478 136.362 485.407 136.704 486.61 136.704C487.895 136.704 488.961 136.335 489.808 135.597L490.833 137.688C490.259 138.207 489.562 138.59 488.742 138.836C487.949 139.082 487.129 139.205 486.282 139.205ZM476.114 119.894V117.475H489.439V119.894H476.114ZM504.515 139.205C502.273 139.205 500.305 138.74 498.611 137.811C496.916 136.854 495.59 135.556 494.634 133.916C493.677 132.249 493.199 130.349 493.199 128.217C493.199 126.085 493.65 124.199 494.552 122.559C495.481 120.919 496.738 119.634 498.324 118.705C499.936 117.748 501.74 117.27 503.736 117.27C505.758 117.27 507.549 117.735 509.107 118.664C510.692 119.566 511.936 120.851 512.838 122.518C513.74 124.158 514.191 126.058 514.191 128.217C514.191 128.354 514.177 128.504 514.15 128.668C514.15 128.805 514.15 128.955 514.15 129.119H495.413V126.946H512.592L511.444 127.807C511.444 126.249 511.102 124.869 510.419 123.666C509.763 122.436 508.861 121.479 507.713 120.796C506.565 120.113 505.239 119.771 503.736 119.771C502.26 119.771 500.934 120.113 499.759 120.796C498.583 121.479 497.668 122.436 497.012 123.666C496.356 124.896 496.028 126.304 496.028 127.889V128.34C496.028 129.98 496.383 131.429 497.094 132.686C497.832 133.916 498.843 134.886 500.128 135.597C501.44 136.28 502.929 136.622 504.597 136.622C505.909 136.622 507.125 136.39 508.246 135.925C509.394 135.46 510.378 134.75 511.198 133.793L512.838 135.679C511.881 136.827 510.678 137.702 509.23 138.303C507.808 138.904 506.237 139.205 504.515 139.205ZM525.897 139.205C524.12 139.205 522.439 138.959 520.854 138.467C519.268 137.948 518.025 137.305 517.123 136.54L518.435 134.244C519.309 134.9 520.43 135.474 521.797 135.966C523.163 136.431 524.598 136.663 526.102 136.663C528.152 136.663 529.628 136.349 530.53 135.72C531.432 135.064 531.883 134.203 531.883 133.137C531.883 132.344 531.623 131.729 531.104 131.292C530.612 130.827 529.956 130.486 529.136 130.267C528.316 130.021 527.4 129.816 526.389 129.652C525.377 129.488 524.366 129.297 523.355 129.078C522.371 128.859 521.469 128.545 520.649 128.135C519.829 127.698 519.159 127.11 518.64 126.372C518.148 125.634 517.902 124.65 517.902 123.42C517.902 122.245 518.23 121.192 518.886 120.263C519.542 119.334 520.498 118.609 521.756 118.09C523.04 117.543 524.598 117.27 526.43 117.27C527.824 117.27 529.218 117.461 530.612 117.844C532.006 118.199 533.154 118.678 534.056 119.279L532.785 121.616C531.828 120.96 530.803 120.495 529.71 120.222C528.616 119.921 527.523 119.771 526.43 119.771C524.489 119.771 523.054 120.113 522.125 120.796C521.223 121.452 520.772 122.299 520.772 123.338C520.772 124.158 521.018 124.8 521.51 125.265C522.029 125.73 522.699 126.099 523.519 126.372C524.366 126.618 525.282 126.823 526.266 126.987C527.277 127.151 528.275 127.356 529.259 127.602C530.27 127.821 531.186 128.135 532.006 128.545C532.853 128.928 533.523 129.488 534.015 130.226C534.534 130.937 534.794 131.88 534.794 133.055C534.794 134.312 534.438 135.406 533.728 136.335C533.044 137.237 532.033 137.948 530.694 138.467C529.382 138.959 527.783 139.205 525.897 139.205ZM559.394 139.246C557.262 139.246 555.212 138.904 553.244 138.221C551.303 137.51 549.8 136.608 548.734 135.515L549.923 133.178C550.934 134.162 552.287 134.996 553.982 135.679C555.704 136.335 557.508 136.663 559.394 136.663C561.198 136.663 562.66 136.444 563.781 136.007C564.929 135.542 565.762 134.927 566.282 134.162C566.828 133.397 567.102 132.549 567.102 131.62C567.102 130.499 566.774 129.597 566.118 128.914C565.489 128.231 564.655 127.698 563.617 127.315C562.578 126.905 561.43 126.55 560.173 126.249C558.915 125.948 557.658 125.634 556.401 125.306C555.143 124.951 553.982 124.486 552.916 123.912C551.877 123.338 551.03 122.586 550.374 121.657C549.745 120.7 549.431 119.457 549.431 117.926C549.431 116.505 549.8 115.206 550.538 114.031C551.303 112.828 552.465 111.872 554.023 111.161C555.581 110.423 557.576 110.054 560.009 110.054C561.621 110.054 563.22 110.286 564.806 110.751C566.391 111.188 567.758 111.803 568.906 112.596L567.881 115.015C566.651 114.195 565.339 113.594 563.945 113.211C562.578 112.828 561.252 112.637 559.968 112.637C558.246 112.637 556.824 112.869 555.704 113.334C554.583 113.799 553.749 114.427 553.203 115.22C552.683 115.985 552.424 116.86 552.424 117.844C552.424 118.965 552.738 119.867 553.367 120.55C554.023 121.233 554.87 121.766 555.909 122.149C556.975 122.532 558.136 122.873 559.394 123.174C560.651 123.475 561.895 123.803 563.125 124.158C564.382 124.513 565.53 124.978 566.569 125.552C567.635 126.099 568.482 126.837 569.111 127.766C569.767 128.695 570.095 129.912 570.095 131.415C570.095 132.809 569.712 134.107 568.947 135.31C568.181 136.485 567.006 137.442 565.421 138.18C563.863 138.891 561.854 139.246 559.394 139.246ZM584.659 139.205C582.609 139.205 580.764 138.74 579.124 137.811C577.512 136.882 576.241 135.597 575.311 133.957C574.382 132.317 573.917 130.404 573.917 128.217C573.917 126.058 574.382 124.158 575.311 122.518C576.241 120.851 577.512 119.566 579.124 118.664C580.764 117.735 582.609 117.27 584.659 117.27C586.573 117.27 588.267 117.694 589.743 118.541C591.247 119.388 592.436 120.632 593.31 122.272C594.185 123.885 594.622 125.866 594.622 128.217C594.622 130.568 594.171 132.563 593.269 134.203C592.395 135.816 591.206 137.059 589.702 137.934C588.226 138.781 586.545 139.205 584.659 139.205ZM584.864 136.622C586.395 136.622 587.762 136.28 588.964 135.597C590.194 134.886 591.151 133.902 591.834 132.645C592.545 131.36 592.9 129.884 592.9 128.217C592.9 126.55 592.545 125.087 591.834 123.83C591.151 122.573 590.194 121.589 588.964 120.878C587.762 120.167 586.395 119.812 584.864 119.812C583.361 119.812 582.008 120.167 580.805 120.878C579.603 121.589 578.646 122.573 577.935 123.83C577.225 125.087 576.869 126.55 576.869 128.217C576.869 129.884 577.225 131.36 577.935 132.645C578.646 133.902 579.603 134.886 580.805 135.597C582.008 136.28 583.361 136.622 584.864 136.622ZM592.859 146.954V132.604L593.269 128.258L592.982 123.953V117.475H595.77V146.954H592.859ZM612.774 139.205C610.943 139.205 609.344 138.863 607.977 138.18C606.611 137.497 605.545 136.472 604.779 135.105C604.041 133.738 603.672 132.03 603.672 129.98V117.475H606.583V129.652C606.583 131.948 607.144 133.684 608.264 134.859C609.412 136.007 611.011 136.581 613.061 136.581C614.565 136.581 615.863 136.28 616.956 135.679C618.077 135.05 618.924 134.148 619.498 132.973C620.1 131.798 620.4 130.39 620.4 128.75V117.475H623.311V139H620.523V133.096L620.974 134.162C620.291 135.747 619.225 136.991 617.776 137.893C616.355 138.768 614.688 139.205 612.774 139.205ZM644.913 139V134.244L644.79 133.465V125.511C644.79 123.68 644.271 122.272 643.232 121.288C642.221 120.304 640.704 119.812 638.681 119.812C637.287 119.812 635.962 120.044 634.704 120.509C633.447 120.974 632.381 121.589 631.506 122.354L630.194 120.181C631.288 119.252 632.6 118.541 634.13 118.049C635.661 117.53 637.274 117.27 638.968 117.27C641.756 117.27 643.902 117.967 645.405 119.361C646.936 120.728 647.701 122.819 647.701 125.634V139H644.913ZM637.492 139.205C635.88 139.205 634.472 138.945 633.269 138.426C632.094 137.879 631.192 137.141 630.563 136.212C629.935 135.255 629.62 134.162 629.62 132.932C629.62 131.811 629.88 130.8 630.399 129.898C630.946 128.969 631.821 128.231 633.023 127.684C634.253 127.11 635.893 126.823 637.943 126.823H645.364V128.996H638.025C635.948 128.996 634.499 129.365 633.679 130.103C632.887 130.841 632.49 131.757 632.49 132.85C632.49 134.08 632.969 135.064 633.925 135.802C634.882 136.54 636.221 136.909 637.943 136.909C639.583 136.909 640.991 136.54 642.166 135.802C643.369 135.037 644.244 133.943 644.79 132.522L645.446 134.531C644.9 135.952 643.943 137.087 642.576 137.934C641.237 138.781 639.542 139.205 637.492 139.205ZM655.608 139V117.475H658.396V123.338L658.109 122.313C658.71 120.673 659.721 119.429 661.143 118.582C662.564 117.707 664.327 117.27 666.432 117.27V120.099C666.322 120.099 666.213 120.099 666.104 120.099C665.994 120.072 665.885 120.058 665.776 120.058C663.507 120.058 661.73 120.755 660.446 122.149C659.161 123.516 658.519 125.47 658.519 128.012V139H655.608ZM680.686 139.205C678.445 139.205 676.477 138.74 674.782 137.811C673.088 136.854 671.762 135.556 670.805 133.916C669.849 132.249 669.37 130.349 669.37 128.217C669.37 126.085 669.821 124.199 670.723 122.559C671.653 120.919 672.91 119.634 674.495 118.705C676.108 117.748 677.912 117.27 679.907 117.27C681.93 117.27 683.72 117.735 685.278 118.664C686.864 119.566 688.107 120.851 689.009 122.518C689.911 124.158 690.362 126.058 690.362 128.217C690.362 128.354 690.349 128.504 690.321 128.668C690.321 128.805 690.321 128.955 690.321 129.119H671.584V126.946H688.763L687.615 127.807C687.615 126.249 687.274 124.869 686.59 123.666C685.934 122.436 685.032 121.479 683.884 120.796C682.736 120.113 681.411 119.771 679.907 119.771C678.431 119.771 677.106 120.113 675.93 120.796C674.755 121.479 673.839 122.436 673.183 123.666C672.527 124.896 672.199 126.304 672.199 127.889V128.34C672.199 129.98 672.555 131.429 673.265 132.686C674.003 133.916 675.015 134.886 676.299 135.597C677.611 136.28 679.101 136.622 680.768 136.622C682.08 136.622 683.297 136.39 684.417 135.925C685.565 135.46 686.549 134.75 687.369 133.793L689.009 135.679C688.053 136.827 686.85 137.702 685.401 138.303C683.98 138.904 682.408 139.205 680.686 139.205Z" fill="white"/>
</svg>
