<svg width="1080" height="272" viewBox="0 0 1080 272" fill="none" xmlns="http://www.w3.org/2000/svg">
<path d="M0 100C0 44.7715 44.7715 0 100 0H980C1035.23 0 1080 44.7715 1080 100V272H0V100Z" fill="#2C4657"/>
<path d="M228.364 210V162.493H248.928C253.181 162.493 256.846 163.194 259.923 164.596C262.999 165.954 265.375 167.922 267.049 170.501C268.723 173.08 269.56 176.157 269.56 179.731C269.56 183.26 268.723 186.314 267.049 188.893C265.375 191.427 262.999 193.372 259.923 194.73C256.846 196.087 253.181 196.766 248.928 196.766H234.472L239.359 191.947V210H228.364ZM258.565 210L246.689 192.762H258.43L270.442 210H258.565ZM239.359 193.169L234.472 188.011H248.317C251.711 188.011 254.245 187.287 255.919 185.839C257.593 184.346 258.43 182.31 258.43 179.731C258.43 177.107 257.593 175.071 255.919 173.623C254.245 172.175 251.711 171.451 248.317 171.451H234.472L239.359 166.225V193.169ZM294.899 210.543C291.008 210.543 287.546 209.729 284.515 208.1C281.529 206.471 279.153 204.254 277.389 201.449C275.669 198.598 274.81 195.363 274.81 191.744C274.81 188.079 275.669 184.844 277.389 182.038C279.153 179.188 281.529 176.971 284.515 175.387C287.546 173.759 291.008 172.944 294.899 172.944C298.744 172.944 302.183 173.759 305.215 175.387C308.246 176.971 310.621 179.165 312.341 181.971C314.06 184.776 314.92 188.033 314.92 191.744C314.92 195.363 314.06 198.598 312.341 201.449C310.621 204.254 308.246 206.471 305.215 208.1C302.183 209.729 298.744 210.543 294.899 210.543ZM294.899 201.856C296.663 201.856 298.247 201.449 299.649 200.634C301.052 199.82 302.16 198.666 302.975 197.173C303.789 195.635 304.196 193.825 304.196 191.744C304.196 189.617 303.789 187.807 302.975 186.314C302.16 184.821 301.052 183.667 299.649 182.853C298.247 182.038 296.663 181.631 294.899 181.631C293.134 181.631 291.55 182.038 290.148 182.853C288.745 183.667 287.614 184.821 286.754 186.314C285.94 187.807 285.533 189.617 285.533 191.744C285.533 193.825 285.94 195.635 286.754 197.173C287.614 198.666 288.745 199.82 290.148 200.634C291.55 201.449 293.134 201.856 294.899 201.856ZM337.402 210.543C334.371 210.543 331.656 209.955 329.258 208.778C326.906 207.602 325.073 205.815 323.761 203.417C322.449 200.974 321.793 197.874 321.793 194.119V173.487H332.38V192.558C332.38 195.589 333.014 197.829 334.28 199.277C335.593 200.679 337.425 201.381 339.778 201.381C341.407 201.381 342.854 201.041 344.121 200.363C345.388 199.639 346.384 198.553 347.107 197.105C347.831 195.612 348.193 193.757 348.193 191.54V173.487H358.781V210H348.736V199.956L350.569 202.874C349.347 205.408 347.537 207.331 345.139 208.643C342.787 209.91 340.208 210.543 337.402 210.543ZM390.782 172.944C393.678 172.944 396.257 173.532 398.519 174.709C400.826 175.84 402.636 177.604 403.948 180.002C405.26 182.355 405.917 185.387 405.917 189.097V210H395.329V190.726C395.329 187.785 394.673 185.613 393.361 184.21C392.094 182.808 390.284 182.106 387.932 182.106C386.257 182.106 384.742 182.468 383.384 183.192C382.072 183.871 381.032 184.934 380.263 186.382C379.539 187.83 379.177 189.685 379.177 191.947V210H368.589V173.487H378.702V183.599L376.801 180.545C378.113 178.102 379.991 176.224 382.434 174.912C384.878 173.6 387.66 172.944 390.782 172.944ZM431.456 210.543C428.017 210.543 424.918 209.774 422.158 208.235C419.398 206.652 417.204 204.457 415.575 201.652C413.991 198.847 413.2 195.544 413.2 191.744C413.2 187.898 413.991 184.572 415.575 181.767C417.204 178.962 419.398 176.79 422.158 175.252C424.918 173.713 428.017 172.944 431.456 172.944C434.533 172.944 437.225 173.623 439.532 174.98C441.84 176.338 443.627 178.396 444.894 181.156C446.161 183.916 446.794 187.445 446.794 191.744C446.794 195.997 446.183 199.526 444.962 202.331C443.74 205.091 441.976 207.15 439.668 208.507C437.406 209.864 434.668 210.543 431.456 210.543ZM433.288 201.856C435.008 201.856 436.569 201.449 437.971 200.634C439.374 199.82 440.482 198.666 441.297 197.173C442.157 195.635 442.586 193.825 442.586 191.744C442.586 189.617 442.157 187.807 441.297 186.314C440.482 184.821 439.374 183.667 437.971 182.853C436.569 182.038 435.008 181.631 433.288 181.631C431.524 181.631 429.94 182.038 428.538 182.853C427.135 183.667 426.004 184.821 425.144 186.314C424.33 187.807 423.923 189.617 423.923 191.744C423.923 193.825 424.33 195.635 425.144 197.173C426.004 198.666 427.135 199.82 428.538 200.634C429.94 201.449 431.524 201.856 433.288 201.856ZM442.858 210V202.535L443.061 191.676L442.383 180.885V159.642H452.97V210H442.858ZM480.89 210.543C476.727 210.543 473.062 209.729 469.895 208.1C466.773 206.471 464.353 204.254 462.633 201.449C460.914 198.598 460.054 195.363 460.054 191.744C460.054 188.079 460.891 184.844 462.565 182.038C464.285 179.188 466.615 176.971 469.556 175.387C472.497 173.759 475.822 172.944 479.532 172.944C483.107 172.944 486.319 173.713 489.17 175.252C492.065 176.745 494.35 178.917 496.024 181.767C497.698 184.572 498.535 187.943 498.535 191.879C498.535 192.287 498.513 192.762 498.468 193.305C498.422 193.802 498.377 194.277 498.332 194.73H468.674V188.554H492.767L488.695 190.386C488.695 188.486 488.31 186.834 487.541 185.432C486.772 184.029 485.708 182.943 484.351 182.174C482.994 181.36 481.41 180.953 479.6 180.953C477.79 180.953 476.184 181.36 474.782 182.174C473.424 182.943 472.361 184.052 471.592 185.5C470.823 186.902 470.438 188.576 470.438 190.522V192.151C470.438 194.142 470.868 195.906 471.728 197.444C472.633 198.938 473.877 200.091 475.46 200.906C477.089 201.675 478.989 202.059 481.161 202.059C483.107 202.059 484.803 201.765 486.251 201.177C487.744 200.589 489.102 199.707 490.323 198.53L495.956 204.638C494.282 206.539 492.178 208.009 489.645 209.05C487.111 210.045 484.193 210.543 480.89 210.543ZM521.262 210.543C517.823 210.543 514.724 209.774 511.964 208.235C509.204 206.652 507.009 204.457 505.381 201.652C503.797 198.847 503.005 195.544 503.005 191.744C503.005 187.898 503.797 184.572 505.381 181.767C507.009 178.962 509.204 176.79 511.964 175.252C514.724 173.713 517.823 172.944 521.262 172.944C524.338 172.944 527.03 173.623 529.338 174.98C531.645 176.338 533.433 178.396 534.699 181.156C535.966 183.916 536.6 187.445 536.6 191.744C536.6 195.997 535.989 199.526 534.767 202.331C533.546 205.091 531.781 207.15 529.474 208.507C527.211 209.864 524.474 210.543 521.262 210.543ZM523.094 201.856C524.813 201.856 526.374 201.449 527.777 200.634C529.179 199.82 530.288 198.666 531.102 197.173C531.962 195.635 532.392 193.825 532.392 191.744C532.392 189.617 531.962 187.807 531.102 186.314C530.288 184.821 529.179 183.667 527.777 182.853C526.374 182.038 524.813 181.631 523.094 181.631C521.329 181.631 519.746 182.038 518.343 182.853C516.941 183.667 515.81 184.821 514.95 186.314C514.135 187.807 513.728 189.617 513.728 191.744C513.728 193.825 514.135 195.635 514.95 197.173C515.81 198.666 516.941 199.82 518.343 200.634C519.746 201.449 521.329 201.856 523.094 201.856ZM532.663 210V202.535L532.867 191.676L532.188 180.885V159.642H542.776V210H532.663ZM582.382 210V171.451H567.18V162.493H608.579V171.451H593.377V210H582.382ZM612.953 210V173.487H623.065V183.803L621.64 180.817C622.726 178.238 624.468 176.292 626.866 174.98C629.264 173.623 632.182 172.944 635.621 172.944V182.717C635.168 182.672 634.761 182.649 634.399 182.649C634.037 182.604 633.653 182.581 633.246 182.581C630.35 182.581 627.997 183.418 626.187 185.093C624.423 186.721 623.54 189.278 623.54 192.762V210H612.953ZM641.916 210V173.487H652.504V210H641.916ZM647.21 168.397C645.264 168.397 643.681 167.831 642.459 166.7C641.238 165.569 640.627 164.167 640.627 162.493C640.627 160.818 641.238 159.416 642.459 158.285C643.681 157.154 645.264 156.588 647.21 156.588C649.156 156.588 650.739 157.131 651.961 158.217C653.182 159.258 653.793 160.615 653.793 162.289C653.793 164.053 653.182 165.524 651.961 166.7C650.784 167.831 649.201 168.397 647.21 168.397ZM684.726 210V202.874L684.047 201.313V188.554C684.047 186.292 683.346 184.527 681.943 183.26C680.586 181.993 678.482 181.36 675.632 181.36C673.686 181.36 671.763 181.677 669.863 182.31C668.008 182.898 666.424 183.713 665.112 184.753L661.312 177.356C663.302 175.953 665.7 174.867 668.506 174.098C671.311 173.329 674.161 172.944 677.057 172.944C682.622 172.944 686.943 174.256 690.02 176.881C693.096 179.505 694.635 183.599 694.635 189.165V210H684.726ZM673.596 210.543C670.745 210.543 668.302 210.068 666.266 209.118C664.23 208.122 662.669 206.788 661.583 205.114C660.497 203.439 659.954 201.562 659.954 199.48C659.954 197.309 660.475 195.408 661.515 193.78C662.601 192.151 664.298 190.884 666.605 189.979C668.913 189.029 671.922 188.554 675.632 188.554H685.337V194.73H676.785C674.297 194.73 672.578 195.137 671.627 195.951C670.723 196.766 670.27 197.784 670.27 199.005C670.27 200.363 670.79 201.449 671.831 202.263C672.917 203.032 674.387 203.417 676.242 203.417C678.007 203.417 679.591 203.01 680.993 202.195C682.396 201.336 683.414 200.091 684.047 198.462L685.676 203.349C684.907 205.702 683.504 207.489 681.468 208.711C679.432 209.932 676.808 210.543 673.596 210.543ZM726.41 172.944C729.305 172.944 731.884 173.532 734.146 174.709C736.454 175.84 738.264 177.604 739.576 180.002C740.888 182.355 741.544 185.387 741.544 189.097V210H730.957V190.726C730.957 187.785 730.301 185.613 728.988 184.21C727.722 182.808 725.912 182.106 723.559 182.106C721.885 182.106 720.369 182.468 719.012 183.192C717.7 183.871 716.659 184.934 715.89 186.382C715.166 187.83 714.804 189.685 714.804 191.947V210H704.217V173.487H714.329V183.599L712.429 180.545C713.741 178.102 715.619 176.224 718.062 174.912C720.505 173.6 723.288 172.944 726.41 172.944ZM768.577 223.709C765.138 223.709 761.812 223.279 758.6 222.42C755.433 221.605 752.786 220.361 750.66 218.687L754.867 211.086C756.406 212.353 758.351 213.348 760.704 214.072C763.102 214.841 765.455 215.226 767.762 215.226C771.518 215.226 774.232 214.389 775.906 212.715C777.626 211.041 778.485 208.552 778.485 205.249V199.752L779.164 190.59L779.028 181.36V173.487H789.073V203.892C789.073 210.679 787.308 215.678 783.779 218.891C780.25 222.103 775.182 223.709 768.577 223.709ZM766.948 208.235C763.554 208.235 760.478 207.512 757.718 206.064C755.003 204.571 752.809 202.512 751.135 199.888C749.506 197.218 748.691 194.119 748.691 190.59C748.691 187.015 749.506 183.916 751.135 181.292C752.809 178.622 755.003 176.564 757.718 175.116C760.478 173.668 763.554 172.944 766.948 172.944C770.024 172.944 772.739 173.578 775.092 174.844C777.445 176.066 779.277 177.989 780.589 180.613C781.901 183.192 782.557 186.518 782.557 190.59C782.557 194.617 781.901 197.942 780.589 200.566C779.277 203.145 777.445 205.068 775.092 206.335C772.739 207.602 770.024 208.235 766.948 208.235ZM769.052 199.548C770.907 199.548 772.558 199.186 774.006 198.462C775.454 197.693 776.585 196.63 777.399 195.273C778.214 193.915 778.621 192.354 778.621 190.59C778.621 188.78 778.214 187.219 777.399 185.907C776.585 184.55 775.454 183.509 774.006 182.785C772.558 182.016 770.907 181.631 769.052 181.631C767.197 181.631 765.545 182.016 764.097 182.785C762.65 183.509 761.496 184.55 760.636 185.907C759.822 187.219 759.414 188.78 759.414 190.59C759.414 192.354 759.822 193.915 760.636 195.273C761.496 196.63 762.65 197.693 764.097 198.462C765.545 199.186 767.197 199.548 769.052 199.548ZM798.927 210V159.642H809.514V210H798.927ZM837.461 210.543C833.298 210.543 829.633 209.729 826.466 208.1C823.344 206.471 820.924 204.254 819.204 201.449C817.485 198.598 816.625 195.363 816.625 191.744C816.625 188.079 817.462 184.844 819.137 182.038C820.856 179.188 823.186 176.971 826.127 175.387C829.068 173.759 832.393 172.944 836.104 172.944C839.678 172.944 842.89 173.713 845.741 175.252C848.636 176.745 850.921 178.917 852.595 181.767C854.269 184.572 855.106 187.943 855.106 191.879C855.106 192.287 855.084 192.762 855.039 193.305C854.993 193.802 854.948 194.277 854.903 194.73H825.245V188.554H849.338L845.266 190.386C845.266 188.486 844.881 186.834 844.112 185.432C843.343 184.029 842.279 182.943 840.922 182.174C839.565 181.36 837.981 180.953 836.171 180.953C834.362 180.953 832.755 181.36 831.353 182.174C829.995 182.943 828.932 184.052 828.163 185.5C827.394 186.902 827.009 188.576 827.009 190.522V192.151C827.009 194.142 827.439 195.906 828.299 197.444C829.204 198.938 830.448 200.091 832.031 200.906C833.66 201.675 835.561 202.059 837.732 202.059C839.678 202.059 841.375 201.765 842.822 201.177C844.316 200.589 845.673 199.707 846.894 198.53L852.528 204.638C850.853 206.539 848.75 208.009 846.216 209.05C843.682 210.045 840.764 210.543 837.461 210.543Z" fill="white"/>
<path d="M377.542 98V71.924H367.456V69.3H390.662V71.924H380.576V98H377.542ZM401.794 98.205C399.553 98.205 397.585 97.7403 395.89 96.811C394.196 95.8543 392.87 94.556 391.913 92.916C390.957 91.2487 390.478 89.349 390.478 87.217C390.478 85.085 390.929 83.199 391.831 81.559C392.761 79.919 394.018 78.6343 395.603 77.705C397.216 76.7483 399.02 76.27 401.015 76.27C403.038 76.27 404.828 76.7347 406.386 77.664C407.972 78.566 409.215 79.8507 410.117 81.518C411.019 83.158 411.47 85.0577 411.47 87.217C411.47 87.3537 411.457 87.504 411.429 87.668C411.429 87.8047 411.429 87.955 411.429 88.119H392.692V85.946H409.871L408.723 86.807C408.723 85.249 408.382 83.8687 407.698 82.666C407.042 81.436 406.14 80.4793 404.992 79.796C403.844 79.1127 402.519 78.771 401.015 78.771C399.539 78.771 398.214 79.1127 397.038 79.796C395.863 80.4793 394.947 81.436 394.291 82.666C393.635 83.896 393.307 85.3037 393.307 86.889V87.34C393.307 88.98 393.663 90.4287 394.373 91.686C395.111 92.916 396.123 93.8863 397.407 94.597C398.719 95.2803 400.209 95.622 401.876 95.622C403.188 95.622 404.405 95.3897 405.525 94.925C406.673 94.4603 407.657 93.7497 408.477 92.793L410.117 94.679C409.161 95.827 407.958 96.7017 406.509 97.303C405.088 97.9043 403.516 98.205 401.794 98.205ZM444.291 76.27C446.041 76.27 447.558 76.6117 448.842 77.295C450.154 77.951 451.166 78.9623 451.876 80.329C452.614 81.6957 452.983 83.4177 452.983 85.495V98H450.072V85.782C450.072 83.5133 449.526 81.805 448.432 80.657C447.366 79.4817 445.849 78.894 443.881 78.894C442.405 78.894 441.121 79.2083 440.027 79.837C438.961 80.4383 438.128 81.3267 437.526 82.502C436.952 83.65 436.665 85.044 436.665 86.684V98H433.754V85.782C433.754 83.5133 433.208 81.805 432.114 80.657C431.021 79.4817 429.49 78.894 427.522 78.894C426.074 78.894 424.803 79.2083 423.709 79.837C422.616 80.4383 421.769 81.3267 421.167 82.502C420.593 83.65 420.306 85.044 420.306 86.684V98H417.395V76.475H420.183V82.297L419.732 81.272C420.388 79.714 421.441 78.4977 422.889 77.623C424.365 76.721 426.101 76.27 428.096 76.27C430.201 76.27 431.991 76.803 433.467 77.869C434.943 78.9077 435.9 80.4793 436.337 82.584L435.189 82.133C435.818 80.3837 436.925 78.976 438.51 77.91C440.123 76.8167 442.05 76.27 444.291 76.27ZM471.989 98.205C470.13 98.205 468.449 97.7813 466.946 96.934C465.443 96.0593 464.24 94.8157 463.338 93.203C462.463 91.563 462.026 89.5677 462.026 87.217C462.026 84.8663 462.463 82.8847 463.338 81.272C464.213 79.632 465.402 78.3883 466.905 77.541C468.408 76.6937 470.103 76.27 471.989 76.27C474.039 76.27 475.87 76.7347 477.483 77.664C479.123 78.566 480.408 79.8507 481.337 81.518C482.266 83.158 482.731 85.0577 482.731 87.217C482.731 89.4037 482.266 91.317 481.337 92.957C480.408 94.597 479.123 95.8817 477.483 96.811C475.87 97.7403 474.039 98.205 471.989 98.205ZM460.878 105.954V76.475H463.666V82.953L463.379 87.258L463.789 91.604V105.954H460.878ZM471.784 95.622C473.315 95.622 474.681 95.2803 475.884 94.597C477.087 93.8863 478.043 92.9023 478.754 91.645C479.465 90.3603 479.82 88.8843 479.82 87.217C479.82 85.5497 479.465 84.0873 478.754 82.83C478.043 81.5727 477.087 80.5887 475.884 79.878C474.681 79.1673 473.315 78.812 471.784 78.812C470.253 78.812 468.873 79.1673 467.643 79.878C466.44 80.5887 465.484 81.5727 464.773 82.83C464.09 84.0873 463.748 85.5497 463.748 87.217C463.748 88.8843 464.09 90.3603 464.773 91.645C465.484 92.9023 466.44 93.8863 467.643 94.597C468.873 95.2803 470.253 95.622 471.784 95.622ZM488.665 98V67.578H491.576V98H488.665ZM513.165 98V93.244L513.042 92.465V84.511C513.042 82.6797 512.522 81.272 511.484 80.288C510.472 79.304 508.955 78.812 506.933 78.812C505.539 78.812 504.213 79.0443 502.956 79.509C501.698 79.9737 500.632 80.5887 499.758 81.354L498.446 79.181C499.539 78.2517 500.851 77.541 502.382 77.049C503.912 76.5297 505.525 76.27 507.22 76.27C510.008 76.27 512.153 76.967 513.657 78.361C515.187 79.7277 515.953 81.8187 515.953 84.634V98H513.165ZM505.744 98.205C504.131 98.205 502.723 97.9453 501.521 97.426C500.345 96.8793 499.443 96.1413 498.815 95.212C498.186 94.2553 497.872 93.162 497.872 91.932C497.872 90.8113 498.131 89.8 498.651 88.898C499.197 87.9687 500.072 87.2307 501.275 86.684C502.505 86.11 504.145 85.823 506.195 85.823H513.616V87.996H506.277C504.199 87.996 502.751 88.365 501.931 89.103C501.138 89.841 500.742 90.7567 500.742 91.85C500.742 93.08 501.22 94.064 502.177 94.802C503.133 95.54 504.473 95.909 506.195 95.909C507.835 95.909 509.242 95.54 510.418 94.802C511.62 94.0367 512.495 92.9433 513.042 91.522L513.698 93.531C513.151 94.9523 512.194 96.0867 510.828 96.934C509.488 97.7813 507.794 98.205 505.744 98.205ZM530.665 98.205C528.643 98.205 527.085 97.6583 525.991 96.565C524.898 95.4717 524.351 93.9273 524.351 91.932V71.719H527.262V91.768C527.262 93.0253 527.577 93.9957 528.205 94.679C528.861 95.3623 529.791 95.704 530.993 95.704C532.278 95.704 533.344 95.335 534.191 94.597L535.216 96.688C534.642 97.2073 533.945 97.59 533.125 97.836C532.333 98.082 531.513 98.205 530.665 98.205ZM520.497 78.894V76.475H533.822V78.894H520.497ZM548.898 98.205C546.656 98.205 544.688 97.7403 542.994 96.811C541.299 95.8543 539.973 94.556 539.017 92.916C538.06 91.2487 537.582 89.349 537.582 87.217C537.582 85.085 538.033 83.199 538.935 81.559C539.864 79.919 541.121 78.6343 542.707 77.705C544.319 76.7483 546.123 76.27 548.119 76.27C550.141 76.27 551.932 76.7347 553.49 77.664C555.075 78.566 556.319 79.8507 557.221 81.518C558.123 83.158 558.574 85.0577 558.574 87.217C558.574 87.3537 558.56 87.504 558.533 87.668C558.533 87.8047 558.533 87.955 558.533 88.119H539.796V85.946H556.975L555.827 86.807C555.827 85.249 555.485 83.8687 554.802 82.666C554.146 81.436 553.244 80.4793 552.096 79.796C550.948 79.1127 549.622 78.771 548.119 78.771C546.643 78.771 545.317 79.1127 544.142 79.796C542.966 80.4793 542.051 81.436 541.395 82.666C540.739 83.896 540.411 85.3037 540.411 86.889V87.34C540.411 88.98 540.766 90.4287 541.477 91.686C542.215 92.916 543.226 93.8863 544.511 94.597C545.823 95.2803 547.312 95.622 548.98 95.622C550.292 95.622 551.508 95.3897 552.629 94.925C553.777 94.4603 554.761 93.7497 555.581 92.793L557.221 94.679C556.264 95.827 555.061 96.7017 553.613 97.303C552.191 97.9043 550.62 98.205 548.898 98.205ZM575.844 98V69.3H587.529C590.591 69.3 593.269 69.915 595.565 71.145C597.889 72.3477 599.693 74.0287 600.977 76.188C602.262 78.3473 602.904 80.8347 602.904 83.65C602.904 86.4653 602.262 88.9527 600.977 91.112C599.693 93.2713 597.889 94.966 595.565 96.196C593.269 97.3987 590.591 98 587.529 98H575.844ZM578.878 95.376H587.365C589.907 95.376 592.108 94.884 593.966 93.9C595.852 92.8887 597.315 91.5083 598.353 89.759C599.392 87.9823 599.911 85.946 599.911 83.65C599.911 81.3267 599.392 79.2903 598.353 77.541C597.315 75.7917 595.852 74.425 593.966 73.441C592.108 72.4297 589.907 71.924 587.365 71.924H578.878V95.376ZM618.245 98.205C616.004 98.205 614.036 97.7403 612.341 96.811C610.647 95.8543 609.321 94.556 608.364 92.916C607.408 91.2487 606.929 89.349 606.929 87.217C606.929 85.085 607.38 83.199 608.282 81.559C609.212 79.919 610.469 78.6343 612.054 77.705C613.667 76.7483 615.471 76.27 617.466 76.27C619.489 76.27 621.279 76.7347 622.837 77.664C624.423 78.566 625.666 79.8507 626.568 81.518C627.47 83.158 627.921 85.0577 627.921 87.217C627.921 87.3537 627.908 87.504 627.88 87.668C627.88 87.8047 627.88 87.955 627.88 88.119H609.143V85.946H626.322L625.174 86.807C625.174 85.249 624.833 83.8687 624.149 82.666C623.493 81.436 622.591 80.4793 621.443 79.796C620.295 79.1127 618.97 78.771 617.466 78.771C615.99 78.771 614.665 79.1127 613.489 79.796C612.314 80.4793 611.398 81.436 610.742 82.666C610.086 83.896 609.758 85.3037 609.758 86.889V87.34C609.758 88.98 610.114 90.4287 610.824 91.686C611.562 92.916 612.574 93.8863 613.858 94.597C615.17 95.2803 616.66 95.622 618.327 95.622C619.639 95.622 620.856 95.3897 621.976 94.925C623.124 94.4603 624.108 93.7497 624.928 92.793L626.568 94.679C625.612 95.827 624.409 96.7017 622.96 97.303C621.539 97.9043 619.967 98.205 618.245 98.205ZM639.628 98.205C637.851 98.205 636.17 97.959 634.585 97.467C632.999 96.9477 631.756 96.3053 630.854 95.54L632.166 93.244C633.04 93.9 634.161 94.474 635.528 94.966C636.894 95.4307 638.329 95.663 639.833 95.663C641.883 95.663 643.359 95.3487 644.261 94.72C645.163 94.064 645.614 93.203 645.614 92.137C645.614 91.3443 645.354 90.7293 644.835 90.292C644.343 89.8273 643.687 89.4857 642.867 89.267C642.047 89.021 641.131 88.816 640.12 88.652C639.108 88.488 638.097 88.2967 637.086 88.078C636.102 87.8593 635.2 87.545 634.38 87.135C633.56 86.6977 632.89 86.11 632.371 85.372C631.879 84.634 631.633 83.65 631.633 82.42C631.633 81.2447 631.961 80.1923 632.617 79.263C633.273 78.3337 634.229 77.6093 635.487 77.09C636.771 76.5433 638.329 76.27 640.161 76.27C641.555 76.27 642.949 76.4613 644.343 76.844C645.737 77.1993 646.885 77.6777 647.787 78.279L646.516 80.616C645.559 79.96 644.534 79.4953 643.441 79.222C642.347 78.9213 641.254 78.771 640.161 78.771C638.22 78.771 636.785 79.1127 635.856 79.796C634.954 80.452 634.503 81.2993 634.503 82.338C634.503 83.158 634.749 83.8003 635.241 84.265C635.76 84.7297 636.43 85.0987 637.25 85.372C638.097 85.618 639.013 85.823 639.997 85.987C641.008 86.151 642.006 86.356 642.99 86.602C644.001 86.8207 644.917 87.135 645.737 87.545C646.584 87.9277 647.254 88.488 647.746 89.226C648.265 89.9367 648.525 90.8797 648.525 92.055C648.525 93.3123 648.169 94.4057 647.459 95.335C646.775 96.237 645.764 96.9477 644.425 97.467C643.113 97.959 641.514 98.205 639.628 98.205ZM667.355 98V93.244L667.232 92.465V84.511C667.232 82.6797 666.713 81.272 665.674 80.288C664.663 79.304 663.146 78.812 661.123 78.812C659.729 78.812 658.403 79.0443 657.146 79.509C655.889 79.9737 654.823 80.5887 653.948 81.354L652.636 79.181C653.729 78.2517 655.041 77.541 656.572 77.049C658.103 76.5297 659.715 76.27 661.41 76.27C664.198 76.27 666.344 76.967 667.847 78.361C669.378 79.7277 670.143 81.8187 670.143 84.634V98H667.355ZM659.934 98.205C658.321 98.205 656.914 97.9453 655.711 97.426C654.536 96.8793 653.634 96.1413 653.005 95.212C652.376 94.2553 652.062 93.162 652.062 91.932C652.062 90.8113 652.322 89.8 652.841 88.898C653.388 87.9687 654.262 87.2307 655.465 86.684C656.695 86.11 658.335 85.823 660.385 85.823H667.806V87.996H660.467C658.39 87.996 656.941 88.365 656.121 89.103C655.328 89.841 654.932 90.7567 654.932 91.85C654.932 93.08 655.41 94.064 656.367 94.802C657.324 95.54 658.663 95.909 660.385 95.909C662.025 95.909 663.433 95.54 664.608 94.802C665.811 94.0367 666.685 92.9433 667.232 91.522L667.888 93.531C667.341 94.9523 666.385 96.0867 665.018 96.934C663.679 97.7813 661.984 98.205 659.934 98.205ZM678.05 98V76.475H680.961V98H678.05ZM679.526 71.719C678.924 71.719 678.419 71.514 678.009 71.104C677.599 70.694 677.394 70.202 677.394 69.628C677.394 69.054 677.599 68.5757 678.009 68.193C678.419 67.783 678.924 67.578 679.526 67.578C680.127 67.578 680.633 67.7693 681.043 68.152C681.453 68.5347 681.658 69.013 681.658 69.587C681.658 70.1883 681.453 70.694 681.043 71.104C680.66 71.514 680.154 71.719 679.526 71.719ZM700.048 76.27C701.798 76.27 703.328 76.6117 704.64 77.295C705.98 77.951 707.018 78.9623 707.756 80.329C708.522 81.6957 708.904 83.4177 708.904 85.495V98H705.993V85.782C705.993 83.5133 705.419 81.805 704.271 80.657C703.151 79.4817 701.565 78.894 699.515 78.894C697.985 78.894 696.645 79.2083 695.497 79.837C694.377 80.4383 693.502 81.3267 692.873 82.502C692.272 83.65 691.971 85.044 691.971 86.684V98H689.06V76.475H691.848V82.379L691.397 81.272C692.081 79.714 693.174 78.4977 694.677 77.623C696.181 76.721 697.971 76.27 700.048 76.27ZM404.991 139.246C402.832 139.246 400.823 138.891 398.964 138.18C397.133 137.442 395.534 136.417 394.167 135.105C392.828 133.766 391.776 132.221 391.01 130.472C390.272 128.695 389.903 126.755 389.903 124.65C389.903 122.545 390.272 120.618 391.01 118.869C391.776 117.092 392.828 115.548 394.167 114.236C395.534 112.897 397.133 111.872 398.964 111.161C400.796 110.423 402.805 110.054 404.991 110.054C407.151 110.054 409.146 110.423 410.977 111.161C412.809 111.872 414.394 112.883 415.733 114.195C417.1 115.507 418.152 117.051 418.89 118.828C419.656 120.605 420.038 122.545 420.038 124.65C420.038 126.755 419.656 128.695 418.89 130.472C418.152 132.249 417.1 133.793 415.733 135.105C414.394 136.417 412.809 137.442 410.977 138.18C409.146 138.891 407.151 139.246 404.991 139.246ZM414.38 144.699C413.506 144.699 412.658 144.59 411.838 144.371C411.018 144.152 410.185 143.797 409.337 143.305C408.517 142.84 407.67 142.225 406.795 141.46C405.921 140.695 404.964 139.765 403.925 138.672L407.246 137.852C408.094 138.863 408.914 139.697 409.706 140.353C410.526 141.009 411.319 141.487 412.084 141.788C412.877 142.116 413.656 142.28 414.421 142.28C416.553 142.28 418.371 141.405 419.874 139.656L421.35 141.419C419.546 143.606 417.223 144.699 414.38 144.699ZM404.991 136.54C406.713 136.54 408.299 136.253 409.747 135.679C411.223 135.078 412.494 134.23 413.56 133.137C414.654 132.044 415.501 130.786 416.102 129.365C416.704 127.916 417.004 126.345 417.004 124.65C417.004 122.928 416.704 121.356 416.102 119.935C415.501 118.486 414.654 117.229 413.56 116.163C412.494 115.07 411.223 114.236 409.747 113.662C408.299 113.061 406.713 112.76 404.991 112.76C403.269 112.76 401.67 113.061 400.194 113.662C398.718 114.236 397.434 115.07 396.34 116.163C395.274 117.229 394.427 118.486 393.798 119.935C393.197 121.356 392.896 122.928 392.896 124.65C392.896 126.345 393.197 127.916 393.798 129.365C394.427 130.786 395.274 132.044 396.34 133.137C397.434 134.23 398.718 135.078 400.194 135.679C401.67 136.253 403.269 136.54 404.991 136.54ZM435.121 139.205C433.29 139.205 431.691 138.863 430.324 138.18C428.957 137.497 427.891 136.472 427.126 135.105C426.388 133.738 426.019 132.03 426.019 129.98V117.475H428.93V129.652C428.93 131.948 429.49 133.684 430.611 134.859C431.759 136.007 433.358 136.581 435.408 136.581C436.911 136.581 438.21 136.28 439.303 135.679C440.424 135.05 441.271 134.148 441.845 132.973C442.446 131.798 442.747 130.39 442.747 128.75V117.475H445.658V139H442.87V133.096L443.321 134.162C442.638 135.747 441.572 136.991 440.123 137.893C438.702 138.768 437.034 139.205 435.121 139.205ZM462.545 139.205C460.468 139.205 458.595 138.74 456.928 137.811C455.288 136.854 453.99 135.556 453.033 133.916C452.076 132.249 451.598 130.349 451.598 128.217C451.598 126.058 452.076 124.158 453.033 122.518C453.99 120.878 455.288 119.593 456.928 118.664C458.568 117.735 460.44 117.27 462.545 117.27C464.677 117.27 466.563 117.735 468.203 118.664C469.87 119.593 471.169 120.878 472.098 122.518C473.055 124.158 473.533 126.058 473.533 128.217C473.533 130.349 473.055 132.249 472.098 133.916C471.169 135.556 469.87 136.854 468.203 137.811C466.536 138.74 464.65 139.205 462.545 139.205ZM462.545 136.622C464.103 136.622 465.483 136.28 466.686 135.597C467.889 134.886 468.832 133.902 469.515 132.645C470.226 131.36 470.581 129.884 470.581 128.217C470.581 126.522 470.226 125.046 469.515 123.789C468.832 122.532 467.889 121.561 466.686 120.878C465.483 120.167 464.117 119.812 462.586 119.812C461.055 119.812 459.689 120.167 458.486 120.878C457.283 121.561 456.327 122.532 455.616 123.789C454.905 125.046 454.55 126.522 454.55 128.217C454.55 129.884 454.905 131.36 455.616 132.645C456.327 133.902 457.283 134.886 458.486 135.597C459.689 136.28 461.042 136.622 462.545 136.622ZM486.282 139.205C484.259 139.205 482.701 138.658 481.608 137.565C480.515 136.472 479.968 134.927 479.968 132.932V112.719H482.879V132.768C482.879 134.025 483.193 134.996 483.822 135.679C484.478 136.362 485.407 136.704 486.61 136.704C487.895 136.704 488.961 136.335 489.808 135.597L490.833 137.688C490.259 138.207 489.562 138.59 488.742 138.836C487.949 139.082 487.129 139.205 486.282 139.205ZM476.114 119.894V117.475H489.439V119.894H476.114ZM504.515 139.205C502.273 139.205 500.305 138.74 498.611 137.811C496.916 136.854 495.59 135.556 494.634 133.916C493.677 132.249 493.199 130.349 493.199 128.217C493.199 126.085 493.65 124.199 494.552 122.559C495.481 120.919 496.738 119.634 498.324 118.705C499.936 117.748 501.74 117.27 503.736 117.27C505.758 117.27 507.549 117.735 509.107 118.664C510.692 119.566 511.936 120.851 512.838 122.518C513.74 124.158 514.191 126.058 514.191 128.217C514.191 128.354 514.177 128.504 514.15 128.668C514.15 128.805 514.15 128.955 514.15 129.119H495.413V126.946H512.592L511.444 127.807C511.444 126.249 511.102 124.869 510.419 123.666C509.763 122.436 508.861 121.479 507.713 120.796C506.565 120.113 505.239 119.771 503.736 119.771C502.26 119.771 500.934 120.113 499.759 120.796C498.583 121.479 497.668 122.436 497.012 123.666C496.356 124.896 496.028 126.304 496.028 127.889V128.34C496.028 129.98 496.383 131.429 497.094 132.686C497.832 133.916 498.843 134.886 500.128 135.597C501.44 136.28 502.929 136.622 504.597 136.622C505.909 136.622 507.125 136.39 508.246 135.925C509.394 135.46 510.378 134.75 511.198 133.793L512.838 135.679C511.881 136.827 510.678 137.702 509.23 138.303C507.808 138.904 506.237 139.205 504.515 139.205ZM525.897 139.205C524.12 139.205 522.439 138.959 520.854 138.467C519.268 137.948 518.025 137.305 517.123 136.54L518.435 134.244C519.309 134.9 520.43 135.474 521.797 135.966C523.163 136.431 524.598 136.663 526.102 136.663C528.152 136.663 529.628 136.349 530.53 135.72C531.432 135.064 531.883 134.203 531.883 133.137C531.883 132.344 531.623 131.729 531.104 131.292C530.612 130.827 529.956 130.486 529.136 130.267C528.316 130.021 527.4 129.816 526.389 129.652C525.377 129.488 524.366 129.297 523.355 129.078C522.371 128.859 521.469 128.545 520.649 128.135C519.829 127.698 519.159 127.11 518.64 126.372C518.148 125.634 517.902 124.65 517.902 123.42C517.902 122.245 518.23 121.192 518.886 120.263C519.542 119.334 520.498 118.609 521.756 118.09C523.04 117.543 524.598 117.27 526.43 117.27C527.824 117.27 529.218 117.461 530.612 117.844C532.006 118.199 533.154 118.678 534.056 119.279L532.785 121.616C531.828 120.96 530.803 120.495 529.71 120.222C528.616 119.921 527.523 119.771 526.43 119.771C524.489 119.771 523.054 120.113 522.125 120.796C521.223 121.452 520.772 122.299 520.772 123.338C520.772 124.158 521.018 124.8 521.51 125.265C522.029 125.73 522.699 126.099 523.519 126.372C524.366 126.618 525.282 126.823 526.266 126.987C527.277 127.151 528.275 127.356 529.259 127.602C530.27 127.821 531.186 128.135 532.006 128.545C532.853 128.928 533.523 129.488 534.015 130.226C534.534 130.937 534.794 131.88 534.794 133.055C534.794 134.312 534.438 135.406 533.728 136.335C533.044 137.237 532.033 137.948 530.694 138.467C529.382 138.959 527.783 139.205 525.897 139.205ZM559.394 139.246C557.262 139.246 555.212 138.904 553.244 138.221C551.303 137.51 549.8 136.608 548.734 135.515L549.923 133.178C550.934 134.162 552.287 134.996 553.982 135.679C555.704 136.335 557.508 136.663 559.394 136.663C561.198 136.663 562.66 136.444 563.781 136.007C564.929 135.542 565.762 134.927 566.282 134.162C566.828 133.397 567.102 132.549 567.102 131.62C567.102 130.499 566.774 129.597 566.118 128.914C565.489 128.231 564.655 127.698 563.617 127.315C562.578 126.905 561.43 126.55 560.173 126.249C558.915 125.948 557.658 125.634 556.401 125.306C555.143 124.951 553.982 124.486 552.916 123.912C551.877 123.338 551.03 122.586 550.374 121.657C549.745 120.7 549.431 119.457 549.431 117.926C549.431 116.505 549.8 115.206 550.538 114.031C551.303 112.828 552.465 111.872 554.023 111.161C555.581 110.423 557.576 110.054 560.009 110.054C561.621 110.054 563.22 110.286 564.806 110.751C566.391 111.188 567.758 111.803 568.906 112.596L567.881 115.015C566.651 114.195 565.339 113.594 563.945 113.211C562.578 112.828 561.252 112.637 559.968 112.637C558.246 112.637 556.824 112.869 555.704 113.334C554.583 113.799 553.749 114.427 553.203 115.22C552.683 115.985 552.424 116.86 552.424 117.844C552.424 118.965 552.738 119.867 553.367 120.55C554.023 121.233 554.87 121.766 555.909 122.149C556.975 122.532 558.136 122.873 559.394 123.174C560.651 123.475 561.895 123.803 563.125 124.158C564.382 124.513 565.53 124.978 566.569 125.552C567.635 126.099 568.482 126.837 569.111 127.766C569.767 128.695 570.095 129.912 570.095 131.415C570.095 132.809 569.712 134.107 568.947 135.31C568.181 136.485 567.006 137.442 565.421 138.18C563.863 138.891 561.854 139.246 559.394 139.246ZM584.659 139.205C582.609 139.205 580.764 138.74 579.124 137.811C577.512 136.882 576.241 135.597 575.311 133.957C574.382 132.317 573.917 130.404 573.917 128.217C573.917 126.058 574.382 124.158 575.311 122.518C576.241 120.851 577.512 119.566 579.124 118.664C580.764 117.735 582.609 117.27 584.659 117.27C586.573 117.27 588.267 117.694 589.743 118.541C591.247 119.388 592.436 120.632 593.31 122.272C594.185 123.885 594.622 125.866 594.622 128.217C594.622 130.568 594.171 132.563 593.269 134.203C592.395 135.816 591.206 137.059 589.702 137.934C588.226 138.781 586.545 139.205 584.659 139.205ZM584.864 136.622C586.395 136.622 587.762 136.28 588.964 135.597C590.194 134.886 591.151 133.902 591.834 132.645C592.545 131.36 592.9 129.884 592.9 128.217C592.9 126.55 592.545 125.087 591.834 123.83C591.151 122.573 590.194 121.589 588.964 120.878C587.762 120.167 586.395 119.812 584.864 119.812C583.361 119.812 582.008 120.167 580.805 120.878C579.603 121.589 578.646 122.573 577.935 123.83C577.225 125.087 576.869 126.55 576.869 128.217C576.869 129.884 577.225 131.36 577.935 132.645C578.646 133.902 579.603 134.886 580.805 135.597C582.008 136.28 583.361 136.622 584.864 136.622ZM592.859 146.954V132.604L593.269 128.258L592.982 123.953V117.475H595.77V146.954H592.859ZM612.774 139.205C610.943 139.205 609.344 138.863 607.977 138.18C606.611 137.497 605.545 136.472 604.779 135.105C604.041 133.738 603.672 132.03 603.672 129.98V117.475H606.583V129.652C606.583 131.948 607.144 133.684 608.264 134.859C609.412 136.007 611.011 136.581 613.061 136.581C614.565 136.581 615.863 136.28 616.956 135.679C618.077 135.05 618.924 134.148 619.498 132.973C620.1 131.798 620.4 130.39 620.4 128.75V117.475H623.311V139H620.523V133.096L620.974 134.162C620.291 135.747 619.225 136.991 617.776 137.893C616.355 138.768 614.688 139.205 612.774 139.205ZM644.913 139V134.244L644.79 133.465V125.511C644.79 123.68 644.271 122.272 643.232 121.288C642.221 120.304 640.704 119.812 638.681 119.812C637.287 119.812 635.962 120.044 634.704 120.509C633.447 120.974 632.381 121.589 631.506 122.354L630.194 120.181C631.288 119.252 632.6 118.541 634.13 118.049C635.661 117.53 637.274 117.27 638.968 117.27C641.756 117.27 643.902 117.967 645.405 119.361C646.936 120.728 647.701 122.819 647.701 125.634V139H644.913ZM637.492 139.205C635.88 139.205 634.472 138.945 633.269 138.426C632.094 137.879 631.192 137.141 630.563 136.212C629.935 135.255 629.62 134.162 629.62 132.932C629.62 131.811 629.88 130.8 630.399 129.898C630.946 128.969 631.821 128.231 633.023 127.684C634.253 127.11 635.893 126.823 637.943 126.823H645.364V128.996H638.025C635.948 128.996 634.499 129.365 633.679 130.103C632.887 130.841 632.49 131.757 632.49 132.85C632.49 134.08 632.969 135.064 633.925 135.802C634.882 136.54 636.221 136.909 637.943 136.909C639.583 136.909 640.991 136.54 642.166 135.802C643.369 135.037 644.244 133.943 644.79 132.522L645.446 134.531C644.9 135.952 643.943 137.087 642.576 137.934C641.237 138.781 639.542 139.205 637.492 139.205ZM655.608 139V117.475H658.396V123.338L658.109 122.313C658.71 120.673 659.721 119.429 661.143 118.582C662.564 117.707 664.327 117.27 666.432 117.27V120.099C666.322 120.099 666.213 120.099 666.104 120.099C665.994 120.072 665.885 120.058 665.776 120.058C663.507 120.058 661.73 120.755 660.446 122.149C659.161 123.516 658.519 125.47 658.519 128.012V139H655.608ZM680.686 139.205C678.445 139.205 676.477 138.74 674.782 137.811C673.088 136.854 671.762 135.556 670.805 133.916C669.849 132.249 669.37 130.349 669.37 128.217C669.37 126.085 669.821 124.199 670.723 122.559C671.653 120.919 672.91 119.634 674.495 118.705C676.108 117.748 677.912 117.27 679.907 117.27C681.93 117.27 683.72 117.735 685.278 118.664C686.864 119.566 688.107 120.851 689.009 122.518C689.911 124.158 690.362 126.058 690.362 128.217C690.362 128.354 690.349 128.504 690.321 128.668C690.321 128.805 690.321 128.955 690.321 129.119H671.584V126.946H688.763L687.615 127.807C687.615 126.249 687.274 124.869 686.59 123.666C685.934 122.436 685.032 121.479 683.884 120.796C682.736 120.113 681.411 119.771 679.907 119.771C678.431 119.771 677.106 120.113 675.93 120.796C674.755 121.479 673.839 122.436 673.183 123.666C672.527 124.896 672.199 126.304 672.199 127.889V128.34C672.199 129.98 672.555 131.429 673.265 132.686C674.003 133.916 675.015 134.886 676.299 135.597C677.611 136.28 679.101 136.622 680.768 136.622C682.08 136.622 683.297 136.39 684.417 135.925C685.565 135.46 686.549 134.75 687.369 133.793L689.009 135.679C688.053 136.827 686.85 137.702 685.401 138.303C683.98 138.904 682.408 139.205 680.686 139.205Z" fill="white"/>
</svg>
