<svg width="1080" height="272" viewBox="0 0 1080 272" fill="none" xmlns="http://www.w3.org/2000/svg">
<path d="M0 100C0 44.7715 44.7715 0 100 0H980C1035.23 0 1080 44.7715 1080 100V272H0V100Z" fill="#F1F1F1"/>
<path d="M0 100C0 44.7715 44.7715 0 100 0H980C1035.23 0 1080 44.7715 1080 100V272H0V100Z" fill="#18625B"/>
<path d="M208.981 210.814C205.316 210.814 201.9 210.226 198.733 209.05C195.611 207.828 192.896 206.109 190.589 203.892C188.281 201.675 186.471 199.073 185.159 196.087C183.892 193.101 183.259 189.821 183.259 186.246C183.259 182.672 183.892 179.392 185.159 176.405C186.471 173.419 188.281 170.818 190.589 168.601C192.941 166.384 195.679 164.687 198.801 163.511C201.923 162.289 205.339 161.678 209.049 161.678C213.166 161.678 216.876 162.402 220.179 163.85C223.527 165.252 226.332 167.334 228.595 170.094L221.536 176.609C219.908 174.754 218.098 173.374 216.107 172.469C214.116 171.519 211.944 171.044 209.592 171.044C207.375 171.044 205.339 171.406 203.484 172.13C201.629 172.854 200.022 173.894 198.665 175.252C197.308 176.609 196.244 178.215 195.475 180.07C194.751 181.925 194.389 183.984 194.389 186.246C194.389 188.509 194.751 190.567 195.475 192.422C196.244 194.277 197.308 195.883 198.665 197.241C200.022 198.598 201.629 199.639 203.484 200.363C205.339 201.087 207.375 201.449 209.592 201.449C211.944 201.449 214.116 200.996 216.107 200.091C218.098 199.141 219.908 197.716 221.536 195.816L228.595 202.331C226.332 205.091 223.527 207.195 220.179 208.643C216.876 210.09 213.143 210.814 208.981 210.814ZM251.388 210.543C247.497 210.543 244.035 209.729 241.004 208.1C238.018 206.471 235.642 204.254 233.878 201.449C232.158 198.598 231.299 195.363 231.299 191.744C231.299 188.079 232.158 184.844 233.878 182.038C235.642 179.188 238.018 176.971 241.004 175.387C244.035 173.759 247.497 172.944 251.388 172.944C255.233 172.944 258.672 173.759 261.704 175.387C264.735 176.971 267.11 179.165 268.83 181.971C270.549 184.776 271.409 188.033 271.409 191.744C271.409 195.363 270.549 198.598 268.83 201.449C267.11 204.254 264.735 206.471 261.704 208.1C258.672 209.729 255.233 210.543 251.388 210.543ZM251.388 201.856C253.152 201.856 254.736 201.449 256.138 200.634C257.541 199.82 258.649 198.666 259.464 197.173C260.278 195.635 260.686 193.825 260.686 191.744C260.686 189.617 260.278 187.807 259.464 186.314C258.649 184.821 257.541 183.667 256.138 182.853C254.736 182.038 253.152 181.631 251.388 181.631C249.623 181.631 248.039 182.038 246.637 182.853C245.234 183.667 244.103 184.821 243.244 186.314C242.429 187.807 242.022 189.617 242.022 191.744C242.022 193.825 242.429 195.635 243.244 197.173C244.103 198.666 245.234 199.82 246.637 200.634C248.039 201.449 249.623 201.856 251.388 201.856ZM278.485 210V159.642H289.073V210H278.485ZM316.273 210.543C312.382 210.543 308.921 209.729 305.889 208.1C302.903 206.471 300.528 204.254 298.763 201.449C297.044 198.598 296.184 195.363 296.184 191.744C296.184 188.079 297.044 184.844 298.763 182.038C300.528 179.188 302.903 176.971 305.889 175.387C308.921 173.759 312.382 172.944 316.273 172.944C320.119 172.944 323.557 173.759 326.589 175.387C329.62 176.971 331.996 179.165 333.715 181.971C335.434 184.776 336.294 188.033 336.294 191.744C336.294 195.363 335.434 198.598 333.715 201.449C331.996 204.254 329.62 206.471 326.589 208.1C323.557 209.729 320.119 210.543 316.273 210.543ZM316.273 201.856C318.038 201.856 319.621 201.449 321.024 200.634C322.426 199.82 323.535 198.666 324.349 197.173C325.164 195.635 325.571 193.825 325.571 191.744C325.571 189.617 325.164 187.807 324.349 186.314C323.535 184.821 322.426 183.667 321.024 182.853C319.621 182.038 318.038 181.631 316.273 181.631C314.508 181.631 312.925 182.038 311.522 182.853C310.12 183.667 308.988 184.821 308.129 186.314C307.314 187.807 306.907 189.617 306.907 191.744C306.907 193.825 307.314 195.635 308.129 197.173C308.988 198.666 310.12 199.82 311.522 200.634C312.925 201.449 314.508 201.856 316.273 201.856ZM343.371 210V173.487H353.483V183.803L352.058 180.817C353.144 178.238 354.886 176.292 357.284 174.98C359.682 173.623 362.6 172.944 366.039 172.944V182.717C365.586 182.672 365.179 182.649 364.817 182.649C364.455 182.604 364.07 182.581 363.663 182.581C360.768 182.581 358.415 183.418 356.605 185.093C354.84 186.721 353.958 189.278 353.958 192.762V210H343.371ZM373.888 210V172.673C373.888 168.555 375.11 165.275 377.553 162.832C379.997 160.343 383.48 159.099 388.005 159.099C389.543 159.099 391.014 159.258 392.416 159.574C393.864 159.891 395.086 160.389 396.081 161.067L393.299 168.736C392.711 168.329 392.054 168.012 391.331 167.786C390.607 167.56 389.837 167.447 389.023 167.447C387.485 167.447 386.286 167.899 385.426 168.804C384.612 169.664 384.204 170.976 384.204 172.741V176.134L384.476 180.681V210H373.888ZM368.255 182.446V174.302H393.57V182.446H368.255ZM414.251 210.543C411.219 210.543 408.505 209.955 406.107 208.778C403.754 207.602 401.921 205.815 400.609 203.417C399.297 200.974 398.641 197.874 398.641 194.119V173.487H409.229V192.558C409.229 195.589 409.862 197.829 411.129 199.277C412.441 200.679 414.273 201.381 416.626 201.381C418.255 201.381 419.703 201.041 420.97 200.363C422.237 199.639 423.232 198.553 423.956 197.105C424.68 195.612 425.042 193.757 425.042 191.54V173.487H435.629V210H425.585V199.956L427.417 202.874C426.195 205.408 424.386 207.331 421.988 208.643C419.635 209.91 417.056 210.543 414.251 210.543ZM445.438 210V159.642H456.025V210H445.438ZM485.818 210V162.493H507.4C512.558 162.493 517.105 163.488 521.041 165.479C524.978 167.424 528.054 170.162 530.271 173.691C532.488 177.22 533.597 181.405 533.597 186.246C533.597 191.042 532.488 195.227 530.271 198.802C528.054 202.331 524.978 205.091 521.041 207.082C517.105 209.027 512.558 210 507.4 210H485.818ZM496.812 200.974H506.857C510.024 200.974 512.761 200.385 515.069 199.209C517.422 197.987 519.231 196.268 520.498 194.051C521.81 191.834 522.466 189.232 522.466 186.246C522.466 183.215 521.81 180.613 520.498 178.441C519.231 176.224 517.422 174.528 515.069 173.351C512.761 172.13 510.024 171.519 506.857 171.519H496.812V200.974ZM541.142 210V173.487H551.729V210H541.142ZM546.436 168.397C544.49 168.397 542.906 167.831 541.685 166.7C540.463 165.569 539.852 164.167 539.852 162.493C539.852 160.818 540.463 159.416 541.685 158.285C542.906 157.154 544.49 156.588 546.436 156.588C548.381 156.588 549.965 157.131 551.186 158.217C552.408 159.258 553.019 160.615 553.019 162.289C553.019 164.053 552.408 165.524 551.186 166.7C550.01 167.831 548.426 168.397 546.436 168.397ZM573.839 210.543C570.717 210.543 567.709 210.181 564.813 209.457C561.962 208.688 559.7 207.738 558.026 206.607L561.555 199.005C563.229 200.046 565.197 200.906 567.46 201.584C569.767 202.218 572.029 202.535 574.246 202.535C576.69 202.535 578.409 202.24 579.404 201.652C580.445 201.064 580.965 200.25 580.965 199.209C580.965 198.349 580.558 197.716 579.744 197.309C578.975 196.856 577.934 196.517 576.622 196.291C575.31 196.064 573.862 195.838 572.278 195.612C570.74 195.386 569.179 195.092 567.595 194.73C566.012 194.323 564.564 193.734 563.252 192.965C561.94 192.196 560.877 191.155 560.062 189.843C559.293 188.531 558.908 186.834 558.908 184.753C558.908 182.446 559.564 180.41 560.877 178.645C562.234 176.881 564.179 175.501 566.713 174.505C569.247 173.464 572.278 172.944 575.807 172.944C578.296 172.944 580.83 173.216 583.409 173.759C585.988 174.302 588.137 175.093 589.856 176.134L586.327 183.667C584.562 182.627 582.775 181.925 580.965 181.563C579.201 181.156 577.481 180.953 575.807 180.953C573.455 180.953 571.735 181.269 570.649 181.903C569.564 182.536 569.021 183.351 569.021 184.346C569.021 185.251 569.405 185.93 570.174 186.382C570.989 186.834 572.052 187.196 573.364 187.468C574.676 187.739 576.102 187.988 577.64 188.214C579.223 188.395 580.807 188.69 582.391 189.097C583.974 189.504 585.399 190.092 586.666 190.861C587.978 191.585 589.042 192.603 589.856 193.915C590.67 195.182 591.078 196.856 591.078 198.938C591.078 201.2 590.399 203.213 589.042 204.978C587.684 206.697 585.716 208.054 583.137 209.05C580.603 210.045 577.504 210.543 573.839 210.543ZM615.256 210.543C611.319 210.543 607.813 209.751 604.736 208.168C601.659 206.539 599.239 204.299 597.474 201.449C595.755 198.598 594.895 195.363 594.895 191.744C594.895 188.079 595.755 184.844 597.474 182.038C599.239 179.188 601.659 176.971 604.736 175.387C607.813 173.759 611.319 172.944 615.256 172.944C619.101 172.944 622.45 173.759 625.3 175.387C628.15 176.971 630.254 179.256 631.612 182.242L623.4 186.653C622.45 184.934 621.251 183.667 619.803 182.853C618.4 182.038 616.862 181.631 615.188 181.631C613.378 181.631 611.749 182.038 610.301 182.853C608.853 183.667 607.7 184.821 606.84 186.314C606.026 187.807 605.618 189.617 605.618 191.744C605.618 193.87 606.026 195.68 606.84 197.173C607.7 198.666 608.853 199.82 610.301 200.634C611.749 201.449 613.378 201.856 615.188 201.856C616.862 201.856 618.4 201.471 619.803 200.702C621.251 199.888 622.45 198.598 623.4 196.834L631.612 201.313C630.254 204.254 628.15 206.539 625.3 208.168C622.45 209.751 619.101 210.543 615.256 210.543ZM653.114 210.543C650.082 210.543 647.368 209.955 644.97 208.778C642.617 207.602 640.784 205.815 639.472 203.417C638.16 200.974 637.504 197.874 637.504 194.119V173.487H648.091V192.558C648.091 195.589 648.725 197.829 649.992 199.277C651.304 200.679 653.136 201.381 655.489 201.381C657.118 201.381 658.566 201.041 659.833 200.363C661.099 199.639 662.095 198.553 662.819 197.105C663.543 195.612 663.905 193.757 663.905 191.54V173.487H674.492V210H664.448V199.956L666.28 202.874C665.058 205.408 663.249 207.331 660.851 208.643C658.498 209.91 655.919 210.543 653.114 210.543ZM696.584 210.543C693.463 210.543 690.454 210.181 687.558 209.457C684.708 208.688 682.445 207.738 680.771 206.607L684.3 199.005C685.974 200.046 687.943 200.906 690.205 201.584C692.512 202.218 694.775 202.535 696.992 202.535C699.435 202.535 701.154 202.24 702.15 201.652C703.19 201.064 703.711 200.25 703.711 199.209C703.711 198.349 703.303 197.716 702.489 197.309C701.72 196.856 700.679 196.517 699.367 196.291C698.055 196.064 696.607 195.838 695.024 195.612C693.485 195.386 691.924 195.092 690.341 194.73C688.757 194.323 687.309 193.734 685.997 192.965C684.685 192.196 683.622 191.155 682.807 189.843C682.038 188.531 681.654 186.834 681.654 184.753C681.654 182.446 682.31 180.41 683.622 178.645C684.979 176.881 686.925 175.501 689.458 174.505C691.992 173.464 695.024 172.944 698.553 172.944C701.041 172.944 703.575 173.216 706.154 173.759C708.733 174.302 710.882 175.093 712.601 176.134L709.072 183.667C707.308 182.627 705.52 181.925 703.711 181.563C701.946 181.156 700.227 180.953 698.553 180.953C696.2 180.953 694.481 181.269 693.395 181.903C692.309 182.536 691.766 183.351 691.766 184.346C691.766 185.251 692.15 185.93 692.92 186.382C693.734 186.834 694.797 187.196 696.109 187.468C697.422 187.739 698.847 187.988 700.385 188.214C701.969 188.395 703.552 188.69 705.136 189.097C706.719 189.504 708.145 190.092 709.412 190.861C710.724 191.585 711.787 192.603 712.601 193.915C713.416 195.182 713.823 196.856 713.823 198.938C713.823 201.2 713.144 203.213 711.787 204.978C710.43 206.697 708.461 208.054 705.882 209.05C703.349 210.045 700.249 210.543 696.584 210.543ZM732.639 210.543C729.517 210.543 726.509 210.181 723.613 209.457C720.762 208.688 718.5 207.738 716.826 206.607L720.355 199.005C722.029 200.046 723.997 200.906 726.26 201.584C728.567 202.218 730.829 202.535 733.047 202.535C735.49 202.535 737.209 202.24 738.204 201.652C739.245 201.064 739.765 200.25 739.765 199.209C739.765 198.349 739.358 197.716 738.544 197.309C737.775 196.856 736.734 196.517 735.422 196.291C734.11 196.064 732.662 195.838 731.078 195.612C729.54 195.386 727.979 195.092 726.395 194.73C724.812 194.323 723.364 193.734 722.052 192.965C720.74 192.196 719.677 191.155 718.862 189.843C718.093 188.531 717.708 186.834 717.708 184.753C717.708 182.446 718.364 180.41 719.677 178.645C721.034 176.881 722.979 175.501 725.513 174.505C728.047 173.464 731.078 172.944 734.607 172.944C737.096 172.944 739.63 173.216 742.209 173.759C744.788 174.302 746.937 175.093 748.656 176.134L745.127 183.667C743.362 182.627 741.575 181.925 739.765 181.563C738.001 181.156 736.282 180.953 734.607 180.953C732.255 180.953 730.535 181.269 729.45 181.903C728.364 182.536 727.821 183.351 727.821 184.346C727.821 185.251 728.205 185.93 728.974 186.382C729.789 186.834 730.852 187.196 732.164 187.468C733.476 187.739 734.902 187.988 736.44 188.214C738.023 188.395 739.607 188.69 741.191 189.097C742.774 189.504 744.199 190.092 745.466 190.861C746.778 191.585 747.842 192.603 748.656 193.915C749.471 195.182 749.878 196.856 749.878 198.938C749.878 201.2 749.199 203.213 747.842 204.978C746.484 206.697 744.516 208.054 741.937 209.05C739.403 210.045 736.304 210.543 732.639 210.543ZM756.41 210V173.487H766.997V210H756.41ZM761.704 168.397C759.758 168.397 758.175 167.831 756.953 166.7C755.731 165.569 755.12 164.167 755.12 162.493C755.12 160.818 755.731 159.416 756.953 158.285C758.175 157.154 759.758 156.588 761.704 156.588C763.649 156.588 765.233 157.131 766.454 158.217C767.676 159.258 768.287 160.615 768.287 162.289C768.287 164.053 767.676 165.524 766.454 166.7C765.278 167.831 763.694 168.397 761.704 168.397ZM794.198 210.543C790.306 210.543 786.845 209.729 783.814 208.1C780.828 206.471 778.452 204.254 776.688 201.449C774.968 198.598 774.109 195.363 774.109 191.744C774.109 188.079 774.968 184.844 776.688 182.038C778.452 179.188 780.828 176.971 783.814 175.387C786.845 173.759 790.306 172.944 794.198 172.944C798.043 172.944 801.482 173.759 804.513 175.387C807.545 176.971 809.92 179.165 811.64 181.971C813.359 184.776 814.219 188.033 814.219 191.744C814.219 195.363 813.359 198.598 811.64 201.449C809.92 204.254 807.545 206.471 804.513 208.1C801.482 209.729 798.043 210.543 794.198 210.543ZM794.198 201.856C795.962 201.856 797.546 201.449 798.948 200.634C800.351 199.82 801.459 198.666 802.274 197.173C803.088 195.635 803.495 193.825 803.495 191.744C803.495 189.617 803.088 187.807 802.274 186.314C801.459 184.821 800.351 183.667 798.948 182.853C797.546 182.038 795.962 181.631 794.198 181.631C792.433 181.631 790.849 182.038 789.447 182.853C788.044 183.667 786.913 184.821 786.053 186.314C785.239 187.807 784.832 189.617 784.832 191.744C784.832 193.825 785.239 195.635 786.053 197.173C786.913 198.666 788.044 199.82 789.447 200.634C790.849 201.449 792.433 201.856 794.198 201.856ZM843.488 172.944C846.384 172.944 848.963 173.532 851.225 174.709C853.533 175.84 855.342 177.604 856.654 180.002C857.967 182.355 858.623 185.387 858.623 189.097V210H848.035V190.726C848.035 187.785 847.379 185.613 846.067 184.21C844.8 182.808 842.99 182.106 840.638 182.106C838.964 182.106 837.448 182.468 836.091 183.192C834.778 183.871 833.738 184.934 832.969 186.382C832.245 187.83 831.883 189.685 831.883 191.947V210H821.295V173.487H831.408V183.599L829.507 180.545C830.819 178.102 832.697 176.224 835.14 174.912C837.584 173.6 840.366 172.944 843.488 172.944ZM880.504 210.543C877.382 210.543 874.373 210.181 871.477 209.457C868.627 208.688 866.364 207.738 864.69 206.607L868.22 199.005C869.894 200.046 871.862 200.906 874.124 201.584C876.432 202.218 878.694 202.535 880.911 202.535C883.354 202.535 885.073 202.24 886.069 201.652C887.109 201.064 887.63 200.25 887.63 199.209C887.63 198.349 887.223 197.716 886.408 197.309C885.639 196.856 884.598 196.517 883.286 196.291C881.974 196.064 880.526 195.838 878.943 195.612C877.404 195.386 875.843 195.092 874.26 194.73C872.676 194.323 871.228 193.734 869.916 192.965C868.604 192.196 867.541 191.155 866.726 189.843C865.957 188.531 865.573 186.834 865.573 184.753C865.573 182.446 866.229 180.41 867.541 178.645C868.898 176.881 870.844 175.501 873.378 174.505C875.911 173.464 878.943 172.944 882.472 172.944C884.96 172.944 887.494 173.216 890.073 173.759C892.652 174.302 894.801 175.093 896.52 176.134L892.991 183.667C891.227 182.627 889.44 181.925 887.63 181.563C885.865 181.156 884.146 180.953 882.472 180.953C880.119 180.953 878.4 181.269 877.314 181.903C876.228 182.536 875.685 183.351 875.685 184.346C875.685 185.251 876.07 185.93 876.839 186.382C877.653 186.834 878.716 187.196 880.029 187.468C881.341 187.739 882.766 187.988 884.304 188.214C885.888 188.395 887.471 188.69 889.055 189.097C890.639 189.504 892.064 190.092 893.331 190.861C894.643 191.585 895.706 192.603 896.52 193.915C897.335 195.182 897.742 196.856 897.742 198.938C897.742 201.2 897.063 203.213 895.706 204.978C894.349 206.697 892.38 208.054 889.802 209.05C887.268 210.045 884.168 210.543 880.504 210.543Z" fill="white"/>
<path d="M316.562 98V71.924H306.476V69.3H329.682V71.924H319.596V98H316.562ZM340.815 98.205C338.573 98.205 336.605 97.7403 334.911 96.811C333.216 95.8543 331.89 94.556 330.934 92.916C329.977 91.2487 329.499 89.349 329.499 87.217C329.499 85.085 329.95 83.199 330.852 81.559C331.781 79.919 333.038 78.6343 334.624 77.705C336.236 76.7483 338.04 76.27 340.036 76.27C342.058 76.27 343.849 76.7347 345.407 77.664C346.992 78.566 348.236 79.8507 349.138 81.518C350.04 83.158 350.491 85.0577 350.491 87.217C350.491 87.3537 350.477 87.504 350.45 87.668C350.45 87.8047 350.45 87.955 350.45 88.119H331.713V85.946H348.892L347.744 86.807C347.744 85.249 347.402 83.8687 346.719 82.666C346.063 81.436 345.161 80.4793 344.013 79.796C342.865 79.1127 341.539 78.771 340.036 78.771C338.56 78.771 337.234 79.1127 336.059 79.796C334.883 80.4793 333.968 81.436 333.312 82.666C332.656 83.896 332.328 85.3037 332.328 86.889V87.34C332.328 88.98 332.683 90.4287 333.394 91.686C334.132 92.916 335.143 93.8863 336.428 94.597C337.74 95.2803 339.229 95.622 340.897 95.622C342.209 95.622 343.425 95.3897 344.546 94.925C345.694 94.4603 346.678 93.7497 347.498 92.793L349.138 94.679C348.181 95.827 346.978 96.7017 345.53 97.303C344.108 97.9043 342.537 98.205 340.815 98.205ZM383.312 76.27C385.061 76.27 386.578 76.6117 387.863 77.295C389.175 77.951 390.186 78.9623 390.897 80.329C391.635 81.6957 392.004 83.4177 392.004 85.495V98H389.093V85.782C389.093 83.5133 388.546 81.805 387.453 80.657C386.387 79.4817 384.87 78.894 382.902 78.894C381.426 78.894 380.141 79.2083 379.048 79.837C377.982 80.4383 377.148 81.3267 376.547 82.502C375.973 83.65 375.686 85.044 375.686 86.684V98H372.775V85.782C372.775 83.5133 372.228 81.805 371.135 80.657C370.042 79.4817 368.511 78.894 366.543 78.894C365.094 78.894 363.823 79.2083 362.73 79.837C361.637 80.4383 360.789 81.3267 360.188 82.502C359.614 83.65 359.327 85.044 359.327 86.684V98H356.416V76.475H359.204V82.297L358.753 81.272C359.409 79.714 360.461 78.4977 361.91 77.623C363.386 76.721 365.122 76.27 367.117 76.27C369.222 76.27 371.012 76.803 372.488 77.869C373.964 78.9077 374.921 80.4793 375.358 82.584L374.21 82.133C374.839 80.3837 375.946 78.976 377.531 77.91C379.144 76.8167 381.071 76.27 383.312 76.27ZM411.009 98.205C409.151 98.205 407.47 97.7813 405.966 96.934C404.463 96.0593 403.26 94.8157 402.358 93.203C401.484 91.563 401.046 89.5677 401.046 87.217C401.046 84.8663 401.484 82.8847 402.358 81.272C403.233 79.632 404.422 78.3883 405.925 77.541C407.429 76.6937 409.123 76.27 411.009 76.27C413.059 76.27 414.891 76.7347 416.503 77.664C418.143 78.566 419.428 79.8507 420.357 81.518C421.287 83.158 421.751 85.0577 421.751 87.217C421.751 89.4037 421.287 91.317 420.357 92.957C419.428 94.597 418.143 95.8817 416.503 96.811C414.891 97.7403 413.059 98.205 411.009 98.205ZM399.898 105.954V76.475H402.686V82.953L402.399 87.258L402.809 91.604V105.954H399.898ZM410.804 95.622C412.335 95.622 413.702 95.2803 414.904 94.597C416.107 93.8863 417.064 92.9023 417.774 91.645C418.485 90.3603 418.84 88.8843 418.84 87.217C418.84 85.5497 418.485 84.0873 417.774 82.83C417.064 81.5727 416.107 80.5887 414.904 79.878C413.702 79.1673 412.335 78.812 410.804 78.812C409.274 78.812 407.893 79.1673 406.663 79.878C405.461 80.5887 404.504 81.5727 403.793 82.83C403.11 84.0873 402.768 85.5497 402.768 87.217C402.768 88.8843 403.11 90.3603 403.793 91.645C404.504 92.9023 405.461 93.8863 406.663 94.597C407.893 95.2803 409.274 95.622 410.804 95.622ZM427.685 98V67.578H430.596V98H427.685ZM452.185 98V93.244L452.062 92.465V84.511C452.062 82.6797 451.543 81.272 450.504 80.288C449.493 79.304 447.976 78.812 445.953 78.812C444.559 78.812 443.234 79.0443 441.976 79.509C440.719 79.9737 439.653 80.5887 438.778 81.354L437.466 79.181C438.56 78.2517 439.872 77.541 441.402 77.049C442.933 76.5297 444.546 76.27 446.24 76.27C449.028 76.27 451.174 76.967 452.677 78.361C454.208 79.7277 454.973 81.8187 454.973 84.634V98H452.185ZM444.764 98.205C443.152 98.205 441.744 97.9453 440.541 97.426C439.366 96.8793 438.464 96.1413 437.835 95.212C437.207 94.2553 436.892 93.162 436.892 91.932C436.892 90.8113 437.152 89.8 437.671 88.898C438.218 87.9687 439.093 87.2307 440.295 86.684C441.525 86.11 443.165 85.823 445.215 85.823H452.636V87.996H445.297C443.22 87.996 441.771 88.365 440.951 89.103C440.159 89.841 439.762 90.7567 439.762 91.85C439.762 93.08 440.241 94.064 441.197 94.802C442.154 95.54 443.493 95.909 445.215 95.909C446.855 95.909 448.263 95.54 449.438 94.802C450.641 94.0367 451.516 92.9433 452.062 91.522L452.718 93.531C452.172 94.9523 451.215 96.0867 449.848 96.934C448.509 97.7813 446.814 98.205 444.764 98.205ZM469.686 98.205C467.663 98.205 466.105 97.6583 465.012 96.565C463.918 95.4717 463.372 93.9273 463.372 91.932V71.719H466.283V91.768C466.283 93.0253 466.597 93.9957 467.226 94.679C467.882 95.3623 468.811 95.704 470.014 95.704C471.298 95.704 472.364 95.335 473.212 94.597L474.237 96.688C473.663 97.2073 472.966 97.59 472.146 97.836C471.353 98.082 470.533 98.205 469.686 98.205ZM459.518 78.894V76.475H472.843V78.894H459.518ZM487.918 98.205C485.677 98.205 483.709 97.7403 482.014 96.811C480.32 95.8543 478.994 94.556 478.037 92.916C477.081 91.2487 476.602 89.349 476.602 87.217C476.602 85.085 477.053 83.199 477.955 81.559C478.885 79.919 480.142 78.6343 481.727 77.705C483.34 76.7483 485.144 76.27 487.139 76.27C489.162 76.27 490.952 76.7347 492.51 77.664C494.096 78.566 495.339 79.8507 496.241 81.518C497.143 83.158 497.594 85.0577 497.594 87.217C497.594 87.3537 497.581 87.504 497.553 87.668C497.553 87.8047 497.553 87.955 497.553 88.119H478.816V85.946H495.995L494.847 86.807C494.847 85.249 494.506 83.8687 493.822 82.666C493.166 81.436 492.264 80.4793 491.116 79.796C489.968 79.1127 488.643 78.771 487.139 78.771C485.663 78.771 484.338 79.1127 483.162 79.796C481.987 80.4793 481.071 81.436 480.415 82.666C479.759 83.896 479.431 85.3037 479.431 86.889V87.34C479.431 88.98 479.787 90.4287 480.497 91.686C481.235 92.916 482.247 93.8863 483.531 94.597C484.843 95.2803 486.333 95.622 488 95.622C489.312 95.622 490.529 95.3897 491.649 94.925C492.797 94.4603 493.781 93.7497 494.601 92.793L496.241 94.679C495.285 95.827 494.082 96.7017 492.633 97.303C491.212 97.9043 489.64 98.205 487.918 98.205ZM517.571 83.199H532.741V85.823H517.571V83.199ZM517.899 98H514.865V69.3H534.545V71.924H517.899V98ZM540.195 98V67.578H543.106V98H540.195ZM551.37 106.159C550.359 106.159 549.388 105.995 548.459 105.667C547.557 105.339 546.778 104.847 546.122 104.191L547.475 102.018C548.022 102.537 548.609 102.934 549.238 103.207C549.894 103.508 550.618 103.658 551.411 103.658C552.368 103.658 553.188 103.385 553.871 102.838C554.582 102.319 555.251 101.389 555.88 100.05L557.274 96.893L557.602 96.442L566.458 76.475H569.328L558.545 100.583C557.944 101.977 557.274 103.084 556.536 103.904C555.825 104.724 555.046 105.298 554.199 105.626C553.352 105.981 552.409 106.159 551.37 106.159ZM557.11 98.615L547.188 76.475H550.222L558.996 96.237L557.11 98.615ZM581.97 98.205C579.729 98.205 577.761 97.7403 576.066 96.811C574.371 95.8543 573.046 94.556 572.089 92.916C571.132 91.2487 570.654 89.349 570.654 87.217C570.654 85.085 571.105 83.199 572.007 81.559C572.936 79.919 574.194 78.6343 575.779 77.705C577.392 76.7483 579.196 76.27 581.191 76.27C583.214 76.27 585.004 76.7347 586.562 77.664C588.147 78.566 589.391 79.8507 590.293 81.518C591.195 83.158 591.646 85.0577 591.646 87.217C591.646 87.3537 591.632 87.504 591.605 87.668C591.605 87.8047 591.605 87.955 591.605 88.119H572.868V85.946H590.047L588.899 86.807C588.899 85.249 588.557 83.8687 587.874 82.666C587.218 81.436 586.316 80.4793 585.168 79.796C584.02 79.1127 582.694 78.771 581.191 78.771C579.715 78.771 578.389 79.1127 577.214 79.796C576.039 80.4793 575.123 81.436 574.467 82.666C573.811 83.896 573.483 85.3037 573.483 86.889V87.34C573.483 88.98 573.838 90.4287 574.549 91.686C575.287 92.916 576.298 93.8863 577.583 94.597C578.895 95.2803 580.385 95.622 582.052 95.622C583.364 95.622 584.58 95.3897 585.701 94.925C586.849 94.4603 587.833 93.7497 588.653 92.793L590.293 94.679C589.336 95.827 588.134 96.7017 586.685 97.303C585.264 97.9043 583.692 98.205 581.97 98.205ZM597.571 98V76.475H600.359V82.338L600.072 81.313C600.674 79.673 601.685 78.4293 603.106 77.582C604.528 76.7073 606.291 76.27 608.395 76.27V79.099C608.286 79.099 608.177 79.099 608.067 79.099C607.958 79.0717 607.849 79.058 607.739 79.058C605.471 79.058 603.694 79.755 602.409 81.149C601.125 82.5157 600.482 84.47 600.482 87.012V98H597.571ZM633.286 98.246C631.154 98.246 629.104 97.9043 627.136 97.221C625.195 96.5103 623.692 95.6083 622.626 94.515L623.815 92.178C624.826 93.162 626.179 93.9957 627.874 94.679C629.596 95.335 631.4 95.663 633.286 95.663C635.09 95.663 636.552 95.4443 637.673 95.007C638.821 94.5423 639.654 93.9273 640.174 93.162C640.72 92.3967 640.994 91.5493 640.994 90.62C640.994 89.4993 640.666 88.5973 640.01 87.914C639.381 87.2307 638.547 86.6977 637.509 86.315C636.47 85.905 635.322 85.5497 634.065 85.249C632.807 84.9483 631.55 84.634 630.293 84.306C629.035 83.9507 627.874 83.486 626.808 82.912C625.769 82.338 624.922 81.5863 624.266 80.657C623.637 79.7003 623.323 78.4567 623.323 76.926C623.323 75.5047 623.692 74.2063 624.43 73.031C625.195 71.8283 626.357 70.8717 627.915 70.161C629.473 69.423 631.468 69.054 633.901 69.054C635.513 69.054 637.112 69.2863 638.698 69.751C640.283 70.1883 641.65 70.8033 642.798 71.596L641.773 74.015C640.543 73.195 639.231 72.5937 637.837 72.211C636.47 71.8283 635.144 71.637 633.86 71.637C632.138 71.637 630.716 71.8693 629.596 72.334C628.475 72.7987 627.641 73.4273 627.095 74.22C626.575 74.9853 626.316 75.86 626.316 76.844C626.316 77.9647 626.63 78.8667 627.259 79.55C627.915 80.2333 628.762 80.7663 629.801 81.149C630.867 81.5317 632.028 81.8733 633.286 82.174C634.543 82.4747 635.787 82.8027 637.017 83.158C638.274 83.5133 639.422 83.978 640.461 84.552C641.527 85.0987 642.374 85.8367 643.003 86.766C643.659 87.6953 643.987 88.9117 643.987 90.415C643.987 91.809 643.604 93.1073 642.839 94.31C642.073 95.4853 640.898 96.442 639.313 97.18C637.755 97.8907 635.746 98.246 633.286 98.246ZM661.093 98.205C659.235 98.205 657.554 97.7813 656.05 96.934C654.547 96.0593 653.344 94.8157 652.442 93.203C651.568 91.563 651.13 89.5677 651.13 87.217C651.13 84.8663 651.568 82.8847 652.442 81.272C653.317 79.632 654.506 78.3883 656.009 77.541C657.513 76.6937 659.207 76.27 661.093 76.27C663.143 76.27 664.975 76.7347 666.587 77.664C668.227 78.566 669.512 79.8507 670.441 81.518C671.371 83.158 671.835 85.0577 671.835 87.217C671.835 89.4037 671.371 91.317 670.441 92.957C669.512 94.597 668.227 95.8817 666.587 96.811C664.975 97.7403 663.143 98.205 661.093 98.205ZM649.982 105.954V76.475H652.77V82.953L652.483 87.258L652.893 91.604V105.954H649.982ZM660.888 95.622C662.419 95.622 663.786 95.2803 664.988 94.597C666.191 93.8863 667.148 92.9023 667.858 91.645C668.569 90.3603 668.924 88.8843 668.924 87.217C668.924 85.5497 668.569 84.0873 667.858 82.83C667.148 81.5727 666.191 80.5887 664.988 79.878C663.786 79.1673 662.419 78.812 660.888 78.812C659.358 78.812 657.977 79.1673 656.747 79.878C655.545 80.5887 654.588 81.5727 653.877 82.83C653.194 84.0873 652.852 85.5497 652.852 87.217C652.852 88.8843 653.194 90.3603 653.877 91.645C654.588 92.9023 655.545 93.8863 656.747 94.597C657.977 95.2803 659.358 95.622 660.888 95.622ZM686.912 98.205C684.671 98.205 682.703 97.7403 681.008 96.811C679.314 95.8543 677.988 94.556 677.031 92.916C676.075 91.2487 675.596 89.349 675.596 87.217C675.596 85.085 676.047 83.199 676.949 81.559C677.879 79.919 679.136 78.6343 680.721 77.705C682.334 76.7483 684.138 76.27 686.133 76.27C688.156 76.27 689.946 76.7347 691.504 77.664C693.09 78.566 694.333 79.8507 695.235 81.518C696.137 83.158 696.588 85.0577 696.588 87.217C696.588 87.3537 696.575 87.504 696.547 87.668C696.547 87.8047 696.547 87.955 696.547 88.119H677.81V85.946H694.989L693.841 86.807C693.841 85.249 693.5 83.8687 692.816 82.666C692.16 81.436 691.258 80.4793 690.11 79.796C688.962 79.1127 687.637 78.771 686.133 78.771C684.657 78.771 683.332 79.1127 682.156 79.796C680.981 80.4793 680.065 81.436 679.409 82.666C678.753 83.896 678.425 85.3037 678.425 86.889V87.34C678.425 88.98 678.781 90.4287 679.491 91.686C680.229 92.916 681.241 93.8863 682.525 94.597C683.837 95.2803 685.327 95.622 686.994 95.622C688.306 95.622 689.523 95.3897 690.643 94.925C691.791 94.4603 692.775 93.7497 693.595 92.793L695.235 94.679C694.279 95.827 693.076 96.7017 691.627 97.303C690.206 97.9043 688.634 98.205 686.912 98.205ZM711.657 98.205C709.415 98.205 707.447 97.7403 705.753 96.811C704.058 95.8543 702.732 94.556 701.776 92.916C700.819 91.2487 700.341 89.349 700.341 87.217C700.341 85.085 700.792 83.199 701.694 81.559C702.623 79.919 703.88 78.6343 705.466 77.705C707.078 76.7483 708.882 76.27 710.878 76.27C712.9 76.27 714.691 76.7347 716.249 77.664C717.834 78.566 719.078 79.8507 719.98 81.518C720.882 83.158 721.333 85.0577 721.333 87.217C721.333 87.3537 721.319 87.504 721.292 87.668C721.292 87.8047 721.292 87.955 721.292 88.119H702.555V85.946H719.734L718.586 86.807C718.586 85.249 718.244 83.8687 717.561 82.666C716.905 81.436 716.003 80.4793 714.855 79.796C713.707 79.1127 712.381 78.771 710.878 78.771C709.402 78.771 708.076 79.1127 706.901 79.796C705.725 80.4793 704.81 81.436 704.154 82.666C703.498 83.896 703.17 85.3037 703.17 86.889V87.34C703.17 88.98 703.525 90.4287 704.236 91.686C704.974 92.916 705.985 93.8863 707.27 94.597C708.582 95.2803 710.071 95.622 711.739 95.622C713.051 95.622 714.267 95.3897 715.388 94.925C716.536 94.4603 717.52 93.7497 718.34 92.793L719.98 94.679C719.023 95.827 717.82 96.7017 716.372 97.303C714.95 97.9043 713.379 98.205 711.657 98.205ZM736.196 98.205C734.064 98.205 732.15 97.7403 730.456 96.811C728.788 95.8543 727.476 94.556 726.52 92.916C725.563 91.2487 725.085 89.349 725.085 87.217C725.085 85.0577 725.563 83.158 726.52 81.518C727.476 79.878 728.788 78.5933 730.456 77.664C732.15 76.7347 734.064 76.27 736.196 76.27C738.027 76.27 739.681 76.6253 741.157 77.336C742.633 78.0467 743.794 79.1127 744.642 80.534L742.469 82.01C741.731 80.9167 740.815 80.1103 739.722 79.591C738.628 79.0717 737.439 78.812 736.155 78.812C734.624 78.812 733.244 79.1673 732.014 79.878C730.784 80.5613 729.813 81.5317 729.103 82.789C728.392 84.0463 728.037 85.5223 728.037 87.217C728.037 88.9117 728.392 90.3877 729.103 91.645C729.813 92.9023 730.784 93.8863 732.014 94.597C733.244 95.2803 734.624 95.622 736.155 95.622C737.439 95.622 738.628 95.3623 739.722 94.843C740.815 94.3237 741.731 93.531 742.469 92.465L744.642 93.941C743.794 95.335 742.633 96.401 741.157 97.139C739.681 97.8497 738.027 98.205 736.196 98.205ZM761.028 76.27C762.777 76.27 764.308 76.6117 765.62 77.295C766.959 77.951 767.998 78.9623 768.736 80.329C769.501 81.6957 769.884 83.4177 769.884 85.495V98H766.973V85.782C766.973 83.5133 766.399 81.805 765.251 80.657C764.13 79.4817 762.545 78.894 760.495 78.894C758.964 78.894 757.625 79.2083 756.477 79.837C755.356 80.4383 754.482 81.3267 753.853 82.502C753.252 83.65 752.951 85.044 752.951 86.684V98H750.04V67.578H752.951V82.379L752.377 81.272C753.06 79.714 754.154 78.4977 755.657 77.623C757.16 76.721 758.951 76.27 761.028 76.27ZM405.802 123.133H420.972V125.716H405.802V123.133ZM406.13 136.376H423.391V139H403.096V110.3H422.776V112.924H406.13V136.376ZM435.002 139L425.449 117.475H428.483L437.257 137.442H435.822L444.719 117.475H447.589L437.995 139H435.002ZM460.231 139.205C457.99 139.205 456.022 138.74 454.327 137.811C452.633 136.854 451.307 135.556 450.35 133.916C449.394 132.249 448.915 130.349 448.915 128.217C448.915 126.085 449.366 124.199 450.268 122.559C451.198 120.919 452.455 119.634 454.04 118.705C455.653 117.748 457.457 117.27 459.452 117.27C461.475 117.27 463.265 117.735 464.823 118.664C466.409 119.566 467.652 120.851 468.554 122.518C469.456 124.158 469.907 126.058 469.907 128.217C469.907 128.354 469.894 128.504 469.866 128.668C469.866 128.805 469.866 128.955 469.866 129.119H451.129V126.946H468.308L467.16 127.807C467.16 126.249 466.819 124.869 466.135 123.666C465.479 122.436 464.577 121.479 463.429 120.796C462.281 120.113 460.956 119.771 459.452 119.771C457.976 119.771 456.651 120.113 455.475 120.796C454.3 121.479 453.384 122.436 452.728 123.666C452.072 124.896 451.744 126.304 451.744 127.889V128.34C451.744 129.98 452.1 131.429 452.81 132.686C453.548 133.916 454.56 134.886 455.844 135.597C457.156 136.28 458.646 136.622 460.313 136.622C461.625 136.622 462.842 136.39 463.962 135.925C465.11 135.46 466.094 134.75 466.914 133.793L468.554 135.679C467.598 136.827 466.395 137.702 464.946 138.303C463.525 138.904 461.953 139.205 460.231 139.205ZM486.82 117.27C488.57 117.27 490.1 117.612 491.412 118.295C492.752 118.951 493.79 119.962 494.528 121.329C495.294 122.696 495.676 124.418 495.676 126.495V139H492.765V126.782C492.765 124.513 492.191 122.805 491.043 121.657C489.923 120.482 488.337 119.894 486.287 119.894C484.757 119.894 483.417 120.208 482.269 120.837C481.149 121.438 480.274 122.327 479.645 123.502C479.044 124.65 478.743 126.044 478.743 127.684V139H475.832V117.475H478.62V123.379L478.169 122.272C478.853 120.714 479.946 119.498 481.449 118.623C482.953 117.721 484.743 117.27 486.82 117.27ZM510.345 139.205C508.323 139.205 506.765 138.658 505.671 137.565C504.578 136.472 504.031 134.927 504.031 132.932V112.719H506.942V132.768C506.942 134.025 507.257 134.996 507.885 135.679C508.541 136.362 509.471 136.704 510.673 136.704C511.958 136.704 513.024 136.335 513.871 135.597L514.896 137.688C514.322 138.207 513.625 138.59 512.805 138.836C512.013 139.082 511.193 139.205 510.345 139.205ZM500.177 119.894V117.475H513.502V119.894H500.177ZM531.541 139V110.3H542.283C544.716 110.3 546.807 110.696 548.556 111.489C550.306 112.254 551.645 113.375 552.574 114.851C553.531 116.3 554.009 118.063 554.009 120.14C554.009 122.163 553.531 123.912 552.574 125.388C551.645 126.837 550.306 127.957 548.556 128.75C546.807 129.543 544.716 129.939 542.283 129.939H533.222L534.575 128.504V139H531.541ZM534.575 128.75L533.222 127.274H542.201C545.071 127.274 547.244 126.659 548.72 125.429C550.224 124.172 550.975 122.409 550.975 120.14C550.975 117.844 550.224 116.067 548.72 114.81C547.244 113.553 545.071 112.924 542.201 112.924H533.222L534.575 111.489V128.75ZM568.608 139.205C566.531 139.205 564.659 138.74 562.991 137.811C561.351 136.854 560.053 135.556 559.096 133.916C558.14 132.249 557.661 130.349 557.661 128.217C557.661 126.058 558.14 124.158 559.096 122.518C560.053 120.878 561.351 119.593 562.991 118.664C564.631 117.735 566.504 117.27 568.608 117.27C570.74 117.27 572.626 117.735 574.266 118.664C575.934 119.593 577.232 120.878 578.161 122.518C579.118 124.158 579.596 126.058 579.596 128.217C579.596 130.349 579.118 132.249 578.161 133.916C577.232 135.556 575.934 136.854 574.266 137.811C572.599 138.74 570.713 139.205 568.608 139.205ZM568.608 136.622C570.166 136.622 571.547 136.28 572.749 135.597C573.952 134.886 574.895 133.902 575.578 132.645C576.289 131.36 576.644 129.884 576.644 128.217C576.644 126.522 576.289 125.046 575.578 123.789C574.895 122.532 573.952 121.561 572.749 120.878C571.547 120.167 570.18 119.812 568.649 119.812C567.119 119.812 565.752 120.167 564.549 120.878C563.347 121.561 562.39 122.532 561.679 123.789C560.969 125.046 560.613 126.522 560.613 128.217C560.613 129.884 560.969 131.36 561.679 132.645C562.39 133.902 563.347 134.886 564.549 135.597C565.752 136.28 567.105 136.622 568.608 136.622ZM585.539 139V117.475H588.327V123.338L588.04 122.313C588.642 120.673 589.653 119.429 591.074 118.582C592.496 117.707 594.259 117.27 596.363 117.27V120.099C596.254 120.099 596.145 120.099 596.035 120.099C595.926 120.072 595.817 120.058 595.707 120.058C593.439 120.058 591.662 120.755 590.377 122.149C589.093 123.516 588.45 125.47 588.45 128.012V139H585.539ZM609.402 139.205C607.379 139.205 605.821 138.658 604.728 137.565C603.635 136.472 603.088 134.927 603.088 132.932V112.719H605.999V132.768C605.999 134.025 606.313 134.996 606.942 135.679C607.598 136.362 608.527 136.704 609.73 136.704C611.015 136.704 612.081 136.335 612.928 135.597L613.953 137.688C613.379 138.207 612.682 138.59 611.862 138.836C611.069 139.082 610.249 139.205 609.402 139.205ZM599.234 119.894V117.475H612.559V119.894H599.234ZM619.252 139V117.475H622.04V123.338L621.753 122.313C622.355 120.673 623.366 119.429 624.787 118.582C626.209 117.707 627.972 117.27 630.076 117.27V120.099C629.967 120.099 629.858 120.099 629.748 120.099C629.639 120.072 629.53 120.058 629.42 120.058C627.152 120.058 625.375 120.755 624.09 122.149C622.806 123.516 622.163 125.47 622.163 128.012V139H619.252ZM647.276 139V134.244L647.153 133.465V125.511C647.153 123.68 646.633 122.272 645.595 121.288C644.583 120.304 643.066 119.812 641.044 119.812C639.65 119.812 638.324 120.044 637.067 120.509C635.809 120.974 634.743 121.589 633.869 122.354L632.557 120.181C633.65 119.252 634.962 118.541 636.493 118.049C638.023 117.53 639.636 117.27 641.331 117.27C644.119 117.27 646.264 117.967 647.768 119.361C649.298 120.728 650.064 122.819 650.064 125.634V139H647.276ZM639.855 139.205C638.242 139.205 636.834 138.945 635.632 138.426C634.456 137.879 633.554 137.141 632.926 136.212C632.297 135.255 631.983 134.162 631.983 132.932C631.983 131.811 632.242 130.8 632.762 129.898C633.308 128.969 634.183 128.231 635.386 127.684C636.616 127.11 638.256 126.823 640.306 126.823H647.727V128.996H640.388C638.31 128.996 636.862 129.365 636.042 130.103C635.249 130.841 634.853 131.757 634.853 132.85C634.853 134.08 635.331 135.064 636.288 135.802C637.244 136.54 638.584 136.909 640.306 136.909C641.946 136.909 643.353 136.54 644.529 135.802C645.731 135.037 646.606 133.943 647.153 132.522L647.809 134.531C647.262 135.952 646.305 137.087 644.939 137.934C643.599 138.781 641.905 139.205 639.855 139.205ZM657.97 139V117.475H660.881V139H657.97ZM659.446 112.719C658.845 112.719 658.339 112.514 657.929 112.104C657.519 111.694 657.314 111.202 657.314 110.628C657.314 110.054 657.519 109.576 657.929 109.193C658.339 108.783 658.845 108.578 659.446 108.578C660.047 108.578 660.553 108.769 660.963 109.152C661.373 109.535 661.578 110.013 661.578 110.587C661.578 111.188 661.373 111.694 660.963 112.104C660.58 112.514 660.075 112.719 659.446 112.719ZM675.787 139.205C673.764 139.205 672.206 138.658 671.113 137.565C670.02 136.472 669.473 134.927 669.473 132.932V112.719H672.384V132.768C672.384 134.025 672.698 134.996 673.327 135.679C673.983 136.362 674.912 136.704 676.115 136.704C677.4 136.704 678.466 136.335 679.313 135.597L680.338 137.688C679.764 138.207 679.067 138.59 678.247 138.836C677.454 139.082 676.634 139.205 675.787 139.205ZM665.619 119.894V117.475H678.944V119.894H665.619Z" fill="white"/>
</svg>
