<svg width="1080" height="272" viewBox="0 0 1080 272" fill="none" xmlns="http://www.w3.org/2000/svg">
<path d="M0 100C0 44.7715 44.7715 0 100 0H980C1035.23 0 1080 44.7715 1080 100V272H0V100Z" fill="#ED5723"/>
<path d="M265.91 210V162.493H276.905V201.041H300.726V210H265.91ZM306.87 210V162.493H317.864V210H306.87ZM352.146 210.814C348.436 210.814 344.975 210.204 341.762 208.982C338.595 207.76 335.835 206.041 333.482 203.824C331.175 201.607 329.365 199.005 328.053 196.019C326.786 193.033 326.153 189.775 326.153 186.246C326.153 182.717 326.786 179.459 328.053 176.473C329.365 173.487 331.197 170.886 333.55 168.669C335.903 166.451 338.663 164.732 341.83 163.511C344.997 162.289 348.436 161.678 352.146 161.678C355.901 161.678 359.34 162.289 362.462 163.511C365.629 164.732 368.366 166.451 370.674 168.669C373.027 170.84 374.859 173.419 376.171 176.405C377.483 179.392 378.139 182.672 378.139 186.246C378.139 189.775 377.483 193.056 376.171 196.087C374.859 199.073 373.027 201.675 370.674 203.892C368.366 206.064 365.629 207.76 362.462 208.982C359.34 210.204 355.901 210.814 352.146 210.814ZM367.688 220.927C365.833 220.927 364.068 220.723 362.394 220.316C360.765 219.909 359.136 219.253 357.507 218.348C355.924 217.443 354.25 216.221 352.485 214.683C350.766 213.145 348.888 211.244 346.852 208.982L358.39 206.064C359.611 207.738 360.742 209.072 361.783 210.068C362.824 211.063 363.819 211.765 364.769 212.172C365.765 212.579 366.805 212.783 367.891 212.783C370.787 212.783 373.366 211.606 375.628 209.253L380.515 215.09C377.302 218.981 373.027 220.927 367.688 220.927ZM352.146 201.449C354.272 201.449 356.218 201.087 357.983 200.363C359.792 199.639 361.376 198.598 362.733 197.241C364.091 195.883 365.131 194.277 365.855 192.422C366.624 190.522 367.009 188.463 367.009 186.246C367.009 183.984 366.624 181.925 365.855 180.07C365.131 178.215 364.091 176.609 362.733 175.252C361.376 173.894 359.792 172.854 357.983 172.13C356.218 171.406 354.272 171.044 352.146 171.044C350.019 171.044 348.051 171.406 346.241 172.13C344.432 172.854 342.848 173.894 341.491 175.252C340.179 176.609 339.138 178.215 338.369 180.07C337.645 181.925 337.283 183.984 337.283 186.246C337.283 188.463 337.645 190.522 338.369 192.422C339.138 194.277 340.179 195.883 341.491 197.241C342.848 198.598 344.432 199.639 346.241 200.363C348.051 201.087 350.019 201.449 352.146 201.449ZM407.509 210.814C400.768 210.814 395.496 208.937 391.696 205.181C387.895 201.426 385.995 196.064 385.995 189.097V162.493H396.99V188.69C396.99 193.214 397.917 196.472 399.772 198.462C401.627 200.453 404.229 201.449 407.577 201.449C410.925 201.449 413.527 200.453 415.382 198.462C417.237 196.472 418.164 193.214 418.164 188.69V162.493H429.023V189.097C429.023 196.064 427.123 201.426 423.322 205.181C419.522 208.937 414.251 210.814 407.509 210.814ZM439.888 210V162.493H450.882V210H439.888ZM462.157 210V162.493H483.739C488.897 162.493 493.444 163.488 497.38 165.479C501.317 167.424 504.393 170.162 506.61 173.691C508.827 177.22 509.936 181.405 509.936 186.246C509.936 191.042 508.827 195.227 506.61 198.802C504.393 202.331 501.317 205.091 497.38 207.082C493.444 209.027 488.897 210 483.739 210H462.157ZM473.152 200.974H483.196C486.363 200.974 489.1 200.385 491.408 199.209C493.761 197.987 495.571 196.268 496.837 194.051C498.15 191.834 498.806 189.232 498.806 186.246C498.806 183.215 498.15 180.613 496.837 178.441C495.571 176.224 493.761 174.528 491.408 173.351C489.1 172.13 486.363 171.519 483.196 171.519H473.152V200.974ZM553.057 210.814C549.257 210.814 545.615 210.317 542.131 209.321C538.647 208.281 535.842 206.946 533.715 205.317L537.448 197.037C539.484 198.485 541.882 199.684 544.642 200.634C547.447 201.539 550.275 201.992 553.125 201.992C555.297 201.992 557.039 201.788 558.351 201.381C559.708 200.928 560.704 200.318 561.337 199.548C561.971 198.779 562.287 197.897 562.287 196.902C562.287 195.635 561.79 194.639 560.794 193.915C559.799 193.146 558.487 192.535 556.858 192.083C555.229 191.585 553.419 191.133 551.429 190.726C549.483 190.273 547.515 189.73 545.524 189.097C543.579 188.463 541.791 187.649 540.163 186.653C538.534 185.658 537.199 184.346 536.158 182.717C535.163 181.088 534.665 179.007 534.665 176.473C534.665 173.759 535.389 171.293 536.837 169.076C538.33 166.813 540.547 165.026 543.488 163.714C546.474 162.357 550.207 161.678 554.686 161.678C557.672 161.678 560.613 162.04 563.509 162.764C566.405 163.443 568.961 164.483 571.178 165.886L567.785 174.234C565.568 172.967 563.351 172.039 561.134 171.451C558.917 170.818 556.745 170.501 554.618 170.501C552.492 170.501 550.75 170.75 549.393 171.247C548.035 171.745 547.062 172.401 546.474 173.216C545.886 173.985 545.592 174.89 545.592 175.93C545.592 177.152 546.09 178.147 547.085 178.917C548.08 179.64 549.393 180.229 551.021 180.681C552.65 181.134 554.437 181.586 556.383 182.038C558.374 182.491 560.342 183.011 562.287 183.599C564.278 184.188 566.088 184.979 567.717 185.975C569.346 186.97 570.658 188.282 571.653 189.911C572.694 191.54 573.214 193.599 573.214 196.087C573.214 198.757 572.468 201.2 570.975 203.417C569.481 205.634 567.242 207.421 564.256 208.778C561.315 210.136 557.582 210.814 553.057 210.814ZM613.303 162.493H624.298V210H613.303V162.493ZM591.721 210H580.727V162.493H591.721V210ZM614.118 190.522H590.907V181.224H614.118V190.522ZM629.294 210L650.469 162.493H661.328L682.57 210H671.033L653.659 168.058H658.002L640.56 210H629.294ZM639.882 199.82L642.8 191.472H667.232L670.218 199.82H639.882ZM687.499 210V162.493H708.063C712.316 162.493 715.981 163.194 719.058 164.596C722.135 165.954 724.51 167.922 726.184 170.501C727.858 173.08 728.695 176.157 728.695 179.731C728.695 183.26 727.858 186.314 726.184 188.893C724.51 191.472 722.135 193.463 719.058 194.865C715.981 196.223 712.316 196.902 708.063 196.902H693.607L698.494 191.947V210H687.499ZM698.494 193.169L693.607 187.943H707.452C710.846 187.943 713.38 187.219 715.054 185.771C716.728 184.323 717.565 182.31 717.565 179.731C717.565 177.107 716.728 175.071 715.054 173.623C713.38 172.175 710.846 171.451 707.452 171.451H693.607L698.494 166.225V193.169ZM746.657 181.631H769.528V190.183H746.657V181.631ZM747.471 201.177H773.329V210H736.544V162.493H772.446V171.315H747.471V201.177ZM797.686 210.814C793.886 210.814 790.244 210.317 786.76 209.321C783.276 208.281 780.471 206.946 778.344 205.317L782.077 197.037C784.113 198.485 786.511 199.684 789.271 200.634C792.076 201.539 794.904 201.992 797.754 201.992C799.926 201.992 801.668 201.788 802.98 201.381C804.337 200.928 805.333 200.318 805.966 199.548C806.6 198.779 806.916 197.897 806.916 196.902C806.916 195.635 806.419 194.639 805.423 193.915C804.428 193.146 803.116 192.535 801.487 192.083C799.858 191.585 798.048 191.133 796.058 190.726C794.112 190.273 792.144 189.73 790.153 189.097C788.208 188.463 786.42 187.649 784.792 186.653C783.163 185.658 781.828 184.346 780.787 182.717C779.792 181.088 779.294 179.007 779.294 176.473C779.294 173.759 780.018 171.293 781.466 169.076C782.959 166.813 785.176 165.026 788.117 163.714C791.103 162.357 794.836 161.678 799.315 161.678C802.301 161.678 805.242 162.04 808.138 162.764C811.034 163.443 813.59 164.483 815.807 165.886L812.414 174.234C810.197 172.967 807.98 172.039 805.763 171.451C803.546 170.818 801.374 170.501 799.247 170.501C797.121 170.501 795.379 170.75 794.022 171.247C792.664 171.745 791.691 172.401 791.103 173.216C790.515 173.985 790.221 174.89 790.221 175.93C790.221 177.152 790.719 178.147 791.714 178.917C792.709 179.64 794.022 180.229 795.65 180.681C797.279 181.134 799.066 181.586 801.012 182.038C803.003 182.491 804.971 183.011 806.916 183.599C808.907 184.188 810.717 184.979 812.346 185.975C813.975 186.97 815.287 188.282 816.282 189.911C817.323 191.54 817.843 193.599 817.843 196.087C817.843 198.757 817.097 201.2 815.604 203.417C814.11 205.634 811.871 207.421 808.885 208.778C805.944 210.136 802.211 210.814 797.686 210.814Z" fill="white"/>
<path d="M242.53 98V71.924H232.444V69.3H255.65V71.924H245.564V98H242.53ZM266.783 98.205C264.541 98.205 262.573 97.7403 260.879 96.811C259.184 95.8543 257.858 94.556 256.902 92.916C255.945 91.2487 255.467 89.349 255.467 87.217C255.467 85.085 255.918 83.199 256.82 81.559C257.749 79.919 259.006 78.6343 260.592 77.705C262.204 76.7483 264.008 76.27 266.004 76.27C268.026 76.27 269.817 76.7347 271.375 77.664C272.96 78.566 274.204 79.8507 275.106 81.518C276.008 83.158 276.459 85.0577 276.459 87.217C276.459 87.3537 276.445 87.504 276.418 87.668C276.418 87.8047 276.418 87.955 276.418 88.119H257.681V85.946H274.86L273.712 86.807C273.712 85.249 273.37 83.8687 272.687 82.666C272.031 81.436 271.129 80.4793 269.981 79.796C268.833 79.1127 267.507 78.771 266.004 78.771C264.528 78.771 263.202 79.1127 262.027 79.796C260.851 80.4793 259.936 81.436 259.28 82.666C258.624 83.896 258.296 85.3037 258.296 86.889V87.34C258.296 88.98 258.651 90.4287 259.362 91.686C260.1 92.916 261.111 93.8863 262.396 94.597C263.708 95.2803 265.197 95.622 266.865 95.622C268.177 95.622 269.393 95.3897 270.514 94.925C271.662 94.4603 272.646 93.7497 273.466 92.793L275.106 94.679C274.149 95.827 272.946 96.7017 271.498 97.303C270.076 97.9043 268.505 98.205 266.783 98.205ZM309.28 76.27C311.029 76.27 312.546 76.6117 313.831 77.295C315.143 77.951 316.154 78.9623 316.865 80.329C317.603 81.6957 317.972 83.4177 317.972 85.495V98H315.061V85.782C315.061 83.5133 314.514 81.805 313.421 80.657C312.355 79.4817 310.838 78.894 308.87 78.894C307.394 78.894 306.109 79.2083 305.016 79.837C303.95 80.4383 303.116 81.3267 302.515 82.502C301.941 83.65 301.654 85.044 301.654 86.684V98H298.743V85.782C298.743 83.5133 298.196 81.805 297.103 80.657C296.009 79.4817 294.479 78.894 292.511 78.894C291.062 78.894 289.791 79.2083 288.698 79.837C287.604 80.4383 286.757 81.3267 286.156 82.502C285.582 83.65 285.295 85.044 285.295 86.684V98H282.384V76.475H285.172V82.297L284.721 81.272C285.377 79.714 286.429 78.4977 287.878 77.623C289.354 76.721 291.089 76.27 293.085 76.27C295.189 76.27 296.98 76.803 298.456 77.869C299.932 78.9077 300.888 80.4793 301.326 82.584L300.178 82.133C300.806 80.3837 301.913 78.976 303.499 77.91C305.111 76.8167 307.038 76.27 309.28 76.27ZM336.977 98.205C335.118 98.205 333.437 97.7813 331.934 96.934C330.431 96.0593 329.228 94.8157 328.326 93.203C327.451 91.563 327.014 89.5677 327.014 87.217C327.014 84.8663 327.451 82.8847 328.326 81.272C329.201 79.632 330.39 78.3883 331.893 77.541C333.396 76.6937 335.091 76.27 336.977 76.27C339.027 76.27 340.858 76.7347 342.471 77.664C344.111 78.566 345.396 79.8507 346.325 81.518C347.254 83.158 347.719 85.0577 347.719 87.217C347.719 89.4037 347.254 91.317 346.325 92.957C345.396 94.597 344.111 95.8817 342.471 96.811C340.858 97.7403 339.027 98.205 336.977 98.205ZM325.866 105.954V76.475H328.654V82.953L328.367 87.258L328.777 91.604V105.954H325.866ZM336.772 95.622C338.303 95.622 339.669 95.2803 340.872 94.597C342.075 93.8863 343.031 92.9023 343.742 91.645C344.453 90.3603 344.808 88.8843 344.808 87.217C344.808 85.5497 344.453 84.0873 343.742 82.83C343.031 81.5727 342.075 80.5887 340.872 79.878C339.669 79.1673 338.303 78.812 336.772 78.812C335.241 78.812 333.861 79.1673 332.631 79.878C331.428 80.5887 330.472 81.5727 329.761 82.83C329.078 84.0873 328.736 85.5497 328.736 87.217C328.736 88.8843 329.078 90.3603 329.761 91.645C330.472 92.9023 331.428 93.8863 332.631 94.597C333.861 95.2803 335.241 95.622 336.772 95.622ZM353.653 98V67.578H356.564V98H353.653ZM378.153 98V93.244L378.03 92.465V84.511C378.03 82.6797 377.511 81.272 376.472 80.288C375.461 79.304 373.944 78.812 371.921 78.812C370.527 78.812 369.201 79.0443 367.944 79.509C366.687 79.9737 365.621 80.5887 364.746 81.354L363.434 79.181C364.527 78.2517 365.839 77.541 367.37 77.049C368.901 76.5297 370.513 76.27 372.208 76.27C374.996 76.27 377.142 76.967 378.645 78.361C380.176 79.7277 380.941 81.8187 380.941 84.634V98H378.153ZM370.732 98.205C369.119 98.205 367.712 97.9453 366.509 97.426C365.334 96.8793 364.432 96.1413 363.803 95.212C363.174 94.2553 362.86 93.162 362.86 91.932C362.86 90.8113 363.12 89.8 363.639 88.898C364.186 87.9687 365.06 87.2307 366.263 86.684C367.493 86.11 369.133 85.823 371.183 85.823H378.604V87.996H371.265C369.188 87.996 367.739 88.365 366.919 89.103C366.126 89.841 365.73 90.7567 365.73 91.85C365.73 93.08 366.208 94.064 367.165 94.802C368.122 95.54 369.461 95.909 371.183 95.909C372.823 95.909 374.231 95.54 375.406 94.802C376.609 94.0367 377.483 92.9433 378.03 91.522L378.686 93.531C378.139 94.9523 377.183 96.0867 375.816 96.934C374.477 97.7813 372.782 98.205 370.732 98.205ZM395.654 98.205C393.631 98.205 392.073 97.6583 390.98 96.565C389.886 95.4717 389.34 93.9273 389.34 91.932V71.719H392.251V91.768C392.251 93.0253 392.565 93.9957 393.194 94.679C393.85 95.3623 394.779 95.704 395.982 95.704C397.266 95.704 398.332 95.335 399.18 94.597L400.205 96.688C399.631 97.2073 398.934 97.59 398.114 97.836C397.321 98.082 396.501 98.205 395.654 98.205ZM385.486 78.894V76.475H398.811V78.894H385.486ZM413.886 98.205C411.645 98.205 409.677 97.7403 407.982 96.811C406.287 95.8543 404.962 94.556 404.005 92.916C403.048 91.2487 402.57 89.349 402.57 87.217C402.57 85.085 403.021 83.199 403.923 81.559C404.852 79.919 406.11 78.6343 407.695 77.705C409.308 76.7483 411.112 76.27 413.107 76.27C415.13 76.27 416.92 76.7347 418.478 77.664C420.063 78.566 421.307 79.8507 422.209 81.518C423.111 83.158 423.562 85.0577 423.562 87.217C423.562 87.3537 423.548 87.504 423.521 87.668C423.521 87.8047 423.521 87.955 423.521 88.119H404.784V85.946H421.963L420.815 86.807C420.815 85.249 420.473 83.8687 419.79 82.666C419.134 81.436 418.232 80.4793 417.084 79.796C415.936 79.1127 414.61 78.771 413.107 78.771C411.631 78.771 410.305 79.1127 409.13 79.796C407.955 80.4793 407.039 81.436 406.383 82.666C405.727 83.896 405.399 85.3037 405.399 86.889V87.34C405.399 88.98 405.754 90.4287 406.465 91.686C407.203 92.916 408.214 93.8863 409.499 94.597C410.811 95.2803 412.301 95.622 413.968 95.622C415.28 95.622 416.496 95.3897 417.617 94.925C418.765 94.4603 419.749 93.7497 420.569 92.793L422.209 94.679C421.252 95.827 420.05 96.7017 418.601 97.303C417.18 97.9043 415.608 98.205 413.886 98.205ZM443.539 83.199H458.709V85.823H443.539V83.199ZM443.867 98H440.833V69.3H460.513V71.924H443.867V98ZM474.585 98.205C472.344 98.205 470.376 97.7403 468.681 96.811C466.987 95.8543 465.661 94.556 464.704 92.916C463.748 91.2487 463.269 89.349 463.269 87.217C463.269 85.085 463.72 83.199 464.622 81.559C465.552 79.919 466.809 78.6343 468.394 77.705C470.007 76.7483 471.811 76.27 473.806 76.27C475.829 76.27 477.619 76.7347 479.177 77.664C480.763 78.566 482.006 79.8507 482.908 81.518C483.81 83.158 484.261 85.0577 484.261 87.217C484.261 87.3537 484.248 87.504 484.22 87.668C484.22 87.8047 484.22 87.955 484.22 88.119H465.483V85.946H482.662L481.514 86.807C481.514 85.249 481.173 83.8687 480.489 82.666C479.833 81.436 478.931 80.4793 477.783 79.796C476.635 79.1127 475.31 78.771 473.806 78.771C472.33 78.771 471.005 79.1127 469.829 79.796C468.654 80.4793 467.738 81.436 467.082 82.666C466.426 83.896 466.098 85.3037 466.098 86.889V87.34C466.098 88.98 466.454 90.4287 467.164 91.686C467.902 92.916 468.914 93.8863 470.198 94.597C471.51 95.2803 473 95.622 474.667 95.622C475.979 95.622 477.196 95.3897 478.316 94.925C479.464 94.4603 480.448 93.7497 481.268 92.793L482.908 94.679C481.952 95.827 480.749 96.7017 479.3 97.303C477.879 97.9043 476.307 98.205 474.585 98.205ZM499.329 98.205C497.088 98.205 495.12 97.7403 493.425 96.811C491.731 95.8543 490.405 94.556 489.448 92.916C488.492 91.2487 488.013 89.349 488.013 87.217C488.013 85.085 488.464 83.199 489.366 81.559C490.296 79.919 491.553 78.6343 493.138 77.705C494.751 76.7483 496.555 76.27 498.55 76.27C500.573 76.27 502.363 76.7347 503.921 77.664C505.507 78.566 506.75 79.8507 507.652 81.518C508.554 83.158 509.005 85.0577 509.005 87.217C509.005 87.3537 508.992 87.504 508.964 87.668C508.964 87.8047 508.964 87.955 508.964 88.119H490.227V85.946H507.406L506.258 86.807C506.258 85.249 505.917 83.8687 505.233 82.666C504.577 81.436 503.675 80.4793 502.527 79.796C501.379 79.1127 500.054 78.771 498.55 78.771C497.074 78.771 495.749 79.1127 494.573 79.796C493.398 80.4793 492.482 81.436 491.826 82.666C491.17 83.896 490.842 85.3037 490.842 86.889V87.34C490.842 88.98 491.198 90.4287 491.908 91.686C492.646 92.916 493.658 93.8863 494.942 94.597C496.254 95.2803 497.744 95.622 499.411 95.622C500.723 95.622 501.94 95.3897 503.06 94.925C504.208 94.4603 505.192 93.7497 506.012 92.793L507.652 94.679C506.696 95.827 505.493 96.7017 504.044 97.303C502.623 97.9043 501.051 98.205 499.329 98.205ZM523.5 98.205C521.45 98.205 519.605 97.7403 517.965 96.811C516.352 95.8817 515.081 94.597 514.152 92.957C513.222 91.2897 512.758 89.3763 512.758 87.217C512.758 85.0303 513.222 83.117 514.152 81.477C515.081 79.837 516.352 78.566 517.965 77.664C519.605 76.7347 521.45 76.27 523.5 76.27C525.386 76.27 527.067 76.6937 528.543 77.541C530.046 78.3883 531.235 79.632 532.11 81.272C533.012 82.8847 533.463 84.8663 533.463 87.217C533.463 89.5403 533.025 91.522 532.151 93.162C531.276 94.802 530.087 96.0593 528.584 96.934C527.108 97.7813 525.413 98.205 523.5 98.205ZM523.705 95.622C525.235 95.622 526.602 95.2803 527.805 94.597C529.035 93.8863 529.991 92.9023 530.675 91.645C531.385 90.3603 531.741 88.8843 531.741 87.217C531.741 85.5223 531.385 84.0463 530.675 82.789C529.991 81.5317 529.035 80.5613 527.805 79.878C526.602 79.1673 525.235 78.812 523.705 78.812C522.201 78.812 520.848 79.1673 519.646 79.878C518.443 80.5613 517.486 81.5317 516.776 82.789C516.065 84.0463 515.71 85.5223 515.71 87.217C515.71 88.8843 516.065 90.3603 516.776 91.645C517.486 92.9023 518.443 93.8863 519.646 94.597C520.848 95.2803 522.201 95.622 523.705 95.622ZM531.823 98V91.522L532.11 87.176L531.7 82.83V67.578H534.611V98H531.823ZM554.063 98V69.3H557.097V98H554.063ZM576.808 76.27C578.558 76.27 580.088 76.6117 581.4 77.295C582.74 77.951 583.778 78.9623 584.516 80.329C585.282 81.6957 585.664 83.4177 585.664 85.495V98H582.753V85.782C582.753 83.5133 582.179 81.805 581.031 80.657C579.911 79.4817 578.325 78.894 576.275 78.894C574.745 78.894 573.405 79.2083 572.257 79.837C571.137 80.4383 570.262 81.3267 569.633 82.502C569.032 83.65 568.731 85.044 568.731 86.684V98H565.82V76.475H568.608V82.379L568.157 81.272C568.841 79.714 569.934 78.4977 571.437 77.623C572.941 76.721 574.731 76.27 576.808 76.27ZM599.308 98.205C597.532 98.205 595.851 97.959 594.265 97.467C592.68 96.9477 591.436 96.3053 590.534 95.54L591.846 93.244C592.721 93.9 593.842 94.474 595.208 94.966C596.575 95.4307 598.01 95.663 599.513 95.663C601.563 95.663 603.039 95.3487 603.941 94.72C604.843 94.064 605.294 93.203 605.294 92.137C605.294 91.3443 605.035 90.7293 604.515 90.292C604.023 89.8273 603.367 89.4857 602.547 89.267C601.727 89.021 600.812 88.816 599.8 88.652C598.789 88.488 597.778 88.2967 596.766 88.078C595.782 87.8593 594.88 87.545 594.06 87.135C593.24 86.6977 592.571 86.11 592.051 85.372C591.559 84.634 591.313 83.65 591.313 82.42C591.313 81.2447 591.641 80.1923 592.297 79.263C592.953 78.3337 593.91 77.6093 595.167 77.09C596.452 76.5433 598.01 76.27 599.841 76.27C601.235 76.27 602.629 76.4613 604.023 76.844C605.417 77.1993 606.565 77.6777 607.467 78.279L606.196 80.616C605.24 79.96 604.215 79.4953 603.121 79.222C602.028 78.9213 600.935 78.771 599.841 78.771C597.901 78.771 596.466 79.1127 595.536 79.796C594.634 80.452 594.183 81.2993 594.183 82.338C594.183 83.158 594.429 83.8003 594.921 84.265C595.441 84.7297 596.11 85.0987 596.93 85.372C597.778 85.618 598.693 85.823 599.677 85.987C600.689 86.151 601.686 86.356 602.67 86.602C603.682 86.8207 604.597 87.135 605.417 87.545C606.265 87.9277 606.934 88.488 607.426 89.226C607.946 89.9367 608.205 90.8797 608.205 92.055C608.205 93.3123 607.85 94.4057 607.139 95.335C606.456 96.237 605.445 96.9477 604.105 97.467C602.793 97.959 601.194 98.205 599.308 98.205ZM620.353 98.205C618.33 98.205 616.772 97.6583 615.679 96.565C614.585 95.4717 614.039 93.9273 614.039 91.932V71.719H616.95V91.768C616.95 93.0253 617.264 93.9957 617.893 94.679C618.549 95.3623 619.478 95.704 620.681 95.704C621.965 95.704 623.031 95.335 623.879 94.597L624.904 96.688C624.33 97.2073 623.633 97.59 622.813 97.836C622.02 98.082 621.2 98.205 620.353 98.205ZM610.185 78.894V76.475H623.51V78.894H610.185ZM643.692 98V93.244L643.569 92.465V84.511C643.569 82.6797 643.05 81.272 642.011 80.288C641 79.304 639.483 78.812 637.46 78.812C636.066 78.812 634.74 79.0443 633.483 79.509C632.226 79.9737 631.16 80.5887 630.285 81.354L628.973 79.181C630.066 78.2517 631.378 77.541 632.909 77.049C634.44 76.5297 636.052 76.27 637.747 76.27C640.535 76.27 642.681 76.967 644.184 78.361C645.715 79.7277 646.48 81.8187 646.48 84.634V98H643.692ZM636.271 98.205C634.658 98.205 633.251 97.9453 632.048 97.426C630.873 96.8793 629.971 96.1413 629.342 95.212C628.713 94.2553 628.399 93.162 628.399 91.932C628.399 90.8113 628.659 89.8 629.178 88.898C629.725 87.9687 630.599 87.2307 631.802 86.684C633.032 86.11 634.672 85.823 636.722 85.823H644.143V87.996H636.804C634.727 87.996 633.278 88.365 632.458 89.103C631.665 89.841 631.269 90.7567 631.269 91.85C631.269 93.08 631.747 94.064 632.704 94.802C633.661 95.54 635 95.909 636.722 95.909C638.362 95.909 639.77 95.54 640.945 94.802C642.148 94.0367 643.022 92.9433 643.569 91.522L644.225 93.531C643.678 94.9523 642.722 96.0867 641.355 96.934C640.016 97.7813 638.321 98.205 636.271 98.205ZM663.571 106.159C661.603 106.159 659.717 105.872 657.913 105.298C656.109 104.724 654.646 103.904 653.526 102.838L655.002 100.624C656.013 101.526 657.257 102.237 658.733 102.756C660.236 103.303 661.821 103.576 663.489 103.576C666.222 103.576 668.231 102.934 669.516 101.649C670.8 100.392 671.443 98.4237 671.443 95.745V90.374L671.853 86.684L671.566 82.994V76.475H674.354V95.376C674.354 99.0933 673.438 101.813 671.607 103.535C669.803 105.284 667.124 106.159 663.571 106.159ZM663.038 97.18C660.988 97.18 659.143 96.7427 657.503 95.868C655.863 94.966 654.564 93.7223 653.608 92.137C652.678 90.5517 652.214 88.734 652.214 86.684C652.214 84.634 652.678 82.83 653.608 81.272C654.564 79.6867 655.863 78.4567 657.503 77.582C659.143 76.7073 660.988 76.27 663.038 76.27C664.951 76.27 666.673 76.6663 668.204 77.459C669.734 78.2517 670.951 79.427 671.853 80.985C672.755 82.543 673.206 84.4427 673.206 86.684C673.206 88.9253 672.755 90.825 671.853 92.383C670.951 93.941 669.734 95.13 668.204 95.95C666.673 96.77 664.951 97.18 663.038 97.18ZM663.325 94.597C664.91 94.597 666.318 94.269 667.548 93.613C668.778 92.9297 669.748 92.0003 670.459 90.825C671.169 89.6223 671.525 88.242 671.525 86.684C671.525 85.126 671.169 83.7593 670.459 82.584C669.748 81.4087 668.778 80.493 667.548 79.837C666.318 79.1537 664.91 78.812 663.325 78.812C661.767 78.812 660.359 79.1537 659.102 79.837C657.872 80.493 656.901 81.4087 656.191 82.584C655.507 83.7593 655.166 85.126 655.166 86.684C655.166 88.242 655.507 89.6223 656.191 90.825C656.901 92.0003 657.872 92.9297 659.102 93.613C660.359 94.269 661.767 94.597 663.325 94.597ZM682.454 98V76.475H685.242V82.338L684.955 81.313C685.556 79.673 686.568 78.4293 687.989 77.582C689.41 76.7073 691.173 76.27 693.278 76.27V79.099C693.169 79.099 693.059 79.099 692.95 79.099C692.841 79.0717 692.731 79.058 692.622 79.058C690.353 79.058 688.577 79.755 687.292 81.149C686.007 82.5157 685.365 84.47 685.365 87.012V98H682.454ZM710.477 98V93.244L710.354 92.465V84.511C710.354 82.6797 709.835 81.272 708.796 80.288C707.785 79.304 706.268 78.812 704.245 78.812C702.851 78.812 701.526 79.0443 700.268 79.509C699.011 79.9737 697.945 80.5887 697.07 81.354L695.758 79.181C696.852 78.2517 698.164 77.541 699.694 77.049C701.225 76.5297 702.838 76.27 704.532 76.27C707.32 76.27 709.466 76.967 710.969 78.361C712.5 79.7277 713.265 81.8187 713.265 84.634V98H710.477ZM703.056 98.205C701.444 98.205 700.036 97.9453 698.833 97.426C697.658 96.8793 696.756 96.1413 696.127 95.212C695.499 94.2553 695.184 93.162 695.184 91.932C695.184 90.8113 695.444 89.8 695.963 88.898C696.51 87.9687 697.385 87.2307 698.587 86.684C699.817 86.11 701.457 85.823 703.507 85.823H710.928V87.996H703.589C701.512 87.996 700.063 88.365 699.243 89.103C698.451 89.841 698.054 90.7567 698.054 91.85C698.054 93.08 698.533 94.064 699.489 94.802C700.446 95.54 701.785 95.909 703.507 95.909C705.147 95.909 706.555 95.54 707.73 94.802C708.933 94.0367 709.808 92.9433 710.354 91.522L711.01 93.531C710.464 94.9523 709.507 96.0867 708.14 96.934C706.801 97.7813 705.106 98.205 703.056 98.205ZM748.068 76.27C749.817 76.27 751.334 76.6117 752.619 77.295C753.931 77.951 754.942 78.9623 755.653 80.329C756.391 81.6957 756.76 83.4177 756.76 85.495V98H753.849V85.782C753.849 83.5133 753.302 81.805 752.209 80.657C751.143 79.4817 749.626 78.894 747.658 78.894C746.182 78.894 744.897 79.2083 743.804 79.837C742.738 80.4383 741.904 81.3267 741.303 82.502C740.729 83.65 740.442 85.044 740.442 86.684V98H737.531V85.782C737.531 83.5133 736.984 81.805 735.891 80.657C734.797 79.4817 733.267 78.894 731.299 78.894C729.85 78.894 728.579 79.2083 727.486 79.837C726.392 80.4383 725.545 81.3267 724.944 82.502C724.37 83.65 724.083 85.044 724.083 86.684V98H721.172V76.475H723.96V82.297L723.509 81.272C724.165 79.714 725.217 78.4977 726.666 77.623C728.142 76.721 729.877 76.27 731.873 76.27C733.977 76.27 735.768 76.803 737.244 77.869C738.72 78.9077 739.676 80.4793 740.114 82.584L738.966 82.133C739.594 80.3837 740.701 78.976 742.287 77.91C743.899 76.8167 745.826 76.27 748.068 76.27ZM782.027 98.246C779.949 98.246 777.981 97.918 776.123 97.262C774.291 96.5787 772.815 95.6767 771.695 94.556L773.13 92.219C774.059 93.1757 775.303 93.9683 776.861 94.597C778.446 95.2257 780.168 95.54 782.027 95.54C784.405 95.54 786.222 95.0207 787.48 93.982C788.764 92.9433 789.407 91.5493 789.407 89.8C789.407 88.0507 788.778 86.6567 787.521 85.618C786.291 84.5793 784.336 84.06 781.658 84.06H779.608V81.887L788.464 70.776L788.874 71.924H772.884V69.3H791.334V71.391L782.478 82.502L781.043 81.559H782.15C785.594 81.559 788.163 82.3243 789.858 83.855C791.58 85.3857 792.441 87.3537 792.441 89.759C792.441 91.3717 792.058 92.8203 791.293 94.105C790.527 95.3897 789.366 96.401 787.808 97.139C786.277 97.877 784.35 98.246 782.027 98.246ZM794.767 98L803.869 86.192L803.828 87.627L795.177 76.475H798.457L805.55 85.7L804.32 85.659L811.413 76.475H814.611L805.878 87.75L805.919 86.192L815.103 98H811.782L804.279 88.16L805.427 88.324L798.047 98H794.767ZM826.59 98.246C824.513 98.246 822.545 97.918 820.686 97.262C818.855 96.5787 817.379 95.6767 816.258 94.556L817.693 92.219C818.622 93.1757 819.866 93.9683 821.424 94.597C823.009 95.2257 824.731 95.54 826.59 95.54C828.968 95.54 830.786 95.0207 832.043 93.982C833.328 92.9433 833.97 91.5493 833.97 89.8C833.97 88.0507 833.341 86.6567 832.084 85.618C830.854 84.5793 828.9 84.06 826.221 84.06H824.171V81.887L833.027 70.776L833.437 71.924H817.447V69.3H835.897V71.391L827.041 82.502L825.606 81.559H826.713C830.157 81.559 832.726 82.3243 834.421 83.855C836.143 85.3857 837.004 87.3537 837.004 89.759C837.004 91.3717 836.621 92.8203 835.856 94.105C835.091 95.3897 833.929 96.401 832.371 97.139C830.84 97.877 828.913 98.246 826.59 98.246ZM841.328 103.986L843.132 96.401L843.46 98.164C842.831 98.164 842.298 97.959 841.861 97.549C841.451 97.139 841.246 96.606 841.246 95.95C841.246 95.294 841.451 94.761 841.861 94.351C842.298 93.941 842.817 93.736 843.419 93.736C844.047 93.736 844.553 93.9547 844.936 94.392C845.346 94.8293 845.551 95.3487 845.551 95.95C845.551 96.1687 845.537 96.3873 845.51 96.606C845.482 96.8247 845.428 97.0707 845.346 97.344C845.264 97.6173 845.154 97.9453 845.018 98.328L843.296 103.986H841.328ZM363.382 139.246C361.25 139.246 359.2 138.904 357.232 138.221C355.292 137.51 353.788 136.608 352.722 135.515L353.911 133.178C354.923 134.162 356.276 134.996 357.97 135.679C359.692 136.335 361.496 136.663 363.382 136.663C365.186 136.663 366.649 136.444 367.769 136.007C368.917 135.542 369.751 134.927 370.27 134.162C370.817 133.397 371.09 132.549 371.09 131.62C371.09 130.499 370.762 129.597 370.106 128.914C369.478 128.231 368.644 127.698 367.605 127.315C366.567 126.905 365.419 126.55 364.161 126.249C362.904 125.948 361.647 125.634 360.389 125.306C359.132 124.951 357.97 124.486 356.904 123.912C355.866 123.338 355.018 122.586 354.362 121.657C353.734 120.7 353.419 119.457 353.419 117.926C353.419 116.505 353.788 115.206 354.526 114.031C355.292 112.828 356.453 111.872 358.011 111.161C359.569 110.423 361.565 110.054 363.997 110.054C365.61 110.054 367.209 110.286 368.794 110.751C370.38 111.188 371.746 111.803 372.894 112.596L371.869 115.015C370.639 114.195 369.327 113.594 367.933 113.211C366.567 112.828 365.241 112.637 363.956 112.637C362.234 112.637 360.813 112.869 359.692 113.334C358.572 113.799 357.738 114.427 357.191 115.22C356.672 115.985 356.412 116.86 356.412 117.844C356.412 118.965 356.727 119.867 357.355 120.55C358.011 121.233 358.859 121.766 359.897 122.149C360.963 122.532 362.125 122.873 363.382 123.174C364.64 123.475 365.883 123.803 367.113 124.158C368.371 124.513 369.519 124.978 370.557 125.552C371.623 126.099 372.471 126.837 373.099 127.766C373.755 128.695 374.083 129.912 374.083 131.415C374.083 132.809 373.701 134.107 372.935 135.31C372.17 136.485 370.995 137.442 369.409 138.18C367.851 138.891 365.842 139.246 363.382 139.246ZM389.222 139.205C386.981 139.205 385.013 138.74 383.318 137.811C381.623 136.854 380.298 135.556 379.341 133.916C378.384 132.249 377.906 130.349 377.906 128.217C377.906 126.085 378.357 124.199 379.259 122.559C380.188 120.919 381.446 119.634 383.031 118.705C384.644 117.748 386.448 117.27 388.443 117.27C390.466 117.27 392.256 117.735 393.814 118.664C395.399 119.566 396.643 120.851 397.545 122.518C398.447 124.158 398.898 126.058 398.898 128.217C398.898 128.354 398.884 128.504 398.857 128.668C398.857 128.805 398.857 128.955 398.857 129.119H380.12V126.946H397.299L396.151 127.807C396.151 126.249 395.809 124.869 395.126 123.666C394.47 122.436 393.568 121.479 392.42 120.796C391.272 120.113 389.946 119.771 388.443 119.771C386.967 119.771 385.641 120.113 384.466 120.796C383.291 121.479 382.375 122.436 381.719 123.666C381.063 124.896 380.735 126.304 380.735 127.889V128.34C380.735 129.98 381.09 131.429 381.801 132.686C382.539 133.916 383.55 134.886 384.835 135.597C386.147 136.28 387.637 136.622 389.304 136.622C390.616 136.622 391.832 136.39 392.953 135.925C394.101 135.46 395.085 134.75 395.905 133.793L397.545 135.679C396.588 136.827 395.386 137.702 393.937 138.303C392.516 138.904 390.944 139.205 389.222 139.205ZM404.823 139V117.475H407.611V123.338L407.324 122.313C407.925 120.673 408.937 119.429 410.358 118.582C411.779 117.707 413.542 117.27 415.647 117.27V120.099C415.538 120.099 415.428 120.099 415.319 120.099C415.21 120.072 415.1 120.058 414.991 120.058C412.722 120.058 410.946 120.755 409.661 122.149C408.376 123.516 407.734 125.47 407.734 128.012V139H404.823ZM420.959 139V117.475H423.87V139H420.959ZM422.435 112.719C421.834 112.719 421.328 112.514 420.918 112.104C420.508 111.694 420.303 111.202 420.303 110.628C420.303 110.054 420.508 109.576 420.918 109.193C421.328 108.783 421.834 108.578 422.435 108.578C423.036 108.578 423.542 108.769 423.952 109.152C424.362 109.535 424.567 110.013 424.567 110.587C424.567 111.188 424.362 111.694 423.952 112.104C423.569 112.514 423.064 112.719 422.435 112.719ZM451.474 139L438.764 110.3H442.044L453.934 137.319H452.13L464.102 110.3H467.177L454.467 139H451.474ZM482.575 139V134.244L482.452 133.465V125.511C482.452 123.68 481.933 122.272 480.894 121.288C479.883 120.304 478.366 119.812 476.343 119.812C474.949 119.812 473.623 120.044 472.366 120.509C471.109 120.974 470.043 121.589 469.168 122.354L467.856 120.181C468.949 119.252 470.261 118.541 471.792 118.049C473.323 117.53 474.935 117.27 476.63 117.27C479.418 117.27 481.564 117.967 483.067 119.361C484.598 120.728 485.363 122.819 485.363 125.634V139H482.575ZM475.154 139.205C473.541 139.205 472.134 138.945 470.931 138.426C469.756 137.879 468.854 137.141 468.225 136.212C467.596 135.255 467.282 134.162 467.282 132.932C467.282 131.811 467.542 130.8 468.061 129.898C468.608 128.969 469.482 128.231 470.685 127.684C471.915 127.11 473.555 126.823 475.605 126.823H483.026V128.996H475.687C473.61 128.996 472.161 129.365 471.341 130.103C470.548 130.841 470.152 131.757 470.152 132.85C470.152 134.08 470.63 135.064 471.587 135.802C472.544 136.54 473.883 136.909 475.605 136.909C477.245 136.909 478.653 136.54 479.828 135.802C481.031 135.037 481.905 133.943 482.452 132.522L483.108 134.531C482.561 135.952 481.605 137.087 480.238 137.934C478.899 138.781 477.204 139.205 475.154 139.205ZM493.269 139V117.475H496.057V123.338L495.77 122.313C496.372 120.673 497.383 119.429 498.804 118.582C500.226 117.707 501.989 117.27 504.093 117.27V120.099C503.984 120.099 503.875 120.099 503.765 120.099C503.656 120.072 503.547 120.058 503.437 120.058C501.169 120.058 499.392 120.755 498.107 122.149C496.823 123.516 496.18 125.47 496.18 128.012V139H493.269ZM509.405 139V117.475H512.316V139H509.405ZM510.881 112.719C510.28 112.719 509.774 112.514 509.364 112.104C508.954 111.694 508.749 111.202 508.749 110.628C508.749 110.054 508.954 109.576 509.364 109.193C509.774 108.783 510.28 108.578 510.881 108.578C511.483 108.578 511.988 108.769 512.398 109.152C512.808 109.535 513.013 110.013 513.013 110.587C513.013 111.188 512.808 111.694 512.398 112.104C512.016 112.514 511.51 112.719 510.881 112.719ZM533.905 139V134.244L533.782 133.465V125.511C533.782 123.68 533.263 122.272 532.224 121.288C531.213 120.304 529.696 119.812 527.673 119.812C526.279 119.812 524.953 120.044 523.696 120.509C522.439 120.974 521.373 121.589 520.498 122.354L519.186 120.181C520.279 119.252 521.591 118.541 523.122 118.049C524.653 117.53 526.265 117.27 527.96 117.27C530.748 117.27 532.894 117.967 534.397 119.361C535.928 120.728 536.693 122.819 536.693 125.634V139H533.905ZM526.484 139.205C524.871 139.205 523.464 138.945 522.261 138.426C521.086 137.879 520.184 137.141 519.555 136.212C518.926 135.255 518.612 134.162 518.612 132.932C518.612 131.811 518.872 130.8 519.391 129.898C519.938 128.969 520.812 128.231 522.015 127.684C523.245 127.11 524.885 126.823 526.935 126.823H534.356V128.996H527.017C524.94 128.996 523.491 129.365 522.671 130.103C521.878 130.841 521.482 131.757 521.482 132.85C521.482 134.08 521.96 135.064 522.917 135.802C523.874 136.54 525.213 136.909 526.935 136.909C528.575 136.909 529.983 136.54 531.158 135.802C532.361 135.037 533.235 133.943 533.782 132.522L534.438 134.531C533.891 135.952 532.935 137.087 531.568 137.934C530.229 138.781 528.534 139.205 526.484 139.205ZM555.588 117.27C557.337 117.27 558.868 117.612 560.18 118.295C561.519 118.951 562.558 119.962 563.296 121.329C564.061 122.696 564.444 124.418 564.444 126.495V139H561.533V126.782C561.533 124.513 560.959 122.805 559.811 121.657C558.69 120.482 557.105 119.894 555.055 119.894C553.524 119.894 552.185 120.208 551.037 120.837C549.916 121.438 549.041 122.327 548.413 123.502C547.811 124.65 547.511 126.044 547.511 127.684V139H544.6V117.475H547.388V123.379L546.937 122.272C547.62 120.714 548.713 119.498 550.217 118.623C551.72 117.721 553.51 117.27 555.588 117.27ZM583.652 139V110.3H595.337C598.398 110.3 601.077 110.915 603.373 112.145C605.696 113.348 607.5 115.029 608.785 117.188C610.07 119.347 610.712 121.835 610.712 124.65C610.712 127.465 610.07 129.953 608.785 132.112C607.5 134.271 605.696 135.966 603.373 137.196C601.077 138.399 598.398 139 595.337 139H583.652ZM586.686 136.376H595.173C597.715 136.376 599.915 135.884 601.774 134.9C603.66 133.889 605.122 132.508 606.161 130.759C607.2 128.982 607.719 126.946 607.719 124.65C607.719 122.327 607.2 120.29 606.161 118.541C605.122 116.792 603.66 115.425 601.774 114.441C599.915 113.43 597.715 112.924 595.173 112.924H586.686V136.376ZM626.053 139.205C623.812 139.205 621.844 138.74 620.149 137.811C618.454 136.854 617.129 135.556 616.172 133.916C615.215 132.249 614.737 130.349 614.737 128.217C614.737 126.085 615.188 124.199 616.09 122.559C617.019 120.919 618.277 119.634 619.862 118.705C621.475 117.748 623.279 117.27 625.274 117.27C627.297 117.27 629.087 117.735 630.645 118.664C632.23 119.566 633.474 120.851 634.376 122.518C635.278 124.158 635.729 126.058 635.729 128.217C635.729 128.354 635.715 128.504 635.688 128.668C635.688 128.805 635.688 128.955 635.688 129.119H616.951V126.946H634.13L632.982 127.807C632.982 126.249 632.64 124.869 631.957 123.666C631.301 122.436 630.399 121.479 629.251 120.796C628.103 120.113 626.777 119.771 625.274 119.771C623.798 119.771 622.472 120.113 621.297 120.796C620.122 121.479 619.206 122.436 618.55 123.666C617.894 124.896 617.566 126.304 617.566 127.889V128.34C617.566 129.98 617.921 131.429 618.632 132.686C619.37 133.916 620.381 134.886 621.666 135.597C622.978 136.28 624.468 136.622 626.135 136.622C627.447 136.622 628.663 136.39 629.784 135.925C630.932 135.46 631.916 134.75 632.736 133.793L634.376 135.679C633.419 136.827 632.217 137.702 630.768 138.303C629.347 138.904 627.775 139.205 626.053 139.205ZM647.435 139.205C645.659 139.205 643.978 138.959 642.392 138.467C640.807 137.948 639.563 137.305 638.661 136.54L639.973 134.244C640.848 134.9 641.969 135.474 643.335 135.966C644.702 136.431 646.137 136.663 647.64 136.663C649.69 136.663 651.166 136.349 652.068 135.72C652.97 135.064 653.421 134.203 653.421 133.137C653.421 132.344 653.162 131.729 652.642 131.292C652.15 130.827 651.494 130.486 650.674 130.267C649.854 130.021 648.939 129.816 647.927 129.652C646.916 129.488 645.905 129.297 644.893 129.078C643.909 128.859 643.007 128.545 642.187 128.135C641.367 127.698 640.698 127.11 640.178 126.372C639.686 125.634 639.44 124.65 639.44 123.42C639.44 122.245 639.768 121.192 640.424 120.263C641.08 119.334 642.037 118.609 643.294 118.09C644.579 117.543 646.137 117.27 647.968 117.27C649.362 117.27 650.756 117.461 652.15 117.844C653.544 118.199 654.692 118.678 655.594 119.279L654.323 121.616C653.367 120.96 652.342 120.495 651.248 120.222C650.155 119.921 649.062 119.771 647.968 119.771C646.028 119.771 644.593 120.113 643.663 120.796C642.761 121.452 642.31 122.299 642.31 123.338C642.31 124.158 642.556 124.8 643.048 125.265C643.568 125.73 644.237 126.099 645.057 126.372C645.905 126.618 646.82 126.823 647.804 126.987C648.816 127.151 649.813 127.356 650.797 127.602C651.809 127.821 652.724 128.135 653.544 128.545C654.392 128.928 655.061 129.488 655.553 130.226C656.073 130.937 656.332 131.88 656.332 133.055C656.332 134.312 655.977 135.406 655.266 136.335C654.583 137.237 653.572 137.948 652.232 138.467C650.92 138.959 649.321 139.205 647.435 139.205ZM675.163 139V134.244L675.04 133.465V125.511C675.04 123.68 674.52 122.272 673.482 121.288C672.47 120.304 670.953 119.812 668.931 119.812C667.537 119.812 666.211 120.044 664.954 120.509C663.696 120.974 662.63 121.589 661.756 122.354L660.444 120.181C661.537 119.252 662.849 118.541 664.38 118.049C665.91 117.53 667.523 117.27 669.218 117.27C672.006 117.27 674.151 117.967 675.655 119.361C677.185 120.728 677.951 122.819 677.951 125.634V139H675.163ZM667.742 139.205C666.129 139.205 664.721 138.945 663.519 138.426C662.343 137.879 661.441 137.141 660.813 136.212C660.184 135.255 659.87 134.162 659.87 132.932C659.87 131.811 660.129 130.8 660.649 129.898C661.195 128.969 662.07 128.231 663.273 127.684C664.503 127.11 666.143 126.823 668.193 126.823H675.614V128.996H668.275C666.197 128.996 664.749 129.365 663.929 130.103C663.136 130.841 662.74 131.757 662.74 132.85C662.74 134.08 663.218 135.064 664.175 135.802C665.131 136.54 666.471 136.909 668.193 136.909C669.833 136.909 671.24 136.54 672.416 135.802C673.618 135.037 674.493 133.943 675.04 132.522L675.696 134.531C675.149 135.952 674.192 137.087 672.826 137.934C671.486 138.781 669.792 139.205 667.742 139.205ZM685.857 139V117.475H688.768V139H685.857ZM687.333 112.719C686.732 112.719 686.226 112.514 685.816 112.104C685.406 111.694 685.201 111.202 685.201 110.628C685.201 110.054 685.406 109.576 685.816 109.193C686.226 108.783 686.732 108.578 687.333 108.578C687.935 108.578 688.44 108.769 688.85 109.152C689.26 109.535 689.465 110.013 689.465 110.587C689.465 111.188 689.26 111.694 688.85 112.104C688.468 112.514 687.962 112.719 687.333 112.719ZM707.856 117.27C709.605 117.27 711.136 117.612 712.448 118.295C713.787 118.951 714.826 119.962 715.564 121.329C716.329 122.696 716.712 124.418 716.712 126.495V139H713.801V126.782C713.801 124.513 713.227 122.805 712.079 121.657C710.958 120.482 709.373 119.894 707.323 119.894C705.792 119.894 704.453 120.208 703.305 120.837C702.184 121.438 701.31 122.327 700.681 123.502C700.08 124.65 699.779 126.044 699.779 127.684V139H696.868V117.475H699.656V123.379L699.205 122.272C699.888 120.714 700.982 119.498 702.485 118.623C703.988 117.721 705.779 117.27 707.856 117.27ZM724.862 121.739C724.261 121.739 723.741 121.52 723.304 121.083C722.894 120.646 722.689 120.113 722.689 119.484C722.689 118.828 722.894 118.295 723.304 117.885C723.741 117.475 724.261 117.27 724.862 117.27C725.463 117.27 725.969 117.475 726.379 117.885C726.816 118.295 727.035 118.828 727.035 119.484C727.035 120.113 726.816 120.646 726.379 121.083C725.969 121.52 725.463 121.739 724.862 121.739ZM724.862 139.205C724.261 139.205 723.741 138.986 723.304 138.549C722.894 138.112 722.689 137.579 722.689 136.95C722.689 136.294 722.894 135.761 723.304 135.351C723.741 134.941 724.261 134.736 724.862 134.736C725.463 134.736 725.969 134.941 726.379 135.351C726.816 135.761 727.035 136.294 727.035 136.95C727.035 137.579 726.816 138.112 726.379 138.549C725.969 138.986 725.463 139.205 724.862 139.205Z" fill="white"/>
</svg>
