<svg width="1080" height="272" viewBox="0 0 1080 272" fill="none" xmlns="http://www.w3.org/2000/svg">
<path d="M0 100C0 44.7715 44.7715 0 100 0H980C1035.23 0 1080 44.7715 1080 100V272H0V100Z" fill="#F1F1F1"/>
<path d="M0 100C0 44.7715 44.7715 0 100 0H980C1035.23 0 1080 44.7715 1080 100V272H0V100Z" fill="#BF4725"/>
<path d="M238.108 162.493H249.103V210H238.108V162.493ZM216.526 210H205.532V162.493H216.526V210ZM238.923 190.522H215.712V181.224H238.923V190.522ZM281.993 210V202.874L281.314 201.313V188.554C281.314 186.292 280.613 184.527 279.21 183.26C277.853 181.993 275.749 181.36 272.899 181.36C270.953 181.36 269.03 181.677 267.13 182.31C265.275 182.898 263.691 183.713 262.379 184.753L258.578 177.356C260.569 175.953 262.967 174.867 265.772 174.098C268.578 173.329 271.428 172.944 274.324 172.944C279.889 172.944 284.21 174.256 287.287 176.881C290.363 179.505 291.902 183.599 291.902 189.165V210H281.993ZM270.863 210.543C268.012 210.543 265.569 210.068 263.533 209.118C261.497 208.122 259.936 206.788 258.85 205.114C257.764 203.439 257.221 201.562 257.221 199.48C257.221 197.309 257.741 195.408 258.782 193.78C259.868 192.151 261.565 190.884 263.872 189.979C266.18 189.029 269.188 188.554 272.899 188.554H282.604V194.73H274.052C271.564 194.73 269.844 195.137 268.894 195.951C267.989 196.766 267.537 197.784 267.537 199.005C267.537 200.363 268.057 201.449 269.098 202.263C270.184 203.032 271.654 203.417 273.509 203.417C275.274 203.417 276.858 203.01 278.26 202.195C279.663 201.336 280.681 200.091 281.314 198.462L282.943 203.349C282.174 205.702 280.771 207.489 278.735 208.711C276.699 209.932 274.075 210.543 270.863 210.543ZM301.484 210V159.642H312.071V210H301.484ZM323.186 210V172.673C323.186 168.555 324.408 165.275 326.851 162.832C329.295 160.343 332.778 159.099 337.303 159.099C338.841 159.099 340.312 159.258 341.714 159.574C343.162 159.891 344.384 160.389 345.379 161.067L342.597 168.736C342.008 168.329 341.352 168.012 340.628 167.786C339.905 167.56 339.135 167.447 338.321 167.447C336.783 167.447 335.584 167.899 334.724 168.804C333.91 169.664 333.502 170.976 333.502 172.741V176.134L333.774 180.681V210H323.186ZM317.553 182.446V174.302H342.868V182.446H317.553ZM346.123 195.137V186.653H365.329V195.137H346.123ZM384.586 183.871H407.39V192.694H384.586V183.871ZM385.401 210H374.406V162.493H410.308V171.315H385.401V210ZM438.407 210V202.874L437.728 201.313V188.554C437.728 186.292 437.027 184.527 435.624 183.26C434.267 181.993 432.163 181.36 429.313 181.36C427.367 181.36 425.444 181.677 423.544 182.31C421.689 182.898 420.105 183.713 418.793 184.753L414.993 177.356C416.983 175.953 419.381 174.867 422.187 174.098C424.992 173.329 427.842 172.944 430.738 172.944C436.303 172.944 440.624 174.256 443.701 176.881C446.777 179.505 448.316 183.599 448.316 189.165V210H438.407ZM427.277 210.543C424.426 210.543 421.983 210.068 419.947 209.118C417.911 208.122 416.35 206.788 415.264 205.114C414.178 203.439 413.635 201.562 413.635 199.48C413.635 197.309 414.155 195.408 415.196 193.78C416.282 192.151 417.979 190.884 420.286 189.979C422.594 189.029 425.603 188.554 429.313 188.554H439.018V194.73H430.466C427.978 194.73 426.259 195.137 425.308 195.951C424.404 196.766 423.951 197.784 423.951 199.005C423.951 200.363 424.471 201.449 425.512 202.263C426.598 203.032 428.068 203.417 429.923 203.417C431.688 203.417 433.272 203.01 434.674 202.195C436.077 201.336 437.095 200.091 437.728 198.462L439.357 203.349C438.588 205.702 437.185 207.489 435.149 208.711C433.113 209.932 430.489 210.543 427.277 210.543ZM475.808 210.543C471.872 210.543 468.366 209.751 465.289 208.168C462.212 206.539 459.792 204.299 458.027 201.449C456.308 198.598 455.448 195.363 455.448 191.744C455.448 188.079 456.308 184.844 458.027 182.038C459.792 179.188 462.212 176.971 465.289 175.387C468.366 173.759 471.872 172.944 475.808 172.944C479.654 172.944 483.002 173.759 485.853 175.387C488.703 176.971 490.807 179.256 492.165 182.242L483.953 186.653C483.002 184.934 481.803 183.667 480.356 182.853C478.953 182.038 477.415 181.631 475.741 181.631C473.931 181.631 472.302 182.038 470.854 182.853C469.406 183.667 468.252 184.821 467.393 186.314C466.578 187.807 466.171 189.617 466.171 191.744C466.171 193.87 466.578 195.68 467.393 197.173C468.252 198.666 469.406 199.82 470.854 200.634C472.302 201.449 473.931 201.856 475.741 201.856C477.415 201.856 478.953 201.471 480.356 200.702C481.803 199.888 483.002 198.598 483.953 196.834L492.165 201.313C490.807 204.254 488.703 206.539 485.853 208.168C483.002 209.751 479.654 210.543 475.808 210.543ZM515.917 210.543C511.755 210.543 508.09 209.729 504.923 208.1C501.801 206.471 499.38 204.254 497.661 201.449C495.941 198.598 495.082 195.363 495.082 191.744C495.082 188.079 495.919 184.844 497.593 182.038C499.312 179.188 501.642 176.971 504.583 175.387C507.524 173.759 510.85 172.944 514.56 172.944C518.134 172.944 521.347 173.713 524.197 175.252C527.093 176.745 529.378 178.917 531.052 181.767C532.726 184.572 533.563 187.943 533.563 191.879C533.563 192.287 533.54 192.762 533.495 193.305C533.45 193.802 533.405 194.277 533.359 194.73H503.701V188.554H527.794L523.722 190.386C523.722 188.486 523.337 186.834 522.568 185.432C521.799 184.029 520.736 182.943 519.379 182.174C518.021 181.36 516.438 180.953 514.628 180.953C512.818 180.953 511.212 181.36 509.809 182.174C508.452 182.943 507.389 184.052 506.619 185.5C505.85 186.902 505.466 188.576 505.466 190.522V192.151C505.466 194.142 505.895 195.906 506.755 197.444C507.66 198.938 508.904 200.091 510.488 200.906C512.117 201.675 514.017 202.059 516.189 202.059C518.134 202.059 519.831 201.765 521.279 201.177C522.772 200.589 524.129 199.707 525.351 198.53L530.984 204.638C529.31 206.539 527.206 208.009 524.672 209.05C522.138 210.045 519.22 210.543 515.917 210.543ZM576.188 210.814C572.388 210.814 568.745 210.317 565.261 209.321C561.778 208.281 558.972 206.946 556.846 205.317L560.579 197.037C562.615 198.485 565.013 199.684 567.773 200.634C570.578 201.539 573.406 201.992 576.256 201.992C578.428 201.992 580.17 201.788 581.482 201.381C582.839 200.928 583.835 200.318 584.468 199.548C585.101 198.779 585.418 197.897 585.418 196.902C585.418 195.635 584.92 194.639 583.925 193.915C582.93 193.146 581.618 192.535 579.989 192.083C578.36 191.585 576.55 191.133 574.559 190.726C572.614 190.273 570.646 189.73 568.655 189.097C566.709 188.463 564.922 187.649 563.293 186.653C561.664 185.658 560.33 184.346 559.289 182.717C558.294 181.088 557.796 179.007 557.796 176.473C557.796 173.759 558.52 171.293 559.968 169.076C561.461 166.813 563.678 165.026 566.619 163.714C569.605 162.357 573.338 161.678 577.817 161.678C580.803 161.678 583.744 162.04 586.64 162.764C589.535 163.443 592.092 164.483 594.309 165.886L590.915 174.234C588.698 172.967 586.481 172.039 584.264 171.451C582.047 170.818 579.876 170.501 577.749 170.501C575.623 170.501 573.881 170.75 572.523 171.247C571.166 171.745 570.193 172.401 569.605 173.216C569.017 173.985 568.723 174.89 568.723 175.93C568.723 177.152 569.22 178.147 570.216 178.917C571.211 179.64 572.523 180.229 574.152 180.681C575.781 181.134 577.568 181.586 579.514 182.038C581.504 182.491 583.473 183.011 585.418 183.599C587.409 184.188 589.219 184.979 590.848 185.975C592.476 186.97 593.789 188.282 594.784 189.911C595.825 191.54 596.345 193.599 596.345 196.087C596.345 198.757 595.598 201.2 594.105 203.417C592.612 205.634 590.372 207.421 587.386 208.778C584.445 210.136 580.713 210.814 576.188 210.814ZM624.693 210.543C621.616 210.543 618.924 209.864 616.617 208.507C614.309 207.15 612.499 205.091 611.187 202.331C609.92 199.526 609.287 195.997 609.287 191.744C609.287 187.445 609.898 183.916 611.119 181.156C612.341 178.396 614.106 176.338 616.413 174.98C618.721 173.623 621.48 172.944 624.693 172.944C628.132 172.944 631.208 173.736 633.923 175.32C636.683 176.858 638.855 179.03 640.438 181.835C642.067 184.64 642.881 187.943 642.881 191.744C642.881 195.589 642.067 198.915 640.438 201.72C638.855 204.525 636.683 206.697 633.923 208.235C631.208 209.774 628.132 210.543 624.693 210.543ZM603.111 223.166V173.487H613.223V180.953L613.02 191.811L613.698 202.602V223.166H603.111ZM622.86 201.856C624.625 201.856 626.186 201.449 627.543 200.634C628.946 199.82 630.054 198.666 630.869 197.173C631.729 195.635 632.158 193.825 632.158 191.744C632.158 189.617 631.729 187.807 630.869 186.314C630.054 184.821 628.946 183.667 627.543 182.853C626.186 182.038 624.625 181.631 622.86 181.631C621.096 181.631 619.512 182.038 618.11 182.853C616.707 183.667 615.599 184.821 614.784 186.314C613.97 187.807 613.563 189.617 613.563 191.744C613.563 193.825 613.97 195.635 614.784 197.173C615.599 198.666 616.707 199.82 618.11 200.634C619.512 201.449 621.096 201.856 622.86 201.856ZM668.09 210.543C663.927 210.543 660.262 209.729 657.095 208.1C653.973 206.471 651.552 204.254 649.833 201.449C648.114 198.598 647.254 195.363 647.254 191.744C647.254 188.079 648.091 184.844 649.765 182.038C651.485 179.188 653.815 176.971 656.756 175.387C659.697 173.759 663.022 172.944 666.732 172.944C670.307 172.944 673.519 173.713 676.369 175.252C679.265 176.745 681.55 178.917 683.224 181.767C684.898 184.572 685.735 187.943 685.735 191.879C685.735 192.287 685.713 192.762 685.667 193.305C685.622 193.802 685.577 194.277 685.532 194.73H655.873V188.554H679.966L675.894 190.386C675.894 188.486 675.51 186.834 674.741 185.432C673.971 184.029 672.908 182.943 671.551 182.174C670.193 181.36 668.61 180.953 666.8 180.953C664.99 180.953 663.384 181.36 661.981 182.174C660.624 182.943 659.561 184.052 658.792 185.5C658.023 186.902 657.638 188.576 657.638 190.522V192.151C657.638 194.142 658.068 195.906 658.927 197.444C659.832 198.938 661.077 200.091 662.66 200.906C664.289 201.675 666.189 202.059 668.361 202.059C670.307 202.059 672.003 201.765 673.451 201.177C674.944 200.589 676.302 199.707 677.523 198.53L683.156 204.638C681.482 206.539 679.378 208.009 676.845 209.05C674.311 210.045 671.392 210.543 668.09 210.543ZM714.186 210V202.874L713.508 201.313V188.554C713.508 186.292 712.806 184.527 711.404 183.26C710.046 181.993 707.942 181.36 705.092 181.36C703.146 181.36 701.223 181.677 699.323 182.31C697.468 182.898 695.884 183.713 694.572 184.753L690.772 177.356C692.763 175.953 695.161 174.867 697.966 174.098C700.771 173.329 703.621 172.944 706.517 172.944C712.082 172.944 716.403 174.256 719.48 176.881C722.557 179.505 724.095 183.599 724.095 189.165V210H714.186ZM703.056 210.543C700.205 210.543 697.762 210.068 695.726 209.118C693.69 208.122 692.129 206.788 691.043 205.114C689.957 203.439 689.414 201.562 689.414 199.48C689.414 197.309 689.935 195.408 690.975 193.78C692.061 192.151 693.758 190.884 696.065 189.979C698.373 189.029 701.382 188.554 705.092 188.554H714.797V194.73H706.246C703.757 194.73 702.038 195.137 701.088 195.951C700.183 196.766 699.73 197.784 699.73 199.005C699.73 200.363 700.251 201.449 701.291 202.263C702.377 203.032 703.848 203.417 705.703 203.417C707.467 203.417 709.051 203.01 710.453 202.195C711.856 201.336 712.874 200.091 713.508 198.462L715.136 203.349C714.367 205.702 712.965 207.489 710.929 208.711C708.892 209.932 706.268 210.543 703.056 210.543ZM742.432 202.535L742.703 189.64L759.738 173.487H772.362L756.005 190.115L750.508 194.594L742.432 202.535ZM733.677 210V159.642H744.264V210H733.677ZM760.892 210L748.54 194.662L755.191 186.45L773.719 210H760.892ZM795.01 210.543C790.848 210.543 787.183 209.729 784.016 208.1C780.894 206.471 778.473 204.254 776.754 201.449C775.035 198.598 774.175 195.363 774.175 191.744C774.175 188.079 775.012 184.844 776.686 182.038C778.405 179.188 780.735 176.971 783.676 175.387C786.617 173.759 789.943 172.944 793.653 172.944C797.227 172.944 800.44 173.713 803.29 175.252C806.186 176.745 808.471 178.917 810.145 181.767C811.819 184.572 812.656 187.943 812.656 191.879C812.656 192.287 812.633 192.762 812.588 193.305C812.543 193.802 812.498 194.277 812.452 194.73H782.794V188.554H806.887L802.815 190.386C802.815 188.486 802.431 186.834 801.661 185.432C800.892 184.029 799.829 182.943 798.472 182.174C797.114 181.36 795.531 180.953 793.721 180.953C791.911 180.953 790.305 181.36 788.902 182.174C787.545 182.943 786.482 184.052 785.712 185.5C784.943 186.902 784.559 188.576 784.559 190.522V192.151C784.559 194.142 784.989 195.906 785.848 197.444C786.753 198.938 787.997 200.091 789.581 200.906C791.21 201.675 793.11 202.059 795.282 202.059C797.227 202.059 798.924 201.765 800.372 201.177C801.865 200.589 803.222 199.707 804.444 198.53L810.077 204.638C808.403 206.539 806.299 208.009 803.765 209.05C801.232 210.045 798.313 210.543 795.01 210.543ZM819.705 210V173.487H829.817V183.803L828.392 180.817C829.478 178.238 831.22 176.292 833.618 174.98C836.016 173.623 838.934 172.944 842.373 172.944V182.717C841.92 182.672 841.513 182.649 841.151 182.649C840.789 182.604 840.404 182.581 839.997 182.581C837.102 182.581 834.749 183.418 832.939 185.093C831.174 186.721 830.292 189.278 830.292 192.762V210H819.705ZM861.217 210.543C858.095 210.543 855.086 210.181 852.191 209.457C849.34 208.688 847.078 207.738 845.404 206.607L848.933 199.005C850.607 200.046 852.575 200.906 854.837 201.584C857.145 202.218 859.407 202.535 861.624 202.535C864.067 202.535 865.787 202.24 866.782 201.652C867.823 201.064 868.343 200.25 868.343 199.209C868.343 198.349 867.936 197.716 867.121 197.309C866.352 196.856 865.312 196.517 864 196.291C862.687 196.064 861.24 195.838 859.656 195.612C858.118 195.386 856.557 195.092 854.973 194.73C853.39 194.323 851.942 193.734 850.63 192.965C849.317 192.196 848.254 191.155 847.44 189.843C846.671 188.531 846.286 186.834 846.286 184.753C846.286 182.446 846.942 180.41 848.254 178.645C849.612 176.881 851.557 175.501 854.091 174.505C856.625 173.464 859.656 172.944 863.185 172.944C865.674 172.944 868.207 173.216 870.786 173.759C873.365 174.302 875.514 175.093 877.234 176.134L873.705 183.667C871.94 182.627 870.153 181.925 868.343 181.563C866.578 181.156 864.859 180.953 863.185 180.953C860.832 180.953 859.113 181.269 858.027 181.903C856.941 182.536 856.398 183.351 856.398 184.346C856.398 185.251 856.783 185.93 857.552 186.382C858.366 186.834 859.43 187.196 860.742 187.468C862.054 187.739 863.479 187.988 865.018 188.214C866.601 188.395 868.185 188.69 869.768 189.097C871.352 189.504 872.777 190.092 874.044 190.861C875.356 191.585 876.419 192.603 877.234 193.915C878.048 195.182 878.455 196.856 878.455 198.938C878.455 201.2 877.777 203.213 876.419 204.978C875.062 206.697 873.094 208.054 870.515 209.05C867.981 210.045 864.882 210.543 861.217 210.543Z" fill="white"/>
<path d="M316.562 98V71.924H306.476V69.3H329.682V71.924H319.596V98H316.562ZM340.815 98.205C338.573 98.205 336.605 97.7403 334.911 96.811C333.216 95.8543 331.89 94.556 330.934 92.916C329.977 91.2487 329.499 89.349 329.499 87.217C329.499 85.085 329.95 83.199 330.852 81.559C331.781 79.919 333.038 78.6343 334.624 77.705C336.236 76.7483 338.04 76.27 340.036 76.27C342.058 76.27 343.849 76.7347 345.407 77.664C346.992 78.566 348.236 79.8507 349.138 81.518C350.04 83.158 350.491 85.0577 350.491 87.217C350.491 87.3537 350.477 87.504 350.45 87.668C350.45 87.8047 350.45 87.955 350.45 88.119H331.713V85.946H348.892L347.744 86.807C347.744 85.249 347.402 83.8687 346.719 82.666C346.063 81.436 345.161 80.4793 344.013 79.796C342.865 79.1127 341.539 78.771 340.036 78.771C338.56 78.771 337.234 79.1127 336.059 79.796C334.883 80.4793 333.968 81.436 333.312 82.666C332.656 83.896 332.328 85.3037 332.328 86.889V87.34C332.328 88.98 332.683 90.4287 333.394 91.686C334.132 92.916 335.143 93.8863 336.428 94.597C337.74 95.2803 339.229 95.622 340.897 95.622C342.209 95.622 343.425 95.3897 344.546 94.925C345.694 94.4603 346.678 93.7497 347.498 92.793L349.138 94.679C348.181 95.827 346.978 96.7017 345.53 97.303C344.108 97.9043 342.537 98.205 340.815 98.205ZM383.312 76.27C385.061 76.27 386.578 76.6117 387.863 77.295C389.175 77.951 390.186 78.9623 390.897 80.329C391.635 81.6957 392.004 83.4177 392.004 85.495V98H389.093V85.782C389.093 83.5133 388.546 81.805 387.453 80.657C386.387 79.4817 384.87 78.894 382.902 78.894C381.426 78.894 380.141 79.2083 379.048 79.837C377.982 80.4383 377.148 81.3267 376.547 82.502C375.973 83.65 375.686 85.044 375.686 86.684V98H372.775V85.782C372.775 83.5133 372.228 81.805 371.135 80.657C370.042 79.4817 368.511 78.894 366.543 78.894C365.094 78.894 363.823 79.2083 362.73 79.837C361.637 80.4383 360.789 81.3267 360.188 82.502C359.614 83.65 359.327 85.044 359.327 86.684V98H356.416V76.475H359.204V82.297L358.753 81.272C359.409 79.714 360.461 78.4977 361.91 77.623C363.386 76.721 365.122 76.27 367.117 76.27C369.222 76.27 371.012 76.803 372.488 77.869C373.964 78.9077 374.921 80.4793 375.358 82.584L374.21 82.133C374.839 80.3837 375.946 78.976 377.531 77.91C379.144 76.8167 381.071 76.27 383.312 76.27ZM411.009 98.205C409.151 98.205 407.47 97.7813 405.966 96.934C404.463 96.0593 403.26 94.8157 402.358 93.203C401.484 91.563 401.046 89.5677 401.046 87.217C401.046 84.8663 401.484 82.8847 402.358 81.272C403.233 79.632 404.422 78.3883 405.925 77.541C407.429 76.6937 409.123 76.27 411.009 76.27C413.059 76.27 414.891 76.7347 416.503 77.664C418.143 78.566 419.428 79.8507 420.357 81.518C421.287 83.158 421.751 85.0577 421.751 87.217C421.751 89.4037 421.287 91.317 420.357 92.957C419.428 94.597 418.143 95.8817 416.503 96.811C414.891 97.7403 413.059 98.205 411.009 98.205ZM399.898 105.954V76.475H402.686V82.953L402.399 87.258L402.809 91.604V105.954H399.898ZM410.804 95.622C412.335 95.622 413.702 95.2803 414.904 94.597C416.107 93.8863 417.064 92.9023 417.774 91.645C418.485 90.3603 418.84 88.8843 418.84 87.217C418.84 85.5497 418.485 84.0873 417.774 82.83C417.064 81.5727 416.107 80.5887 414.904 79.878C413.702 79.1673 412.335 78.812 410.804 78.812C409.274 78.812 407.893 79.1673 406.663 79.878C405.461 80.5887 404.504 81.5727 403.793 82.83C403.11 84.0873 402.768 85.5497 402.768 87.217C402.768 88.8843 403.11 90.3603 403.793 91.645C404.504 92.9023 405.461 93.8863 406.663 94.597C407.893 95.2803 409.274 95.622 410.804 95.622ZM427.685 98V67.578H430.596V98H427.685ZM452.185 98V93.244L452.062 92.465V84.511C452.062 82.6797 451.543 81.272 450.504 80.288C449.493 79.304 447.976 78.812 445.953 78.812C444.559 78.812 443.234 79.0443 441.976 79.509C440.719 79.9737 439.653 80.5887 438.778 81.354L437.466 79.181C438.56 78.2517 439.872 77.541 441.402 77.049C442.933 76.5297 444.546 76.27 446.24 76.27C449.028 76.27 451.174 76.967 452.677 78.361C454.208 79.7277 454.973 81.8187 454.973 84.634V98H452.185ZM444.764 98.205C443.152 98.205 441.744 97.9453 440.541 97.426C439.366 96.8793 438.464 96.1413 437.835 95.212C437.207 94.2553 436.892 93.162 436.892 91.932C436.892 90.8113 437.152 89.8 437.671 88.898C438.218 87.9687 439.093 87.2307 440.295 86.684C441.525 86.11 443.165 85.823 445.215 85.823H452.636V87.996H445.297C443.22 87.996 441.771 88.365 440.951 89.103C440.159 89.841 439.762 90.7567 439.762 91.85C439.762 93.08 440.241 94.064 441.197 94.802C442.154 95.54 443.493 95.909 445.215 95.909C446.855 95.909 448.263 95.54 449.438 94.802C450.641 94.0367 451.516 92.9433 452.062 91.522L452.718 93.531C452.172 94.9523 451.215 96.0867 449.848 96.934C448.509 97.7813 446.814 98.205 444.764 98.205ZM469.686 98.205C467.663 98.205 466.105 97.6583 465.012 96.565C463.918 95.4717 463.372 93.9273 463.372 91.932V71.719H466.283V91.768C466.283 93.0253 466.597 93.9957 467.226 94.679C467.882 95.3623 468.811 95.704 470.014 95.704C471.298 95.704 472.364 95.335 473.212 94.597L474.237 96.688C473.663 97.2073 472.966 97.59 472.146 97.836C471.353 98.082 470.533 98.205 469.686 98.205ZM459.518 78.894V76.475H472.843V78.894H459.518ZM487.918 98.205C485.677 98.205 483.709 97.7403 482.014 96.811C480.32 95.8543 478.994 94.556 478.037 92.916C477.081 91.2487 476.602 89.349 476.602 87.217C476.602 85.085 477.053 83.199 477.955 81.559C478.885 79.919 480.142 78.6343 481.727 77.705C483.34 76.7483 485.144 76.27 487.139 76.27C489.162 76.27 490.952 76.7347 492.51 77.664C494.096 78.566 495.339 79.8507 496.241 81.518C497.143 83.158 497.594 85.0577 497.594 87.217C497.594 87.3537 497.581 87.504 497.553 87.668C497.553 87.8047 497.553 87.955 497.553 88.119H478.816V85.946H495.995L494.847 86.807C494.847 85.249 494.506 83.8687 493.822 82.666C493.166 81.436 492.264 80.4793 491.116 79.796C489.968 79.1127 488.643 78.771 487.139 78.771C485.663 78.771 484.338 79.1127 483.162 79.796C481.987 80.4793 481.071 81.436 480.415 82.666C479.759 83.896 479.431 85.3037 479.431 86.889V87.34C479.431 88.98 479.787 90.4287 480.497 91.686C481.235 92.916 482.247 93.8863 483.531 94.597C484.843 95.2803 486.333 95.622 488 95.622C489.312 95.622 490.529 95.3897 491.649 94.925C492.797 94.4603 493.781 93.7497 494.601 92.793L496.241 94.679C495.285 95.827 494.082 96.7017 492.633 97.303C491.212 97.9043 489.64 98.205 487.918 98.205ZM517.571 83.199H532.741V85.823H517.571V83.199ZM517.899 98H514.865V69.3H534.545V71.924H517.899V98ZM540.195 98V67.578H543.106V98H540.195ZM551.37 106.159C550.359 106.159 549.388 105.995 548.459 105.667C547.557 105.339 546.778 104.847 546.122 104.191L547.475 102.018C548.022 102.537 548.609 102.934 549.238 103.207C549.894 103.508 550.618 103.658 551.411 103.658C552.368 103.658 553.188 103.385 553.871 102.838C554.582 102.319 555.251 101.389 555.88 100.05L557.274 96.893L557.602 96.442L566.458 76.475H569.328L558.545 100.583C557.944 101.977 557.274 103.084 556.536 103.904C555.825 104.724 555.046 105.298 554.199 105.626C553.352 105.981 552.409 106.159 551.37 106.159ZM557.11 98.615L547.188 76.475H550.222L558.996 96.237L557.11 98.615ZM581.97 98.205C579.729 98.205 577.761 97.7403 576.066 96.811C574.371 95.8543 573.046 94.556 572.089 92.916C571.132 91.2487 570.654 89.349 570.654 87.217C570.654 85.085 571.105 83.199 572.007 81.559C572.936 79.919 574.194 78.6343 575.779 77.705C577.392 76.7483 579.196 76.27 581.191 76.27C583.214 76.27 585.004 76.7347 586.562 77.664C588.147 78.566 589.391 79.8507 590.293 81.518C591.195 83.158 591.646 85.0577 591.646 87.217C591.646 87.3537 591.632 87.504 591.605 87.668C591.605 87.8047 591.605 87.955 591.605 88.119H572.868V85.946H590.047L588.899 86.807C588.899 85.249 588.557 83.8687 587.874 82.666C587.218 81.436 586.316 80.4793 585.168 79.796C584.02 79.1127 582.694 78.771 581.191 78.771C579.715 78.771 578.389 79.1127 577.214 79.796C576.039 80.4793 575.123 81.436 574.467 82.666C573.811 83.896 573.483 85.3037 573.483 86.889V87.34C573.483 88.98 573.838 90.4287 574.549 91.686C575.287 92.916 576.298 93.8863 577.583 94.597C578.895 95.2803 580.385 95.622 582.052 95.622C583.364 95.622 584.58 95.3897 585.701 94.925C586.849 94.4603 587.833 93.7497 588.653 92.793L590.293 94.679C589.336 95.827 588.134 96.7017 586.685 97.303C585.264 97.9043 583.692 98.205 581.97 98.205ZM597.571 98V76.475H600.359V82.338L600.072 81.313C600.674 79.673 601.685 78.4293 603.106 77.582C604.528 76.7073 606.291 76.27 608.395 76.27V79.099C608.286 79.099 608.177 79.099 608.067 79.099C607.958 79.0717 607.849 79.058 607.739 79.058C605.471 79.058 603.694 79.755 602.409 81.149C601.125 82.5157 600.482 84.47 600.482 87.012V98H597.571ZM633.286 98.246C631.154 98.246 629.104 97.9043 627.136 97.221C625.195 96.5103 623.692 95.6083 622.626 94.515L623.815 92.178C624.826 93.162 626.179 93.9957 627.874 94.679C629.596 95.335 631.4 95.663 633.286 95.663C635.09 95.663 636.552 95.4443 637.673 95.007C638.821 94.5423 639.654 93.9273 640.174 93.162C640.72 92.3967 640.994 91.5493 640.994 90.62C640.994 89.4993 640.666 88.5973 640.01 87.914C639.381 87.2307 638.547 86.6977 637.509 86.315C636.47 85.905 635.322 85.5497 634.065 85.249C632.807 84.9483 631.55 84.634 630.293 84.306C629.035 83.9507 627.874 83.486 626.808 82.912C625.769 82.338 624.922 81.5863 624.266 80.657C623.637 79.7003 623.323 78.4567 623.323 76.926C623.323 75.5047 623.692 74.2063 624.43 73.031C625.195 71.8283 626.357 70.8717 627.915 70.161C629.473 69.423 631.468 69.054 633.901 69.054C635.513 69.054 637.112 69.2863 638.698 69.751C640.283 70.1883 641.65 70.8033 642.798 71.596L641.773 74.015C640.543 73.195 639.231 72.5937 637.837 72.211C636.47 71.8283 635.144 71.637 633.86 71.637C632.138 71.637 630.716 71.8693 629.596 72.334C628.475 72.7987 627.641 73.4273 627.095 74.22C626.575 74.9853 626.316 75.86 626.316 76.844C626.316 77.9647 626.63 78.8667 627.259 79.55C627.915 80.2333 628.762 80.7663 629.801 81.149C630.867 81.5317 632.028 81.8733 633.286 82.174C634.543 82.4747 635.787 82.8027 637.017 83.158C638.274 83.5133 639.422 83.978 640.461 84.552C641.527 85.0987 642.374 85.8367 643.003 86.766C643.659 87.6953 643.987 88.9117 643.987 90.415C643.987 91.809 643.604 93.1073 642.839 94.31C642.073 95.4853 640.898 96.442 639.313 97.18C637.755 97.8907 635.746 98.246 633.286 98.246ZM661.093 98.205C659.235 98.205 657.554 97.7813 656.05 96.934C654.547 96.0593 653.344 94.8157 652.442 93.203C651.568 91.563 651.13 89.5677 651.13 87.217C651.13 84.8663 651.568 82.8847 652.442 81.272C653.317 79.632 654.506 78.3883 656.009 77.541C657.513 76.6937 659.207 76.27 661.093 76.27C663.143 76.27 664.975 76.7347 666.587 77.664C668.227 78.566 669.512 79.8507 670.441 81.518C671.371 83.158 671.835 85.0577 671.835 87.217C671.835 89.4037 671.371 91.317 670.441 92.957C669.512 94.597 668.227 95.8817 666.587 96.811C664.975 97.7403 663.143 98.205 661.093 98.205ZM649.982 105.954V76.475H652.77V82.953L652.483 87.258L652.893 91.604V105.954H649.982ZM660.888 95.622C662.419 95.622 663.786 95.2803 664.988 94.597C666.191 93.8863 667.148 92.9023 667.858 91.645C668.569 90.3603 668.924 88.8843 668.924 87.217C668.924 85.5497 668.569 84.0873 667.858 82.83C667.148 81.5727 666.191 80.5887 664.988 79.878C663.786 79.1673 662.419 78.812 660.888 78.812C659.358 78.812 657.977 79.1673 656.747 79.878C655.545 80.5887 654.588 81.5727 653.877 82.83C653.194 84.0873 652.852 85.5497 652.852 87.217C652.852 88.8843 653.194 90.3603 653.877 91.645C654.588 92.9023 655.545 93.8863 656.747 94.597C657.977 95.2803 659.358 95.622 660.888 95.622ZM686.912 98.205C684.671 98.205 682.703 97.7403 681.008 96.811C679.314 95.8543 677.988 94.556 677.031 92.916C676.075 91.2487 675.596 89.349 675.596 87.217C675.596 85.085 676.047 83.199 676.949 81.559C677.879 79.919 679.136 78.6343 680.721 77.705C682.334 76.7483 684.138 76.27 686.133 76.27C688.156 76.27 689.946 76.7347 691.504 77.664C693.09 78.566 694.333 79.8507 695.235 81.518C696.137 83.158 696.588 85.0577 696.588 87.217C696.588 87.3537 696.575 87.504 696.547 87.668C696.547 87.8047 696.547 87.955 696.547 88.119H677.81V85.946H694.989L693.841 86.807C693.841 85.249 693.5 83.8687 692.816 82.666C692.16 81.436 691.258 80.4793 690.11 79.796C688.962 79.1127 687.637 78.771 686.133 78.771C684.657 78.771 683.332 79.1127 682.156 79.796C680.981 80.4793 680.065 81.436 679.409 82.666C678.753 83.896 678.425 85.3037 678.425 86.889V87.34C678.425 88.98 678.781 90.4287 679.491 91.686C680.229 92.916 681.241 93.8863 682.525 94.597C683.837 95.2803 685.327 95.622 686.994 95.622C688.306 95.622 689.523 95.3897 690.643 94.925C691.791 94.4603 692.775 93.7497 693.595 92.793L695.235 94.679C694.279 95.827 693.076 96.7017 691.627 97.303C690.206 97.9043 688.634 98.205 686.912 98.205ZM711.657 98.205C709.415 98.205 707.447 97.7403 705.753 96.811C704.058 95.8543 702.732 94.556 701.776 92.916C700.819 91.2487 700.341 89.349 700.341 87.217C700.341 85.085 700.792 83.199 701.694 81.559C702.623 79.919 703.88 78.6343 705.466 77.705C707.078 76.7483 708.882 76.27 710.878 76.27C712.9 76.27 714.691 76.7347 716.249 77.664C717.834 78.566 719.078 79.8507 719.98 81.518C720.882 83.158 721.333 85.0577 721.333 87.217C721.333 87.3537 721.319 87.504 721.292 87.668C721.292 87.8047 721.292 87.955 721.292 88.119H702.555V85.946H719.734L718.586 86.807C718.586 85.249 718.244 83.8687 717.561 82.666C716.905 81.436 716.003 80.4793 714.855 79.796C713.707 79.1127 712.381 78.771 710.878 78.771C709.402 78.771 708.076 79.1127 706.901 79.796C705.725 80.4793 704.81 81.436 704.154 82.666C703.498 83.896 703.17 85.3037 703.17 86.889V87.34C703.17 88.98 703.525 90.4287 704.236 91.686C704.974 92.916 705.985 93.8863 707.27 94.597C708.582 95.2803 710.071 95.622 711.739 95.622C713.051 95.622 714.267 95.3897 715.388 94.925C716.536 94.4603 717.52 93.7497 718.34 92.793L719.98 94.679C719.023 95.827 717.82 96.7017 716.372 97.303C714.95 97.9043 713.379 98.205 711.657 98.205ZM736.196 98.205C734.064 98.205 732.15 97.7403 730.456 96.811C728.788 95.8543 727.476 94.556 726.52 92.916C725.563 91.2487 725.085 89.349 725.085 87.217C725.085 85.0577 725.563 83.158 726.52 81.518C727.476 79.878 728.788 78.5933 730.456 77.664C732.15 76.7347 734.064 76.27 736.196 76.27C738.027 76.27 739.681 76.6253 741.157 77.336C742.633 78.0467 743.794 79.1127 744.642 80.534L742.469 82.01C741.731 80.9167 740.815 80.1103 739.722 79.591C738.628 79.0717 737.439 78.812 736.155 78.812C734.624 78.812 733.244 79.1673 732.014 79.878C730.784 80.5613 729.813 81.5317 729.103 82.789C728.392 84.0463 728.037 85.5223 728.037 87.217C728.037 88.9117 728.392 90.3877 729.103 91.645C729.813 92.9023 730.784 93.8863 732.014 94.597C733.244 95.2803 734.624 95.622 736.155 95.622C737.439 95.622 738.628 95.3623 739.722 94.843C740.815 94.3237 741.731 93.531 742.469 92.465L744.642 93.941C743.794 95.335 742.633 96.401 741.157 97.139C739.681 97.8497 738.027 98.205 736.196 98.205ZM761.028 76.27C762.777 76.27 764.308 76.6117 765.62 77.295C766.959 77.951 767.998 78.9623 768.736 80.329C769.501 81.6957 769.884 83.4177 769.884 85.495V98H766.973V85.782C766.973 83.5133 766.399 81.805 765.251 80.657C764.13 79.4817 762.545 78.894 760.495 78.894C758.964 78.894 757.625 79.2083 756.477 79.837C755.356 80.4383 754.482 81.3267 753.853 82.502C753.252 83.65 752.951 85.044 752.951 86.684V98H750.04V67.578H752.951V82.379L752.377 81.272C753.06 79.714 754.154 78.4977 755.657 77.623C757.16 76.721 758.951 76.27 761.028 76.27ZM405.802 123.133H420.972V125.716H405.802V123.133ZM406.13 136.376H423.391V139H403.096V110.3H422.776V112.924H406.13V136.376ZM435.002 139L425.449 117.475H428.483L437.257 137.442H435.822L444.719 117.475H447.589L437.995 139H435.002ZM460.231 139.205C457.99 139.205 456.022 138.74 454.327 137.811C452.633 136.854 451.307 135.556 450.35 133.916C449.394 132.249 448.915 130.349 448.915 128.217C448.915 126.085 449.366 124.199 450.268 122.559C451.198 120.919 452.455 119.634 454.04 118.705C455.653 117.748 457.457 117.27 459.452 117.27C461.475 117.27 463.265 117.735 464.823 118.664C466.409 119.566 467.652 120.851 468.554 122.518C469.456 124.158 469.907 126.058 469.907 128.217C469.907 128.354 469.894 128.504 469.866 128.668C469.866 128.805 469.866 128.955 469.866 129.119H451.129V126.946H468.308L467.16 127.807C467.16 126.249 466.819 124.869 466.135 123.666C465.479 122.436 464.577 121.479 463.429 120.796C462.281 120.113 460.956 119.771 459.452 119.771C457.976 119.771 456.651 120.113 455.475 120.796C454.3 121.479 453.384 122.436 452.728 123.666C452.072 124.896 451.744 126.304 451.744 127.889V128.34C451.744 129.98 452.1 131.429 452.81 132.686C453.548 133.916 454.56 134.886 455.844 135.597C457.156 136.28 458.646 136.622 460.313 136.622C461.625 136.622 462.842 136.39 463.962 135.925C465.11 135.46 466.094 134.75 466.914 133.793L468.554 135.679C467.598 136.827 466.395 137.702 464.946 138.303C463.525 138.904 461.953 139.205 460.231 139.205ZM486.82 117.27C488.57 117.27 490.1 117.612 491.412 118.295C492.752 118.951 493.79 119.962 494.528 121.329C495.294 122.696 495.676 124.418 495.676 126.495V139H492.765V126.782C492.765 124.513 492.191 122.805 491.043 121.657C489.923 120.482 488.337 119.894 486.287 119.894C484.757 119.894 483.417 120.208 482.269 120.837C481.149 121.438 480.274 122.327 479.645 123.502C479.044 124.65 478.743 126.044 478.743 127.684V139H475.832V117.475H478.62V123.379L478.169 122.272C478.853 120.714 479.946 119.498 481.449 118.623C482.953 117.721 484.743 117.27 486.82 117.27ZM510.345 139.205C508.323 139.205 506.765 138.658 505.671 137.565C504.578 136.472 504.031 134.927 504.031 132.932V112.719H506.942V132.768C506.942 134.025 507.257 134.996 507.885 135.679C508.541 136.362 509.471 136.704 510.673 136.704C511.958 136.704 513.024 136.335 513.871 135.597L514.896 137.688C514.322 138.207 513.625 138.59 512.805 138.836C512.013 139.082 511.193 139.205 510.345 139.205ZM500.177 119.894V117.475H513.502V119.894H500.177ZM531.541 139V110.3H542.283C544.716 110.3 546.807 110.696 548.556 111.489C550.306 112.254 551.645 113.375 552.574 114.851C553.531 116.3 554.009 118.063 554.009 120.14C554.009 122.163 553.531 123.912 552.574 125.388C551.645 126.837 550.306 127.957 548.556 128.75C546.807 129.543 544.716 129.939 542.283 129.939H533.222L534.575 128.504V139H531.541ZM534.575 128.75L533.222 127.274H542.201C545.071 127.274 547.244 126.659 548.72 125.429C550.224 124.172 550.975 122.409 550.975 120.14C550.975 117.844 550.224 116.067 548.72 114.81C547.244 113.553 545.071 112.924 542.201 112.924H533.222L534.575 111.489V128.75ZM568.608 139.205C566.531 139.205 564.659 138.74 562.991 137.811C561.351 136.854 560.053 135.556 559.096 133.916C558.14 132.249 557.661 130.349 557.661 128.217C557.661 126.058 558.14 124.158 559.096 122.518C560.053 120.878 561.351 119.593 562.991 118.664C564.631 117.735 566.504 117.27 568.608 117.27C570.74 117.27 572.626 117.735 574.266 118.664C575.934 119.593 577.232 120.878 578.161 122.518C579.118 124.158 579.596 126.058 579.596 128.217C579.596 130.349 579.118 132.249 578.161 133.916C577.232 135.556 575.934 136.854 574.266 137.811C572.599 138.74 570.713 139.205 568.608 139.205ZM568.608 136.622C570.166 136.622 571.547 136.28 572.749 135.597C573.952 134.886 574.895 133.902 575.578 132.645C576.289 131.36 576.644 129.884 576.644 128.217C576.644 126.522 576.289 125.046 575.578 123.789C574.895 122.532 573.952 121.561 572.749 120.878C571.547 120.167 570.18 119.812 568.649 119.812C567.119 119.812 565.752 120.167 564.549 120.878C563.347 121.561 562.39 122.532 561.679 123.789C560.969 125.046 560.613 126.522 560.613 128.217C560.613 129.884 560.969 131.36 561.679 132.645C562.39 133.902 563.347 134.886 564.549 135.597C565.752 136.28 567.105 136.622 568.608 136.622ZM585.539 139V117.475H588.327V123.338L588.04 122.313C588.642 120.673 589.653 119.429 591.074 118.582C592.496 117.707 594.259 117.27 596.363 117.27V120.099C596.254 120.099 596.145 120.099 596.035 120.099C595.926 120.072 595.817 120.058 595.707 120.058C593.439 120.058 591.662 120.755 590.377 122.149C589.093 123.516 588.45 125.47 588.45 128.012V139H585.539ZM609.402 139.205C607.379 139.205 605.821 138.658 604.728 137.565C603.635 136.472 603.088 134.927 603.088 132.932V112.719H605.999V132.768C605.999 134.025 606.313 134.996 606.942 135.679C607.598 136.362 608.527 136.704 609.73 136.704C611.015 136.704 612.081 136.335 612.928 135.597L613.953 137.688C613.379 138.207 612.682 138.59 611.862 138.836C611.069 139.082 610.249 139.205 609.402 139.205ZM599.234 119.894V117.475H612.559V119.894H599.234ZM619.252 139V117.475H622.04V123.338L621.753 122.313C622.355 120.673 623.366 119.429 624.787 118.582C626.209 117.707 627.972 117.27 630.076 117.27V120.099C629.967 120.099 629.858 120.099 629.748 120.099C629.639 120.072 629.53 120.058 629.42 120.058C627.152 120.058 625.375 120.755 624.09 122.149C622.806 123.516 622.163 125.47 622.163 128.012V139H619.252ZM647.276 139V134.244L647.153 133.465V125.511C647.153 123.68 646.633 122.272 645.595 121.288C644.583 120.304 643.066 119.812 641.044 119.812C639.65 119.812 638.324 120.044 637.067 120.509C635.809 120.974 634.743 121.589 633.869 122.354L632.557 120.181C633.65 119.252 634.962 118.541 636.493 118.049C638.023 117.53 639.636 117.27 641.331 117.27C644.119 117.27 646.264 117.967 647.768 119.361C649.298 120.728 650.064 122.819 650.064 125.634V139H647.276ZM639.855 139.205C638.242 139.205 636.834 138.945 635.632 138.426C634.456 137.879 633.554 137.141 632.926 136.212C632.297 135.255 631.983 134.162 631.983 132.932C631.983 131.811 632.242 130.8 632.762 129.898C633.308 128.969 634.183 128.231 635.386 127.684C636.616 127.11 638.256 126.823 640.306 126.823H647.727V128.996H640.388C638.31 128.996 636.862 129.365 636.042 130.103C635.249 130.841 634.853 131.757 634.853 132.85C634.853 134.08 635.331 135.064 636.288 135.802C637.244 136.54 638.584 136.909 640.306 136.909C641.946 136.909 643.353 136.54 644.529 135.802C645.731 135.037 646.606 133.943 647.153 132.522L647.809 134.531C647.262 135.952 646.305 137.087 644.939 137.934C643.599 138.781 641.905 139.205 639.855 139.205ZM657.97 139V117.475H660.881V139H657.97ZM659.446 112.719C658.845 112.719 658.339 112.514 657.929 112.104C657.519 111.694 657.314 111.202 657.314 110.628C657.314 110.054 657.519 109.576 657.929 109.193C658.339 108.783 658.845 108.578 659.446 108.578C660.047 108.578 660.553 108.769 660.963 109.152C661.373 109.535 661.578 110.013 661.578 110.587C661.578 111.188 661.373 111.694 660.963 112.104C660.58 112.514 660.075 112.719 659.446 112.719ZM675.787 139.205C673.764 139.205 672.206 138.658 671.113 137.565C670.02 136.472 669.473 134.927 669.473 132.932V112.719H672.384V132.768C672.384 134.025 672.698 134.996 673.327 135.679C673.983 136.362 674.912 136.704 676.115 136.704C677.4 136.704 678.466 136.335 679.313 135.597L680.338 137.688C679.764 138.207 679.067 138.59 678.247 138.836C677.454 139.082 676.634 139.205 675.787 139.205ZM665.619 119.894V117.475H678.944V119.894H665.619Z" fill="white"/>
</svg>
