<svg width="858" height="228" viewBox="0 0 858 228" fill="none" xmlns="http://www.w3.org/2000/svg">
<rect x="2" y="2" width="87" height="86" fill="#343434" stroke="#343434" stroke-width="4"/>
<rect width="419" height="86" transform="matrix(-1 0 0 1 508 2)" fill="#343434" stroke="#343434" stroke-width="4"/>
<rect x="508" y="2" width="348" height="86" fill="#343434" stroke="#343434" stroke-width="4"/>
<path d="M13.32 58V30H18.68L35.2 50.16H32.6V30H39V58H33.68L17.12 37.84H19.72V58H13.32ZM55.4247 58.32C53.1314 58.32 51.0914 57.84 49.3047 56.88C47.5447 55.92 46.1447 54.6133 45.1047 52.96C44.0914 51.28 43.5847 49.3733 43.5847 47.24C43.5847 45.08 44.0914 43.1733 45.1047 41.52C46.1447 39.84 47.5447 38.5333 49.3047 37.6C51.0914 36.64 53.1314 36.16 55.4247 36.16C57.6914 36.16 59.718 36.64 61.5047 37.6C63.2914 38.5333 64.6914 39.8267 65.7047 41.48C66.718 43.1333 67.2247 45.0533 67.2247 47.24C67.2247 49.3733 66.718 51.28 65.7047 52.96C64.6914 54.6133 63.2914 55.92 61.5047 56.88C59.718 57.84 57.6914 58.32 55.4247 58.32ZM55.4247 53.2C56.4647 53.2 57.398 52.96 58.2247 52.48C59.0514 52 59.7047 51.32 60.1847 50.44C60.6647 49.5333 60.9047 48.4667 60.9047 47.24C60.9047 45.9867 60.6647 44.92 60.1847 44.04C59.7047 43.16 59.0514 42.48 58.2247 42C57.398 41.52 56.4647 41.28 55.4247 41.28C54.3847 41.28 53.4514 41.52 52.6247 42C51.798 42.48 51.1314 43.16 50.6247 44.04C50.1447 44.92 49.9047 45.9867 49.9047 47.24C49.9047 48.4667 50.1447 49.5333 50.6247 50.44C51.1314 51.32 51.798 52 52.6247 52.48C53.4514 52.96 54.3847 53.2 55.4247 53.2ZM73.5213 58.32C72.4546 58.32 71.5346 57.96 70.7613 57.24C70.0146 56.4933 69.6413 55.5467 69.6413 54.4C69.6413 53.2533 70.0146 52.3333 70.7613 51.64C71.5346 50.92 72.4546 50.56 73.5213 50.56C74.6146 50.56 75.5346 50.92 76.2813 51.64C77.0279 52.3333 77.4013 53.2533 77.4013 54.4C77.4013 55.5467 77.0279 56.4933 76.2813 57.24C75.5346 57.96 74.6146 58.32 73.5213 58.32Z" fill="white"/>
<path d="M106.32 58V30H111.68L128.2 50.16H125.6V30H132V58H126.68L110.12 37.84H112.72V58H106.32ZM151.385 58V53.8L150.985 52.88V45.36C150.985 44.0267 150.571 42.9867 149.745 42.24C148.945 41.4933 147.705 41.12 146.025 41.12C144.878 41.12 143.745 41.3067 142.625 41.68C141.531 42.0267 140.598 42.5067 139.825 43.12L137.585 38.76C138.758 37.9333 140.171 37.2933 141.825 36.84C143.478 36.3867 145.158 36.16 146.865 36.16C150.145 36.16 152.691 36.9333 154.505 38.48C156.318 40.0267 157.225 42.44 157.225 45.72V58H151.385ZM144.825 58.32C143.145 58.32 141.705 58.04 140.505 57.48C139.305 56.8933 138.385 56.1067 137.745 55.12C137.105 54.1333 136.785 53.0267 136.785 51.8C136.785 50.52 137.091 49.4 137.705 48.44C138.345 47.48 139.345 46.7333 140.705 46.2C142.065 45.64 143.838 45.36 146.025 45.36H151.745V49H146.705C145.238 49 144.225 49.24 143.665 49.72C143.131 50.2 142.865 50.8 142.865 51.52C142.865 52.32 143.171 52.96 143.785 53.44C144.425 53.8933 145.291 54.12 146.385 54.12C147.425 54.12 148.358 53.88 149.185 53.4C150.011 52.8933 150.611 52.16 150.985 51.2L151.945 54.08C151.491 55.4667 150.665 56.52 149.465 57.24C148.265 57.96 146.718 58.32 144.825 58.32ZM190.432 36.16C192.139 36.16 193.646 36.5067 194.952 37.2C196.286 37.8667 197.326 38.9067 198.072 40.32C198.846 41.7067 199.232 43.4933 199.232 45.68V58H192.992V46.64C192.992 44.9067 192.632 43.6267 191.912 42.8C191.192 41.9733 190.179 41.56 188.872 41.56C187.966 41.56 187.152 41.7733 186.432 42.2C185.712 42.6 185.152 43.2133 184.752 44.04C184.352 44.8667 184.152 45.92 184.152 47.2V58H177.912V46.64C177.912 44.9067 177.552 43.6267 176.832 42.8C176.139 41.9733 175.139 41.56 173.832 41.56C172.926 41.56 172.112 41.7733 171.392 42.2C170.672 42.6 170.112 43.2133 169.712 44.04C169.312 44.8667 169.112 45.92 169.112 47.2V58H162.872V36.48H168.832V42.36L167.712 40.64C168.459 39.1733 169.512 38.0667 170.872 37.32C172.259 36.5467 173.832 36.16 175.592 36.16C177.566 36.16 179.286 36.6667 180.752 37.68C182.246 38.6667 183.232 40.1867 183.712 42.24L181.512 41.64C182.232 39.96 183.379 38.6267 184.952 37.64C186.552 36.6533 188.379 36.16 190.432 36.16ZM218.025 58V53.8L217.625 52.88V45.36C217.625 44.0267 217.212 42.9867 216.385 42.24C215.585 41.4933 214.345 41.12 212.665 41.12C211.519 41.12 210.385 41.3067 209.265 41.68C208.172 42.0267 207.239 42.5067 206.465 43.12L204.225 38.76C205.399 37.9333 206.812 37.2933 208.465 36.84C210.119 36.3867 211.799 36.16 213.505 36.16C216.785 36.16 219.332 36.9333 221.145 38.48C222.959 40.0267 223.865 42.44 223.865 45.72V58H218.025ZM211.465 58.32C209.785 58.32 208.345 58.04 207.145 57.48C205.945 56.8933 205.025 56.1067 204.385 55.12C203.745 54.1333 203.425 53.0267 203.425 51.8C203.425 50.52 203.732 49.4 204.345 48.44C204.985 47.48 205.985 46.7333 207.345 46.2C208.705 45.64 210.479 45.36 212.665 45.36H218.385V49H213.345C211.879 49 210.865 49.24 210.305 49.72C209.772 50.2 209.505 50.8 209.505 51.52C209.505 52.32 209.812 52.96 210.425 53.44C211.065 53.8933 211.932 54.12 213.025 54.12C214.065 54.12 214.999 53.88 215.825 53.4C216.652 52.8933 217.252 52.16 217.625 51.2L218.585 54.08C218.132 55.4667 217.305 56.52 216.105 57.24C214.905 57.96 213.359 58.32 211.465 58.32ZM241.281 58V30H247.761V52.72H261.801V58H241.281ZM278.338 58V53.8L277.938 52.88V45.36C277.938 44.0267 277.524 42.9867 276.698 42.24C275.898 41.4933 274.658 41.12 272.978 41.12C271.831 41.12 270.698 41.3067 269.578 41.68C268.484 42.0267 267.551 42.5067 266.778 43.12L264.538 38.76C265.711 37.9333 267.124 37.2933 268.778 36.84C270.431 36.3867 272.111 36.16 273.818 36.16C277.098 36.16 279.644 36.9333 281.458 38.48C283.271 40.0267 284.178 42.44 284.178 45.72V58H278.338ZM271.778 58.32C270.098 58.32 268.658 58.04 267.458 57.48C266.258 56.8933 265.338 56.1067 264.698 55.12C264.058 54.1333 263.738 53.0267 263.738 51.8C263.738 50.52 264.044 49.4 264.658 48.44C265.298 47.48 266.298 46.7333 267.658 46.2C269.018 45.64 270.791 45.36 272.978 45.36H278.698V49H273.658C272.191 49 271.178 49.24 270.618 49.72C270.084 50.2 269.818 50.8 269.818 51.52C269.818 52.32 270.124 52.96 270.738 53.44C271.378 53.8933 272.244 54.12 273.338 54.12C274.378 54.12 275.311 53.88 276.138 53.4C276.964 52.8933 277.564 52.16 277.938 51.2L278.898 54.08C278.444 55.4667 277.618 56.52 276.418 57.24C275.218 57.96 273.671 58.32 271.778 58.32ZM292.155 66.08C291.035 66.08 289.928 65.9067 288.835 65.56C287.741 65.2133 286.848 64.7333 286.155 64.12L288.435 59.68C288.915 60.1067 289.461 60.44 290.075 60.68C290.715 60.92 291.341 61.04 291.955 61.04C292.835 61.04 293.528 60.8267 294.035 60.4C294.568 60 295.048 59.32 295.475 58.36L296.595 55.72L297.075 55.04L304.795 36.48H310.795L301.075 59.32C300.381 61.0533 299.581 62.4133 298.675 63.4C297.795 64.3867 296.808 65.08 295.715 65.48C294.648 65.88 293.461 66.08 292.155 66.08ZM295.835 58.84L286.235 36.48H292.675L300.115 54.48L295.835 58.84ZM325.838 58V53.8L325.438 52.88V45.36C325.438 44.0267 325.024 42.9867 324.198 42.24C323.398 41.4933 322.158 41.12 320.478 41.12C319.331 41.12 318.198 41.3067 317.078 41.68C315.984 42.0267 315.051 42.5067 314.278 43.12L312.038 38.76C313.211 37.9333 314.624 37.2933 316.278 36.84C317.931 36.3867 319.611 36.16 321.318 36.16C324.598 36.16 327.144 36.9333 328.958 38.48C330.771 40.0267 331.678 42.44 331.678 45.72V58H325.838ZM319.278 58.32C317.598 58.32 316.158 58.04 314.958 57.48C313.758 56.8933 312.838 56.1067 312.198 55.12C311.558 54.1333 311.238 53.0267 311.238 51.8C311.238 50.52 311.544 49.4 312.158 48.44C312.798 47.48 313.798 46.7333 315.158 46.2C316.518 45.64 318.291 45.36 320.478 45.36H326.198V49H321.158C319.691 49 318.678 49.24 318.118 49.72C317.584 50.2 317.318 50.8 317.318 51.52C317.318 52.32 317.624 52.96 318.238 53.44C318.878 53.8933 319.744 54.12 320.838 54.12C321.878 54.12 322.811 53.88 323.638 53.4C324.464 52.8933 325.064 52.16 325.438 51.2L326.398 54.08C325.944 55.4667 325.118 56.52 323.918 57.24C322.718 57.96 321.171 58.32 319.278 58.32ZM350.405 36.16C352.112 36.16 353.632 36.5067 354.965 37.2C356.325 37.8667 357.392 38.9067 358.165 40.32C358.939 41.7067 359.325 43.4933 359.325 45.68V58H353.085V46.64C353.085 44.9067 352.699 43.6267 351.925 42.8C351.179 41.9733 350.112 41.56 348.725 41.56C347.739 41.56 346.845 41.7733 346.045 42.2C345.272 42.6 344.659 43.2267 344.205 44.08C343.779 44.9333 343.565 46.0267 343.565 47.36V58H337.325V36.48H343.285V42.44L342.165 40.64C342.939 39.2 344.045 38.0933 345.485 37.32C346.925 36.5467 348.565 36.16 350.405 36.16ZM378.182 58V53.8L377.782 52.88V45.36C377.782 44.0267 377.368 42.9867 376.542 42.24C375.742 41.4933 374.502 41.12 372.822 41.12C371.675 41.12 370.542 41.3067 369.422 41.68C368.328 42.0267 367.395 42.5067 366.622 43.12L364.382 38.76C365.555 37.9333 366.968 37.2933 368.622 36.84C370.275 36.3867 371.955 36.16 373.662 36.16C376.942 36.16 379.488 36.9333 381.302 38.48C383.115 40.0267 384.022 42.44 384.022 45.72V58H378.182ZM371.622 58.32C369.942 58.32 368.502 58.04 367.302 57.48C366.102 56.8933 365.182 56.1067 364.542 55.12C363.902 54.1333 363.582 53.0267 363.582 51.8C363.582 50.52 363.888 49.4 364.502 48.44C365.142 47.48 366.142 46.7333 367.502 46.2C368.862 45.64 370.635 45.36 372.822 45.36H378.542V49H373.502C372.035 49 371.022 49.24 370.462 49.72C369.928 50.2 369.662 50.8 369.662 51.52C369.662 52.32 369.968 52.96 370.582 53.44C371.222 53.8933 372.088 54.12 373.182 54.12C374.222 54.12 375.155 53.88 375.982 53.4C376.808 52.8933 377.408 52.16 377.782 51.2L378.742 54.08C378.288 55.4667 377.462 56.52 376.262 57.24C375.062 57.96 373.515 58.32 371.622 58.32ZM402.749 36.16C404.456 36.16 405.976 36.5067 407.309 37.2C408.669 37.8667 409.736 38.9067 410.509 40.32C411.282 41.7067 411.669 43.4933 411.669 45.68V58H405.429V46.64C405.429 44.9067 405.042 43.6267 404.269 42.8C403.522 41.9733 402.456 41.56 401.069 41.56C400.082 41.56 399.189 41.7733 398.389 42.2C397.616 42.6 397.002 43.2267 396.549 44.08C396.122 44.9333 395.909 46.0267 395.909 47.36V58H389.669V36.48H395.629V42.44L394.509 40.64C395.282 39.2 396.389 38.0933 397.829 37.32C399.269 36.5467 400.909 36.16 402.749 36.16Z" fill="white"/>
<path d="M524.32 58V30H538C541.52 30 544.16 30.6667 545.92 32C547.707 33.3333 548.6 35.0933 548.6 37.28C548.6 38.7467 548.24 40.0267 547.52 41.12C546.8 42.1867 545.813 43.0133 544.56 43.6C543.307 44.1867 541.867 44.48 540.24 44.48L541 42.84C542.76 42.84 544.32 43.1333 545.68 43.72C547.04 44.28 548.093 45.12 548.84 46.24C549.613 47.36 550 48.7333 550 50.36C550 52.76 549.053 54.64 547.16 56C545.267 57.3333 542.48 58 538.8 58H524.32ZM530.76 53.12H538.32C540 53.12 541.267 52.8533 542.12 52.32C543 51.76 543.44 50.88 543.44 49.68C543.44 48.5067 543 47.64 542.12 47.08C541.267 46.4933 540 46.2 538.32 46.2H530.28V41.48H537.2C538.773 41.48 539.973 41.2133 540.8 40.68C541.653 40.12 542.08 39.28 542.08 38.16C542.08 37.0667 541.653 36.2533 540.8 35.72C539.973 35.16 538.773 34.88 537.2 34.88H530.76V53.12ZM554.466 58V36.48H560.706V58H554.466ZM557.586 33.48C556.439 33.48 555.506 33.1467 554.786 32.48C554.066 31.8133 553.706 30.9867 553.706 30C553.706 29.0133 554.066 28.1867 554.786 27.52C555.506 26.8533 556.439 26.52 557.586 26.52C558.733 26.52 559.666 26.84 560.386 27.48C561.106 28.0933 561.466 28.8933 561.466 29.88C561.466 30.92 561.106 31.7867 560.386 32.48C559.693 33.1467 558.759 33.48 557.586 33.48ZM579.697 58V53.8L579.297 52.88V45.36C579.297 44.0267 578.884 42.9867 578.057 42.24C577.257 41.4933 576.017 41.12 574.337 41.12C573.191 41.12 572.057 41.3067 570.937 41.68C569.844 42.0267 568.911 42.5067 568.137 43.12L565.897 38.76C567.071 37.9333 568.484 37.2933 570.137 36.84C571.791 36.3867 573.471 36.16 575.177 36.16C578.457 36.16 581.004 36.9333 582.817 38.48C584.631 40.0267 585.537 42.44 585.537 45.72V58H579.697ZM573.137 58.32C571.457 58.32 570.017 58.04 568.817 57.48C567.617 56.8933 566.697 56.1067 566.057 55.12C565.417 54.1333 565.097 53.0267 565.097 51.8C565.097 50.52 565.404 49.4 566.017 48.44C566.657 47.48 567.657 46.7333 569.017 46.2C570.377 45.64 572.151 45.36 574.337 45.36H580.057V49H575.017C573.551 49 572.537 49.24 571.977 49.72C571.444 50.2 571.177 50.8 571.177 51.52C571.177 52.32 571.484 52.96 572.097 53.44C572.737 53.8933 573.604 54.12 574.697 54.12C575.737 54.12 576.671 53.88 577.497 53.4C578.324 52.8933 578.924 52.16 579.297 51.2L580.257 54.08C579.804 55.4667 578.977 56.52 577.777 57.24C576.577 57.96 575.031 58.32 573.137 58.32ZM593.514 66.08C592.394 66.08 591.287 65.9067 590.194 65.56C589.101 65.2133 588.207 64.7333 587.514 64.12L589.794 59.68C590.274 60.1067 590.821 60.44 591.434 60.68C592.074 60.92 592.701 61.04 593.314 61.04C594.194 61.04 594.887 60.8267 595.394 60.4C595.927 60 596.407 59.32 596.834 58.36L597.954 55.72L598.434 55.04L606.154 36.48H612.154L602.434 59.32C601.741 61.0533 600.941 62.4133 600.034 63.4C599.154 64.3867 598.167 65.08 597.074 65.48C596.007 65.88 594.821 66.08 593.514 66.08ZM597.194 58.84L587.594 36.48H594.034L601.474 54.48L597.194 58.84ZM627.197 58V53.8L626.797 52.88V45.36C626.797 44.0267 626.384 42.9867 625.557 42.24C624.757 41.4933 623.517 41.12 621.837 41.12C620.691 41.12 619.557 41.3067 618.437 41.68C617.344 42.0267 616.411 42.5067 615.637 43.12L613.397 38.76C614.571 37.9333 615.984 37.2933 617.637 36.84C619.291 36.3867 620.971 36.16 622.677 36.16C625.957 36.16 628.504 36.9333 630.317 38.48C632.131 40.0267 633.037 42.44 633.037 45.72V58H627.197ZM620.637 58.32C618.957 58.32 617.517 58.04 616.317 57.48C615.117 56.8933 614.197 56.1067 613.557 55.12C612.917 54.1333 612.597 53.0267 612.597 51.8C612.597 50.52 612.904 49.4 613.517 48.44C614.157 47.48 615.157 46.7333 616.517 46.2C617.877 45.64 619.651 45.36 621.837 45.36H627.557V49H622.517C621.051 49 620.037 49.24 619.477 49.72C618.944 50.2 618.677 50.8 618.677 51.52C618.677 52.32 618.984 52.96 619.597 53.44C620.237 53.8933 621.104 54.12 622.197 54.12C623.237 54.12 624.171 53.88 624.997 53.4C625.824 52.8933 626.424 52.16 626.797 51.2L627.757 54.08C627.304 55.4667 626.477 56.52 625.277 57.24C624.077 57.96 622.531 58.32 620.637 58.32Z" fill="white"/>
<rect x="2" y="88" width="87" height="69" stroke="#343434" stroke-width="4"/>
<rect x="2" y="157" width="87" height="69" stroke="#343434" stroke-width="4"/>
<rect x="89" y="88" width="419" height="69" stroke="#343434" stroke-width="4"/>
<rect x="89" y="157" width="419" height="69" stroke="#343434" stroke-width="4"/>
<rect x="508" y="88" width="348" height="69" stroke="#343434" stroke-width="4"/>
<rect x="508" y="157" width="348" height="69" stroke="#343434" stroke-width="4"/>
<path d="M107.56 136V108H110L122.8 129.84H121.52L134.2 108H136.64V136H133.8V112.44H134.48L122.8 132.44H121.4L109.64 112.44H110.4V136H107.56ZM153.723 136.2C151.696 136.2 149.87 135.747 148.243 134.84C146.643 133.907 145.376 132.64 144.443 131.04C143.51 129.413 143.043 127.56 143.043 125.48C143.043 123.373 143.51 121.52 144.443 119.92C145.376 118.32 146.643 117.067 148.243 116.16C149.843 115.253 151.67 114.8 153.723 114.8C155.803 114.8 157.643 115.253 159.243 116.16C160.87 117.067 162.136 118.32 163.043 119.92C163.976 121.52 164.443 123.373 164.443 125.48C164.443 127.56 163.976 129.413 163.043 131.04C162.136 132.64 160.87 133.907 159.243 134.84C157.616 135.747 155.776 136.2 153.723 136.2ZM153.723 133.68C155.243 133.68 156.59 133.347 157.763 132.68C158.936 131.987 159.856 131.027 160.523 129.8C161.216 128.547 161.563 127.107 161.563 125.48C161.563 123.827 161.216 122.387 160.523 121.16C159.856 119.933 158.936 118.987 157.763 118.32C156.59 117.627 155.256 117.28 153.763 117.28C152.27 117.28 150.936 117.627 149.763 118.32C148.59 118.987 147.656 119.933 146.963 121.16C146.27 122.387 145.923 123.827 145.923 125.48C145.923 127.107 146.27 128.547 146.963 129.8C147.656 131.027 148.59 131.987 149.763 132.68C150.936 133.347 152.256 133.68 153.723 133.68ZM178.961 136.2C176.881 136.2 175.015 135.747 173.361 134.84C171.735 133.907 170.455 132.64 169.521 131.04C168.588 129.413 168.121 127.56 168.121 125.48C168.121 123.373 168.588 121.52 169.521 119.92C170.455 118.32 171.735 117.067 173.361 116.16C175.015 115.253 176.881 114.8 178.961 114.8C180.748 114.8 182.361 115.147 183.801 115.84C185.241 116.533 186.375 117.573 187.201 118.96L185.081 120.4C184.361 119.333 183.468 118.547 182.401 118.04C181.335 117.533 180.175 117.28 178.921 117.28C177.428 117.28 176.081 117.627 174.881 118.32C173.681 118.987 172.735 119.933 172.041 121.16C171.348 122.387 171.001 123.827 171.001 125.48C171.001 127.133 171.348 128.573 172.041 129.8C172.735 131.027 173.681 131.987 174.881 132.68C176.081 133.347 177.428 133.68 178.921 133.68C180.175 133.68 181.335 133.427 182.401 132.92C183.468 132.413 184.361 131.64 185.081 130.6L187.201 132.04C186.375 133.4 185.241 134.44 183.801 135.16C182.361 135.853 180.748 136.2 178.961 136.2ZM194.708 130.56L194.788 126.92L207.868 115H211.348L202.108 123.84L200.508 125.2L194.708 130.56ZM192.468 136V106.32H195.308V136H192.468ZM208.748 136L199.988 125.08L201.828 122.88L212.228 136H208.748ZM224.781 136.2C222.994 136.2 221.434 135.867 220.101 135.2C218.767 134.533 217.727 133.533 216.981 132.2C216.261 130.867 215.901 129.2 215.901 127.2V115H218.741V126.88C218.741 129.12 219.287 130.813 220.381 131.96C221.501 133.08 223.061 133.64 225.061 133.64C226.527 133.64 227.794 133.347 228.861 132.76C229.954 132.147 230.781 131.267 231.341 130.12C231.927 128.973 232.221 127.6 232.221 126V115H235.061V136H232.341V130.24L232.781 131.28C232.114 132.827 231.074 134.04 229.661 134.92C228.274 135.773 226.647 136.2 224.781 136.2ZM253.816 136.2C252.002 136.2 250.362 135.787 248.896 134.96C247.429 134.107 246.256 132.893 245.376 131.32C244.522 129.72 244.096 127.773 244.096 125.48C244.096 123.187 244.522 121.253 245.376 119.68C246.229 118.08 247.389 116.867 248.856 116.04C250.322 115.213 251.976 114.8 253.816 114.8C255.816 114.8 257.602 115.253 259.176 116.16C260.776 117.04 262.029 118.293 262.936 119.92C263.842 121.52 264.296 123.373 264.296 125.48C264.296 127.613 263.842 129.48 262.936 131.08C262.029 132.68 260.776 133.933 259.176 134.84C257.602 135.747 255.816 136.2 253.816 136.2ZM242.976 143.76V115H245.696V121.32L245.416 125.52L245.816 129.76V143.76H242.976ZM253.616 133.68C255.109 133.68 256.442 133.347 257.616 132.68C258.789 131.987 259.722 131.027 260.416 129.8C261.109 128.547 261.456 127.107 261.456 125.48C261.456 123.853 261.109 122.427 260.416 121.2C259.722 119.973 258.789 119.013 257.616 118.32C256.442 117.627 255.109 117.28 253.616 117.28C252.122 117.28 250.776 117.627 249.576 118.32C248.402 119.013 247.469 119.973 246.776 121.2C246.109 122.427 245.776 123.853 245.776 125.48C245.776 127.107 246.109 128.547 246.776 129.8C247.469 131.027 248.402 131.987 249.576 132.68C250.776 133.347 252.122 133.68 253.616 133.68ZM286.594 136V110.56H276.754V108H299.394V110.56H289.554V136H286.594ZM310.255 136.2C308.068 136.2 306.148 135.747 304.495 134.84C302.842 133.907 301.548 132.64 300.615 131.04C299.682 129.413 299.215 127.56 299.215 125.48C299.215 123.4 299.655 121.56 300.535 119.96C301.442 118.36 302.668 117.107 304.215 116.2C305.788 115.267 307.548 114.8 309.495 114.8C311.468 114.8 313.215 115.253 314.735 116.16C316.282 117.04 317.495 118.293 318.375 119.92C319.255 121.52 319.695 123.373 319.695 125.48C319.695 125.613 319.682 125.76 319.655 125.92C319.655 126.053 319.655 126.2 319.655 126.36H301.375V124.24H318.135L317.015 125.08C317.015 123.56 316.682 122.213 316.015 121.04C315.375 119.84 314.495 118.907 313.375 118.24C312.255 117.573 310.962 117.24 309.495 117.24C308.055 117.24 306.762 117.573 305.615 118.24C304.468 118.907 303.575 119.84 302.935 121.04C302.295 122.24 301.975 123.613 301.975 125.16V125.6C301.975 127.2 302.322 128.613 303.015 129.84C303.735 131.04 304.722 131.987 305.975 132.68C307.255 133.347 308.708 133.68 310.335 133.68C311.615 133.68 312.802 133.453 313.895 133C315.015 132.547 315.975 131.853 316.775 130.92L318.375 132.76C317.442 133.88 316.268 134.733 314.855 135.32C313.468 135.907 311.935 136.2 310.255 136.2ZM351.716 114.8C353.422 114.8 354.902 115.133 356.156 115.8C357.436 116.44 358.422 117.427 359.116 118.76C359.836 120.093 360.196 121.773 360.196 123.8V136H357.356V124.08C357.356 121.867 356.822 120.2 355.756 119.08C354.716 117.933 353.236 117.36 351.316 117.36C349.876 117.36 348.622 117.667 347.556 118.28C346.516 118.867 345.702 119.733 345.116 120.88C344.556 122 344.276 123.36 344.276 124.96V136H341.436V124.08C341.436 121.867 340.902 120.2 339.836 119.08C338.769 117.933 337.276 117.36 335.356 117.36C333.942 117.36 332.702 117.667 331.636 118.28C330.569 118.867 329.742 119.733 329.156 120.88C328.596 122 328.316 123.36 328.316 124.96V136H325.476V115H328.196V120.68L327.756 119.68C328.396 118.16 329.422 116.973 330.836 116.12C332.276 115.24 333.969 114.8 335.916 114.8C337.969 114.8 339.716 115.32 341.156 116.36C342.596 117.373 343.529 118.907 343.956 120.96L342.836 120.52C343.449 118.813 344.529 117.44 346.076 116.4C347.649 115.333 349.529 114.8 351.716 114.8ZM378.738 136.2C376.924 136.2 375.284 135.787 373.818 134.96C372.351 134.107 371.178 132.893 370.298 131.32C369.444 129.72 369.018 127.773 369.018 125.48C369.018 123.187 369.444 121.253 370.298 119.68C371.151 118.08 372.311 116.867 373.778 116.04C375.244 115.213 376.898 114.8 378.738 114.8C380.738 114.8 382.524 115.253 384.098 116.16C385.698 117.04 386.951 118.293 387.858 119.92C388.764 121.52 389.218 123.373 389.218 125.48C389.218 127.613 388.764 129.48 387.858 131.08C386.951 132.68 385.698 133.933 384.098 134.84C382.524 135.747 380.738 136.2 378.738 136.2ZM367.898 143.76V115H370.618V121.32L370.338 125.52L370.738 129.76V143.76H367.898ZM378.538 133.68C380.031 133.68 381.364 133.347 382.538 132.68C383.711 131.987 384.644 131.027 385.338 129.8C386.031 128.547 386.378 127.107 386.378 125.48C386.378 123.853 386.031 122.427 385.338 121.2C384.644 119.973 383.711 119.013 382.538 118.32C381.364 117.627 380.031 117.28 378.538 117.28C377.044 117.28 375.698 117.627 374.497 118.32C373.324 119.013 372.391 119.973 371.698 121.2C371.031 122.427 370.698 123.853 370.698 125.48C370.698 127.107 371.031 128.547 371.698 129.8C372.391 131.027 373.324 131.987 374.497 132.68C375.698 133.347 377.044 133.68 378.538 133.68ZM395.007 136V106.32H397.847V136H395.007ZM418.909 136V131.36L418.789 130.6V122.84C418.789 121.053 418.282 119.68 417.269 118.72C416.282 117.76 414.802 117.28 412.829 117.28C411.469 117.28 410.176 117.507 408.949 117.96C407.722 118.413 406.682 119.013 405.829 119.76L404.549 117.64C405.616 116.733 406.896 116.04 408.389 115.56C409.882 115.053 411.456 114.8 413.109 114.8C415.829 114.8 417.922 115.48 419.389 116.84C420.882 118.173 421.629 120.213 421.629 122.96V136H418.909ZM411.669 136.2C410.096 136.2 408.722 135.947 407.549 135.44C406.402 134.907 405.522 134.187 404.909 133.28C404.296 132.347 403.989 131.28 403.989 130.08C403.989 128.987 404.242 128 404.749 127.12C405.282 126.213 406.136 125.493 407.309 124.96C408.509 124.4 410.109 124.12 412.109 124.12H419.349V126.24H412.189C410.162 126.24 408.749 126.6 407.949 127.32C407.176 128.04 406.789 128.933 406.789 130C406.789 131.2 407.256 132.16 408.189 132.88C409.122 133.6 410.429 133.96 412.109 133.96C413.709 133.96 415.082 133.6 416.229 132.88C417.402 132.133 418.256 131.067 418.789 129.68L419.429 131.64C418.896 133.027 417.962 134.133 416.629 134.96C415.322 135.787 413.669 136.2 411.669 136.2ZM435.983 136.2C434.009 136.2 432.489 135.667 431.423 134.6C430.356 133.533 429.823 132.027 429.823 130.08V110.36H432.663V129.92C432.663 131.147 432.969 132.093 433.583 132.76C434.223 133.427 435.129 133.76 436.303 133.76C437.556 133.76 438.596 133.4 439.423 132.68L440.423 134.72C439.863 135.227 439.183 135.6 438.383 135.84C437.609 136.08 436.809 136.2 435.983 136.2ZM426.063 117.36V115H439.063V117.36H426.063ZM453.771 136.2C451.584 136.2 449.664 135.747 448.011 134.84C446.357 133.907 445.064 132.64 444.131 131.04C443.197 129.413 442.731 127.56 442.731 125.48C442.731 123.4 443.171 121.56 444.051 119.96C444.957 118.36 446.184 117.107 447.731 116.2C449.304 115.267 451.064 114.8 453.011 114.8C454.984 114.8 456.731 115.253 458.251 116.16C459.797 117.04 461.011 118.293 461.891 119.92C462.771 121.52 463.211 123.373 463.211 125.48C463.211 125.613 463.197 125.76 463.171 125.92C463.171 126.053 463.171 126.2 463.171 126.36H444.891V124.24H461.651L460.531 125.08C460.531 123.56 460.197 122.213 459.531 121.04C458.891 119.84 458.011 118.907 456.891 118.24C455.771 117.573 454.477 117.24 453.011 117.24C451.571 117.24 450.277 117.573 449.131 118.24C447.984 118.907 447.091 119.84 446.451 121.04C445.811 122.24 445.491 123.613 445.491 125.16V125.6C445.491 127.2 445.837 128.613 446.531 129.84C447.251 131.04 448.237 131.987 449.491 132.68C450.771 133.347 452.224 133.68 453.851 133.68C455.131 133.68 456.317 133.453 457.411 133C458.531 132.547 459.491 131.853 460.291 130.92L461.891 132.76C460.957 133.88 459.784 134.733 458.371 135.32C456.984 135.907 455.451 136.2 453.771 136.2Z" fill="black"/>
<path d="M107.56 205V177H110L122.8 198.84H121.52L134.2 177H136.64V205H133.8V181.44H134.48L122.8 201.44H121.4L109.64 181.44H110.4V205H107.56ZM153.723 205.2C151.696 205.2 149.87 204.747 148.243 203.84C146.643 202.907 145.376 201.64 144.443 200.04C143.51 198.413 143.043 196.56 143.043 194.48C143.043 192.373 143.51 190.52 144.443 188.92C145.376 187.32 146.643 186.067 148.243 185.16C149.843 184.253 151.67 183.8 153.723 183.8C155.803 183.8 157.643 184.253 159.243 185.16C160.87 186.067 162.136 187.32 163.043 188.92C163.976 190.52 164.443 192.373 164.443 194.48C164.443 196.56 163.976 198.413 163.043 200.04C162.136 201.64 160.87 202.907 159.243 203.84C157.616 204.747 155.776 205.2 153.723 205.2ZM153.723 202.68C155.243 202.68 156.59 202.347 157.763 201.68C158.936 200.987 159.856 200.027 160.523 198.8C161.216 197.547 161.563 196.107 161.563 194.48C161.563 192.827 161.216 191.387 160.523 190.16C159.856 188.933 158.936 187.987 157.763 187.32C156.59 186.627 155.256 186.28 153.763 186.28C152.27 186.28 150.936 186.627 149.763 187.32C148.59 187.987 147.656 188.933 146.963 190.16C146.27 191.387 145.923 192.827 145.923 194.48C145.923 196.107 146.27 197.547 146.963 198.8C147.656 200.027 148.59 200.987 149.763 201.68C150.936 202.347 152.256 202.68 153.723 202.68ZM178.961 205.2C176.881 205.2 175.015 204.747 173.361 203.84C171.735 202.907 170.455 201.64 169.521 200.04C168.588 198.413 168.121 196.56 168.121 194.48C168.121 192.373 168.588 190.52 169.521 188.92C170.455 187.32 171.735 186.067 173.361 185.16C175.015 184.253 176.881 183.8 178.961 183.8C180.748 183.8 182.361 184.147 183.801 184.84C185.241 185.533 186.375 186.573 187.201 187.96L185.081 189.4C184.361 188.333 183.468 187.547 182.401 187.04C181.335 186.533 180.175 186.28 178.921 186.28C177.428 186.28 176.081 186.627 174.881 187.32C173.681 187.987 172.735 188.933 172.041 190.16C171.348 191.387 171.001 192.827 171.001 194.48C171.001 196.133 171.348 197.573 172.041 198.8C172.735 200.027 173.681 200.987 174.881 201.68C176.081 202.347 177.428 202.68 178.921 202.68C180.175 202.68 181.335 202.427 182.401 201.92C183.468 201.413 184.361 200.64 185.081 199.6L187.201 201.04C186.375 202.4 185.241 203.44 183.801 204.16C182.361 204.853 180.748 205.2 178.961 205.2ZM194.708 199.56L194.788 195.92L207.868 184H211.348L202.108 192.84L200.508 194.2L194.708 199.56ZM192.468 205V175.32H195.308V205H192.468ZM208.748 205L199.988 194.08L201.828 191.88L212.228 205H208.748ZM224.781 205.2C222.994 205.2 221.434 204.867 220.101 204.2C218.767 203.533 217.727 202.533 216.981 201.2C216.261 199.867 215.901 198.2 215.901 196.2V184H218.741V195.88C218.741 198.12 219.287 199.813 220.381 200.96C221.501 202.08 223.061 202.64 225.061 202.64C226.527 202.64 227.794 202.347 228.861 201.76C229.954 201.147 230.781 200.267 231.341 199.12C231.927 197.973 232.221 196.6 232.221 195V184H235.061V205H232.341V199.24L232.781 200.28C232.114 201.827 231.074 203.04 229.661 203.92C228.274 204.773 226.647 205.2 224.781 205.2ZM253.816 205.2C252.002 205.2 250.362 204.787 248.896 203.96C247.429 203.107 246.256 201.893 245.376 200.32C244.522 198.72 244.096 196.773 244.096 194.48C244.096 192.187 244.522 190.253 245.376 188.68C246.229 187.08 247.389 185.867 248.856 185.04C250.322 184.213 251.976 183.8 253.816 183.8C255.816 183.8 257.602 184.253 259.176 185.16C260.776 186.04 262.029 187.293 262.936 188.92C263.842 190.52 264.296 192.373 264.296 194.48C264.296 196.613 263.842 198.48 262.936 200.08C262.029 201.68 260.776 202.933 259.176 203.84C257.602 204.747 255.816 205.2 253.816 205.2ZM242.976 212.76V184H245.696V190.32L245.416 194.52L245.816 198.76V212.76H242.976ZM253.616 202.68C255.109 202.68 256.442 202.347 257.616 201.68C258.789 200.987 259.722 200.027 260.416 198.8C261.109 197.547 261.456 196.107 261.456 194.48C261.456 192.853 261.109 191.427 260.416 190.2C259.722 188.973 258.789 188.013 257.616 187.32C256.442 186.627 255.109 186.28 253.616 186.28C252.122 186.28 250.776 186.627 249.576 187.32C248.402 188.013 247.469 188.973 246.776 190.2C246.109 191.427 245.776 192.853 245.776 194.48C245.776 196.107 246.109 197.547 246.776 198.8C247.469 200.027 248.402 200.987 249.576 201.68C250.776 202.347 252.122 202.68 253.616 202.68ZM293.314 205.24C291.207 205.24 289.26 204.893 287.474 204.2C285.687 203.48 284.14 202.48 282.834 201.2C281.527 199.92 280.5 198.413 279.754 196.68C279.034 194.947 278.674 193.053 278.674 191C278.674 188.947 279.034 187.053 279.754 185.32C280.5 183.587 281.527 182.08 282.834 180.8C284.167 179.52 285.727 178.533 287.514 177.84C289.3 177.12 291.247 176.76 293.354 176.76C295.38 176.76 297.287 177.107 299.074 177.8C300.86 178.467 302.367 179.48 303.594 180.84L301.714 182.72C300.567 181.547 299.3 180.707 297.914 180.2C296.527 179.667 295.034 179.4 293.434 179.4C291.754 179.4 290.194 179.693 288.754 180.28C287.314 180.84 286.06 181.653 284.994 182.72C283.927 183.76 283.087 184.987 282.474 186.4C281.887 187.787 281.594 189.32 281.594 191C281.594 192.68 281.887 194.227 282.474 195.64C283.087 197.027 283.927 198.253 284.994 199.32C286.06 200.36 287.314 201.173 288.754 201.76C290.194 202.32 291.754 202.6 293.434 202.6C295.034 202.6 296.527 202.333 297.914 201.8C299.3 201.267 300.567 200.413 301.714 199.24L303.594 201.12C302.367 202.48 300.86 203.507 299.074 204.2C297.287 204.893 295.367 205.24 293.314 205.24ZM317.281 205.2C315.494 205.2 313.934 204.867 312.601 204.2C311.267 203.533 310.227 202.533 309.481 201.2C308.761 199.867 308.401 198.2 308.401 196.2V184H311.241V195.88C311.241 198.12 311.787 199.813 312.881 200.96C314.001 202.08 315.561 202.64 317.561 202.64C319.027 202.64 320.294 202.347 321.361 201.76C322.454 201.147 323.281 200.267 323.841 199.12C324.427 197.973 324.721 196.6 324.721 195V184H327.561V205H324.841V199.24L325.281 200.28C324.614 201.827 323.574 203.04 322.161 203.92C320.774 204.773 319.147 205.2 317.281 205.2ZM341.116 205.2C339.382 205.2 337.742 204.96 336.196 204.48C334.649 203.973 333.436 203.347 332.556 202.6L333.836 200.36C334.689 201 335.782 201.56 337.116 202.04C338.449 202.493 339.849 202.72 341.316 202.72C343.316 202.72 344.756 202.413 345.636 201.8C346.516 201.16 346.956 200.32 346.956 199.28C346.956 198.507 346.702 197.907 346.196 197.48C345.716 197.027 345.076 196.693 344.276 196.48C343.476 196.24 342.582 196.04 341.596 195.88C340.609 195.72 339.622 195.533 338.636 195.32C337.676 195.107 336.796 194.8 335.996 194.4C335.196 193.973 334.542 193.4 334.036 192.68C333.556 191.96 333.316 191 333.316 189.8C333.316 188.653 333.636 187.627 334.276 186.72C334.916 185.813 335.849 185.107 337.076 184.6C338.329 184.067 339.849 183.8 341.636 183.8C342.996 183.8 344.356 183.987 345.716 184.36C347.076 184.707 348.196 185.173 349.076 185.76L347.836 188.04C346.902 187.4 345.902 186.947 344.836 186.68C343.769 186.387 342.702 186.24 341.636 186.24C339.742 186.24 338.342 186.573 337.436 187.24C336.556 187.88 336.116 188.707 336.116 189.72C336.116 190.52 336.356 191.147 336.836 191.6C337.342 192.053 337.996 192.413 338.796 192.68C339.622 192.92 340.516 193.12 341.476 193.28C342.462 193.44 343.436 193.64 344.396 193.88C345.382 194.093 346.276 194.4 347.076 194.8C347.902 195.173 348.556 195.72 349.036 196.44C349.542 197.133 349.796 198.053 349.796 199.2C349.796 200.427 349.449 201.493 348.756 202.4C348.089 203.28 347.102 203.973 345.796 204.48C344.516 204.96 342.956 205.2 341.116 205.2ZM361.647 205.2C359.674 205.2 358.154 204.667 357.087 203.6C356.02 202.533 355.487 201.027 355.487 199.08V179.36H358.327V198.92C358.327 200.147 358.634 201.093 359.247 201.76C359.887 202.427 360.794 202.76 361.967 202.76C363.22 202.76 364.26 202.4 365.087 201.68L366.087 203.72C365.527 204.227 364.847 204.6 364.047 204.84C363.274 205.08 362.474 205.2 361.647 205.2ZM351.727 186.36V184H364.727V186.36H351.727ZM379.075 205.2C377.048 205.2 375.221 204.747 373.595 203.84C371.995 202.907 370.728 201.64 369.795 200.04C368.861 198.413 368.395 196.56 368.395 194.48C368.395 192.373 368.861 190.52 369.795 188.92C370.728 187.32 371.995 186.067 373.595 185.16C375.195 184.253 377.021 183.8 379.075 183.8C381.155 183.8 382.995 184.253 384.595 185.16C386.221 186.067 387.488 187.32 388.395 188.92C389.328 190.52 389.795 192.373 389.795 194.48C389.795 196.56 389.328 198.413 388.395 200.04C387.488 201.64 386.221 202.907 384.595 203.84C382.968 204.747 381.128 205.2 379.075 205.2ZM379.075 202.68C380.595 202.68 381.941 202.347 383.115 201.68C384.288 200.987 385.208 200.027 385.875 198.8C386.568 197.547 386.915 196.107 386.915 194.48C386.915 192.827 386.568 191.387 385.875 190.16C385.208 188.933 384.288 187.987 383.115 187.32C381.941 186.627 380.608 186.28 379.115 186.28C377.621 186.28 376.288 186.627 375.115 187.32C373.941 187.987 373.008 188.933 372.315 190.16C371.621 191.387 371.275 192.827 371.275 194.48C371.275 196.107 371.621 197.547 372.315 198.8C373.008 200.027 373.941 200.987 375.115 201.68C376.288 202.347 377.608 202.68 379.075 202.68ZM421.833 183.8C423.539 183.8 425.019 184.133 426.273 184.8C427.553 185.44 428.539 186.427 429.233 187.76C429.953 189.093 430.313 190.773 430.313 192.8V205H427.473V193.08C427.473 190.867 426.939 189.2 425.873 188.08C424.833 186.933 423.353 186.36 421.433 186.36C419.993 186.36 418.739 186.667 417.673 187.28C416.633 187.867 415.819 188.733 415.233 189.88C414.673 191 414.393 192.36 414.393 193.96V205H411.553V193.08C411.553 190.867 411.019 189.2 409.953 188.08C408.886 186.933 407.393 186.36 405.473 186.36C404.059 186.36 402.819 186.667 401.753 187.28C400.686 187.867 399.859 188.733 399.273 189.88C398.713 191 398.433 192.36 398.433 193.96V205H395.593V184H398.313V189.68L397.873 188.68C398.513 187.16 399.539 185.973 400.953 185.12C402.393 184.24 404.086 183.8 406.033 183.8C408.086 183.8 409.833 184.32 411.273 185.36C412.713 186.373 413.646 187.907 414.073 189.96L412.953 189.52C413.566 187.813 414.646 186.44 416.193 185.4C417.766 184.333 419.646 183.8 421.833 183.8Z" fill="black"/>
<path d="M28.24 136.24C26.08 136.24 24.16 135.68 22.48 134.56C20.8 133.413 19.48 131.787 18.52 129.68C17.56 127.547 17.08 124.987 17.08 122C17.08 119.013 17.56 116.467 18.52 114.36C19.48 112.227 20.8 110.6 22.48 109.48C24.16 108.333 26.08 107.76 28.24 107.76C30.4 107.76 32.32 108.333 34 109.48C35.68 110.6 37 112.227 37.96 114.36C38.9467 116.467 39.44 119.013 39.44 122C39.44 124.987 38.9467 127.547 37.96 129.68C37 131.787 35.68 133.413 34 134.56C32.32 135.68 30.4 136.24 28.24 136.24ZM28.24 133.6C29.8933 133.6 31.3333 133.16 32.56 132.28C33.7867 131.373 34.7467 130.067 35.44 128.36C36.1333 126.627 36.48 124.507 36.48 122C36.48 119.493 36.1333 117.387 35.44 115.68C34.7467 113.947 33.7867 112.64 32.56 111.76C31.3333 110.853 29.8933 110.4 28.24 110.4C26.64 110.4 25.2133 110.853 23.96 111.76C22.7067 112.64 21.7333 113.947 21.04 115.68C20.3467 117.387 20 119.493 20 122C20 124.507 20.3467 126.627 21.04 128.36C21.7333 130.067 22.7067 131.373 23.96 132.28C25.2133 133.16 26.64 133.6 28.24 133.6ZM48.4444 136V109.2L49.7244 110.56H41.8444V108H51.3244V136H48.4444ZM60.1775 136.2C59.5908 136.2 59.0842 135.987 58.6575 135.56C58.2575 135.133 58.0575 134.613 58.0575 134C58.0575 133.36 58.2575 132.84 58.6575 132.44C59.0842 132.04 59.5908 131.84 60.1775 131.84C60.7642 131.84 61.2575 132.04 61.6575 132.44C62.0842 132.84 62.2975 133.36 62.2975 134C62.2975 134.613 62.0842 135.133 61.6575 135.56C61.2575 135.987 60.7642 136.2 60.1775 136.2Z" fill="black"/>
<path d="M28.24 205.24C26.08 205.24 24.16 204.68 22.48 203.56C20.8 202.413 19.48 200.787 18.52 198.68C17.56 196.547 17.08 193.987 17.08 191C17.08 188.013 17.56 185.467 18.52 183.36C19.48 181.227 20.8 179.6 22.48 178.48C24.16 177.333 26.08 176.76 28.24 176.76C30.4 176.76 32.32 177.333 34 178.48C35.68 179.6 37 181.227 37.96 183.36C38.9467 185.467 39.44 188.013 39.44 191C39.44 193.987 38.9467 196.547 37.96 198.68C37 200.787 35.68 202.413 34 203.56C32.32 204.68 30.4 205.24 28.24 205.24ZM28.24 202.6C29.8933 202.6 31.3333 202.16 32.56 201.28C33.7867 200.373 34.7467 199.067 35.44 197.36C36.1333 195.627 36.48 193.507 36.48 191C36.48 188.493 36.1333 186.387 35.44 184.68C34.7467 182.947 33.7867 181.64 32.56 180.76C31.3333 179.853 29.8933 179.4 28.24 179.4C26.64 179.4 25.2133 179.853 23.96 180.76C22.7067 181.64 21.7333 182.947 21.04 184.68C20.3467 186.387 20 188.493 20 191C20 193.507 20.3467 195.627 21.04 197.36C21.7333 199.067 22.7067 200.373 23.96 201.28C25.2133 202.16 26.64 202.6 28.24 202.6ZM43.0444 205V202.96L54.6844 191.56C55.751 190.52 56.551 189.613 57.0844 188.84C57.6177 188.04 57.9777 187.293 58.1644 186.6C58.351 185.907 58.4444 185.253 58.4444 184.64C58.4444 183.013 57.8844 181.733 56.7644 180.8C55.671 179.867 54.0444 179.4 51.8844 179.4C50.231 179.4 48.7644 179.653 47.4844 180.16C46.231 180.667 45.151 181.453 44.2444 182.52L42.2044 180.76C43.2977 179.48 44.6977 178.493 46.4044 177.8C48.111 177.107 50.0177 176.76 52.1244 176.76C54.0177 176.76 55.6577 177.067 57.0444 177.68C58.431 178.267 59.4977 179.133 60.2444 180.28C61.0177 181.427 61.4044 182.773 61.4044 184.32C61.4044 185.227 61.271 186.12 61.0044 187C60.7644 187.88 60.311 188.813 59.6444 189.8C59.0044 190.76 58.0577 191.853 56.8044 193.08L46.1244 203.56L45.3244 202.44H62.6844V205H43.0444ZM68.8494 205.2C68.2627 205.2 67.756 204.987 67.3294 204.56C66.9294 204.133 66.7294 203.613 66.7294 203C66.7294 202.36 66.9294 201.84 67.3294 201.44C67.756 201.04 68.2627 200.84 68.8494 200.84C69.436 200.84 69.9294 201.04 70.3294 201.44C70.756 201.84 70.9694 202.36 70.9694 203C70.9694 203.613 70.756 204.133 70.3294 204.56C69.9294 204.987 69.436 205.2 68.8494 205.2Z" fill="black"/>
<path d="M531.92 136.24C529.92 136.24 528.013 135.92 526.2 135.28C524.387 134.613 522.947 133.733 521.88 132.64L523.28 130.36C524.16 131.293 525.36 132.067 526.88 132.68C528.427 133.293 530.093 133.6 531.88 133.6C534.253 133.6 536.053 133.08 537.28 132.04C538.533 130.973 539.16 129.587 539.16 127.88C539.16 126.68 538.867 125.653 538.28 124.8C537.72 123.92 536.76 123.24 535.4 122.76C534.04 122.28 532.173 122.04 529.8 122.04H523.84L525.28 108H540.6V110.56H526.44L527.92 109.16L526.68 120.92L525.2 119.48H530.44C533.267 119.48 535.533 119.827 537.24 120.52C538.947 121.213 540.173 122.187 540.92 123.44C541.693 124.667 542.08 126.107 542.08 127.76C542.08 129.333 541.707 130.773 540.96 132.08C540.213 133.36 539.093 134.373 537.6 135.12C536.107 135.867 534.213 136.24 531.92 136.24ZM550.776 129.04L550.656 125.44L567.616 108H571.016L558.656 120.96L556.976 122.76L550.776 129.04ZM548.216 136V108H551.176V136H548.216ZM568.336 136L556.256 122.08L558.256 119.92L571.856 136H568.336ZM581.562 140L594.763 102.32H597.363L584.163 140H581.562ZM623.23 136.24C621.123 136.24 619.163 135.893 617.35 135.2C615.563 134.48 614.003 133.48 612.67 132.2C611.363 130.893 610.336 129.387 609.59 127.68C608.87 125.947 608.51 124.053 608.51 122C608.51 119.947 608.87 118.067 609.59 116.36C610.336 114.627 611.363 113.12 612.67 111.84C614.003 110.533 615.563 109.533 617.35 108.84C619.136 108.12 621.096 107.76 623.23 107.76C625.336 107.76 627.283 108.12 629.07 108.84C630.856 109.533 632.403 110.52 633.71 111.8C635.043 113.08 636.07 114.587 636.79 116.32C637.536 118.053 637.91 119.947 637.91 122C637.91 124.053 637.536 125.947 636.79 127.68C636.07 129.413 635.043 130.92 633.71 132.2C632.403 133.48 630.856 134.48 629.07 135.2C627.283 135.893 625.336 136.24 623.23 136.24ZM623.23 133.6C624.91 133.6 626.456 133.32 627.87 132.76C629.31 132.173 630.55 131.36 631.59 130.32C632.656 129.253 633.483 128.027 634.07 126.64C634.656 125.227 634.95 123.68 634.95 122C634.95 120.32 634.656 118.787 634.07 117.4C633.483 115.987 632.656 114.76 631.59 113.72C630.55 112.653 629.31 111.84 627.87 111.28C626.456 110.693 624.91 110.4 623.23 110.4C621.55 110.4 619.99 110.693 618.55 111.28C617.11 111.84 615.856 112.653 614.79 113.72C613.75 114.76 612.923 115.987 612.31 117.4C611.723 118.787 611.43 120.32 611.43 122C611.43 123.653 611.723 125.187 612.31 126.6C612.923 128.013 613.75 129.253 614.79 130.32C615.856 131.36 617.11 132.173 618.55 132.76C619.99 133.32 621.55 133.6 623.23 133.6ZM654.784 136.2C652.944 136.2 651.291 135.787 649.824 134.96C648.358 134.107 647.198 132.88 646.344 131.28C645.491 129.68 645.064 127.747 645.064 125.48C645.064 123.187 645.491 121.253 646.344 119.68C647.224 118.08 648.398 116.867 649.864 116.04C651.331 115.213 652.971 114.8 654.784 114.8C656.784 114.8 658.571 115.253 660.144 116.16C661.744 117.04 662.998 118.28 663.904 119.88C664.811 121.48 665.264 123.347 665.264 125.48C665.264 127.587 664.811 129.453 663.904 131.08C662.998 132.68 661.744 133.933 660.144 134.84C658.571 135.747 656.784 136.2 654.784 136.2ZM643.944 136V106.32H646.784V121.2L646.384 125.44L646.664 129.68V136H643.944ZM654.584 133.68C656.078 133.68 657.411 133.347 658.584 132.68C659.758 131.987 660.691 131.027 661.384 129.8C662.078 128.547 662.424 127.107 662.424 125.48C662.424 123.827 662.078 122.387 661.384 121.16C660.691 119.933 659.758 118.987 658.584 118.32C657.411 117.627 656.078 117.28 654.584 117.28C653.091 117.28 651.744 117.627 650.544 118.32C649.371 118.987 648.438 119.933 647.744 121.16C647.078 122.387 646.744 123.827 646.744 125.48C646.744 127.107 647.078 128.547 647.744 129.8C648.438 131.027 649.371 131.987 650.544 132.68C651.744 133.347 653.091 133.68 654.584 133.68ZM667.934 143.96C667.08 143.96 666.267 143.84 665.494 143.6C664.694 143.387 664.027 143.053 663.494 142.6L664.494 140.44C665.347 141.16 666.44 141.52 667.774 141.52C668.894 141.52 669.747 141.187 670.334 140.52C670.947 139.853 671.254 138.867 671.254 137.56V115H674.094V137.56C674.094 139.507 673.56 141.053 672.494 142.2C671.454 143.373 669.934 143.96 667.934 143.96ZM672.694 110.36C672.107 110.36 671.614 110.16 671.214 109.76C670.814 109.36 670.614 108.88 670.614 108.32C670.614 107.76 670.814 107.293 671.214 106.92C671.614 106.52 672.107 106.32 672.694 106.32C673.28 106.32 673.774 106.507 674.174 106.88C674.574 107.253 674.774 107.72 674.774 108.28C674.774 108.867 674.574 109.36 674.174 109.76C673.8 110.16 673.307 110.36 672.694 110.36ZM690.95 136.2C688.764 136.2 686.844 135.747 685.19 134.84C683.537 133.907 682.244 132.64 681.31 131.04C680.377 129.413 679.91 127.56 679.91 125.48C679.91 123.4 680.35 121.56 681.23 119.96C682.137 118.36 683.364 117.107 684.91 116.2C686.484 115.267 688.244 114.8 690.19 114.8C692.164 114.8 693.91 115.253 695.43 116.16C696.977 117.04 698.19 118.293 699.07 119.92C699.95 121.52 700.39 123.373 700.39 125.48C700.39 125.613 700.377 125.76 700.35 125.92C700.35 126.053 700.35 126.2 700.35 126.36H682.07V124.24H698.83L697.71 125.08C697.71 123.56 697.377 122.213 696.71 121.04C696.07 119.84 695.19 118.907 694.07 118.24C692.95 117.573 691.657 117.24 690.19 117.24C688.75 117.24 687.457 117.573 686.31 118.24C685.164 118.907 684.27 119.84 683.63 121.04C682.99 122.24 682.67 123.613 682.67 125.16V125.6C682.67 127.2 683.017 128.613 683.71 129.84C684.43 131.04 685.417 131.987 686.67 132.68C687.95 133.347 689.404 133.68 691.03 133.68C692.31 133.68 693.497 133.453 694.59 133C695.71 132.547 696.67 131.853 697.47 130.92L699.07 132.76C698.137 133.88 696.964 134.733 695.55 135.32C694.164 135.907 692.63 136.2 690.95 136.2ZM708.411 130.56L708.491 126.92L721.571 115H725.051L715.811 123.84L714.211 125.2L708.411 130.56ZM706.171 136V106.32H709.011V136H706.171ZM722.451 136L713.691 125.08L715.531 122.88L725.931 136H722.451Z" fill="black"/>
<path d="M529.8 212.76C528.333 210.333 527.187 207.533 526.36 204.36C525.56 201.16 525.16 197.72 525.16 194.04C525.16 190.36 525.56 186.92 526.36 183.72C527.187 180.493 528.333 177.693 529.8 175.32H532.52C530.947 178.067 529.787 180.987 529.04 184.08C528.32 187.147 527.96 190.467 527.96 194.04C527.96 197.613 528.32 200.947 529.04 204.04C529.787 207.107 530.947 210.013 532.52 212.76H529.8ZM550.884 205.24C548.777 205.24 546.831 204.893 545.044 204.2C543.257 203.48 541.711 202.48 540.404 201.2C539.097 199.92 538.071 198.413 537.324 196.68C536.604 194.947 536.244 193.053 536.244 191C536.244 188.947 536.604 187.053 537.324 185.32C538.071 183.587 539.097 182.08 540.404 180.8C541.737 179.52 543.297 178.533 545.084 177.84C546.871 177.12 548.817 176.76 550.924 176.76C552.951 176.76 554.857 177.107 556.644 177.8C558.431 178.467 559.937 179.48 561.164 180.84L559.284 182.72C558.137 181.547 556.871 180.707 555.484 180.2C554.097 179.667 552.604 179.4 551.004 179.4C549.324 179.4 547.764 179.693 546.324 180.28C544.884 180.84 543.631 181.653 542.564 182.72C541.497 183.76 540.657 184.987 540.044 186.4C539.457 187.787 539.164 189.32 539.164 191C539.164 192.68 539.457 194.227 540.044 195.64C540.657 197.027 541.497 198.253 542.564 199.32C543.631 200.36 544.884 201.173 546.324 201.76C547.764 202.32 549.324 202.6 551.004 202.6C552.604 202.6 554.097 202.333 555.484 201.8C556.871 201.267 558.137 200.413 559.284 199.24L561.164 201.12C559.937 202.48 558.431 203.507 556.644 204.2C554.857 204.893 552.937 205.24 550.884 205.24ZM579.722 205V200.36L579.602 199.6V191.84C579.602 190.053 579.095 188.68 578.082 187.72C577.095 186.76 575.615 186.28 573.642 186.28C572.282 186.28 570.988 186.507 569.762 186.96C568.535 187.413 567.495 188.013 566.642 188.76L565.362 186.64C566.428 185.733 567.708 185.04 569.202 184.56C570.695 184.053 572.268 183.8 573.922 183.8C576.642 183.8 578.735 184.48 580.202 185.84C581.695 187.173 582.442 189.213 582.442 191.96V205H579.722ZM572.482 205.2C570.908 205.2 569.535 204.947 568.362 204.44C567.215 203.907 566.335 203.187 565.722 202.28C565.108 201.347 564.802 200.28 564.802 199.08C564.802 197.987 565.055 197 565.562 196.12C566.095 195.213 566.948 194.493 568.122 193.96C569.322 193.4 570.922 193.12 572.922 193.12H580.162V195.24H573.002C570.975 195.24 569.562 195.6 568.762 196.32C567.988 197.04 567.602 197.933 567.602 199C567.602 200.2 568.068 201.16 569.002 201.88C569.935 202.6 571.242 202.96 572.922 202.96C574.522 202.96 575.895 202.6 577.042 201.88C578.215 201.133 579.068 200.067 579.602 198.68L580.242 200.64C579.708 202.027 578.775 203.133 577.442 203.96C576.135 204.787 574.482 205.2 572.482 205.2ZM590.155 205V175.32H592.995V205H590.155ZM600.898 205V175.32H603.738V205H600.898ZM612 212.76H609.28C610.88 210.013 612.04 207.107 612.76 204.04C613.506 200.947 613.88 197.613 613.88 194.04C613.88 190.467 613.506 187.147 612.76 184.08C612.04 180.987 610.88 178.067 609.28 175.32H612C613.52 177.693 614.68 180.493 615.48 183.72C616.28 186.92 616.68 190.36 616.68 194.04C616.68 197.72 616.28 201.16 615.48 204.36C614.68 207.533 613.52 210.333 612 212.76Z" fill="black"/>
</svg>
