<svg width="858" height="368" viewBox="0 0 858 368" fill="none" xmlns="http://www.w3.org/2000/svg">
<rect x="2" y="2" width="87" height="86" fill="#343434" stroke="#343434" stroke-width="4"/>
<rect width="419" height="86" transform="matrix(-1 0 0 1 508 2)" fill="#343434" stroke="#343434" stroke-width="4"/>
<rect x="508" y="2" width="348" height="86" fill="#343434" stroke="#343434" stroke-width="4"/>
<path d="M13.32 58V30H18.68L35.2 50.16H32.6V30H39V58H33.68L17.12 37.84H19.72V58H13.32ZM55.4247 58.32C53.1314 58.32 51.0914 57.84 49.3047 56.88C47.5447 55.92 46.1447 54.6133 45.1047 52.96C44.0914 51.28 43.5847 49.3733 43.5847 47.24C43.5847 45.08 44.0914 43.1733 45.1047 41.52C46.1447 39.84 47.5447 38.5333 49.3047 37.6C51.0914 36.64 53.1314 36.16 55.4247 36.16C57.6914 36.16 59.718 36.64 61.5047 37.6C63.2914 38.5333 64.6914 39.8267 65.7047 41.48C66.718 43.1333 67.2247 45.0533 67.2247 47.24C67.2247 49.3733 66.718 51.28 65.7047 52.96C64.6914 54.6133 63.2914 55.92 61.5047 56.88C59.718 57.84 57.6914 58.32 55.4247 58.32ZM55.4247 53.2C56.4647 53.2 57.398 52.96 58.2247 52.48C59.0514 52 59.7047 51.32 60.1847 50.44C60.6647 49.5333 60.9047 48.4667 60.9047 47.24C60.9047 45.9867 60.6647 44.92 60.1847 44.04C59.7047 43.16 59.0514 42.48 58.2247 42C57.398 41.52 56.4647 41.28 55.4247 41.28C54.3847 41.28 53.4514 41.52 52.6247 42C51.798 42.48 51.1314 43.16 50.6247 44.04C50.1447 44.92 49.9047 45.9867 49.9047 47.24C49.9047 48.4667 50.1447 49.5333 50.6247 50.44C51.1314 51.32 51.798 52 52.6247 52.48C53.4514 52.96 54.3847 53.2 55.4247 53.2ZM73.5213 58.32C72.4546 58.32 71.5346 57.96 70.7613 57.24C70.0146 56.4933 69.6413 55.5467 69.6413 54.4C69.6413 53.2533 70.0146 52.3333 70.7613 51.64C71.5346 50.92 72.4546 50.56 73.5213 50.56C74.6146 50.56 75.5346 50.92 76.2813 51.64C77.0279 52.3333 77.4013 53.2533 77.4013 54.4C77.4013 55.5467 77.0279 56.4933 76.2813 57.24C75.5346 57.96 74.6146 58.32 73.5213 58.32Z" fill="white"/>
<path d="M106.32 58V30H111.68L128.2 50.16H125.6V30H132V58H126.68L110.12 37.84H112.72V58H106.32ZM151.385 58V53.8L150.985 52.88V45.36C150.985 44.0267 150.571 42.9867 149.745 42.24C148.945 41.4933 147.705 41.12 146.025 41.12C144.878 41.12 143.745 41.3067 142.625 41.68C141.531 42.0267 140.598 42.5067 139.825 43.12L137.585 38.76C138.758 37.9333 140.171 37.2933 141.825 36.84C143.478 36.3867 145.158 36.16 146.865 36.16C150.145 36.16 152.691 36.9333 154.505 38.48C156.318 40.0267 157.225 42.44 157.225 45.72V58H151.385ZM144.825 58.32C143.145 58.32 141.705 58.04 140.505 57.48C139.305 56.8933 138.385 56.1067 137.745 55.12C137.105 54.1333 136.785 53.0267 136.785 51.8C136.785 50.52 137.091 49.4 137.705 48.44C138.345 47.48 139.345 46.7333 140.705 46.2C142.065 45.64 143.838 45.36 146.025 45.36H151.745V49H146.705C145.238 49 144.225 49.24 143.665 49.72C143.131 50.2 142.865 50.8 142.865 51.52C142.865 52.32 143.171 52.96 143.785 53.44C144.425 53.8933 145.291 54.12 146.385 54.12C147.425 54.12 148.358 53.88 149.185 53.4C150.011 52.8933 150.611 52.16 150.985 51.2L151.945 54.08C151.491 55.4667 150.665 56.52 149.465 57.24C148.265 57.96 146.718 58.32 144.825 58.32ZM190.432 36.16C192.139 36.16 193.646 36.5067 194.952 37.2C196.286 37.8667 197.326 38.9067 198.072 40.32C198.846 41.7067 199.232 43.4933 199.232 45.68V58H192.992V46.64C192.992 44.9067 192.632 43.6267 191.912 42.8C191.192 41.9733 190.179 41.56 188.872 41.56C187.966 41.56 187.152 41.7733 186.432 42.2C185.712 42.6 185.152 43.2133 184.752 44.04C184.352 44.8667 184.152 45.92 184.152 47.2V58H177.912V46.64C177.912 44.9067 177.552 43.6267 176.832 42.8C176.139 41.9733 175.139 41.56 173.832 41.56C172.926 41.56 172.112 41.7733 171.392 42.2C170.672 42.6 170.112 43.2133 169.712 44.04C169.312 44.8667 169.112 45.92 169.112 47.2V58H162.872V36.48H168.832V42.36L167.712 40.64C168.459 39.1733 169.512 38.0667 170.872 37.32C172.259 36.5467 173.832 36.16 175.592 36.16C177.566 36.16 179.286 36.6667 180.752 37.68C182.246 38.6667 183.232 40.1867 183.712 42.24L181.512 41.64C182.232 39.96 183.379 38.6267 184.952 37.64C186.552 36.6533 188.379 36.16 190.432 36.16ZM218.025 58V53.8L217.625 52.88V45.36C217.625 44.0267 217.212 42.9867 216.385 42.24C215.585 41.4933 214.345 41.12 212.665 41.12C211.519 41.12 210.385 41.3067 209.265 41.68C208.172 42.0267 207.239 42.5067 206.465 43.12L204.225 38.76C205.399 37.9333 206.812 37.2933 208.465 36.84C210.119 36.3867 211.799 36.16 213.505 36.16C216.785 36.16 219.332 36.9333 221.145 38.48C222.959 40.0267 223.865 42.44 223.865 45.72V58H218.025ZM211.465 58.32C209.785 58.32 208.345 58.04 207.145 57.48C205.945 56.8933 205.025 56.1067 204.385 55.12C203.745 54.1333 203.425 53.0267 203.425 51.8C203.425 50.52 203.732 49.4 204.345 48.44C204.985 47.48 205.985 46.7333 207.345 46.2C208.705 45.64 210.479 45.36 212.665 45.36H218.385V49H213.345C211.879 49 210.865 49.24 210.305 49.72C209.772 50.2 209.505 50.8 209.505 51.52C209.505 52.32 209.812 52.96 210.425 53.44C211.065 53.8933 211.932 54.12 213.025 54.12C214.065 54.12 214.999 53.88 215.825 53.4C216.652 52.8933 217.252 52.16 217.625 51.2L218.585 54.08C218.132 55.4667 217.305 56.52 216.105 57.24C214.905 57.96 213.359 58.32 211.465 58.32ZM241.281 58V30H247.761V52.72H261.801V58H241.281ZM278.338 58V53.8L277.938 52.88V45.36C277.938 44.0267 277.524 42.9867 276.698 42.24C275.898 41.4933 274.658 41.12 272.978 41.12C271.831 41.12 270.698 41.3067 269.578 41.68C268.484 42.0267 267.551 42.5067 266.778 43.12L264.538 38.76C265.711 37.9333 267.124 37.2933 268.778 36.84C270.431 36.3867 272.111 36.16 273.818 36.16C277.098 36.16 279.644 36.9333 281.458 38.48C283.271 40.0267 284.178 42.44 284.178 45.72V58H278.338ZM271.778 58.32C270.098 58.32 268.658 58.04 267.458 57.48C266.258 56.8933 265.338 56.1067 264.698 55.12C264.058 54.1333 263.738 53.0267 263.738 51.8C263.738 50.52 264.044 49.4 264.658 48.44C265.298 47.48 266.298 46.7333 267.658 46.2C269.018 45.64 270.791 45.36 272.978 45.36H278.698V49H273.658C272.191 49 271.178 49.24 270.618 49.72C270.084 50.2 269.818 50.8 269.818 51.52C269.818 52.32 270.124 52.96 270.738 53.44C271.378 53.8933 272.244 54.12 273.338 54.12C274.378 54.12 275.311 53.88 276.138 53.4C276.964 52.8933 277.564 52.16 277.938 51.2L278.898 54.08C278.444 55.4667 277.618 56.52 276.418 57.24C275.218 57.96 273.671 58.32 271.778 58.32ZM292.155 66.08C291.035 66.08 289.928 65.9067 288.835 65.56C287.741 65.2133 286.848 64.7333 286.155 64.12L288.435 59.68C288.915 60.1067 289.461 60.44 290.075 60.68C290.715 60.92 291.341 61.04 291.955 61.04C292.835 61.04 293.528 60.8267 294.035 60.4C294.568 60 295.048 59.32 295.475 58.36L296.595 55.72L297.075 55.04L304.795 36.48H310.795L301.075 59.32C300.381 61.0533 299.581 62.4133 298.675 63.4C297.795 64.3867 296.808 65.08 295.715 65.48C294.648 65.88 293.461 66.08 292.155 66.08ZM295.835 58.84L286.235 36.48H292.675L300.115 54.48L295.835 58.84ZM325.838 58V53.8L325.438 52.88V45.36C325.438 44.0267 325.024 42.9867 324.198 42.24C323.398 41.4933 322.158 41.12 320.478 41.12C319.331 41.12 318.198 41.3067 317.078 41.68C315.984 42.0267 315.051 42.5067 314.278 43.12L312.038 38.76C313.211 37.9333 314.624 37.2933 316.278 36.84C317.931 36.3867 319.611 36.16 321.318 36.16C324.598 36.16 327.144 36.9333 328.958 38.48C330.771 40.0267 331.678 42.44 331.678 45.72V58H325.838ZM319.278 58.32C317.598 58.32 316.158 58.04 314.958 57.48C313.758 56.8933 312.838 56.1067 312.198 55.12C311.558 54.1333 311.238 53.0267 311.238 51.8C311.238 50.52 311.544 49.4 312.158 48.44C312.798 47.48 313.798 46.7333 315.158 46.2C316.518 45.64 318.291 45.36 320.478 45.36H326.198V49H321.158C319.691 49 318.678 49.24 318.118 49.72C317.584 50.2 317.318 50.8 317.318 51.52C317.318 52.32 317.624 52.96 318.238 53.44C318.878 53.8933 319.744 54.12 320.838 54.12C321.878 54.12 322.811 53.88 323.638 53.4C324.464 52.8933 325.064 52.16 325.438 51.2L326.398 54.08C325.944 55.4667 325.118 56.52 323.918 57.24C322.718 57.96 321.171 58.32 319.278 58.32ZM350.405 36.16C352.112 36.16 353.632 36.5067 354.965 37.2C356.325 37.8667 357.392 38.9067 358.165 40.32C358.939 41.7067 359.325 43.4933 359.325 45.68V58H353.085V46.64C353.085 44.9067 352.699 43.6267 351.925 42.8C351.179 41.9733 350.112 41.56 348.725 41.56C347.739 41.56 346.845 41.7733 346.045 42.2C345.272 42.6 344.659 43.2267 344.205 44.08C343.779 44.9333 343.565 46.0267 343.565 47.36V58H337.325V36.48H343.285V42.44L342.165 40.64C342.939 39.2 344.045 38.0933 345.485 37.32C346.925 36.5467 348.565 36.16 350.405 36.16ZM378.182 58V53.8L377.782 52.88V45.36C377.782 44.0267 377.368 42.9867 376.542 42.24C375.742 41.4933 374.502 41.12 372.822 41.12C371.675 41.12 370.542 41.3067 369.422 41.68C368.328 42.0267 367.395 42.5067 366.622 43.12L364.382 38.76C365.555 37.9333 366.968 37.2933 368.622 36.84C370.275 36.3867 371.955 36.16 373.662 36.16C376.942 36.16 379.488 36.9333 381.302 38.48C383.115 40.0267 384.022 42.44 384.022 45.72V58H378.182ZM371.622 58.32C369.942 58.32 368.502 58.04 367.302 57.48C366.102 56.8933 365.182 56.1067 364.542 55.12C363.902 54.1333 363.582 53.0267 363.582 51.8C363.582 50.52 363.888 49.4 364.502 48.44C365.142 47.48 366.142 46.7333 367.502 46.2C368.862 45.64 370.635 45.36 372.822 45.36H378.542V49H373.502C372.035 49 371.022 49.24 370.462 49.72C369.928 50.2 369.662 50.8 369.662 51.52C369.662 52.32 369.968 52.96 370.582 53.44C371.222 53.8933 372.088 54.12 373.182 54.12C374.222 54.12 375.155 53.88 375.982 53.4C376.808 52.8933 377.408 52.16 377.782 51.2L378.742 54.08C378.288 55.4667 377.462 56.52 376.262 57.24C375.062 57.96 373.515 58.32 371.622 58.32ZM402.749 36.16C404.456 36.16 405.976 36.5067 407.309 37.2C408.669 37.8667 409.736 38.9067 410.509 40.32C411.282 41.7067 411.669 43.4933 411.669 45.68V58H405.429V46.64C405.429 44.9067 405.042 43.6267 404.269 42.8C403.522 41.9733 402.456 41.56 401.069 41.56C400.082 41.56 399.189 41.7733 398.389 42.2C397.616 42.6 397.002 43.2267 396.549 44.08C396.122 44.9333 395.909 46.0267 395.909 47.36V58H389.669V36.48H395.629V42.44L394.509 40.64C395.282 39.2 396.389 38.0933 397.829 37.32C399.269 36.5467 400.909 36.16 402.749 36.16Z" fill="white"/>
<path d="M524.32 58V30H538C541.52 30 544.16 30.6667 545.92 32C547.707 33.3333 548.6 35.0933 548.6 37.28C548.6 38.7467 548.24 40.0267 547.52 41.12C546.8 42.1867 545.813 43.0133 544.56 43.6C543.307 44.1867 541.867 44.48 540.24 44.48L541 42.84C542.76 42.84 544.32 43.1333 545.68 43.72C547.04 44.28 548.093 45.12 548.84 46.24C549.613 47.36 550 48.7333 550 50.36C550 52.76 549.053 54.64 547.16 56C545.267 57.3333 542.48 58 538.8 58H524.32ZM530.76 53.12H538.32C540 53.12 541.267 52.8533 542.12 52.32C543 51.76 543.44 50.88 543.44 49.68C543.44 48.5067 543 47.64 542.12 47.08C541.267 46.4933 540 46.2 538.32 46.2H530.28V41.48H537.2C538.773 41.48 539.973 41.2133 540.8 40.68C541.653 40.12 542.08 39.28 542.08 38.16C542.08 37.0667 541.653 36.2533 540.8 35.72C539.973 35.16 538.773 34.88 537.2 34.88H530.76V53.12ZM554.466 58V36.48H560.706V58H554.466ZM557.586 33.48C556.439 33.48 555.506 33.1467 554.786 32.48C554.066 31.8133 553.706 30.9867 553.706 30C553.706 29.0133 554.066 28.1867 554.786 27.52C555.506 26.8533 556.439 26.52 557.586 26.52C558.733 26.52 559.666 26.84 560.386 27.48C561.106 28.0933 561.466 28.8933 561.466 29.88C561.466 30.92 561.106 31.7867 560.386 32.48C559.693 33.1467 558.759 33.48 557.586 33.48ZM579.697 58V53.8L579.297 52.88V45.36C579.297 44.0267 578.884 42.9867 578.057 42.24C577.257 41.4933 576.017 41.12 574.337 41.12C573.191 41.12 572.057 41.3067 570.937 41.68C569.844 42.0267 568.911 42.5067 568.137 43.12L565.897 38.76C567.071 37.9333 568.484 37.2933 570.137 36.84C571.791 36.3867 573.471 36.16 575.177 36.16C578.457 36.16 581.004 36.9333 582.817 38.48C584.631 40.0267 585.537 42.44 585.537 45.72V58H579.697ZM573.137 58.32C571.457 58.32 570.017 58.04 568.817 57.48C567.617 56.8933 566.697 56.1067 566.057 55.12C565.417 54.1333 565.097 53.0267 565.097 51.8C565.097 50.52 565.404 49.4 566.017 48.44C566.657 47.48 567.657 46.7333 569.017 46.2C570.377 45.64 572.151 45.36 574.337 45.36H580.057V49H575.017C573.551 49 572.537 49.24 571.977 49.72C571.444 50.2 571.177 50.8 571.177 51.52C571.177 52.32 571.484 52.96 572.097 53.44C572.737 53.8933 573.604 54.12 574.697 54.12C575.737 54.12 576.671 53.88 577.497 53.4C578.324 52.8933 578.924 52.16 579.297 51.2L580.257 54.08C579.804 55.4667 578.977 56.52 577.777 57.24C576.577 57.96 575.031 58.32 573.137 58.32ZM593.514 66.08C592.394 66.08 591.287 65.9067 590.194 65.56C589.101 65.2133 588.207 64.7333 587.514 64.12L589.794 59.68C590.274 60.1067 590.821 60.44 591.434 60.68C592.074 60.92 592.701 61.04 593.314 61.04C594.194 61.04 594.887 60.8267 595.394 60.4C595.927 60 596.407 59.32 596.834 58.36L597.954 55.72L598.434 55.04L606.154 36.48H612.154L602.434 59.32C601.741 61.0533 600.941 62.4133 600.034 63.4C599.154 64.3867 598.167 65.08 597.074 65.48C596.007 65.88 594.821 66.08 593.514 66.08ZM597.194 58.84L587.594 36.48H594.034L601.474 54.48L597.194 58.84ZM627.197 58V53.8L626.797 52.88V45.36C626.797 44.0267 626.384 42.9867 625.557 42.24C624.757 41.4933 623.517 41.12 621.837 41.12C620.691 41.12 619.557 41.3067 618.437 41.68C617.344 42.0267 616.411 42.5067 615.637 43.12L613.397 38.76C614.571 37.9333 615.984 37.2933 617.637 36.84C619.291 36.3867 620.971 36.16 622.677 36.16C625.957 36.16 628.504 36.9333 630.317 38.48C632.131 40.0267 633.037 42.44 633.037 45.72V58H627.197ZM620.637 58.32C618.957 58.32 617.517 58.04 616.317 57.48C615.117 56.8933 614.197 56.1067 613.557 55.12C612.917 54.1333 612.597 53.0267 612.597 51.8C612.597 50.52 612.904 49.4 613.517 48.44C614.157 47.48 615.157 46.7333 616.517 46.2C617.877 45.64 619.651 45.36 621.837 45.36H627.557V49H622.517C621.051 49 620.037 49.24 619.477 49.72C618.944 50.2 618.677 50.8 618.677 51.52C618.677 52.32 618.984 52.96 619.597 53.44C620.237 53.8933 621.104 54.12 622.197 54.12C623.237 54.12 624.171 53.88 624.997 53.4C625.824 52.8933 626.424 52.16 626.797 51.2L627.757 54.08C627.304 55.4667 626.477 56.52 625.277 57.24C624.077 57.96 622.531 58.32 620.637 58.32Z" fill="white"/>
<rect x="2" y="88" width="87" height="107" stroke="#343434" stroke-width="4"/>
<rect x="2" y="195" width="87" height="107" stroke="#343434" stroke-width="4"/>
<rect x="2" y="302" width="87" height="64" stroke="#343434" stroke-width="4"/>
<rect x="89" y="88" width="419" height="107" stroke="#343434" stroke-width="4"/>
<rect x="89" y="195" width="419" height="107" stroke="#343434" stroke-width="4"/>
<rect x="89" y="302" width="419" height="64" stroke="#343434" stroke-width="4"/>
<rect x="508" y="88" width="348" height="107" stroke="#343434" stroke-width="4"/>
<rect x="508" y="195" width="348" height="107" stroke="#343434" stroke-width="4"/>
<rect x="508" y="302" width="348" height="64" stroke="#343434" stroke-width="4"/>
<path d="M110.12 127.04L110 123.44L126.96 106H130.36L118 118.96L116.32 120.76L110.12 127.04ZM107.56 134V106H110.52V134H107.56ZM127.68 134L115.6 120.08L117.6 117.92L131.2 134H127.68ZM142.981 134.2C140.954 134.2 139.128 133.747 137.501 132.84C135.901 131.907 134.634 130.64 133.701 129.04C132.768 127.413 132.301 125.56 132.301 123.48C132.301 121.373 132.768 119.52 133.701 117.92C134.634 116.32 135.901 115.067 137.501 114.16C139.101 113.253 140.928 112.8 142.981 112.8C145.061 112.8 146.901 113.253 148.501 114.16C150.128 115.067 151.394 116.32 152.301 117.92C153.234 119.52 153.701 121.373 153.701 123.48C153.701 125.56 153.234 127.413 152.301 129.04C151.394 130.64 150.128 131.907 148.501 132.84C146.874 133.747 145.034 134.2 142.981 134.2ZM142.981 131.68C144.501 131.68 145.848 131.347 147.021 130.68C148.194 129.987 149.114 129.027 149.781 127.8C150.474 126.547 150.821 125.107 150.821 123.48C150.821 121.827 150.474 120.387 149.781 119.16C149.114 117.933 148.194 116.987 147.021 116.32C145.848 115.627 144.514 115.28 143.021 115.28C141.528 115.28 140.194 115.627 139.021 116.32C137.848 116.987 136.914 117.933 136.221 119.16C135.528 120.387 135.181 121.827 135.181 123.48C135.181 125.107 135.528 126.547 136.221 127.8C136.914 129.027 137.848 129.987 139.021 130.68C140.194 131.347 141.514 131.68 142.981 131.68ZM170.219 112.8C171.926 112.8 173.419 113.133 174.699 113.8C176.006 114.44 177.019 115.427 177.739 116.76C178.486 118.093 178.859 119.773 178.859 121.8V134H176.019V122.08C176.019 119.867 175.459 118.2 174.339 117.08C173.246 115.933 171.699 115.36 169.699 115.36C168.206 115.36 166.899 115.667 165.779 116.28C164.686 116.867 163.832 117.733 163.219 118.88C162.632 120 162.339 121.36 162.339 122.96V134H159.499V113H162.219V118.76L161.779 117.68C162.446 116.16 163.512 114.973 164.979 114.12C166.446 113.24 168.192 112.8 170.219 112.8ZM192.17 134.2C190.437 134.2 188.797 133.96 187.25 133.48C185.704 132.973 184.49 132.347 183.61 131.6L184.89 129.36C185.744 130 186.837 130.56 188.17 131.04C189.504 131.493 190.904 131.72 192.37 131.72C194.37 131.72 195.81 131.413 196.69 130.8C197.57 130.16 198.01 129.32 198.01 128.28C198.01 127.507 197.757 126.907 197.25 126.48C196.77 126.027 196.13 125.693 195.33 125.48C194.53 125.24 193.637 125.04 192.65 124.88C191.664 124.72 190.677 124.533 189.69 124.32C188.73 124.107 187.85 123.8 187.05 123.4C186.25 122.973 185.597 122.4 185.09 121.68C184.61 120.96 184.37 120 184.37 118.8C184.37 117.653 184.69 116.627 185.33 115.72C185.97 114.813 186.904 114.107 188.13 113.6C189.384 113.067 190.904 112.8 192.69 112.8C194.05 112.8 195.41 112.987 196.77 113.36C198.13 113.707 199.25 114.173 200.13 114.76L198.89 117.04C197.957 116.4 196.957 115.947 195.89 115.68C194.824 115.387 193.757 115.24 192.69 115.24C190.797 115.24 189.397 115.573 188.49 116.24C187.61 116.88 187.17 117.707 187.17 118.72C187.17 119.52 187.41 120.147 187.89 120.6C188.397 121.053 189.05 121.413 189.85 121.68C190.677 121.92 191.57 122.12 192.53 122.28C193.517 122.44 194.49 122.64 195.45 122.88C196.437 123.093 197.33 123.4 198.13 123.8C198.957 124.173 199.61 124.72 200.09 125.44C200.597 126.133 200.85 127.053 200.85 128.2C200.85 129.427 200.504 130.493 199.81 131.4C199.144 132.28 198.157 132.973 196.85 133.48C195.57 133.96 194.01 134.2 192.17 134.2ZM214.742 134.2C212.955 134.2 211.395 133.867 210.062 133.2C208.728 132.533 207.688 131.533 206.942 130.2C206.222 128.867 205.862 127.2 205.862 125.2V113H208.702V124.88C208.702 127.12 209.248 128.813 210.342 129.96C211.462 131.08 213.022 131.64 215.022 131.64C216.488 131.64 217.755 131.347 218.822 130.76C219.915 130.147 220.742 129.267 221.302 128.12C221.888 126.973 222.182 125.6 222.182 124V113H225.022V134H222.302V128.24L222.742 129.28C222.075 130.827 221.035 132.04 219.622 132.92C218.235 133.773 216.608 134.2 214.742 134.2ZM232.937 134V104.32H235.777V134H232.937ZM250.436 134.2C248.463 134.2 246.943 133.667 245.876 132.6C244.809 131.533 244.276 130.027 244.276 128.08V108.36H247.116V127.92C247.116 129.147 247.423 130.093 248.036 130.76C248.676 131.427 249.583 131.76 250.756 131.76C252.009 131.76 253.049 131.4 253.876 130.68L254.876 132.72C254.316 133.227 253.636 133.6 252.836 133.84C252.063 134.08 251.263 134.2 250.436 134.2ZM240.516 115.36V113H253.516V115.36H240.516ZM273.206 134V129.36L273.086 128.6V120.84C273.086 119.053 272.579 117.68 271.566 116.72C270.579 115.76 269.099 115.28 267.126 115.28C265.766 115.28 264.473 115.507 263.246 115.96C262.019 116.413 260.979 117.013 260.126 117.76L258.846 115.64C259.913 114.733 261.193 114.04 262.686 113.56C264.179 113.053 265.753 112.8 267.406 112.8C270.126 112.8 272.219 113.48 273.686 114.84C275.179 116.173 275.926 118.213 275.926 120.96V134H273.206ZM265.966 134.2C264.393 134.2 263.019 133.947 261.846 133.44C260.699 132.907 259.819 132.187 259.206 131.28C258.593 130.347 258.286 129.28 258.286 128.08C258.286 126.987 258.539 126 259.046 125.12C259.579 124.213 260.433 123.493 261.606 122.96C262.806 122.4 264.406 122.12 266.406 122.12H273.646V124.24H266.486C264.459 124.24 263.046 124.6 262.246 125.32C261.473 126.04 261.086 126.933 261.086 128C261.086 129.2 261.553 130.16 262.486 130.88C263.419 131.6 264.726 131.96 266.406 131.96C268.006 131.96 269.379 131.6 270.526 130.88C271.699 130.133 272.553 129.067 273.086 127.68L273.726 129.64C273.193 131.027 272.259 132.133 270.926 132.96C269.619 133.787 267.966 134.2 265.966 134.2ZM289.28 134.2C287.546 134.2 285.906 133.96 284.36 133.48C282.813 132.973 281.6 132.347 280.72 131.6L282 129.36C282.853 130 283.946 130.56 285.28 131.04C286.613 131.493 288.013 131.72 289.48 131.72C291.48 131.72 292.92 131.413 293.8 130.8C294.68 130.16 295.12 129.32 295.12 128.28C295.12 127.507 294.866 126.907 294.36 126.48C293.88 126.027 293.24 125.693 292.44 125.48C291.64 125.24 290.746 125.04 289.76 124.88C288.773 124.72 287.786 124.533 286.8 124.32C285.84 124.107 284.96 123.8 284.16 123.4C283.36 122.973 282.706 122.4 282.2 121.68C281.72 120.96 281.48 120 281.48 118.8C281.48 117.653 281.8 116.627 282.44 115.72C283.08 114.813 284.013 114.107 285.24 113.6C286.493 113.067 288.013 112.8 289.8 112.8C291.16 112.8 292.52 112.987 293.88 113.36C295.24 113.707 296.36 114.173 297.24 114.76L296 117.04C295.066 116.4 294.066 115.947 293 115.68C291.933 115.387 290.866 115.24 289.8 115.24C287.906 115.24 286.506 115.573 285.6 116.24C284.72 116.88 284.28 117.707 284.28 118.72C284.28 119.52 284.52 120.147 285 120.6C285.506 121.053 286.16 121.413 286.96 121.68C287.786 121.92 288.68 122.12 289.64 122.28C290.626 122.44 291.6 122.64 292.56 122.88C293.546 123.093 294.44 123.4 295.24 123.8C296.066 124.173 296.72 124.72 297.2 125.44C297.706 126.133 297.96 127.053 297.96 128.2C297.96 129.427 297.613 130.493 296.92 131.4C296.253 132.28 295.266 132.973 293.96 133.48C292.68 133.96 291.12 134.2 289.28 134.2ZM303.171 134V113H306.011V134H303.171ZM304.611 108.36C304.024 108.36 303.531 108.16 303.131 107.76C302.731 107.36 302.531 106.88 302.531 106.32C302.531 105.76 302.731 105.293 303.131 104.92C303.531 104.52 304.024 104.32 304.611 104.32C305.198 104.32 305.691 104.507 306.091 104.88C306.491 105.253 306.691 105.72 306.691 106.28C306.691 106.867 306.491 107.36 306.091 107.76C305.718 108.16 305.224 108.36 304.611 108.36ZM332.942 134L320.542 106H323.742L335.342 132.36H333.582L345.262 106H348.262L335.862 134H332.942ZM351.608 134V113H354.448V134H351.608ZM353.048 108.36C352.462 108.36 351.968 108.16 351.568 107.76C351.168 107.36 350.968 106.88 350.968 106.32C350.968 105.76 351.168 105.293 351.568 104.92C351.968 104.52 352.462 104.32 353.048 104.32C353.635 104.32 354.128 104.507 354.528 104.88C354.928 105.253 355.128 105.72 355.128 106.28C355.128 106.867 354.928 107.36 354.528 107.76C354.155 108.16 353.662 108.36 353.048 108.36ZM375.511 134V129.36L375.391 128.6V120.84C375.391 119.053 374.884 117.68 373.871 116.72C372.884 115.76 371.404 115.28 369.431 115.28C368.071 115.28 366.777 115.507 365.551 115.96C364.324 116.413 363.284 117.013 362.431 117.76L361.151 115.64C362.217 114.733 363.497 114.04 364.991 113.56C366.484 113.053 368.057 112.8 369.711 112.8C372.431 112.8 374.524 113.48 375.991 114.84C377.484 116.173 378.231 118.213 378.231 120.96V134H375.511ZM368.271 134.2C366.697 134.2 365.324 133.947 364.151 133.44C363.004 132.907 362.124 132.187 361.511 131.28C360.897 130.347 360.591 129.28 360.591 128.08C360.591 126.987 360.844 126 361.351 125.12C361.884 124.213 362.737 123.493 363.911 122.96C365.111 122.4 366.711 122.12 368.711 122.12H375.951V124.24H368.791C366.764 124.24 365.351 124.6 364.551 125.32C363.777 126.04 363.391 126.933 363.391 128C363.391 129.2 363.857 130.16 364.791 130.88C365.724 131.6 367.031 131.96 368.711 131.96C370.311 131.96 371.684 131.6 372.831 130.88C374.004 130.133 374.857 129.067 375.391 127.68L376.031 129.64C375.497 131.027 374.564 132.133 373.231 132.96C371.924 133.787 370.271 134.2 368.271 134.2ZM119.84 174.24C117.707 174.24 115.733 173.893 113.92 173.2C112.133 172.48 110.573 171.48 109.24 170.2C107.933 168.92 106.907 167.413 106.16 165.68C105.44 163.947 105.08 162.053 105.08 160C105.08 157.947 105.44 156.053 106.16 154.32C106.907 152.587 107.947 151.08 109.28 149.8C110.613 148.52 112.173 147.533 113.96 146.84C115.773 146.12 117.747 145.76 119.88 145.76C122.013 145.76 123.96 146.093 125.72 146.76C127.507 147.427 129.027 148.44 130.28 149.8L128.44 151.68C127.267 150.507 125.973 149.667 124.56 149.16C123.147 148.653 121.627 148.4 120 148.4C118.267 148.4 116.667 148.693 115.2 149.28C113.76 149.84 112.493 150.653 111.4 151.72C110.333 152.76 109.493 153.987 108.88 155.4C108.293 156.787 108 158.32 108 160C108 161.653 108.293 163.187 108.88 164.6C109.493 166.013 110.333 167.253 111.4 168.32C112.493 169.36 113.76 170.173 115.2 170.76C116.667 171.32 118.253 171.6 119.96 171.6C121.56 171.6 123.067 171.36 124.48 170.88C125.92 170.4 127.24 169.587 128.44 168.44L130.12 170.68C128.787 171.853 127.227 172.747 125.44 173.36C123.653 173.947 121.787 174.24 119.84 174.24ZM127.28 170.32V160H130.12V170.68L127.28 170.32ZM146.458 174.2C144.431 174.2 142.604 173.747 140.978 172.84C139.378 171.907 138.111 170.64 137.178 169.04C136.244 167.413 135.778 165.56 135.778 163.48C135.778 161.373 136.244 159.52 137.178 157.92C138.111 156.32 139.378 155.067 140.978 154.16C142.578 153.253 144.404 152.8 146.458 152.8C148.538 152.8 150.378 153.253 151.978 154.16C153.604 155.067 154.871 156.32 155.778 157.92C156.711 159.52 157.178 161.373 157.178 163.48C157.178 165.56 156.711 167.413 155.778 169.04C154.871 170.64 153.604 171.907 151.978 172.84C150.351 173.747 148.511 174.2 146.458 174.2ZM146.458 171.68C147.978 171.68 149.324 171.347 150.498 170.68C151.671 169.987 152.591 169.027 153.258 167.8C153.951 166.547 154.298 165.107 154.298 163.48C154.298 161.827 153.951 160.387 153.258 159.16C152.591 157.933 151.671 156.987 150.498 156.32C149.324 155.627 147.991 155.28 146.498 155.28C145.004 155.28 143.671 155.627 142.498 156.32C141.324 156.987 140.391 157.933 139.698 159.16C139.004 160.387 138.658 161.827 138.658 163.48C138.658 165.107 139.004 166.547 139.698 167.8C140.391 169.027 141.324 169.987 142.498 170.68C143.671 171.347 144.991 171.68 146.458 171.68ZM171.536 174.2C169.509 174.2 167.682 173.747 166.056 172.84C164.456 171.907 163.189 170.64 162.256 169.04C161.322 167.413 160.856 165.56 160.856 163.48C160.856 161.373 161.322 159.52 162.256 157.92C163.189 156.32 164.456 155.067 166.056 154.16C167.656 153.253 169.482 152.8 171.536 152.8C173.616 152.8 175.456 153.253 177.056 154.16C178.682 155.067 179.949 156.32 180.856 157.92C181.789 159.52 182.256 161.373 182.256 163.48C182.256 165.56 181.789 167.413 180.856 169.04C179.949 170.64 178.682 171.907 177.056 172.84C175.429 173.747 173.589 174.2 171.536 174.2ZM171.536 171.68C173.056 171.68 174.402 171.347 175.576 170.68C176.749 169.987 177.669 169.027 178.336 167.8C179.029 166.547 179.376 165.107 179.376 163.48C179.376 161.827 179.029 160.387 178.336 159.16C177.669 157.933 176.749 156.987 175.576 156.32C174.402 155.627 173.069 155.28 171.576 155.28C170.082 155.28 168.749 155.627 167.576 156.32C166.402 156.987 165.469 157.933 164.776 159.16C164.082 160.387 163.736 161.827 163.736 163.48C163.736 165.107 164.082 166.547 164.776 167.8C165.469 169.027 166.402 169.987 167.576 170.68C168.749 171.347 170.069 171.68 171.536 171.68ZM197.014 181.96C195.094 181.96 193.254 181.68 191.494 181.12C189.734 180.56 188.307 179.76 187.214 178.72L188.654 176.56C189.64 177.44 190.854 178.133 192.294 178.64C193.76 179.173 195.307 179.44 196.934 179.44C199.6 179.44 201.56 178.813 202.814 177.56C204.067 176.333 204.694 174.413 204.694 171.8V166.56L205.094 162.96L204.814 159.36V153H207.534V171.44C207.534 175.067 206.64 177.72 204.854 179.4C203.094 181.107 200.48 181.96 197.014 181.96ZM196.494 173.2C194.494 173.2 192.694 172.773 191.094 171.92C189.494 171.04 188.227 169.827 187.294 168.28C186.387 166.733 185.934 164.96 185.934 162.96C185.934 160.96 186.387 159.2 187.294 157.68C188.227 156.133 189.494 154.933 191.094 154.08C192.694 153.227 194.494 152.8 196.494 152.8C198.36 152.8 200.04 153.187 201.534 153.96C203.027 154.733 204.214 155.88 205.094 157.4C205.974 158.92 206.414 160.773 206.414 162.96C206.414 165.147 205.974 167 205.094 168.52C204.214 170.04 203.027 171.2 201.534 172C200.04 172.8 198.36 173.2 196.494 173.2ZM196.774 170.68C198.32 170.68 199.694 170.36 200.894 169.72C202.094 169.053 203.04 168.147 203.734 167C204.427 165.827 204.774 164.48 204.774 162.96C204.774 161.44 204.427 160.107 203.734 158.96C203.04 157.813 202.094 156.92 200.894 156.28C199.694 155.613 198.32 155.28 196.774 155.28C195.254 155.28 193.88 155.613 192.654 156.28C191.454 156.92 190.507 157.813 189.814 158.96C189.147 160.107 188.814 161.44 188.814 162.96C188.814 164.48 189.147 165.827 189.814 167C190.507 168.147 191.454 169.053 192.654 169.72C193.88 170.36 195.254 170.68 196.774 170.68ZM215.437 174V144.32H218.277V174H215.437ZM235.099 174.2C232.912 174.2 230.992 173.747 229.339 172.84C227.685 171.907 226.392 170.64 225.459 169.04C224.525 167.413 224.059 165.56 224.059 163.48C224.059 161.4 224.499 159.56 225.379 157.96C226.285 156.36 227.512 155.107 229.059 154.2C230.632 153.267 232.392 152.8 234.339 152.8C236.312 152.8 238.059 153.253 239.579 154.16C241.125 155.04 242.339 156.293 243.219 157.92C244.099 159.52 244.539 161.373 244.539 163.48C244.539 163.613 244.525 163.76 244.499 163.92C244.499 164.053 244.499 164.2 244.499 164.36H226.219V162.24H242.979L241.859 163.08C241.859 161.56 241.525 160.213 240.859 159.04C240.219 157.84 239.339 156.907 238.219 156.24C237.099 155.573 235.805 155.24 234.339 155.24C232.899 155.24 231.605 155.573 230.459 156.24C229.312 156.907 228.419 157.84 227.779 159.04C227.139 160.24 226.819 161.613 226.819 163.16V163.6C226.819 165.2 227.165 166.613 227.859 167.84C228.579 169.04 229.565 169.987 230.819 170.68C232.099 171.347 233.552 171.68 235.179 171.68C236.459 171.68 237.645 171.453 238.739 171C239.859 170.547 240.819 169.853 241.619 168.92L243.219 170.76C242.285 171.88 241.112 172.733 239.699 173.32C238.312 173.907 236.779 174.2 235.099 174.2ZM261.388 174V146H263.828L276.628 167.84H275.348L288.028 146H290.468V174H287.628V150.44H288.308L276.628 170.44H275.228L263.468 150.44H264.228V174H261.388ZM307.911 174.2C305.725 174.2 303.805 173.747 302.151 172.84C300.498 171.907 299.205 170.64 298.271 169.04C297.338 167.413 296.871 165.56 296.871 163.48C296.871 161.4 297.311 159.56 298.191 157.96C299.098 156.36 300.325 155.107 301.871 154.2C303.445 153.267 305.205 152.8 307.151 152.8C309.125 152.8 310.871 153.253 312.391 154.16C313.938 155.04 315.151 156.293 316.031 157.92C316.911 159.52 317.351 161.373 317.351 163.48C317.351 163.613 317.338 163.76 317.311 163.92C317.311 164.053 317.311 164.2 317.311 164.36H299.031V162.24H315.791L314.671 163.08C314.671 161.56 314.338 160.213 313.671 159.04C313.031 157.84 312.151 156.907 311.031 156.24C309.911 155.573 308.618 155.24 307.151 155.24C305.711 155.24 304.418 155.573 303.271 156.24C302.125 156.907 301.231 157.84 300.591 159.04C299.951 160.24 299.631 161.613 299.631 163.16V163.6C299.631 165.2 299.978 166.613 300.671 167.84C301.391 169.04 302.378 169.987 303.631 170.68C304.911 171.347 306.365 171.68 307.991 171.68C309.271 171.68 310.458 171.453 311.551 171C312.671 170.547 313.631 169.853 314.431 168.92L316.031 170.76C315.098 171.88 313.925 172.733 312.511 173.32C311.125 173.907 309.591 174.2 307.911 174.2ZM332.052 174.2C329.865 174.2 327.945 173.747 326.292 172.84C324.639 171.907 323.345 170.64 322.412 169.04C321.479 167.413 321.012 165.56 321.012 163.48C321.012 161.4 321.452 159.56 322.332 157.96C323.239 156.36 324.465 155.107 326.012 154.2C327.585 153.267 329.345 152.8 331.292 152.8C333.265 152.8 335.012 153.253 336.532 154.16C338.079 155.04 339.292 156.293 340.172 157.92C341.052 159.52 341.492 161.373 341.492 163.48C341.492 163.613 341.479 163.76 341.452 163.92C341.452 164.053 341.452 164.2 341.452 164.36H323.172V162.24H339.932L338.812 163.08C338.812 161.56 338.479 160.213 337.812 159.04C337.172 157.84 336.292 156.907 335.172 156.24C334.052 155.573 332.759 155.24 331.292 155.24C329.852 155.24 328.559 155.573 327.412 156.24C326.265 156.907 325.372 157.84 324.732 159.04C324.092 160.24 323.772 161.613 323.772 163.16V163.6C323.772 165.2 324.119 166.613 324.812 167.84C325.532 169.04 326.519 169.987 327.772 170.68C329.052 171.347 330.505 171.68 332.132 171.68C333.412 171.68 334.599 171.453 335.692 171C336.812 170.547 337.772 169.853 338.572 168.92L340.172 170.76C339.239 171.88 338.065 172.733 336.652 173.32C335.265 173.907 333.732 174.2 332.052 174.2ZM353.913 174.2C351.939 174.2 350.419 173.667 349.353 172.6C348.286 171.533 347.753 170.027 347.753 168.08V148.36H350.593V167.92C350.593 169.147 350.899 170.093 351.513 170.76C352.153 171.427 353.059 171.76 354.233 171.76C355.486 171.76 356.526 171.4 357.353 170.68L358.353 172.72C357.793 173.227 357.113 173.6 356.313 173.84C355.539 174.08 354.739 174.2 353.913 174.2ZM343.993 155.36V153H356.993V155.36H343.993Z" fill="black"/>
<path d="M110.12 232.04L110 228.44L126.96 211H130.36L118 223.96L116.32 225.76L110.12 232.04ZM107.56 239V211H110.52V239H107.56ZM127.68 239L115.6 225.08L117.6 222.92L131.2 239H127.68ZM142.981 239.2C140.954 239.2 139.128 238.747 137.501 237.84C135.901 236.907 134.634 235.64 133.701 234.04C132.768 232.413 132.301 230.56 132.301 228.48C132.301 226.373 132.768 224.52 133.701 222.92C134.634 221.32 135.901 220.067 137.501 219.16C139.101 218.253 140.928 217.8 142.981 217.8C145.061 217.8 146.901 218.253 148.501 219.16C150.128 220.067 151.394 221.32 152.301 222.92C153.234 224.52 153.701 226.373 153.701 228.48C153.701 230.56 153.234 232.413 152.301 234.04C151.394 235.64 150.128 236.907 148.501 237.84C146.874 238.747 145.034 239.2 142.981 239.2ZM142.981 236.68C144.501 236.68 145.848 236.347 147.021 235.68C148.194 234.987 149.114 234.027 149.781 232.8C150.474 231.547 150.821 230.107 150.821 228.48C150.821 226.827 150.474 225.387 149.781 224.16C149.114 222.933 148.194 221.987 147.021 221.32C145.848 220.627 144.514 220.28 143.021 220.28C141.528 220.28 140.194 220.627 139.021 221.32C137.848 221.987 136.914 222.933 136.221 224.16C135.528 225.387 135.181 226.827 135.181 228.48C135.181 230.107 135.528 231.547 136.221 232.8C136.914 234.027 137.848 234.987 139.021 235.68C140.194 236.347 141.514 236.68 142.981 236.68ZM170.219 217.8C171.926 217.8 173.419 218.133 174.699 218.8C176.006 219.44 177.019 220.427 177.739 221.76C178.486 223.093 178.859 224.773 178.859 226.8V239H176.019V227.08C176.019 224.867 175.459 223.2 174.339 222.08C173.246 220.933 171.699 220.36 169.699 220.36C168.206 220.36 166.899 220.667 165.779 221.28C164.686 221.867 163.832 222.733 163.219 223.88C162.632 225 162.339 226.36 162.339 227.96V239H159.499V218H162.219V223.76L161.779 222.68C162.446 221.16 163.512 219.973 164.979 219.12C166.446 218.24 168.192 217.8 170.219 217.8ZM192.17 239.2C190.437 239.2 188.797 238.96 187.25 238.48C185.704 237.973 184.49 237.347 183.61 236.6L184.89 234.36C185.744 235 186.837 235.56 188.17 236.04C189.504 236.493 190.904 236.72 192.37 236.72C194.37 236.72 195.81 236.413 196.69 235.8C197.57 235.16 198.01 234.32 198.01 233.28C198.01 232.507 197.757 231.907 197.25 231.48C196.77 231.027 196.13 230.693 195.33 230.48C194.53 230.24 193.637 230.04 192.65 229.88C191.664 229.72 190.677 229.533 189.69 229.32C188.73 229.107 187.85 228.8 187.05 228.4C186.25 227.973 185.597 227.4 185.09 226.68C184.61 225.96 184.37 225 184.37 223.8C184.37 222.653 184.69 221.627 185.33 220.72C185.97 219.813 186.904 219.107 188.13 218.6C189.384 218.067 190.904 217.8 192.69 217.8C194.05 217.8 195.41 217.987 196.77 218.36C198.13 218.707 199.25 219.173 200.13 219.76L198.89 222.04C197.957 221.4 196.957 220.947 195.89 220.68C194.824 220.387 193.757 220.24 192.69 220.24C190.797 220.24 189.397 220.573 188.49 221.24C187.61 221.88 187.17 222.707 187.17 223.72C187.17 224.52 187.41 225.147 187.89 225.6C188.397 226.053 189.05 226.413 189.85 226.68C190.677 226.92 191.57 227.12 192.53 227.28C193.517 227.44 194.49 227.64 195.45 227.88C196.437 228.093 197.33 228.4 198.13 228.8C198.957 229.173 199.61 229.72 200.09 230.44C200.597 231.133 200.85 232.053 200.85 233.2C200.85 234.427 200.504 235.493 199.81 236.4C199.144 237.28 198.157 237.973 196.85 238.48C195.57 238.96 194.01 239.2 192.17 239.2ZM214.742 239.2C212.955 239.2 211.395 238.867 210.062 238.2C208.728 237.533 207.688 236.533 206.942 235.2C206.222 233.867 205.862 232.2 205.862 230.2V218H208.702V229.88C208.702 232.12 209.248 233.813 210.342 234.96C211.462 236.08 213.022 236.64 215.022 236.64C216.488 236.64 217.755 236.347 218.822 235.76C219.915 235.147 220.742 234.267 221.302 233.12C221.888 231.973 222.182 230.6 222.182 229V218H225.022V239H222.302V233.24L222.742 234.28C222.075 235.827 221.035 237.04 219.622 237.92C218.235 238.773 216.608 239.2 214.742 239.2ZM232.937 239V209.32H235.777V239H232.937ZM250.436 239.2C248.463 239.2 246.943 238.667 245.876 237.6C244.809 236.533 244.276 235.027 244.276 233.08V213.36H247.116V232.92C247.116 234.147 247.423 235.093 248.036 235.76C248.676 236.427 249.583 236.76 250.756 236.76C252.009 236.76 253.049 236.4 253.876 235.68L254.876 237.72C254.316 238.227 253.636 238.6 252.836 238.84C252.063 239.08 251.263 239.2 250.436 239.2ZM240.516 220.36V218H253.516V220.36H240.516ZM273.206 239V234.36L273.086 233.6V225.84C273.086 224.053 272.579 222.68 271.566 221.72C270.579 220.76 269.099 220.28 267.126 220.28C265.766 220.28 264.473 220.507 263.246 220.96C262.019 221.413 260.979 222.013 260.126 222.76L258.846 220.64C259.913 219.733 261.193 219.04 262.686 218.56C264.179 218.053 265.753 217.8 267.406 217.8C270.126 217.8 272.219 218.48 273.686 219.84C275.179 221.173 275.926 223.213 275.926 225.96V239H273.206ZM265.966 239.2C264.393 239.2 263.019 238.947 261.846 238.44C260.699 237.907 259.819 237.187 259.206 236.28C258.593 235.347 258.286 234.28 258.286 233.08C258.286 231.987 258.539 231 259.046 230.12C259.579 229.213 260.433 228.493 261.606 227.96C262.806 227.4 264.406 227.12 266.406 227.12H273.646V229.24H266.486C264.459 229.24 263.046 229.6 262.246 230.32C261.473 231.04 261.086 231.933 261.086 233C261.086 234.2 261.553 235.16 262.486 235.88C263.419 236.6 264.726 236.96 266.406 236.96C268.006 236.96 269.379 236.6 270.526 235.88C271.699 235.133 272.553 234.067 273.086 232.68L273.726 234.64C273.193 236.027 272.259 237.133 270.926 237.96C269.619 238.787 267.966 239.2 265.966 239.2ZM289.28 239.2C287.546 239.2 285.906 238.96 284.36 238.48C282.813 237.973 281.6 237.347 280.72 236.6L282 234.36C282.853 235 283.946 235.56 285.28 236.04C286.613 236.493 288.013 236.72 289.48 236.72C291.48 236.72 292.92 236.413 293.8 235.8C294.68 235.16 295.12 234.32 295.12 233.28C295.12 232.507 294.866 231.907 294.36 231.48C293.88 231.027 293.24 230.693 292.44 230.48C291.64 230.24 290.746 230.04 289.76 229.88C288.773 229.72 287.786 229.533 286.8 229.32C285.84 229.107 284.96 228.8 284.16 228.4C283.36 227.973 282.706 227.4 282.2 226.68C281.72 225.96 281.48 225 281.48 223.8C281.48 222.653 281.8 221.627 282.44 220.72C283.08 219.813 284.013 219.107 285.24 218.6C286.493 218.067 288.013 217.8 289.8 217.8C291.16 217.8 292.52 217.987 293.88 218.36C295.24 218.707 296.36 219.173 297.24 219.76L296 222.04C295.066 221.4 294.066 220.947 293 220.68C291.933 220.387 290.866 220.24 289.8 220.24C287.906 220.24 286.506 220.573 285.6 221.24C284.72 221.88 284.28 222.707 284.28 223.72C284.28 224.52 284.52 225.147 285 225.6C285.506 226.053 286.16 226.413 286.96 226.68C287.786 226.92 288.68 227.12 289.64 227.28C290.626 227.44 291.6 227.64 292.56 227.88C293.546 228.093 294.44 228.4 295.24 228.8C296.066 229.173 296.72 229.72 297.2 230.44C297.706 231.133 297.96 232.053 297.96 233.2C297.96 234.427 297.613 235.493 296.92 236.4C296.253 237.28 295.266 237.973 293.96 238.48C292.68 238.96 291.12 239.2 289.28 239.2ZM303.171 239V218H306.011V239H303.171ZM304.611 213.36C304.024 213.36 303.531 213.16 303.131 212.76C302.731 212.36 302.531 211.88 302.531 211.32C302.531 210.76 302.731 210.293 303.131 209.92C303.531 209.52 304.024 209.32 304.611 209.32C305.198 209.32 305.691 209.507 306.091 209.88C306.491 210.253 306.691 210.72 306.691 211.28C306.691 211.867 306.491 212.36 306.091 212.76C305.718 213.16 305.224 213.36 304.611 213.36ZM330.422 239V213.56H320.582V211H343.222V213.56H333.382V239H330.422ZM359.339 239V234.36L359.219 233.6V225.84C359.219 224.053 358.712 222.68 357.699 221.72C356.712 220.76 355.232 220.28 353.259 220.28C351.899 220.28 350.605 220.507 349.379 220.96C348.152 221.413 347.112 222.013 346.259 222.76L344.979 220.64C346.045 219.733 347.325 219.04 348.819 218.56C350.312 218.053 351.885 217.8 353.539 217.8C356.259 217.8 358.352 218.48 359.819 219.84C361.312 221.173 362.059 223.213 362.059 225.96V239H359.339ZM352.099 239.2C350.525 239.2 349.152 238.947 347.979 238.44C346.832 237.907 345.952 237.187 345.339 236.28C344.725 235.347 344.419 234.28 344.419 233.08C344.419 231.987 344.672 231 345.179 230.12C345.712 229.213 346.565 228.493 347.739 227.96C348.939 227.4 350.539 227.12 352.539 227.12H359.779V229.24H352.619C350.592 229.24 349.179 229.6 348.379 230.32C347.605 231.04 347.219 231.933 347.219 233C347.219 234.2 347.685 235.16 348.619 235.88C349.552 236.6 350.859 236.96 352.539 236.96C354.139 236.96 355.512 236.6 356.659 235.88C357.832 235.133 358.685 234.067 359.219 232.68L359.859 234.64C359.325 236.027 358.392 237.133 357.059 237.96C355.752 238.787 354.099 239.2 352.099 239.2ZM376.413 239.2C374.439 239.2 372.919 238.667 371.853 237.6C370.786 236.533 370.253 235.027 370.253 233.08V213.36H373.093V232.92C373.093 234.147 373.399 235.093 374.013 235.76C374.653 236.427 375.559 236.76 376.733 236.76C377.986 236.76 379.026 236.4 379.853 235.68L380.853 237.72C380.293 238.227 379.613 238.6 378.813 238.84C378.039 239.08 377.239 239.2 376.413 239.2ZM366.493 220.36V218H379.493V220.36H366.493ZM399.183 239V234.36L399.063 233.6V225.84C399.063 224.053 398.556 222.68 397.543 221.72C396.556 220.76 395.076 220.28 393.103 220.28C391.743 220.28 390.449 220.507 389.223 220.96C387.996 221.413 386.956 222.013 386.103 222.76L384.823 220.64C385.889 219.733 387.169 219.04 388.663 218.56C390.156 218.053 391.729 217.8 393.383 217.8C396.103 217.8 398.196 218.48 399.663 219.84C401.156 221.173 401.903 223.213 401.903 225.96V239H399.183ZM391.943 239.2C390.369 239.2 388.996 238.947 387.823 238.44C386.676 237.907 385.796 237.187 385.183 236.28C384.569 235.347 384.263 234.28 384.263 233.08C384.263 231.987 384.516 231 385.023 230.12C385.556 229.213 386.409 228.493 387.583 227.96C388.783 227.4 390.383 227.12 392.383 227.12H399.623V229.24H392.463C390.436 229.24 389.023 229.6 388.223 230.32C387.449 231.04 387.062 231.933 387.062 233C387.062 234.2 387.529 235.16 388.463 235.88C389.396 236.6 390.703 236.96 392.383 236.96C393.983 236.96 395.356 236.6 396.503 235.88C397.676 235.133 398.529 234.067 399.063 232.68L399.703 234.64C399.169 236.027 398.236 237.133 396.903 237.96C395.596 238.787 393.943 239.2 391.943 239.2ZM420.456 239.2C418.643 239.2 417.003 238.787 415.536 237.96C414.07 237.107 412.896 235.893 412.016 234.32C411.163 232.72 410.736 230.773 410.736 228.48C410.736 226.187 411.163 224.253 412.016 222.68C412.87 221.08 414.03 219.867 415.496 219.04C416.963 218.213 418.616 217.8 420.456 217.8C422.456 217.8 424.243 218.253 425.816 219.16C427.416 220.04 428.67 221.293 429.576 222.92C430.483 224.52 430.936 226.373 430.936 228.48C430.936 230.613 430.483 232.48 429.576 234.08C428.67 235.68 427.416 236.933 425.816 237.84C424.243 238.747 422.456 239.2 420.456 239.2ZM409.616 246.76V218H412.336V224.32L412.056 228.52L412.456 232.76V246.76H409.616ZM420.256 236.68C421.75 236.68 423.083 236.347 424.256 235.68C425.43 234.987 426.363 234.027 427.056 232.8C427.75 231.547 428.096 230.107 428.096 228.48C428.096 226.853 427.75 225.427 427.056 224.2C426.363 222.973 425.43 222.013 424.256 221.32C423.083 220.627 421.75 220.28 420.256 220.28C418.763 220.28 417.416 220.627 416.216 221.32C415.043 222.013 414.11 222.973 413.416 224.2C412.75 225.427 412.416 226.853 412.416 228.48C412.416 230.107 412.75 231.547 413.416 232.8C414.11 234.027 415.043 234.987 416.216 235.68C417.416 236.347 418.763 236.68 420.256 236.68ZM107.56 279V251H110L122.8 272.84H121.52L134.2 251H136.64V279H133.8V255.44H134.48L122.8 275.44H121.4L109.64 255.44H110.4V279H107.56ZM153.843 279.2C152.056 279.2 150.496 278.867 149.163 278.2C147.83 277.533 146.79 276.533 146.043 275.2C145.323 273.867 144.963 272.2 144.963 270.2V258H147.803V269.88C147.803 272.12 148.35 273.813 149.443 274.96C150.563 276.08 152.123 276.64 154.123 276.64C155.59 276.64 156.856 276.347 157.923 275.76C159.016 275.147 159.843 274.267 160.403 273.12C160.99 271.973 161.283 270.6 161.283 269V258H164.123V279H161.403V273.24L161.843 274.28C161.176 275.827 160.136 277.04 158.723 277.92C157.336 278.773 155.71 279.2 153.843 279.2ZM174.278 273.56L174.358 269.92L187.438 258H190.918L181.678 266.84L180.078 268.2L174.278 273.56ZM172.038 279V249.32H174.878V279H172.038ZM188.318 279L179.558 268.08L181.398 265.88L191.798 279H188.318ZM208.831 279V274.36L208.711 273.6V265.84C208.711 264.053 208.204 262.68 207.191 261.72C206.204 260.76 204.724 260.28 202.751 260.28C201.391 260.28 200.098 260.507 198.871 260.96C197.644 261.413 196.604 262.013 195.751 262.76L194.471 260.64C195.538 259.733 196.818 259.04 198.311 258.56C199.804 258.053 201.378 257.8 203.031 257.8C205.751 257.8 207.844 258.48 209.311 259.84C210.804 261.173 211.551 263.213 211.551 265.96V279H208.831ZM201.591 279.2C200.018 279.2 198.644 278.947 197.471 278.44C196.324 277.907 195.444 277.187 194.831 276.28C194.218 275.347 193.911 274.28 193.911 273.08C193.911 271.987 194.164 271 194.671 270.12C195.204 269.213 196.058 268.493 197.231 267.96C198.431 267.4 200.031 267.12 202.031 267.12H209.271V269.24H202.111C200.084 269.24 198.671 269.6 197.871 270.32C197.098 271.04 196.711 271.933 196.711 273C196.711 274.2 197.178 275.16 198.111 275.88C199.044 276.6 200.351 276.96 202.031 276.96C203.631 276.96 205.004 276.6 206.151 275.88C207.324 275.133 208.178 274.067 208.711 272.68L209.351 274.64C208.818 276.027 207.884 277.133 206.551 277.96C205.244 278.787 203.591 279.2 201.591 279.2ZM230.333 279V251H233.293V276.44H248.973V279H230.333ZM266.448 279V274.36L266.328 273.6V265.84C266.328 264.053 265.821 262.68 264.808 261.72C263.821 260.76 262.341 260.28 260.368 260.28C259.008 260.28 257.715 260.507 256.488 260.96C255.261 261.413 254.221 262.013 253.368 262.76L252.088 260.64C253.155 259.733 254.435 259.04 255.928 258.56C257.421 258.053 258.995 257.8 260.648 257.8C263.368 257.8 265.461 258.48 266.928 259.84C268.421 261.173 269.168 263.213 269.168 265.96V279H266.448ZM259.208 279.2C257.635 279.2 256.261 278.947 255.088 278.44C253.941 277.907 253.061 277.187 252.448 276.28C251.835 275.347 251.528 274.28 251.528 273.08C251.528 271.987 251.781 271 252.288 270.12C252.821 269.213 253.675 268.493 254.848 267.96C256.048 267.4 257.648 267.12 259.648 267.12H266.888V269.24H259.728C257.701 269.24 256.288 269.6 255.488 270.32C254.715 271.04 254.328 271.933 254.328 273C254.328 274.2 254.795 275.16 255.728 275.88C256.661 276.6 257.968 276.96 259.648 276.96C261.248 276.96 262.621 276.6 263.768 275.88C264.941 275.133 265.795 274.067 266.328 272.68L266.968 274.64C266.435 276.027 265.501 277.133 264.168 277.96C262.861 278.787 261.208 279.2 259.208 279.2ZM287.602 257.8C289.309 257.8 290.802 258.133 292.082 258.8C293.389 259.44 294.402 260.427 295.122 261.76C295.869 263.093 296.242 264.773 296.242 266.8V279H293.402V267.08C293.402 264.867 292.842 263.2 291.722 262.08C290.629 260.933 289.082 260.36 287.082 260.36C285.589 260.36 284.282 260.667 283.162 261.28C282.069 261.867 281.215 262.733 280.602 263.88C280.015 265 279.722 266.36 279.722 267.96V279H276.882V258H279.602V263.76L279.162 262.68C279.829 261.16 280.895 259.973 282.362 259.12C283.829 258.24 285.575 257.8 287.602 257.8ZM312.873 286.96C310.953 286.96 309.113 286.68 307.353 286.12C305.593 285.56 304.166 284.76 303.073 283.72L304.513 281.56C305.5 282.44 306.713 283.133 308.153 283.64C309.62 284.173 311.166 284.44 312.793 284.44C315.46 284.44 317.42 283.813 318.673 282.56C319.926 281.333 320.553 279.413 320.553 276.8V271.56L320.953 267.96L320.673 264.36V258H323.393V276.44C323.393 280.067 322.5 282.72 320.713 284.4C318.953 286.107 316.34 286.96 312.873 286.96ZM312.353 278.2C310.353 278.2 308.553 277.773 306.953 276.92C305.353 276.04 304.086 274.827 303.153 273.28C302.246 271.733 301.793 269.96 301.793 267.96C301.793 265.96 302.246 264.2 303.153 262.68C304.086 261.133 305.353 259.933 306.953 259.08C308.553 258.227 310.353 257.8 312.353 257.8C314.22 257.8 315.9 258.187 317.393 258.96C318.886 259.733 320.073 260.88 320.953 262.4C321.833 263.92 322.273 265.773 322.273 267.96C322.273 270.147 321.833 272 320.953 273.52C320.073 275.04 318.886 276.2 317.393 277C315.9 277.8 314.22 278.2 312.353 278.2ZM312.633 275.68C314.18 275.68 315.553 275.36 316.753 274.72C317.953 274.053 318.9 273.147 319.593 272C320.286 270.827 320.633 269.48 320.633 267.96C320.633 266.44 320.286 265.107 319.593 263.96C318.9 262.813 317.953 261.92 316.753 261.28C315.553 260.613 314.18 260.28 312.633 260.28C311.113 260.28 309.74 260.613 308.513 261.28C307.313 261.92 306.366 262.813 305.673 263.96C305.006 265.107 304.673 266.44 304.673 267.96C304.673 269.48 305.006 270.827 305.673 272C306.366 273.147 307.313 274.053 308.513 274.72C309.74 275.36 311.113 275.68 312.633 275.68ZM336.936 279.2C335.203 279.2 333.563 278.96 332.016 278.48C330.469 277.973 329.256 277.347 328.376 276.6L329.656 274.36C330.509 275 331.603 275.56 332.936 276.04C334.269 276.493 335.669 276.72 337.136 276.72C339.136 276.72 340.576 276.413 341.456 275.8C342.336 275.16 342.776 274.32 342.776 273.28C342.776 272.507 342.523 271.907 342.016 271.48C341.536 271.027 340.896 270.693 340.096 270.48C339.296 270.24 338.403 270.04 337.416 269.88C336.429 269.72 335.443 269.533 334.456 269.32C333.496 269.107 332.616 268.8 331.816 268.4C331.016 267.973 330.363 267.4 329.856 266.68C329.376 265.96 329.136 265 329.136 263.8C329.136 262.653 329.456 261.627 330.096 260.72C330.736 259.813 331.669 259.107 332.896 258.6C334.149 258.067 335.669 257.8 337.456 257.8C338.816 257.8 340.176 257.987 341.536 258.36C342.896 258.707 344.016 259.173 344.896 259.76L343.656 262.04C342.723 261.4 341.723 260.947 340.656 260.68C339.589 260.387 338.523 260.24 337.456 260.24C335.563 260.24 334.163 260.573 333.256 261.24C332.376 261.88 331.936 262.707 331.936 263.72C331.936 264.52 332.176 265.147 332.656 265.6C333.163 266.053 333.816 266.413 334.616 266.68C335.443 266.92 336.336 267.12 337.296 267.28C338.283 267.44 339.256 267.64 340.216 267.88C341.203 268.093 342.096 268.4 342.896 268.8C343.723 269.173 344.376 269.72 344.856 270.44C345.363 271.133 345.616 272.053 345.616 273.2C345.616 274.427 345.269 275.493 344.576 276.4C343.909 277.28 342.923 277.973 341.616 278.48C340.336 278.96 338.776 279.2 336.936 279.2ZM359.507 279.2C357.721 279.2 356.161 278.867 354.827 278.2C353.494 277.533 352.454 276.533 351.707 275.2C350.987 273.867 350.627 272.2 350.627 270.2V258H353.467V269.88C353.467 272.12 354.014 273.813 355.107 274.96C356.227 276.08 357.787 276.64 359.787 276.64C361.254 276.64 362.521 276.347 363.587 275.76C364.681 275.147 365.507 274.267 366.067 273.12C366.654 271.973 366.947 270.6 366.947 269V258H369.787V279H367.067V273.24L367.507 274.28C366.841 275.827 365.801 277.04 364.387 277.92C363.001 278.773 361.374 279.2 359.507 279.2ZM388.422 257.8C390.129 257.8 391.622 258.133 392.902 258.8C394.209 259.44 395.222 260.427 395.942 261.76C396.689 263.093 397.062 264.773 397.062 266.8V279H394.222V267.08C394.222 264.867 393.662 263.2 392.542 262.08C391.449 260.933 389.902 260.36 387.902 260.36C386.409 260.36 385.102 260.667 383.982 261.28C382.889 261.867 382.036 262.733 381.422 263.88C380.836 265 380.542 266.36 380.542 267.96V279H377.702V258H380.422V263.76L379.982 262.68C380.649 261.16 381.716 259.973 383.182 259.12C384.649 258.24 386.396 257.8 388.422 257.8ZM413.693 286.96C411.773 286.96 409.933 286.68 408.173 286.12C406.413 285.56 404.987 284.76 403.893 283.72L405.333 281.56C406.32 282.44 407.533 283.133 408.973 283.64C410.44 284.173 411.987 284.44 413.613 284.44C416.28 284.44 418.24 283.813 419.493 282.56C420.747 281.333 421.373 279.413 421.373 276.8V271.56L421.773 267.96L421.493 264.36V258H424.213V276.44C424.213 280.067 423.32 282.72 421.533 284.4C419.773 286.107 417.16 286.96 413.693 286.96ZM413.173 278.2C411.173 278.2 409.373 277.773 407.773 276.92C406.173 276.04 404.907 274.827 403.973 273.28C403.067 271.733 402.613 269.96 402.613 267.96C402.613 265.96 403.067 264.2 403.973 262.68C404.907 261.133 406.173 259.933 407.773 259.08C409.373 258.227 411.173 257.8 413.173 257.8C415.04 257.8 416.72 258.187 418.213 258.96C419.707 259.733 420.893 260.88 421.773 262.4C422.653 263.92 423.093 265.773 423.093 267.96C423.093 270.147 422.653 272 421.773 273.52C420.893 275.04 419.707 276.2 418.213 277C416.72 277.8 415.04 278.2 413.173 278.2ZM413.453 275.68C415 275.68 416.373 275.36 417.573 274.72C418.773 274.053 419.72 273.147 420.413 272C421.107 270.827 421.453 269.48 421.453 267.96C421.453 266.44 421.107 265.107 420.413 263.96C419.72 262.813 418.773 261.92 417.573 261.28C416.373 260.613 415 260.28 413.453 260.28C411.933 260.28 410.56 260.613 409.333 261.28C408.133 261.92 407.187 262.813 406.493 263.96C405.827 265.107 405.493 266.44 405.493 267.96C405.493 269.48 405.827 270.827 406.493 272C407.187 273.147 408.133 274.053 409.333 274.72C410.56 275.36 411.933 275.68 413.453 275.68Z" fill="black"/>
<path d="M115.28 344.24C113.2 344.24 111.2 343.907 109.28 343.24C107.387 342.547 105.92 341.667 104.88 340.6L106.04 338.32C107.027 339.28 108.347 340.093 110 340.76C111.68 341.4 113.44 341.72 115.28 341.72C117.04 341.72 118.467 341.507 119.56 341.08C120.68 340.627 121.493 340.027 122 339.28C122.533 338.533 122.8 337.707 122.8 336.8C122.8 335.707 122.48 334.827 121.84 334.16C121.227 333.493 120.413 332.973 119.4 332.6C118.387 332.2 117.267 331.853 116.04 331.56C114.813 331.267 113.587 330.96 112.36 330.64C111.133 330.293 110 329.84 108.96 329.28C107.947 328.72 107.12 327.987 106.48 327.08C105.867 326.147 105.56 324.933 105.56 323.44C105.56 322.053 105.92 320.787 106.64 319.64C107.387 318.467 108.52 317.533 110.04 316.84C111.56 316.12 113.507 315.76 115.88 315.76C117.453 315.76 119.013 315.987 120.56 316.44C122.107 316.867 123.44 317.467 124.56 318.24L123.56 320.6C122.36 319.8 121.08 319.213 119.72 318.84C118.387 318.467 117.093 318.28 115.84 318.28C114.16 318.28 112.773 318.507 111.68 318.96C110.587 319.413 109.773 320.027 109.24 320.8C108.733 321.547 108.48 322.4 108.48 323.36C108.48 324.453 108.787 325.333 109.4 326C110.04 326.667 110.867 327.187 111.88 327.56C112.92 327.933 114.053 328.267 115.28 328.56C116.507 328.853 117.72 329.173 118.92 329.52C120.147 329.867 121.267 330.32 122.28 330.88C123.32 331.413 124.147 332.133 124.76 333.04C125.4 333.947 125.72 335.133 125.72 336.6C125.72 337.96 125.347 339.227 124.6 340.4C123.853 341.547 122.707 342.48 121.16 343.2C119.64 343.893 117.68 344.24 115.28 344.24ZM140.489 344.2C138.303 344.2 136.383 343.747 134.729 342.84C133.076 341.907 131.783 340.64 130.849 339.04C129.916 337.413 129.449 335.56 129.449 333.48C129.449 331.4 129.889 329.56 130.769 327.96C131.676 326.36 132.903 325.107 134.449 324.2C136.023 323.267 137.783 322.8 139.729 322.8C141.703 322.8 143.449 323.253 144.969 324.16C146.516 325.04 147.729 326.293 148.609 327.92C149.489 329.52 149.929 331.373 149.929 333.48C149.929 333.613 149.916 333.76 149.889 333.92C149.889 334.053 149.889 334.2 149.889 334.36H131.609V332.24H148.369L147.249 333.08C147.249 331.56 146.916 330.213 146.249 329.04C145.609 327.84 144.729 326.907 143.609 326.24C142.489 325.573 141.196 325.24 139.729 325.24C138.289 325.24 136.996 325.573 135.849 326.24C134.703 326.907 133.809 327.84 133.169 329.04C132.529 330.24 132.209 331.613 132.209 333.16V333.6C132.209 335.2 132.556 336.613 133.249 337.84C133.969 339.04 134.956 339.987 136.209 340.68C137.489 341.347 138.943 341.68 140.569 341.68C141.849 341.68 143.036 341.453 144.129 341C145.249 340.547 146.209 339.853 147.009 338.92L148.609 340.76C147.676 341.88 146.503 342.733 145.089 343.32C143.703 343.907 142.169 344.2 140.489 344.2ZM181.95 322.8C183.657 322.8 185.137 323.133 186.39 323.8C187.67 324.44 188.657 325.427 189.35 326.76C190.07 328.093 190.43 329.773 190.43 331.8V344H187.59V332.08C187.59 329.867 187.057 328.2 185.99 327.08C184.95 325.933 183.47 325.36 181.55 325.36C180.11 325.36 178.857 325.667 177.79 326.28C176.75 326.867 175.937 327.733 175.35 328.88C174.79 330 174.51 331.36 174.51 332.96V344H171.67V332.08C171.67 329.867 171.137 328.2 170.07 327.08C169.003 325.933 167.51 325.36 165.59 325.36C164.177 325.36 162.937 325.667 161.87 326.28C160.803 326.867 159.977 327.733 159.39 328.88C158.83 330 158.55 331.36 158.55 332.96V344H155.71V323H158.43V328.68L157.99 327.68C158.63 326.16 159.657 324.973 161.07 324.12C162.51 323.24 164.203 322.8 166.15 322.8C168.203 322.8 169.95 323.32 171.39 324.36C172.83 325.373 173.763 326.907 174.19 328.96L173.07 328.52C173.683 326.813 174.763 325.44 176.31 324.4C177.883 323.333 179.763 322.8 181.95 322.8ZM198.132 344V323H200.972V344H198.132ZM199.572 318.36C198.985 318.36 198.492 318.16 198.092 317.76C197.692 317.36 197.492 316.88 197.492 316.32C197.492 315.76 197.692 315.293 198.092 314.92C198.492 314.52 198.985 314.32 199.572 314.32C200.159 314.32 200.652 314.507 201.052 314.88C201.452 315.253 201.652 315.72 201.652 316.28C201.652 316.867 201.452 317.36 201.052 317.76C200.679 318.16 200.185 318.36 199.572 318.36ZM219.594 322.8C221.301 322.8 222.794 323.133 224.074 323.8C225.381 324.44 226.394 325.427 227.114 326.76C227.861 328.093 228.234 329.773 228.234 331.8V344H225.394V332.08C225.394 329.867 224.834 328.2 223.714 327.08C222.621 325.933 221.074 325.36 219.074 325.36C217.581 325.36 216.274 325.667 215.154 326.28C214.061 326.867 213.207 327.733 212.594 328.88C212.007 330 211.714 331.36 211.714 332.96V344H208.874V323H211.594V328.76L211.154 327.68C211.821 326.16 212.887 324.973 214.354 324.12C215.821 323.24 217.567 322.8 219.594 322.8ZM249.065 344V339.36L248.945 338.6V330.84C248.945 329.053 248.439 327.68 247.425 326.72C246.439 325.76 244.959 325.28 242.985 325.28C241.625 325.28 240.332 325.507 239.105 325.96C237.879 326.413 236.839 327.013 235.985 327.76L234.705 325.64C235.772 324.733 237.052 324.04 238.545 323.56C240.039 323.053 241.612 322.8 243.265 322.8C245.985 322.8 248.079 323.48 249.545 324.84C251.039 326.173 251.785 328.213 251.785 330.96V344H249.065ZM241.825 344.2C240.252 344.2 238.879 343.947 237.705 343.44C236.559 342.907 235.679 342.187 235.065 341.28C234.452 340.347 234.145 339.28 234.145 338.08C234.145 336.987 234.399 336 234.905 335.12C235.439 334.213 236.292 333.493 237.465 332.96C238.665 332.4 240.265 332.12 242.265 332.12H249.505V334.24H242.345C240.319 334.24 238.905 334.6 238.105 335.32C237.332 336.04 236.945 336.933 236.945 338C236.945 339.2 237.412 340.16 238.345 340.88C239.279 341.6 240.585 341.96 242.265 341.96C243.865 341.96 245.239 341.6 246.385 340.88C247.559 340.133 248.412 339.067 248.945 337.68L249.585 339.64C249.052 341.027 248.119 342.133 246.785 342.96C245.479 343.787 243.825 344.2 241.825 344.2ZM259.499 344V323H262.219V328.72L261.939 327.72C262.526 326.12 263.512 324.907 264.899 324.08C266.286 323.227 268.006 322.8 270.059 322.8V325.56C269.952 325.56 269.846 325.56 269.739 325.56C269.632 325.533 269.526 325.52 269.419 325.52C267.206 325.52 265.472 326.2 264.219 327.56C262.966 328.893 262.339 330.8 262.339 333.28V344H259.499ZM281.062 348L294.263 310.32H296.863L283.663 348H281.062ZM310.49 344V316H320.97C323.343 316 325.383 316.387 327.09 317.16C328.796 317.907 330.103 319 331.01 320.44C331.943 321.853 332.41 323.573 332.41 325.6C332.41 327.573 331.943 329.28 331.01 330.72C330.103 332.133 328.796 333.227 327.09 334C325.383 334.773 323.343 335.16 320.97 335.16H312.13L313.45 333.76V344H310.49ZM313.45 334L312.13 332.56H320.89C323.69 332.56 325.81 331.96 327.25 330.76C328.716 329.533 329.45 327.813 329.45 325.6C329.45 323.36 328.716 321.627 327.25 320.4C325.81 319.173 323.69 318.56 320.89 318.56H312.13L313.45 317.16V334ZM347.013 344.2C344.826 344.2 342.906 343.747 341.253 342.84C339.599 341.907 338.306 340.64 337.373 339.04C336.439 337.413 335.973 335.56 335.973 333.48C335.973 331.4 336.413 329.56 337.293 327.96C338.199 326.36 339.426 325.107 340.973 324.2C342.546 323.267 344.306 322.8 346.253 322.8C348.226 322.8 349.973 323.253 351.493 324.16C353.039 325.04 354.253 326.293 355.133 327.92C356.013 329.52 356.453 331.373 356.453 333.48C356.453 333.613 356.439 333.76 356.413 333.92C356.413 334.053 356.413 334.2 356.413 334.36H338.133V332.24H354.893L353.773 333.08C353.773 331.56 353.439 330.213 352.773 329.04C352.133 327.84 351.253 326.907 350.133 326.24C349.013 325.573 347.719 325.24 346.253 325.24C344.813 325.24 343.519 325.573 342.373 326.24C341.226 326.907 340.333 327.84 339.693 329.04C339.053 330.24 338.733 331.613 338.733 333.16V333.6C338.733 335.2 339.079 336.613 339.773 337.84C340.493 339.04 341.479 339.987 342.733 340.68C344.013 341.347 345.466 341.68 347.093 341.68C348.373 341.68 349.559 341.453 350.653 341C351.773 340.547 352.733 339.853 353.533 338.92L355.133 340.76C354.199 341.88 353.026 342.733 351.613 343.32C350.226 343.907 348.693 344.2 347.013 344.2ZM362.233 344V314.32H365.073V344H362.233ZM386.136 344V339.36L386.016 338.6V330.84C386.016 329.053 385.509 327.68 384.496 326.72C383.509 325.76 382.029 325.28 380.056 325.28C378.696 325.28 377.402 325.507 376.176 325.96C374.949 326.413 373.909 327.013 373.056 327.76L371.776 325.64C372.842 324.733 374.122 324.04 375.616 323.56C377.109 323.053 378.682 322.8 380.336 322.8C383.056 322.8 385.149 323.48 386.616 324.84C388.109 326.173 388.856 328.213 388.856 330.96V344H386.136ZM378.896 344.2C377.322 344.2 375.949 343.947 374.776 343.44C373.629 342.907 372.749 342.187 372.136 341.28C371.522 340.347 371.216 339.28 371.216 338.08C371.216 336.987 371.469 336 371.976 335.12C372.509 334.213 373.362 333.493 374.536 332.96C375.736 332.4 377.336 332.12 379.336 332.12H386.576V334.24H379.416C377.389 334.24 375.976 334.6 375.176 335.32C374.402 336.04 374.016 336.933 374.016 338C374.016 339.2 374.482 340.16 375.416 340.88C376.349 341.6 377.656 341.96 379.336 341.96C380.936 341.96 382.309 341.6 383.456 340.88C384.629 340.133 385.482 339.067 386.016 337.68L386.656 339.64C386.122 341.027 385.189 342.133 383.856 342.96C382.549 343.787 380.896 344.2 378.896 344.2ZM403.209 344.2C401.236 344.2 399.716 343.667 398.649 342.6C397.583 341.533 397.049 340.027 397.049 338.08V318.36H399.889V337.92C399.889 339.147 400.196 340.093 400.809 340.76C401.449 341.427 402.356 341.76 403.529 341.76C404.783 341.76 405.823 341.4 406.649 340.68L407.649 342.72C407.089 343.227 406.409 343.6 405.609 343.84C404.836 344.08 404.036 344.2 403.209 344.2ZM393.289 325.36V323H406.289V325.36H393.289ZM412.819 344V323H415.659V344H412.819ZM414.259 318.36C413.673 318.36 413.179 318.16 412.779 317.76C412.379 317.36 412.179 316.88 412.179 316.32C412.179 315.76 412.379 315.293 412.779 314.92C413.179 314.52 413.673 314.32 414.259 314.32C414.846 314.32 415.339 314.507 415.739 314.88C416.139 315.253 416.339 315.72 416.339 316.28C416.339 316.867 416.139 317.36 415.739 317.76C415.366 318.16 414.873 318.36 414.259 318.36ZM434.282 322.8C435.988 322.8 437.482 323.133 438.762 323.8C440.068 324.44 441.082 325.427 441.802 326.76C442.548 328.093 442.922 329.773 442.922 331.8V344H440.082V332.08C440.082 329.867 439.522 328.2 438.402 327.08C437.308 325.933 435.762 325.36 433.762 325.36C432.268 325.36 430.962 325.667 429.842 326.28C428.748 326.867 427.895 327.733 427.282 328.88C426.695 330 426.402 331.36 426.402 332.96V344H423.562V314.32H426.402V328.76L425.842 327.68C426.508 326.16 427.575 324.973 429.042 324.12C430.508 323.24 432.255 322.8 434.282 322.8ZM463.753 344V339.36L463.633 338.6V330.84C463.633 329.053 463.126 327.68 462.113 326.72C461.126 325.76 459.646 325.28 457.673 325.28C456.313 325.28 455.019 325.507 453.793 325.96C452.566 326.413 451.526 327.013 450.673 327.76L449.393 325.64C450.459 324.733 451.739 324.04 453.233 323.56C454.726 323.053 456.299 322.8 457.953 322.8C460.673 322.8 462.766 323.48 464.233 324.84C465.726 326.173 466.473 328.213 466.473 330.96V344H463.753ZM456.513 344.2C454.939 344.2 453.566 343.947 452.393 343.44C451.246 342.907 450.366 342.187 449.753 341.28C449.139 340.347 448.833 339.28 448.833 338.08C448.833 336.987 449.086 336 449.593 335.12C450.126 334.213 450.979 333.493 452.153 332.96C453.353 332.4 454.953 332.12 456.953 332.12H464.193V334.24H457.033C455.006 334.24 453.593 334.6 452.793 335.32C452.019 336.04 451.633 336.933 451.633 338C451.633 339.2 452.099 340.16 453.033 340.88C453.966 341.6 455.273 341.96 456.953 341.96C458.553 341.96 459.926 341.6 461.073 340.88C462.246 340.133 463.099 339.067 463.633 337.68L464.273 339.64C463.739 341.027 462.806 342.133 461.473 342.96C460.166 343.787 458.513 344.2 456.513 344.2ZM484.907 322.8C486.613 322.8 488.107 323.133 489.387 323.8C490.693 324.44 491.707 325.427 492.427 326.76C493.173 328.093 493.547 329.773 493.547 331.8V344H490.707V332.08C490.707 329.867 490.147 328.2 489.027 327.08C487.933 325.933 486.387 325.36 484.387 325.36C482.893 325.36 481.587 325.667 480.467 326.28C479.373 326.867 478.52 327.733 477.907 328.88C477.32 330 477.027 331.36 477.027 332.96V344H474.187V323H476.907V328.76L476.467 327.68C477.133 326.16 478.2 324.973 479.667 324.12C481.133 323.24 482.88 322.8 484.907 322.8Z" fill="black"/>
<path d="M28.24 154.24C26.08 154.24 24.16 153.68 22.48 152.56C20.8 151.413 19.48 149.787 18.52 147.68C17.56 145.547 17.08 142.987 17.08 140C17.08 137.013 17.56 134.467 18.52 132.36C19.48 130.227 20.8 128.6 22.48 127.48C24.16 126.333 26.08 125.76 28.24 125.76C30.4 125.76 32.32 126.333 34 127.48C35.68 128.6 37 130.227 37.96 132.36C38.9467 134.467 39.44 137.013 39.44 140C39.44 142.987 38.9467 145.547 37.96 147.68C37 149.787 35.68 151.413 34 152.56C32.32 153.68 30.4 154.24 28.24 154.24ZM28.24 151.6C29.8933 151.6 31.3333 151.16 32.56 150.28C33.7867 149.373 34.7467 148.067 35.44 146.36C36.1333 144.627 36.48 142.507 36.48 140C36.48 137.493 36.1333 135.387 35.44 133.68C34.7467 131.947 33.7867 130.64 32.56 129.76C31.3333 128.853 29.8933 128.4 28.24 128.4C26.64 128.4 25.2133 128.853 23.96 129.76C22.7067 130.64 21.7333 131.947 21.04 133.68C20.3467 135.387 20 137.493 20 140C20 142.507 20.3467 144.627 21.04 146.36C21.7333 148.067 22.7067 149.373 23.96 150.28C25.2133 151.16 26.64 151.6 28.24 151.6ZM48.4444 154V127.2L49.7244 128.56H41.8444V126H51.3244V154H48.4444ZM60.1775 154.2C59.5908 154.2 59.0842 153.987 58.6575 153.56C58.2575 153.133 58.0575 152.613 58.0575 152C58.0575 151.36 58.2575 150.84 58.6575 150.44C59.0842 150.04 59.5908 149.84 60.1775 149.84C60.7642 149.84 61.2575 150.04 61.6575 150.44C62.0842 150.84 62.2975 151.36 62.2975 152C62.2975 152.613 62.0842 153.133 61.6575 153.56C61.2575 153.987 60.7642 154.2 60.1775 154.2Z" fill="black"/>
<path d="M28.24 259.24C26.08 259.24 24.16 258.68 22.48 257.56C20.8 256.413 19.48 254.787 18.52 252.68C17.56 250.547 17.08 247.987 17.08 245C17.08 242.013 17.56 239.467 18.52 237.36C19.48 235.227 20.8 233.6 22.48 232.48C24.16 231.333 26.08 230.76 28.24 230.76C30.4 230.76 32.32 231.333 34 232.48C35.68 233.6 37 235.227 37.96 237.36C38.9467 239.467 39.44 242.013 39.44 245C39.44 247.987 38.9467 250.547 37.96 252.68C37 254.787 35.68 256.413 34 257.56C32.32 258.68 30.4 259.24 28.24 259.24ZM28.24 256.6C29.8933 256.6 31.3333 256.16 32.56 255.28C33.7867 254.373 34.7467 253.067 35.44 251.36C36.1333 249.627 36.48 247.507 36.48 245C36.48 242.493 36.1333 240.387 35.44 238.68C34.7467 236.947 33.7867 235.64 32.56 234.76C31.3333 233.853 29.8933 233.4 28.24 233.4C26.64 233.4 25.2133 233.853 23.96 234.76C22.7067 235.64 21.7333 236.947 21.04 238.68C20.3467 240.387 20 242.493 20 245C20 247.507 20.3467 249.627 21.04 251.36C21.7333 253.067 22.7067 254.373 23.96 255.28C25.2133 256.16 26.64 256.6 28.24 256.6ZM43.0444 259V256.96L54.6844 245.56C55.751 244.52 56.551 243.613 57.0844 242.84C57.6177 242.04 57.9777 241.293 58.1644 240.6C58.351 239.907 58.4444 239.253 58.4444 238.64C58.4444 237.013 57.8844 235.733 56.7644 234.8C55.671 233.867 54.0444 233.4 51.8844 233.4C50.231 233.4 48.7644 233.653 47.4844 234.16C46.231 234.667 45.151 235.453 44.2444 236.52L42.2044 234.76C43.2977 233.48 44.6977 232.493 46.4044 231.8C48.111 231.107 50.0177 230.76 52.1244 230.76C54.0177 230.76 55.6577 231.067 57.0444 231.68C58.431 232.267 59.4977 233.133 60.2444 234.28C61.0177 235.427 61.4044 236.773 61.4044 238.32C61.4044 239.227 61.271 240.12 61.0044 241C60.7644 241.88 60.311 242.813 59.6444 243.8C59.0044 244.76 58.0577 245.853 56.8044 247.08L46.1244 257.56L45.3244 256.44H62.6844V259H43.0444ZM68.8494 259.2C68.2627 259.2 67.756 258.987 67.3294 258.56C66.9294 258.133 66.7294 257.613 66.7294 257C66.7294 256.36 66.9294 255.84 67.3294 255.44C67.756 255.04 68.2627 254.84 68.8494 254.84C69.436 254.84 69.9294 255.04 70.3294 255.44C70.756 255.84 70.9694 256.36 70.9694 257C70.9694 257.613 70.756 258.133 70.3294 258.56C69.9294 258.987 69.436 259.2 68.8494 259.2Z" fill="black"/>
<path d="M28.24 344.24C26.08 344.24 24.16 343.68 22.48 342.56C20.8 341.413 19.48 339.787 18.52 337.68C17.56 335.547 17.08 332.987 17.08 330C17.08 327.013 17.56 324.467 18.52 322.36C19.48 320.227 20.8 318.6 22.48 317.48C24.16 316.333 26.08 315.76 28.24 315.76C30.4 315.76 32.32 316.333 34 317.48C35.68 318.6 37 320.227 37.96 322.36C38.9467 324.467 39.44 327.013 39.44 330C39.44 332.987 38.9467 335.547 37.96 337.68C37 339.787 35.68 341.413 34 342.56C32.32 343.68 30.4 344.24 28.24 344.24ZM28.24 341.6C29.8933 341.6 31.3333 341.16 32.56 340.28C33.7867 339.373 34.7467 338.067 35.44 336.36C36.1333 334.627 36.48 332.507 36.48 330C36.48 327.493 36.1333 325.387 35.44 323.68C34.7467 321.947 33.7867 320.64 32.56 319.76C31.3333 318.853 29.8933 318.4 28.24 318.4C26.64 318.4 25.2133 318.853 23.96 319.76C22.7067 320.64 21.7333 321.947 21.04 323.68C20.3467 325.387 20 327.493 20 330C20 332.507 20.3467 334.627 21.04 336.36C21.7333 338.067 22.7067 339.373 23.96 340.28C25.2133 341.16 26.64 341.6 28.24 341.6ZM51.5338 344.24C49.5071 344.24 47.5871 343.92 45.7738 343.28C43.9871 342.613 42.5471 341.733 41.4538 340.64L42.8538 338.36C43.7604 339.293 44.9738 340.067 46.4938 340.68C48.0404 341.293 49.7204 341.6 51.5338 341.6C53.8538 341.6 55.6271 341.093 56.8538 340.08C58.1071 339.067 58.7338 337.707 58.7338 336C58.7338 334.293 58.1204 332.933 56.8938 331.92C55.6938 330.907 53.7871 330.4 51.1738 330.4H49.1738V328.28L57.8138 317.44L58.2138 318.56H42.6138V316H60.6138V318.04L51.9738 328.88L50.5738 327.96H51.6537C55.0138 327.96 57.5204 328.707 59.1738 330.2C60.8538 331.693 61.6938 333.613 61.6938 335.96C61.6938 337.533 61.3204 338.947 60.5738 340.2C59.8271 341.453 58.6938 342.44 57.1738 343.16C55.6804 343.88 53.8004 344.24 51.5338 344.24ZM67.9119 344.2C67.3252 344.2 66.8185 343.987 66.3919 343.56C65.9919 343.133 65.7919 342.613 65.7919 342C65.7919 341.36 65.9919 340.84 66.3919 340.44C66.8185 340.04 67.3252 339.84 67.9119 339.84C68.4985 339.84 68.9919 340.04 69.3919 340.44C69.8185 340.84 70.0319 341.36 70.0319 342C70.0319 342.613 69.8185 343.133 69.3919 343.56C68.9919 343.987 68.4985 344.2 67.9119 344.2Z" fill="black"/>
<path d="M522.56 154V151.96L534.2 140.56C535.267 139.52 536.067 138.613 536.6 137.84C537.133 137.04 537.493 136.293 537.68 135.6C537.867 134.907 537.96 134.253 537.96 133.64C537.96 132.013 537.4 130.733 536.28 129.8C535.187 128.867 533.56 128.4 531.4 128.4C529.747 128.4 528.28 128.653 527 129.16C525.747 129.667 524.667 130.453 523.76 131.52L521.72 129.76C522.813 128.48 524.213 127.493 525.92 126.8C527.627 126.107 529.533 125.76 531.64 125.76C533.533 125.76 535.173 126.067 536.56 126.68C537.947 127.267 539.013 128.133 539.76 129.28C540.533 130.427 540.92 131.773 540.92 133.32C540.92 134.227 540.787 135.12 540.52 136C540.28 136.88 539.827 137.813 539.16 138.8C538.52 139.76 537.573 140.853 536.32 142.08L525.64 152.56L524.84 151.44H542.2V154H522.56ZM554.654 154.24C552.654 154.24 550.748 153.92 548.934 153.28C547.121 152.613 545.681 151.733 544.614 150.64L546.014 148.36C546.894 149.293 548.094 150.067 549.614 150.68C551.161 151.293 552.828 151.6 554.614 151.6C556.988 151.6 558.788 151.08 560.014 150.04C561.268 148.973 561.894 147.587 561.894 145.88C561.894 144.68 561.601 143.653 561.014 142.8C560.454 141.92 559.494 141.24 558.134 140.76C556.774 140.28 554.908 140.04 552.534 140.04H546.574L548.014 126H563.334V128.56H549.174L550.654 127.16L549.414 138.92L547.934 137.48H553.174C556.001 137.48 558.268 137.827 559.974 138.52C561.681 139.213 562.908 140.187 563.654 141.44C564.428 142.667 564.814 144.107 564.814 145.76C564.814 147.333 564.441 148.773 563.694 150.08C562.948 151.36 561.828 152.373 560.334 153.12C558.841 153.867 556.948 154.24 554.654 154.24ZM573.511 147.04L573.391 143.44L590.351 126H593.751L581.391 138.96L579.711 140.76L573.511 147.04ZM570.951 154V126H573.911V154H570.951ZM591.071 154L578.991 140.08L580.991 137.92L594.591 154H591.071ZM604.297 158L617.497 120.32H620.097L606.897 158H604.297ZM636.724 154.24C635.151 154.24 633.671 153.893 632.284 153.2C630.924 152.507 629.831 151.52 629.004 150.24L630.724 148.24C631.497 149.36 632.391 150.213 633.404 150.8C634.417 151.387 635.537 151.68 636.764 151.68C640.231 151.68 641.964 149.627 641.964 145.52V128.56H631.724V126H644.884V145.4C644.884 148.36 644.191 150.573 642.804 152.04C641.444 153.507 639.417 154.24 636.724 154.24ZM666.323 154V149.36L666.203 148.6V140.84C666.203 139.053 665.696 137.68 664.683 136.72C663.696 135.76 662.216 135.28 660.243 135.28C658.883 135.28 657.59 135.507 656.363 135.96C655.136 136.413 654.096 137.013 653.243 137.76L651.963 135.64C653.03 134.733 654.31 134.04 655.803 133.56C657.296 133.053 658.87 132.8 660.523 132.8C663.243 132.8 665.336 133.48 666.803 134.84C668.296 136.173 669.043 138.213 669.043 140.96V154H666.323ZM659.083 154.2C657.51 154.2 656.136 153.947 654.963 153.44C653.816 152.907 652.936 152.187 652.323 151.28C651.71 150.347 651.403 149.28 651.403 148.08C651.403 146.987 651.656 146 652.163 145.12C652.696 144.213 653.55 143.493 654.723 142.96C655.923 142.4 657.523 142.12 659.523 142.12H666.763V144.24H659.603C657.576 144.24 656.163 144.6 655.363 145.32C654.59 146.04 654.203 146.933 654.203 148C654.203 149.2 654.67 150.16 655.603 150.88C656.536 151.6 657.843 151.96 659.523 151.96C661.123 151.96 662.496 151.6 663.643 150.88C664.816 150.133 665.67 149.067 666.203 147.68L666.843 149.64C666.31 151.027 665.376 152.133 664.043 152.96C662.736 153.787 661.083 154.2 659.083 154.2ZM702.997 132.8C704.704 132.8 706.184 133.133 707.437 133.8C708.717 134.44 709.704 135.427 710.397 136.76C711.117 138.093 711.477 139.773 711.477 141.8V154H708.637V142.08C708.637 139.867 708.104 138.2 707.037 137.08C705.997 135.933 704.517 135.36 702.597 135.36C701.157 135.36 699.904 135.667 698.837 136.28C697.797 136.867 696.984 137.733 696.397 138.88C695.837 140 695.557 141.36 695.557 142.96V154H692.717V142.08C692.717 139.867 692.184 138.2 691.117 137.08C690.05 135.933 688.557 135.36 686.637 135.36C685.224 135.36 683.984 135.667 682.917 136.28C681.85 136.867 681.024 137.733 680.437 138.88C679.877 140 679.597 141.36 679.597 142.96V154H676.757V133H679.477V138.68L679.037 137.68C679.677 136.16 680.704 134.973 682.117 134.12C683.557 133.24 685.25 132.8 687.197 132.8C689.25 132.8 690.997 133.32 692.437 134.36C693.877 135.373 694.81 136.907 695.237 138.96L694.117 138.52C694.73 136.813 695.81 135.44 697.357 134.4C698.93 133.333 700.81 132.8 702.997 132.8Z" fill="black"/>
<path d="M529.8 266.76C528.333 264.333 527.187 261.533 526.36 258.36C525.56 255.16 525.16 251.72 525.16 248.04C525.16 244.36 525.56 240.92 526.36 237.72C527.187 234.493 528.333 231.693 529.8 229.32H532.52C530.947 232.067 529.787 234.987 529.04 238.08C528.32 241.147 527.96 244.467 527.96 248.04C527.96 251.613 528.32 254.947 529.04 258.04C529.787 261.107 530.947 264.013 532.52 266.76H529.8ZM550.884 259.24C548.777 259.24 546.831 258.893 545.044 258.2C543.257 257.48 541.711 256.48 540.404 255.2C539.097 253.92 538.071 252.413 537.324 250.68C536.604 248.947 536.244 247.053 536.244 245C536.244 242.947 536.604 241.053 537.324 239.32C538.071 237.587 539.097 236.08 540.404 234.8C541.737 233.52 543.297 232.533 545.084 231.84C546.871 231.12 548.817 230.76 550.924 230.76C552.951 230.76 554.857 231.107 556.644 231.8C558.431 232.467 559.937 233.48 561.164 234.84L559.284 236.72C558.137 235.547 556.871 234.707 555.484 234.2C554.097 233.667 552.604 233.4 551.004 233.4C549.324 233.4 547.764 233.693 546.324 234.28C544.884 234.84 543.631 235.653 542.564 236.72C541.497 237.76 540.657 238.987 540.044 240.4C539.457 241.787 539.164 243.32 539.164 245C539.164 246.68 539.457 248.227 540.044 249.64C540.657 251.027 541.497 252.253 542.564 253.32C543.631 254.36 544.884 255.173 546.324 255.76C547.764 256.32 549.324 256.6 551.004 256.6C552.604 256.6 554.097 256.333 555.484 255.8C556.871 255.267 558.137 254.413 559.284 253.24L561.164 255.12C559.937 256.48 558.431 257.507 556.644 258.2C554.857 258.893 552.937 259.24 550.884 259.24ZM579.722 259V254.36L579.602 253.6V245.84C579.602 244.053 579.095 242.68 578.082 241.72C577.095 240.76 575.615 240.28 573.642 240.28C572.282 240.28 570.988 240.507 569.762 240.96C568.535 241.413 567.495 242.013 566.642 242.76L565.362 240.64C566.428 239.733 567.708 239.04 569.202 238.56C570.695 238.053 572.268 237.8 573.922 237.8C576.642 237.8 578.735 238.48 580.202 239.84C581.695 241.173 582.442 243.213 582.442 245.96V259H579.722ZM572.482 259.2C570.908 259.2 569.535 258.947 568.362 258.44C567.215 257.907 566.335 257.187 565.722 256.28C565.108 255.347 564.802 254.28 564.802 253.08C564.802 251.987 565.055 251 565.562 250.12C566.095 249.213 566.948 248.493 568.122 247.96C569.322 247.4 570.922 247.12 572.922 247.12H580.162V249.24H573.002C570.975 249.24 569.562 249.6 568.762 250.32C567.988 251.04 567.602 251.933 567.602 253C567.602 254.2 568.068 255.16 569.002 255.88C569.935 256.6 571.242 256.96 572.922 256.96C574.522 256.96 575.895 256.6 577.042 255.88C578.215 255.133 579.068 254.067 579.602 252.68L580.242 254.64C579.708 256.027 578.775 257.133 577.442 257.96C576.135 258.787 574.482 259.2 572.482 259.2ZM590.155 259V229.32H592.995V259H590.155ZM600.898 259V229.32H603.738V259H600.898ZM612 266.76H609.28C610.88 264.013 612.04 261.107 612.76 258.04C613.506 254.947 613.88 251.613 613.88 248.04C613.88 244.467 613.506 241.147 612.76 238.08C612.04 234.987 610.88 232.067 609.28 229.32H612C613.52 231.693 614.68 234.493 615.48 237.72C616.28 240.92 616.68 244.36 616.68 248.04C616.68 251.72 616.28 255.16 615.48 258.36C614.68 261.533 613.52 264.333 612 266.76Z" fill="black"/>
<path d="M529.8 351.76C528.333 349.333 527.187 346.533 526.36 343.36C525.56 340.16 525.16 336.72 525.16 333.04C525.16 329.36 525.56 325.92 526.36 322.72C527.187 319.493 528.333 316.693 529.8 314.32H532.52C530.947 317.067 529.787 319.987 529.04 323.08C528.32 326.147 527.96 329.467 527.96 333.04C527.96 336.613 528.32 339.947 529.04 343.04C529.787 346.107 530.947 349.013 532.52 351.76H529.8ZM550.884 344.24C548.777 344.24 546.831 343.893 545.044 343.2C543.257 342.48 541.711 341.48 540.404 340.2C539.097 338.92 538.071 337.413 537.324 335.68C536.604 333.947 536.244 332.053 536.244 330C536.244 327.947 536.604 326.053 537.324 324.32C538.071 322.587 539.097 321.08 540.404 319.8C541.737 318.52 543.297 317.533 545.084 316.84C546.871 316.12 548.817 315.76 550.924 315.76C552.951 315.76 554.857 316.107 556.644 316.8C558.431 317.467 559.937 318.48 561.164 319.84L559.284 321.72C558.137 320.547 556.871 319.707 555.484 319.2C554.097 318.667 552.604 318.4 551.004 318.4C549.324 318.4 547.764 318.693 546.324 319.28C544.884 319.84 543.631 320.653 542.564 321.72C541.497 322.76 540.657 323.987 540.044 325.4C539.457 326.787 539.164 328.32 539.164 330C539.164 331.68 539.457 333.227 540.044 334.64C540.657 336.027 541.497 337.253 542.564 338.32C543.631 339.36 544.884 340.173 546.324 340.76C547.764 341.32 549.324 341.6 551.004 341.6C552.604 341.6 554.097 341.333 555.484 340.8C556.871 340.267 558.137 339.413 559.284 338.24L561.164 340.12C559.937 341.48 558.431 342.507 556.644 343.2C554.857 343.893 552.937 344.24 550.884 344.24ZM579.722 344V339.36L579.602 338.6V330.84C579.602 329.053 579.095 327.68 578.082 326.72C577.095 325.76 575.615 325.28 573.642 325.28C572.282 325.28 570.988 325.507 569.762 325.96C568.535 326.413 567.495 327.013 566.642 327.76L565.362 325.64C566.428 324.733 567.708 324.04 569.202 323.56C570.695 323.053 572.268 322.8 573.922 322.8C576.642 322.8 578.735 323.48 580.202 324.84C581.695 326.173 582.442 328.213 582.442 330.96V344H579.722ZM572.482 344.2C570.908 344.2 569.535 343.947 568.362 343.44C567.215 342.907 566.335 342.187 565.722 341.28C565.108 340.347 564.802 339.28 564.802 338.08C564.802 336.987 565.055 336 565.562 335.12C566.095 334.213 566.948 333.493 568.122 332.96C569.322 332.4 570.922 332.12 572.922 332.12H580.162V334.24H573.002C570.975 334.24 569.562 334.6 568.762 335.32C567.988 336.04 567.602 336.933 567.602 338C567.602 339.2 568.068 340.16 569.002 340.88C569.935 341.6 571.242 341.96 572.922 341.96C574.522 341.96 575.895 341.6 577.042 340.88C578.215 340.133 579.068 339.067 579.602 337.68L580.242 339.64C579.708 341.027 578.775 342.133 577.442 342.96C576.135 343.787 574.482 344.2 572.482 344.2ZM590.155 344V314.32H592.995V344H590.155ZM600.898 344V314.32H603.738V344H600.898ZM612 351.76H609.28C610.88 349.013 612.04 346.107 612.76 343.04C613.506 339.947 613.88 336.613 613.88 333.04C613.88 329.467 613.506 326.147 612.76 323.08C612.04 319.987 610.88 317.067 609.28 314.32H612C613.52 316.693 614.68 319.493 615.48 322.72C616.28 325.92 616.68 329.36 616.68 333.04C616.68 336.72 616.28 340.16 615.48 343.36C614.68 346.533 613.52 349.333 612 351.76Z" fill="black"/>
</svg>
