<svg width="858" height="312" viewBox="0 0 858 312" fill="none" xmlns="http://www.w3.org/2000/svg">
<rect x="2" y="2" width="87" height="86" fill="#343434" stroke="#343434" stroke-width="4"/>
<rect width="419" height="86" transform="matrix(-1 0 0 1 508 2)" fill="#343434" stroke="#343434" stroke-width="4"/>
<rect x="508" y="2" width="348" height="86" fill="#343434" stroke="#343434" stroke-width="4"/>
<path d="M13.32 58V30H18.68L35.2 50.16H32.6V30H39V58H33.68L17.12 37.84H19.72V58H13.32ZM55.4247 58.32C53.1314 58.32 51.0914 57.84 49.3047 56.88C47.5447 55.92 46.1447 54.6133 45.1047 52.96C44.0914 51.28 43.5847 49.3733 43.5847 47.24C43.5847 45.08 44.0914 43.1733 45.1047 41.52C46.1447 39.84 47.5447 38.5333 49.3047 37.6C51.0914 36.64 53.1314 36.16 55.4247 36.16C57.6914 36.16 59.718 36.64 61.5047 37.6C63.2914 38.5333 64.6914 39.8267 65.7047 41.48C66.718 43.1333 67.2247 45.0533 67.2247 47.24C67.2247 49.3733 66.718 51.28 65.7047 52.96C64.6914 54.6133 63.2914 55.92 61.5047 56.88C59.718 57.84 57.6914 58.32 55.4247 58.32ZM55.4247 53.2C56.4647 53.2 57.398 52.96 58.2247 52.48C59.0514 52 59.7047 51.32 60.1847 50.44C60.6647 49.5333 60.9047 48.4667 60.9047 47.24C60.9047 45.9867 60.6647 44.92 60.1847 44.04C59.7047 43.16 59.0514 42.48 58.2247 42C57.398 41.52 56.4647 41.28 55.4247 41.28C54.3847 41.28 53.4514 41.52 52.6247 42C51.798 42.48 51.1314 43.16 50.6247 44.04C50.1447 44.92 49.9047 45.9867 49.9047 47.24C49.9047 48.4667 50.1447 49.5333 50.6247 50.44C51.1314 51.32 51.798 52 52.6247 52.48C53.4514 52.96 54.3847 53.2 55.4247 53.2ZM73.5213 58.32C72.4546 58.32 71.5346 57.96 70.7613 57.24C70.0146 56.4933 69.6413 55.5467 69.6413 54.4C69.6413 53.2533 70.0146 52.3333 70.7613 51.64C71.5346 50.92 72.4546 50.56 73.5213 50.56C74.6146 50.56 75.5346 50.92 76.2813 51.64C77.0279 52.3333 77.4013 53.2533 77.4013 54.4C77.4013 55.5467 77.0279 56.4933 76.2813 57.24C75.5346 57.96 74.6146 58.32 73.5213 58.32Z" fill="white"/>
<path d="M106.32 58V30H111.68L128.2 50.16H125.6V30H132V58H126.68L110.12 37.84H112.72V58H106.32ZM151.385 58V53.8L150.985 52.88V45.36C150.985 44.0267 150.571 42.9867 149.745 42.24C148.945 41.4933 147.705 41.12 146.025 41.12C144.878 41.12 143.745 41.3067 142.625 41.68C141.531 42.0267 140.598 42.5067 139.825 43.12L137.585 38.76C138.758 37.9333 140.171 37.2933 141.825 36.84C143.478 36.3867 145.158 36.16 146.865 36.16C150.145 36.16 152.691 36.9333 154.505 38.48C156.318 40.0267 157.225 42.44 157.225 45.72V58H151.385ZM144.825 58.32C143.145 58.32 141.705 58.04 140.505 57.48C139.305 56.8933 138.385 56.1067 137.745 55.12C137.105 54.1333 136.785 53.0267 136.785 51.8C136.785 50.52 137.091 49.4 137.705 48.44C138.345 47.48 139.345 46.7333 140.705 46.2C142.065 45.64 143.838 45.36 146.025 45.36H151.745V49H146.705C145.238 49 144.225 49.24 143.665 49.72C143.131 50.2 142.865 50.8 142.865 51.52C142.865 52.32 143.171 52.96 143.785 53.44C144.425 53.8933 145.291 54.12 146.385 54.12C147.425 54.12 148.358 53.88 149.185 53.4C150.011 52.8933 150.611 52.16 150.985 51.2L151.945 54.08C151.491 55.4667 150.665 56.52 149.465 57.24C148.265 57.96 146.718 58.32 144.825 58.32ZM190.432 36.16C192.139 36.16 193.646 36.5067 194.952 37.2C196.286 37.8667 197.326 38.9067 198.072 40.32C198.846 41.7067 199.232 43.4933 199.232 45.68V58H192.992V46.64C192.992 44.9067 192.632 43.6267 191.912 42.8C191.192 41.9733 190.179 41.56 188.872 41.56C187.966 41.56 187.152 41.7733 186.432 42.2C185.712 42.6 185.152 43.2133 184.752 44.04C184.352 44.8667 184.152 45.92 184.152 47.2V58H177.912V46.64C177.912 44.9067 177.552 43.6267 176.832 42.8C176.139 41.9733 175.139 41.56 173.832 41.56C172.926 41.56 172.112 41.7733 171.392 42.2C170.672 42.6 170.112 43.2133 169.712 44.04C169.312 44.8667 169.112 45.92 169.112 47.2V58H162.872V36.48H168.832V42.36L167.712 40.64C168.459 39.1733 169.512 38.0667 170.872 37.32C172.259 36.5467 173.832 36.16 175.592 36.16C177.566 36.16 179.286 36.6667 180.752 37.68C182.246 38.6667 183.232 40.1867 183.712 42.24L181.512 41.64C182.232 39.96 183.379 38.6267 184.952 37.64C186.552 36.6533 188.379 36.16 190.432 36.16ZM218.025 58V53.8L217.625 52.88V45.36C217.625 44.0267 217.212 42.9867 216.385 42.24C215.585 41.4933 214.345 41.12 212.665 41.12C211.519 41.12 210.385 41.3067 209.265 41.68C208.172 42.0267 207.239 42.5067 206.465 43.12L204.225 38.76C205.399 37.9333 206.812 37.2933 208.465 36.84C210.119 36.3867 211.799 36.16 213.505 36.16C216.785 36.16 219.332 36.9333 221.145 38.48C222.959 40.0267 223.865 42.44 223.865 45.72V58H218.025ZM211.465 58.32C209.785 58.32 208.345 58.04 207.145 57.48C205.945 56.8933 205.025 56.1067 204.385 55.12C203.745 54.1333 203.425 53.0267 203.425 51.8C203.425 50.52 203.732 49.4 204.345 48.44C204.985 47.48 205.985 46.7333 207.345 46.2C208.705 45.64 210.479 45.36 212.665 45.36H218.385V49H213.345C211.879 49 210.865 49.24 210.305 49.72C209.772 50.2 209.505 50.8 209.505 51.52C209.505 52.32 209.812 52.96 210.425 53.44C211.065 53.8933 211.932 54.12 213.025 54.12C214.065 54.12 214.999 53.88 215.825 53.4C216.652 52.8933 217.252 52.16 217.625 51.2L218.585 54.08C218.132 55.4667 217.305 56.52 216.105 57.24C214.905 57.96 213.359 58.32 211.465 58.32ZM241.281 58V30H247.761V52.72H261.801V58H241.281ZM278.338 58V53.8L277.938 52.88V45.36C277.938 44.0267 277.524 42.9867 276.698 42.24C275.898 41.4933 274.658 41.12 272.978 41.12C271.831 41.12 270.698 41.3067 269.578 41.68C268.484 42.0267 267.551 42.5067 266.778 43.12L264.538 38.76C265.711 37.9333 267.124 37.2933 268.778 36.84C270.431 36.3867 272.111 36.16 273.818 36.16C277.098 36.16 279.644 36.9333 281.458 38.48C283.271 40.0267 284.178 42.44 284.178 45.72V58H278.338ZM271.778 58.32C270.098 58.32 268.658 58.04 267.458 57.48C266.258 56.8933 265.338 56.1067 264.698 55.12C264.058 54.1333 263.738 53.0267 263.738 51.8C263.738 50.52 264.044 49.4 264.658 48.44C265.298 47.48 266.298 46.7333 267.658 46.2C269.018 45.64 270.791 45.36 272.978 45.36H278.698V49H273.658C272.191 49 271.178 49.24 270.618 49.72C270.084 50.2 269.818 50.8 269.818 51.52C269.818 52.32 270.124 52.96 270.738 53.44C271.378 53.8933 272.244 54.12 273.338 54.12C274.378 54.12 275.311 53.88 276.138 53.4C276.964 52.8933 277.564 52.16 277.938 51.2L278.898 54.08C278.444 55.4667 277.618 56.52 276.418 57.24C275.218 57.96 273.671 58.32 271.778 58.32ZM292.155 66.08C291.035 66.08 289.928 65.9067 288.835 65.56C287.741 65.2133 286.848 64.7333 286.155 64.12L288.435 59.68C288.915 60.1067 289.461 60.44 290.075 60.68C290.715 60.92 291.341 61.04 291.955 61.04C292.835 61.04 293.528 60.8267 294.035 60.4C294.568 60 295.048 59.32 295.475 58.36L296.595 55.72L297.075 55.04L304.795 36.48H310.795L301.075 59.32C300.381 61.0533 299.581 62.4133 298.675 63.4C297.795 64.3867 296.808 65.08 295.715 65.48C294.648 65.88 293.461 66.08 292.155 66.08ZM295.835 58.84L286.235 36.48H292.675L300.115 54.48L295.835 58.84ZM325.838 58V53.8L325.438 52.88V45.36C325.438 44.0267 325.024 42.9867 324.198 42.24C323.398 41.4933 322.158 41.12 320.478 41.12C319.331 41.12 318.198 41.3067 317.078 41.68C315.984 42.0267 315.051 42.5067 314.278 43.12L312.038 38.76C313.211 37.9333 314.624 37.2933 316.278 36.84C317.931 36.3867 319.611 36.16 321.318 36.16C324.598 36.16 327.144 36.9333 328.958 38.48C330.771 40.0267 331.678 42.44 331.678 45.72V58H325.838ZM319.278 58.32C317.598 58.32 316.158 58.04 314.958 57.48C313.758 56.8933 312.838 56.1067 312.198 55.12C311.558 54.1333 311.238 53.0267 311.238 51.8C311.238 50.52 311.544 49.4 312.158 48.44C312.798 47.48 313.798 46.7333 315.158 46.2C316.518 45.64 318.291 45.36 320.478 45.36H326.198V49H321.158C319.691 49 318.678 49.24 318.118 49.72C317.584 50.2 317.318 50.8 317.318 51.52C317.318 52.32 317.624 52.96 318.238 53.44C318.878 53.8933 319.744 54.12 320.838 54.12C321.878 54.12 322.811 53.88 323.638 53.4C324.464 52.8933 325.064 52.16 325.438 51.2L326.398 54.08C325.944 55.4667 325.118 56.52 323.918 57.24C322.718 57.96 321.171 58.32 319.278 58.32ZM350.405 36.16C352.112 36.16 353.632 36.5067 354.965 37.2C356.325 37.8667 357.392 38.9067 358.165 40.32C358.939 41.7067 359.325 43.4933 359.325 45.68V58H353.085V46.64C353.085 44.9067 352.699 43.6267 351.925 42.8C351.179 41.9733 350.112 41.56 348.725 41.56C347.739 41.56 346.845 41.7733 346.045 42.2C345.272 42.6 344.659 43.2267 344.205 44.08C343.779 44.9333 343.565 46.0267 343.565 47.36V58H337.325V36.48H343.285V42.44L342.165 40.64C342.939 39.2 344.045 38.0933 345.485 37.32C346.925 36.5467 348.565 36.16 350.405 36.16ZM378.182 58V53.8L377.782 52.88V45.36C377.782 44.0267 377.368 42.9867 376.542 42.24C375.742 41.4933 374.502 41.12 372.822 41.12C371.675 41.12 370.542 41.3067 369.422 41.68C368.328 42.0267 367.395 42.5067 366.622 43.12L364.382 38.76C365.555 37.9333 366.968 37.2933 368.622 36.84C370.275 36.3867 371.955 36.16 373.662 36.16C376.942 36.16 379.488 36.9333 381.302 38.48C383.115 40.0267 384.022 42.44 384.022 45.72V58H378.182ZM371.622 58.32C369.942 58.32 368.502 58.04 367.302 57.48C366.102 56.8933 365.182 56.1067 364.542 55.12C363.902 54.1333 363.582 53.0267 363.582 51.8C363.582 50.52 363.888 49.4 364.502 48.44C365.142 47.48 366.142 46.7333 367.502 46.2C368.862 45.64 370.635 45.36 372.822 45.36H378.542V49H373.502C372.035 49 371.022 49.24 370.462 49.72C369.928 50.2 369.662 50.8 369.662 51.52C369.662 52.32 369.968 52.96 370.582 53.44C371.222 53.8933 372.088 54.12 373.182 54.12C374.222 54.12 375.155 53.88 375.982 53.4C376.808 52.8933 377.408 52.16 377.782 51.2L378.742 54.08C378.288 55.4667 377.462 56.52 376.262 57.24C375.062 57.96 373.515 58.32 371.622 58.32ZM402.749 36.16C404.456 36.16 405.976 36.5067 407.309 37.2C408.669 37.8667 409.736 38.9067 410.509 40.32C411.282 41.7067 411.669 43.4933 411.669 45.68V58H405.429V46.64C405.429 44.9067 405.042 43.6267 404.269 42.8C403.522 41.9733 402.456 41.56 401.069 41.56C400.082 41.56 399.189 41.7733 398.389 42.2C397.616 42.6 397.002 43.2267 396.549 44.08C396.122 44.9333 395.909 46.0267 395.909 47.36V58H389.669V36.48H395.629V42.44L394.509 40.64C395.282 39.2 396.389 38.0933 397.829 37.32C399.269 36.5467 400.909 36.16 402.749 36.16Z" fill="white"/>
<path d="M524.32 58V30H538C541.52 30 544.16 30.6667 545.92 32C547.707 33.3333 548.6 35.0933 548.6 37.28C548.6 38.7467 548.24 40.0267 547.52 41.12C546.8 42.1867 545.813 43.0133 544.56 43.6C543.307 44.1867 541.867 44.48 540.24 44.48L541 42.84C542.76 42.84 544.32 43.1333 545.68 43.72C547.04 44.28 548.093 45.12 548.84 46.24C549.613 47.36 550 48.7333 550 50.36C550 52.76 549.053 54.64 547.16 56C545.267 57.3333 542.48 58 538.8 58H524.32ZM530.76 53.12H538.32C540 53.12 541.267 52.8533 542.12 52.32C543 51.76 543.44 50.88 543.44 49.68C543.44 48.5067 543 47.64 542.12 47.08C541.267 46.4933 540 46.2 538.32 46.2H530.28V41.48H537.2C538.773 41.48 539.973 41.2133 540.8 40.68C541.653 40.12 542.08 39.28 542.08 38.16C542.08 37.0667 541.653 36.2533 540.8 35.72C539.973 35.16 538.773 34.88 537.2 34.88H530.76V53.12ZM554.466 58V36.48H560.706V58H554.466ZM557.586 33.48C556.439 33.48 555.506 33.1467 554.786 32.48C554.066 31.8133 553.706 30.9867 553.706 30C553.706 29.0133 554.066 28.1867 554.786 27.52C555.506 26.8533 556.439 26.52 557.586 26.52C558.733 26.52 559.666 26.84 560.386 27.48C561.106 28.0933 561.466 28.8933 561.466 29.88C561.466 30.92 561.106 31.7867 560.386 32.48C559.693 33.1467 558.759 33.48 557.586 33.48ZM579.697 58V53.8L579.297 52.88V45.36C579.297 44.0267 578.884 42.9867 578.057 42.24C577.257 41.4933 576.017 41.12 574.337 41.12C573.191 41.12 572.057 41.3067 570.937 41.68C569.844 42.0267 568.911 42.5067 568.137 43.12L565.897 38.76C567.071 37.9333 568.484 37.2933 570.137 36.84C571.791 36.3867 573.471 36.16 575.177 36.16C578.457 36.16 581.004 36.9333 582.817 38.48C584.631 40.0267 585.537 42.44 585.537 45.72V58H579.697ZM573.137 58.32C571.457 58.32 570.017 58.04 568.817 57.48C567.617 56.8933 566.697 56.1067 566.057 55.12C565.417 54.1333 565.097 53.0267 565.097 51.8C565.097 50.52 565.404 49.4 566.017 48.44C566.657 47.48 567.657 46.7333 569.017 46.2C570.377 45.64 572.151 45.36 574.337 45.36H580.057V49H575.017C573.551 49 572.537 49.24 571.977 49.72C571.444 50.2 571.177 50.8 571.177 51.52C571.177 52.32 571.484 52.96 572.097 53.44C572.737 53.8933 573.604 54.12 574.697 54.12C575.737 54.12 576.671 53.88 577.497 53.4C578.324 52.8933 578.924 52.16 579.297 51.2L580.257 54.08C579.804 55.4667 578.977 56.52 577.777 57.24C576.577 57.96 575.031 58.32 573.137 58.32ZM593.514 66.08C592.394 66.08 591.287 65.9067 590.194 65.56C589.101 65.2133 588.207 64.7333 587.514 64.12L589.794 59.68C590.274 60.1067 590.821 60.44 591.434 60.68C592.074 60.92 592.701 61.04 593.314 61.04C594.194 61.04 594.887 60.8267 595.394 60.4C595.927 60 596.407 59.32 596.834 58.36L597.954 55.72L598.434 55.04L606.154 36.48H612.154L602.434 59.32C601.741 61.0533 600.941 62.4133 600.034 63.4C599.154 64.3867 598.167 65.08 597.074 65.48C596.007 65.88 594.821 66.08 593.514 66.08ZM597.194 58.84L587.594 36.48H594.034L601.474 54.48L597.194 58.84ZM627.197 58V53.8L626.797 52.88V45.36C626.797 44.0267 626.384 42.9867 625.557 42.24C624.757 41.4933 623.517 41.12 621.837 41.12C620.691 41.12 619.557 41.3067 618.437 41.68C617.344 42.0267 616.411 42.5067 615.637 43.12L613.397 38.76C614.571 37.9333 615.984 37.2933 617.637 36.84C619.291 36.3867 620.971 36.16 622.677 36.16C625.957 36.16 628.504 36.9333 630.317 38.48C632.131 40.0267 633.037 42.44 633.037 45.72V58H627.197ZM620.637 58.32C618.957 58.32 617.517 58.04 616.317 57.48C615.117 56.8933 614.197 56.1067 613.557 55.12C612.917 54.1333 612.597 53.0267 612.597 51.8C612.597 50.52 612.904 49.4 613.517 48.44C614.157 47.48 615.157 46.7333 616.517 46.2C617.877 45.64 619.651 45.36 621.837 45.36H627.557V49H622.517C621.051 49 620.037 49.24 619.477 49.72C618.944 50.2 618.677 50.8 618.677 51.52C618.677 52.32 618.984 52.96 619.597 53.44C620.237 53.8933 621.104 54.12 622.197 54.12C623.237 54.12 624.171 53.88 624.997 53.4C625.824 52.8933 626.424 52.16 626.797 51.2L627.757 54.08C627.304 55.4667 626.477 56.52 625.277 57.24C624.077 57.96 622.531 58.32 620.637 58.32Z" fill="white"/>
<rect x="2" y="199" width="87" height="111" stroke="#343434" stroke-width="4"/>
<rect x="2" y="88" width="87" height="111" stroke="#343434" stroke-width="4"/>
<rect x="89" y="199" width="419" height="111" stroke="#343434" stroke-width="4"/>
<rect x="89" y="88" width="419" height="111" stroke="#343434" stroke-width="4"/>
<rect x="508" y="199" width="348" height="111" stroke="#343434" stroke-width="4"/>
<rect x="508" y="88" width="348" height="111" stroke="#343434" stroke-width="4"/>
<path d="M107.56 247V219H118.04C120.413 219 122.453 219.387 124.16 220.16C125.867 220.907 127.173 222 128.08 223.44C129.013 224.853 129.48 226.573 129.48 228.6C129.48 230.573 129.013 232.28 128.08 233.72C127.173 235.133 125.867 236.227 124.16 237C122.453 237.773 120.413 238.16 118.04 238.16H109.2L110.52 236.76V247H107.56ZM110.52 237L109.2 235.56H117.96C120.76 235.56 122.88 234.96 124.32 233.76C125.787 232.533 126.52 230.813 126.52 228.6C126.52 226.36 125.787 224.627 124.32 223.4C122.88 222.173 120.76 221.56 117.96 221.56H109.2L110.52 220.16V237ZM144.083 247.2C141.896 247.2 139.976 246.747 138.323 245.84C136.67 244.907 135.376 243.64 134.443 242.04C133.51 240.413 133.043 238.56 133.043 236.48C133.043 234.4 133.483 232.56 134.363 230.96C135.27 229.36 136.496 228.107 138.043 227.2C139.616 226.267 141.376 225.8 143.323 225.8C145.296 225.8 147.043 226.253 148.563 227.16C150.11 228.04 151.323 229.293 152.203 230.92C153.083 232.52 153.523 234.373 153.523 236.48C153.523 236.613 153.51 236.76 153.483 236.92C153.483 237.053 153.483 237.2 153.483 237.36H135.203V235.24H151.963L150.843 236.08C150.843 234.56 150.51 233.213 149.843 232.04C149.203 230.84 148.323 229.907 147.203 229.24C146.083 228.573 144.79 228.24 143.323 228.24C141.883 228.24 140.59 228.573 139.443 229.24C138.296 229.907 137.403 230.84 136.763 232.04C136.123 233.24 135.803 234.613 135.803 236.16V236.6C135.803 238.2 136.15 239.613 136.843 240.84C137.563 242.04 138.55 242.987 139.803 243.68C141.083 244.347 142.536 244.68 144.163 244.68C145.443 244.68 146.63 244.453 147.723 244C148.843 243.547 149.803 242.853 150.603 241.92L152.203 243.76C151.27 244.88 150.096 245.733 148.683 246.32C147.296 246.907 145.763 247.2 144.083 247.2ZM185.544 225.8C187.25 225.8 188.73 226.133 189.984 226.8C191.264 227.44 192.25 228.427 192.944 229.76C193.664 231.093 194.024 232.773 194.024 234.8V247H191.184V235.08C191.184 232.867 190.65 231.2 189.584 230.08C188.544 228.933 187.064 228.36 185.144 228.36C183.704 228.36 182.45 228.667 181.384 229.28C180.344 229.867 179.53 230.733 178.944 231.88C178.384 233 178.104 234.36 178.104 235.96V247H175.264V235.08C175.264 232.867 174.73 231.2 173.664 230.08C172.597 228.933 171.104 228.36 169.184 228.36C167.77 228.36 166.53 228.667 165.464 229.28C164.397 229.867 163.57 230.733 162.984 231.88C162.424 233 162.144 234.36 162.144 235.96V247H159.304V226H162.024V231.68L161.584 230.68C162.224 229.16 163.25 227.973 164.664 227.12C166.104 226.24 167.797 225.8 169.744 225.8C171.797 225.8 173.544 226.32 174.984 227.36C176.424 228.373 177.357 229.907 177.784 231.96L176.664 231.52C177.277 229.813 178.357 228.44 179.904 227.4C181.477 226.333 183.357 225.8 185.544 225.8ZM212.566 247.2C210.726 247.2 209.072 246.787 207.606 245.96C206.139 245.107 204.979 243.88 204.126 242.28C203.272 240.68 202.846 238.747 202.846 236.48C202.846 234.187 203.272 232.253 204.126 230.68C205.006 229.08 206.179 227.867 207.646 227.04C209.112 226.213 210.752 225.8 212.566 225.8C214.566 225.8 216.352 226.253 217.926 227.16C219.526 228.04 220.779 229.28 221.686 230.88C222.592 232.48 223.046 234.347 223.046 236.48C223.046 238.587 222.592 240.453 221.686 242.08C220.779 243.68 219.526 244.933 217.926 245.84C216.352 246.747 214.566 247.2 212.566 247.2ZM201.726 247V217.32H204.566V232.2L204.166 236.44L204.446 240.68V247H201.726ZM212.366 244.68C213.859 244.68 215.192 244.347 216.366 243.68C217.539 242.987 218.472 242.027 219.166 240.8C219.859 239.547 220.206 238.107 220.206 236.48C220.206 234.827 219.859 233.387 219.166 232.16C218.472 230.933 217.539 229.987 216.366 229.32C215.192 228.627 213.859 228.28 212.366 228.28C210.872 228.28 209.526 228.627 208.326 229.32C207.152 229.987 206.219 230.933 205.526 232.16C204.859 233.387 204.526 234.827 204.526 236.48C204.526 238.107 204.859 239.547 205.526 240.8C206.219 242.027 207.152 242.987 208.326 243.68C209.526 244.347 210.872 244.68 212.366 244.68ZM237.515 247.2C235.728 247.2 234.168 246.867 232.835 246.2C231.502 245.533 230.462 244.533 229.715 243.2C228.995 241.867 228.635 240.2 228.635 238.2V226H231.475V237.88C231.475 240.12 232.022 241.813 233.115 242.96C234.235 244.08 235.795 244.64 237.795 244.64C239.262 244.64 240.528 244.347 241.595 243.76C242.688 243.147 243.515 242.267 244.075 241.12C244.662 239.973 244.955 238.6 244.955 237V226H247.795V247H245.075V241.24L245.515 242.28C244.848 243.827 243.808 245.04 242.395 245.92C241.008 246.773 239.382 247.2 237.515 247.2ZM268.87 247V242.36L268.75 241.6V233.84C268.75 232.053 268.243 230.68 267.23 229.72C266.243 228.76 264.763 228.28 262.79 228.28C261.43 228.28 260.137 228.507 258.91 228.96C257.683 229.413 256.643 230.013 255.79 230.76L254.51 228.64C255.577 227.733 256.857 227.04 258.35 226.56C259.843 226.053 261.417 225.8 263.07 225.8C265.79 225.8 267.883 226.48 269.35 227.84C270.843 229.173 271.59 231.213 271.59 233.96V247H268.87ZM261.63 247.2C260.057 247.2 258.683 246.947 257.51 246.44C256.363 245.907 255.483 245.187 254.87 244.28C254.257 243.347 253.95 242.28 253.95 241.08C253.95 239.987 254.203 239 254.71 238.12C255.243 237.213 256.097 236.493 257.27 235.96C258.47 235.4 260.07 235.12 262.07 235.12H269.31V237.24H262.15C260.123 237.24 258.71 237.6 257.91 238.32C257.137 239.04 256.75 239.933 256.75 241C256.75 242.2 257.217 243.16 258.15 243.88C259.083 244.6 260.39 244.96 262.07 244.96C263.67 244.96 265.043 244.6 266.19 243.88C267.363 243.133 268.217 242.067 268.75 240.68L269.39 242.64C268.857 244.027 267.923 245.133 266.59 245.96C265.283 246.787 263.63 247.2 261.63 247.2ZM285.944 247.2C283.97 247.2 282.45 246.667 281.384 245.6C280.317 244.533 279.784 243.027 279.784 241.08V221.36H282.624V240.92C282.624 242.147 282.93 243.093 283.544 243.76C284.184 244.427 285.09 244.76 286.264 244.76C287.517 244.76 288.557 244.4 289.384 243.68L290.384 245.72C289.824 246.227 289.144 246.6 288.344 246.84C287.57 247.08 286.77 247.2 285.944 247.2ZM276.024 228.36V226H289.024V228.36H276.024ZM308.714 247V242.36L308.594 241.6V233.84C308.594 232.053 308.087 230.68 307.074 229.72C306.087 228.76 304.607 228.28 302.634 228.28C301.274 228.28 299.98 228.507 298.754 228.96C297.527 229.413 296.487 230.013 295.634 230.76L294.354 228.64C295.42 227.733 296.7 227.04 298.194 226.56C299.687 226.053 301.26 225.8 302.914 225.8C305.634 225.8 307.727 226.48 309.194 227.84C310.687 229.173 311.434 231.213 311.434 233.96V247H308.714ZM301.474 247.2C299.9 247.2 298.527 246.947 297.354 246.44C296.207 245.907 295.327 245.187 294.714 244.28C294.1 243.347 293.794 242.28 293.794 241.08C293.794 239.987 294.047 239 294.554 238.12C295.087 237.213 295.94 236.493 297.114 235.96C298.314 235.4 299.914 235.12 301.914 235.12H309.154V237.24H301.994C299.967 237.24 298.554 237.6 297.754 238.32C296.98 239.04 296.594 239.933 296.594 241C296.594 242.2 297.06 243.16 297.994 243.88C298.927 244.6 300.234 244.96 301.914 244.96C303.514 244.96 304.887 244.6 306.034 243.88C307.207 243.133 308.06 242.067 308.594 240.68L309.234 242.64C308.7 244.027 307.767 245.133 306.434 245.96C305.127 246.787 303.474 247.2 301.474 247.2ZM329.868 225.8C331.574 225.8 333.068 226.133 334.348 226.8C335.654 227.44 336.668 228.427 337.388 229.76C338.134 231.093 338.508 232.773 338.508 234.8V247H335.668V235.08C335.668 232.867 335.108 231.2 333.988 230.08C332.894 228.933 331.348 228.36 329.348 228.36C327.854 228.36 326.548 228.667 325.428 229.28C324.334 229.867 323.481 230.733 322.868 231.88C322.281 233 321.988 234.36 321.988 235.96V247H319.148V226H321.868V231.76L321.428 230.68C322.094 229.16 323.161 227.973 324.628 227.12C326.094 226.24 327.841 225.8 329.868 225.8ZM360.248 247.24C358.674 247.24 357.194 246.893 355.808 246.2C354.448 245.507 353.354 244.52 352.527 243.24L354.248 241.24C355.021 242.36 355.914 243.213 356.928 243.8C357.941 244.387 359.061 244.68 360.288 244.68C363.754 244.68 365.488 242.627 365.488 238.52V221.56H355.248V219H368.408V238.4C368.408 241.36 367.714 243.573 366.328 245.04C364.968 246.507 362.941 247.24 360.248 247.24ZM376.687 247V226H379.527V247H376.687ZM378.127 221.36C377.54 221.36 377.047 221.16 376.647 220.76C376.247 220.36 376.047 219.88 376.047 219.32C376.047 218.76 376.247 218.293 376.647 217.92C377.047 217.52 377.54 217.32 378.127 217.32C378.713 217.32 379.207 217.507 379.607 217.88C380.007 218.253 380.207 218.72 380.207 219.28C380.207 219.867 380.007 220.36 379.607 220.76C379.233 221.16 378.74 221.36 378.127 221.36ZM398.149 225.8C399.855 225.8 401.349 226.133 402.629 226.8C403.935 227.44 404.949 228.427 405.669 229.76C406.415 231.093 406.789 232.773 406.789 234.8V247H403.949V235.08C403.949 232.867 403.389 231.2 402.269 230.08C401.175 228.933 399.629 228.36 397.629 228.36C396.135 228.36 394.829 228.667 393.709 229.28C392.615 229.867 391.762 230.733 391.149 231.88C390.562 233 390.269 234.36 390.269 235.96V247H387.429V226H390.149V231.76L389.709 230.68C390.375 229.16 391.442 227.973 392.909 227.12C394.375 226.24 396.122 225.8 398.149 225.8ZM423.42 254.96C421.5 254.96 419.66 254.68 417.9 254.12C416.14 253.56 414.713 252.76 413.62 251.72L415.06 249.56C416.047 250.44 417.26 251.133 418.7 251.64C420.167 252.173 421.713 252.44 423.34 252.44C426.007 252.44 427.967 251.813 429.22 250.56C430.473 249.333 431.1 247.413 431.1 244.8V239.56L431.5 235.96L431.22 232.36V226H433.94V244.44C433.94 248.067 433.047 250.72 431.26 252.4C429.5 254.107 426.887 254.96 423.42 254.96ZM422.9 246.2C420.9 246.2 419.1 245.773 417.5 244.92C415.9 244.04 414.633 242.827 413.7 241.28C412.793 239.733 412.34 237.96 412.34 235.96C412.34 233.96 412.793 232.2 413.7 230.68C414.633 229.133 415.9 227.933 417.5 227.08C419.1 226.227 420.9 225.8 422.9 225.8C424.767 225.8 426.447 226.187 427.94 226.96C429.433 227.733 430.62 228.88 431.5 230.4C432.38 231.92 432.82 233.773 432.82 235.96C432.82 238.147 432.38 240 431.5 241.52C430.62 243.04 429.433 244.2 427.94 245C426.447 245.8 424.767 246.2 422.9 246.2ZM423.18 243.68C424.727 243.68 426.1 243.36 427.3 242.72C428.5 242.053 429.447 241.147 430.14 240C430.833 238.827 431.18 237.48 431.18 235.96C431.18 234.44 430.833 233.107 430.14 231.96C429.447 230.813 428.5 229.92 427.3 229.28C426.1 228.613 424.727 228.28 423.18 228.28C421.66 228.28 420.287 228.613 419.06 229.28C417.86 229.92 416.913 230.813 416.22 231.96C415.553 233.107 415.22 234.44 415.22 235.96C415.22 237.48 415.553 238.827 416.22 240C416.913 241.147 417.86 242.053 419.06 242.72C420.287 243.36 421.66 243.68 423.18 243.68ZM441.843 247V217.32H444.683V247H441.843ZM461.505 247.2C459.318 247.2 457.398 246.747 455.745 245.84C454.092 244.907 452.798 243.64 451.865 242.04C450.932 240.413 450.465 238.56 450.465 236.48C450.465 234.4 450.905 232.56 451.785 230.96C452.692 229.36 453.918 228.107 455.465 227.2C457.038 226.267 458.798 225.8 460.745 225.8C462.718 225.8 464.465 226.253 465.985 227.16C467.532 228.04 468.745 229.293 469.625 230.92C470.505 232.52 470.945 234.373 470.945 236.48C470.945 236.613 470.932 236.76 470.905 236.92C470.905 237.053 470.905 237.2 470.905 237.36H452.625V235.24H469.385L468.265 236.08C468.265 234.56 467.932 233.213 467.265 232.04C466.625 230.84 465.745 229.907 464.625 229.24C463.505 228.573 462.212 228.24 460.745 228.24C459.305 228.24 458.012 228.573 456.865 229.24C455.718 229.907 454.825 230.84 454.185 232.04C453.545 233.24 453.225 234.613 453.225 236.16V236.6C453.225 238.2 453.572 239.613 454.265 240.84C454.985 242.04 455.972 242.987 457.225 243.68C458.505 244.347 459.958 244.68 461.585 244.68C462.865 244.68 464.052 244.453 465.145 244C466.265 243.547 467.225 242.853 468.025 241.92L469.625 243.76C468.692 244.88 467.518 245.733 466.105 246.32C464.718 246.907 463.185 247.2 461.505 247.2ZM102 291L115.2 253.32H117.8L104.6 291H102ZM131.427 287V259H133.867L146.667 280.84H145.387L158.067 259H160.507V287H157.667V263.44H158.347L146.667 283.44H145.267L133.507 263.44H134.267V287H131.427ZM177.71 287.2C175.924 287.2 174.364 286.867 173.03 286.2C171.697 285.533 170.657 284.533 169.91 283.2C169.19 281.867 168.83 280.2 168.83 278.2V266H171.67V277.88C171.67 280.12 172.217 281.813 173.31 282.96C174.43 284.08 175.99 284.64 177.99 284.64C179.457 284.64 180.724 284.347 181.79 283.76C182.884 283.147 183.71 282.267 184.27 281.12C184.857 279.973 185.15 278.6 185.15 277V266H187.99V287H185.27V281.24L185.71 282.28C185.044 283.827 184.004 285.04 182.59 285.92C181.204 286.773 179.577 287.2 177.71 287.2ZM201.545 287.2C199.812 287.2 198.172 286.96 196.625 286.48C195.079 285.973 193.865 285.347 192.985 284.6L194.265 282.36C195.119 283 196.212 283.56 197.545 284.04C198.879 284.493 200.279 284.72 201.745 284.72C203.745 284.72 205.185 284.413 206.065 283.8C206.945 283.16 207.385 282.32 207.385 281.28C207.385 280.507 207.132 279.907 206.625 279.48C206.145 279.027 205.505 278.693 204.705 278.48C203.905 278.24 203.012 278.04 202.025 277.88C201.039 277.72 200.052 277.533 199.065 277.32C198.105 277.107 197.225 276.8 196.425 276.4C195.625 275.973 194.972 275.4 194.465 274.68C193.985 273.96 193.745 273 193.745 271.8C193.745 270.653 194.065 269.627 194.705 268.72C195.345 267.813 196.279 267.107 197.505 266.6C198.759 266.067 200.279 265.8 202.065 265.8C203.425 265.8 204.785 265.987 206.145 266.36C207.505 266.707 208.625 267.173 209.505 267.76L208.265 270.04C207.332 269.4 206.332 268.947 205.265 268.68C204.199 268.387 203.132 268.24 202.065 268.24C200.172 268.24 198.772 268.573 197.865 269.24C196.985 269.88 196.545 270.707 196.545 271.72C196.545 272.52 196.785 273.147 197.265 273.6C197.772 274.053 198.425 274.413 199.225 274.68C200.052 274.92 200.945 275.12 201.905 275.28C202.892 275.44 203.865 275.64 204.825 275.88C205.812 276.093 206.705 276.4 207.505 276.8C208.332 277.173 208.985 277.72 209.465 278.44C209.972 279.133 210.225 280.053 210.225 281.2C210.225 282.427 209.879 283.493 209.185 284.4C208.519 285.28 207.532 285.973 206.225 286.48C204.945 286.96 203.385 287.2 201.545 287.2ZM215.437 287V266H218.277V287H215.437ZM216.877 261.36C216.29 261.36 215.797 261.16 215.397 260.76C214.997 260.36 214.797 259.88 214.797 259.32C214.797 258.76 214.997 258.293 215.397 257.92C215.797 257.52 216.29 257.32 216.877 257.32C217.463 257.32 217.957 257.507 218.357 257.88C218.757 258.253 218.957 258.72 218.957 259.28C218.957 259.867 218.757 260.36 218.357 260.76C217.983 261.16 217.49 261.36 216.877 261.36ZM228.419 281.56L228.499 277.92L241.579 266H245.059L235.819 274.84L234.219 276.2L228.419 281.56ZM226.179 287V257.32H229.019V287H226.179ZM242.459 287L233.699 276.08L235.539 273.88L245.939 287H242.459ZM256.791 287L269.591 259H272.511L285.311 287H282.191L270.431 260.72H271.631L259.871 287H256.791ZM261.831 279.52L262.711 277.12H278.991L279.871 279.52H261.831ZM289.943 287V259H292.903V287H289.943Z" fill="black"/>
<path d="M28.24 268.24C26.08 268.24 24.16 267.68 22.48 266.56C20.8 265.413 19.48 263.787 18.52 261.68C17.56 259.547 17.08 256.987 17.08 254C17.08 251.013 17.56 248.467 18.52 246.36C19.48 244.227 20.8 242.6 22.48 241.48C24.16 240.333 26.08 239.76 28.24 239.76C30.4 239.76 32.32 240.333 34 241.48C35.68 242.6 37 244.227 37.96 246.36C38.9467 248.467 39.44 251.013 39.44 254C39.44 256.987 38.9467 259.547 37.96 261.68C37 263.787 35.68 265.413 34 266.56C32.32 267.68 30.4 268.24 28.24 268.24ZM28.24 265.6C29.8933 265.6 31.3333 265.16 32.56 264.28C33.7867 263.373 34.7467 262.067 35.44 260.36C36.1333 258.627 36.48 256.507 36.48 254C36.48 251.493 36.1333 249.387 35.44 247.68C34.7467 245.947 33.7867 244.64 32.56 243.76C31.3333 242.853 29.8933 242.4 28.24 242.4C26.64 242.4 25.2133 242.853 23.96 243.76C22.7067 244.64 21.7333 245.947 21.04 247.68C20.3467 249.387 20 251.493 20 254C20 256.507 20.3467 258.627 21.04 260.36C21.7333 262.067 22.7067 263.373 23.96 264.28C25.2133 265.16 26.64 265.6 28.24 265.6ZM43.0444 268V265.96L54.6844 254.56C55.751 253.52 56.551 252.613 57.0844 251.84C57.6177 251.04 57.9777 250.293 58.1644 249.6C58.351 248.907 58.4444 248.253 58.4444 247.64C58.4444 246.013 57.8844 244.733 56.7644 243.8C55.671 242.867 54.0444 242.4 51.8844 242.4C50.231 242.4 48.7644 242.653 47.4844 243.16C46.231 243.667 45.151 244.453 44.2444 245.52L42.2044 243.76C43.2977 242.48 44.6977 241.493 46.4044 240.8C48.111 240.107 50.0177 239.76 52.1244 239.76C54.0177 239.76 55.6577 240.067 57.0444 240.68C58.431 241.267 59.4977 242.133 60.2444 243.28C61.0177 244.427 61.4044 245.773 61.4044 247.32C61.4044 248.227 61.271 249.12 61.0044 250C60.7644 250.88 60.311 251.813 59.6444 252.8C59.0044 253.76 58.0577 254.853 56.8044 256.08L46.1244 266.56L45.3244 265.44H62.6844V268H43.0444ZM68.8494 268.2C68.2627 268.2 67.756 267.987 67.3294 267.56C66.9294 267.133 66.7294 266.613 66.7294 266C66.7294 265.36 66.9294 264.84 67.3294 264.44C67.756 264.04 68.2627 263.84 68.8494 263.84C69.436 263.84 69.9294 264.04 70.3294 264.44C70.756 264.84 70.9694 265.36 70.9694 266C70.9694 266.613 70.756 267.133 70.3294 267.56C69.9294 267.987 69.436 268.2 68.8494 268.2Z" fill="black"/>
<path d="M522.56 267V264.96L534.2 253.56C535.267 252.52 536.067 251.613 536.6 250.84C537.133 250.04 537.493 249.293 537.68 248.6C537.867 247.907 537.96 247.253 537.96 246.64C537.96 245.013 537.4 243.733 536.28 242.8C535.187 241.867 533.56 241.4 531.4 241.4C529.747 241.4 528.28 241.653 527 242.16C525.747 242.667 524.667 243.453 523.76 244.52L521.72 242.76C522.813 241.48 524.213 240.493 525.92 239.8C527.627 239.107 529.533 238.76 531.64 238.76C533.533 238.76 535.173 239.067 536.56 239.68C537.947 240.267 539.013 241.133 539.76 242.28C540.533 243.427 540.92 244.773 540.92 246.32C540.92 247.227 540.787 248.12 540.52 249C540.28 249.88 539.827 250.813 539.16 251.8C538.52 252.76 537.573 253.853 536.32 255.08L525.64 265.56L524.84 264.44H542.2V267H522.56ZM554.654 267.24C552.654 267.24 550.748 266.92 548.934 266.28C547.121 265.613 545.681 264.733 544.614 263.64L546.014 261.36C546.894 262.293 548.094 263.067 549.614 263.68C551.161 264.293 552.828 264.6 554.614 264.6C556.988 264.6 558.788 264.08 560.014 263.04C561.268 261.973 561.894 260.587 561.894 258.88C561.894 257.68 561.601 256.653 561.014 255.8C560.454 254.92 559.494 254.24 558.134 253.76C556.774 253.28 554.908 253.04 552.534 253.04H546.574L548.014 239H563.334V241.56H549.174L550.654 240.16L549.414 251.92L547.934 250.48H553.174C556.001 250.48 558.268 250.827 559.974 251.52C561.681 252.213 562.908 253.187 563.654 254.44C564.428 255.667 564.814 257.107 564.814 258.76C564.814 260.333 564.441 261.773 563.694 263.08C562.948 264.36 561.828 265.373 560.334 266.12C558.841 266.867 556.948 267.24 554.654 267.24ZM573.511 260.04L573.391 256.44L590.351 239H593.751L581.391 251.96L579.711 253.76L573.511 260.04ZM570.951 267V239H573.911V267H570.951ZM591.071 267L578.991 253.08L580.991 250.92L594.591 267H591.071ZM604.297 271L617.497 233.32H620.097L606.897 271H604.297ZM639.164 267V241.56H629.324V239H651.964V241.56H642.124V267H639.164ZM655.546 267V246H658.266V251.72L657.986 250.72C658.573 249.12 659.559 247.907 660.946 247.08C662.333 246.227 664.053 245.8 666.106 245.8V248.56C665.999 248.56 665.893 248.56 665.786 248.56C665.679 248.533 665.573 248.52 665.466 248.52C663.253 248.52 661.519 249.2 660.266 250.56C659.013 251.893 658.386 253.8 658.386 256.28V267H655.546ZM682.886 267V262.36L682.766 261.6V253.84C682.766 252.053 682.259 250.68 681.246 249.72C680.259 248.76 678.779 248.28 676.806 248.28C675.446 248.28 674.152 248.507 672.926 248.96C671.699 249.413 670.659 250.013 669.806 250.76L668.526 248.64C669.592 247.733 670.872 247.04 672.366 246.56C673.859 246.053 675.432 245.8 677.086 245.8C679.806 245.8 681.899 246.48 683.366 247.84C684.859 249.173 685.606 251.213 685.606 253.96V267H682.886ZM675.646 267.2C674.072 267.2 672.699 266.947 671.526 266.44C670.379 265.907 669.499 265.187 668.886 264.28C668.272 263.347 667.966 262.28 667.966 261.08C667.966 259.987 668.219 259 668.726 258.12C669.259 257.213 670.112 256.493 671.286 255.96C672.486 255.4 674.086 255.12 676.086 255.12H683.326V257.24H676.166C674.139 257.24 672.726 257.6 671.926 258.32C671.152 259.04 670.766 259.933 670.766 261C670.766 262.2 671.232 263.16 672.166 263.88C673.099 264.6 674.406 264.96 676.086 264.96C677.686 264.96 679.059 264.6 680.206 263.88C681.379 263.133 682.232 262.067 682.766 260.68L683.406 262.64C682.872 264.027 681.939 265.133 680.606 265.96C679.299 266.787 677.646 267.2 675.646 267.2ZM702.039 267.2C699.959 267.2 698.093 266.747 696.439 265.84C694.813 264.907 693.533 263.64 692.599 262.04C691.666 260.413 691.199 258.56 691.199 256.48C691.199 254.373 691.666 252.52 692.599 250.92C693.533 249.32 694.813 248.067 696.439 247.16C698.093 246.253 699.959 245.8 702.039 245.8C703.826 245.8 705.439 246.147 706.879 246.84C708.319 247.533 709.453 248.573 710.279 249.96L708.159 251.4C707.439 250.333 706.546 249.547 705.479 249.04C704.413 248.533 703.253 248.28 701.999 248.28C700.506 248.28 699.159 248.627 697.959 249.32C696.759 249.987 695.813 250.933 695.119 252.16C694.426 253.387 694.079 254.827 694.079 256.48C694.079 258.133 694.426 259.573 695.119 260.8C695.813 262.027 696.759 262.987 697.959 263.68C699.159 264.347 700.506 264.68 701.999 264.68C703.253 264.68 704.413 264.427 705.479 263.92C706.546 263.413 707.439 262.64 708.159 261.6L710.279 263.04C709.453 264.4 708.319 265.44 706.879 266.16C705.439 266.853 703.826 267.2 702.039 267.2ZM717.786 261.56L717.866 257.92L730.946 246H734.426L725.186 254.84L723.586 256.2L717.786 261.56ZM715.546 267V237.32H718.386V267H715.546ZM731.826 267L723.066 256.08L724.906 253.88L735.306 267H731.826Z" fill="black"/>
<path d="M107.56 137V109H110.52V134.44H126.2V137H107.56ZM143.675 137V132.36L143.555 131.6V123.84C143.555 122.053 143.048 120.68 142.035 119.72C141.048 118.76 139.568 118.28 137.595 118.28C136.235 118.28 134.941 118.507 133.715 118.96C132.488 119.413 131.448 120.013 130.595 120.76L129.315 118.64C130.381 117.733 131.661 117.04 133.155 116.56C134.648 116.053 136.221 115.8 137.875 115.8C140.595 115.8 142.688 116.48 144.155 117.84C145.648 119.173 146.395 121.213 146.395 123.96V137H143.675ZM136.435 137.2C134.861 137.2 133.488 136.947 132.315 136.44C131.168 135.907 130.288 135.187 129.675 134.28C129.061 133.347 128.755 132.28 128.755 131.08C128.755 129.987 129.008 129 129.515 128.12C130.048 127.213 130.901 126.493 132.075 125.96C133.275 125.4 134.875 125.12 136.875 125.12H144.115V127.24H136.955C134.928 127.24 133.515 127.6 132.715 128.32C131.941 129.04 131.555 129.933 131.555 131C131.555 132.2 132.021 133.16 132.955 133.88C133.888 134.6 135.195 134.96 136.875 134.96C138.475 134.96 139.848 134.6 140.995 133.88C142.168 133.133 143.021 132.067 143.555 130.68L144.195 132.64C143.661 134.027 142.728 135.133 141.395 135.96C140.088 136.787 138.435 137.2 136.435 137.2ZM153.878 144.96C152.891 144.96 151.944 144.8 151.038 144.48C150.158 144.16 149.398 143.68 148.758 143.04L150.078 140.92C150.611 141.427 151.184 141.813 151.798 142.08C152.438 142.373 153.144 142.52 153.918 142.52C154.851 142.52 155.651 142.253 156.318 141.72C157.011 141.213 157.664 140.307 158.278 139L159.638 135.92L159.958 135.48L168.598 116H171.398L160.878 139.52C160.291 140.88 159.638 141.96 158.918 142.76C158.224 143.56 157.464 144.12 156.638 144.44C155.811 144.787 154.891 144.96 153.878 144.96ZM159.478 137.6L149.798 116H152.758L161.318 135.28L159.478 137.6ZM187.933 137V132.36L187.813 131.6V123.84C187.813 122.053 187.306 120.68 186.293 119.72C185.306 118.76 183.826 118.28 181.853 118.28C180.493 118.28 179.199 118.507 177.973 118.96C176.746 119.413 175.706 120.013 174.853 120.76L173.573 118.64C174.639 117.733 175.919 117.04 177.413 116.56C178.906 116.053 180.479 115.8 182.133 115.8C184.853 115.8 186.946 116.48 188.413 117.84C189.906 119.173 190.653 121.213 190.653 123.96V137H187.933ZM180.693 137.2C179.119 137.2 177.746 136.947 176.573 136.44C175.426 135.907 174.546 135.187 173.933 134.28C173.319 133.347 173.013 132.28 173.013 131.08C173.013 129.987 173.266 129 173.773 128.12C174.306 127.213 175.159 126.493 176.333 125.96C177.533 125.4 179.133 125.12 181.133 125.12H188.373V127.24H181.213C179.186 127.24 177.773 127.6 176.973 128.32C176.199 129.04 175.812 129.933 175.812 131C175.812 132.2 176.279 133.16 177.213 133.88C178.146 134.6 179.453 134.96 181.133 134.96C182.733 134.96 184.106 134.6 185.253 133.88C186.426 133.133 187.279 132.067 187.813 130.68L188.453 132.64C187.919 134.027 186.986 135.133 185.653 135.96C184.346 136.787 182.693 137.2 180.693 137.2ZM209.086 115.8C210.793 115.8 212.286 116.133 213.566 116.8C214.873 117.44 215.886 118.427 216.606 119.76C217.353 121.093 217.726 122.773 217.726 124.8V137H214.886V125.08C214.886 122.867 214.326 121.2 213.206 120.08C212.113 118.933 210.566 118.36 208.566 118.36C207.073 118.36 205.766 118.667 204.646 119.28C203.553 119.867 202.7 120.733 202.086 121.88C201.5 123 201.206 124.36 201.206 125.96V137H198.366V116H201.086V121.76L200.646 120.68C201.313 119.16 202.38 117.973 203.846 117.12C205.313 116.24 207.06 115.8 209.086 115.8ZM238.558 137V132.36L238.438 131.6V123.84C238.438 122.053 237.931 120.68 236.918 119.72C235.931 118.76 234.451 118.28 232.478 118.28C231.118 118.28 229.824 118.507 228.598 118.96C227.371 119.413 226.331 120.013 225.478 120.76L224.198 118.64C225.264 117.733 226.544 117.04 228.038 116.56C229.531 116.053 231.104 115.8 232.758 115.8C235.478 115.8 237.571 116.48 239.038 117.84C240.531 119.173 241.278 121.213 241.278 123.96V137H238.558ZM231.318 137.2C229.744 137.2 228.371 136.947 227.198 136.44C226.051 135.907 225.171 135.187 224.558 134.28C223.944 133.347 223.638 132.28 223.638 131.08C223.638 129.987 223.891 129 224.398 128.12C224.931 127.213 225.784 126.493 226.958 125.96C228.158 125.4 229.758 125.12 231.758 125.12H238.998V127.24H231.838C229.811 127.24 228.398 127.6 227.598 128.32C226.824 129.04 226.438 129.933 226.438 131C226.438 132.2 226.904 133.16 227.838 133.88C228.771 134.6 230.078 134.96 231.758 134.96C233.358 134.96 234.731 134.6 235.878 133.88C237.051 133.133 237.904 132.067 238.438 130.68L239.078 132.64C238.544 134.027 237.611 135.133 236.278 135.96C234.971 136.787 233.318 137.2 231.318 137.2ZM259.711 115.8C261.418 115.8 262.911 116.133 264.191 116.8C265.498 117.44 266.511 118.427 267.231 119.76C267.978 121.093 268.351 122.773 268.351 124.8V137H265.511V125.08C265.511 122.867 264.951 121.2 263.831 120.08C262.738 118.933 261.191 118.36 259.191 118.36C257.698 118.36 256.391 118.667 255.271 119.28C254.178 119.867 253.325 120.733 252.711 121.88C252.125 123 251.831 124.36 251.831 125.96V137H248.991V116H251.711V121.76L251.271 120.68C251.938 119.16 253.005 117.973 254.471 117.12C255.938 116.24 257.685 115.8 259.711 115.8ZM295.051 137L282.651 109H285.851L297.451 135.36H295.691L307.371 109H310.371L297.971 137H295.051ZM320.793 137.2C318.767 137.2 316.94 136.747 315.313 135.84C313.713 134.907 312.447 133.64 311.513 132.04C310.58 130.413 310.113 128.56 310.113 126.48C310.113 124.373 310.58 122.52 311.513 120.92C312.447 119.32 313.713 118.067 315.313 117.16C316.913 116.253 318.74 115.8 320.793 115.8C322.873 115.8 324.713 116.253 326.313 117.16C327.94 118.067 329.207 119.32 330.113 120.92C331.047 122.52 331.513 124.373 331.513 126.48C331.513 128.56 331.047 130.413 330.113 132.04C329.207 133.64 327.94 134.907 326.313 135.84C324.687 136.747 322.847 137.2 320.793 137.2ZM320.793 134.68C322.313 134.68 323.66 134.347 324.833 133.68C326.007 132.987 326.927 132.027 327.593 130.8C328.287 129.547 328.633 128.107 328.633 126.48C328.633 124.827 328.287 123.387 327.593 122.16C326.927 120.933 326.007 119.987 324.833 119.32C323.66 118.627 322.327 118.28 320.833 118.28C319.34 118.28 318.007 118.627 316.833 119.32C315.66 119.987 314.727 120.933 314.033 122.16C313.34 123.387 312.993 124.827 312.993 126.48C312.993 128.107 313.34 129.547 314.033 130.8C314.727 132.027 315.66 132.987 316.833 133.68C318.007 134.347 319.327 134.68 320.793 134.68ZM337.312 137V116H340.152V137H337.312ZM338.752 111.36C338.165 111.36 337.672 111.16 337.272 110.76C336.872 110.36 336.672 109.88 336.672 109.32C336.672 108.76 336.872 108.293 337.272 107.92C337.672 107.52 338.165 107.32 338.752 107.32C339.338 107.32 339.832 107.507 340.232 107.88C340.632 108.253 340.832 108.72 340.832 109.28C340.832 109.867 340.632 110.36 340.232 110.76C339.858 111.16 339.365 111.36 338.752 111.36ZM356.774 137.2C354.694 137.2 352.827 136.747 351.174 135.84C349.547 134.907 348.267 133.64 347.334 132.04C346.4 130.413 345.934 128.56 345.934 126.48C345.934 124.373 346.4 122.52 347.334 120.92C348.267 119.32 349.547 118.067 351.174 117.16C352.827 116.253 354.694 115.8 356.774 115.8C358.56 115.8 360.174 116.147 361.614 116.84C363.054 117.533 364.187 118.573 365.014 119.96L362.894 121.4C362.174 120.333 361.28 119.547 360.214 119.04C359.147 118.533 357.987 118.28 356.734 118.28C355.24 118.28 353.894 118.627 352.694 119.32C351.494 119.987 350.547 120.933 349.854 122.16C349.16 123.387 348.814 124.827 348.814 126.48C348.814 128.133 349.16 129.573 349.854 130.8C350.547 132.027 351.494 132.987 352.694 133.68C353.894 134.347 355.24 134.68 356.734 134.68C357.987 134.68 359.147 134.427 360.214 133.92C361.28 133.413 362.174 132.64 362.894 131.6L365.014 133.04C364.187 134.4 363.054 135.44 361.614 136.16C360.174 136.853 358.56 137.2 356.774 137.2ZM379.161 137.2C376.975 137.2 375.055 136.747 373.401 135.84C371.748 134.907 370.455 133.64 369.521 132.04C368.588 130.413 368.121 128.56 368.121 126.48C368.121 124.4 368.561 122.56 369.441 120.96C370.348 119.36 371.575 118.107 373.121 117.2C374.695 116.267 376.455 115.8 378.401 115.8C380.375 115.8 382.121 116.253 383.641 117.16C385.188 118.04 386.401 119.293 387.281 120.92C388.161 122.52 388.601 124.373 388.601 126.48C388.601 126.613 388.588 126.76 388.561 126.92C388.561 127.053 388.561 127.2 388.561 127.36H370.281V125.24H387.041L385.921 126.08C385.921 124.56 385.588 123.213 384.921 122.04C384.281 120.84 383.401 119.907 382.281 119.24C381.161 118.573 379.868 118.24 378.401 118.24C376.961 118.24 375.668 118.573 374.521 119.24C373.375 119.907 372.481 120.84 371.841 122.04C371.201 123.24 370.881 124.613 370.881 126.16V126.6C370.881 128.2 371.228 129.613 371.921 130.84C372.641 132.04 373.628 132.987 374.881 133.68C376.161 134.347 377.615 134.68 379.241 134.68C380.521 134.68 381.708 134.453 382.801 134C383.921 133.547 384.881 132.853 385.681 131.92L387.281 133.76C386.348 134.88 385.175 135.733 383.761 136.32C382.375 136.907 380.841 137.2 379.161 137.2ZM119.8 177.24C117.693 177.24 115.733 176.893 113.92 176.2C112.133 175.48 110.573 174.48 109.24 173.2C107.933 171.893 106.907 170.387 106.16 168.68C105.44 166.947 105.08 165.053 105.08 163C105.08 160.947 105.44 159.067 106.16 157.36C106.907 155.627 107.933 154.12 109.24 152.84C110.573 151.533 112.133 150.533 113.92 149.84C115.707 149.12 117.667 148.76 119.8 148.76C121.907 148.76 123.853 149.12 125.64 149.84C127.427 150.533 128.973 151.52 130.28 152.8C131.613 154.08 132.64 155.587 133.36 157.32C134.107 159.053 134.48 160.947 134.48 163C134.48 165.053 134.107 166.947 133.36 168.68C132.64 170.413 131.613 171.92 130.28 173.2C128.973 174.48 127.427 175.48 125.64 176.2C123.853 176.893 121.907 177.24 119.8 177.24ZM119.8 174.6C121.48 174.6 123.027 174.32 124.44 173.76C125.88 173.173 127.12 172.36 128.16 171.32C129.227 170.253 130.053 169.027 130.64 167.64C131.227 166.227 131.52 164.68 131.52 163C131.52 161.32 131.227 159.787 130.64 158.4C130.053 156.987 129.227 155.76 128.16 154.72C127.12 153.653 125.88 152.84 124.44 152.28C123.027 151.693 121.48 151.4 119.8 151.4C118.12 151.4 116.56 151.693 115.12 152.28C113.68 152.84 112.427 153.653 111.36 154.72C110.32 155.76 109.493 156.987 108.88 158.4C108.293 159.787 108 161.32 108 163C108 164.653 108.293 166.187 108.88 167.6C109.493 169.013 110.32 170.253 111.36 171.32C112.427 172.36 113.68 173.173 115.12 173.76C116.56 174.32 118.12 174.6 119.8 174.6ZM145.915 177L136.595 156H139.555L148.115 175.48H146.715L155.395 156H158.195L148.835 177H145.915ZM170.528 177.2C168.342 177.2 166.422 176.747 164.768 175.84C163.115 174.907 161.822 173.64 160.888 172.04C159.955 170.413 159.488 168.56 159.488 166.48C159.488 164.4 159.928 162.56 160.808 160.96C161.715 159.36 162.942 158.107 164.488 157.2C166.062 156.267 167.822 155.8 169.768 155.8C171.742 155.8 173.488 156.253 175.008 157.16C176.555 158.04 177.768 159.293 178.648 160.92C179.528 162.52 179.968 164.373 179.968 166.48C179.968 166.613 179.955 166.76 179.928 166.92C179.928 167.053 179.928 167.2 179.928 167.36H161.648V165.24H178.408L177.288 166.08C177.288 164.56 176.955 163.213 176.288 162.04C175.648 160.84 174.768 159.907 173.648 159.24C172.528 158.573 171.235 158.24 169.768 158.24C168.328 158.24 167.035 158.573 165.888 159.24C164.742 159.907 163.848 160.84 163.208 162.04C162.568 163.24 162.248 164.613 162.248 166.16V166.6C162.248 168.2 162.595 169.613 163.288 170.84C164.008 172.04 164.995 172.987 166.248 173.68C167.528 174.347 168.982 174.68 170.608 174.68C171.888 174.68 173.075 174.453 174.168 174C175.288 173.547 176.248 172.853 177.048 171.92L178.648 173.76C177.715 174.88 176.542 175.733 175.128 176.32C173.742 176.907 172.208 177.2 170.528 177.2ZM185.749 177V156H188.469V161.72L188.189 160.72C188.776 159.12 189.762 157.907 191.149 157.08C192.536 156.227 194.256 155.8 196.309 155.8V158.56C196.202 158.56 196.096 158.56 195.989 158.56C195.882 158.533 195.776 158.52 195.669 158.52C193.456 158.52 191.722 159.2 190.469 160.56C189.216 161.893 188.589 163.8 188.589 166.28V177H185.749ZM217.113 184.76C215.646 182.333 214.499 179.533 213.673 176.36C212.873 173.16 212.473 169.72 212.473 166.04C212.473 162.36 212.873 158.92 213.673 155.72C214.499 152.493 215.646 149.693 217.113 147.32H219.833C218.259 150.067 217.099 152.987 216.353 156.08C215.633 159.147 215.273 162.467 215.273 166.04C215.273 169.613 215.633 172.947 216.353 176.04C217.099 179.107 218.259 182.013 219.833 184.76H217.113ZM221.557 177L234.357 149H237.277L250.077 177H246.957L235.197 150.72H236.397L224.637 177H221.557ZM226.597 169.52L227.477 167.12H243.757L244.637 169.52H226.597ZM254.708 177V149H257.668V177H254.708ZM266.539 184.76H263.819C265.419 182.013 266.579 179.107 267.299 176.04C268.045 172.947 268.419 169.613 268.419 166.04C268.419 162.467 268.045 159.147 267.299 156.08C266.579 152.987 265.419 150.067 263.819 147.32H266.539C268.059 149.693 269.219 152.493 270.019 155.72C270.819 158.92 271.219 162.36 271.219 166.04C271.219 169.72 270.819 173.16 270.019 176.36C269.219 179.533 268.059 182.333 266.539 184.76Z" fill="black"/>
<path d="M28.24 158.24C26.08 158.24 24.16 157.68 22.48 156.56C20.8 155.413 19.48 153.787 18.52 151.68C17.56 149.547 17.08 146.987 17.08 144C17.08 141.013 17.56 138.467 18.52 136.36C19.48 134.227 20.8 132.6 22.48 131.48C24.16 130.333 26.08 129.76 28.24 129.76C30.4 129.76 32.32 130.333 34 131.48C35.68 132.6 37 134.227 37.96 136.36C38.9467 138.467 39.44 141.013 39.44 144C39.44 146.987 38.9467 149.547 37.96 151.68C37 153.787 35.68 155.413 34 156.56C32.32 157.68 30.4 158.24 28.24 158.24ZM28.24 155.6C29.8933 155.6 31.3333 155.16 32.56 154.28C33.7867 153.373 34.7467 152.067 35.44 150.36C36.1333 148.627 36.48 146.507 36.48 144C36.48 141.493 36.1333 139.387 35.44 137.68C34.7467 135.947 33.7867 134.64 32.56 133.76C31.3333 132.853 29.8933 132.4 28.24 132.4C26.64 132.4 25.2133 132.853 23.96 133.76C22.7067 134.64 21.7333 135.947 21.04 137.68C20.3467 139.387 20 141.493 20 144C20 146.507 20.3467 148.627 21.04 150.36C21.7333 152.067 22.7067 153.373 23.96 154.28C25.2133 155.16 26.64 155.6 28.24 155.6ZM48.4444 158V131.2L49.7244 132.56H41.8444V130H51.3244V158H48.4444ZM60.1775 158.2C59.5908 158.2 59.0842 157.987 58.6575 157.56C58.2575 157.133 58.0575 156.613 58.0575 156C58.0575 155.36 58.2575 154.84 58.6575 154.44C59.0842 154.04 59.5908 153.84 60.1775 153.84C60.7642 153.84 61.2575 154.04 61.6575 154.44C62.0842 154.84 62.2975 155.36 62.2975 156C62.2975 156.613 62.0842 157.133 61.6575 157.56C61.2575 157.987 60.7642 158.2 60.1775 158.2Z" fill="black"/>
<path d="M527.96 157V130.2L529.24 131.56H521.36V129H530.84V157H527.96ZM548.693 157.24C546.533 157.24 544.613 156.68 542.933 155.56C541.253 154.413 539.933 152.787 538.973 150.68C538.013 148.547 537.533 145.987 537.533 143C537.533 140.013 538.013 137.467 538.973 135.36C539.933 133.227 541.253 131.6 542.933 130.48C544.613 129.333 546.533 128.76 548.693 128.76C550.853 128.76 552.773 129.333 554.453 130.48C556.133 131.6 557.453 133.227 558.413 135.36C559.4 137.467 559.893 140.013 559.893 143C559.893 145.987 559.4 148.547 558.413 150.68C557.453 152.787 556.133 154.413 554.453 155.56C552.773 156.68 550.853 157.24 548.693 157.24ZM548.693 154.6C550.346 154.6 551.786 154.16 553.013 153.28C554.24 152.373 555.2 151.067 555.893 149.36C556.586 147.627 556.933 145.507 556.933 143C556.933 140.493 556.586 138.387 555.893 136.68C555.2 134.947 554.24 133.64 553.013 132.76C551.786 131.853 550.346 131.4 548.693 131.4C547.093 131.4 545.666 131.853 544.413 132.76C543.16 133.64 542.186 134.947 541.493 136.68C540.8 138.387 540.453 140.493 540.453 143C540.453 145.507 540.8 147.627 541.493 149.36C542.186 151.067 543.16 152.373 544.413 153.28C545.666 154.16 547.093 154.6 548.693 154.6ZM569.058 150.04L568.938 146.44L585.898 129H589.298L576.938 141.96L575.258 143.76L569.058 150.04ZM566.498 157V129H569.458V157H566.498ZM586.618 157L574.538 143.08L576.538 140.92L590.138 157H586.618ZM599.844 161L613.044 123.32H615.644L602.444 161H599.844ZM631.671 157V130.2L632.951 131.56H625.071V129H634.551V157H631.671ZM650.084 157.24C648.084 157.24 646.177 156.92 644.364 156.28C642.551 155.613 641.111 154.733 640.044 153.64L641.444 151.36C642.324 152.293 643.524 153.067 645.044 153.68C646.591 154.293 648.257 154.6 650.044 154.6C652.417 154.6 654.217 154.08 655.444 153.04C656.697 151.973 657.324 150.587 657.324 148.88C657.324 147.68 657.031 146.653 656.444 145.8C655.884 144.92 654.924 144.24 653.564 143.76C652.204 143.28 650.337 143.04 647.964 143.04H642.004L643.444 129H658.764V131.56H644.604L646.084 130.16L644.844 141.92L643.364 140.48H648.604C651.431 140.48 653.697 140.827 655.404 141.52C657.111 142.213 658.337 143.187 659.084 144.44C659.857 145.667 660.244 147.107 660.244 148.76C660.244 150.333 659.871 151.773 659.124 153.08C658.377 154.36 657.257 155.373 655.764 156.12C654.271 156.867 652.377 157.24 650.084 157.24ZM675.06 157.24C672.9 157.24 670.98 156.68 669.3 155.56C667.62 154.413 666.3 152.787 665.34 150.68C664.38 148.547 663.9 145.987 663.9 143C663.9 140.013 664.38 137.467 665.34 135.36C666.3 133.227 667.62 131.6 669.3 130.48C670.98 129.333 672.9 128.76 675.06 128.76C677.22 128.76 679.14 129.333 680.82 130.48C682.5 131.6 683.82 133.227 684.78 135.36C685.767 137.467 686.26 140.013 686.26 143C686.26 145.987 685.767 148.547 684.78 150.68C683.82 152.787 682.5 154.413 680.82 155.56C679.14 156.68 677.22 157.24 675.06 157.24ZM675.06 154.6C676.714 154.6 678.154 154.16 679.38 153.28C680.607 152.373 681.567 151.067 682.26 149.36C682.954 147.627 683.3 145.507 683.3 143C683.3 140.493 682.954 138.387 682.26 136.68C681.567 134.947 680.607 133.64 679.38 132.76C678.154 131.853 676.714 131.4 675.06 131.4C673.46 131.4 672.034 131.853 670.78 132.76C669.527 133.64 668.554 134.947 667.86 136.68C667.167 138.387 666.82 140.493 666.82 143C666.82 145.507 667.167 147.627 667.86 149.36C668.554 151.067 669.527 152.373 670.78 153.28C672.034 154.16 673.46 154.6 675.06 154.6ZM705.893 150.04L705.773 146.44L722.733 129H726.133L713.773 141.96L712.093 143.76L705.893 150.04ZM703.333 157V129H706.293V157H703.333ZM723.453 157L711.373 143.08L713.373 140.92L726.973 157H723.453ZM743.784 157V152.36L743.664 151.6V143.84C743.664 142.053 743.157 140.68 742.144 139.72C741.157 138.76 739.677 138.28 737.704 138.28C736.344 138.28 735.051 138.507 733.824 138.96C732.597 139.413 731.557 140.013 730.704 140.76L729.424 138.64C730.491 137.733 731.771 137.04 733.264 136.56C734.757 136.053 736.331 135.8 737.984 135.8C740.704 135.8 742.797 136.48 744.264 137.84C745.757 139.173 746.504 141.213 746.504 143.96V157H743.784ZM736.544 157.2C734.971 157.2 733.597 156.947 732.424 156.44C731.277 155.907 730.397 155.187 729.784 154.28C729.171 153.347 728.864 152.28 728.864 151.08C728.864 149.987 729.117 149 729.624 148.12C730.157 147.213 731.011 146.493 732.184 145.96C733.384 145.4 734.984 145.12 736.984 145.12H744.224V147.24H737.064C735.037 147.24 733.624 147.6 732.824 148.32C732.051 149.04 731.664 149.933 731.664 151C731.664 152.2 732.131 153.16 733.064 153.88C733.997 154.6 735.304 154.96 736.984 154.96C738.584 154.96 739.957 154.6 741.104 153.88C742.277 153.133 743.131 152.067 743.664 150.68L744.304 152.64C743.771 154.027 742.837 155.133 741.504 155.96C740.197 156.787 738.544 157.2 736.544 157.2ZM760.858 157.2C758.884 157.2 757.364 156.667 756.298 155.6C755.231 154.533 754.698 153.027 754.698 151.08V131.36H757.538V150.92C757.538 152.147 757.844 153.093 758.458 153.76C759.098 154.427 760.004 154.76 761.178 154.76C762.431 154.76 763.471 154.4 764.298 153.68L765.298 155.72C764.738 156.227 764.058 156.6 763.258 156.84C762.484 157.08 761.684 157.2 760.858 157.2ZM750.938 138.36V136H763.938V138.36H750.938ZM783.628 157V152.36L783.508 151.6V143.84C783.508 142.053 783.001 140.68 781.988 139.72C781.001 138.76 779.521 138.28 777.548 138.28C776.188 138.28 774.894 138.507 773.668 138.96C772.441 139.413 771.401 140.013 770.548 140.76L769.268 138.64C770.334 137.733 771.614 137.04 773.108 136.56C774.601 136.053 776.174 135.8 777.828 135.8C780.548 135.8 782.641 136.48 784.108 137.84C785.601 139.173 786.348 141.213 786.348 143.96V157H783.628ZM776.388 157.2C774.814 157.2 773.441 156.947 772.268 156.44C771.121 155.907 770.241 155.187 769.628 154.28C769.014 153.347 768.708 152.28 768.708 151.08C768.708 149.987 768.961 149 769.468 148.12C770.001 147.213 770.854 146.493 772.028 145.96C773.228 145.4 774.828 145.12 776.828 145.12H784.068V147.24H776.908C774.881 147.24 773.468 147.6 772.668 148.32C771.894 149.04 771.508 149.933 771.508 151C771.508 152.2 771.974 153.16 772.908 153.88C773.841 154.6 775.148 154.96 776.828 154.96C778.428 154.96 779.801 154.6 780.948 153.88C782.121 153.133 782.974 152.067 783.508 150.68L784.148 152.64C783.614 154.027 782.681 155.133 781.348 155.96C780.041 156.787 778.388 157.2 776.388 157.2Z" fill="black"/>
</svg>
