<svg width="858" height="378" viewBox="0 0 858 378" fill="none" xmlns="http://www.w3.org/2000/svg">
<rect x="2" y="2" width="87" height="86" fill="#343434" stroke="#343434" stroke-width="4"/>
<rect width="419" height="86" transform="matrix(-1 0 0 1 508 2)" fill="#343434" stroke="#343434" stroke-width="4"/>
<rect x="508" y="2" width="348" height="86" fill="#343434" stroke="#343434" stroke-width="4"/>
<path d="M13.32 58V30H18.68L35.2 50.16H32.6V30H39V58H33.68L17.12 37.84H19.72V58H13.32ZM55.4247 58.32C53.1314 58.32 51.0914 57.84 49.3047 56.88C47.5447 55.92 46.1447 54.6133 45.1047 52.96C44.0914 51.28 43.5847 49.3733 43.5847 47.24C43.5847 45.08 44.0914 43.1733 45.1047 41.52C46.1447 39.84 47.5447 38.5333 49.3047 37.6C51.0914 36.64 53.1314 36.16 55.4247 36.16C57.6914 36.16 59.718 36.64 61.5047 37.6C63.2914 38.5333 64.6914 39.8267 65.7047 41.48C66.718 43.1333 67.2247 45.0533 67.2247 47.24C67.2247 49.3733 66.718 51.28 65.7047 52.96C64.6914 54.6133 63.2914 55.92 61.5047 56.88C59.718 57.84 57.6914 58.32 55.4247 58.32ZM55.4247 53.2C56.4647 53.2 57.398 52.96 58.2247 52.48C59.0514 52 59.7047 51.32 60.1847 50.44C60.6647 49.5333 60.9047 48.4667 60.9047 47.24C60.9047 45.9867 60.6647 44.92 60.1847 44.04C59.7047 43.16 59.0514 42.48 58.2247 42C57.398 41.52 56.4647 41.28 55.4247 41.28C54.3847 41.28 53.4514 41.52 52.6247 42C51.798 42.48 51.1314 43.16 50.6247 44.04C50.1447 44.92 49.9047 45.9867 49.9047 47.24C49.9047 48.4667 50.1447 49.5333 50.6247 50.44C51.1314 51.32 51.798 52 52.6247 52.48C53.4514 52.96 54.3847 53.2 55.4247 53.2ZM73.5213 58.32C72.4546 58.32 71.5346 57.96 70.7613 57.24C70.0146 56.4933 69.6413 55.5467 69.6413 54.4C69.6413 53.2533 70.0146 52.3333 70.7613 51.64C71.5346 50.92 72.4546 50.56 73.5213 50.56C74.6146 50.56 75.5346 50.92 76.2813 51.64C77.0279 52.3333 77.4013 53.2533 77.4013 54.4C77.4013 55.5467 77.0279 56.4933 76.2813 57.24C75.5346 57.96 74.6146 58.32 73.5213 58.32Z" fill="white"/>
<path d="M106.32 58V30H111.68L128.2 50.16H125.6V30H132V58H126.68L110.12 37.84H112.72V58H106.32ZM151.385 58V53.8L150.985 52.88V45.36C150.985 44.0267 150.571 42.9867 149.745 42.24C148.945 41.4933 147.705 41.12 146.025 41.12C144.878 41.12 143.745 41.3067 142.625 41.68C141.531 42.0267 140.598 42.5067 139.825 43.12L137.585 38.76C138.758 37.9333 140.171 37.2933 141.825 36.84C143.478 36.3867 145.158 36.16 146.865 36.16C150.145 36.16 152.691 36.9333 154.505 38.48C156.318 40.0267 157.225 42.44 157.225 45.72V58H151.385ZM144.825 58.32C143.145 58.32 141.705 58.04 140.505 57.48C139.305 56.8933 138.385 56.1067 137.745 55.12C137.105 54.1333 136.785 53.0267 136.785 51.8C136.785 50.52 137.091 49.4 137.705 48.44C138.345 47.48 139.345 46.7333 140.705 46.2C142.065 45.64 143.838 45.36 146.025 45.36H151.745V49H146.705C145.238 49 144.225 49.24 143.665 49.72C143.131 50.2 142.865 50.8 142.865 51.52C142.865 52.32 143.171 52.96 143.785 53.44C144.425 53.8933 145.291 54.12 146.385 54.12C147.425 54.12 148.358 53.88 149.185 53.4C150.011 52.8933 150.611 52.16 150.985 51.2L151.945 54.08C151.491 55.4667 150.665 56.52 149.465 57.24C148.265 57.96 146.718 58.32 144.825 58.32ZM190.432 36.16C192.139 36.16 193.646 36.5067 194.952 37.2C196.286 37.8667 197.326 38.9067 198.072 40.32C198.846 41.7067 199.232 43.4933 199.232 45.68V58H192.992V46.64C192.992 44.9067 192.632 43.6267 191.912 42.8C191.192 41.9733 190.179 41.56 188.872 41.56C187.966 41.56 187.152 41.7733 186.432 42.2C185.712 42.6 185.152 43.2133 184.752 44.04C184.352 44.8667 184.152 45.92 184.152 47.2V58H177.912V46.64C177.912 44.9067 177.552 43.6267 176.832 42.8C176.139 41.9733 175.139 41.56 173.832 41.56C172.926 41.56 172.112 41.7733 171.392 42.2C170.672 42.6 170.112 43.2133 169.712 44.04C169.312 44.8667 169.112 45.92 169.112 47.2V58H162.872V36.48H168.832V42.36L167.712 40.64C168.459 39.1733 169.512 38.0667 170.872 37.32C172.259 36.5467 173.832 36.16 175.592 36.16C177.566 36.16 179.286 36.6667 180.752 37.68C182.246 38.6667 183.232 40.1867 183.712 42.24L181.512 41.64C182.232 39.96 183.379 38.6267 184.952 37.64C186.552 36.6533 188.379 36.16 190.432 36.16ZM218.025 58V53.8L217.625 52.88V45.36C217.625 44.0267 217.212 42.9867 216.385 42.24C215.585 41.4933 214.345 41.12 212.665 41.12C211.519 41.12 210.385 41.3067 209.265 41.68C208.172 42.0267 207.239 42.5067 206.465 43.12L204.225 38.76C205.399 37.9333 206.812 37.2933 208.465 36.84C210.119 36.3867 211.799 36.16 213.505 36.16C216.785 36.16 219.332 36.9333 221.145 38.48C222.959 40.0267 223.865 42.44 223.865 45.72V58H218.025ZM211.465 58.32C209.785 58.32 208.345 58.04 207.145 57.48C205.945 56.8933 205.025 56.1067 204.385 55.12C203.745 54.1333 203.425 53.0267 203.425 51.8C203.425 50.52 203.732 49.4 204.345 48.44C204.985 47.48 205.985 46.7333 207.345 46.2C208.705 45.64 210.479 45.36 212.665 45.36H218.385V49H213.345C211.879 49 210.865 49.24 210.305 49.72C209.772 50.2 209.505 50.8 209.505 51.52C209.505 52.32 209.812 52.96 210.425 53.44C211.065 53.8933 211.932 54.12 213.025 54.12C214.065 54.12 214.999 53.88 215.825 53.4C216.652 52.8933 217.252 52.16 217.625 51.2L218.585 54.08C218.132 55.4667 217.305 56.52 216.105 57.24C214.905 57.96 213.359 58.32 211.465 58.32ZM241.281 58V30H247.761V52.72H261.801V58H241.281ZM278.338 58V53.8L277.938 52.88V45.36C277.938 44.0267 277.524 42.9867 276.698 42.24C275.898 41.4933 274.658 41.12 272.978 41.12C271.831 41.12 270.698 41.3067 269.578 41.68C268.484 42.0267 267.551 42.5067 266.778 43.12L264.538 38.76C265.711 37.9333 267.124 37.2933 268.778 36.84C270.431 36.3867 272.111 36.16 273.818 36.16C277.098 36.16 279.644 36.9333 281.458 38.48C283.271 40.0267 284.178 42.44 284.178 45.72V58H278.338ZM271.778 58.32C270.098 58.32 268.658 58.04 267.458 57.48C266.258 56.8933 265.338 56.1067 264.698 55.12C264.058 54.1333 263.738 53.0267 263.738 51.8C263.738 50.52 264.044 49.4 264.658 48.44C265.298 47.48 266.298 46.7333 267.658 46.2C269.018 45.64 270.791 45.36 272.978 45.36H278.698V49H273.658C272.191 49 271.178 49.24 270.618 49.72C270.084 50.2 269.818 50.8 269.818 51.52C269.818 52.32 270.124 52.96 270.738 53.44C271.378 53.8933 272.244 54.12 273.338 54.12C274.378 54.12 275.311 53.88 276.138 53.4C276.964 52.8933 277.564 52.16 277.938 51.2L278.898 54.08C278.444 55.4667 277.618 56.52 276.418 57.24C275.218 57.96 273.671 58.32 271.778 58.32ZM292.155 66.08C291.035 66.08 289.928 65.9067 288.835 65.56C287.741 65.2133 286.848 64.7333 286.155 64.12L288.435 59.68C288.915 60.1067 289.461 60.44 290.075 60.68C290.715 60.92 291.341 61.04 291.955 61.04C292.835 61.04 293.528 60.8267 294.035 60.4C294.568 60 295.048 59.32 295.475 58.36L296.595 55.72L297.075 55.04L304.795 36.48H310.795L301.075 59.32C300.381 61.0533 299.581 62.4133 298.675 63.4C297.795 64.3867 296.808 65.08 295.715 65.48C294.648 65.88 293.461 66.08 292.155 66.08ZM295.835 58.84L286.235 36.48H292.675L300.115 54.48L295.835 58.84ZM325.838 58V53.8L325.438 52.88V45.36C325.438 44.0267 325.024 42.9867 324.198 42.24C323.398 41.4933 322.158 41.12 320.478 41.12C319.331 41.12 318.198 41.3067 317.078 41.68C315.984 42.0267 315.051 42.5067 314.278 43.12L312.038 38.76C313.211 37.9333 314.624 37.2933 316.278 36.84C317.931 36.3867 319.611 36.16 321.318 36.16C324.598 36.16 327.144 36.9333 328.958 38.48C330.771 40.0267 331.678 42.44 331.678 45.72V58H325.838ZM319.278 58.32C317.598 58.32 316.158 58.04 314.958 57.48C313.758 56.8933 312.838 56.1067 312.198 55.12C311.558 54.1333 311.238 53.0267 311.238 51.8C311.238 50.52 311.544 49.4 312.158 48.44C312.798 47.48 313.798 46.7333 315.158 46.2C316.518 45.64 318.291 45.36 320.478 45.36H326.198V49H321.158C319.691 49 318.678 49.24 318.118 49.72C317.584 50.2 317.318 50.8 317.318 51.52C317.318 52.32 317.624 52.96 318.238 53.44C318.878 53.8933 319.744 54.12 320.838 54.12C321.878 54.12 322.811 53.88 323.638 53.4C324.464 52.8933 325.064 52.16 325.438 51.2L326.398 54.08C325.944 55.4667 325.118 56.52 323.918 57.24C322.718 57.96 321.171 58.32 319.278 58.32ZM350.405 36.16C352.112 36.16 353.632 36.5067 354.965 37.2C356.325 37.8667 357.392 38.9067 358.165 40.32C358.939 41.7067 359.325 43.4933 359.325 45.68V58H353.085V46.64C353.085 44.9067 352.699 43.6267 351.925 42.8C351.179 41.9733 350.112 41.56 348.725 41.56C347.739 41.56 346.845 41.7733 346.045 42.2C345.272 42.6 344.659 43.2267 344.205 44.08C343.779 44.9333 343.565 46.0267 343.565 47.36V58H337.325V36.48H343.285V42.44L342.165 40.64C342.939 39.2 344.045 38.0933 345.485 37.32C346.925 36.5467 348.565 36.16 350.405 36.16ZM378.182 58V53.8L377.782 52.88V45.36C377.782 44.0267 377.368 42.9867 376.542 42.24C375.742 41.4933 374.502 41.12 372.822 41.12C371.675 41.12 370.542 41.3067 369.422 41.68C368.328 42.0267 367.395 42.5067 366.622 43.12L364.382 38.76C365.555 37.9333 366.968 37.2933 368.622 36.84C370.275 36.3867 371.955 36.16 373.662 36.16C376.942 36.16 379.488 36.9333 381.302 38.48C383.115 40.0267 384.022 42.44 384.022 45.72V58H378.182ZM371.622 58.32C369.942 58.32 368.502 58.04 367.302 57.48C366.102 56.8933 365.182 56.1067 364.542 55.12C363.902 54.1333 363.582 53.0267 363.582 51.8C363.582 50.52 363.888 49.4 364.502 48.44C365.142 47.48 366.142 46.7333 367.502 46.2C368.862 45.64 370.635 45.36 372.822 45.36H378.542V49H373.502C372.035 49 371.022 49.24 370.462 49.72C369.928 50.2 369.662 50.8 369.662 51.52C369.662 52.32 369.968 52.96 370.582 53.44C371.222 53.8933 372.088 54.12 373.182 54.12C374.222 54.12 375.155 53.88 375.982 53.4C376.808 52.8933 377.408 52.16 377.782 51.2L378.742 54.08C378.288 55.4667 377.462 56.52 376.262 57.24C375.062 57.96 373.515 58.32 371.622 58.32ZM402.749 36.16C404.456 36.16 405.976 36.5067 407.309 37.2C408.669 37.8667 409.736 38.9067 410.509 40.32C411.282 41.7067 411.669 43.4933 411.669 45.68V58H405.429V46.64C405.429 44.9067 405.042 43.6267 404.269 42.8C403.522 41.9733 402.456 41.56 401.069 41.56C400.082 41.56 399.189 41.7733 398.389 42.2C397.616 42.6 397.002 43.2267 396.549 44.08C396.122 44.9333 395.909 46.0267 395.909 47.36V58H389.669V36.48H395.629V42.44L394.509 40.64C395.282 39.2 396.389 38.0933 397.829 37.32C399.269 36.5467 400.909 36.16 402.749 36.16Z" fill="white"/>
<path d="M524.32 58V30H538C541.52 30 544.16 30.6667 545.92 32C547.707 33.3333 548.6 35.0933 548.6 37.28C548.6 38.7467 548.24 40.0267 547.52 41.12C546.8 42.1867 545.813 43.0133 544.56 43.6C543.307 44.1867 541.867 44.48 540.24 44.48L541 42.84C542.76 42.84 544.32 43.1333 545.68 43.72C547.04 44.28 548.093 45.12 548.84 46.24C549.613 47.36 550 48.7333 550 50.36C550 52.76 549.053 54.64 547.16 56C545.267 57.3333 542.48 58 538.8 58H524.32ZM530.76 53.12H538.32C540 53.12 541.267 52.8533 542.12 52.32C543 51.76 543.44 50.88 543.44 49.68C543.44 48.5067 543 47.64 542.12 47.08C541.267 46.4933 540 46.2 538.32 46.2H530.28V41.48H537.2C538.773 41.48 539.973 41.2133 540.8 40.68C541.653 40.12 542.08 39.28 542.08 38.16C542.08 37.0667 541.653 36.2533 540.8 35.72C539.973 35.16 538.773 34.88 537.2 34.88H530.76V53.12ZM554.466 58V36.48H560.706V58H554.466ZM557.586 33.48C556.439 33.48 555.506 33.1467 554.786 32.48C554.066 31.8133 553.706 30.9867 553.706 30C553.706 29.0133 554.066 28.1867 554.786 27.52C555.506 26.8533 556.439 26.52 557.586 26.52C558.733 26.52 559.666 26.84 560.386 27.48C561.106 28.0933 561.466 28.8933 561.466 29.88C561.466 30.92 561.106 31.7867 560.386 32.48C559.693 33.1467 558.759 33.48 557.586 33.48ZM579.697 58V53.8L579.297 52.88V45.36C579.297 44.0267 578.884 42.9867 578.057 42.24C577.257 41.4933 576.017 41.12 574.337 41.12C573.191 41.12 572.057 41.3067 570.937 41.68C569.844 42.0267 568.911 42.5067 568.137 43.12L565.897 38.76C567.071 37.9333 568.484 37.2933 570.137 36.84C571.791 36.3867 573.471 36.16 575.177 36.16C578.457 36.16 581.004 36.9333 582.817 38.48C584.631 40.0267 585.537 42.44 585.537 45.72V58H579.697ZM573.137 58.32C571.457 58.32 570.017 58.04 568.817 57.48C567.617 56.8933 566.697 56.1067 566.057 55.12C565.417 54.1333 565.097 53.0267 565.097 51.8C565.097 50.52 565.404 49.4 566.017 48.44C566.657 47.48 567.657 46.7333 569.017 46.2C570.377 45.64 572.151 45.36 574.337 45.36H580.057V49H575.017C573.551 49 572.537 49.24 571.977 49.72C571.444 50.2 571.177 50.8 571.177 51.52C571.177 52.32 571.484 52.96 572.097 53.44C572.737 53.8933 573.604 54.12 574.697 54.12C575.737 54.12 576.671 53.88 577.497 53.4C578.324 52.8933 578.924 52.16 579.297 51.2L580.257 54.08C579.804 55.4667 578.977 56.52 577.777 57.24C576.577 57.96 575.031 58.32 573.137 58.32ZM593.514 66.08C592.394 66.08 591.287 65.9067 590.194 65.56C589.101 65.2133 588.207 64.7333 587.514 64.12L589.794 59.68C590.274 60.1067 590.821 60.44 591.434 60.68C592.074 60.92 592.701 61.04 593.314 61.04C594.194 61.04 594.887 60.8267 595.394 60.4C595.927 60 596.407 59.32 596.834 58.36L597.954 55.72L598.434 55.04L606.154 36.48H612.154L602.434 59.32C601.741 61.0533 600.941 62.4133 600.034 63.4C599.154 64.3867 598.167 65.08 597.074 65.48C596.007 65.88 594.821 66.08 593.514 66.08ZM597.194 58.84L587.594 36.48H594.034L601.474 54.48L597.194 58.84ZM627.197 58V53.8L626.797 52.88V45.36C626.797 44.0267 626.384 42.9867 625.557 42.24C624.757 41.4933 623.517 41.12 621.837 41.12C620.691 41.12 619.557 41.3067 618.437 41.68C617.344 42.0267 616.411 42.5067 615.637 43.12L613.397 38.76C614.571 37.9333 615.984 37.2933 617.637 36.84C619.291 36.3867 620.971 36.16 622.677 36.16C625.957 36.16 628.504 36.9333 630.317 38.48C632.131 40.0267 633.037 42.44 633.037 45.72V58H627.197ZM620.637 58.32C618.957 58.32 617.517 58.04 616.317 57.48C615.117 56.8933 614.197 56.1067 613.557 55.12C612.917 54.1333 612.597 53.0267 612.597 51.8C612.597 50.52 612.904 49.4 613.517 48.44C614.157 47.48 615.157 46.7333 616.517 46.2C617.877 45.64 619.651 45.36 621.837 45.36H627.557V49H622.517C621.051 49 620.037 49.24 619.477 49.72C618.944 50.2 618.677 50.8 618.677 51.52C618.677 52.32 618.984 52.96 619.597 53.44C620.237 53.8933 621.104 54.12 622.197 54.12C623.237 54.12 624.171 53.88 624.997 53.4C625.824 52.8933 626.424 52.16 626.797 51.2L627.757 54.08C627.304 55.4667 626.477 56.52 625.277 57.24C624.077 57.96 622.531 58.32 620.637 58.32Z" fill="white"/>
<rect x="2" y="232" width="87" height="144" stroke="#343434" stroke-width="4"/>
<rect x="2" y="88" width="87" height="144" stroke="#343434" stroke-width="4"/>
<rect x="89" y="232" width="419" height="144" stroke="#343434" stroke-width="4"/>
<rect x="89" y="88" width="419" height="144" stroke="#343434" stroke-width="4"/>
<rect x="508" y="232" width="348" height="144" stroke="#343434" stroke-width="4"/>
<rect x="508" y="88" width="348" height="144" stroke="#343434" stroke-width="4"/>
<path d="M107.56 297V269H110L122.8 290.84H121.52L134.2 269H136.64V297H133.8V273.44H134.48L122.8 293.44H121.4L109.64 273.44H110.4V297H107.56ZM153.723 297.2C151.696 297.2 149.87 296.747 148.243 295.84C146.643 294.907 145.376 293.64 144.443 292.04C143.51 290.413 143.043 288.56 143.043 286.48C143.043 284.373 143.51 282.52 144.443 280.92C145.376 279.32 146.643 278.067 148.243 277.16C149.843 276.253 151.67 275.8 153.723 275.8C155.803 275.8 157.643 276.253 159.243 277.16C160.87 278.067 162.136 279.32 163.043 280.92C163.976 282.52 164.443 284.373 164.443 286.48C164.443 288.56 163.976 290.413 163.043 292.04C162.136 293.64 160.87 294.907 159.243 295.84C157.616 296.747 155.776 297.2 153.723 297.2ZM153.723 294.68C155.243 294.68 156.59 294.347 157.763 293.68C158.936 292.987 159.856 292.027 160.523 290.8C161.216 289.547 161.563 288.107 161.563 286.48C161.563 284.827 161.216 283.387 160.523 282.16C159.856 280.933 158.936 279.987 157.763 279.32C156.59 278.627 155.256 278.28 153.763 278.28C152.27 278.28 150.936 278.627 149.763 279.32C148.59 279.987 147.656 280.933 146.963 282.16C146.27 283.387 145.923 284.827 145.923 286.48C145.923 288.107 146.27 289.547 146.963 290.8C147.656 292.027 148.59 292.987 149.763 293.68C150.936 294.347 152.256 294.68 153.723 294.68ZM176.881 297.2C174.908 297.2 173.388 296.667 172.321 295.6C171.255 294.533 170.721 293.027 170.721 291.08V271.36H173.561V290.92C173.561 292.147 173.868 293.093 174.481 293.76C175.121 294.427 176.028 294.76 177.201 294.76C178.455 294.76 179.495 294.4 180.321 293.68L181.321 295.72C180.761 296.227 180.081 296.6 179.281 296.84C178.508 297.08 177.708 297.2 176.881 297.2ZM166.961 278.36V276H179.961V278.36H166.961ZM186.491 297V276H189.331V297H186.491ZM187.931 271.36C187.345 271.36 186.851 271.16 186.451 270.76C186.051 270.36 185.851 269.88 185.851 269.32C185.851 268.76 186.051 268.293 186.451 267.92C186.851 267.52 187.345 267.32 187.931 267.32C188.518 267.32 189.011 267.507 189.411 267.88C189.811 268.253 190.011 268.72 190.011 269.28C190.011 269.867 189.811 270.36 189.411 270.76C189.038 271.16 188.545 271.36 187.931 271.36ZM205.793 297.2C203.767 297.2 201.94 296.747 200.313 295.84C198.713 294.907 197.447 293.64 196.513 292.04C195.58 290.413 195.113 288.56 195.113 286.48C195.113 284.373 195.58 282.52 196.513 280.92C197.447 279.32 198.713 278.067 200.313 277.16C201.913 276.253 203.74 275.8 205.793 275.8C207.873 275.8 209.713 276.253 211.313 277.16C212.94 278.067 214.207 279.32 215.113 280.92C216.047 282.52 216.513 284.373 216.513 286.48C216.513 288.56 216.047 290.413 215.113 292.04C214.207 293.64 212.94 294.907 211.313 295.84C209.687 296.747 207.847 297.2 205.793 297.2ZM205.793 294.68C207.313 294.68 208.66 294.347 209.833 293.68C211.007 292.987 211.927 292.027 212.593 290.8C213.287 289.547 213.633 288.107 213.633 286.48C213.633 284.827 213.287 283.387 212.593 282.16C211.927 280.933 211.007 279.987 209.833 279.32C208.66 278.627 207.327 278.28 205.833 278.28C204.34 278.28 203.007 278.627 201.833 279.32C200.66 279.987 199.727 280.933 199.033 282.16C198.34 283.387 197.993 284.827 197.993 286.48C197.993 288.107 198.34 289.547 199.033 290.8C199.727 292.027 200.66 292.987 201.833 293.68C203.007 294.347 204.327 294.68 205.793 294.68ZM233.032 275.8C234.738 275.8 236.232 276.133 237.512 276.8C238.818 277.44 239.832 278.427 240.552 279.76C241.298 281.093 241.672 282.773 241.672 284.8V297H238.832V285.08C238.832 282.867 238.272 281.2 237.152 280.08C236.058 278.933 234.512 278.36 232.512 278.36C231.018 278.36 229.712 278.667 228.592 279.28C227.498 279.867 226.645 280.733 226.032 281.88C225.445 283 225.152 284.36 225.152 285.96V297H222.312V276H225.032V281.76L224.592 280.68C225.258 279.16 226.325 277.973 227.792 277.12C229.258 276.24 231.005 275.8 233.032 275.8ZM272.692 297.24C270.558 297.24 268.585 296.893 266.772 296.2C264.985 295.48 263.425 294.48 262.092 293.2C260.785 291.92 259.758 290.413 259.012 288.68C258.292 286.947 257.932 285.053 257.932 283C257.932 280.947 258.292 279.053 259.012 277.32C259.758 275.587 260.798 274.08 262.132 272.8C263.465 271.52 265.025 270.533 266.812 269.84C268.625 269.12 270.598 268.76 272.732 268.76C274.865 268.76 276.812 269.093 278.572 269.76C280.358 270.427 281.878 271.44 283.132 272.8L281.292 274.68C280.118 273.507 278.825 272.667 277.412 272.16C275.998 271.653 274.478 271.4 272.852 271.4C271.118 271.4 269.518 271.693 268.052 272.28C266.612 272.84 265.345 273.653 264.252 274.72C263.185 275.76 262.345 276.987 261.732 278.4C261.145 279.787 260.852 281.32 260.852 283C260.852 284.653 261.145 286.187 261.732 287.6C262.345 289.013 263.185 290.253 264.252 291.32C265.345 292.36 266.612 293.173 268.052 293.76C269.518 294.32 271.105 294.6 272.812 294.6C274.412 294.6 275.918 294.36 277.332 293.88C278.772 293.4 280.092 292.587 281.292 291.44L282.972 293.68C281.638 294.853 280.078 295.747 278.292 296.36C276.505 296.947 274.638 297.24 272.692 297.24ZM280.132 293.32V283H282.972V293.68L280.132 293.32ZM290.749 297V276H293.469V281.72L293.189 280.72C293.776 279.12 294.762 277.907 296.149 277.08C297.536 276.227 299.256 275.8 301.309 275.8V278.56C301.202 278.56 301.096 278.56 300.989 278.56C300.882 278.533 300.776 278.52 300.669 278.52C298.456 278.52 296.722 279.2 295.469 280.56C294.216 281.893 293.589 283.8 293.589 286.28V297H290.749ZM318.089 297V292.36L317.969 291.6V283.84C317.969 282.053 317.462 280.68 316.449 279.72C315.462 278.76 313.982 278.28 312.009 278.28C310.649 278.28 309.355 278.507 308.129 278.96C306.902 279.413 305.862 280.013 305.009 280.76L303.729 278.64C304.795 277.733 306.075 277.04 307.569 276.56C309.062 276.053 310.635 275.8 312.289 275.8C315.009 275.8 317.102 276.48 318.569 277.84C320.062 279.173 320.809 281.213 320.809 283.96V297H318.089ZM310.849 297.2C309.275 297.2 307.902 296.947 306.729 296.44C305.582 295.907 304.702 295.187 304.089 294.28C303.475 293.347 303.169 292.28 303.169 291.08C303.169 289.987 303.422 289 303.929 288.12C304.462 287.213 305.315 286.493 306.489 285.96C307.689 285.4 309.289 285.12 311.289 285.12H318.529V287.24H311.369C309.342 287.24 307.929 287.6 307.129 288.32C306.355 289.04 305.969 289.933 305.969 291C305.969 292.2 306.435 293.16 307.369 293.88C308.302 294.6 309.609 294.96 311.289 294.96C312.889 294.96 314.262 294.6 315.409 293.88C316.582 293.133 317.435 292.067 317.969 290.68L318.609 292.64C318.075 294.027 317.142 295.133 315.809 295.96C314.502 296.787 312.849 297.2 310.849 297.2ZM339.363 297.2C337.549 297.2 335.909 296.787 334.443 295.96C332.976 295.107 331.803 293.893 330.923 292.32C330.069 290.72 329.643 288.773 329.643 286.48C329.643 284.187 330.069 282.253 330.923 280.68C331.776 279.08 332.936 277.867 334.403 277.04C335.869 276.213 337.523 275.8 339.363 275.8C341.363 275.8 343.149 276.253 344.723 277.16C346.323 278.04 347.576 279.293 348.483 280.92C349.389 282.52 349.843 284.373 349.843 286.48C349.843 288.613 349.389 290.48 348.483 292.08C347.576 293.68 346.323 294.933 344.723 295.84C343.149 296.747 341.363 297.2 339.363 297.2ZM328.523 304.76V276H331.243V282.32L330.963 286.52L331.363 290.76V304.76H328.523ZM339.163 294.68C340.656 294.68 341.989 294.347 343.163 293.68C344.336 292.987 345.269 292.027 345.963 290.8C346.656 289.547 347.003 288.107 347.003 286.48C347.003 284.853 346.656 283.427 345.963 282.2C345.269 280.973 344.336 280.013 343.163 279.32C341.989 278.627 340.656 278.28 339.163 278.28C337.669 278.28 336.323 278.627 335.122 279.32C333.949 280.013 333.016 280.973 332.323 282.2C331.656 283.427 331.323 284.853 331.323 286.48C331.323 288.107 331.656 289.547 332.323 290.8C333.016 292.027 333.949 292.987 335.122 293.68C336.323 294.347 337.669 294.68 339.163 294.68ZM364.352 297.2C362.272 297.2 360.405 296.747 358.752 295.84C357.125 294.907 355.845 293.64 354.912 292.04C353.979 290.413 353.512 288.56 353.512 286.48C353.512 284.373 353.979 282.52 354.912 280.92C355.845 279.32 357.125 278.067 358.752 277.16C360.405 276.253 362.272 275.8 364.352 275.8C366.139 275.8 367.752 276.147 369.192 276.84C370.632 277.533 371.765 278.573 372.592 279.96L370.472 281.4C369.752 280.333 368.859 279.547 367.792 279.04C366.725 278.533 365.565 278.28 364.312 278.28C362.819 278.28 361.472 278.627 360.272 279.32C359.072 279.987 358.125 280.933 357.432 282.16C356.739 283.387 356.392 284.827 356.392 286.48C356.392 288.133 356.739 289.573 357.432 290.8C358.125 292.027 359.072 292.987 360.272 293.68C361.472 294.347 362.819 294.68 364.312 294.68C365.565 294.68 366.725 294.427 367.792 293.92C368.859 293.413 369.752 292.64 370.472 291.6L372.592 293.04C371.765 294.4 370.632 295.44 369.192 296.16C367.752 296.853 366.139 297.2 364.352 297.2ZM388.578 275.8C390.285 275.8 391.778 276.133 393.058 276.8C394.365 277.44 395.378 278.427 396.098 279.76C396.845 281.093 397.218 282.773 397.218 284.8V297H394.378V285.08C394.378 282.867 393.818 281.2 392.698 280.08C391.605 278.933 390.058 278.36 388.058 278.36C386.565 278.36 385.258 278.667 384.138 279.28C383.045 279.867 382.192 280.733 381.578 281.88C380.992 283 380.698 284.36 380.698 285.96V297H377.858V267.32H380.698V281.76L380.138 280.68C380.805 279.16 381.872 277.973 383.338 277.12C384.805 276.24 386.552 275.8 388.578 275.8ZM404.89 297V276H407.73V297H404.89ZM406.33 271.36C405.743 271.36 405.25 271.16 404.85 270.76C404.45 270.36 404.25 269.88 404.25 269.32C404.25 268.76 404.45 268.293 404.85 267.92C405.25 267.52 405.743 267.32 406.33 267.32C406.916 267.32 407.41 267.507 407.81 267.88C408.21 268.253 408.41 268.72 408.41 269.28C408.41 269.867 408.21 270.36 407.81 270.76C407.436 271.16 406.943 271.36 406.33 271.36ZM424.352 297.2C422.272 297.2 420.405 296.747 418.752 295.84C417.125 294.907 415.845 293.64 414.912 292.04C413.979 290.413 413.512 288.56 413.512 286.48C413.512 284.373 413.979 282.52 414.912 280.92C415.845 279.32 417.125 278.067 418.752 277.16C420.405 276.253 422.272 275.8 424.352 275.8C426.139 275.8 427.752 276.147 429.192 276.84C430.632 277.533 431.765 278.573 432.592 279.96L430.472 281.4C429.752 280.333 428.859 279.547 427.792 279.04C426.725 278.533 425.565 278.28 424.312 278.28C422.819 278.28 421.472 278.627 420.272 279.32C419.072 279.987 418.125 280.933 417.432 282.16C416.739 283.387 416.392 284.827 416.392 286.48C416.392 288.133 416.739 289.573 417.432 290.8C418.125 292.027 419.072 292.987 420.272 293.68C421.472 294.347 422.819 294.68 424.312 294.68C425.565 294.68 426.725 294.427 427.792 293.92C428.859 293.413 429.752 292.64 430.472 291.6L432.592 293.04C431.765 294.4 430.632 295.44 429.192 296.16C427.752 296.853 426.139 297.2 424.352 297.2ZM443.811 297.2C442.078 297.2 440.438 296.96 438.891 296.48C437.344 295.973 436.131 295.347 435.251 294.6L436.531 292.36C437.384 293 438.478 293.56 439.811 294.04C441.144 294.493 442.544 294.72 444.011 294.72C446.011 294.72 447.451 294.413 448.331 293.8C449.211 293.16 449.651 292.32 449.651 291.28C449.651 290.507 449.398 289.907 448.891 289.48C448.411 289.027 447.771 288.693 446.971 288.48C446.171 288.24 445.278 288.04 444.291 287.88C443.304 287.72 442.318 287.533 441.331 287.32C440.371 287.107 439.491 286.8 438.691 286.4C437.891 285.973 437.238 285.4 436.731 284.68C436.251 283.96 436.011 283 436.011 281.8C436.011 280.653 436.331 279.627 436.971 278.72C437.611 277.813 438.544 277.107 439.771 276.6C441.024 276.067 442.544 275.8 444.331 275.8C445.691 275.8 447.051 275.987 448.411 276.36C449.771 276.707 450.891 277.173 451.771 277.76L450.531 280.04C449.598 279.4 448.598 278.947 447.531 278.68C446.464 278.387 445.398 278.24 444.331 278.24C442.438 278.24 441.038 278.573 440.131 279.24C439.251 279.88 438.811 280.707 438.811 281.72C438.811 282.52 439.051 283.147 439.531 283.6C440.038 284.053 440.691 284.413 441.491 284.68C442.318 284.92 443.211 285.12 444.171 285.28C445.158 285.44 446.131 285.64 447.091 285.88C448.078 286.093 448.971 286.4 449.771 286.8C450.598 287.173 451.251 287.72 451.731 288.44C452.238 289.133 452.491 290.053 452.491 291.2C452.491 292.427 452.144 293.493 451.451 294.4C450.784 295.28 449.798 295.973 448.491 296.48C447.211 296.96 445.651 297.2 443.811 297.2ZM107.56 337V309H110.52V337H107.56ZM129.75 315.8C131.457 315.8 132.95 316.133 134.23 316.8C135.537 317.44 136.55 318.427 137.27 319.76C138.017 321.093 138.39 322.773 138.39 324.8V337H135.55V325.08C135.55 322.867 134.99 321.2 133.87 320.08C132.777 318.933 131.23 318.36 129.23 318.36C127.737 318.36 126.43 318.667 125.31 319.28C124.217 319.867 123.364 320.733 122.75 321.88C122.164 323 121.87 324.36 121.87 325.96V337H119.03V316H121.75V321.76L121.31 320.68C121.977 319.16 123.044 317.973 124.51 317.12C125.977 316.24 127.724 315.8 129.75 315.8ZM152.702 337.2C150.728 337.2 149.208 336.667 148.142 335.6C147.075 334.533 146.542 333.027 146.542 331.08V311.36H149.382V330.92C149.382 332.147 149.688 333.093 150.302 333.76C150.942 334.427 151.848 334.76 153.022 334.76C154.275 334.76 155.315 334.4 156.142 333.68L157.142 335.72C156.582 336.227 155.902 336.6 155.102 336.84C154.328 337.08 153.528 337.2 152.702 337.2ZM142.782 318.36V316H155.782V318.36H142.782ZM170.489 337.2C168.303 337.2 166.383 336.747 164.729 335.84C163.076 334.907 161.783 333.64 160.849 332.04C159.916 330.413 159.449 328.56 159.449 326.48C159.449 324.4 159.889 322.56 160.769 320.96C161.676 319.36 162.903 318.107 164.449 317.2C166.023 316.267 167.783 315.8 169.729 315.8C171.703 315.8 173.449 316.253 174.969 317.16C176.516 318.04 177.729 319.293 178.609 320.92C179.489 322.52 179.929 324.373 179.929 326.48C179.929 326.613 179.916 326.76 179.889 326.92C179.889 327.053 179.889 327.2 179.889 327.36H161.609V325.24H178.369L177.249 326.08C177.249 324.56 176.916 323.213 176.249 322.04C175.609 320.84 174.729 319.907 173.609 319.24C172.489 318.573 171.196 318.24 169.729 318.24C168.289 318.24 166.996 318.573 165.849 319.24C164.703 319.907 163.809 320.84 163.169 322.04C162.529 323.24 162.209 324.613 162.209 326.16V326.6C162.209 328.2 162.556 329.613 163.249 330.84C163.969 332.04 164.956 332.987 166.209 333.68C167.489 334.347 168.943 334.68 170.569 334.68C171.849 334.68 173.036 334.453 174.129 334C175.249 333.547 176.209 332.853 177.009 331.92L178.609 333.76C177.676 334.88 176.503 335.733 175.089 336.32C173.703 336.907 172.169 337.2 170.489 337.2ZM185.71 337V316H188.43V321.72L188.15 320.72C188.737 319.12 189.723 317.907 191.11 317.08C192.497 316.227 194.217 315.8 196.27 315.8V318.56C196.163 318.56 196.057 318.56 195.95 318.56C195.843 318.533 195.737 318.52 195.63 318.52C193.417 318.52 191.683 319.2 190.43 320.56C189.177 321.893 188.55 323.8 188.55 326.28V337H185.71ZM227.692 315.8C229.399 315.8 230.879 316.133 232.132 316.8C233.412 317.44 234.399 318.427 235.092 319.76C235.812 321.093 236.172 322.773 236.172 324.8V337H233.332V325.08C233.332 322.867 232.799 321.2 231.732 320.08C230.692 318.933 229.212 318.36 227.292 318.36C225.852 318.36 224.599 318.667 223.532 319.28C222.492 319.867 221.679 320.733 221.092 321.88C220.532 323 220.252 324.36 220.252 325.96V337H217.412V325.08C217.412 322.867 216.879 321.2 215.812 320.08C214.746 318.933 213.252 318.36 211.332 318.36C209.919 318.36 208.679 318.667 207.612 319.28C206.546 319.867 205.719 320.733 205.132 321.88C204.572 323 204.292 324.36 204.292 325.96V337H201.452V316H204.172V321.68L203.732 320.68C204.372 319.16 205.399 317.973 206.812 317.12C208.252 316.24 209.946 315.8 211.892 315.8C213.946 315.8 215.692 316.32 217.132 317.36C218.572 318.373 219.506 319.907 219.932 321.96L218.812 321.52C219.426 319.813 220.506 318.44 222.052 317.4C223.626 316.333 225.506 315.8 227.692 315.8ZM252.794 337.2C250.607 337.2 248.687 336.747 247.034 335.84C245.381 334.907 244.087 333.64 243.154 332.04C242.221 330.413 241.754 328.56 241.754 326.48C241.754 324.4 242.194 322.56 243.074 320.96C243.981 319.36 245.207 318.107 246.754 317.2C248.327 316.267 250.087 315.8 252.034 315.8C254.007 315.8 255.754 316.253 257.274 317.16C258.821 318.04 260.034 319.293 260.914 320.92C261.794 322.52 262.234 324.373 262.234 326.48C262.234 326.613 262.221 326.76 262.194 326.92C262.194 327.053 262.194 327.2 262.194 327.36H243.914V325.24H260.674L259.554 326.08C259.554 324.56 259.221 323.213 258.554 322.04C257.914 320.84 257.034 319.907 255.914 319.24C254.794 318.573 253.501 318.24 252.034 318.24C250.594 318.24 249.301 318.573 248.154 319.24C247.007 319.907 246.114 320.84 245.474 322.04C244.834 323.24 244.514 324.613 244.514 326.16V326.6C244.514 328.2 244.861 329.613 245.554 330.84C246.274 332.04 247.261 332.987 248.514 333.68C249.794 334.347 251.247 334.68 252.874 334.68C254.154 334.68 255.341 334.453 256.434 334C257.554 333.547 258.514 332.853 259.314 331.92L260.914 333.76C259.981 334.88 258.807 335.733 257.394 336.32C256.007 336.907 254.474 337.2 252.794 337.2ZM276.375 337.2C274.375 337.2 272.575 336.747 270.975 335.84C269.401 334.933 268.161 333.68 267.255 332.08C266.348 330.453 265.895 328.587 265.895 326.48C265.895 324.347 266.348 322.48 267.255 320.88C268.161 319.28 269.401 318.04 270.975 317.16C272.575 316.253 274.375 315.8 276.375 315.8C278.215 315.8 279.855 316.213 281.295 317.04C282.761 317.867 283.921 319.08 284.775 320.68C285.655 322.253 286.095 324.187 286.095 326.48C286.095 328.747 285.668 330.68 284.815 332.28C283.961 333.88 282.801 335.107 281.335 335.96C279.895 336.787 278.241 337.2 276.375 337.2ZM276.575 334.68C278.068 334.68 279.401 334.347 280.575 333.68C281.775 332.987 282.708 332.027 283.375 330.8C284.068 329.547 284.415 328.107 284.415 326.48C284.415 324.827 284.068 323.387 283.375 322.16C282.708 320.933 281.775 319.987 280.575 319.32C279.401 318.627 278.068 318.28 276.575 318.28C275.108 318.28 273.788 318.627 272.615 319.32C271.441 319.987 270.508 320.933 269.815 322.16C269.121 323.387 268.775 324.827 268.775 326.48C268.775 328.107 269.121 329.547 269.815 330.8C270.508 332.027 271.441 332.987 272.615 333.68C273.788 334.347 275.108 334.68 276.575 334.68ZM284.495 337V330.68L284.775 326.44L284.375 322.2V307.32H287.215V337H284.495ZM295.124 337V316H297.964V337H295.124ZM296.564 311.36C295.977 311.36 295.484 311.16 295.084 310.76C294.684 310.36 294.484 309.88 294.484 309.32C294.484 308.76 294.684 308.293 295.084 307.92C295.484 307.52 295.977 307.32 296.564 307.32C297.151 307.32 297.644 307.507 298.044 307.88C298.444 308.253 298.644 308.72 298.644 309.28C298.644 309.867 298.444 310.36 298.044 310.76C297.671 311.16 297.177 311.36 296.564 311.36ZM319.026 337V332.36L318.906 331.6V323.84C318.906 322.053 318.4 320.68 317.386 319.72C316.4 318.76 314.92 318.28 312.946 318.28C311.586 318.28 310.293 318.507 309.066 318.96C307.84 319.413 306.8 320.013 305.946 320.76L304.666 318.64C305.733 317.733 307.013 317.04 308.506 316.56C310 316.053 311.573 315.8 313.226 315.8C315.946 315.8 318.04 316.48 319.506 317.84C321 319.173 321.746 321.213 321.746 323.96V337H319.026ZM311.786 337.2C310.213 337.2 308.84 336.947 307.666 336.44C306.52 335.907 305.64 335.187 305.026 334.28C304.413 333.347 304.106 332.28 304.106 331.08C304.106 329.987 304.36 329 304.866 328.12C305.4 327.213 306.253 326.493 307.426 325.96C308.626 325.4 310.226 325.12 312.226 325.12H319.466V327.24H312.306C310.28 327.24 308.866 327.6 308.066 328.32C307.293 329.04 306.906 329.933 306.906 331C306.906 332.2 307.373 333.16 308.306 333.88C309.24 334.6 310.546 334.96 312.226 334.96C313.826 334.96 315.2 334.6 316.346 333.88C317.52 333.133 318.373 332.067 318.906 330.68L319.546 332.64C319.013 334.027 318.08 335.133 316.746 335.96C315.44 336.787 313.786 337.2 311.786 337.2ZM336.1 337.2C334.127 337.2 332.607 336.667 331.54 335.6C330.473 334.533 329.94 333.027 329.94 331.08V311.36H332.78V330.92C332.78 332.147 333.087 333.093 333.7 333.76C334.34 334.427 335.247 334.76 336.42 334.76C337.673 334.76 338.713 334.4 339.54 333.68L340.54 335.72C339.98 336.227 339.3 336.6 338.5 336.84C337.727 337.08 336.927 337.2 336.1 337.2ZM326.18 318.36V316H339.18V318.36H326.18ZM353.888 337.2C351.701 337.2 349.781 336.747 348.128 335.84C346.474 334.907 345.181 333.64 344.248 332.04C343.314 330.413 342.848 328.56 342.848 326.48C342.848 324.4 343.288 322.56 344.168 320.96C345.074 319.36 346.301 318.107 347.848 317.2C349.421 316.267 351.181 315.8 353.128 315.8C355.101 315.8 356.848 316.253 358.368 317.16C359.914 318.04 361.128 319.293 362.008 320.92C362.888 322.52 363.328 324.373 363.328 326.48C363.328 326.613 363.314 326.76 363.288 326.92C363.288 327.053 363.288 327.2 363.288 327.36H345.008V325.24H361.768L360.648 326.08C360.648 324.56 360.314 323.213 359.648 322.04C359.008 320.84 358.128 319.907 357.008 319.24C355.888 318.573 354.594 318.24 353.128 318.24C351.688 318.24 350.394 318.573 349.248 319.24C348.101 319.907 347.208 320.84 346.568 322.04C345.928 323.24 345.608 324.613 345.608 326.16V326.6C345.608 328.2 345.954 329.613 346.648 330.84C347.368 332.04 348.354 332.987 349.608 333.68C350.888 334.347 352.341 334.68 353.968 334.68C355.248 334.68 356.434 334.453 357.528 334C358.648 333.547 359.608 332.853 360.408 331.92L362.008 333.76C361.074 334.88 359.901 335.733 358.488 336.32C357.101 336.907 355.568 337.2 353.888 337.2Z" fill="black"/>
<path d="M107.56 154V126H110L122.8 147.84H121.52L134.2 126H136.64V154H133.8V130.44H134.48L122.8 150.44H121.4L109.64 130.44H110.4V154H107.56ZM153.723 154.2C151.696 154.2 149.87 153.747 148.243 152.84C146.643 151.907 145.376 150.64 144.443 149.04C143.51 147.413 143.043 145.56 143.043 143.48C143.043 141.373 143.51 139.52 144.443 137.92C145.376 136.32 146.643 135.067 148.243 134.16C149.843 133.253 151.67 132.8 153.723 132.8C155.803 132.8 157.643 133.253 159.243 134.16C160.87 135.067 162.136 136.32 163.043 137.92C163.976 139.52 164.443 141.373 164.443 143.48C164.443 145.56 163.976 147.413 163.043 149.04C162.136 150.64 160.87 151.907 159.243 152.84C157.616 153.747 155.776 154.2 153.723 154.2ZM153.723 151.68C155.243 151.68 156.59 151.347 157.763 150.68C158.936 149.987 159.856 149.027 160.523 147.8C161.216 146.547 161.563 145.107 161.563 143.48C161.563 141.827 161.216 140.387 160.523 139.16C159.856 137.933 158.936 136.987 157.763 136.32C156.59 135.627 155.256 135.28 153.763 135.28C152.27 135.28 150.936 135.627 149.763 136.32C148.59 136.987 147.656 137.933 146.963 139.16C146.27 140.387 145.923 141.827 145.923 143.48C145.923 145.107 146.27 146.547 146.963 147.8C147.656 149.027 148.59 149.987 149.763 150.68C150.936 151.347 152.256 151.68 153.723 151.68ZM176.881 154.2C174.908 154.2 173.388 153.667 172.321 152.6C171.255 151.533 170.721 150.027 170.721 148.08V128.36H173.561V147.92C173.561 149.147 173.868 150.093 174.481 150.76C175.121 151.427 176.028 151.76 177.201 151.76C178.455 151.76 179.495 151.4 180.321 150.68L181.321 152.72C180.761 153.227 180.081 153.6 179.281 153.84C178.508 154.08 177.708 154.2 176.881 154.2ZM166.961 135.36V133H179.961V135.36H166.961ZM186.491 154V133H189.331V154H186.491ZM187.931 128.36C187.345 128.36 186.851 128.16 186.451 127.76C186.051 127.36 185.851 126.88 185.851 126.32C185.851 125.76 186.051 125.293 186.451 124.92C186.851 124.52 187.345 124.32 187.931 124.32C188.518 124.32 189.011 124.507 189.411 124.88C189.811 125.253 190.011 125.72 190.011 126.28C190.011 126.867 189.811 127.36 189.411 127.76C189.038 128.16 188.545 128.36 187.931 128.36ZM205.793 154.2C203.767 154.2 201.94 153.747 200.313 152.84C198.713 151.907 197.447 150.64 196.513 149.04C195.58 147.413 195.113 145.56 195.113 143.48C195.113 141.373 195.58 139.52 196.513 137.92C197.447 136.32 198.713 135.067 200.313 134.16C201.913 133.253 203.74 132.8 205.793 132.8C207.873 132.8 209.713 133.253 211.313 134.16C212.94 135.067 214.207 136.32 215.113 137.92C216.047 139.52 216.513 141.373 216.513 143.48C216.513 145.56 216.047 147.413 215.113 149.04C214.207 150.64 212.94 151.907 211.313 152.84C209.687 153.747 207.847 154.2 205.793 154.2ZM205.793 151.68C207.313 151.68 208.66 151.347 209.833 150.68C211.007 149.987 211.927 149.027 212.593 147.8C213.287 146.547 213.633 145.107 213.633 143.48C213.633 141.827 213.287 140.387 212.593 139.16C211.927 137.933 211.007 136.987 209.833 136.32C208.66 135.627 207.327 135.28 205.833 135.28C204.34 135.28 203.007 135.627 201.833 136.32C200.66 136.987 199.727 137.933 199.033 139.16C198.34 140.387 197.993 141.827 197.993 143.48C197.993 145.107 198.34 146.547 199.033 147.8C199.727 149.027 200.66 149.987 201.833 150.68C203.007 151.347 204.327 151.68 205.793 151.68ZM233.032 132.8C234.738 132.8 236.232 133.133 237.512 133.8C238.818 134.44 239.832 135.427 240.552 136.76C241.298 138.093 241.672 139.773 241.672 141.8V154H238.832V142.08C238.832 139.867 238.272 138.2 237.152 137.08C236.058 135.933 234.512 135.36 232.512 135.36C231.018 135.36 229.712 135.667 228.592 136.28C227.498 136.867 226.645 137.733 226.032 138.88C225.445 140 225.152 141.36 225.152 142.96V154H222.312V133H225.032V138.76L224.592 137.68C225.258 136.16 226.325 134.973 227.792 134.12C229.258 133.24 231.005 132.8 233.032 132.8ZM272.692 154.24C270.558 154.24 268.585 153.893 266.772 153.2C264.985 152.48 263.425 151.48 262.092 150.2C260.785 148.92 259.758 147.413 259.012 145.68C258.292 143.947 257.932 142.053 257.932 140C257.932 137.947 258.292 136.053 259.012 134.32C259.758 132.587 260.798 131.08 262.132 129.8C263.465 128.52 265.025 127.533 266.812 126.84C268.625 126.12 270.598 125.76 272.732 125.76C274.865 125.76 276.812 126.093 278.572 126.76C280.358 127.427 281.878 128.44 283.132 129.8L281.292 131.68C280.118 130.507 278.825 129.667 277.412 129.16C275.998 128.653 274.478 128.4 272.852 128.4C271.118 128.4 269.518 128.693 268.052 129.28C266.612 129.84 265.345 130.653 264.252 131.72C263.185 132.76 262.345 133.987 261.732 135.4C261.145 136.787 260.852 138.32 260.852 140C260.852 141.653 261.145 143.187 261.732 144.6C262.345 146.013 263.185 147.253 264.252 148.32C265.345 149.36 266.612 150.173 268.052 150.76C269.518 151.32 271.105 151.6 272.812 151.6C274.412 151.6 275.918 151.36 277.332 150.88C278.772 150.4 280.092 149.587 281.292 148.44L282.972 150.68C281.638 151.853 280.078 152.747 278.292 153.36C276.505 153.947 274.638 154.24 272.692 154.24ZM280.132 150.32V140H282.972V150.68L280.132 150.32ZM290.749 154V133H293.469V138.72L293.189 137.72C293.776 136.12 294.762 134.907 296.149 134.08C297.536 133.227 299.256 132.8 301.309 132.8V135.56C301.202 135.56 301.096 135.56 300.989 135.56C300.882 135.533 300.776 135.52 300.669 135.52C298.456 135.52 296.722 136.2 295.469 137.56C294.216 138.893 293.589 140.8 293.589 143.28V154H290.749ZM318.089 154V149.36L317.969 148.6V140.84C317.969 139.053 317.462 137.68 316.449 136.72C315.462 135.76 313.982 135.28 312.009 135.28C310.649 135.28 309.355 135.507 308.129 135.96C306.902 136.413 305.862 137.013 305.009 137.76L303.729 135.64C304.795 134.733 306.075 134.04 307.569 133.56C309.062 133.053 310.635 132.8 312.289 132.8C315.009 132.8 317.102 133.48 318.569 134.84C320.062 136.173 320.809 138.213 320.809 140.96V154H318.089ZM310.849 154.2C309.275 154.2 307.902 153.947 306.729 153.44C305.582 152.907 304.702 152.187 304.089 151.28C303.475 150.347 303.169 149.28 303.169 148.08C303.169 146.987 303.422 146 303.929 145.12C304.462 144.213 305.315 143.493 306.489 142.96C307.689 142.4 309.289 142.12 311.289 142.12H318.529V144.24H311.369C309.342 144.24 307.929 144.6 307.129 145.32C306.355 146.04 305.969 146.933 305.969 148C305.969 149.2 306.435 150.16 307.369 150.88C308.302 151.6 309.609 151.96 311.289 151.96C312.889 151.96 314.262 151.6 315.409 150.88C316.582 150.133 317.435 149.067 317.969 147.68L318.609 149.64C318.075 151.027 317.142 152.133 315.809 152.96C314.502 153.787 312.849 154.2 310.849 154.2ZM339.363 154.2C337.549 154.2 335.909 153.787 334.443 152.96C332.976 152.107 331.803 150.893 330.923 149.32C330.069 147.72 329.643 145.773 329.643 143.48C329.643 141.187 330.069 139.253 330.923 137.68C331.776 136.08 332.936 134.867 334.403 134.04C335.869 133.213 337.523 132.8 339.363 132.8C341.363 132.8 343.149 133.253 344.723 134.16C346.323 135.04 347.576 136.293 348.483 137.92C349.389 139.52 349.843 141.373 349.843 143.48C349.843 145.613 349.389 147.48 348.483 149.08C347.576 150.68 346.323 151.933 344.723 152.84C343.149 153.747 341.363 154.2 339.363 154.2ZM328.523 161.76V133H331.243V139.32L330.963 143.52L331.363 147.76V161.76H328.523ZM339.163 151.68C340.656 151.68 341.989 151.347 343.163 150.68C344.336 149.987 345.269 149.027 345.963 147.8C346.656 146.547 347.003 145.107 347.003 143.48C347.003 141.853 346.656 140.427 345.963 139.2C345.269 137.973 344.336 137.013 343.163 136.32C341.989 135.627 340.656 135.28 339.163 135.28C337.669 135.28 336.323 135.627 335.122 136.32C333.949 137.013 333.016 137.973 332.323 139.2C331.656 140.427 331.323 141.853 331.323 143.48C331.323 145.107 331.656 146.547 332.323 147.8C333.016 149.027 333.949 149.987 335.122 150.68C336.323 151.347 337.669 151.68 339.163 151.68ZM364.352 154.2C362.272 154.2 360.405 153.747 358.752 152.84C357.125 151.907 355.845 150.64 354.912 149.04C353.979 147.413 353.512 145.56 353.512 143.48C353.512 141.373 353.979 139.52 354.912 137.92C355.845 136.32 357.125 135.067 358.752 134.16C360.405 133.253 362.272 132.8 364.352 132.8C366.139 132.8 367.752 133.147 369.192 133.84C370.632 134.533 371.765 135.573 372.592 136.96L370.472 138.4C369.752 137.333 368.859 136.547 367.792 136.04C366.725 135.533 365.565 135.28 364.312 135.28C362.819 135.28 361.472 135.627 360.272 136.32C359.072 136.987 358.125 137.933 357.432 139.16C356.739 140.387 356.392 141.827 356.392 143.48C356.392 145.133 356.739 146.573 357.432 147.8C358.125 149.027 359.072 149.987 360.272 150.68C361.472 151.347 362.819 151.68 364.312 151.68C365.565 151.68 366.725 151.427 367.792 150.92C368.859 150.413 369.752 149.64 370.472 148.6L372.592 150.04C371.765 151.4 370.632 152.44 369.192 153.16C367.752 153.853 366.139 154.2 364.352 154.2ZM388.578 132.8C390.285 132.8 391.778 133.133 393.058 133.8C394.365 134.44 395.378 135.427 396.098 136.76C396.845 138.093 397.218 139.773 397.218 141.8V154H394.378V142.08C394.378 139.867 393.818 138.2 392.698 137.08C391.605 135.933 390.058 135.36 388.058 135.36C386.565 135.36 385.258 135.667 384.138 136.28C383.045 136.867 382.192 137.733 381.578 138.88C380.992 140 380.698 141.36 380.698 142.96V154H377.858V124.32H380.698V138.76L380.138 137.68C380.805 136.16 381.872 134.973 383.338 134.12C384.805 133.24 386.552 132.8 388.578 132.8ZM404.89 154V133H407.73V154H404.89ZM406.33 128.36C405.743 128.36 405.25 128.16 404.85 127.76C404.45 127.36 404.25 126.88 404.25 126.32C404.25 125.76 404.45 125.293 404.85 124.92C405.25 124.52 405.743 124.32 406.33 124.32C406.916 124.32 407.41 124.507 407.81 124.88C408.21 125.253 408.41 125.72 408.41 126.28C408.41 126.867 408.21 127.36 407.81 127.76C407.436 128.16 406.943 128.36 406.33 128.36ZM424.352 154.2C422.272 154.2 420.405 153.747 418.752 152.84C417.125 151.907 415.845 150.64 414.912 149.04C413.979 147.413 413.512 145.56 413.512 143.48C413.512 141.373 413.979 139.52 414.912 137.92C415.845 136.32 417.125 135.067 418.752 134.16C420.405 133.253 422.272 132.8 424.352 132.8C426.139 132.8 427.752 133.147 429.192 133.84C430.632 134.533 431.765 135.573 432.592 136.96L430.472 138.4C429.752 137.333 428.859 136.547 427.792 136.04C426.725 135.533 425.565 135.28 424.312 135.28C422.819 135.28 421.472 135.627 420.272 136.32C419.072 136.987 418.125 137.933 417.432 139.16C416.739 140.387 416.392 141.827 416.392 143.48C416.392 145.133 416.739 146.573 417.432 147.8C418.125 149.027 419.072 149.987 420.272 150.68C421.472 151.347 422.819 151.68 424.312 151.68C425.565 151.68 426.725 151.427 427.792 150.92C428.859 150.413 429.752 149.64 430.472 148.6L432.592 150.04C431.765 151.4 430.632 152.44 429.192 153.16C427.752 153.853 426.139 154.2 424.352 154.2ZM443.811 154.2C442.078 154.2 440.438 153.96 438.891 153.48C437.344 152.973 436.131 152.347 435.251 151.6L436.531 149.36C437.384 150 438.478 150.56 439.811 151.04C441.144 151.493 442.544 151.72 444.011 151.72C446.011 151.72 447.451 151.413 448.331 150.8C449.211 150.16 449.651 149.32 449.651 148.28C449.651 147.507 449.398 146.907 448.891 146.48C448.411 146.027 447.771 145.693 446.971 145.48C446.171 145.24 445.278 145.04 444.291 144.88C443.304 144.72 442.318 144.533 441.331 144.32C440.371 144.107 439.491 143.8 438.691 143.4C437.891 142.973 437.238 142.4 436.731 141.68C436.251 140.96 436.011 140 436.011 138.8C436.011 137.653 436.331 136.627 436.971 135.72C437.611 134.813 438.544 134.107 439.771 133.6C441.024 133.067 442.544 132.8 444.331 132.8C445.691 132.8 447.051 132.987 448.411 133.36C449.771 133.707 450.891 134.173 451.771 134.76L450.531 137.04C449.598 136.4 448.598 135.947 447.531 135.68C446.464 135.387 445.398 135.24 444.331 135.24C442.438 135.24 441.038 135.573 440.131 136.24C439.251 136.88 438.811 137.707 438.811 138.72C438.811 139.52 439.051 140.147 439.531 140.6C440.038 141.053 440.691 141.413 441.491 141.68C442.318 141.92 443.211 142.12 444.171 142.28C445.158 142.44 446.131 142.64 447.091 142.88C448.078 143.093 448.971 143.4 449.771 143.8C450.598 144.173 451.251 144.72 451.731 145.44C452.238 146.133 452.491 147.053 452.491 148.2C452.491 149.427 452.144 150.493 451.451 151.4C450.784 152.28 449.798 152.973 448.491 153.48C447.211 153.96 445.651 154.2 443.811 154.2ZM115.28 194.24C113.2 194.24 111.2 193.907 109.28 193.24C107.387 192.547 105.92 191.667 104.88 190.6L106.04 188.32C107.027 189.28 108.347 190.093 110 190.76C111.68 191.4 113.44 191.72 115.28 191.72C117.04 191.72 118.467 191.507 119.56 191.08C120.68 190.627 121.493 190.027 122 189.28C122.533 188.533 122.8 187.707 122.8 186.8C122.8 185.707 122.48 184.827 121.84 184.16C121.227 183.493 120.413 182.973 119.4 182.6C118.387 182.2 117.267 181.853 116.04 181.56C114.813 181.267 113.587 180.96 112.36 180.64C111.133 180.293 110 179.84 108.96 179.28C107.947 178.72 107.12 177.987 106.48 177.08C105.867 176.147 105.56 174.933 105.56 173.44C105.56 172.053 105.92 170.787 106.64 169.64C107.387 168.467 108.52 167.533 110.04 166.84C111.56 166.12 113.507 165.76 115.88 165.76C117.453 165.76 119.013 165.987 120.56 166.44C122.107 166.867 123.44 167.467 124.56 168.24L123.56 170.6C122.36 169.8 121.08 169.213 119.72 168.84C118.387 168.467 117.093 168.28 115.84 168.28C114.16 168.28 112.773 168.507 111.68 168.96C110.587 169.413 109.773 170.027 109.24 170.8C108.733 171.547 108.48 172.4 108.48 173.36C108.48 174.453 108.787 175.333 109.4 176C110.04 176.667 110.867 177.187 111.88 177.56C112.92 177.933 114.053 178.267 115.28 178.56C116.507 178.853 117.72 179.173 118.92 179.52C120.147 179.867 121.267 180.32 122.28 180.88C123.32 181.413 124.147 182.133 124.76 183.04C125.4 183.947 125.72 185.133 125.72 186.6C125.72 187.96 125.347 189.227 124.6 190.4C123.853 191.547 122.707 192.48 121.16 193.2C119.64 193.893 117.68 194.24 115.28 194.24ZM131.569 194V173H134.409V194H131.569ZM133.009 168.36C132.423 168.36 131.929 168.16 131.529 167.76C131.129 167.36 130.929 166.88 130.929 166.32C130.929 165.76 131.129 165.293 131.529 164.92C131.929 164.52 132.423 164.32 133.009 164.32C133.596 164.32 134.089 164.507 134.489 164.88C134.889 165.253 135.089 165.72 135.089 166.28C135.089 166.867 134.889 167.36 134.489 167.76C134.116 168.16 133.623 168.36 133.009 168.36ZM168.552 172.8C170.258 172.8 171.738 173.133 172.992 173.8C174.272 174.44 175.258 175.427 175.952 176.76C176.672 178.093 177.032 179.773 177.032 181.8V194H174.192V182.08C174.192 179.867 173.658 178.2 172.592 177.08C171.552 175.933 170.072 175.36 168.152 175.36C166.712 175.36 165.458 175.667 164.392 176.28C163.352 176.867 162.538 177.733 161.952 178.88C161.392 180 161.112 181.36 161.112 182.96V194H158.272V182.08C158.272 179.867 157.738 178.2 156.672 177.08C155.605 175.933 154.112 175.36 152.192 175.36C150.778 175.36 149.538 175.667 148.472 176.28C147.405 176.867 146.578 177.733 145.992 178.88C145.432 180 145.152 181.36 145.152 182.96V194H142.312V173H145.032V178.68L144.592 177.68C145.232 176.16 146.258 174.973 147.672 174.12C149.112 173.24 150.805 172.8 152.752 172.8C154.805 172.8 156.552 173.32 157.992 174.36C159.432 175.373 160.365 176.907 160.792 178.96L159.672 178.52C160.285 176.813 161.365 175.44 162.912 174.4C164.485 173.333 166.365 172.8 168.552 172.8ZM195.573 194.2C193.76 194.2 192.12 193.787 190.653 192.96C189.187 192.107 188.013 190.893 187.133 189.32C186.28 187.72 185.853 185.773 185.853 183.48C185.853 181.187 186.28 179.253 187.133 177.68C187.987 176.08 189.147 174.867 190.613 174.04C192.08 173.213 193.733 172.8 195.573 172.8C197.573 172.8 199.36 173.253 200.933 174.16C202.533 175.04 203.787 176.293 204.693 177.92C205.6 179.52 206.053 181.373 206.053 183.48C206.053 185.613 205.6 187.48 204.693 189.08C203.787 190.68 202.533 191.933 200.933 192.84C199.36 193.747 197.573 194.2 195.573 194.2ZM184.733 201.76V173H187.453V179.32L187.173 183.52L187.573 187.76V201.76H184.733ZM195.373 191.68C196.867 191.68 198.2 191.347 199.373 190.68C200.547 189.987 201.48 189.027 202.173 187.8C202.867 186.547 203.213 185.107 203.213 183.48C203.213 181.853 202.867 180.427 202.173 179.2C201.48 177.973 200.547 177.013 199.373 176.32C198.2 175.627 196.867 175.28 195.373 175.28C193.88 175.28 192.533 175.627 191.333 176.32C190.16 177.013 189.227 177.973 188.533 179.2C187.867 180.427 187.533 181.853 187.533 183.48C187.533 185.107 187.867 186.547 188.533 187.8C189.227 189.027 190.16 189.987 191.333 190.68C192.533 191.347 193.88 191.68 195.373 191.68ZM211.843 194V164.32H214.683V194H211.843ZM231.505 194.2C229.318 194.2 227.398 193.747 225.745 192.84C224.092 191.907 222.798 190.64 221.865 189.04C220.932 187.413 220.465 185.56 220.465 183.48C220.465 181.4 220.905 179.56 221.785 177.96C222.692 176.36 223.918 175.107 225.465 174.2C227.038 173.267 228.798 172.8 230.745 172.8C232.718 172.8 234.465 173.253 235.985 174.16C237.532 175.04 238.745 176.293 239.625 177.92C240.505 179.52 240.945 181.373 240.945 183.48C240.945 183.613 240.932 183.76 240.905 183.92C240.905 184.053 240.905 184.2 240.905 184.36H222.625V182.24H239.385L238.265 183.08C238.265 181.56 237.932 180.213 237.265 179.04C236.625 177.84 235.745 176.907 234.625 176.24C233.505 175.573 232.212 175.24 230.745 175.24C229.305 175.24 228.012 175.573 226.865 176.24C225.718 176.907 224.825 177.84 224.185 179.04C223.545 180.24 223.225 181.613 223.225 183.16V183.6C223.225 185.2 223.572 186.613 224.265 187.84C224.985 189.04 225.972 189.987 227.225 190.68C228.505 191.347 229.958 191.68 231.585 191.68C232.865 191.68 234.052 191.453 235.145 191C236.265 190.547 237.225 189.853 238.025 188.92L239.625 190.76C238.692 191.88 237.518 192.733 236.105 193.32C234.718 193.907 233.185 194.2 231.505 194.2Z" fill="black"/>
<path d="M28.24 318.24C26.08 318.24 24.16 317.68 22.48 316.56C20.8 315.413 19.48 313.787 18.52 311.68C17.56 309.547 17.08 306.987 17.08 304C17.08 301.013 17.56 298.467 18.52 296.36C19.48 294.227 20.8 292.6 22.48 291.48C24.16 290.333 26.08 289.76 28.24 289.76C30.4 289.76 32.32 290.333 34 291.48C35.68 292.6 37 294.227 37.96 296.36C38.9467 298.467 39.44 301.013 39.44 304C39.44 306.987 38.9467 309.547 37.96 311.68C37 313.787 35.68 315.413 34 316.56C32.32 317.68 30.4 318.24 28.24 318.24ZM28.24 315.6C29.8933 315.6 31.3333 315.16 32.56 314.28C33.7867 313.373 34.7467 312.067 35.44 310.36C36.1333 308.627 36.48 306.507 36.48 304C36.48 301.493 36.1333 299.387 35.44 297.68C34.7467 295.947 33.7867 294.64 32.56 293.76C31.3333 292.853 29.8933 292.4 28.24 292.4C26.64 292.4 25.2133 292.853 23.96 293.76C22.7067 294.64 21.7333 295.947 21.04 297.68C20.3467 299.387 20 301.493 20 304C20 306.507 20.3467 308.627 21.04 310.36C21.7333 312.067 22.7067 313.373 23.96 314.28C25.2133 315.16 26.64 315.6 28.24 315.6ZM43.0444 318V315.96L54.6844 304.56C55.751 303.52 56.551 302.613 57.0844 301.84C57.6177 301.04 57.9777 300.293 58.1644 299.6C58.351 298.907 58.4444 298.253 58.4444 297.64C58.4444 296.013 57.8844 294.733 56.7644 293.8C55.671 292.867 54.0444 292.4 51.8844 292.4C50.231 292.4 48.7644 292.653 47.4844 293.16C46.231 293.667 45.151 294.453 44.2444 295.52L42.2044 293.76C43.2977 292.48 44.6977 291.493 46.4044 290.8C48.111 290.107 50.0177 289.76 52.1244 289.76C54.0177 289.76 55.6577 290.067 57.0444 290.68C58.431 291.267 59.4977 292.133 60.2444 293.28C61.0177 294.427 61.4044 295.773 61.4044 297.32C61.4044 298.227 61.271 299.12 61.0044 300C60.7644 300.88 60.311 301.813 59.6444 302.8C59.0044 303.76 58.0577 304.853 56.8044 306.08L46.1244 316.56L45.3244 315.44H62.6844V318H43.0444ZM68.8494 318.2C68.2627 318.2 67.756 317.987 67.3294 317.56C66.9294 317.133 66.7294 316.613 66.7294 316C66.7294 315.36 66.9294 314.84 67.3294 314.44C67.756 314.04 68.2627 313.84 68.8494 313.84C69.436 313.84 69.9294 314.04 70.3294 314.44C70.756 314.84 70.9694 315.36 70.9694 316C70.9694 316.613 70.756 317.133 70.3294 317.56C69.9294 317.987 69.436 318.2 68.8494 318.2Z" fill="black"/>
<path d="M28.24 175.24C26.08 175.24 24.16 174.68 22.48 173.56C20.8 172.413 19.48 170.787 18.52 168.68C17.56 166.547 17.08 163.987 17.08 161C17.08 158.013 17.56 155.467 18.52 153.36C19.48 151.227 20.8 149.6 22.48 148.48C24.16 147.333 26.08 146.76 28.24 146.76C30.4 146.76 32.32 147.333 34 148.48C35.68 149.6 37 151.227 37.96 153.36C38.9467 155.467 39.44 158.013 39.44 161C39.44 163.987 38.9467 166.547 37.96 168.68C37 170.787 35.68 172.413 34 173.56C32.32 174.68 30.4 175.24 28.24 175.24ZM28.24 172.6C29.8933 172.6 31.3333 172.16 32.56 171.28C33.7867 170.373 34.7467 169.067 35.44 167.36C36.1333 165.627 36.48 163.507 36.48 161C36.48 158.493 36.1333 156.387 35.44 154.68C34.7467 152.947 33.7867 151.64 32.56 150.76C31.3333 149.853 29.8933 149.4 28.24 149.4C26.64 149.4 25.2133 149.853 23.96 150.76C22.7067 151.64 21.7333 152.947 21.04 154.68C20.3467 156.387 20 158.493 20 161C20 163.507 20.3467 165.627 21.04 167.36C21.7333 169.067 22.7067 170.373 23.96 171.28C25.2133 172.16 26.64 172.6 28.24 172.6ZM48.4444 175V148.2L49.7244 149.56H41.8444V147H51.3244V175H48.4444ZM60.1775 175.2C59.5908 175.2 59.0842 174.987 58.6575 174.56C58.2575 174.133 58.0575 173.613 58.0575 173C58.0575 172.36 58.2575 171.84 58.6575 171.44C59.0842 171.04 59.5908 170.84 60.1775 170.84C60.7642 170.84 61.2575 171.04 61.6575 171.44C62.0842 171.84 62.2975 172.36 62.2975 173C62.2975 173.613 62.0842 174.133 61.6575 174.56C61.2575 174.987 60.7642 175.2 60.1775 175.2Z" fill="black"/>
<path d="M531.92 277.24C529.92 277.24 528.013 276.92 526.2 276.28C524.387 275.613 522.947 274.733 521.88 273.64L523.28 271.36C524.16 272.293 525.36 273.067 526.88 273.68C528.427 274.293 530.093 274.6 531.88 274.6C534.253 274.6 536.053 274.08 537.28 273.04C538.533 271.973 539.16 270.587 539.16 268.88C539.16 267.68 538.867 266.653 538.28 265.8C537.72 264.92 536.76 264.24 535.4 263.76C534.04 263.28 532.173 263.04 529.8 263.04H523.84L525.28 249H540.6V251.56H526.44L527.92 250.16L526.68 261.92L525.2 260.48H530.44C533.267 260.48 535.533 260.827 537.24 261.52C538.947 262.213 540.173 263.187 540.92 264.44C541.693 265.667 542.08 267.107 542.08 268.76C542.08 270.333 541.707 271.773 540.96 273.08C540.213 274.36 539.093 275.373 537.6 276.12C536.107 276.867 534.213 277.24 531.92 277.24ZM556.896 277.24C554.736 277.24 552.816 276.68 551.136 275.56C549.456 274.413 548.136 272.787 547.176 270.68C546.216 268.547 545.736 265.987 545.736 263C545.736 260.013 546.216 257.467 547.176 255.36C548.136 253.227 549.456 251.6 551.136 250.48C552.816 249.333 554.736 248.76 556.896 248.76C559.056 248.76 560.976 249.333 562.656 250.48C564.336 251.6 565.656 253.227 566.616 255.36C567.603 257.467 568.096 260.013 568.096 263C568.096 265.987 567.603 268.547 566.616 270.68C565.656 272.787 564.336 274.413 562.656 275.56C560.976 276.68 559.056 277.24 556.896 277.24ZM556.896 274.6C558.55 274.6 559.99 274.16 561.216 273.28C562.443 272.373 563.403 271.067 564.096 269.36C564.79 267.627 565.136 265.507 565.136 263C565.136 260.493 564.79 258.387 564.096 256.68C563.403 254.947 562.443 253.64 561.216 252.76C559.99 251.853 558.55 251.4 556.896 251.4C555.296 251.4 553.87 251.853 552.616 252.76C551.363 253.64 550.39 254.947 549.696 256.68C549.003 258.387 548.656 260.493 548.656 263C548.656 265.507 549.003 267.627 549.696 269.36C550.39 271.067 551.363 272.373 552.616 273.28C553.87 274.16 555.296 274.6 556.896 274.6ZM577.261 270.04L577.141 266.44L594.101 249H597.501L585.141 261.96L583.461 263.76L577.261 270.04ZM574.701 277V249H577.661V277H574.701ZM594.821 277L582.741 263.08L584.741 260.92L598.341 277H594.821ZM529.8 324.76C528.333 322.333 527.187 319.533 526.36 316.36C525.56 313.16 525.16 309.72 525.16 306.04C525.16 302.36 525.56 298.92 526.36 295.72C527.187 292.493 528.333 289.693 529.8 287.32H532.52C530.947 290.067 529.787 292.987 529.04 296.08C528.32 299.147 527.96 302.467 527.96 306.04C527.96 309.613 528.32 312.947 529.04 316.04C529.787 319.107 530.947 322.013 532.52 324.76H529.8ZM546.484 317.2C544.484 317.2 542.684 316.747 541.084 315.84C539.511 314.933 538.271 313.68 537.364 312.08C536.457 310.453 536.004 308.587 536.004 306.48C536.004 304.347 536.457 302.48 537.364 300.88C538.271 299.28 539.511 298.04 541.084 297.16C542.684 296.253 544.484 295.8 546.484 295.8C548.324 295.8 549.964 296.213 551.404 297.04C552.871 297.867 554.031 299.08 554.884 300.68C555.764 302.253 556.204 304.187 556.204 306.48C556.204 308.747 555.777 310.68 554.924 312.28C554.071 313.88 552.911 315.107 551.444 315.96C550.004 316.787 548.351 317.2 546.484 317.2ZM546.684 314.68C548.177 314.68 549.511 314.347 550.684 313.68C551.884 312.987 552.817 312.027 553.484 310.8C554.177 309.547 554.524 308.107 554.524 306.48C554.524 304.827 554.177 303.387 553.484 302.16C552.817 300.933 551.884 299.987 550.684 299.32C549.511 298.627 548.177 298.28 546.684 298.28C545.217 298.28 543.897 298.627 542.724 299.32C541.551 299.987 540.617 300.933 539.924 302.16C539.231 303.387 538.884 304.827 538.884 306.48C538.884 308.107 539.231 309.547 539.924 310.8C540.617 312.027 541.551 312.987 542.724 313.68C543.897 314.347 545.217 314.68 546.684 314.68ZM554.604 317V310.68L554.884 306.44L554.484 302.2V287.32H557.324V317H554.604ZM573.913 317.2C572.127 317.2 570.567 316.867 569.233 316.2C567.9 315.533 566.86 314.533 566.113 313.2C565.393 311.867 565.033 310.2 565.033 308.2V296H567.873V307.88C567.873 310.12 568.42 311.813 569.513 312.96C570.633 314.08 572.193 314.64 574.193 314.64C575.66 314.64 576.927 314.347 577.993 313.76C579.087 313.147 579.913 312.267 580.473 311.12C581.06 309.973 581.353 308.6 581.353 307V296H584.193V317H581.473V311.24L581.913 312.28C581.247 313.827 580.207 315.04 578.793 315.92C577.407 316.773 575.78 317.2 573.913 317.2ZM592.108 317V296H594.828V301.72L594.548 300.72C595.135 299.12 596.122 297.907 597.508 297.08C598.895 296.227 600.615 295.8 602.668 295.8V298.56C602.562 298.56 602.455 298.56 602.348 298.56C602.242 298.533 602.135 298.52 602.028 298.52C599.815 298.52 598.082 299.2 596.828 300.56C595.575 301.893 594.948 303.8 594.948 306.28V317H592.108ZM619.448 317V312.36L619.328 311.6V303.84C619.328 302.053 618.821 300.68 617.808 299.72C616.821 298.76 615.341 298.28 613.368 298.28C612.008 298.28 610.715 298.507 609.488 298.96C608.261 299.413 607.221 300.013 606.368 300.76L605.088 298.64C606.155 297.733 607.435 297.04 608.928 296.56C610.421 296.053 611.995 295.8 613.648 295.8C616.368 295.8 618.461 296.48 619.928 297.84C621.421 299.173 622.168 301.213 622.168 303.96V317H619.448ZM612.208 317.2C610.635 317.2 609.261 316.947 608.088 316.44C606.941 315.907 606.061 315.187 605.448 314.28C604.835 313.347 604.528 312.28 604.528 311.08C604.528 309.987 604.781 309 605.288 308.12C605.821 307.213 606.675 306.493 607.848 305.96C609.048 305.4 610.648 305.12 612.648 305.12H619.888V307.24H612.728C610.701 307.24 609.288 307.6 608.488 308.32C607.715 309.04 607.328 309.933 607.328 311C607.328 312.2 607.795 313.16 608.728 313.88C609.661 314.6 610.968 314.96 612.648 314.96C614.248 314.96 615.621 314.6 616.768 313.88C617.941 313.133 618.795 312.067 619.328 310.68L619.968 312.64C619.435 314.027 618.501 315.133 617.168 315.96C615.861 316.787 614.208 317.2 612.208 317.2ZM635.522 317.2C633.789 317.2 632.149 316.96 630.602 316.48C629.055 315.973 627.842 315.347 626.962 314.6L628.242 312.36C629.095 313 630.189 313.56 631.522 314.04C632.855 314.493 634.255 314.72 635.722 314.72C637.722 314.72 639.162 314.413 640.042 313.8C640.922 313.16 641.362 312.32 641.362 311.28C641.362 310.507 641.109 309.907 640.602 309.48C640.122 309.027 639.482 308.693 638.682 308.48C637.882 308.24 636.989 308.04 636.002 307.88C635.015 307.72 634.029 307.533 633.042 307.32C632.082 307.107 631.202 306.8 630.402 306.4C629.602 305.973 628.949 305.4 628.442 304.68C627.962 303.96 627.722 303 627.722 301.8C627.722 300.653 628.042 299.627 628.682 298.72C629.322 297.813 630.255 297.107 631.482 296.6C632.735 296.067 634.255 295.8 636.042 295.8C637.402 295.8 638.762 295.987 640.122 296.36C641.482 296.707 642.602 297.173 643.482 297.76L642.242 300.04C641.309 299.4 640.309 298.947 639.242 298.68C638.175 298.387 637.109 298.24 636.042 298.24C634.149 298.24 632.749 298.573 631.842 299.24C630.962 299.88 630.522 300.707 630.522 301.72C630.522 302.52 630.762 303.147 631.242 303.6C631.749 304.053 632.402 304.413 633.202 304.68C634.029 304.92 634.922 305.12 635.882 305.28C636.869 305.44 637.842 305.64 638.802 305.88C639.789 306.093 640.682 306.4 641.482 306.8C642.309 307.173 642.962 307.72 643.442 308.44C643.949 309.133 644.202 310.053 644.202 311.2C644.202 312.427 643.855 313.493 643.162 314.4C642.495 315.28 641.509 315.973 640.202 316.48C638.922 316.96 637.362 317.2 635.522 317.2ZM649.413 317V296H652.253V317H649.413ZM650.853 291.36C650.266 291.36 649.773 291.16 649.373 290.76C648.973 290.36 648.773 289.88 648.773 289.32C648.773 288.76 648.973 288.293 649.373 287.92C649.773 287.52 650.266 287.32 650.853 287.32C651.44 287.32 651.933 287.507 652.333 287.88C652.733 288.253 652.933 288.72 652.933 289.28C652.933 289.867 652.733 290.36 652.333 290.76C651.96 291.16 651.466 291.36 650.853 291.36ZM696.864 295.8C698.571 295.8 700.051 296.133 701.304 296.8C702.584 297.44 703.571 298.427 704.264 299.76C704.984 301.093 705.344 302.773 705.344 304.8V317H702.504V305.08C702.504 302.867 701.971 301.2 700.904 300.08C699.864 298.933 698.384 298.36 696.464 298.36C695.024 298.36 693.771 298.667 692.704 299.28C691.664 299.867 690.851 300.733 690.264 301.88C689.704 303 689.424 304.36 689.424 305.96V317H686.584V305.08C686.584 302.867 686.051 301.2 684.984 300.08C683.917 298.933 682.424 298.36 680.504 298.36C679.091 298.36 677.851 298.667 676.784 299.28C675.717 299.867 674.891 300.733 674.304 301.88C673.744 303 673.464 304.36 673.464 305.96V317H670.624V296H673.344V301.68L672.904 300.68C673.544 299.16 674.571 297.973 675.984 297.12C677.424 296.24 679.117 295.8 681.064 295.8C683.117 295.8 684.864 296.32 686.304 297.36C687.744 298.373 688.677 299.907 689.104 301.96L687.984 301.52C688.597 299.813 689.677 298.44 691.224 297.4C692.797 296.333 694.677 295.8 696.864 295.8ZM726.206 317V312.36L726.086 311.6V303.84C726.086 302.053 725.579 300.68 724.566 299.72C723.579 298.76 722.099 298.28 720.126 298.28C718.766 298.28 717.473 298.507 716.246 298.96C715.019 299.413 713.979 300.013 713.126 300.76L711.846 298.64C712.913 297.733 714.193 297.04 715.686 296.56C717.179 296.053 718.753 295.8 720.406 295.8C723.126 295.8 725.219 296.48 726.686 297.84C728.179 299.173 728.926 301.213 728.926 303.96V317H726.206ZM718.966 317.2C717.393 317.2 716.019 316.947 714.846 316.44C713.699 315.907 712.819 315.187 712.206 314.28C711.593 313.347 711.286 312.28 711.286 311.08C711.286 309.987 711.539 309 712.046 308.12C712.579 307.213 713.433 306.493 714.606 305.96C715.806 305.4 717.406 305.12 719.406 305.12H726.646V307.24H719.486C717.459 307.24 716.046 307.6 715.246 308.32C714.473 309.04 714.086 309.933 714.086 311C714.086 312.2 714.553 313.16 715.486 313.88C716.419 314.6 717.726 314.96 719.406 314.96C721.006 314.96 722.379 314.6 723.526 313.88C724.699 313.133 725.553 312.067 726.086 310.68L726.726 312.64C726.193 314.027 725.259 315.133 723.926 315.96C722.619 316.787 720.966 317.2 718.966 317.2ZM738.88 311.56L738.96 307.92L752.04 296H755.52L746.28 304.84L744.68 306.2L738.88 311.56ZM736.64 317V287.32H739.48V317H736.64ZM752.92 317L744.16 306.08L746 303.88L756.4 317H752.92ZM765.678 317.2C763.945 317.2 762.305 316.96 760.758 316.48C759.211 315.973 757.998 315.347 757.118 314.6L758.398 312.36C759.251 313 760.345 313.56 761.678 314.04C763.011 314.493 764.411 314.72 765.878 314.72C767.878 314.72 769.318 314.413 770.198 313.8C771.078 313.16 771.518 312.32 771.518 311.28C771.518 310.507 771.265 309.907 770.758 309.48C770.278 309.027 769.638 308.693 768.838 308.48C768.038 308.24 767.145 308.04 766.158 307.88C765.171 307.72 764.185 307.533 763.198 307.32C762.238 307.107 761.358 306.8 760.558 306.4C759.758 305.973 759.105 305.4 758.598 304.68C758.118 303.96 757.878 303 757.878 301.8C757.878 300.653 758.198 299.627 758.838 298.72C759.478 297.813 760.411 297.107 761.638 296.6C762.891 296.067 764.411 295.8 766.198 295.8C767.558 295.8 768.918 295.987 770.278 296.36C771.638 296.707 772.758 297.173 773.638 297.76L772.398 300.04C771.465 299.4 770.465 298.947 769.398 298.68C768.331 298.387 767.265 298.24 766.198 298.24C764.305 298.24 762.905 298.573 761.998 299.24C761.118 299.88 760.678 300.707 760.678 301.72C760.678 302.52 760.918 303.147 761.398 303.6C761.905 304.053 762.558 304.413 763.358 304.68C764.185 304.92 765.078 305.12 766.038 305.28C767.025 305.44 767.998 305.64 768.958 305.88C769.945 306.093 770.838 306.4 771.638 306.8C772.465 307.173 773.118 307.72 773.598 308.44C774.105 309.133 774.358 310.053 774.358 311.2C774.358 312.427 774.011 313.493 773.318 314.4C772.651 315.28 771.665 315.973 770.358 316.48C769.078 316.96 767.518 317.2 765.678 317.2ZM793.038 317V290.2L794.318 291.56H786.438V289H795.918V317H793.038ZM551.2 335.8C552.907 335.8 554.387 336.133 555.64 336.8C556.92 337.44 557.907 338.427 558.6 339.76C559.32 341.093 559.68 342.773 559.68 344.8V357H556.84V345.08C556.84 342.867 556.307 341.2 555.24 340.08C554.2 338.933 552.72 338.36 550.8 338.36C549.36 338.36 548.107 338.667 547.04 339.28C546 339.867 545.187 340.733 544.6 341.88C544.04 343 543.76 344.36 543.76 345.96V357H540.92V345.08C540.92 342.867 540.387 341.2 539.32 340.08C538.253 338.933 536.76 338.36 534.84 338.36C533.427 338.36 532.187 338.667 531.12 339.28C530.053 339.867 529.227 340.733 528.64 341.88C528.08 343 527.8 344.36 527.8 345.96V357H524.96V336H527.68V341.68L527.24 340.68C527.88 339.16 528.907 337.973 530.32 337.12C531.76 336.24 533.453 335.8 535.4 335.8C537.453 335.8 539.2 336.32 540.64 337.36C542.08 338.373 543.013 339.907 543.44 341.96L542.32 341.52C542.933 339.813 544.013 338.44 545.56 337.4C547.133 336.333 549.013 335.8 551.2 335.8ZM576.302 357.2C574.115 357.2 572.195 356.747 570.542 355.84C568.889 354.907 567.595 353.64 566.662 352.04C565.729 350.413 565.262 348.56 565.262 346.48C565.262 344.4 565.702 342.56 566.582 340.96C567.489 339.36 568.715 338.107 570.262 337.2C571.835 336.267 573.595 335.8 575.542 335.8C577.515 335.8 579.262 336.253 580.782 337.16C582.329 338.04 583.542 339.293 584.422 340.92C585.302 342.52 585.742 344.373 585.742 346.48C585.742 346.613 585.729 346.76 585.702 346.92C585.702 347.053 585.702 347.2 585.702 347.36H567.422V345.24H584.182L583.062 346.08C583.062 344.56 582.729 343.213 582.062 342.04C581.422 340.84 580.542 339.907 579.422 339.24C578.302 338.573 577.009 338.24 575.542 338.24C574.102 338.24 572.809 338.573 571.662 339.24C570.515 339.907 569.622 340.84 568.982 342.04C568.342 343.24 568.022 344.613 568.022 346.16V346.6C568.022 348.2 568.369 349.613 569.062 350.84C569.782 352.04 570.769 352.987 572.022 353.68C573.302 354.347 574.755 354.68 576.382 354.68C577.662 354.68 578.849 354.453 579.942 354C581.062 353.547 582.022 352.853 582.822 351.92L584.422 353.76C583.489 354.88 582.315 355.733 580.902 356.32C579.515 356.907 577.982 357.2 576.302 357.2ZM602.243 335.8C603.949 335.8 605.443 336.133 606.723 336.8C608.029 337.44 609.043 338.427 609.763 339.76C610.509 341.093 610.883 342.773 610.883 344.8V357H608.043V345.08C608.043 342.867 607.483 341.2 606.363 340.08C605.269 338.933 603.723 338.36 601.723 338.36C600.229 338.36 598.923 338.667 597.803 339.28C596.709 339.867 595.856 340.733 595.243 341.88C594.656 343 594.363 344.36 594.363 345.96V357H591.523V336H594.243V341.76L593.803 340.68C594.469 339.16 595.536 337.973 597.003 337.12C598.469 336.24 600.216 335.8 602.243 335.8ZM618.554 357V336H621.394V357H618.554ZM619.994 331.36C619.407 331.36 618.914 331.16 618.514 330.76C618.114 330.36 617.914 329.88 617.914 329.32C617.914 328.76 618.114 328.293 618.514 327.92C618.914 327.52 619.407 327.32 619.994 327.32C620.58 327.32 621.074 327.507 621.474 327.88C621.874 328.253 622.074 328.72 622.074 329.28C622.074 329.867 621.874 330.36 621.474 330.76C621.1 331.16 620.607 331.36 619.994 331.36ZM635.936 357.2C633.963 357.2 632.443 356.667 631.376 355.6C630.309 354.533 629.776 353.027 629.776 351.08V331.36H632.616V350.92C632.616 352.147 632.923 353.093 633.536 353.76C634.176 354.427 635.083 354.76 636.256 354.76C637.509 354.76 638.549 354.4 639.376 353.68L640.376 355.72C639.816 356.227 639.136 356.6 638.336 356.84C637.563 357.08 636.763 357.2 635.936 357.2ZM626.016 338.36V336H639.016V338.36H626.016ZM645.906 364.76H643.186C644.786 362.013 645.946 359.107 646.666 356.04C647.413 352.947 647.786 349.613 647.786 346.04C647.786 342.467 647.413 339.147 646.666 336.08C645.946 332.987 644.786 330.067 643.186 327.32H645.906C647.426 329.693 648.586 332.493 649.386 335.72C650.186 338.92 650.586 342.36 650.586 346.04C650.586 349.72 650.186 353.16 649.386 356.36C648.586 359.533 647.426 362.333 645.906 364.76Z" fill="black"/>
<path d="M522.56 134V131.96L534.2 120.56C535.267 119.52 536.067 118.613 536.6 117.84C537.133 117.04 537.493 116.293 537.68 115.6C537.867 114.907 537.96 114.253 537.96 113.64C537.96 112.013 537.4 110.733 536.28 109.8C535.187 108.867 533.56 108.4 531.4 108.4C529.747 108.4 528.28 108.653 527 109.16C525.747 109.667 524.667 110.453 523.76 111.52L521.72 109.76C522.813 108.48 524.213 107.493 525.92 106.8C527.627 106.107 529.533 105.76 531.64 105.76C533.533 105.76 535.173 106.067 536.56 106.68C537.947 107.267 539.013 108.133 539.76 109.28C540.533 110.427 540.92 111.773 540.92 113.32C540.92 114.227 540.787 115.12 540.52 116C540.28 116.88 539.827 117.813 539.16 118.8C538.52 119.76 537.573 120.853 536.32 122.08L525.64 132.56L524.84 131.44H542.2V134H522.56ZM554.654 134.24C552.654 134.24 550.748 133.92 548.934 133.28C547.121 132.613 545.681 131.733 544.614 130.64L546.014 128.36C546.894 129.293 548.094 130.067 549.614 130.68C551.161 131.293 552.828 131.6 554.614 131.6C556.988 131.6 558.788 131.08 560.014 130.04C561.268 128.973 561.894 127.587 561.894 125.88C561.894 124.68 561.601 123.653 561.014 122.8C560.454 121.92 559.494 121.24 558.134 120.76C556.774 120.28 554.908 120.04 552.534 120.04H546.574L548.014 106H563.334V108.56H549.174L550.654 107.16L549.414 118.92L547.934 117.48H553.174C556.001 117.48 558.268 117.827 559.974 118.52C561.681 119.213 562.908 120.187 563.654 121.44C564.428 122.667 564.814 124.107 564.814 125.76C564.814 127.333 564.441 128.773 563.694 130.08C562.948 131.36 561.828 132.373 560.334 133.12C558.841 133.867 556.948 134.24 554.654 134.24ZM573.511 127.04L573.391 123.44L590.351 106H593.751L581.391 118.96L579.711 120.76L573.511 127.04ZM570.951 134V106H573.911V134H570.951ZM591.071 134L578.991 120.08L580.991 117.92L594.591 134H591.071ZM529.8 181.76C528.333 179.333 527.187 176.533 526.36 173.36C525.56 170.16 525.16 166.72 525.16 163.04C525.16 159.36 525.56 155.92 526.36 152.72C527.187 149.493 528.333 146.693 529.8 144.32H532.52C530.947 147.067 529.787 149.987 529.04 153.08C528.32 156.147 527.96 159.467 527.96 163.04C527.96 166.613 528.32 169.947 529.04 173.04C529.787 176.107 530.947 179.013 532.52 181.76H529.8ZM546.484 174.2C544.484 174.2 542.684 173.747 541.084 172.84C539.511 171.933 538.271 170.68 537.364 169.08C536.457 167.453 536.004 165.587 536.004 163.48C536.004 161.347 536.457 159.48 537.364 157.88C538.271 156.28 539.511 155.04 541.084 154.16C542.684 153.253 544.484 152.8 546.484 152.8C548.324 152.8 549.964 153.213 551.404 154.04C552.871 154.867 554.031 156.08 554.884 157.68C555.764 159.253 556.204 161.187 556.204 163.48C556.204 165.747 555.777 167.68 554.924 169.28C554.071 170.88 552.911 172.107 551.444 172.96C550.004 173.787 548.351 174.2 546.484 174.2ZM546.684 171.68C548.177 171.68 549.511 171.347 550.684 170.68C551.884 169.987 552.817 169.027 553.484 167.8C554.177 166.547 554.524 165.107 554.524 163.48C554.524 161.827 554.177 160.387 553.484 159.16C552.817 157.933 551.884 156.987 550.684 156.32C549.511 155.627 548.177 155.28 546.684 155.28C545.217 155.28 543.897 155.627 542.724 156.32C541.551 156.987 540.617 157.933 539.924 159.16C539.231 160.387 538.884 161.827 538.884 163.48C538.884 165.107 539.231 166.547 539.924 167.8C540.617 169.027 541.551 169.987 542.724 170.68C543.897 171.347 545.217 171.68 546.684 171.68ZM554.604 174V167.68L554.884 163.44L554.484 159.2V144.32H557.324V174H554.604ZM573.913 174.2C572.127 174.2 570.567 173.867 569.233 173.2C567.9 172.533 566.86 171.533 566.113 170.2C565.393 168.867 565.033 167.2 565.033 165.2V153H567.873V164.88C567.873 167.12 568.42 168.813 569.513 169.96C570.633 171.08 572.193 171.64 574.193 171.64C575.66 171.64 576.927 171.347 577.993 170.76C579.087 170.147 579.913 169.267 580.473 168.12C581.06 166.973 581.353 165.6 581.353 164V153H584.193V174H581.473V168.24L581.913 169.28C581.247 170.827 580.207 172.04 578.793 172.92C577.407 173.773 575.78 174.2 573.913 174.2ZM592.108 174V153H594.828V158.72L594.548 157.72C595.135 156.12 596.122 154.907 597.508 154.08C598.895 153.227 600.615 152.8 602.668 152.8V155.56C602.562 155.56 602.455 155.56 602.348 155.56C602.242 155.533 602.135 155.52 602.028 155.52C599.815 155.52 598.082 156.2 596.828 157.56C595.575 158.893 594.948 160.8 594.948 163.28V174H592.108ZM619.448 174V169.36L619.328 168.6V160.84C619.328 159.053 618.821 157.68 617.808 156.72C616.821 155.76 615.341 155.28 613.368 155.28C612.008 155.28 610.715 155.507 609.488 155.96C608.261 156.413 607.221 157.013 606.368 157.76L605.088 155.64C606.155 154.733 607.435 154.04 608.928 153.56C610.421 153.053 611.995 152.8 613.648 152.8C616.368 152.8 618.461 153.48 619.928 154.84C621.421 156.173 622.168 158.213 622.168 160.96V174H619.448ZM612.208 174.2C610.635 174.2 609.261 173.947 608.088 173.44C606.941 172.907 606.061 172.187 605.448 171.28C604.835 170.347 604.528 169.28 604.528 168.08C604.528 166.987 604.781 166 605.288 165.12C605.821 164.213 606.675 163.493 607.848 162.96C609.048 162.4 610.648 162.12 612.648 162.12H619.888V164.24H612.728C610.701 164.24 609.288 164.6 608.488 165.32C607.715 166.04 607.328 166.933 607.328 168C607.328 169.2 607.795 170.16 608.728 170.88C609.661 171.6 610.968 171.96 612.648 171.96C614.248 171.96 615.621 171.6 616.768 170.88C617.941 170.133 618.795 169.067 619.328 167.68L619.968 169.64C619.435 171.027 618.501 172.133 617.168 172.96C615.861 173.787 614.208 174.2 612.208 174.2ZM635.522 174.2C633.789 174.2 632.149 173.96 630.602 173.48C629.055 172.973 627.842 172.347 626.962 171.6L628.242 169.36C629.095 170 630.189 170.56 631.522 171.04C632.855 171.493 634.255 171.72 635.722 171.72C637.722 171.72 639.162 171.413 640.042 170.8C640.922 170.16 641.362 169.32 641.362 168.28C641.362 167.507 641.109 166.907 640.602 166.48C640.122 166.027 639.482 165.693 638.682 165.48C637.882 165.24 636.989 165.04 636.002 164.88C635.015 164.72 634.029 164.533 633.042 164.32C632.082 164.107 631.202 163.8 630.402 163.4C629.602 162.973 628.949 162.4 628.442 161.68C627.962 160.96 627.722 160 627.722 158.8C627.722 157.653 628.042 156.627 628.682 155.72C629.322 154.813 630.255 154.107 631.482 153.6C632.735 153.067 634.255 152.8 636.042 152.8C637.402 152.8 638.762 152.987 640.122 153.36C641.482 153.707 642.602 154.173 643.482 154.76L642.242 157.04C641.309 156.4 640.309 155.947 639.242 155.68C638.175 155.387 637.109 155.24 636.042 155.24C634.149 155.24 632.749 155.573 631.842 156.24C630.962 156.88 630.522 157.707 630.522 158.72C630.522 159.52 630.762 160.147 631.242 160.6C631.749 161.053 632.402 161.413 633.202 161.68C634.029 161.92 634.922 162.12 635.882 162.28C636.869 162.44 637.842 162.64 638.802 162.88C639.789 163.093 640.682 163.4 641.482 163.8C642.309 164.173 642.962 164.72 643.442 165.44C643.949 166.133 644.202 167.053 644.202 168.2C644.202 169.427 643.855 170.493 643.162 171.4C642.495 172.28 641.509 172.973 640.202 173.48C638.922 173.96 637.362 174.2 635.522 174.2ZM649.413 174V153H652.253V174H649.413ZM650.853 148.36C650.266 148.36 649.773 148.16 649.373 147.76C648.973 147.36 648.773 146.88 648.773 146.32C648.773 145.76 648.973 145.293 649.373 144.92C649.773 144.52 650.266 144.32 650.853 144.32C651.44 144.32 651.933 144.507 652.333 144.88C652.733 145.253 652.933 145.72 652.933 146.28C652.933 146.867 652.733 147.36 652.333 147.76C651.96 148.16 651.466 148.36 650.853 148.36ZM696.864 152.8C698.571 152.8 700.051 153.133 701.304 153.8C702.584 154.44 703.571 155.427 704.264 156.76C704.984 158.093 705.344 159.773 705.344 161.8V174H702.504V162.08C702.504 159.867 701.971 158.2 700.904 157.08C699.864 155.933 698.384 155.36 696.464 155.36C695.024 155.36 693.771 155.667 692.704 156.28C691.664 156.867 690.851 157.733 690.264 158.88C689.704 160 689.424 161.36 689.424 162.96V174H686.584V162.08C686.584 159.867 686.051 158.2 684.984 157.08C683.917 155.933 682.424 155.36 680.504 155.36C679.091 155.36 677.851 155.667 676.784 156.28C675.717 156.867 674.891 157.733 674.304 158.88C673.744 160 673.464 161.36 673.464 162.96V174H670.624V153H673.344V158.68L672.904 157.68C673.544 156.16 674.571 154.973 675.984 154.12C677.424 153.24 679.117 152.8 681.064 152.8C683.117 152.8 684.864 153.32 686.304 154.36C687.744 155.373 688.677 156.907 689.104 158.96L687.984 158.52C688.597 156.813 689.677 155.44 691.224 154.4C692.797 153.333 694.677 152.8 696.864 152.8ZM726.206 174V169.36L726.086 168.6V160.84C726.086 159.053 725.579 157.68 724.566 156.72C723.579 155.76 722.099 155.28 720.126 155.28C718.766 155.28 717.473 155.507 716.246 155.96C715.019 156.413 713.979 157.013 713.126 157.76L711.846 155.64C712.913 154.733 714.193 154.04 715.686 153.56C717.179 153.053 718.753 152.8 720.406 152.8C723.126 152.8 725.219 153.48 726.686 154.84C728.179 156.173 728.926 158.213 728.926 160.96V174H726.206ZM718.966 174.2C717.393 174.2 716.019 173.947 714.846 173.44C713.699 172.907 712.819 172.187 712.206 171.28C711.593 170.347 711.286 169.28 711.286 168.08C711.286 166.987 711.539 166 712.046 165.12C712.579 164.213 713.433 163.493 714.606 162.96C715.806 162.4 717.406 162.12 719.406 162.12H726.646V164.24H719.486C717.459 164.24 716.046 164.6 715.246 165.32C714.473 166.04 714.086 166.933 714.086 168C714.086 169.2 714.553 170.16 715.486 170.88C716.419 171.6 717.726 171.96 719.406 171.96C721.006 171.96 722.379 171.6 723.526 170.88C724.699 170.133 725.553 169.067 726.086 167.68L726.726 169.64C726.193 171.027 725.259 172.133 723.926 172.96C722.619 173.787 720.966 174.2 718.966 174.2ZM738.88 168.56L738.96 164.92L752.04 153H755.52L746.28 161.84L744.68 163.2L738.88 168.56ZM736.64 174V144.32H739.48V174H736.64ZM752.92 174L744.16 163.08L746 160.88L756.4 174H752.92ZM765.678 174.2C763.945 174.2 762.305 173.96 760.758 173.48C759.211 172.973 757.998 172.347 757.118 171.6L758.398 169.36C759.251 170 760.345 170.56 761.678 171.04C763.011 171.493 764.411 171.72 765.878 171.72C767.878 171.72 769.318 171.413 770.198 170.8C771.078 170.16 771.518 169.32 771.518 168.28C771.518 167.507 771.265 166.907 770.758 166.48C770.278 166.027 769.638 165.693 768.838 165.48C768.038 165.24 767.145 165.04 766.158 164.88C765.171 164.72 764.185 164.533 763.198 164.32C762.238 164.107 761.358 163.8 760.558 163.4C759.758 162.973 759.105 162.4 758.598 161.68C758.118 160.96 757.878 160 757.878 158.8C757.878 157.653 758.198 156.627 758.838 155.72C759.478 154.813 760.411 154.107 761.638 153.6C762.891 153.067 764.411 152.8 766.198 152.8C767.558 152.8 768.918 152.987 770.278 153.36C771.638 153.707 772.758 154.173 773.638 154.76L772.398 157.04C771.465 156.4 770.465 155.947 769.398 155.68C768.331 155.387 767.265 155.24 766.198 155.24C764.305 155.24 762.905 155.573 761.998 156.24C761.118 156.88 760.678 157.707 760.678 158.72C760.678 159.52 760.918 160.147 761.398 160.6C761.905 161.053 762.558 161.413 763.358 161.68C764.185 161.92 765.078 162.12 766.038 162.28C767.025 162.44 767.998 162.64 768.958 162.88C769.945 163.093 770.838 163.4 771.638 163.8C772.465 164.173 773.118 164.72 773.598 165.44C774.105 166.133 774.358 167.053 774.358 168.2C774.358 169.427 774.011 170.493 773.318 171.4C772.651 172.28 771.665 172.973 770.358 173.48C769.078 173.96 767.518 174.2 765.678 174.2ZM793.038 174V147.2L794.318 148.56H786.438V146H795.918V174H793.038ZM551.2 192.8C552.907 192.8 554.387 193.133 555.64 193.8C556.92 194.44 557.907 195.427 558.6 196.76C559.32 198.093 559.68 199.773 559.68 201.8V214H556.84V202.08C556.84 199.867 556.307 198.2 555.24 197.08C554.2 195.933 552.72 195.36 550.8 195.36C549.36 195.36 548.107 195.667 547.04 196.28C546 196.867 545.187 197.733 544.6 198.88C544.04 200 543.76 201.36 543.76 202.96V214H540.92V202.08C540.92 199.867 540.387 198.2 539.32 197.08C538.253 195.933 536.76 195.36 534.84 195.36C533.427 195.36 532.187 195.667 531.12 196.28C530.053 196.867 529.227 197.733 528.64 198.88C528.08 200 527.8 201.36 527.8 202.96V214H524.96V193H527.68V198.68L527.24 197.68C527.88 196.16 528.907 194.973 530.32 194.12C531.76 193.24 533.453 192.8 535.4 192.8C537.453 192.8 539.2 193.32 540.64 194.36C542.08 195.373 543.013 196.907 543.44 198.96L542.32 198.52C542.933 196.813 544.013 195.44 545.56 194.4C547.133 193.333 549.013 192.8 551.2 192.8ZM576.302 214.2C574.115 214.2 572.195 213.747 570.542 212.84C568.889 211.907 567.595 210.64 566.662 209.04C565.729 207.413 565.262 205.56 565.262 203.48C565.262 201.4 565.702 199.56 566.582 197.96C567.489 196.36 568.715 195.107 570.262 194.2C571.835 193.267 573.595 192.8 575.542 192.8C577.515 192.8 579.262 193.253 580.782 194.16C582.329 195.04 583.542 196.293 584.422 197.92C585.302 199.52 585.742 201.373 585.742 203.48C585.742 203.613 585.729 203.76 585.702 203.92C585.702 204.053 585.702 204.2 585.702 204.36H567.422V202.24H584.182L583.062 203.08C583.062 201.56 582.729 200.213 582.062 199.04C581.422 197.84 580.542 196.907 579.422 196.24C578.302 195.573 577.009 195.24 575.542 195.24C574.102 195.24 572.809 195.573 571.662 196.24C570.515 196.907 569.622 197.84 568.982 199.04C568.342 200.24 568.022 201.613 568.022 203.16V203.6C568.022 205.2 568.369 206.613 569.062 207.84C569.782 209.04 570.769 209.987 572.022 210.68C573.302 211.347 574.755 211.68 576.382 211.68C577.662 211.68 578.849 211.453 579.942 211C581.062 210.547 582.022 209.853 582.822 208.92L584.422 210.76C583.489 211.88 582.315 212.733 580.902 213.32C579.515 213.907 577.982 214.2 576.302 214.2ZM602.243 192.8C603.949 192.8 605.443 193.133 606.723 193.8C608.029 194.44 609.043 195.427 609.763 196.76C610.509 198.093 610.883 199.773 610.883 201.8V214H608.043V202.08C608.043 199.867 607.483 198.2 606.363 197.08C605.269 195.933 603.723 195.36 601.723 195.36C600.229 195.36 598.923 195.667 597.803 196.28C596.709 196.867 595.856 197.733 595.243 198.88C594.656 200 594.363 201.36 594.363 202.96V214H591.523V193H594.243V198.76L593.803 197.68C594.469 196.16 595.536 194.973 597.003 194.12C598.469 193.24 600.216 192.8 602.243 192.8ZM618.554 214V193H621.394V214H618.554ZM619.994 188.36C619.407 188.36 618.914 188.16 618.514 187.76C618.114 187.36 617.914 186.88 617.914 186.32C617.914 185.76 618.114 185.293 618.514 184.92C618.914 184.52 619.407 184.32 619.994 184.32C620.58 184.32 621.074 184.507 621.474 184.88C621.874 185.253 622.074 185.72 622.074 186.28C622.074 186.867 621.874 187.36 621.474 187.76C621.1 188.16 620.607 188.36 619.994 188.36ZM635.936 214.2C633.963 214.2 632.443 213.667 631.376 212.6C630.309 211.533 629.776 210.027 629.776 208.08V188.36H632.616V207.92C632.616 209.147 632.923 210.093 633.536 210.76C634.176 211.427 635.083 211.76 636.256 211.76C637.509 211.76 638.549 211.4 639.376 210.68L640.376 212.72C639.816 213.227 639.136 213.6 638.336 213.84C637.563 214.08 636.763 214.2 635.936 214.2ZM626.016 195.36V193H639.016V195.36H626.016ZM645.906 221.76H643.186C644.786 219.013 645.946 216.107 646.666 213.04C647.413 209.947 647.786 206.613 647.786 203.04C647.786 199.467 647.413 196.147 646.666 193.08C645.946 189.987 644.786 187.067 643.186 184.32H645.906C647.426 186.693 648.586 189.493 649.386 192.72C650.186 195.92 650.586 199.36 650.586 203.04C650.586 206.72 650.186 210.16 649.386 213.36C648.586 216.533 647.426 219.333 645.906 221.76Z" fill="black"/>
</svg>
