<svg width="1080" height="256" viewBox="0 0 1080 256" fill="none" xmlns="http://www.w3.org/2000/svg">
<rect width="1080" height="256" fill="#212121"/>
<path fill-rule="evenodd" clip-rule="evenodd" d="M1000 127.5C1000 155.943 976.943 179 948.5 179C920.057 179 897 155.943 897 127.5C897 99.0573 920.057 76 948.5 76C976.943 76 1000 99.0573 1000 127.5ZM1005 127.5C1005 158.704 979.704 184 948.5 184C917.296 184 892 158.704 892 127.5C892 96.2959 917.296 71 948.5 71C979.704 71 1005 96.2959 1005 127.5ZM944.034 147.975L925.776 116.298C923.777 112.83 927.547 108.901 931.094 110.755L941.016 115.94C945.078 118.063 949.922 118.063 953.984 115.94L963.906 110.755C967.453 108.901 971.223 112.83 969.224 116.298L950.965 147.975C949.426 150.645 945.573 150.645 944.034 147.975ZM955.297 150.472C951.835 156.479 943.165 156.479 939.702 150.472L921.444 118.795C916.947 110.992 925.428 102.153 933.41 106.324L943.332 111.509C945.943 112.873 949.057 112.873 951.668 111.509L961.59 106.324C969.571 102.153 978.053 110.992 973.556 118.795L955.297 150.472Z" fill="white"/>
<path d="M83.69 118V58.5H105.96C111.003 58.5 115.338 59.3217 118.965 60.965C122.592 62.5517 125.368 64.875 127.295 67.935C129.278 70.9383 130.27 74.5933 130.27 78.9C130.27 83.0933 129.278 86.72 127.295 89.78C125.368 92.7833 122.592 95.1067 118.965 96.75C115.338 98.3933 111.003 99.215 105.96 99.215H87.175L89.98 96.24V118H83.69ZM89.98 96.75L87.175 93.69H105.79C111.74 93.69 116.245 92.415 119.305 89.865C122.422 87.2583 123.98 83.6033 123.98 78.9C123.98 74.14 122.422 70.4567 119.305 67.85C116.245 65.2433 111.74 63.94 105.79 63.94H87.175L89.98 60.965V96.75ZM143.871 118V58.5H166.141C171.184 58.5 175.519 59.3217 179.146 60.965C182.772 62.5517 185.549 64.875 187.476 67.935C189.459 70.9383 190.451 74.5933 190.451 78.9C190.451 83.0933 189.459 86.72 187.476 89.78C185.549 92.7833 182.772 95.1067 179.146 96.75C175.519 98.3367 171.184 99.13 166.141 99.13H147.356L150.161 96.24V118H143.871ZM184.501 118L169.201 96.41H176.001L191.386 118H184.501ZM150.161 96.75L147.356 93.775H165.971C171.921 93.775 176.426 92.4717 179.486 89.865C182.602 87.2583 184.161 83.6033 184.161 78.9C184.161 74.14 182.602 70.4567 179.486 67.85C176.426 65.2433 171.921 63.94 165.971 63.94H147.356L150.161 60.965V96.75ZM231.306 118.51C226.83 118.51 222.665 117.773 218.811 116.3C215.015 114.77 211.7 112.645 208.866 109.925C206.09 107.148 203.908 103.947 202.321 100.32C200.791 96.6367 200.026 92.6133 200.026 88.25C200.026 83.8867 200.791 79.8917 202.321 76.265C203.908 72.5817 206.09 69.38 208.866 66.66C211.7 63.8833 215.015 61.7583 218.811 60.285C222.608 58.755 226.773 57.99 231.306 57.99C235.783 57.99 239.92 58.755 243.716 60.285C247.513 61.7583 250.8 63.855 253.576 66.575C256.41 69.295 258.591 72.4967 260.121 76.18C261.708 79.8633 262.501 83.8867 262.501 88.25C262.501 92.6133 261.708 96.6367 260.121 100.32C258.591 104.003 256.41 107.205 253.576 109.925C250.8 112.645 247.513 114.77 243.716 116.3C239.92 117.773 235.783 118.51 231.306 118.51ZM231.306 112.9C234.876 112.9 238.163 112.305 241.166 111.115C244.226 109.868 246.861 108.14 249.071 105.93C251.338 103.663 253.095 101.057 254.341 98.11C255.588 95.1067 256.211 91.82 256.211 88.25C256.211 84.68 255.588 81.4217 254.341 78.475C253.095 75.4717 251.338 72.865 249.071 70.655C246.861 68.3883 244.226 66.66 241.166 65.47C238.163 64.2233 234.876 63.6 231.306 63.6C227.736 63.6 224.421 64.2233 221.361 65.47C218.301 66.66 215.638 68.3883 213.371 70.655C211.161 72.865 209.405 75.4717 208.101 78.475C206.855 81.4217 206.231 84.68 206.231 88.25C206.231 91.7633 206.855 95.0217 208.101 98.025C209.405 101.028 211.161 103.663 213.371 105.93C215.638 108.14 218.301 109.868 221.361 111.115C224.421 112.305 227.736 112.9 231.306 112.9ZM293.005 118.51C288.585 118.51 284.335 117.802 280.255 116.385C276.232 114.912 273.115 113.042 270.905 110.775L273.37 105.93C275.467 107.97 278.272 109.698 281.785 111.115C285.355 112.475 289.095 113.155 293.005 113.155C296.745 113.155 299.777 112.702 302.1 111.795C304.48 110.832 306.208 109.557 307.285 107.97C308.418 106.383 308.985 104.627 308.985 102.7C308.985 100.377 308.305 98.5067 306.945 97.09C305.642 95.6733 303.913 94.5683 301.76 93.775C299.607 92.925 297.227 92.1883 294.62 91.565C292.013 90.9417 289.407 90.29 286.8 89.61C284.193 88.8733 281.785 87.91 279.575 86.72C277.422 85.53 275.665 83.9717 274.305 82.045C273.002 80.0617 272.35 77.4833 272.35 74.31C272.35 71.3633 273.115 68.6717 274.645 66.235C276.232 63.7417 278.64 61.7583 281.87 60.285C285.1 58.755 289.237 57.99 294.28 57.99C297.623 57.99 300.938 58.4717 304.225 59.435C307.512 60.3417 310.345 61.6167 312.725 63.26L310.6 68.275C308.05 66.575 305.33 65.3283 302.44 64.535C299.607 63.7417 296.858 63.345 294.195 63.345C290.625 63.345 287.678 63.8267 285.355 64.79C283.032 65.7533 281.303 67.0567 280.17 68.7C279.093 70.2867 278.555 72.1 278.555 74.14C278.555 76.4633 279.207 78.3333 280.51 79.75C281.87 81.1667 283.627 82.2717 285.78 83.065C287.99 83.8583 290.398 84.5667 293.005 85.19C295.612 85.8133 298.19 86.4933 300.74 87.23C303.347 87.9667 305.727 88.93 307.88 90.12C310.09 91.2533 311.847 92.7833 313.15 94.71C314.51 96.6367 315.19 99.1583 315.19 102.275C315.19 105.165 314.397 107.857 312.81 110.35C311.223 112.787 308.787 114.77 305.5 116.3C302.27 117.773 298.105 118.51 293.005 118.51ZM334.505 85.105H365.955V90.46H334.505V85.105ZM335.185 112.56H370.97V118H328.895V58.5H369.695V63.94H335.185V112.56ZM385.755 118V58.5H409.98C416.327 58.5 421.88 59.775 426.64 62.325C431.457 64.8183 435.197 68.3033 437.86 72.78C440.524 77.2567 441.855 82.4133 441.855 88.25C441.855 94.0867 440.524 99.2433 437.86 103.72C435.197 108.197 431.457 111.71 426.64 114.26C421.88 116.753 416.327 118 409.98 118H385.755ZM392.045 112.56H409.64C414.91 112.56 419.472 111.54 423.325 109.5C427.235 107.403 430.267 104.542 432.42 100.915C434.574 97.2317 435.65 93.01 435.65 88.25C435.65 83.4333 434.574 79.2117 432.42 75.585C430.267 71.9583 427.235 69.125 423.325 67.085C419.472 64.9883 414.91 63.94 409.64 63.94H392.045V112.56ZM479.95 118.51C472.357 118.51 466.378 116.328 462.015 111.965C457.652 107.602 455.47 101.142 455.47 92.585V58.5H461.76V92.33C461.76 99.3567 463.347 104.542 466.52 107.885C469.693 111.228 474.17 112.9 479.95 112.9C485.787 112.9 490.292 111.228 493.465 107.885C496.638 104.542 498.225 99.3567 498.225 92.33V58.5H504.345V92.585C504.345 101.142 502.163 107.602 497.8 111.965C493.493 116.328 487.543 118.51 479.95 118.51ZM523.299 118V58.5H545.569C550.613 58.5 554.948 59.3217 558.574 60.965C562.201 62.5517 564.978 64.875 566.904 67.935C568.888 70.9383 569.879 74.5933 569.879 78.9C569.879 83.0933 568.888 86.72 566.904 89.78C564.978 92.7833 562.201 95.1067 558.574 96.75C554.948 98.3367 550.613 99.13 545.569 99.13H526.784L529.589 96.24V118H523.299ZM563.929 118L548.629 96.41H555.429L570.814 118H563.929ZM529.589 96.75L526.784 93.775H545.399C551.349 93.775 555.854 92.4717 558.914 89.865C562.031 87.2583 563.589 83.6033 563.589 78.9C563.589 74.14 562.031 70.4567 558.914 67.85C555.854 65.2433 551.349 63.94 545.399 63.94H526.784L529.589 60.965V96.75ZM83.69 191V131.5H89.98V185.56H123.3V191H83.69ZM124.224 191L151.424 131.5H157.629L184.829 191H178.199L153.209 135.155H155.759L130.769 191H124.224ZM134.934 175.105L136.804 170.005H171.399L173.269 175.105H134.934ZM205.38 191V168.9L206.825 172.81L181.58 131.5H188.295L210.48 167.795H206.91L229.095 131.5H235.385L210.14 172.81L211.585 168.9V191H205.38ZM232.134 191L259.334 131.5H265.539L292.739 191H286.109L261.119 135.155H263.669L238.679 191H232.134ZM242.844 175.105L244.714 170.005H279.309L281.179 175.105H242.844ZM302.582 191V131.5H307.767L348.822 183.18H346.102V131.5H352.307V191H347.122L306.152 139.32H308.872V191H302.582ZM362.207 191L389.407 131.5H395.612L422.812 191H416.182L391.192 135.155H393.742L368.752 191H362.207ZM372.917 175.105L374.787 170.005H409.382L411.252 175.105H372.917ZM432.655 191V131.5H437.84L478.895 183.18H476.175V131.5H482.38V191H477.195L436.225 139.32H438.945V191H432.655Z" fill="white"/>
</svg>
