<svg width="1080" height="256" viewBox="0 0 1080 256" fill="none" xmlns="http://www.w3.org/2000/svg">
<rect width="1080" height="256" fill="#212121"/>
<path fill-rule="evenodd" clip-rule="evenodd" d="M1000 127.5C1000 155.943 976.943 179 948.5 179C920.057 179 897 155.943 897 127.5C897 99.0573 920.057 76 948.5 76C976.943 76 1000 99.0573 1000 127.5ZM1005 127.5C1005 158.704 979.704 184 948.5 184C917.296 184 892 158.704 892 127.5C892 96.2959 917.296 71 948.5 71C979.704 71 1005 96.2959 1005 127.5ZM944.034 147.975L925.776 116.298C923.777 112.83 927.547 108.901 931.094 110.755L941.016 115.94C945.078 118.063 949.922 118.063 953.984 115.94L963.906 110.755C967.453 108.901 971.223 112.83 969.224 116.298L950.965 147.975C949.426 150.645 945.573 150.645 944.034 147.975ZM955.297 150.472C951.835 156.479 943.165 156.479 939.702 150.472L921.444 118.795C916.947 110.992 925.428 102.153 933.41 106.324L943.332 111.509C945.943 112.873 949.057 112.873 951.668 111.509L961.59 106.324C969.571 102.153 978.053 110.992 973.556 118.795L955.297 150.472Z" fill="white"/>
<path d="M83.69 118V58.5H109.36C115.99 58.5 121.118 59.8317 124.745 62.495C128.428 65.1583 130.27 68.9267 130.27 73.8C130.27 77.03 129.505 79.75 127.975 81.96C126.502 84.17 124.462 85.8417 121.855 86.975C119.305 88.1083 116.5 88.675 113.44 88.675L114.885 86.635C118.682 86.635 121.94 87.23 124.66 88.42C127.437 89.5533 129.59 91.2817 131.12 93.605C132.65 95.8717 133.415 98.705 133.415 102.105C133.415 107.148 131.545 111.058 127.805 113.835C124.122 116.612 118.54 118 111.06 118H83.69ZM89.98 112.815H110.975C116.188 112.815 120.183 111.937 122.96 110.18C125.737 108.367 127.125 105.505 127.125 101.595C127.125 97.7417 125.737 94.9367 122.96 93.18C120.183 91.3667 116.188 90.46 110.975 90.46H89.3V85.275H108.935C113.695 85.275 117.378 84.3683 119.985 82.555C122.648 80.7417 123.98 78.05 123.98 74.48C123.98 70.8533 122.648 68.1617 119.985 66.405C117.378 64.5917 113.695 63.685 108.935 63.685H89.98V112.815ZM138.252 118L165.452 58.5H171.657L198.857 118H192.227L167.237 62.155H169.787L144.797 118H138.252ZM148.962 102.105L150.832 97.005H185.427L187.297 102.105H148.962ZM217.271 118V63.94H196.361V58.5H244.471V63.94H223.561V118H217.271ZM242.012 118L269.212 58.5H275.417L302.617 118H295.987L270.997 62.155H273.547L248.557 118H242.012ZM252.722 102.105L254.592 97.005H289.187L291.057 102.105H252.722ZM328.865 118.51C324.445 118.51 320.195 117.802 316.115 116.385C312.091 114.912 308.975 113.042 306.765 110.775L309.23 105.93C311.326 107.97 314.131 109.698 317.645 111.115C321.215 112.475 324.955 113.155 328.865 113.155C332.605 113.155 335.636 112.702 337.96 111.795C340.34 110.832 342.068 109.557 343.145 107.97C344.278 106.383 344.845 104.627 344.845 102.7C344.845 100.377 344.165 98.5067 342.805 97.09C341.501 95.6733 339.773 94.5683 337.62 93.775C335.466 92.925 333.086 92.1883 330.48 91.565C327.873 90.9417 325.266 90.29 322.66 89.61C320.053 88.8733 317.645 87.91 315.435 86.72C313.281 85.53 311.525 83.9717 310.165 82.045C308.861 80.0617 308.21 77.4833 308.21 74.31C308.21 71.3633 308.975 68.6717 310.505 66.235C312.091 63.7417 314.5 61.7583 317.73 60.285C320.96 58.755 325.096 57.99 330.14 57.99C333.483 57.99 336.798 58.4717 340.085 59.435C343.371 60.3417 346.205 61.6167 348.585 63.26L346.46 68.275C343.91 66.575 341.19 65.3283 338.3 64.535C335.466 63.7417 332.718 63.345 330.055 63.345C326.485 63.345 323.538 63.8267 321.215 64.79C318.891 65.7533 317.163 67.0567 316.03 68.7C314.953 70.2867 314.415 72.1 314.415 74.14C314.415 76.4633 315.066 78.3333 316.37 79.75C317.73 81.1667 319.486 82.2717 321.64 83.065C323.85 83.8583 326.258 84.5667 328.865 85.19C331.471 85.8133 334.05 86.4933 336.6 87.23C339.206 87.9667 341.586 88.93 343.74 90.12C345.95 91.2533 347.706 92.7833 349.01 94.71C350.37 96.6367 351.05 99.1583 351.05 102.275C351.05 105.165 350.256 107.857 348.67 110.35C347.083 112.787 344.646 114.77 341.36 116.3C338.13 117.773 333.965 118.51 328.865 118.51ZM355.234 118L382.434 58.5H388.639L415.839 118H409.209L384.219 62.155H386.769L361.779 118H355.234ZM365.944 102.105L367.814 97.005H402.409L404.279 102.105H365.944ZM425.682 118V58.5H430.867L471.922 110.18H469.202V58.5H475.407V118H470.222L429.252 66.32H431.972V118H425.682ZM89.13 176.21L88.875 168.56L124.915 131.5H132.14L105.875 159.04L102.305 162.865L89.13 176.21ZM83.69 191V131.5H89.98V191H83.69ZM126.445 191L100.775 161.42L105.025 156.83L133.925 191H126.445ZM167.26 191.51C159.666 191.51 153.688 189.328 149.325 184.965C144.961 180.602 142.78 174.142 142.78 165.585V131.5H149.07V165.33C149.07 172.357 150.656 177.542 153.83 180.885C157.003 184.228 161.48 185.9 167.26 185.9C173.096 185.9 177.601 184.228 180.775 180.885C183.948 177.542 185.535 172.357 185.535 165.33V131.5H191.655V165.585C191.655 174.142 189.473 180.602 185.11 184.965C180.803 189.328 174.853 191.51 167.26 191.51ZM236.619 191.51C232.142 191.51 227.977 190.773 224.124 189.3C220.327 187.77 217.012 185.645 214.179 182.925C211.402 180.148 209.221 176.947 207.634 173.32C206.104 169.637 205.339 165.613 205.339 161.25C205.339 156.887 206.104 152.892 207.634 149.265C209.221 145.582 211.402 142.38 214.179 139.66C217.012 136.883 220.327 134.758 224.124 133.285C227.921 131.755 232.086 130.99 236.619 130.99C241.096 130.99 245.232 131.755 249.029 133.285C252.826 134.758 256.112 136.855 258.889 139.575C261.722 142.295 263.904 145.497 265.434 149.18C267.021 152.863 267.814 156.887 267.814 161.25C267.814 165.613 267.021 169.637 265.434 173.32C263.904 177.003 261.722 180.205 258.889 182.925C256.112 185.645 252.826 187.77 249.029 189.3C245.232 190.773 241.096 191.51 236.619 191.51ZM236.619 185.9C240.189 185.9 243.476 185.305 246.479 184.115C249.539 182.868 252.174 181.14 254.384 178.93C256.651 176.663 258.407 174.057 259.654 171.11C260.901 168.107 261.524 164.82 261.524 161.25C261.524 157.68 260.901 154.422 259.654 151.475C258.407 148.472 256.651 145.865 254.384 143.655C252.174 141.388 249.539 139.66 246.479 138.47C243.476 137.223 240.189 136.6 236.619 136.6C233.049 136.6 229.734 137.223 226.674 138.47C223.614 139.66 220.951 141.388 218.684 143.655C216.474 145.865 214.717 148.472 213.414 151.475C212.167 154.422 211.544 157.68 211.544 161.25C211.544 164.763 212.167 168.022 213.414 171.025C214.717 174.028 216.474 176.663 218.684 178.93C220.951 181.14 223.614 182.868 226.674 184.115C229.734 185.305 233.049 185.9 236.619 185.9ZM292.643 191V136.94H271.733V131.5H319.843V136.94H298.933V191H292.643ZM317.383 191L344.583 131.5H350.788L377.988 191H371.358L346.368 135.155H348.918L323.928 191H317.383ZM328.093 175.105L329.963 170.005H364.558L366.428 175.105H328.093ZM410.077 191V131.5H432.347C437.39 131.5 441.725 132.322 445.352 133.965C448.978 135.552 451.755 137.875 453.682 140.935C455.665 143.938 456.657 147.593 456.657 151.9C456.657 156.093 455.665 159.72 453.682 162.78C451.755 165.783 448.978 168.107 445.352 169.75C441.725 171.337 437.39 172.13 432.347 172.13H413.562L416.367 169.24V191H410.077ZM450.707 191L435.407 169.41H442.207L457.592 191H450.707ZM416.367 169.75L413.562 166.775H432.177C438.127 166.775 442.632 165.472 445.692 162.865C448.808 160.258 450.367 156.603 450.367 151.9C450.367 147.14 448.808 143.457 445.692 140.85C442.632 138.243 438.127 136.94 432.177 136.94H413.562L416.367 133.965V169.75ZM477.113 158.105H508.563V163.46H477.113V158.105ZM477.793 185.56H513.578V191H471.503V131.5H512.303V136.94H477.793V185.56ZM544.448 191L518.098 131.5H524.898L549.548 187.515H545.808L570.628 131.5H577.003L550.653 191H544.448ZM585.638 191V131.5H591.928V191H585.638ZM627.693 191.51C623.273 191.51 619.023 190.802 614.943 189.385C610.919 187.912 607.803 186.042 605.593 183.775L608.058 178.93C610.154 180.97 612.959 182.698 616.473 184.115C620.043 185.475 623.783 186.155 627.693 186.155C631.433 186.155 634.464 185.702 636.788 184.795C639.168 183.832 640.896 182.557 641.973 180.97C643.106 179.383 643.673 177.627 643.673 175.7C643.673 173.377 642.993 171.507 641.633 170.09C640.329 168.673 638.601 167.568 636.448 166.775C634.294 165.925 631.914 165.188 629.308 164.565C626.701 163.942 624.094 163.29 621.488 162.61C618.881 161.873 616.473 160.91 614.263 159.72C612.109 158.53 610.353 156.972 608.993 155.045C607.689 153.062 607.038 150.483 607.038 147.31C607.038 144.363 607.803 141.672 609.333 139.235C610.919 136.742 613.328 134.758 616.558 133.285C619.788 131.755 623.924 130.99 628.968 130.99C632.311 130.99 635.626 131.472 638.913 132.435C642.199 133.342 645.033 134.617 647.413 136.26L645.288 141.275C642.738 139.575 640.018 138.328 637.128 137.535C634.294 136.742 631.546 136.345 628.883 136.345C625.313 136.345 622.366 136.827 620.043 137.79C617.719 138.753 615.991 140.057 614.858 141.7C613.781 143.287 613.243 145.1 613.243 147.14C613.243 149.463 613.894 151.333 615.198 152.75C616.558 154.167 618.314 155.272 620.468 156.065C622.678 156.858 625.086 157.567 627.693 158.19C630.299 158.813 632.878 159.493 635.428 160.23C638.034 160.967 640.414 161.93 642.568 163.12C644.778 164.253 646.534 165.783 647.838 167.71C649.198 169.637 649.878 172.158 649.878 175.275C649.878 178.165 649.084 180.857 647.498 183.35C645.911 185.787 643.474 187.77 640.188 189.3C636.958 190.773 632.793 191.51 627.693 191.51ZM663.583 191V131.5H669.873V191H663.583Z" fill="white"/>
</svg>
