<svg width="1080" height="256" viewBox="0 0 1080 256" fill="none" xmlns="http://www.w3.org/2000/svg">
<rect width="1080" height="256" fill="#212121"/>
<path fill-rule="evenodd" clip-rule="evenodd" d="M1000 127.5C1000 155.943 976.943 179 948.5 179C920.057 179 897 155.943 897 127.5C897 99.0573 920.057 76 948.5 76C976.943 76 1000 99.0573 1000 127.5ZM1005 127.5C1005 158.704 979.704 184 948.5 184C917.296 184 892 158.704 892 127.5C892 96.2959 917.296 71 948.5 71C979.704 71 1005 96.2959 1005 127.5ZM944.034 147.975L925.776 116.298C923.777 112.83 927.547 108.901 931.094 110.755L941.016 115.94C945.078 118.063 949.922 118.063 953.984 115.94L963.906 110.755C967.453 108.901 971.223 112.83 969.224 116.298L950.965 147.975C949.426 150.645 945.573 150.645 944.034 147.975ZM955.297 150.472C951.835 156.479 943.165 156.479 939.702 150.472L921.444 118.795C916.947 110.992 925.428 102.153 933.41 106.324L943.332 111.509C945.943 112.873 949.057 112.873 951.668 111.509L961.59 106.324C969.571 102.153 978.053 110.992 973.556 118.795L955.297 150.472Z" fill="white"/>
<path d="M83.69 118V58.5H107.915C114.262 58.5 119.815 59.775 124.575 62.325C129.392 64.8183 133.132 68.3033 135.795 72.78C138.458 77.2567 139.79 82.4133 139.79 88.25C139.79 94.0867 138.458 99.2433 135.795 103.72C133.132 108.197 129.392 111.71 124.575 114.26C119.815 116.753 114.262 118 107.915 118H83.69ZM89.98 112.56H107.575C112.845 112.56 117.407 111.54 121.26 109.5C125.17 107.403 128.202 104.542 130.355 100.915C132.508 97.2317 133.585 93.01 133.585 88.25C133.585 83.4333 132.508 79.2117 130.355 75.585C128.202 71.9583 125.17 69.125 121.26 67.085C117.407 64.9883 112.845 63.94 107.575 63.94H89.98V112.56ZM159.525 85.105H190.975V90.46H159.525V85.105ZM160.205 112.56H195.99V118H153.915V58.5H194.715V63.94H160.205V112.56ZM227.18 118.51C222.76 118.51 218.51 117.802 214.43 116.385C210.407 114.912 207.29 113.042 205.08 110.775L207.545 105.93C209.642 107.97 212.447 109.698 215.96 111.115C219.53 112.475 223.27 113.155 227.18 113.155C230.92 113.155 233.952 112.702 236.275 111.795C238.655 110.832 240.383 109.557 241.46 107.97C242.593 106.383 243.16 104.627 243.16 102.7C243.16 100.377 242.48 98.5067 241.12 97.09C239.817 95.6733 238.088 94.5683 235.935 93.775C233.782 92.925 231.402 92.1883 228.795 91.565C226.188 90.9417 223.582 90.29 220.975 89.61C218.368 88.8733 215.96 87.91 213.75 86.72C211.597 85.53 209.84 83.9717 208.48 82.045C207.177 80.0617 206.525 77.4833 206.525 74.31C206.525 71.3633 207.29 68.6717 208.82 66.235C210.407 63.7417 212.815 61.7583 216.045 60.285C219.275 58.755 223.412 57.99 228.455 57.99C231.798 57.99 235.113 58.4717 238.4 59.435C241.687 60.3417 244.52 61.6167 246.9 63.26L244.775 68.275C242.225 66.575 239.505 65.3283 236.615 64.535C233.782 63.7417 231.033 63.345 228.37 63.345C224.8 63.345 221.853 63.8267 219.53 64.79C217.207 65.7533 215.478 67.0567 214.345 68.7C213.268 70.2867 212.73 72.1 212.73 74.14C212.73 76.4633 213.382 78.3333 214.685 79.75C216.045 81.1667 217.802 82.2717 219.955 83.065C222.165 83.8583 224.573 84.5667 227.18 85.19C229.787 85.8133 232.365 86.4933 234.915 87.23C237.522 87.9667 239.902 88.93 242.055 90.12C244.265 91.2533 246.022 92.7833 247.325 94.71C248.685 96.6367 249.365 99.1583 249.365 102.275C249.365 105.165 248.572 107.857 246.985 110.35C245.398 112.787 242.962 114.77 239.675 116.3C236.445 117.773 232.28 118.51 227.18 118.51ZM268.51 103.21L268.255 95.56L304.295 58.5H311.52L285.255 86.04L281.685 89.865L268.51 103.21ZM263.07 118V58.5H269.36V118H263.07ZM305.825 118L280.155 88.42L284.405 83.83L313.305 118H305.825ZM323.5 118V58.5H345.77C350.813 58.5 355.148 59.3217 358.775 60.965C362.401 62.5517 365.178 64.875 367.105 67.935C369.088 70.9383 370.08 74.5933 370.08 78.9C370.08 83.0933 369.088 86.72 367.105 89.78C365.178 92.7833 362.401 95.1067 358.775 96.75C355.148 98.3367 350.813 99.13 345.77 99.13H326.985L329.79 96.24V118H323.5ZM364.13 118L348.83 96.41H355.63L371.015 118H364.13ZM329.79 96.75L326.985 93.775H345.6C351.55 93.775 356.055 92.4717 359.115 89.865C362.231 87.2583 363.79 83.6033 363.79 78.9C363.79 74.14 362.231 70.4567 359.115 67.85C356.055 65.2433 351.55 63.94 345.6 63.94H326.985L329.79 60.965V96.75ZM384.925 118V58.5H391.215V118H384.925ZM410.575 118V58.5H432.845C437.888 58.5 442.223 59.3217 445.85 60.965C449.476 62.5517 452.253 64.875 454.18 67.935C456.163 70.9383 457.155 74.5933 457.155 78.9C457.155 83.0933 456.163 86.72 454.18 89.78C452.253 92.7833 449.476 95.1067 445.85 96.75C442.223 98.3933 437.888 99.215 432.845 99.215H414.06L416.865 96.24V118H410.575ZM416.865 96.75L414.06 93.69H432.675C438.625 93.69 443.13 92.415 446.19 89.865C449.306 87.2583 450.865 83.6033 450.865 78.9C450.865 74.14 449.306 70.4567 446.19 67.85C443.13 65.2433 438.625 63.94 432.675 63.94H414.06L416.865 60.965V96.75ZM487.991 118.51C483.571 118.51 479.321 117.802 475.241 116.385C471.217 114.912 468.101 113.042 465.891 110.775L468.356 105.93C470.452 107.97 473.257 109.698 476.771 111.115C480.341 112.475 484.081 113.155 487.991 113.155C491.731 113.155 494.762 112.702 497.086 111.795C499.466 110.832 501.194 109.557 502.271 107.97C503.404 106.383 503.971 104.627 503.971 102.7C503.971 100.377 503.291 98.5067 501.931 97.09C500.627 95.6733 498.899 94.5683 496.746 93.775C494.592 92.925 492.212 92.1883 489.606 91.565C486.999 90.9417 484.392 90.29 481.786 89.61C479.179 88.8733 476.771 87.91 474.561 86.72C472.407 85.53 470.651 83.9717 469.291 82.045C467.987 80.0617 467.336 77.4833 467.336 74.31C467.336 71.3633 468.101 68.6717 469.631 66.235C471.217 63.7417 473.626 61.7583 476.856 60.285C480.086 58.755 484.222 57.99 489.266 57.99C492.609 57.99 495.924 58.4717 499.211 59.435C502.497 60.3417 505.331 61.6167 507.711 63.26L505.586 68.275C503.036 66.575 500.316 65.3283 497.426 64.535C494.592 63.7417 491.844 63.345 489.181 63.345C485.611 63.345 482.664 63.8267 480.341 64.79C478.017 65.7533 476.289 67.0567 475.156 68.7C474.079 70.2867 473.541 72.1 473.541 74.14C473.541 76.4633 474.192 78.3333 475.496 79.75C476.856 81.1667 478.612 82.2717 480.766 83.065C482.976 83.8583 485.384 84.5667 487.991 85.19C490.597 85.8133 493.176 86.4933 495.726 87.23C498.332 87.9667 500.712 88.93 502.866 90.12C505.076 91.2533 506.832 92.7833 508.136 94.71C509.496 96.6367 510.176 99.1583 510.176 102.275C510.176 105.165 509.382 107.857 507.796 110.35C506.209 112.787 503.772 114.77 500.486 116.3C497.256 117.773 493.091 118.51 487.991 118.51ZM523.88 118V58.5H530.17V118H523.88ZM83.69 191V131.5H89.98V185.56H123.3V191H83.69ZM124.224 191L151.424 131.5H157.629L184.829 191H178.199L153.209 135.155H155.759L130.769 191H124.224ZM134.934 175.105L136.804 170.005H171.399L173.269 175.105H134.934ZM205.38 191V168.9L206.825 172.81L181.58 131.5H188.295L210.48 167.795H206.91L229.095 131.5H235.385L210.14 172.81L211.585 168.9V191H205.38ZM232.134 191L259.334 131.5H265.539L292.739 191H286.109L261.119 135.155H263.669L238.679 191H232.134ZM242.844 175.105L244.714 170.005H279.309L281.179 175.105H242.844ZM302.582 191V131.5H307.767L348.822 183.18H346.102V131.5H352.307V191H347.122L306.152 139.32H308.872V191H302.582ZM362.207 191L389.407 131.5H395.612L422.812 191H416.182L391.192 135.155H393.742L368.752 191H362.207ZM372.917 175.105L374.787 170.005H409.382L411.252 175.105H372.917ZM432.655 191V131.5H437.84L478.895 183.18H476.175V131.5H482.38V191H477.195L436.225 139.32H438.945V191H432.655Z" fill="white"/>
</svg>
