<svg width="1080" height="256" viewBox="0 0 1080 256" fill="none" xmlns="http://www.w3.org/2000/svg">
<rect width="1080" height="256" fill="#212121"/>
<path fill-rule="evenodd" clip-rule="evenodd" d="M1000 127.5C1000 155.943 976.943 179 948.5 179C920.057 179 897 155.943 897 127.5C897 99.0573 920.057 76 948.5 76C976.943 76 1000 99.0573 1000 127.5ZM1005 127.5C1005 158.704 979.704 184 948.5 184C917.296 184 892 158.704 892 127.5C892 96.2959 917.296 71 948.5 71C979.704 71 1005 96.2959 1005 127.5ZM944.034 147.975L925.776 116.298C923.777 112.83 927.547 108.901 931.094 110.755L941.016 115.94C945.078 118.063 949.922 118.063 953.984 115.94L963.906 110.755C967.453 108.901 971.223 112.83 969.224 116.298L950.965 147.975C949.426 150.645 945.573 150.645 944.034 147.975ZM955.297 150.472C951.835 156.479 943.165 156.479 939.702 150.472L921.444 118.795C916.947 110.992 925.428 102.153 933.41 106.324L943.332 111.509C945.943 112.873 949.057 112.873 951.668 111.509L961.59 106.324C969.571 102.153 978.053 110.992 973.556 118.795L955.297 150.472Z" fill="white"/>
<path d="M95.25 118V63.94H74.34V58.5H122.45V63.94H101.54V118H95.25ZM138.109 85.105H169.559V90.46H138.109V85.105ZM138.789 112.56H174.574V118H132.499V58.5H173.299V63.94H138.789V112.56ZM189.359 118V58.5H211.629C216.672 58.5 221.007 59.3217 224.634 60.965C228.261 62.5517 231.037 64.875 232.964 67.935C234.947 70.9383 235.939 74.5933 235.939 78.9C235.939 83.0933 234.947 86.72 232.964 89.78C231.037 92.7833 228.261 95.1067 224.634 96.75C221.007 98.3367 216.672 99.13 211.629 99.13H192.844L195.649 96.24V118H189.359ZM229.989 118L214.689 96.41H221.489L236.874 118H229.989ZM195.649 96.75L192.844 93.775H211.459C217.409 93.775 221.914 92.4717 224.974 89.865C228.091 87.2583 229.649 83.6033 229.649 78.9C229.649 74.14 228.091 70.4567 224.974 67.85C221.914 65.2433 217.409 63.94 211.459 63.94H192.844L195.649 60.965V96.75ZM250.785 118V58.5H255.97L283.17 104.91H280.45L307.395 58.5H312.58V118H306.545V67.935H307.99L283.17 110.435H280.195L255.205 67.935H256.82V118H250.785ZM368.662 118.51C364.809 118.51 361.381 117.887 358.377 116.64C355.374 115.337 352.994 113.552 351.237 111.285C349.537 109.018 348.687 106.383 348.687 103.38C348.687 100.83 349.254 98.5067 350.387 96.41C351.521 94.2567 353.334 92.16 355.827 90.12C358.377 88.0233 361.749 85.8417 365.942 83.575C369.512 81.5917 372.289 79.8917 374.272 78.475C376.312 77.0017 377.757 75.6133 378.607 74.31C379.457 72.95 379.882 71.505 379.882 69.975C379.882 67.765 379.117 65.98 377.587 64.62C376.114 63.26 373.989 62.58 371.212 62.58C368.209 62.58 365.886 63.345 364.242 64.875C362.599 66.3483 361.777 68.275 361.777 70.655C361.777 71.845 361.947 72.9783 362.287 74.055C362.684 75.1317 363.392 76.3217 364.412 77.625C365.489 78.9283 366.962 80.5717 368.832 82.555L400.282 114.94L396.797 118.935L363.987 85.19C362.004 83.0933 360.417 81.28 359.227 79.75C358.094 78.1633 357.301 76.6617 356.847 75.245C356.394 73.8283 356.167 72.3267 356.167 70.74C356.167 68.19 356.762 65.98 357.952 64.11C359.199 62.1833 360.956 60.71 363.222 59.69C365.489 58.6133 368.152 58.075 371.212 58.075C373.989 58.075 376.397 58.5567 378.437 59.52C380.534 60.4267 382.149 61.7583 383.282 63.515C384.472 65.2717 385.067 67.3967 385.067 69.89C385.067 72.0433 384.529 74.055 383.452 75.925C382.432 77.795 380.732 79.6367 378.352 81.45C375.972 83.2067 372.742 85.19 368.662 87.4C365.092 89.3833 362.259 91.1967 360.162 92.84C358.122 94.4833 356.677 96.0983 355.827 97.685C354.977 99.215 354.552 100.915 354.552 102.785C354.552 104.938 355.147 106.837 356.337 108.48C357.584 110.067 359.284 111.313 361.437 112.22C363.647 113.07 366.169 113.495 369.002 113.495C372.969 113.495 376.511 112.673 379.627 111.03C382.744 109.387 385.351 106.893 387.447 103.55C389.601 100.207 391.159 96.0133 392.122 90.97L396.967 92.5C395.891 98.1667 394.049 102.927 391.442 106.78C388.836 110.633 385.606 113.552 381.752 115.535C377.899 117.518 373.536 118.51 368.662 118.51ZM109.53 191.51C105.053 191.51 100.917 190.773 97.12 189.3C93.3233 187.77 90.0367 185.645 87.26 182.925C84.4833 180.205 82.3017 177.003 80.715 173.32C79.185 169.637 78.42 165.613 78.42 161.25C78.42 156.887 79.185 152.863 80.715 149.18C82.3017 145.497 84.4833 142.295 87.26 139.575C90.0933 136.855 93.4083 134.758 97.205 133.285C101.002 131.755 105.138 130.99 109.615 130.99C113.922 130.99 117.973 131.727 121.77 133.2C125.567 134.617 128.768 136.77 131.375 139.66L127.38 143.655C124.943 141.162 122.252 139.377 119.305 138.3C116.358 137.167 113.185 136.6 109.785 136.6C106.215 136.6 102.9 137.223 99.84 138.47C96.78 139.66 94.1167 141.388 91.85 143.655C89.5833 145.865 87.7983 148.472 86.495 151.475C85.2483 154.422 84.625 157.68 84.625 161.25C84.625 164.82 85.2483 168.107 86.495 171.11C87.7983 174.057 89.5833 176.663 91.85 178.93C94.1167 181.14 96.78 182.868 99.84 184.115C102.9 185.305 106.215 185.9 109.785 185.9C113.185 185.9 116.358 185.333 119.305 184.2C122.252 183.067 124.943 181.253 127.38 178.76L131.375 182.755C128.768 185.645 125.567 187.827 121.77 189.3C117.973 190.773 113.893 191.51 109.53 191.51ZM169.549 191.51C165.072 191.51 160.907 190.773 157.054 189.3C153.257 187.77 149.942 185.645 147.109 182.925C144.332 180.148 142.15 176.947 140.564 173.32C139.034 169.637 138.269 165.613 138.269 161.25C138.269 156.887 139.034 152.892 140.564 149.265C142.15 145.582 144.332 142.38 147.109 139.66C149.942 136.883 153.257 134.758 157.054 133.285C160.85 131.755 165.015 130.99 169.549 130.99C174.025 130.99 178.162 131.755 181.959 133.285C185.755 134.758 189.042 136.855 191.819 139.575C194.652 142.295 196.834 145.497 198.364 149.18C199.95 152.863 200.744 156.887 200.744 161.25C200.744 165.613 199.95 169.637 198.364 173.32C196.834 177.003 194.652 180.205 191.819 182.925C189.042 185.645 185.755 187.77 181.959 189.3C178.162 190.773 174.025 191.51 169.549 191.51ZM169.549 185.9C173.119 185.9 176.405 185.305 179.409 184.115C182.469 182.868 185.104 181.14 187.314 178.93C189.58 176.663 191.337 174.057 192.584 171.11C193.83 168.107 194.454 164.82 194.454 161.25C194.454 157.68 193.83 154.422 192.584 151.475C191.337 148.472 189.58 145.865 187.314 143.655C185.104 141.388 182.469 139.66 179.409 138.47C176.405 137.223 173.119 136.6 169.549 136.6C165.979 136.6 162.664 137.223 159.604 138.47C156.544 139.66 153.88 141.388 151.614 143.655C149.404 145.865 147.647 148.472 146.344 151.475C145.097 154.422 144.474 157.68 144.474 161.25C144.474 164.763 145.097 168.022 146.344 171.025C147.647 174.028 149.404 176.663 151.614 178.93C153.88 181.14 156.544 182.868 159.604 184.115C162.664 185.305 165.979 185.9 169.549 185.9ZM214.842 191V131.5H220.027L261.082 183.18H258.362V131.5H264.567V191H259.382L218.412 139.32H221.132V191H214.842ZM283.988 191V131.5H308.213C314.56 131.5 320.113 132.775 324.873 135.325C329.69 137.818 333.43 141.303 336.093 145.78C338.756 150.257 340.088 155.413 340.088 161.25C340.088 167.087 338.756 172.243 336.093 176.72C333.43 181.197 329.69 184.71 324.873 187.26C320.113 189.753 314.56 191 308.213 191H283.988ZM290.278 185.56H307.873C313.143 185.56 317.705 184.54 321.558 182.5C325.468 180.403 328.5 177.542 330.653 173.915C332.806 170.232 333.883 166.01 333.883 161.25C333.883 156.433 332.806 152.212 330.653 148.585C328.5 144.958 325.468 142.125 321.558 140.085C317.705 137.988 313.143 136.94 307.873 136.94H290.278V185.56ZM354.212 191V131.5H360.502V191H354.212ZM391.422 191V136.94H370.512V131.5H418.622V136.94H397.712V191H391.422ZM428.67 191V131.5H434.96V191H428.67ZM480.33 191.51C475.853 191.51 471.688 190.773 467.835 189.3C464.038 187.77 460.723 185.645 457.89 182.925C455.113 180.148 452.932 176.947 451.345 173.32C449.815 169.637 449.05 165.613 449.05 161.25C449.05 156.887 449.815 152.892 451.345 149.265C452.932 145.582 455.113 142.38 457.89 139.66C460.723 136.883 464.038 134.758 467.835 133.285C471.632 131.755 475.797 130.99 480.33 130.99C484.807 130.99 488.943 131.755 492.74 133.285C496.537 134.758 499.823 136.855 502.6 139.575C505.433 142.295 507.615 145.497 509.145 149.18C510.732 152.863 511.525 156.887 511.525 161.25C511.525 165.613 510.732 169.637 509.145 173.32C507.615 177.003 505.433 180.205 502.6 182.925C499.823 185.645 496.537 187.77 492.74 189.3C488.943 190.773 484.807 191.51 480.33 191.51ZM480.33 185.9C483.9 185.9 487.187 185.305 490.19 184.115C493.25 182.868 495.885 181.14 498.095 178.93C500.362 176.663 502.118 174.057 503.365 171.11C504.612 168.107 505.235 164.82 505.235 161.25C505.235 157.68 504.612 154.422 503.365 151.475C502.118 148.472 500.362 145.865 498.095 143.655C495.885 141.388 493.25 139.66 490.19 138.47C487.187 137.223 483.9 136.6 480.33 136.6C476.76 136.6 473.445 137.223 470.385 138.47C467.325 139.66 464.662 141.388 462.395 143.655C460.185 145.865 458.428 148.472 457.125 151.475C455.878 154.422 455.255 157.68 455.255 161.25C455.255 164.763 455.878 168.022 457.125 171.025C458.428 174.028 460.185 176.663 462.395 178.93C464.662 181.14 467.325 182.868 470.385 184.115C473.445 185.305 476.76 185.9 480.33 185.9ZM525.624 191V131.5H530.809L571.864 183.18H569.144V131.5H575.349V191H570.164L529.194 139.32H531.914V191H525.624ZM611.174 191.51C606.754 191.51 602.504 190.802 598.424 189.385C594.401 187.912 591.284 186.042 589.074 183.775L591.539 178.93C593.636 180.97 596.441 182.698 599.954 184.115C603.524 185.475 607.264 186.155 611.174 186.155C614.914 186.155 617.946 185.702 620.269 184.795C622.649 183.832 624.377 182.557 625.454 180.97C626.587 179.383 627.154 177.627 627.154 175.7C627.154 173.377 626.474 171.507 625.114 170.09C623.811 168.673 622.082 167.568 619.929 166.775C617.776 165.925 615.396 165.188 612.789 164.565C610.182 163.942 607.576 163.29 604.969 162.61C602.362 161.873 599.954 160.91 597.744 159.72C595.591 158.53 593.834 156.972 592.474 155.045C591.171 153.062 590.519 150.483 590.519 147.31C590.519 144.363 591.284 141.672 592.814 139.235C594.401 136.742 596.809 134.758 600.039 133.285C603.269 131.755 607.406 130.99 612.449 130.99C615.792 130.99 619.107 131.472 622.394 132.435C625.681 133.342 628.514 134.617 630.894 136.26L628.769 141.275C626.219 139.575 623.499 138.328 620.609 137.535C617.776 136.742 615.027 136.345 612.364 136.345C608.794 136.345 605.847 136.827 603.524 137.79C601.201 138.753 599.472 140.057 598.339 141.7C597.262 143.287 596.724 145.1 596.724 147.14C596.724 149.463 597.376 151.333 598.679 152.75C600.039 154.167 601.796 155.272 603.949 156.065C606.159 156.858 608.567 157.567 611.174 158.19C613.781 158.813 616.359 159.493 618.909 160.23C621.516 160.967 623.896 161.93 626.049 163.12C628.259 164.253 630.016 165.783 631.319 167.71C632.679 169.637 633.359 172.158 633.359 175.275C633.359 178.165 632.566 180.857 630.979 183.35C629.392 185.787 626.956 187.77 623.669 189.3C620.439 190.773 616.274 191.51 611.174 191.51Z" fill="white"/>
</svg>
