<svg width="1080" height="256" viewBox="0 0 1080 256" fill="none" xmlns="http://www.w3.org/2000/svg">
<rect width="1080" height="256" fill="#212121"/>
<path fill-rule="evenodd" clip-rule="evenodd" d="M1000 127.5C1000 155.943 976.943 179 948.5 179C920.057 179 897 155.943 897 127.5C897 99.0573 920.057 76 948.5 76C976.943 76 1000 99.0573 1000 127.5ZM1005 127.5C1005 158.704 979.704 184 948.5 184C917.296 184 892 158.704 892 127.5C892 96.2959 917.296 71 948.5 71C979.704 71 1005 96.2959 1005 127.5ZM944.034 147.975L925.776 116.298C923.777 112.83 927.547 108.901 931.094 110.755L941.016 115.94C945.078 118.063 949.922 118.063 953.984 115.94L963.906 110.755C967.453 108.901 971.223 112.83 969.224 116.298L950.965 147.975C949.426 150.645 945.573 150.645 944.034 147.975ZM955.297 150.472C951.835 156.479 943.165 156.479 939.702 150.472L921.444 118.795C916.947 110.992 925.428 102.153 933.41 106.324L943.332 111.509C945.943 112.873 949.057 112.873 951.668 111.509L961.59 106.324C969.571 102.153 978.053 110.992 973.556 118.795L955.297 150.472Z" fill="white"/>
<path d="M83.69 118V58.5H89.98V112.56H123.3V118H83.69ZM124.224 118L151.424 58.5H157.629L184.829 118H178.199L153.209 62.155H155.759L130.769 118H124.224ZM134.934 102.105L136.804 97.005H171.399L173.269 102.105H134.934ZM194.671 118V58.5H199.856L227.056 104.91H224.336L251.281 58.5H256.466V118H250.431V67.935H251.876L227.056 110.435H224.081L199.091 67.935H200.706V118H194.671ZM266.333 118L293.533 58.5H299.738L326.938 118H320.308L295.318 62.155H297.868L272.878 118H266.333ZM277.043 102.105L278.913 97.005H313.508L315.378 102.105H277.043ZM372.542 118L352.482 58.5H358.942L377.727 114.515H374.497L393.877 58.5H399.657L418.782 114.515H415.722L434.677 58.5H440.712L420.652 118H414.022L395.747 64.875H397.447L379.087 118H372.542ZM440.899 118L468.099 58.5H474.304L501.504 118H494.874L469.884 62.155H472.434L447.444 118H440.899ZM451.609 102.105L453.479 97.005H488.074L489.944 102.105H451.609ZM516.786 103.21L516.531 95.56L552.571 58.5H559.796L533.531 86.04L529.961 89.865L516.786 103.21ZM511.346 118V58.5H517.636V118H511.346ZM554.101 118L528.431 88.42L532.681 83.83L561.581 118H554.101ZM579.933 118V63.94H559.023V58.5H607.133V63.94H586.223V118H579.933ZM639.989 118.51C632.396 118.51 626.417 116.328 622.054 111.965C617.691 107.602 615.509 101.142 615.509 92.585V58.5H621.799V92.33C621.799 99.3567 623.386 104.542 626.559 107.885C629.732 111.228 634.209 112.9 639.989 112.9C645.826 112.9 650.331 111.228 653.504 107.885C656.677 104.542 658.264 99.3567 658.264 92.33V58.5H664.384V92.585C664.384 101.142 662.202 107.602 657.839 111.965C653.532 116.328 647.582 118.51 639.989 118.51ZM83.69 191V131.5H105.96C111.003 131.5 115.338 132.322 118.965 133.965C122.592 135.552 125.368 137.875 127.295 140.935C129.278 143.938 130.27 147.593 130.27 151.9C130.27 156.093 129.278 159.72 127.295 162.78C125.368 165.783 122.592 168.107 118.965 169.75C115.338 171.393 111.003 172.215 105.96 172.215H87.175L89.98 169.24V191H83.69ZM89.98 169.75L87.175 166.69H105.79C111.74 166.69 116.245 165.415 119.305 162.865C122.422 160.258 123.98 156.603 123.98 151.9C123.98 147.14 122.422 143.457 119.305 140.85C116.245 138.243 111.74 136.94 105.79 136.94H87.175L89.98 133.965V169.75ZM149.481 158.105H180.931V163.46H149.481V158.105ZM150.161 185.56H185.946V191H143.871V131.5H184.671V136.94H150.161V185.56ZM200.731 191V131.5H205.916L246.971 183.18H244.251V131.5H250.456V191H245.271L204.301 139.32H207.021V191H200.731ZM295.972 191.51C291.438 191.51 287.245 190.773 283.392 189.3C279.595 187.77 276.28 185.645 273.447 182.925C270.67 180.205 268.488 177.003 266.902 173.32C265.372 169.637 264.607 165.613 264.607 161.25C264.607 156.887 265.372 152.863 266.902 149.18C268.488 145.497 270.698 142.295 273.532 139.575C276.365 136.855 279.68 134.758 283.477 133.285C287.33 131.755 291.523 130.99 296.057 130.99C300.59 130.99 304.727 131.698 308.467 133.115C312.263 134.532 315.493 136.685 318.157 139.575L314.247 143.57C311.753 141.077 309.005 139.292 306.002 138.215C302.998 137.138 299.768 136.6 296.312 136.6C292.628 136.6 289.228 137.223 286.112 138.47C283.052 139.66 280.36 141.388 278.037 143.655C275.77 145.865 273.985 148.472 272.682 151.475C271.435 154.422 270.812 157.68 270.812 161.25C270.812 164.763 271.435 168.022 272.682 171.025C273.985 174.028 275.77 176.663 278.037 178.93C280.36 181.14 283.052 182.868 286.112 184.115C289.228 185.305 292.6 185.9 296.227 185.9C299.627 185.9 302.828 185.39 305.832 184.37C308.892 183.35 311.697 181.622 314.247 179.185L317.817 183.945C314.983 186.438 311.668 188.337 307.872 189.64C304.075 190.887 300.108 191.51 295.972 191.51ZM311.782 183.18V161.25H317.817V183.945L311.782 183.18ZM341.229 158.105H372.679V163.46H341.229V158.105ZM341.909 185.56H377.694V191H335.619V131.5H376.419V136.94H341.909V185.56ZM392.479 191V131.5H414.749C419.792 131.5 424.127 132.322 427.754 133.965C431.381 135.552 434.157 137.875 436.084 140.935C438.067 143.938 439.059 147.593 439.059 151.9C439.059 156.093 438.067 159.72 436.084 162.78C434.157 165.783 431.381 168.107 427.754 169.75C424.127 171.337 419.792 172.13 414.749 172.13H395.964L398.769 169.24V191H392.479ZM433.109 191L417.809 169.41H424.609L439.994 191H433.109ZM398.769 169.75L395.964 166.775H414.579C420.529 166.775 425.034 165.472 428.094 162.865C431.211 160.258 432.769 156.603 432.769 151.9C432.769 147.14 431.211 143.457 428.094 140.85C425.034 138.243 420.529 136.94 414.579 136.94H395.964L398.769 133.965V169.75ZM459.45 191.51C456.106 191.51 452.961 190.773 450.015 189.3C447.125 187.827 444.801 185.73 443.045 183.01L446.7 178.76C448.343 181.14 450.241 182.953 452.395 184.2C454.548 185.447 456.928 186.07 459.535 186.07C466.901 186.07 470.585 181.707 470.585 172.98V136.94H448.825V131.5H476.79V172.725C476.79 179.015 475.316 183.718 472.37 186.835C469.48 189.952 465.173 191.51 459.45 191.51ZM484.893 191L512.093 131.5H518.298L545.498 191H538.868L513.878 135.155H516.428L491.438 191H484.893ZM495.603 175.105L497.473 170.005H532.068L533.938 175.105H495.603ZM546.484 191L573.684 131.5H579.889L607.089 191H600.459L575.469 135.155H578.019L553.029 191H546.484ZM557.194 175.105L559.064 170.005H593.659L595.529 175.105H557.194ZM616.932 191V131.5H622.117L663.172 183.18H660.452V131.5H666.657V191H661.472L620.502 139.32H623.222V191H616.932Z" fill="white"/>
</svg>
