<svg width="1080" height="256" viewBox="0 0 1080 256" fill="none" xmlns="http://www.w3.org/2000/svg">
<rect width="1080" height="256" fill="#212121"/>
<path fill-rule="evenodd" clip-rule="evenodd" d="M1000 127.5C1000 155.943 976.943 179 948.5 179C920.057 179 897 155.943 897 127.5C897 99.0573 920.057 76 948.5 76C976.943 76 1000 99.0573 1000 127.5ZM1005 127.5C1005 158.704 979.704 184 948.5 184C917.296 184 892 158.704 892 127.5C892 96.2959 917.296 71 948.5 71C979.704 71 1005 96.2959 1005 127.5ZM944.034 147.975L925.776 116.298C923.777 112.83 927.547 108.901 931.094 110.755L941.016 115.94C945.078 118.063 949.922 118.063 953.984 115.94L963.906 110.755C967.453 108.901 971.223 112.83 969.224 116.298L950.965 147.975C949.426 150.645 945.573 150.645 944.034 147.975ZM955.297 150.472C951.835 156.479 943.165 156.479 939.702 150.472L921.444 118.795C916.947 110.992 925.428 102.153 933.41 106.324L943.332 111.509C945.943 112.873 949.057 112.873 951.668 111.509L961.59 106.324C969.571 102.153 978.053 110.992 973.556 118.795L955.297 150.472Z" fill="white"/>
<path d="M83.69 118V58.5H105.96C111.003 58.5 115.338 59.3217 118.965 60.965C122.592 62.5517 125.368 64.875 127.295 67.935C129.278 70.9383 130.27 74.5933 130.27 78.9C130.27 83.0933 129.278 86.72 127.295 89.78C125.368 92.7833 122.592 95.1067 118.965 96.75C115.338 98.3933 111.003 99.215 105.96 99.215H87.175L89.98 96.24V118H83.69ZM89.98 96.75L87.175 93.69H105.79C111.74 93.69 116.245 92.415 119.305 89.865C122.422 87.2583 123.98 83.6033 123.98 78.9C123.98 74.14 122.422 70.4567 119.305 67.85C116.245 65.2433 111.74 63.94 105.79 63.94H87.175L89.98 60.965V96.75ZM149.481 85.105H180.931V90.46H149.481V85.105ZM150.161 112.56H185.946V118H143.871V58.5H184.671V63.94H150.161V112.56ZM200.731 118V58.5H205.916L246.971 110.18H244.251V58.5H250.456V118H245.271L204.301 66.32H207.021V118H200.731ZM295.972 118.51C291.438 118.51 287.245 117.773 283.392 116.3C279.595 114.77 276.28 112.645 273.447 109.925C270.67 107.205 268.488 104.003 266.902 100.32C265.372 96.6367 264.607 92.6133 264.607 88.25C264.607 83.8867 265.372 79.8633 266.902 76.18C268.488 72.4967 270.698 69.295 273.532 66.575C276.365 63.855 279.68 61.7583 283.477 60.285C287.33 58.755 291.523 57.99 296.057 57.99C300.59 57.99 304.727 58.6983 308.467 60.115C312.263 61.5317 315.493 63.685 318.157 66.575L314.247 70.57C311.753 68.0767 309.005 66.2917 306.002 65.215C302.998 64.1383 299.768 63.6 296.312 63.6C292.628 63.6 289.228 64.2233 286.112 65.47C283.052 66.66 280.36 68.3883 278.037 70.655C275.77 72.865 273.985 75.4717 272.682 78.475C271.435 81.4217 270.812 84.68 270.812 88.25C270.812 91.7633 271.435 95.0217 272.682 98.025C273.985 101.028 275.77 103.663 278.037 105.93C280.36 108.14 283.052 109.868 286.112 111.115C289.228 112.305 292.6 112.9 296.227 112.9C299.627 112.9 302.828 112.39 305.832 111.37C308.892 110.35 311.697 108.622 314.247 106.185L317.817 110.945C314.983 113.438 311.668 115.337 307.872 116.64C304.075 117.887 300.108 118.51 295.972 118.51ZM311.782 110.18V88.25H317.817V110.945L311.782 110.18ZM341.229 85.105H372.679V90.46H341.229V85.105ZM341.909 112.56H377.694V118H335.619V58.5H376.419V63.94H341.909V112.56ZM392.479 118V58.5H414.749C419.792 58.5 424.127 59.3217 427.754 60.965C431.381 62.5517 434.157 64.875 436.084 67.935C438.067 70.9383 439.059 74.5933 439.059 78.9C439.059 83.0933 438.067 86.72 436.084 89.78C434.157 92.7833 431.381 95.1067 427.754 96.75C424.127 98.3367 419.792 99.13 414.749 99.13H395.964L398.769 96.24V118H392.479ZM433.109 118L417.809 96.41H424.609L439.994 118H433.109ZM398.769 96.75L395.964 93.775H414.579C420.529 93.775 425.034 92.4717 428.094 89.865C431.211 87.2583 432.769 83.6033 432.769 78.9C432.769 74.14 431.211 70.4567 428.094 67.85C425.034 65.2433 420.529 63.94 414.579 63.94H395.964L398.769 60.965V96.75ZM459.45 118.51C456.106 118.51 452.961 117.773 450.015 116.3C447.125 114.827 444.801 112.73 443.045 110.01L446.7 105.76C448.343 108.14 450.241 109.953 452.395 111.2C454.548 112.447 456.928 113.07 459.535 113.07C466.901 113.07 470.585 108.707 470.585 99.98V63.94H448.825V58.5H476.79V99.725C476.79 106.015 475.316 110.718 472.37 113.835C469.48 116.952 465.173 118.51 459.45 118.51ZM484.893 118L512.093 58.5H518.298L545.498 118H538.868L513.878 62.155H516.428L491.438 118H484.893ZM495.603 102.105L497.473 97.005H532.068L533.938 102.105H495.603ZM546.484 118L573.684 58.5H579.889L607.089 118H600.459L575.469 62.155H578.019L553.029 118H546.484ZM557.194 102.105L559.064 97.005H593.659L595.529 102.105H557.194ZM616.932 118V58.5H622.117L663.172 110.18H660.452V58.5H666.657V118H661.472L620.502 66.32H623.222V118H616.932ZM95.25 191V136.94H74.34V131.5H122.45V136.94H101.54V191H95.25ZM119.99 191L147.19 131.5H153.395L180.595 191H173.965L148.975 135.155H151.525L126.535 191H119.99ZM130.7 175.105L132.57 170.005H167.165L169.035 175.105H130.7ZM190.438 191V131.5H195.623L222.823 177.91H220.103L247.048 131.5H252.233V191H246.198V140.935H247.643L222.823 183.435H219.848L194.858 140.935H196.473V191H190.438ZM271.62 191V131.5H297.29C303.92 131.5 309.048 132.832 312.675 135.495C316.358 138.158 318.2 141.927 318.2 146.8C318.2 150.03 317.435 152.75 315.905 154.96C314.431 157.17 312.391 158.842 309.785 159.975C307.235 161.108 304.43 161.675 301.37 161.675L302.815 159.635C306.611 159.635 309.87 160.23 312.59 161.42C315.366 162.553 317.52 164.282 319.05 166.605C320.58 168.872 321.345 171.705 321.345 175.105C321.345 180.148 319.475 184.058 315.735 186.835C312.051 189.612 306.47 191 298.99 191H271.62ZM277.91 185.815H298.905C304.118 185.815 308.113 184.937 310.89 183.18C313.666 181.367 315.055 178.505 315.055 174.595C315.055 170.742 313.666 167.937 310.89 166.18C308.113 164.367 304.118 163.46 298.905 163.46H277.23V158.275H296.865C301.625 158.275 305.308 157.368 307.915 155.555C310.578 153.742 311.91 151.05 311.91 147.48C311.91 143.853 310.578 141.162 307.915 139.405C305.308 137.592 301.625 136.685 296.865 136.685H277.91V185.815ZM326.182 191L353.382 131.5H359.587L386.787 191H380.157L355.167 135.155H357.717L332.727 191H326.182ZM336.892 175.105L338.762 170.005H373.357L375.227 175.105H336.892ZM440.149 131.5H446.354V191H440.149V131.5ZM402.919 191H396.629V131.5H402.919V191ZM440.744 163.545H402.239V158.02H440.744V163.545ZM456.255 191L483.455 131.5H489.66L516.86 191H510.23L485.24 135.155H487.79L462.8 191H456.255ZM466.965 175.105L468.835 170.005H503.43L505.3 175.105H466.965ZM526.703 191V131.5H531.888L572.943 183.18H570.223V131.5H576.428V191H571.243L530.273 139.32H532.993V191H526.703Z" fill="white"/>
</svg>
