<svg width="1080" height="256" viewBox="0 0 1080 256" fill="none" xmlns="http://www.w3.org/2000/svg">
<rect width="1080" height="256" fill="#212121"/>
<path d="M97.885 118V95.9L99.33 99.81L74.085 58.5H80.8L102.985 94.795H99.415L121.6 58.5H127.89L102.645 99.81L104.09 95.9V118H97.885ZM124.639 118L151.839 58.5H158.044L185.244 118H178.614L153.624 62.155H156.174L131.184 118H124.639ZM135.349 102.105L137.219 97.005H171.814L173.684 102.105H135.349ZM195.086 118V58.5H200.271L241.326 110.18H238.606V58.5H244.811V118H239.626L198.656 66.32H201.376V118H195.086ZM290.327 118.51C285.794 118.51 281.6 117.773 277.747 116.3C273.95 114.77 270.635 112.645 267.802 109.925C265.025 107.205 262.844 104.003 261.257 100.32C259.727 96.6367 258.962 92.6133 258.962 88.25C258.962 83.8867 259.727 79.8633 261.257 76.18C262.844 72.4967 265.054 69.295 267.887 66.575C270.72 63.855 274.035 61.7583 277.832 60.285C281.685 58.755 285.879 57.99 290.412 57.99C294.945 57.99 299.082 58.6983 302.822 60.115C306.619 61.5317 309.849 63.685 312.512 66.575L308.602 70.57C306.109 68.0767 303.36 66.2917 300.357 65.215C297.354 64.1383 294.124 63.6 290.667 63.6C286.984 63.6 283.584 64.2233 280.467 65.47C277.407 66.66 274.715 68.3883 272.392 70.655C270.125 72.865 268.34 75.4717 267.037 78.475C265.79 81.4217 265.167 84.68 265.167 88.25C265.167 91.7633 265.79 95.0217 267.037 98.025C268.34 101.028 270.125 103.663 272.392 105.93C274.715 108.14 277.407 109.868 280.467 111.115C283.584 112.305 286.955 112.9 290.582 112.9C293.982 112.9 297.184 112.39 300.187 111.37C303.247 110.35 306.052 108.622 308.602 106.185L312.172 110.945C309.339 113.438 306.024 115.337 302.227 116.64C298.43 117.887 294.464 118.51 290.327 118.51ZM306.137 110.18V88.25H312.172V110.945L306.137 110.18ZM395.74 58.5H401.945V118H395.74V58.5ZM358.51 118H352.22V58.5H358.51V118ZM396.335 90.545H357.83V85.02H396.335V90.545ZM411.846 118L439.046 58.5H445.251L472.451 118H465.821L440.831 62.155H443.381L418.391 118H411.846ZM422.556 102.105L424.426 97.005H459.021L460.891 102.105H422.556ZM482.294 118V58.5H504.564C509.607 58.5 513.942 59.3217 517.569 60.965C521.195 62.5517 523.972 64.875 525.899 67.935C527.882 70.9383 528.874 74.5933 528.874 78.9C528.874 83.0933 527.882 86.72 525.899 89.78C523.972 92.7833 521.195 95.1067 517.569 96.75C513.942 98.3367 509.607 99.13 504.564 99.13H485.779L488.584 96.24V118H482.294ZM522.924 118L507.624 96.41H514.424L529.809 118H522.924ZM488.584 96.75L485.779 93.775H504.394C510.344 93.775 514.849 92.4717 517.909 89.865C521.025 87.2583 522.584 83.6033 522.584 78.9C522.584 74.14 521.025 70.4567 517.909 67.85C514.849 65.2433 510.344 63.94 504.394 63.94H485.779L488.584 60.965V96.75ZM567.689 118.51C560.096 118.51 554.118 116.328 549.754 111.965C545.391 107.602 543.209 101.142 543.209 92.585V58.5H549.499V92.33C549.499 99.3567 551.086 104.542 554.259 107.885C557.433 111.228 561.909 112.9 567.689 112.9C573.526 112.9 578.031 111.228 581.204 107.885C584.378 104.542 585.964 99.3567 585.964 92.33V58.5H592.084V92.585C592.084 101.142 589.903 107.602 585.539 111.965C581.233 116.328 575.283 118.51 567.689 118.51ZM627.444 118.51C623.024 118.51 618.774 117.802 614.694 116.385C610.67 114.912 607.554 113.042 605.344 110.775L607.809 105.93C609.905 107.97 612.71 109.698 616.224 111.115C619.794 112.475 623.534 113.155 627.444 113.155C631.184 113.155 634.215 112.702 636.539 111.795C638.919 110.832 640.647 109.557 641.724 107.97C642.857 106.383 643.424 104.627 643.424 102.7C643.424 100.377 642.744 98.5067 641.384 97.09C640.08 95.6733 638.352 94.5683 636.199 93.775C634.045 92.925 631.665 92.1883 629.059 91.565C626.452 90.9417 623.845 90.29 621.239 89.61C618.632 88.8733 616.224 87.91 614.014 86.72C611.86 85.53 610.104 83.9717 608.744 82.045C607.44 80.0617 606.789 77.4833 606.789 74.31C606.789 71.3633 607.554 68.6717 609.084 66.235C610.67 63.7417 613.079 61.7583 616.309 60.285C619.539 58.755 623.675 57.99 628.719 57.99C632.062 57.99 635.377 58.4717 638.664 59.435C641.95 60.3417 644.784 61.6167 647.164 63.26L645.039 68.275C642.489 66.575 639.769 65.3283 636.879 64.535C634.045 63.7417 631.297 63.345 628.634 63.345C625.064 63.345 622.117 63.8267 619.794 64.79C617.47 65.7533 615.742 67.0567 614.609 68.7C613.532 70.2867 612.994 72.1 612.994 74.14C612.994 76.4633 613.645 78.3333 614.949 79.75C616.309 81.1667 618.065 82.2717 620.219 83.065C622.429 83.8583 624.837 84.5667 627.444 85.19C630.05 85.8133 632.629 86.4933 635.179 87.23C637.785 87.9667 640.165 88.93 642.319 90.12C644.529 91.2533 646.285 92.7833 647.589 94.71C648.949 96.6367 649.629 99.1583 649.629 102.275C649.629 105.165 648.835 107.857 647.249 110.35C645.662 112.787 643.225 114.77 639.939 116.3C636.709 117.773 632.544 118.51 627.444 118.51ZM89.13 176.21L88.875 168.56L124.915 131.5H132.14L105.875 159.04L102.305 162.865L89.13 176.21ZM83.69 191V131.5H89.98V191H83.69ZM126.445 191L100.775 161.42L105.025 156.83L133.925 191H126.445ZM144.12 191V131.5H150.41V185.56H183.73V191H144.12ZM194.173 191V131.5H200.463V191H194.173ZM225.433 158.105H256.883V163.46H225.433V158.105ZM226.113 185.56H261.898V191H219.823V131.5H260.623V136.94H226.113V185.56ZM276.683 191V131.5H281.868L322.923 183.18H320.203V131.5H326.408V191H321.223L280.253 139.32H282.973V191H276.683ZM384.48 191.51C380.06 191.51 375.81 190.802 371.73 189.385C367.706 187.912 364.59 186.042 362.38 183.775L364.845 178.93C366.941 180.97 369.746 182.698 373.26 184.115C376.83 185.475 380.57 186.155 384.48 186.155C388.22 186.155 391.251 185.702 393.575 184.795C395.955 183.832 397.683 182.557 398.76 180.97C399.893 179.383 400.46 177.627 400.46 175.7C400.46 173.377 399.78 171.507 398.42 170.09C397.116 168.673 395.388 167.568 393.235 166.775C391.081 165.925 388.701 165.188 386.095 164.565C383.488 163.942 380.881 163.29 378.275 162.61C375.668 161.873 373.26 160.91 371.05 159.72C368.896 158.53 367.14 156.972 365.78 155.045C364.476 153.062 363.825 150.483 363.825 147.31C363.825 144.363 364.59 141.672 366.12 139.235C367.706 136.742 370.115 134.758 373.345 133.285C376.575 131.755 380.711 130.99 385.755 130.99C389.098 130.99 392.413 131.472 395.7 132.435C398.986 133.342 401.82 134.617 404.2 136.26L402.075 141.275C399.525 139.575 396.805 138.328 393.915 137.535C391.081 136.742 388.333 136.345 385.67 136.345C382.1 136.345 379.153 136.827 376.83 137.79C374.506 138.753 372.778 140.057 371.645 141.7C370.568 143.287 370.03 145.1 370.03 147.14C370.03 149.463 370.681 151.333 371.985 152.75C373.345 154.167 375.101 155.272 377.255 156.065C379.465 156.858 381.873 157.567 384.48 158.19C387.086 158.813 389.665 159.493 392.215 160.23C394.821 160.967 397.201 161.93 399.355 163.12C401.565 164.253 403.321 165.783 404.625 167.71C405.985 169.637 406.665 172.158 406.665 175.275C406.665 178.165 405.871 180.857 404.285 183.35C402.698 185.787 400.261 187.77 396.975 189.3C393.745 190.773 389.58 191.51 384.48 191.51ZM420.37 191V131.5H426.66V191H420.37ZM436.499 191L463.699 131.5H469.904L497.104 191H490.474L465.484 135.155H468.034L443.044 191H436.499ZM447.209 175.105L449.079 170.005H483.674L485.544 175.105H447.209ZM506.947 191V131.5H529.217C534.26 131.5 538.595 132.322 542.222 133.965C545.849 135.552 548.625 137.875 550.552 140.935C552.535 143.938 553.527 147.593 553.527 151.9C553.527 156.093 552.535 159.72 550.552 162.78C548.625 165.783 545.849 168.107 542.222 169.75C538.595 171.393 534.26 172.215 529.217 172.215H510.432L513.237 169.24V191H506.947ZM513.237 169.75L510.432 166.69H529.047C534.997 166.69 539.502 165.415 542.562 162.865C545.679 160.258 547.237 156.603 547.237 151.9C547.237 147.14 545.679 143.457 542.562 140.85C539.502 138.243 534.997 136.94 529.047 136.94H510.432L513.237 133.965V169.75ZM572.568 176.21L572.313 168.56L608.353 131.5H615.578L589.313 159.04L585.743 162.865L572.568 176.21ZM567.128 191V131.5H573.418V191H567.128ZM609.883 191L584.213 161.42L588.463 156.83L617.363 191H609.883ZM615.713 191L642.913 131.5H649.118L676.318 191H669.688L644.698 135.155H647.248L622.258 191H615.713ZM626.423 175.105L628.293 170.005H662.888L664.758 175.105H626.423ZM686.161 191V131.5H691.346L732.401 183.18H729.681V131.5H735.886V191H730.701L689.731 139.32H692.451V191H686.161Z" fill="white"/>
<path fill-rule="evenodd" clip-rule="evenodd" d="M1000 127.5C1000 155.943 976.943 179 948.5 179C920.057 179 897 155.943 897 127.5C897 99.0573 920.057 76 948.5 76C976.943 76 1000 99.0573 1000 127.5ZM1005 127.5C1005 158.704 979.704 184 948.5 184C917.296 184 892 158.704 892 127.5C892 96.2959 917.296 71 948.5 71C979.704 71 1005 96.2959 1005 127.5ZM944.034 147.975L925.776 116.298C923.777 112.83 927.547 108.901 931.094 110.755L941.016 115.94C945.078 118.063 949.922 118.063 953.984 115.94L963.906 110.755C967.453 108.901 971.223 112.83 969.224 116.298L950.965 147.975C949.426 150.645 945.573 150.645 944.034 147.975ZM955.297 150.472C951.835 156.479 943.165 156.479 939.702 150.472L921.444 118.795C916.947 110.992 925.428 102.153 933.41 106.324L943.332 111.509C945.943 112.873 949.057 112.873 951.668 111.509L961.59 106.324C969.571 102.153 978.053 110.992 973.556 118.795L955.297 150.472Z" fill="white"/>
</svg>
